<?xml version="1.0" encoding="utf-8"?>
<!-- Generator: Adobe Illustrator 20.1.0, SVG Export Plug-In . SVG Version: 6.00 Build 0)  -->
<svg version="1.1"
	 id="laguajira" inkscape:output_extension="org.inkscape.output.svg.inkscape" inkscape:version="0.46" sodipodi:docname="departamentos_colombia_plain.svg" sodipodi:version="0.32" xmlns:cc="http://creativecommons.org/ns#" xmlns:dc="http://purl.org/dc/elements/1.1/" xmlns:inkscape="http://www.inkscape.org/namespaces/inkscape" xmlns:rdf="http://www.w3.org/1999/02/22-rdf-syntax-ns#" xmlns:sodipodi="http://sodipodi.sourceforge.net/DTD/sodipodi-0.dtd" xmlns:svg="http://www.w3.org/2000/svg"
	 xmlns="http://www.w3.org/2000/svg" xmlns:xlink="http://www.w3.org/1999/xlink" x="0px" y="0px" viewBox="0 0 418 338"
	 style="enable-background:new 0 0 418 338;" xml:space="preserve">
<path id="divi-44378" class="st0" d="M176.6,197.5l2,4.9c0,0-0.1,0-0.1,0.1l-2.9,2.6l-4,3.7c0,0-0.1,0.1-0.1,0.1l-2.8,3.8l-2.6,0.3
	h0l-3.4-0.7l-4.3-3.2c0,0,0,0-0.1-0.1l-5.9-3.1l1.5-1.1h0l7.5-4.7h3.2c0.1,0,0.2,0,0.3-0.1l2.8-2.1l8.7-0.4
	C176.4,197.6,176.5,197.6,176.6,197.5L176.6,197.5z"/>
<path id="divi-44847" class="st0" d="M299.2,37.1l13.3,1.7l11.5,1.8h0l10.5,4.6c0,0,0,0,0,0l19.7,7.9l10.7,16c0,0,1.4,3.4,2.6,7.3
	c0.6,2,1.3,4.1,1.6,6c0.4,1.9,0.5,3.6,0.3,4.6c-0.4,2.1-2.6,4.3-4.6,5.9s-4,2.7-4,2.7l-10.7,4.2c0,0,0,0-0.1,0l-6.7,3.4
	c-0.1,0.1-0.2,0.2-0.3,0.3s0,0.3,0,0.4l2.7,4.7l-7.1,3.5c-0.2,0.1-0.3,0.3-0.3,0.5l0.2,3.7l-10.4,2.1c0,0,0,0-0.1,0l-62.3,18
	l-3.9-6.3c-0.1-0.2-0.4-0.3-0.7-0.2l-4.8,1.5c-0.1,0-0.2,0.1-0.3,0.2l-11.6,17.8l-12.2-0.4c-0.3,0-0.6,0.2-0.6,0.5l-0.3,2.4
	l-3.7-0.3c0.1-0.2,0-0.4-0.1-0.5c-0.1-0.2-0.3-0.2-0.5-0.3h-0.3l-1.5-2c0-0.1-0.1-0.1-0.2-0.2l-5-3.2l-1.8-4.2
	c0-0.1-0.1-0.2-0.2-0.3l-4-2.2l-2.9-3.5l2.9-2.6c0.2-0.2,0.2-0.4,0.2-0.6l-0.7-2.3l5.8-9.7c0.1-0.2,0.1-0.3,0-0.5l-3-6.6l9-3.9
	c0,0,0.1-0.1,0.1-0.1l5.8-4.5c0.1-0.1,0.2-0.2,0.2-0.4l0.2-3.3l10.3-17.3c0.1-0.1,0.1-0.2,0.1-0.3L241,70.5c0-0.1,0-0.1,0-0.2
	l-2-4.4l6.8-1.9c0.1,0.3,0.2,0.6,0.7,0.9c0.3,0.3,0.9,0.5,1.4,0.4c0.4-0.1,0.9-0.5,1.2-1l12-2.3l1.7,0.2l-3.4,4.2
	c-0.1,0.2-0.1,0.4-0.1,0.6l1,2.6l-0.9,2.5c-0.1,0.3,0,0.5,0.2,0.7l3.8,2.2c0.2,0.1,0.4,0.1,0.6,0l6.8-3.8l0,0l4.1-1.9
	c0.1,0,0.2-0.1,0.2-0.2l3.4-4.8c0.1-0.1,0.1-0.3,0.1-0.5c0-0.2-0.1-0.3-0.3-0.4l-5-2.8l-0.9-3.1c-0.1-0.3-0.3-0.4-0.6-0.4l-5.8,0.8
	l5.5-4.4l0,0l8.1-5.6l-1.7,4.2c-0.1,0.1-0.1,0.3,0,0.4s0.2,0.3,0.3,0.3l5.5,1.9c0.2,0.1,0.4,0,0.5-0.1l8-5c0.2-0.1,0.3-0.3,0.2-0.6
	l-0.8-4.9l1.7,1.2c0,0,0,0,0,0l5.2,3.3c0.2,0.1,0.4,0.1,0.5,0c0.2-0.1,0.3-0.2,0.3-0.4l0.6-3.2l3.3-0.4c0.1,0,0.3-0.1,0.4-0.2
	l3.3-4.2c0.1-0.2,0.1-0.4,0.1-0.5c-0.1-0.2-0.2-0.3-0.4-0.4l-10-1.7L299.2,37.1z"/>
<path id="divi-44560" class="st0" d="M215.8,113.5l2.8,6.3l-5.7,9.7c-0.1,0.1-0.1,0.3-0.1,0.5l0.7,2.2l-3.1,2.7
	c-0.1,0.1-0.2,0.2-0.2,0.4c0,0.2,0,0.3,0.1,0.4l3.3,4c0.1,0.1,0.1,0.1,0.2,0.1l3.8,2.1l1.8,4.2c0,0.1,0.1,0.2,0.2,0.2l5.1,3.3
	l0.9,1.2l-14.1-0.3c-0.3,0-0.5,0.2-0.6,0.4l-1,4.4l-5.4,0.3c-0.1,0-0.2,0-0.2,0.1l-6.5,3.6l-8.3,0.4h0l-6.8-1.8
	c-0.2,0-0.3,0-0.5,0.1s-0.2,0.2-0.3,0.4l-1,5.1l-2,0.3l-7.8-4.6l-2.1-3.9c-0.1-0.2-0.3-0.3-0.5-0.3l-7.2-0.3l-9.5-2.9l-0.1,0
	l-6.8-2.8l-0.9-1.8l2.9-1.4c0,0,0.1,0,0.1-0.1l5.2-4.5c0,0,0,0,0.1-0.1l6.5-7.5l21.3-7.6l12.9-0.3c0.2,0,0.4-0.1,0.5-0.2l2.8-4.1
	l8.6-0.7c0.1,0,0.2,0,0.3-0.1l10.2-6.8l0.1-0.1L215.8,113.5z"/>
<path id="divi-44430" class="st0" d="M261.3,131.2l3.9,6.4l-33,63.3l-25.4,3.7c-0.1,0-0.2,0-0.2,0.1l-5-4.1
	c-0.2-0.2-0.4-0.2-0.7-0.1l-2.9-1.9l9.1-0.4c0.2,0,0.4-0.1,0.5-0.3l3.3-6.2c0.1-0.2,0.1-0.4,0-0.5l-3.7-8l0-0.1l-0.7-2.2
	c-0.1-0.1-0.2-0.2-0.3-0.3l-5.3-2.8l-4.3-6.8l0,0l-1.8-3.6c-0.1-0.2-0.2-0.3-0.4-0.3l-5.5-1.5c-0.2,0-0.4,0-0.5,0.1l-3.3,2.6
	c-0.2,0.1-0.3,0.3-0.2,0.5c0,0.2,0.2,0.4,0.4,0.5l2.9,1v3.2l-1.8,0.6c0,0-0.1,0-0.1,0.1l-2.4,1.5l-2.2-5.2l0-0.1l-2-5.5l1.9-0.3
	c0.2,0,0.4-0.2,0.5-0.4l1-4.9l6.4,1.7c0.1,0,0.1,0,0.2,0l8.5-0.4c0.1,0,0.2,0,0.2-0.1l6.5-3.6l5.8-0.4c0.3,0,0.5-0.2,0.5-0.4l1-4.3
	l14.5,0.3l0.4,0.5c0.1,0.1,0.2,0.2,0.4,0.2l4.8,0.4c0.3,0,0.6-0.2,0.6-0.5l0.3-2.4l12,0.3c0.2,0,0.4-0.1,0.5-0.3l11.6-17.8
	L261.3,131.2z"/>
<path id="divi-44001" class="st0" d="M143.1,147.4l1,2.1c0.1,0.1,0.2,0.2,0.3,0.3l7,2.9c0,0,0,0,0.1,0l9.6,3c0,0,0.1,0,0.1,0l7,0.3
	l2.1,3.8c0.1,0.1,0.1,0.2,0.2,0.2l7.9,4.7l2.2,6c0,0,0,0,0,0l2.4,5.5c-0.1,0.1-0.2,0.2-0.2,0.4l-0.8,4.8c0,0.1,0,0.2,0,0.3l1.7,4
	l-4.4,3c-0.1,0-0.1,0.1-0.2,0.2l-2.2,2.9c-0.1,0.1-0.1,0.2-0.1,0.3l-0.3,4.3c-0.1,0-0.1,0-0.2,0l-8.8,0.4c-0.1,0-0.2,0.1-0.3,0.1
	l-2.8,2.1h-3.1c-0.1,0-0.2,0-0.3,0.1l-7.7,4.8c0,0,0,0,0,0l-4.8,3.3c0,0-0.1,0.1-0.1,0.1l-5.4,6.2l-1.5,0.6l-4.9-2.5
	c-0.2-0.1-0.3-0.1-0.5,0l-5.1,2.2c-0.1,0-0.1,0.1-0.2,0.1l-2.8,2.5l-7.7,2.5v0l-4,0.7c-0.1,0-0.1,0.1-0.2,0.1l-4.7,2.9l-7.6,2.9
	l-7.2-0.4c-0.1,0-0.1,0-0.2,0l-7.8,2.5l5.1-9c0.1-0.1,0.1-0.2,0.1-0.3l-0.3-4.5l2.3-2.7l8.7-4c0,0,0,0,0,0l3.6-1.8l0.1,0l4-1.4
	c0.1,0,0.2-0.1,0.3-0.2l4.8-7.3c0,0,0-0.1,0.1-0.2l1.5-5.9c0-0.2,0-0.3-0.1-0.5l-2.9-4.4c0-0.1-0.1-0.1-0.2-0.2l-5.8-4.3l-0.1-0.1
	l0,0l-3.6-4.3c0,0-0.1-0.1-0.1-0.1l-0.4-0.3l3.4-2.7c0,0,0,0,0.1-0.1l5.1-5l3.4,2.1c0.3,0.2,0.6,0.1,0.8-0.2l3.1-4.6l0,0l5.8-7.8
	l0,0l15.4-10.2L143.1,147.4z"/>
<path id="divi-44035" class="st0" d="M188.8,166.8l5,1.3l1.7,3.4c0,0,0,0,0,0l4.4,7c0.1,0.1,0.1,0.1,0.2,0.2l5.3,2.8l0.7,2
	c0,0,0,0,0,0.1l3.6,7.8l-3,5.7l-8.8,0.3l-4.5-1.8h0l-0.1,0c-0.3-0.1-0.6,0-0.8,0.2c-0.1,0.3,0,0.6,0.2,0.8l8.1,5.1
	c0.1,0.1,0.3,0.1,0.5,0.1l4.5,3.6l-2.8,4.1l-0.1,0.1l-3.9-0.8l-1-3.3c-0.1-0.2-0.2-0.3-0.4-0.4l-7-1.8c0,0,0,0-0.1,0l-4.7-0.7v-3.2
	c0-0.2-0.1-0.3-0.2-0.4c-0.1-0.1-0.3-0.2-0.4-0.2h-3.3c-0.2,0-0.3,0.1-0.4,0.2l-2.3,2.3l-1.8-4.6l0.4-4.5l2-2.7l4.7-3.3
	c0.2-0.1,0.3-0.4,0.2-0.7l-1.8-4.3l0.7-4.5c0,0,0.1,0,0.1,0l2.8-1.8l0.1,0l0.1,0l2.1-0.7c0.2-0.1,0.4-0.3,0.4-0.5v-4.1
	c0-0.2-0.2-0.5-0.4-0.5l-2.3-0.8L188.8,166.8z"/>
<path id="divi-44090" class="st0" d="M104.7,176.8l0.6,0.4h0l3.7,4.4c0,0,0.1,0.1,0.1,0.1l5.8,4.4l0,0l2.7,4.1l-1.4,5.6l-4.6,7.1
	l-3.8,1.4c0,0,0,0-0.1,0l-3.7,1.8l-8.8,4c-0.1,0-0.2,0.1-0.2,0.1l-2.6,3c-0.1,0.1-0.1,0.3-0.1,0.4l0.3,4.6l-5.3,9.2
	c-0.1-0.1-0.3-0.2-0.5-0.1l-5.5,1.5c-0.1,0-0.2,0-0.2,0.1l-5.2,3.9c0,0,0,0,0,0l-18.5,3.5c-0.1-0.1-0.2-0.2-0.3-0.2c0,0,0,0,0,0
	L47.9,218l3.6-6.7c0-0.1,0.1-0.2,0.1-0.3l-0.4-12.3l5.3-5.7c0.1,0,0.1-0.1,0.1-0.2l3.5-7.7l5.8,0.8c0,0,0.1,0,0.1,0l16.8-0.3
	c0,0,0.1,0,0.1,0l17.4-4.4c0.1,0,0.2-0.1,0.3-0.2l3.8-4.2L104.7,176.8z"/>
<path id="divi-44078" class="st0" d="M182.4,200.2h2.5v3.1c0,0.3,0.2,0.6,0.5,0.6l5.1,0.7h0.1l6.6,1.8l1,3.4
	c0.1,0.2,0.2,0.3,0.4,0.4l3.8,0.8l-4.3,6.4l-0.1,0.1l-10.6,12.2c-0.1,0.1-0.1,0.2-0.1,0.3l-2.2,17.6l-0.8,0.9l-3-3.8
	c-0.2-0.2-0.5-0.3-0.8-0.2l-4.3-2.9c0.1-0.2,0.1-0.5-0.2-0.7l-4-2.9l0,0l-5.5-4.8c-0.1-0.1-0.2-0.1-0.2-0.1l-4.9-1.1l-2.4-5.2
	c-0.1-0.2-0.3-0.3-0.5-0.3h-1.9l-2.7-3.2c0.1-0.2,0.1-0.5-0.1-0.7l-9.5-8.4l5-5.7l0,0l2.2-1.5c0,0,0.1,0.1,0.1,0.1l6.2,3.2l0.1,0.1
	l4.3,3.2c0.1,0.1,0.2,0.1,0.2,0.1l3.7,0.8c0.1,0,0.1,0,0.2,0l2.9-0.4c0.2,0,0.3-0.1,0.4-0.2l2.9-4l4-3.7l2.9-2.6
	c0.1-0.1,0.1-0.2,0.2-0.2c0.1,0,0.2-0.1,0.2-0.1L182.4,200.2z"/>
<path id="divi-44098" class="st0" d="M136.2,212.8l4.6,2.3l0.4,10.3c0,0.2,0.1,0.3,0.2,0.4l7.5,6.4l-2,10.4l-7.2-5
	c0-0.1,0-0.1,0-0.2l0.4-6.2c0-0.2-0.1-0.3-0.2-0.4c-0.1-0.1-0.3-0.2-0.4-0.2h-4.9l-2.8-2.6c0.2-0.1,0.2-0.3,0.2-0.5l0.4-7.3
	c0-0.1,0-0.2-0.1-0.3l-2.4-3.8l1.5-1.3L136.2,212.8z"/>
<path id="divi-44279" class="st0" d="M143.1,214.6l8.3,7.4c0,0.1,0,0.2,0.1,0.3l4,4.8c0.1,0.1,0.3,0.2,0.5,0.2h1.8l2.4,5.2
	c0.1,0.2,0.2,0.3,0.4,0.3l5,1.1l5.4,4.7c0,0,0,0,0.1,0l3.5,2.5c-0.1,0.1-0.1,0.3-0.1,0.4c0,0.2,0.1,0.3,0.3,0.4l5.5,3.7
	c0.1,0.1,0.2,0.1,0.3,0.1l2.7,3.3l-4.8,5.2c0,0-0.1,0.1-0.1,0.2l-5.5,11.4l-5.1-4.1l0,0l-0.1-0.1l-5.1-6.9c-0.1-0.1-0.1-0.2-0.2-0.2
	l-2.9-1.1l-3.7-1.3l-0.3-7.3c0-0.2-0.1-0.3-0.3-0.4c-0.1-0.1-0.3-0.1-0.5-0.1l-4.4,1.4l-2.5-2.2l2.2-11.4c0-0.2,0-0.4-0.2-0.5
	l-7.5-6.5l-0.3-10L143.1,214.6z"/>
<path id="divi-44650" class="st0" d="M129,216.9l2.2,3.5l-0.4,6.9l-0.5-0.5c-0.1-0.1-0.4-0.2-0.6-0.1c-0.2,0.1-0.4,0.2-0.4,0.4
	c0,0.2,0,0.4,0.2,0.6l4.4,4.1c0.1,0.1,0.3,0.1,0.4,0.1h4.5l-0.2,3.5c0,0,0,0.1-0.1,0.1l-0.8,1.8c-0.1,0.3,0,0.5,0.2,0.7l8.4,5.9
	c0,0,0.1,0.1,0.2,0.1c0,0.1,0.1,0.2,0.2,0.2l2.9,2.6c0.2,0.1,0.4,0.2,0.6,0.1l4.1-1.2l0.3,7c0,0.2,0.2,0.4,0.4,0.5l4,1.5l2.8,1.1
	l5,6.8c0,0,0.1,0.1,0.1,0.1l5.4,4.4l-4,8.2l0,0.1l-1.8-1.1c0,0,0,0,0,0l-4.8-2.2l-5-3.9l-1.8-3.5c0-0.1-0.1-0.1-0.2-0.2l-6.2-5.2
	c-0.1,0-0.1-0.1-0.2-0.1l-4.1-1l0.5-1.2c0.1-0.2,0-0.5-0.2-0.7l-5.5-4.1c-0.2-0.1-0.4-0.1-0.5-0.1l-5.5,1.8
	c-0.2,0.1-0.3,0.2-0.4,0.4L132,257l0,0.1c0,0,0,0.1,0,0.1v0c0,0,0,0,0,0c0,0.1,0,0.1,0,0.2c0,0,0,0,0,0c0,0,0,0.1,0,0.1c0,0,0,0,0,0
	c0,0,0,0,0,0.1l-8,5l-0.2-0.8c0,0,0-0.1,0-0.1c0-0.1,0-0.2-0.1-0.3c0,0,0,0,0,0l-0.3-1.3c0-0.1-0.1-0.2-0.2-0.3l-4.8-4.4
	c-0.1-0.1-0.3-0.2-0.5-0.1l-3.2,0.6l-3.1-6.9c-0.1-0.1-0.2-0.3-0.3-0.3l-5.2-1.8c-0.2,0-0.3,0-0.5,0.1l-4.8,2.9c0,0-0.1,0-0.1,0.1
	l-1.8,0.4l0.6-3.2c0,0,0,0,0,0l1.1-7.3c0-0.2,0-0.3-0.1-0.4l-4.4-5.2c-0.1-0.1-0.2-0.2-0.4-0.2l-11.4-1.1c0,0,0,0-0.1,0l-7,0.3
	l4.3-3.2l5.1-1.3c0,0.2,0,0.4,0.2,0.5s0.4,0.2,0.5,0.1l9.1-2.9l7.3,0.4c0.1,0,0.1,0,0.2,0l7.7-2.9c0,0,0.1,0,0.1-0.1l4.7-2.9
	l3.9-0.7c0,0,0.1,0,0.1,0l7.7-2.6c0.1,0,0.1-0.1,0.2-0.1L129,216.9z"/>
<path id="divi-44110" class="st0" d="M138.7,253.2l4.9,3.6l-0.6,1.4c-0.1,0.2-0.1,0.3,0,0.5s0.2,0.3,0.4,0.3l4.6,1.1l6.1,5l1.8,3.6
	c0,0.1,0.1,0.1,0.2,0.2l5.2,4.1c0,0,0.1,0,0.1,0.1l4.7,2.2l0.1,0l1.8,1.1c0,0,0,0,0,0l-1.8,3.4l-6.6-3l-6.2-2.9l-0.1-0.1l-5.4-3.9
	l0,0l-5.7-5c0-0.2,0-0.3-0.2-0.5l-0.4-0.4c-0.1-0.1-0.3-0.2-0.5-0.2l-3.3,0.3l-4.8-6.9l0.6-2.4L138.7,253.2z"/>
<path id="divi-44874" class="st0" d="M132.7,258.6l4.5,6.4c0.1,0.2,0.3,0.2,0.5,0.2l3.1-0.3c0,0.1,0.1,0.1,0.1,0.2l6.2,5.5
	c0,0,0,0,0,0l5.5,4.1c0,0,0.1,0,0.1,0.1l6.2,2.9l6.5,2.9l-1,2l-13.9-6c-0.2-0.1-0.3-0.1-0.5,0l-3.4,2.1l-7.1-3.6l-8.8-4.8
	c-0.1-0.1-0.2-0.1-0.4-0.1l-6.6,1.1c-0.1,0-0.1,0-0.2,0.1l-5.9,2.9l3.3-4.3c0-0.1,0.1-0.1,0.1-0.2l1.9-6.1c0.2,0.2,0.5,0.3,0.8,0.2
	L132.7,258.6z"/>
<path id="divi-44855" class="st0" d="M130.6,271.5l8.7,4.7l7.3,3.7c0.2,0.1,0.4,0.1,0.6,0l3.4-2l13.5,5.8l-1.2,2.5l-1.9,2.5
	c-0.2-0.3-0.5-0.3-0.8-0.2l-3.4-2.2c-0.1,0-0.1-0.1-0.2-0.1l-6.6-1.1l-7.7-1.5c-0.1,0-0.1,0-0.2,0l-5.1,0.8l-4.9-0.7l-0.3-6.1
	c0-0.2-0.2-0.5-0.4-0.5l-7.3-2.2c-0.2-0.1-0.4,0-0.6,0.2l-2.2,2.6c0,0,0,0,0,0.1l-4,1.5l-3.7-0.5l2.5-2c0.2,0.1,0.3,0,0.5,0l7.9-4h0
	L130.6,271.5z"/>
<path id="divi-44420" class="st0" d="M123.9,276l6.6,2l0.3,6.2c0,0.3,0.2,0.5,0.5,0.6l5.5,0.7c0.1,0,0.1,0,0.2,0l5.1-0.7l7.5,1.5
	c0,0,0,0,0,0l6.5,1.1l3.8,2.5l-0.9,1.2l-5-2.9c-0.2-0.1-0.4-0.1-0.5,0l-2.2,1.1h0l-6.3,0.7H145l-6.7-0.7h0l-4.8-2.2c0,0,0,0,0,0
	l-5.2-1.8c-0.1,0-0.2,0-0.3,0l-4.8,0.8c-0.1,0-0.2,0.1-0.3,0.1l-2.9,2.5l-4.6,1.6v-6.6c0-0.3-0.2-0.5-0.5-0.6l-4.6-0.9l1.8-2.3
	l4.8,0.7c0.1,0,0.2,0,0.3-0.1l4.8-1.8c0.3-0.1,0.4-0.5,0.3-0.8L123.9,276z"/>
<g id="layer2">
</g>
</svg>
