<?xml version="1.0" encoding="utf-8"?>
<!-- Generator: Adobe Illustrator 20.1.0, SVG Export Plug-In . SVG Version: 6.00 Build 0)  -->
<svg version="1.1"
     id="caldas" inkscape:output_extension="org.inkscape.output.svg.inkscape" inkscape:version="0.46" sodipodi:docname="departamentos_colombia_plain.svg" sodipodi:version="0.32" xmlns:cc="http://creativecommons.org/ns#" xmlns:dc="http://purl.org/dc/elements/1.1/" xmlns:inkscape="http://www.inkscape.org/namespaces/inkscape" xmlns:rdf="http://www.w3.org/1999/02/22-rdf-syntax-ns#" xmlns:sodipodi="http://sodipodi.sourceforge.net/DTD/sodipodi-0.dtd" xmlns:svg="http://www.w3.org/2000/svg"
     xmlns="http://www.w3.org/2000/svg" xmlns:xlink="http://www.w3.org/1999/xlink" x="0px" y="0px" viewBox="0 0 240 180"
     style="enable-background:new 0 0 240 180;" xml:space="preserve">
  <path id="divi-17380" class="st0" d="M200.1,37l-0.7,2.8c0,0.1,0,0.2,0,0.3l1.2,4.9c0,0.1,0.1,0.1,0.1,0.2l2.6,3.5l-1,1.6
				       c0,0.1-0.1,0.1-0.1,0.2l-0.8,5.3l0,0l-1,4.7c0,0.1,0,0.1,0,0.2l0.3,5.5l-3.6,4.9c-0.1,0.2-0.2,0.3-0.1,0.5l1.8,4.4l-1.4,3.9
				       c0,0.1,0,0.2,0,0.3l0.3,1.8l-6.8,12.9c0,0,0,0,0,0.1l-0.9,2.4l-2.6-0.5l-2.6-1.4l-0.7-2.4c-0.1-0.2-0.2-0.4-0.4-0.4l-2.8-0.5l1-1.4
				       c0,0,0,0,0.1-0.1l1.1-1.9c0.1-0.1,0.1-0.3,0-0.5s-0.2-0.3-0.3-0.3l-2-0.9v-3.4l2.5-1.4c0.1-0.1,0.2-0.2,0.3-0.3l1-3.2l2.3-1.7
				       c0.2-0.1,0.2-0.3,0.2-0.5s-0.1-0.4-0.3-0.5l-1.6-0.9l1.9-0.9c0.1,0,0.2-0.1,0.2-0.2l2.1-3.2l0,0l1.9-2.2c0.1-0.2,0.2-0.4,0.1-0.6
				       l-1.8-4l2.2-2c0.2-0.2,0.2-0.4,0.2-0.6c-0.1-0.2-0.3-0.4-0.5-0.4l-5-0.3h-0.1l-6.5,0.5l-3-1.3l2.2-1.3l3-0.2c0.2,0,0.4-0.2,0.5-0.4
				       l1.1-3.1l4.7-4.5c0.1,0,0.1-0.1,0.1-0.2l1.8-3.5l0.1-0.1l2.1-3c0-0.1,0.1-0.1,0.1-0.2l1.2-4.3l2.6-1.3h0.1L200.1,37z"/>
  <path id="divi-17495" class="st0" d="M174.5,40.1l2.3,2.3l0.1,0.1l2.2,3.8c0.1,0.1,0.2,0.2,0.4,0.3l5.9,1.2c0.1,0,0.1,0,0.2,0
				       l3.3-0.6l-1.2,2.5l-4.7,4.5c-0.1,0.1-0.1,0.1-0.2,0.2l-1,2.9l-2.7,0.1c-0.1,0-0.2,0-0.3,0.1l-3.1,1.9h-0.1c-0.2,0-0.4,0.1-0.5,0.3
				       l0,0l-2,1.2l-3.1,0.8c-0.1,0-0.2-0.1-0.3,0l-1.4-0.9c-0.1-0.1-0.3-0.1-0.4-0.1c-0.2,0-0.3,0.1-0.4,0.3l-2.5,4.6l-3.3-1.7l-1-1
				       l2.8-1.8c0.2-0.1,0.3-0.2,0.3-0.4l0.8-4.8l3-1.8l2,1.8c0.1,0.1,0.3,0.2,0.5,0.1c0.2,0,0.3-0.1,0.4-0.3l2.6-4.1l0,0l2.1-4.4
				       c0.1-0.2,0.1-0.4-0.1-0.6l-4.1-5.8L174.5,40.1z"/>
  <path id="divi-17662" class="st0" d="M170.1,41.6l3.8,5.4l-1.9,4.1v0.1l-2.2,3.4l-1.8-1.7c-0.2-0.2-0.5-0.2-0.7-0.1l-3.6,2.1
				       c-0.2,0.1-0.3,0.2-0.3,0.4l-0.8,4.8l-3.2,2c-0.1,0.1-0.2,0.2-0.3,0.4c0,0.2,0,0.3,0.2,0.5l1.6,1.7c0,0,0.1,0.1,0.2,0.1l3.9,2
				       c0.1,0.1,0.3,0.1,0.4,0c0.1,0,0.3-0.2,0.3-0.3l2.5-4.5l1,0.6l-0.2,1.5l-2,3.1c-0.1,0.1-0.1,0.2-0.1,0.3v4.1l-1.8,2.6
				       c-0.1,0.1-0.1,0.2-0.1,0.4l0.2,3.3l0,0l-0.2,4.6l-2.2,3.5l-0.1,0.1l-2.2,2.5l-2.7,1c-0.2,0.1-0.3,0.2-0.3,0.3l-0.2,0.4l-1.9,0.7
				       l-2.2-1.1c-0.1,0-0.1-0.1-0.2-0.1l-3.8-0.4l-0.3-2.4v-0.1l-0.9-2.5c-0.1-0.2-0.2-0.3-0.4-0.4l-3.7-1l-0.6-3.2l0,0l-1-6.8l1-2.3
				       c0.1-0.2,0.1-0.3,0-0.5c-0.1-0.1-0.2-0.3-0.4-0.3l-3.5-0.9l0,0l-4.3-0.8l-0.2-0.8l2.2-0.4c0.2,0,0.3-0.2,0.4-0.3l1.5-2.9l4-2.2
				       c0.1-0.1,0.2-0.1,0.2-0.2l0.7-1.3c0-0.1,0.1-0.2,0.1-0.2l0.2-7.1l4.2-1.7l2.1-0.8c0.1-0.1,0.3-0.2,0.3-0.3s0-0.3,0-0.5l6.3-3.1
				       l5.9-1.5h0.1l3.8-1.7l0,0L170.1,41.6z"/>
  <path id="divi-17013" class="st0" d="M83.6,42.4C83.6,42.4,83.7,42.4,83.6,42.4C83.7,42.4,83.7,42.4,83.6,42.4l2.2,2.8
				       c0,0.1,0.1,0.1,0.2,0.1l3,1.7l0.1,0.1l3,3c0.1,0.1,0.2,0.2,0.3,0.2l3.4,0.3c0.2,0,0.4,0,0.5-0.2l2.6-3.1l3.8-0.5l2.5,2.6l0.1,0.1
				       l1.8,2.9l-1.9,2.8c-0.1,0.1-0.1,0.3-0.1,0.4c0,0.2,0.1,0.3,0.3,0.4l3.2,1.8l2.8,3.9l0.9,4.9c0,0.1,0.1,0.2,0.1,0.2l2.2,2.8l-0.2,6
				       c-0.1,0.1-0.1,0.2-0.1,0.3l-3.6,1.3c0,0-0.1,0-0.1,0.1l-4.4,2.7l-0.9-0.1l-0.4-7.8c0-0.2-0.1-0.3-0.2-0.4l-3.8-3.3l-1.3-5.2
				       c0-0.1-0.1-0.3-0.3-0.4c-0.1-0.1-0.3-0.1-0.4-0.1L96,63.4h-0.1l-2.8,0.3l-2.8-3.2c-0.1-0.1-0.3-0.2-0.4-0.2l-4.6,0.2
				       c-0.1,0-0.3,0.1-0.4,0.2l-2.7,2.5l-1.5,0.6c-0.1-0.1-0.2-0.2-0.4-0.2l0,0l-1.1-3.2c0,0,0-0.1-0.1-0.1l-0.9-1.4c0,0,0,0,0-0.1v-0.1
				       c0,0,0,0,0-0.1c0,0,0-0.1-0.1-0.1l0,0l-0.6-1l0.9-3.9l1-1.6c0.1-0.2,0.1-0.4,0-0.5l-1.7-3.7l0.5-4.4c0,0,0-0.1,0.1-0.2l1.5-0.2l0,0
				       c0,0.3,0.3,0.6,0.6,0.5s0.6-0.3,0.5-0.6v-0.1L83.6,42.4C83.6,42.5,83.6,42.4,83.6,42.4L83.6,42.4z"/>
  <path id="divi-17867" class="st0" d="M175.8,60.5l3.9,1.6c0.1,0,0.2,0,0.3,0l6.6-0.5h0.1l3.6,0.3l-1.5,1.4c-0.2,0.2-0.2,0.4-0.2,0.6
				       l1.8,4.1l-1.7,2.1l0,0l-2,3.1l-2.7,1.3c-0.2,0.1-0.3,0.3-0.3,0.5c0,0.2,0.1,0.4,0.3,0.5l1.7,1l-1.8,1.2c-0.1,0.1-0.2,0.2-0.2,0.3
				       l-1,3.1l-2.6,1.5c-0.2,0.1-0.3,0.3-0.3,0.5v4.1c0,0.2,0.1,0.4,0.3,0.5l1.8,0.8l-0.8,1.4l-1.5,2.1c-0.1,0.2-0.1,0.4-0.1,0.5
				       c0.1,0.2,0.2,0.3,0.4,0.4l3.4,0.7l0.4,1.6l-3.5-0.9l0,0l-4.6-0.9c-0.1,0-0.3,0-0.4,0.1l-1.9,1l-0.1-0.1c-0.2-0.2-0.5-0.2-0.7-0.1
				       c-0.2,0.1-0.3,0.4-0.2,0.7l0,0l-0.7,0.3l-4,0.3l-2.1-1.3c-0.1-0.1-0.2-0.1-0.3-0.1h-3.7c-0.1,0-0.1,0-0.2,0l-2.9,1l-0.8-0.7l0.2-1.9
				       v-0.1l0.8-2.1l2.6-1c0.1,0,0.2-0.1,0.2-0.2l2.3-2.7c0,0,0,0,0-0.1l2.3-3.7c0.1-0.1,0.1-0.2,0.1-0.3l0.2-4.8c0,0,0,0,0-0.1l-0.2-3.2
				       l1.8-2.7c0.1-0.1,0.1-0.2,0.1-0.3v-4.1l2-3.1c0.1-0.1,0.1-0.2,0.1-0.2l0.1-1.6l3.2-0.9c0,0,0.1,0,0.1-0.1L175.8,60.5z"/>
  <path id="divi-17513" class="st0" d="M89.8,61.2l2.8,3.2c0.1,0.2,0.3,0.2,0.5,0.2l3.1-0.3c0,0,0,0,0.1,0l2.4-0.5l1.2,4.8
				       c0,0.1,0.1,0.2,0.2,0.3l3.7,3.3l0.4,6.7l-4.4-1.3l0,0c-0.1-0.1-0.2-0.1-0.2-0.2l-3.4-2c-0.2-0.1-0.4-0.1-0.6,0l-2,1.3l0,0l-4.3-0.6
				       l-3-2.4c-0.1-0.1-0.3-0.2-0.5-0.1c-0.2,0-0.3,0.1-0.4,0.3L84,76.7l-3.6-0.6c0,0,0,0-0.1,0L79.5,76l0.9-1.2c0.1-0.1,0.1-0.2,0.1-0.3
				       l0.2-4.4v-2.9c0-0.1,0-0.1,0-0.2l-0.1-0.4l0.3-1.9l2.1-0.8c0.1,0,0.1-0.1,0.2-0.1l2.6-2.5L89.8,61.2z"/>
  <path id="divi-17614" class="st0" d="M63.2,66.6L63.2,66.6l1.7,2.2C65,69,65.2,69,65.4,69h0.7c0,0.1,0,0.2,0,0.2l0.5,2l0.9,3.3l0,0
				       l0.3,7.3c0,0.1,0.1,0.3,0.2,0.4l2.6,2.8c0,0,0,0,0.1,0l3,2.7v0.4L72,89.5c-0.1,0.1-0.1,0.1-0.2,0.2l-0.7,1.6c-0.2-0.2-0.6-0.2-0.8,0
				       l-0.4-0.4v-0.1l-3.6-4.5c-0.1-0.1-0.1-0.1-0.2-0.2l-4.1-2c0,0-0.1,0-0.2-0.1l-4.1-0.7c-0.1,0-0.2,0-0.3,0.1l-4.7,2.1h-0.1l-5.8,1.6
				       l0,0l0,0l0,0c-0.2-0.1-0.4-0.1-0.6,0c-0.2,0.1-0.3,0.3-0.3,0.5l-0.8,0.5l-1.3-1.4l0.3-12.8h0.2c0.2,0,0.5-0.1,0.6-0.4
				       c0.1-0.2,0-0.5-0.1-0.6l1.3-1.3l2.4-0.3c0.1,0,0.2,0,0.2-0.1l3-2.1l2.2-1.1l3.7-0.8l0,0l4.1-0.7c0.1,0,0.2,0,0.2-0.1l0,0L63.2,66.6z
				       "/>
  <path id="divi-17541" class="st0" d="M133.6,67.8l0.4,1.3c0.1,0.2,0.2,0.3,0.4,0.4l4.6,0.9l0,0l2.8,0.7l-0.8,1.8
				       c0,0.1-0.1,0.2-0.1,0.3l1.1,6.9l0,0l0.7,3.5c0,0.2,0.2,0.4,0.4,0.5l3.8,1l0.8,2.2l0.3,2.2l-4.5,2.4l-4,0.5c-0.1,0-0.2,0-0.3,0.1
				       l-3.2,2.3l-0.1,0.1l-0.8,0.8c-0.1,0-0.3,0-0.4,0.1l-3,2.4l-2.8,0.2l-2.3-1.8c0,0,0,0,0-0.1l0,0l-0.2-3.4c0-0.1,0-0.1,0-0.2l-1.2-4.1
				       c0-0.1-0.1-0.2-0.2-0.2l-3-2.8c-0.2-0.2-0.4-0.2-0.7-0.1l-2.3,1.2c-0.1,0-0.1,0.1-0.2,0.2l-1.7,2.5l-1.8-0.4l-2.9-3.2l0.2-1.2
				       l4.4-2.5c0.2-0.1,0.3-0.3,0.3-0.5l0.2-3c0-0.1,0-0.3-0.1-0.4l-2-2.5l0.1-5.3l2.6,1l0,0c0,0.1,0.1,0.3,0.2,0.4l2.5,2.3
				       c0.2,0.2,0.5,0.2,0.7,0.1l5.2-3.3l0,0l4.4-2.9L133.6,67.8z"/>
  <path id="divi-17442" class="st0" d="M79.5,68v2.2l-0.2,4.2L78,76h-0.1l-0.1-0.1l-3-1.5l-1.1-3.8l0,0l0.1-1.8l4.9-0.2
				       c0.1,0,0.3,0,0.4-0.1L79.5,68z"/>
  <path id="divi-17777" class="st0" d="M72.8,68.7l-0.2,1.9c0,0.1,0,0.1,0,0.2l1.2,4.1c0,0.2,0.1,0.3,0.3,0.4l3,1.5l0.3,2.2l-2.2,5.2
				       l-0.7,1.4l0,0c-0.1,0.1-0.1,0.2-0.2,0.3V86l-0.1,0.2l0,0c-0.1,0-0.2,0.1-0.3,0.1l-2.3-2.1l-2.4-2.6l-0.3-7.2v-0.1l-1-3.4L67.4,69
				       l0,0L72.8,68.7z"/>
  <path id="divi-17653" class="st0" d="M86,75.1l2.5,2c0.1,0.1,0.2,0.1,0.3,0.1l4.9,0.7c0.3,0,0.5-0.1,0.6-0.4c0,0,0,0,0-0.1l1.4-0.9
				       l2.9,1.6l0,0c0.1,0.2,0.2,0.3,0.4,0.3l5.2,1.6v0.2c0,0.3,0.2,0.5,0.5,0.5l1.6,0.2c0.1,0,0.3,0,0.4-0.1l4.5-2.7l3.8-1.3l1.7,2.1
				       l-0.2,2.5l-4.3,2.5c-0.1,0.1-0.2,0.2-0.3,0.4l-0.3,1.8c0,0.2,0,0.4,0.1,0.5l3.2,3.5c0.1,0.1,0.2,0.2,0.3,0.2h0.2l-1.4,0.6l-3.3-1.5
				       c-0.2-0.1-0.5-0.1-0.7,0.1l-1.6,1.8c-0.1,0-0.1,0.1-0.1,0.2l-0.8,2.1v0.1l-1.6,2.8c-0.1,0.1-0.1,0.2-0.1,0.4l0.5,3.4l-0.9,3.4l-1-1
				       l-1.2-3.5c0-0.1-0.1-0.2-0.2-0.3l-2.3-1.9c-0.1-0.1-0.2-0.1-0.3-0.1l-4.7-0.5l-1.4-2.2c0-0.1-0.1-0.1-0.2-0.2l-3.9-2.4l0.3-0.3
				       c0.2-0.1,0.2-0.3,0.2-0.5s-0.2-0.4-0.3-0.4l-2.9-1.2L86,85.7l0,0l-0.5-3.9L84.9,78L86,75.1z"/>
  <path id="divi-17388" class="st0" d="M78.6,77.2l1.6,0.1l0,0l3.5,0.6l0.6,3.7l0.5,4.1c0,0.1,0,0.1,0.1,0.2l1.6,3.8
				       c0.1,0.1,0.2,0.2,0.3,0.3l2.2,1l-0.1,0.1h-0.1c-0.1,0-0.2,0.1-0.3,0.2l0,0l-0.2,0.2L86.6,93l0,0l0,0l-0.4-1.8
				       c-0.1-0.3-0.3-0.4-0.6-0.4h-4L79,88.3c0,0-0.1,0-0.1-0.1l-3.3-2.1l0.6-1.2l0,0l2.3-5.4c0-0.1,0.1-0.2,0.1-0.3l-0.2-1.5
				       c0,0,0,0,0.1-0.1L78.6,77.2z"/>
  <path id="divi-17272" class="st0" d="M75.1,86.9l3.1,2l0.1,0.1l2.7,2.5c0.1,0.1,0.2,0.2,0.4,0.2h3.8l0.5,1.9l0.2,1.9l-0.8,2.6
				       l-3.2,1.5c-0.2,0.1-0.3,0.3-0.3,0.5l-0.2,5.9l-1.4,0.8l-3-1.7c-0.1,0-0.2-0.1-0.3-0.1l-4.9-0.2l-2-2.9l-0.1-0.1l-3.3-2.6l1-0.7
				       l0.1-0.1l2.3-3.1l0.1-0.1l0.7-1.8c0.1,0.1,0.3,0.2,0.5,0.1c0.2,0,0.3-0.2,0.4-0.3l1.2-2.8l1.9-1.5c0.2-0.1,0.2-0.3,0.2-0.5l-0.1-0.9
				       L75.1,86.9z"/>
  <path id="divi-17446" class="st0" d="M121.7,86.9l2.6,2.5l1.2,3.8l0,0l0.2,3.4l-1.1,2.3l-4.1,2.4c-0.2,0.1-0.3,0.3-0.3,0.6l0.2,1.4
				       c0,0.1,0.1,0.3,0.2,0.4l1.6,1.2l0,0l2.8,2.4l1.5,3.2c0.1,0.1,0.2,0.3,0.3,0.3l3.7,1.3l-3.4,3.1l-2.9,0.3l-4.3-1.2
				       c-0.1,0-0.3,0-0.4,0l-2.9,1.4c-0.3-0.1-0.6,0.1-0.7,0.3l-1,0.4l-1.3-1.2l-0.1-0.7l0,0c0.1-0.2,0.1-0.5-0.1-0.7l-0.2-2.3
				       c0-0.1,0-0.2-0.1-0.2l-1.1-1.8c-0.1-0.2-0.3-0.3-0.5-0.3l-4-0.2l-1.6-1.9l0.2-2.4l0,0v-0.1l1.2-4.4c0-0.1,0-0.1,0-0.2l-0.5-3.3
				       l1.5-2.7c0,0,0,0,0-0.1l0.8-1.9l0,0l1.3-1.4l3.2,1.4c0.1,0.1,0.3,0.1,0.4,0l3.2-1.2h0.1h0.2c0.2,0.1,0.5,0,0.6-0.2l1.8-2.7
				       L121.7,86.9z"/>
  <path id="divi-17444" class="st0" d="M148.6,90.5L148.6,90.5l4.2,0.6l2.4,1.2c0.1,0.1,0.3,0.1,0.5,0l1.2-0.5l-0.2,0.7v0.1l-0.3,2.3
				       c0,0.2,0,0.4,0.2,0.5l0.4,0.4l-0.9,1.6l-4.7-1c-0.2,0-0.4,0-0.5,0.1l-1.6,1.2l-0.1,0.1l-2,2.6l-2.2-1.6c0,0,0,0-0.1,0l-3-1.8
				       c-0.1,0-0.1-0.1-0.2-0.1l-5.3-0.6l0.4-0.5l0,0l0.1-0.1l3-2.2l3.9-0.5c0.1,0,0.1,0,0.2-0.1L148.6,90.5z"/>
  <path id="divi-17050" class="st0" d="M89.2,92.1l4,2.5l1.6,2.4c0.1,0.1,0.3,0.2,0.4,0.2l4.8,0.5l2.1,1.8l1.2,3.6
				       c0,0.1,0.1,0.2,0.2,0.2l1.2,1.2l-1,0.6l-2.2-1.1h-0.1l-2.7-0.7c-0.2-0.1-0.4,0-0.6,0.1l-2.2,2l-2.4,0.5l0.1-1.7
				       c0-0.3-0.2-0.6-0.5-0.6l-4.6-0.4c-0.2,0-0.3,0-0.4,0.2l-2.1,2h-3.2l0.1-4.9L86,99c0.2-0.1,0.3-0.2,0.3-0.4l0.8-2.9
				       c0-0.1,0-0.1,0-0.2l-0.2-1.3L89.2,92.1L89.2,92.1z"/>
  <path id="divi-17433" class="st0" d="M135.1,97.2L135.1,97.2l6.3,0.7l2.9,1.7l0,0l2.1,1.5l-2,3.5v0.1l-3,3.7c0,0,0,0.1-0.1,0.1
				       l-2.1,3.8l-2-0.8c-0.1,0-0.1-0.1-0.2-0.1h-1.4c-0.2-0.2-0.6-0.2-0.8,0h-3.2l-4.2-1.5l-1.5-3.2c0-0.1-0.1-0.1-0.2-0.2l-2.8-2.5l0,0
				       l-1.4-1.1l-0.1-0.8l3.9-2.3c0.1-0.1,0.2-0.1,0.2-0.2l0.9-1.9l2.2,1.7c0.1,0.1,0.2,0.1,0.4,0.1l3.2-0.2c0.1,0,0.2,0,0.3-0.1
				       L135.1,97.2z"/>
  <path id="divi-17042" class="st0" d="M54.2,97.5l2.9,0.3l2.8,3c0,0,0,0,0.1,0l2.2,1.9v5.1c0,0.2,0.1,0.3,0.2,0.4l4.1,3.4
				       c0,0,0,0,0.1,0l0.4,0.3l-2.9,4.5l-0.9,0.5c-0.2-0.2-0.4-0.2-0.6-0.1c-0.2,0.1-0.3,0.3-0.3,0.5v0.1l-0.1,0.1l-2.4-1.7l-1.1-1.8v-0.1
				       l-0.5-1.8c-0.1-0.3-0.3-0.4-0.6-0.4h-3.7c-0.3,0-0.5,0.2-0.6,0.4l-1,4.2l-1.5,1.9l-2.9-0.2l-1-0.9l0.9-3.8v-0.1l0,0l1.6-3.8l0,0
				       l0.9-2.8c0-0.1,0-0.2,0-0.2l-0.3-2.8c0-0.1-0.1-0.2-0.2-0.3l-1.4-1.4v-1c0.1,0,0.2-0.1,0.3-0.2l1.8-1.8L54.2,97.5z"/>
  <path id="divi-17486" class="st0" d="M65.7,100c0,0.1,0.1,0.2,0.2,0.2l3.1,2.5v0.1l2.1,3.1c0.1,0.2,0.3,0.2,0.5,0.2l5.1,0.2l3.1,1.7
				       c0.2,0.1,0.4,0.1,0.6,0l1.9-1.2c0.1-0.1,0.2-0.2,0.2-0.3H86c0.2,0,0.3-0.1,0.4-0.2l2.1-1.9l3.8,0.3l-0.2,1.9c0,0.2,0.1,0.3,0.2,0.5
				       s0.3,0.2,0.5,0.1l3.4-0.7c0.1,0,0.2-0.1,0.3-0.2l2-1.9l2.3,0.6h0.1l2.4,1.2c0.2,0.1,0.4,0.1,0.6,0l1-0.6l-0.1,1.9
				       c0,0.2,0.1,0.3,0.2,0.4l1.9,2.3c0.1,0.1,0.2,0.2,0.4,0.2l3.9,0.2l0.8,1.4l0.2,2l-2.6,0.6c0,0,0,0-0.1,0l-1.9,0.7l-6.8,0.5
				       c-0.1,0-0.2,0-0.3,0.1l-2.7,1.7l-0.1,0.1l-1.2,0.4l-4.2-2.2c-0.2-0.1-0.3-0.1-0.5,0l-1.6,0.7c-0.1,0-0.1,0.1-0.2,0.1l-1.9,1.9
				       l-1.5-0.1l-2.5-2.5l-0.1-0.1l-3.9-2.3c-0.2-0.1-0.4-0.1-0.5,0l-1.8,0.8h-0.1l-4.8,0.5l-2.7-2.1c0,0,0,0-0.1-0.1l-3.1-1.9l-0.1-0.1
				       l-3.8-3.1v-4.2c0.2-0.1,0.3-0.2,0.4-0.3l0.8-2.1L65.7,100z"/>
  <path id="divi-17001" class="st0" d="M67.9,112.6l1.7,1l0.1,0.1l2.8,2.2c0.1,0.1,0.3,0.1,0.4,0.1l5.1-0.5c0.1,0,0.1,0,0.2,0l1.7-0.8
				       l3.5,2.1l0.1,0.1l2.5,2.6c0.1,0.1,0.2,0.2,0.4,0.2l1.9,0.2c0.2,0,0.3,0,0.5-0.2l2.1-2.1l1.2-0.6l4.2,2.2c0.1,0.1,0.3,0.1,0.4,0
				       l1.6-0.5c0,0,0.1,0,0.1-0.1l2.8-1.7l6.8-0.5h0.1l2-0.7l0,0l2.3-0.5l0.1,0.6c0,0.1,0.1,0.3,0.2,0.4l1.8,1.6c0.2,0.2,0.4,0.2,0.6,0.1
				       l0.5-0.2l-0.2,0.8l-2.5,1.7c-0.2,0.1-0.3,0.3-0.2,0.5l0.2,6.6c0,0.2,0.1,0.4,0.3,0.5l0.9,0.5c0,0,0,0,0,0.1v0.1l0,0c0,0,0,0,0,0.1
				       L114,129l-1.9,2.1l-4.3,0.7l-4.3-1h-0.1l-6.6-0.2l-3.1-1.5c-0.1,0-0.2-0.1-0.3-0.1h-4.2c-0.1,0-0.2,0-0.3,0.1l-2.7,2l-0.1,0.1
				       l-2,2.9l-4.2,1.9l-1.7-2.8l1.2-1.1c0.1-0.1,0.2-0.3,0.2-0.5l-0.3-3.2c0-0.2-0.1-0.3-0.3-0.4l-4.4-2.5c0,0-0.1,0-0.2-0.1l-3.7-0.7
				       l-1.3-0.8l1.4-1.6c0.2-0.2,0.2-0.5,0-0.7l-1.7-2.1l-1.2-3.6c-0.1-0.3-0.4-0.5-0.7-0.4l-1.2,0.2L67.9,112.6z"/>
  <path id="divi-17616" class="st0" d="M54.1,113h2.8l0.4,1.5c0,0.1,0.1,0.1,0.1,0.2l1.2,1.9c0,0.1,0.1,0.1,0.2,0.2l2.8,2
				       c0.2,0.1,0.4,0.1,0.6,0l0.2,3.3l-1.4,1.6c-0.2,0-0.4,0-0.5,0.2c-0.1,0.1-0.2,0.3-0.1,0.5l-1.7,1.9l-2.5,0.8l-0.1-1
				       c0,0,0.1-0.1,0.1-0.2l1.4-3.9c0.1-0.1,0.1-0.3,0-0.4l-1.4-3.2c-0.1-0.1-0.2-0.3-0.3-0.3l-2-0.7c-0.1,0-0.1,0-0.2,0l-0.5-0.7
				       L54.1,113z"/>
  <path id="divi-17524" class="st0" d="M67.1,116.3l1.1,3.2c0,0.1,0.1,0.1,0.1,0.2l1.5,1.8l-1.5,1.8c-0.1,0.1-0.1,0.3-0.1,0.4
				       c0,0.2,0.1,0.3,0.2,0.4l1.9,1.2c0.1,0,0.1,0.1,0.2,0.1l3.6,0.7l4.1,2.3l0.3,2.6l-1.3,1.2l-0.1,0.1c0,0,0,0-0.1,0.1l-2.2,1.9H71
				       l-5-2.5l-1.8-4.4c0-0.1-0.1-0.1-0.1-0.2l-2.3-2.6l1.6-1.8c0.1-0.1,0.2-0.3,0.2-0.4l-0.3-4.1l1.4-0.8c0.1,0,0.1-0.1,0.2-0.2l0.4-0.6
				       h0.1L67.1,116.3z"/>
  <path id="divi-17877" class="st0" d="M52.5,117.7l0.2,0.3l-1.3,1.6l-2.7,2.5l-2.9,0.7c-0.1,0-0.2,0.1-0.3,0.2l-1.6,2.1
				       c-0.1,0.1-0.1,0.2-0.1,0.3l0.2,14.4l-1.5-0.6c0-0.1-0.1-0.2-0.2-0.3l-2.3-2l-1.7-6.4c0-0.1-0.1-0.2-0.1-0.2l-1.8-2.2
				       c0,0,0.1-0.1,0.1-0.2l1.4-3.1l3.4-2.3c0.1-0.1,0.1-0.1,0.2-0.2l0.8-1.5l2.1,0.6c0.2,0.1,0.5,0,0.6-0.2l1.6-2.1
				       c0.1-0.1,0.1-0.2,0.1-0.3l0.5,0.4c0.1,0.1,0.2,0.1,0.3,0.2l3.4,0.2c0.2,0,0.4-0.1,0.5-0.2L52.5,117.7z"/>
  <path id="divi-17665" class="st0" d="M53.8,118.6l1.3,0.5l1.2,2.8l-1.2,3.1c0,0-0.1,0-0.1,0.1l-2.4-0.6c-0.2-0.1-0.5,0.1-0.6,0.3
				       l-0.8,1.5l-6.2,5.4l-0.1-5.9l1.3-1.8l2.8-0.7c0.1,0,0.2-0.1,0.2-0.1l2.8-2.7c0,0,0,0,0.1-0.1L53.8,118.6z"/>
  <path id="divi-17174" class="st0" d="M61.1,125.3l2.2,2.5l1.9,4.5c0,0.1,0.1,0.2,0.2,0.3l5.3,2.7c0.1,0,0.2,0.1,0.2,0.1H75
				       c0.1,0,0.3-0.1,0.4-0.2l1.9-1.7l1.9,3.2l0.4,3c-0.2,0-0.4,0.1-0.5,0.2c-0.1,0.2-0.2,0.4-0.1,0.5l-4.8-1.8c-0.1,0-0.1,0-0.2,0
				       l-1.9-0.2c-0.3,0-0.5,0.1-0.6,0.3l-0.9,2l-4.4,0.2l-2.2-0.8l-0.3-0.6c0,0,0,0,0-0.1c0-0.2-0.1-0.3-0.2-0.4l0,0l-0.1-0.2v-0.1
				       l-1.8-6.5c0-0.1,0-0.1-0.1-0.2l-3-4.7l0.5-0.2c0.1,0,0.2-0.1,0.2-0.2L61.1,125.3z"/>
  <path id="divi-17088" class="st0" d="M52.9,125.7l2.1,0.5l0.2,1.4c-0.1,0.2-0.1,0.5,0.1,0.7l0.2,1.8l-3.7,2.8
				       c-0.1,0-0.1,0.1-0.2,0.1l-1.4,2.3c0,0,0,0.1-0.1,0.2l-0.3,1.4c0,0.2,0,0.3,0.1,0.5l0.9,1.2l0.3,2.8l-3.8,0.4l-2.1-1.9l-0.1-6.9
				       l7-6.1c0.1,0,0.1-0.1,0.1-0.2L52.9,125.7z"/>
  <path id="divi-17873" class="st0" d="M89.4,129.6h3.7l3.1,1.6c0.1,0,0.2,0,0.2,0l6.6,0.2l4.4,1.1c0.1,0,0.1,0,0.2,0l4.6-0.7
				       c0.1,0,0.2-0.1,0.3-0.2l1.4-1.6l0.1,0.9l0,0v0.1l-0.4,3.8l-2.2,2.8c-0.1,0.1-0.1,0.2-0.1,0.3v5.8c0,0.2,0.1,0.4,0.2,0.5l1.8,1.3
				       l-0.7,1.9l0,0c-0.1,0.1-0.1,0.2-0.1,0.3c0,0,0,0,0,0.1l-0.2,0.7l-4.3,3.2c-0.1,0.1-0.1,0.1-0.2,0.2l-1.8,3.5l-4.2-4.3l-5-5.2l0,0
				       l-5-4.1c-0.1-0.1-0.2-0.1-0.3-0.2l-8.3-0.8h-0.1l-2.4-0.9l-0.5-3.6l4.3-2c0.1,0,0.2-0.1,0.2-0.2l2.1-2.9L89.4,129.6z"/>
</svg>
