<?xml version="1.0" encoding="utf-8"?>
<!-- Generator: Adobe Illustrator 20.1.0, SVG Export Plug-In . SVG Version: 6.00 Build 0)  -->
<svg version="1.1"
	 id="risaralda" inkscape:output_extension="org.inkscape.output.svg.inkscape" inkscape:version="0.46" sodipodi:docname="departamentos_colombia_plain.svg" sodipodi:version="0.32" xmlns:cc="http://creativecommons.org/ns#" xmlns:dc="http://purl.org/dc/elements/1.1/" xmlns:inkscape="http://www.inkscape.org/namespaces/inkscape" xmlns:rdf="http://www.w3.org/1999/02/22-rdf-syntax-ns#" xmlns:sodipodi="http://sodipodi.sourceforge.net/DTD/sodipodi-0.dtd" xmlns:svg="http://www.w3.org/2000/svg"
	 xmlns="http://www.w3.org/2000/svg" xmlns:xlink="http://www.w3.org/1999/xlink" x="0px" y="0px" viewBox="0 0 131 153"
	 style="enable-background:new 0 0 131 153;" xml:space="preserve">
<style type="text/css">
	.st0{fill:none;stroke:#85A307;stroke-miterlimit:10;}
</style>
<path id="divi-66456" class="st0" d="M31.7,17.7l3.1,1.6l0.3,3.9L34.3,26c-0.1,0.2,0,0.4,0.1,0.5l3.8,4.2c0.1,0.1,0.1,0.1,0.2,0.2
	l5.2,2.4c0.2,0.1,0.5,0.1,0.7-0.1l1.4-1.3l5.2,0.3l4.2,0.3h0.1h0.1c0,0.3,0.2,0.5,0.5,0.5s0.5-0.1,0.6-0.3l0.6,0.1c0,0,0,0,0.1,0.1
	l-0.3,13c0,0.1,0,0.3,0.1,0.4l1.8,2c0.2,0.2,0.5,0.3,0.8,0.1l0.7-0.5l0.2,1.4l-2,2.6c-0.1,0.1-0.1,0.3-0.1,0.5l0.8,2.9l0.1,2.4
	l-2.9,0.1c-0.2,0-0.3,0.1-0.4,0.2l-1.2,1.6l-2.4,0.2c-0.1,0-0.1,0-0.2,0l-2.7,0.9l-3.5-3.6V57l-0.7-1.3l1.8-1.3
	c0.2-0.1,0.3-0.3,0.2-0.6l-0.9-4.1c0-0.2-0.1-0.3-0.3-0.4l-3.9-2.1c0,0,0,0-0.1,0l-7.9-3.5l-2.7-2.5l-1.2-3.9l0,0L30,32.7
	c0-0.2-0.2-0.5-0.4-0.5l-1.5-0.5c0-0.2-0.1-0.4-0.3-0.5c-0.2-0.1-0.4-0.1-0.6,0l0,0l0.3-1.5c0-0.1,0-0.2,0-0.3l-1.2-4.9l1-2.2
	L31.7,17.7z"/>
<path id="divi-66572" class="st0" d="M27,32.6l1.9,0.5l0.2,4.2c0,0.1,0,0.1,0,0.2l1.2,4.2c0,0.1,0.1,0.2,0.2,0.2l2.8,2.7
	c0,0.1,0.1,0.1,0.2,0.1l7.9,3.5l0,0l3.6,1.9l0.8,3.5L44,55c-0.2,0.2-0.3,0.5-0.2,0.7l0.9,1.8c0,0.1,0.1,0.1,0.1,0.2l3.2,3.4
	c-0.2,0.1-0.2,0.3-0.2,0.5l0.2,2.2l-5.7,0.3c-0.3,0-0.5,0.2-0.5,0.5L41.6,69l0,0l-0.8,1.8L36.3,72h-6.2c-0.2,0-0.4,0.2-0.5,0.4
	l-1.2,3.5l0,0l-1,3.5L26,73.5l0,0l-0.7-3.7v-0.1c0-0.2,0-0.3-0.1-0.4l-0.1-0.5c0-0.1-0.1-0.2-0.1-0.2l-3-3.4l0,0l0,0
	c0-0.2-0.2-0.3-0.3-0.4h-0.1L21,64.1l-1-3.4c0-0.1,0-0.1-0.1-0.2l-2.5-3.9l-2.3-3.7l0,0L13.7,50c0,0,0-0.1-0.1-0.1l-1.2-1.7l2.3-4.6
	c0-0.1,0.1-0.2,0.1-0.2l0.2-5.7l3-2.1l4.8-0.5c0.1,0,0.2,0,0.2-0.1L27,32.6z"/>
<path id="divi-66594" class="st0" d="M71.9,43.3l3.7,0.6l0,0l3.8,1.8l3.5,4.5c0,0,0,0,0.1,0.1l0.8,0.8l-0.9,2.1l0,0l-2.1,2.9
	l-3.2,2.5c-0.1,0.1-0.2,0.1-0.2,0.2l-0.5,1.5l-2.1-1.8l0,0l-2.6-2.7l0,0c0-0.1,0-0.2-0.1-0.2l-2.5-3.4l-0.2-3.3l1.9-1.8
	c0.1-0.1,0.2-0.2,0.2-0.3L71.9,43.3z"/>
<path id="divi-66318" class="st0" d="M70.6,43.8l-0.3,2.4l-2,1.8c-0.1,0.1-0.2,0.3-0.2,0.4l0.2,3.8c0,0.1,0,0.2,0.1,0.3l1.8,2.5
	l-2.1-0.1c-0.1,0-0.2,0-0.2,0l-4.1,1.5c-0.1,0-0.2,0.1-0.2,0.1l-1.7,1.7l-1-0.3l0,0c-0.1-0.2-0.3-0.3-0.5-0.3l0,0l-0.1-2.5V55
	l-0.8-2.7l2-2.6c0.1-0.1,0.1-0.3,0.1-0.4L61.4,47l0.1-0.1h0.1l5.7-1.6h0.1L70.6,43.8z"/>
<path id="divi-66088" class="st0" d="M59.6,58.8l1.3,0.4v1.5c0,0.2,0.1,0.3,0.2,0.4l1.5,1.5l0.3,2.4l-0.8,2.7l0,0l-1.6,3.9
	c0,0,0,0,0,0.1l-1.1,4.2c-0.1,0.2,0,0.4,0.2,0.6l0.2,0.2c-0.1,0-0.2,0.1-0.3,0.2l-1.4,1.8l-1.5-0.4l0.1-0.2c0.1-0.2,0.1-0.5-0.1-0.7
	c-0.2-0.2-0.4-0.2-0.6-0.2l-0.3-1c0-0.1-0.1-0.2-0.2-0.3l-3.9-3.4l-2.8-3.9l0.8-3.5c0-0.2,0-0.3-0.1-0.5c-0.1-0.2-0.2-0.2-0.4-0.3
	l-0.2-2.6l3.2-1.1l2.6-0.2c0.2,0,0.3-0.1,0.4-0.2l1.2-1.6L59.6,58.8z"/>
<path id="divi-66045" class="st0" d="M48.2,65v0.5c0,0.1,0.1,0.3,0.2,0.4l-0.7,2.8c0,0.2,0,0.3,0.1,0.5l3,4.2l0.1,0.1l3.8,3.3
	l0.6,1.8l-0.9,1.8L51,82.8c-0.1,0.1-0.1,0.2-0.2,0.2l-1.2,2.7l-2.7-1.1v-3.5c0-0.2-0.1-0.3-0.2-0.4l-3.8-2.8h-0.1l-3.7-3.3
	c-0.2-0.1-0.4-0.2-0.6-0.1L33.6,76L30,75.1l0.6-1.6h5.9c0.1,0,0.1,0,0.2,0l4.8-1.2c0.2,0,0.3-0.2,0.4-0.3l0.9-2.3c0-0.1,0-0.1,0-0.2
	l0.2-3.9L48.2,65z"/>
<path id="divi-66687" class="st0" d="M38.5,75.5l3.5,3.1c0,0,0,0,0.1,0.1l3.7,2.7V85c0,0.2,0.1,0.4,0.3,0.5l2.7,1.1
	c0,0.1,0,0.3,0.1,0.4l2.2,2.7l1.8,6.5c0,0.1,0.1,0.2,0.2,0.3l2.2,1.9l-0.2,2.2l-1.9-1.4l-3.3-4.5c-0.1-0.1-0.1-0.1-0.2-0.2l-2.5-1.2
	l-1.5-2.2c-0.1-0.1-0.2-0.2-0.3-0.2L43,90.1l-0.9-2.2c-0.1-0.1-0.2-0.2-0.3-0.3l-2.5-1.1c-0.1-0.1-0.3-0.1-0.5,0l-4.3,2.1l-4.5,1
	l-0.8-0.8l-1-6.6l1.6-5.5l0.1-0.4l3.8,1c0.1,0,0.2,0,0.3,0L38.5,75.5z"/>
<path id="divi-66440" class="st0" d="M71.3,86.4l3.1,4.8l0,0l1.8,6.5c0,0,0,0.1,0.1,0.1l0.3,0.5l0.2,3.7c0,0.2,0.1,0.4,0.3,0.5
	l2.8,1.3l0.5,2.3l-1.5,0.7l0,0l-1.2,0.1l-2.8-1.8c-0.2-0.1-0.4-0.1-0.5,0l-1.2,0.5c0,0,0,0-0.1,0l-3.1,1.8l-3.1-1.5l-0.8-1.5
	c-0.1-0.1-0.1-0.2-0.2-0.2l-3-1.4l-0.3-1.2l3.3-0.4c0.3,0,0.5-0.3,0.5-0.6l-0.3-3.5c0-0.1-0.1-0.2-0.1-0.3l-0.9-1.2l0.3-1.2l1.3-2.1
	l3.8-2.9c0.2-0.1,0.2-0.3,0.2-0.5l-0.2-2L71.3,86.4z"/>
<path id="divi-66383" class="st0" d="M38.9,87.5l2,0.9l1,2.3c0.1,0.1,0.2,0.3,0.3,0.3l2.4,0.8l0.9,1.3l-3.4,3.1
	C42,96.3,42,96.3,42,96.4l-1.6,3.2l0,0l-1,2.5l-3.7-2.8l-1.5-3.9l0,0l-1.5-2.9c0,0,0-0.1-0.1-0.1l0,0l-0.1-0.1l-0.1-0.2
	c-0.1-0.2-0.2-0.3-0.4-0.3l-1.2-1.2l3.8-0.8h0.1L38.9,87.5z"/>
<path id="divi-66075" class="st0" d="M46.3,94.1C46.3,94.1,46.4,94.1,46.3,94.1l2.6,1.3l3.2,4.5l0.1,0.1l2.4,1.8l-0.4,2.5
	c-0.3,0-0.5,0.1-0.6,0.4l0,0l-3.4,1.4c-0.2,0.1-0.3,0.2-0.3,0.4l-0.6,2.2l-4.5-0.3l0,0l-3.7-1.6l-0.2-0.5c0-0.1-0.1-0.1-0.1-0.2
	l-1.2-2.5c0.3,0,0.5-0.1,0.6-0.3l1.2-3.2l0,0L43,97L46.3,94.1z"/>
<path id="divi-66682" class="st0" d="M86.5,98.1l1.5,0.1l5.1,1.9c0.2,0.1,0.4,0,0.6-0.1l0.6-0.5l2.8,1.1c0.1,0,0.1,0,0.2,0l8.3,0.8
	l4.8,3.9l0,0l4.9,5.1l4.2,4.3c-0.1,0.2-0.1,0.4,0,0.5l-1.7,2.5l-3.1,2.1l-0.1,0.1l-2.4,2.9l-0.1,0.1l-4.2,3.2l-4.3,1.2l-3.1-0.3
	l-1.1-1.2c-0.1-0.1-0.2-0.1-0.2-0.2l-3-0.8l0,0l-4.7-1.7l-2.6-3.1c-0.1-0.1-0.2-0.1-0.2-0.2l-2.2-0.7h-0.1l0,0l0.2-0.5l1-0.8
	c0.1-0.1,0.2-0.2,0.2-0.3l0.7-3.7c0-0.1,0-0.1,0-0.2l-0.7-3.7c0-0.1-0.1-0.1-0.1-0.2l-1.4-2.5c-0.1-0.1-0.2-0.2-0.3-0.2l-4.3-1.2
	l-0.6-2.7c0-0.2-0.2-0.3-0.3-0.4l-2.7-1.3L78,99.6l2.2,0.8c0.1,0,0.1,0,0.2,0l5-0.2c0.2,0,0.4-0.1,0.5-0.3L86.5,98.1z"/>
<path id="divi-66400" class="st0" d="M56.3,99.1l2,0.7c0.1,0.1,0.3,0.1,0.5,0l1.8,1.7c0.1,0.1,0.3,0.2,0.5,0.2h0.2l0.4,1.6l-1.8,2.3
	h-0.1l-1.9,1.3l-2.5-2l0,0l0.4-2.8c0.2-0.1,0.3-0.2,0.3-0.4L56.3,99.1z"/>
<path id="divi-66001" class="st0" d="M62.6,103.9l2.4,1.2l0.8,1.4c0.1,0.1,0.1,0.2,0.2,0.2l3.6,1.8c0.2,0.1,0.4,0.1,0.5,0l3.3-1.9
	h0.1l0.9-0.4l2.3,1.5l-0.7,5v0.1l0.2,2.1c0,0.1,0,0.2,0.1,0.2l1.4,2.3c0.1,0.2,0.3,0.3,0.4,0.3l3.8,0.5l2.2,1.2l0,0l0.8,0.4
	c0.1,0.2,0.2,0.3,0.4,0.3l2.7,0.8l2.5,3.1c0.1,0.1,0.2,0.1,0.2,0.2l4.8,1.8l0,0l2.9,0.9l1.1,1.3c0.1,0.1,0.2,0.2,0.4,0.2l3.4,0.3
	c0.1,0,0.1,0,0.2,0l4.6-1.2c0.1,0,0.1-0.1,0.2-0.1l4.4-3.4l0.1-0.1l2.4-3l0,0l3.1-2c0.1,0,0.1-0.1,0.2-0.2l1.1-1.6l-0.7,6.9
	l-1.2,2.2l0,0l0,0l-1.6,0.7H116l-4.9,1.4l0,0l-3.4,1.2l-5.5-1h-0.1l-2.8-0.2h-0.1l-2.7,0.3l-2.3-1.2c-0.1-0.1-0.2-0.1-0.3-0.1
	l-2.8,0.6H91l-7.8-0.4l0,0l-2.8-1.2h-0.1l-0.6-0.1l0,0c-0.2-0.1-0.4-0.1-0.5-0.1l-2.9-0.4c-0.1,0-0.2,0-0.3,0l-2.3,1l-4.5-0.5h-0.1
	l-5.5-2.1c-0.1,0-0.1,0-0.2,0h-4.8l0.5-1.2c0,0,0,0,0-0.1l0.7-2.5c0-0.1,0-0.3-0.1-0.4l-1.1-2c-0.1-0.2-0.4-0.3-0.6-0.3l-3.6,0.7
	c-0.1,0-0.2,0-0.2,0.1l-2.7,2.2l-1.8,0.2l-0.8-3.4l0.8-2.5l0.6-0.3l1.1-0.4c0.2-0.1,0.4-0.2,0.4-0.5l0,0l0.8-0.4
	c0.2-0.1,0.3-0.3,0.3-0.5v-2.5c0-0.3-0.2-0.5-0.4-0.6l-1.9-0.6l0.7-2.4l3.3-1.3l3.1,2.5c0.2,0.2,0.5,0.2,0.7,0l2.3-1.6l0.1-0.1
	L62.6,103.9z"/>
<path id="divi-66170" class="st0" d="M81,107l4.2,1.1l1.3,2.2l0.7,3.5l-0.7,3.5l-0.9,0.7c-0.1,0.1-0.1,0.1-0.2,0.2l-0.2,0.5
	l-0.6-0.3l-2.3-1.2c-0.1,0-0.1-0.1-0.2-0.1l-3.6-0.5l-1.2-1.9l-0.2-1.9v-0.1v-0.1l0.7-4.7l1.3-0.2c0.1,0,0.1,0,0.2,0L81,107z"/>
</svg>
