<?xml version="1.0" encoding="utf-8"?>
<!-- Generator: Adobe Illustrator 20.1.0, SVG Export Plug-In . SVG Version: 6.00 Build 0)  -->
<svg version="1.1"
	 id="caqueta" inkscape:output_extension="org.inkscape.output.svg.inkscape" inkscape:version="0.46" sodipodi:docname="departamentos_colombia_plain.svg" sodipodi:version="0.32" xmlns:cc="http://creativecommons.org/ns#" xmlns:dc="http://purl.org/dc/elements/1.1/" xmlns:inkscape="http://www.inkscape.org/namespaces/inkscape" xmlns:rdf="http://www.w3.org/1999/02/22-rdf-syntax-ns#" xmlns:sodipodi="http://sodipodi.sourceforge.net/DTD/sodipodi-0.dtd" xmlns:svg="http://www.w3.org/2000/svg"
	 xmlns="http://www.w3.org/2000/svg" xmlns:xlink="http://www.w3.org/1999/xlink" x="0px" y="0px" viewBox="0 0 728 568"
	 style="enable-background:new 0 0 728 568;" xml:space="preserve">
<style type="text/css">
	.st0{fill:none;stroke:#2C5AA0;stroke-miterlimit:10;}
</style>
<path id="divi-18753" class="st0" d="M227.3,56l12,2.2h0.1l12.2,6.3l12.6,6.8l5.2,7.6v11.4l-4.8,4.8c0,0,0,0,0,0l-7.4,8.8
	c-0.1,0.1-0.1,0.3-0.1,0.4l0.5,6.9c0,0.1,0,0.2,0.1,0.2l4.3,8.5l-3.2,4.4h0c-0.2,0-0.3,0-0.4,0.1c-0.1,0.1-0.2,0.3-0.2,0.4v0.4
	c0,0.1,0,0.1,0,0.2v8.3c0,0.1,0,0.2,0.1,0.3l6.8,11.2l-1,6.2c0,0.1,0,0.2,0.1,0.3l3.9,7.2l-0.5,9.2c0,0.1,0,0.2,0.1,0.3l6.3,12.2
	v5.8c0,0.2,0.1,0.3,0.2,0.4l6.4,6.4c0,0,0.1,0.1,0.1,0.1l8.4,4.4c0.1,0,0.2,0.1,0.2,0.1l11.3,0.5v0l11.2,2c0,0,0,0,0,0l8.1,0.9
	l6.8,10.6c0.1,0.1,0.1,0.2,0.2,0.2l6.9,3.4c0.1,0,0.1,0,0.2,0l6.2,1l7.7,8.2c0.1,0.1,0.2,0.2,0.4,0.2l11.8,1c0.1,0,0.2,0,0.3,0
	l11.7-4.9l16-2.4l4.3,2.6l0.1,9.2c-0.2-0.2-0.6-0.2-0.8,0c-0.2,0.2-0.2,0.6,0,0.8l0.8,1v0.6c0,0.2,0.1,0.4,0.3,0.5
	c0.2,0.1,0.4,0.1,0.6,0l5.6,6.6v0l3,6.8c0,0.1,0.1,0.2,0.2,0.3l6.2,3.3l7.3,8.8l4.3,5.3l1.4,11.2c0,0.1,0.1,0.3,0.2,0.4l18.6,15.4
	l-5.3-1.7l-7.4-2.4c-0.2-0.1-0.4,0-0.5,0.1l-5.4,3.9c0,0-0.1,0.1-0.1,0.1l-3.9,4.9c-0.1,0.1-0.1,0.2-0.1,0.3l-0.9,9.2l-5.8,7.2
	l-8.7,3.9c-0.1,0.1-0.2,0.2-0.3,0.3l-3.9,7.9c-0.1,0.1-0.1,0.3,0,0.4l2.3,6.1l-8.2,10.1c0,0-0.1,0.1-0.1,0.2l-3.6,11.1l-3.3-2.4
	l-2.4-6.7c-0.1-0.3-0.4-0.4-0.7-0.4l-6.4,1.5c-0.1,0-0.3,0.1-0.3,0.2l-1.9,2.9l-5,2.7l-6.1-3.8c0,0,0,0,0,0l-6.4-3.4
	c-0.1,0-0.2-0.1-0.2-0.1l-6.2-0.5l-6.2-5.2l-1.4-4.8c0-0.1-0.1-0.2-0.2-0.2l-3.3-2.8l0,0l-4.4-6.8l-1.4-6.3c0-0.2-0.1-0.3-0.2-0.4
	l-5.8-3.4l-2.4-4.8c-0.1-0.2-0.3-0.3-0.6-0.3l-4.2,0.5l-5.6-4.7l0,0l-0.1-0.1l-4.8-6.3c0,0,0,0,0,0l-3.4-3.8l0-0.1l0,0l-5.3-8.8
	c0-0.1-0.1-0.1-0.2-0.2l-7.3-5.3l-0.1-0.1l-8.3-8.8c-0.1-0.1-0.3-0.2-0.4-0.2c-0.2,0-0.3,0.1-0.4,0.2l-2.1,2.2l-5.9-3.7l-14.2-23
	c0,0,0,0,0,0l-16.3-20.7c-0.1-0.1-0.2-0.2-0.4-0.2s-0.3,0-0.4,0.1l-1.8-2.2c0,0-0.1-0.1-0.1-0.1l-9.7-7.3l-1.8-24.2
	c0-0.1,0-0.2-0.1-0.3l-4.5-5.1l1.9-4.1c0-0.1,0-0.1,0-0.2l0.3-2.8l4.6-0.8c0.3-0.1,0.5-0.3,0.5-0.7l-0.9-4.7v-0.1l-0.6-7.1
	c0-0.1-0.1-0.2-0.1-0.3l-3.3-3.9c-0.1-0.1-0.2-0.2-0.4-0.2c-0.2,0-0.3,0-0.4,0.1l-2.2,1.9h-2.8l-2.8-5.3c-0.1-0.1-0.1-0.2-0.2-0.2
	l-7.8-4.5c0,0-0.1,0-0.1-0.1l-8-3c-0.1,0-0.2-0.1-0.3,0l-5.5,1l0.4-0.7c0,0,0,0,0-0.1l2-4l4.2-1.7c0.2-0.1,0.3-0.2,0.3-0.4l0.6-3
	c0,0,0-0.1,0-0.1v-5.4l3.1-2.8c0.2-0.1,0.2-0.4,0.2-0.6l-2.1-7.2c0-0.1-0.1-0.1-0.1-0.2l-8-10l-0.6-4.3c0,0,0.1-0.1,0.1-0.1
	l13.1-12.2c0.1-0.1,0.1-0.2,0.2-0.2l1.5-5.4c0-0.1,0-0.1,0-0.2l-1.1-7.7l0.3,0c0.3,0,0.5-0.2,0.5-0.5l0.6-4.2c0-0.2,0-0.3-0.1-0.5
	l-2.1-2.4c-0.1-0.1-0.2-0.2-0.3-0.2l1.5-3.8l6.8-6.5c0,0,0.1-0.1,0.1-0.1l1.1-1.8c0.1,0,0.2,0,0.2-0.1l1.6-1.2
	c0.1,0.1,0.3,0.2,0.5,0.2c0.2,0,0.3-0.2,0.4-0.3l1.5-3.2L227.3,56z"/>
<path id="divi-18592" class="st0" d="M197.2,110.7l0.6,4.3c0,0.1,0,0.2,0.1,0.3l8,10l1.9,6.7l-3,2.7c-0.1,0.1-0.2,0.3-0.2,0.4v5.6
	v0.1l-0.5,2.6l-4.2,1.7c-0.1,0-0.2,0.1-0.3,0.2l-2.1,4.1l0,0.1l-1.2,1.7c-0.1,0.2-0.1,0.4,0,0.6c0.1,0.2,0.3,0.3,0.6,0.3l6.7-1.2
	l7.9,2.9v0l7.5,4.3l2.9,5.5c0.1,0.2,0.3,0.3,0.5,0.3h3.3c0.1,0,0.3-0.1,0.4-0.2l1.9-1.7l2.8,3.3l0.6,6.9c0,0,0,0,0,0.1l0.8,4.2
	l-4.5,0.8c-0.2,0-0.4,0.2-0.5,0.5l-0.2,3.1l0,0l-2,4.4c-0.1,0.2-0.1,0.5,0.1,0.6l4.6,5.2l1.8,24.2c0,0.2,0.1,0.3,0.2,0.4l9.8,7.5
	l3,3.8l-1.7,7.2c0,0,0,0.1,0,0.1l-0.3,4.4c0,0,0,0.1,0,0.1l0.6,4.5l-3.6,3.9l-3.6,1l-2.8-4.7c0-0.1-0.1-0.1-0.2-0.2l-3.1-2.3
	c0.1-0.2,0-0.4-0.1-0.6c-0.2-0.2-0.4-0.2-0.6-0.1l-0.2,0.1l-0.8-0.6l1.1-3.8c0-0.2,0-0.4-0.1-0.5l-5.6-7.1l-0.1-0.1l-3.8-6.2
	c0-0.1-0.1-0.1-0.2-0.2l-7.2-4.8l2.9-4.3c0.1-0.2,0.1-0.4,0-0.6l-3.3-5.7c-0.1-0.1-0.1-0.2-0.2-0.2l-2.4-1.2c-0.1-0.1-0.3-0.1-0.5,0
	l-5.8,2.3l-6.9-0.6l-4.2-1.4l-2-4c-0.1-0.2-0.2-0.3-0.4-0.3l-4.5-0.8l-1.6-3.2l0.9-4.3l1.5-7.8c0,0,0-0.1,0-0.1v-7.8l5.8-4.9
	c0.1,0,0.1-0.1,0.1-0.2l2.4-3.9c0.1-0.1,0.1-0.3,0.1-0.5l-1.2-3.9c0-0.1-0.1-0.2-0.2-0.3l-5.8-4.7l-3.5-10.8c0,0,0,0,0,0l-3.2-8.9
	c0-0.1-0.1-0.1-0.1-0.2l-4.3-5.4l0.6-0.3c0.2-0.1,0.3-0.3,0.3-0.5c0-0.2-0.1-0.4-0.3-0.5l2.5-3.7c0,0,0.1-0.1,0.1-0.1l3.8-10.6
	l2.3-3.7l4.8-2.3l0.1,0L197.2,110.7z"/>
<path id="divi-18247" class="st0" d="M174.9,135l4.2,5.2l3.2,8.9l3.6,11c0,0.1,0.1,0.2,0.2,0.3l5.8,4.7l1.1,3.4l-2.2,3.6l0,0
	l-5.8,4.9c-0.1,0.1-0.2,0.3-0.2,0.4v7.9l-1.5,7.8l-0.9,4.5c0,0.1,0,0.3,0.1,0.4l1.8,3.6c0.1,0.2,0.2,0.3,0.4,0.3l4.5,0.8l2,3.9
	c0.1,0.1,0.2,0.3,0.3,0.3l4.5,1.5c0,0,0.1,0,0.1,0l7.2,0.6c0.1,0,0.2,0,0.2,0l5.8-2.3l1.9,1l3,5.2l-3.1,4.5
	c-0.1,0.1-0.1,0.3-0.1,0.4c0,0.2,0.1,0.3,0.3,0.4l7.6,5l3.8,6.2c0,0,0,0,0.1,0.1l5.5,6.9l-1.1,3.9c-0.1,0.2,0,0.5,0.2,0.6l0.5,0.4
	l-2.2,0.7l-7-1.2h-0.1l-1.6-0.9c0-0.2-0.1-0.4-0.3-0.5c-0.2-0.1-0.4-0.1-0.6,0l-4.8-2.6l-1.1-5.4c0-0.2-0.2-0.3-0.4-0.4l-4.3-1.7
	l0,0l-5-4.7c-0.1-0.1-0.2-0.1-0.3-0.2l-5.4-0.9l-9.7-2.6l-8.7-8.4l-1.7-8.6l2.3-7.1c0-0.1,0-0.1,0-0.2l0.3-7.7l0.9-10.4l4-2.8
	c0.1-0.1,0.2-0.3,0.2-0.4l0.3-5.7c0,0,0-0.1,0-0.1l-1.2-6.6l-0.6-3.6c0-0.1,0-0.1-0.1-0.2l-2.6-5.2l0.3-9.4c0-0.2-0.1-0.3-0.2-0.4
	l-6.1-5.6l0.6-0.3c0.1,0,0.2-0.1,0.2-0.2L174.9,135z"/>
<path id="divi-18256" class="st0" d="M171,139l6.2,5.7l-0.3,9.3c0,0.1,0,0.2,0.1,0.3l2.6,5.2v0.1l0.6,3.5l1.2,6.5v0l-0.3,5.2
	l-3.9,2.8c-0.1,0.1-0.2,0.2-0.2,0.4l-0.9,10.7c0,0,0,0,0,0l-0.3,7.7v0.1l-2.3,7c0,0.1,0,0.2,0,0.3l1.8,8.9c0,0.1,0.1,0.2,0.2,0.3
	l8.9,8.6c0.1,0.1,0.2,0.1,0.2,0.2l9.8,2.7c0,0,0,0,0.1,0l5.2,0.8l5,4.7c0.1,0.1,0.1,0.1,0.2,0.1l4.2,1.7l1.1,5.4
	c0,0.2,0.1,0.3,0.3,0.4l4.8,2.6l-3.6,0.5l-5.3-1.2c-0.1,0-0.3,0-0.4,0.1l-4.8,2.7c0,0,0,0-0.1,0l-3.1,2.3c-0.2-0.1-0.4,0-0.5,0.1
	c-0.1,0.1-0.2,0.3-0.2,0.5l-0.6,0.4l-5.9,4.2l-4.7-4.2l-9.7-7.9l0-0.1l-8.8-13.2v-9.6l2.1-6.2c0-0.1,0-0.2,0-0.3l-0.9-2.8v-0.1
	l-0.9-17.7l1.5-3.5c0-0.1,0-0.1,0-0.2l0.3-16.7c0-0.1,0-0.1,0-0.2l-1.5-4.1v0l-1.8-5.8v0l-0.6-8.6c0-0.1,0-0.1,0-0.2l-1.5-4.1
	c0.1-0.2,0-0.3,0-0.5l-0.3-0.6c0-0.1-0.1-0.1-0.1-0.2c0,0,0,0,0,0l-0.1-0.2L171,139z"/>
<path id="divi-18410" class="st0" d="M163,145l1.4,3.7l0.6,8.6c0,0,0,0.1,0,0.1l1.8,5.9c0,0,0,0,0,0l1.5,4.1L168,184l-1.4,3.4
	c0,0.1,0,0.2,0,0.2l0.9,17.9c0,0,0,0.1,0,0.1l0.8,2.8l-2,6.1c0,0.1,0,0.1,0,0.2v9.8c0,0.1,0,0.2,0.1,0.3l8.9,13.4
	c0,0,0.1,0.1,0.1,0.1l9.8,8l5.1,4.5c0.2,0.2,0.5,0.2,0.7,0l6.2-4.5l0.5-0.3l4.4,7.1l0,0.1l5.4,11.8c0,0,0,0.1,0.1,0.1l9.8,12.8l0,0
	l4.4,10.7c0,0,0,0.1,0,0.1l1.2,1.9l-29.6-4.2l0.4-2.9c0-0.2-0.1-0.4-0.2-0.5l-2.5-2c0,0-0.1,0-0.1-0.1l-10.7-4.9l-5.2-7.6v-9.7
	c0-0.2-0.1-0.3-0.2-0.4l-7.4-6.4c-0.1-0.1-0.1-0.1-0.2-0.1l-6.4-2c-0.1,0-0.1,0-0.2,0l-6.5,0.7l3.4-2.6c0.1-0.1,0.2-0.2,0.2-0.4
	l0.5-7.4c0-0.1,0-0.2-0.1-0.3l-3.8-7.7l1.4-12.6l2.9-6.3c0,0,0-0.1,0-0.1l1.5-7.4c0,0,0-0.1,0-0.1l0.5-9.2l4.4-11.2
	c0-0.1,0-0.1,0-0.2v-17.7c0-0.1,0-0.1,0-0.2l-2-7.4c0,0,0-0.1,0-0.1l-2.9-6.3v-0.1l0,0l-1.4-5.8c0,0,0-0.1-0.1-0.1c0,0,0,0,0,0
	l0.1-0.2L163,145z"/>
<path id="divi-18001" class="st0" d="M156.9,148.8l1.2,4.4c0,0,0,0.1,0,0.1l3.1,6.2l0,0.1l2.1,7.1l0,0l0.4,17.6l-4.1,11.3
	c0,0.1,0,0.1,0,0.2l-0.3,9.3l0,0.1l-1.3,7.2l0,0l-2.8,6.4c0,0.1,0,0.1-0.1,0.2l-1.2,12.8c0,0.1,0,0.2,0.1,0.3l4.1,7.6l-0.3,7
	l-3.6,2.8l-3.5,1.2l-3.6,0.4c-0.2,0-0.4,0.1-0.5,0.3c-0.1,0.2-0.1,0.4,0,0.6l-3.4,1.1l-3.9-2.1l0.3-6c0-0.1,0-0.3-0.1-0.4l-7.6-9.2
	c-0.1-0.1-0.2-0.2-0.4-0.2l-8.2-1.3l-7.9-8.9l-0.5-2.8c0-0.1,0-0.1,0-0.2l-2-3.7l2.5-2.2c0.1-0.1,0.2-0.3,0.2-0.4l0.2-6.3
	c0-0.2-0.1-0.4-0.2-0.5l-5.2-3.8l0.2-1.3l5.1-5.3l0,0l4.9-2.4c0.1-0.1,0.2-0.1,0.2-0.3l2.2-4.4l1.6-1.4c0,0,0,0,0,0l0.1-0.1
	c0,0,0,0,0,0c0,0,0,0,0.1-0.1l0,0c0,0,0-0.1,0.1-0.1l3.6-5.2l5.2-2.8l0,0l5.6-2.5c0,0,0,0,0.1,0l3.8-2.2c0.3-0.2,0.4-0.5,0.2-0.8
	c0,0,0,0,0,0l2-3.4c0-0.1,0.1-0.1,0.1-0.2l0.4-5.2l2.8-3.2c0.1-0.1,0.1-0.2,0.1-0.3l0.5-3.1l4.6-6.6c0,0,0,0,0,0l2.6-4.5
	c0,0,0-0.1,0.1-0.1L156.9,148.8z"/>
<path id="divi-18094" class="st0" d="M110.3,206l4.3,3.4l-0.3,5.7l-2.8,2.2c-0.2,0.2-0.3,0.5-0.2,0.7l2,4v0l0.5,2.9c0,0,0,0,0,0.1
	l0.1,0.6l-2.5,2.5c-0.2,0.2-0.2,0.5-0.1,0.7l2.9,4.7l0.3,4.6c0,0.1,0.1,0.3,0.2,0.3l4.9,5.4l-0.6,5.1l-1.2,3.8c0,0.1,0,0.1,0,0.2
	v2.3l-0.6,0.2c-0.3,0.1-0.5,0.4-0.4,0.7c0.1,0.3,0.4,0.5,0.7,0.4l0.3-0.1l1.5,9.7c0,0.1,0,0.1,0.1,0.2l3,5.7c0,0,0,0.1,0.1,0.1
	l1,1.4l-3.8-0.2l-5-2.2l-6-8.3l-3.5-9.1c0-0.1-0.1-0.2-0.2-0.3l-3.6-2.4c-0.1-0.1-0.2-0.1-0.3-0.1l-4.5-0.2c0-0.3-0.1-0.5-0.4-0.6
	l-5.8-2.1l-5.2-4.3l0,0l0,0l-4.1-4.7c0,0,0,0,0,0l-2.5-2.7l3.8-2l6.8-0.9c0.1,0,0.3-0.1,0.4-0.2l8.9-10.7l7.7-8.6
	c0.1-0.1,0.1-0.2,0.1-0.2c0,0,0,0,0-0.1l3.4-3.9c0.1-0.1,0.1-0.2,0.1-0.3L110.3,206z"/>
<path id="divi-18479" class="st0" d="M114.9,226.2l7,8.4c0.1,0.1,0.2,0.2,0.3,0.2l8.2,1.5l7.1,9l-0.5,6.2c0,0.2,0.1,0.4,0.3,0.5
	l3,1.7l-2.3,6.5c0,0.1,0,0.3,0,0.4l2.7,8.9l-2.8-0.7l-12.2-15.6c-0.1-0.2-0.4-0.3-0.6-0.2l-6.1,1.9v-1.8l1.2-3.8c0,0,0-0.1,0-0.1
	l0.6-5.3c0-0.2,0-0.3-0.2-0.5l-4.9-5.5l-0.3-4.6c0-0.1,0-0.2-0.1-0.3l-2.7-4.3L114.9,226.2z"/>
<path id="divi-18150" class="st0" d="M245.6,227.8l14.6,18.6l0,0l14.2,23.1c0,0.1,0.1,0.1,0.2,0.2l6.4,3.9c0.2,0.1,0.5,0.1,0.7-0.1
	l2-2.1l8,8.4c0,0,0,0.1,0.1,0.1l7.3,5.4h0l5.3,8.7c0,0,0,0,0.1,0.1l3.4,3.9l0,0l4.9,6.4c0,0,0.1,0.1,0.1,0.1l5.9,4.9
	c0.1,0.1,0.3,0.2,0.4,0.2l4-0.5l2.3,4.6c0,0.1,0.1,0.2,0.2,0.2l5.7,3.3l1.4,6.2c0,0.1,0,0.1,0.1,0.2l4.4,6.9c0,0,0.1,0.1,0.1,0.1
	l3.3,2.9l1.4,4.7c0,0.1,0.1,0.2,0.2,0.3l6.4,5.4c0.1,0.1,0.2,0.1,0.3,0.2l6.2,0.5l6.3,3.4h0l6.4,3.9c0.2,0.1,0.4,0.1,0.6,0l5.4-2.9
	c0.1,0,0.2-0.1,0.2-0.2l1.8-2.8l5.7-1.3l2.3,6.4c0,0.1,0.1,0.2,0.2,0.2l3.2,2.4c-0.3,0-0.5,0.2-0.5,0.5c0,0.3,0.1,0.5,0.3,0.6
	l4.3,2.4l2.4,3.3c0.1,0.1,0.1,0.2,0.2,0.2l5.7,2.3l2.4,3.8l2.9,4.4l0,0l4.4,7.4c0,0.1,0.1,0.1,0.2,0.2l5.7,3.3l1.4,6.2
	c0.1,0.2,0.2,0.4,0.5,0.4l9.3,1.5h0l6.7,1.4l5.3,6.2c0.1,0.1,0.1,0.1,0.2,0.1l5.4,3l5.8,4.4c0.2,0.1,0.3,0.2,0.5,0.1l2.6-0.9l3.5,4
	l-0.9,5.5l-6.2-0.4c0-0.2-0.2-0.4-0.4-0.5s-0.5,0-0.6,0.2l-2.6,2.6l-3.6-2.2c-0.3-0.2-0.6-0.1-0.8,0.2l-1.7,2.6l-4.5-1.8
	c-0.2-0.1-0.4,0-0.5,0.1l-2.7,1.8l-8.1-2.8l-3.8-3.4c-0.1-0.1-0.2-0.1-0.3-0.1l-9.8-1.5c-0.1,0-0.2,0-0.2,0l-14.5,4.4l-7.2-4.8
	c-0.2-0.2-0.5-0.1-0.7,0.1l-2.2,2.2l-4.1-1.8c-0.1-0.1-0.3-0.1-0.4,0l-1.8,0.5l-4.6-0.9l-3.8-3.8c-0.1-0.1-0.2-0.1-0.3-0.2l-4.2-0.4
	l0.7-1.7c0.1-0.2,0-0.4-0.1-0.6c-0.1-0.2-0.3-0.2-0.5-0.2l-3,0.4l-1.3-4c-0.1-0.2-0.2-0.3-0.4-0.4c-0.2,0-0.4,0-0.5,0.1l-3.3,2.8
	l-78.6-1l-7.2-18.3c0-0.1-0.1-0.1-0.1-0.2l-8.3-10.7l-0.9-6.6v-0.1v-10.2c0-0.1,0-0.1,0-0.2l-1.5-5.4c0-0.1-0.1-0.3-0.2-0.3
	l-5.4-3.4c-0.1-0.1-0.2-0.1-0.3-0.1l-5.3,0.5l-6.6-3.8l-5.3-6.8l0,0l-3.2-7.5l5.8-11.1c0.1-0.2,0.1-0.4-0.1-0.6l-8.8-11.8l-3.9-7.3
	c0,0,0,0,0-0.1l-2.9-4.3c0,0,0,0,0,0v0c0,0,0,0-0.1-0.1v0c0,0,0,0-0.1-0.1v0l-1.8-2.7l-4.4-10.8c0-0.1-0.1-0.1-0.1-0.2l-9.8-12.8v0
	l-5.3-11.7c0,0,0,0-0.1-0.1l-4.5-7.2l3-2.2l0.1,0l4.5-2.5l5.1,1.1c0.1,0,0.1,0,0.2,0l4.8-0.6c0.1,0,0.3-0.1,0.4-0.2l1.4,0.8
	c0,0,0.1,0,0.2,0.1l7.2,1.2c0.1,0,0.2,0,0.3,0l3.2-1l3.3,2.6l2.9,5c0.1,0.2,0.4,0.4,0.7,0.3l4.2-1.2c0.1,0,0.2-0.1,0.2-0.2l3.9-4.2
	c0.1-0.1,0.2-0.3,0.2-0.5l-0.6-4.7v-0.1v0l0.3-4.3L245.6,227.8z"/>
<path id="divi-18610" class="st0" d="M69.7,232l3.4,3.4c0,0.1,0.1,0.1,0.2,0.1l3,1.5c0.2,0.1,0.4,0.1,0.5,0l0.8-0.4l2.7,3l4.2,4.8
	c0,0,0,0,0.1,0.1l5.4,4.5c0.1,0.1,0.1,0.1,0.2,0.1l5.5,1.9l-0.2,1.5l-4.7,7.4c0,0,0,0,0,0l-5,8.4l-4.5,1.1c-0.2,0-0.3,0.2-0.4,0.4
	l-1.2,3.6c0,0.2,0,0.3,0.1,0.5l3.2,5.8v1.8l-5.4-1.6l-4.7-4.3c-0.1-0.1-0.2-0.1-0.3-0.2l-6.6-1.2c-0.2,0-0.3,0-0.4,0.1
	c-0.1,0.1-0.2,0.2-0.2,0.4l-0.3,3c0,0.1,0,0.2,0,0.2l2,5.2l-0.4,2.2l-4.3-1.2v-4.8l1.2-3.5c0.1-0.2,0-0.4-0.1-0.5
	c-0.1-0.1-0.3-0.2-0.5-0.2h-2.1c-0.1,0-0.2,0-0.3,0.1l-4.3,2.3l-0.2-3c0-0.1,0-0.1-0.1-0.2l-2.7-6.2c0-0.1-0.1-0.2-0.2-0.2l-5.6-4.2
	l1.8-3.2l3.2-5.6l4.4-3.8c0.1-0.1,0.1-0.1,0.1-0.2l3.6-8v0l0,0l6.2-10.2L69.7,232z"/>
<path id="divi-18460" class="st0" d="M160.7,251.1l6.1,1.9l7.1,6.2v9.6c0,0.1,0,0.2,0.1,0.3l5.4,7.9c0.1,0.1,0.2,0.1,0.2,0.2
	l10.7,4.8h0l2.2,1.8l-0.3,2.1c-0.1-0.3-0.4-0.4-0.6-0.4c-0.3,0-0.5,0.3-0.5,0.6l0.5,4.2l-5.2,6.7c-0.1,0.1-0.2,0.3-0.1,0.5l1.5,6.9
	c0,0.1,0.1,0.1,0.1,0.2l3.1,4.8l-6,2.8v-5c0-0.2-0.1-0.4-0.3-0.5l-6.4-3.4c-0.1-0.1-0.3-0.1-0.4-0.1l-8,1.9l-5.6-6.5l0-0.1l0,0
	l-2.9-5.3c0,0-0.1-0.1-0.1-0.1l-9.3-9.8c0,0,0,0-0.1-0.1l-6.8-5.3l-2.4-7.2c-0.1-0.2-0.3-0.3-0.5-0.4c0,0,0-0.1,0-0.1l-2.9-9.6
	l2.2-6.2l0.4,0.2c0.1,0.1,0.3,0.1,0.5,0.1l7.7-2.3L160.7,251.1z"/>
<path id="divi-18029" class="st0" d="M96.6,251.6l4.4,0.3l3.3,2.2l3.5,9.1c0,0,0,0.1,0.1,0.1l5.8,8.1c0,0,0,0.1,0,0.1
	c0,0.1,0.1,0.3,0.2,0.3l-0.2,2.1l-4.4-1c-0.3-0.1-0.5,0.1-0.7,0.3l-1.5,3.3c0,0.1,0,0.2,0,0.3l0.5,6.5l-3-0.2
	c-0.1-0.3-0.4-0.4-0.6-0.4l-1.5-3c-0.1-0.1-0.2-0.2-0.4-0.3s-0.3,0-0.5,0.1l-2.1,1.5l-3.3,1.5l-2-3.2l1.7-4.5c0.1-0.2,0-0.5-0.2-0.7
	l-8.7-6.4l4.4-7.5l4.8-7.4c0.1-0.1,0.1-0.2,0.1-0.2L96.6,251.6z"/>
<path id="divi-18860" class="st0" d="M125.1,254.1l12,15.4c0.1,0.1,0.2,0.2,0.3,0.2l3.9,1c0,0,0,0,0.1,0c0,0,0,0.1,0,0.1l2.5,7.4
	c0,0.1,0.1,0.2,0.2,0.3l6.8,5.3l0.1,0.1l9.2,9.7l0,0.1l2.9,5.3c0,0,0,0.1,0.1,0.1l5.6,6.6l-1.2,2.1l-1.3,2.2l-5.4,0.5l-17.1-7.3
	c0,0,0,0,0,0l-13.3-4.9c-0.2-0.1-0.4,0-0.6,0.1l-6,5.1l-9.8-7.5l-4.9-13.2c-0.1-0.1-0.2-0.3-0.3-0.3l-0.5-5.6l1.2-2.8l4.6,1.1
	c0.2,0,0.3,0,0.5-0.1c0.1-0.1,0.2-0.2,0.2-0.4l0.2-2.3l4.3,1.9c0.1,0,0.1,0.1,0.2,0.1l5.1,0.3c0.2,0,0.4-0.1,0.5-0.3
	c0.1-0.2,0.1-0.4,0-0.6l-1.7-2.3l-2.9-5.6l-1.5-9.7V256L125.1,254.1z"/>
<path id="divi-18756" class="st0" d="M165.4,327.7l0.5,0c-0.1-0.1-0.3-0.1-0.3-0.2c0-0.3,0.2-0.6,0.5-0.6l7.9-0.5
	c0.1,0,0.3,0,0.4,0.1l5.3,3.9l0.8,0.2c0.2-0.2,0.4-0.3,0.7-0.2l3.4,1.5c0.2,0.1,0.3,0.2,0.3,0.4c0,0.2,0,0.4-0.1,0.5l-4,5.8l3.2,1.2
	c0.1,0,0.2,0.1,0.2,0.2l5.9,6.4c0.2,0.2,0.2,0.5,0,0.8l-4.1,5l5.6,6c0.1,0.1,0.1,0.3,0.1,0.4l-0.4,4.4l12.8-6
	c0.2-0.1,0.5-0.1,0.7,0.1c0.2,0.2,0.2,0.5,0,0.7l-2,3.2l5.1,1.3c0,0,0.1,0,0.1,0.1l3.5,2c0,0,0.1,0,0.1,0.1l7.4,6.4
	c0.2,0.2,0.3,0.5,0.1,0.7l-3.3,5.6l4.2,6.1c0.2,0.3,0.1,0.6-0.1,0.8l-3.4,2.6l3.3,4.2l11-1.4c0.1,0,0.2,0,0.2,0l8.8,2.9h0l15.2,3.9
	c0.2,0,0.3,0.2,0.4,0.4l3.9,12.8c0,0.2,0,0.3-0.1,0.5c-0.1,0.1-0.2,0.2-0.4,0.2l-5.2,0.9l1,2l7.6,1.4c0.3,0,0.5,0.3,0.5,0.6
	c0,0.3-0.2,0.5-0.4,0.6l-7.4,1.7l7.2,7.7c0.2,0.2,0.2,0.5,0.1,0.7l-2.4,4.1l2-1.8c0.2-0.2,0.4-0.2,0.6-0.1l3.4,1.5
	c0.2,0.1,0.4,0.4,0.3,0.6l-0.4,3.5l11.2,5.6l-1.1-3.7c-0.1-0.2,0-0.5,0.2-0.7l3.4-2c0.2-0.1,0.4-0.1,0.6,0c0.2,0.1,0.3,0.3,0.2,0.6
	l-0.9,6.3l4.7,0.3v-8.2c0-0.2,0.1-0.3,0.2-0.4c0.1-0.1,0.3-0.2,0.5-0.1l5.9,1.5c0.2,0,0.3,0.2,0.4,0.3c0.1,0.2,0.1,0.3,0,0.5
	l-2.3,4.8l2.3-2.1c0.1-0.1,0.3-0.2,0.4-0.2l8.9,0.5c0,0,0.1,0,0.1,0l6.4,2c0,0,0,0,0,0l4.9,2c0.2,0.1,0.3,0.2,0.3,0.4
	c0,0.2,0,0.4-0.1,0.5l-3.2,4.7l1.7,3.4l4.8,1.3l2.2-2.7c0.1-0.2,0.3-0.2,0.5-0.2c0.2,0,0.3,0.1,0.4,0.3l3.7,7.3l5.3-3.6
	c0.2-0.2,0.5-0.1,0.7,0.1l6.6,6.2l3.6-1.3c0.3-0.1,0.6,0,0.7,0.2l4.8,8.2l12.1,2.9c0,0,0.1,0,0.1,0l7.9,3.5l0.1,0
	c0.3-0.1,0.6,0.1,0.7,0.3c0,0,0,0,0,0l2.5,1.1l4.7-0.5l4.8-3.3c0.2-0.1,0.4-0.2,0.6-0.1l5.8,2.9l7.8,0.5c0.2,0,0.3,0.1,0.4,0.2
	c0.1,0.1,0.1,0.3,0.1,0.5l-0.8,5l3.3-2.6c0.1-0.1,0.3-0.1,0.5-0.1c0.2,0,0.3,0.1,0.4,0.3l3.4,6.8l0,0.1l0,0l3.3,4.1l2.1-4.1
	c0.1-0.2,0.2-0.2,0.4-0.3c0.2,0,0.3,0,0.5,0.1l6.8,4.3l10.1,1h0.1l4.2-0.5l4.8-3.8c0.1-0.1,0.3-0.1,0.4-0.1c0.2,0,0.3,0.1,0.4,0.2
	l5.3,6.3l0,0l0.1,0.1l4.3,3.3l0,0l8.7,5.8H461l2.8-5.1c0,0,0.1-0.1,0.1-0.1l5.4-6.4c0.1-0.2,0.4-0.2,0.6-0.2l7.9,2
	c0.2,0,0.4,0.2,0.4,0.4c0.1,0.2,0,0.4-0.1,0.6l0.7,0.5l-1.2-3.2c-0.1-0.3,0-0.6,0.3-0.8c0.3-0.1,0.6,0,0.8,0.3l1.8,4.9l5.7,4.5
	l8.1-0.5l9.2-4.4c0,0,0.1,0,0.1,0l5.9-1.5c0.2-0.1,0.4,0,0.6,0.2l5.9,7.4l11.1,7.7l7,2.8l4.2-6c0,0,0,0,0,0l10.8-13.3
	c0.1-0.1,0.3-0.2,0.5-0.2c0.2,0,0.3,0.1,0.4,0.2l2.4,3.9c0,0,0,0,0,0l2.3,4.2l6.1,1.4l7.6,1.4l2.7-2.7l2.9-6.2l5.4-11.8
	c0,0,0,0,0-0.1l6.9-10.8c0-0.1,0.1-0.1,0.2-0.2l6.8-4.9l0,0l4.2-3.8l2.4-8.2c0.1-0.3,0.3-0.4,0.6-0.4l3.8,0.4v-1.3
	c0-0.3,0.3-0.6,0.6-0.6s0.6,0.2,0.6,0.6v1.5l7.8,0.9c0,0,0.1,0,0.1,0l12.6,3.4l5.5-2.7l4.4-16c0-0.1,0.1-0.3,0.2-0.3l4.9-2.9l0.1,0
	l10.8-7.8l9.8-7.4c0.1,0,0.1-0.1,0.2-0.1l10.4-2.2c-0.1-0.3,0-0.6,0.3-0.7c0.2-0.1,0.5-0.1,0.7,0.2l0.2,0.2l14.2-2.8l3.8-6.2
	c0-0.1,0.1-0.1,0.1-0.2l-1-2.1l-6.9-4.1l-5.6,5.1c-0.2,0.2-0.4,0.2-0.7,0.1l-6.4-3c-0.1-0.1-0.3-0.2-0.3-0.3l-1.9,3.1
	c-0.1,0.2-0.3,0.3-0.5,0.3l-6.4,0.5c-0.2,0-0.4,0-0.5-0.2c-0.1-0.1-0.2-0.4-0.1-0.5l1.7-5.6l-5.1,0.4c-0.2,0-0.4-0.1-0.5-0.2
	c-0.1-0.2-0.1-0.4,0-0.6l2.1-3.6l-8.3,2.9c-0.2,0.1-0.4,0-0.6-0.1c-0.2-0.2-0.2-0.4-0.1-0.6l2.1-5.1l-8,0.4c-0.2,0-0.3-0.1-0.4-0.2
	l-5.4-5.9c-0.2-0.2-0.2-0.4-0.1-0.7l1.5-3l-3.6,2.3c-0.2,0.1-0.4,0.1-0.5,0c-0.2-0.1-0.3-0.2-0.3-0.4l-0.9-5.8l-3.4,0.4
	c-0.2,0-0.5-0.1-0.6-0.3c-0.1-0.2-0.1-0.5,0.1-0.7l2.8-3.2l-4.8,0.8c0,0,0,0,0,0l-4.9,0.5c-0.2,0-0.4-0.1-0.5-0.2
	c-0.1-0.2-0.1-0.4-0.1-0.6l2.7-5.5l-3.5-2.7c0,0-0.1-0.1-0.1-0.1l-3.2-4.5l-5.4,3.2c-0.2,0.1-0.4,0.1-0.6,0
	c-0.2-0.1-0.3-0.3-0.3-0.5l-0.5-4.9c0-0.1,0-0.2,0.1-0.3l1.8-4.1l-4.1-4.5l-5.2-0.9c-0.3-0.1-0.5-0.3-0.5-0.7l0.9-6.2l-3.7-4.8
	l-0.2,0.2c-0.2,0.1-0.4,0.2-0.6,0.1c-0.2-0.1-0.3-0.3-0.4-0.5h-5.3c-0.2,0-0.3-0.1-0.4-0.2c-0.1-0.1-0.1-0.4-0.1-0.5l1.3-3.8
	l-5.3-1.3c-0.1,0-0.1-0.1-0.2-0.1l-4.2-2.8l-5.3,1.8l-0.9,2.7c-0.1,0.3-0.4,0.5-0.7,0.4l-3.9-1c-0.2,0-0.4-0.2-0.4-0.4l-1.4-5.8
	l0-0.1l-1.3-3.8l-1,3.3c-0.1,0.2-0.2,0.4-0.4,0.4c-0.2,0.1-0.4,0-0.6-0.2l-6.4-5.9c-0.2-0.2-0.3-0.4-0.2-0.7l2-4.4c0,0,0,0,0,0
	l1.6-2.8l-6.7-1.8c-0.2-0.1-0.4-0.3-0.4-0.6v-6.1l-5.1,2.2c-0.2,0.1-0.4,0.1-0.6-0.1c-0.2-0.1-0.3-0.4-0.2-0.6l0.8-5.2h-4.7
	c-0.2,0-0.4-0.1-0.5-0.2c-0.1-0.2-0.1-0.4-0.1-0.5l1.4-4.2l-5.1-8.3l-8,1c-0.2,0-0.4-0.1-0.5-0.2l-4.8-5.8l-10.7-4.4
	c-0.2-0.1-0.3-0.2-0.3-0.4l-0.8-3.8l-2.7,3.1c-0.2,0.2-0.6,0.2-0.8,0l-6.4-5.9l-1,4.7c0,0.2-0.2,0.4-0.4,0.4l-6.4,2
	c-0.2,0-0.3,0-0.4-0.1c-0.1-0.1-0.2-0.2-0.3-0.4l-0.9-4.6l-3-1.1l-0.9,5.2c0,0.2-0.1,0.4-0.3,0.4c-0.2,0.1-0.4,0-0.6-0.1l-4.4-3.1
	l-3,5.7l0.4,3.8l1,5.9c0,0.1,0,0.2,0,0.3l-1,3c-0.1,0.2-0.3,0.4-0.6,0.4h-6.4l-0.4,3c0,0.2-0.1,0.4-0.3,0.4l-6.5,3.2l0.4,3
	c0,0.3-0.1,0.5-0.3,0.6l-10.3,4.9c-0.2,0.1-0.5,0.1-0.7-0.1l-3.3-3.3h-0.1c-0.2,0.1-0.4,0-0.5-0.1l-11.3-8.4l-6.8-4.7l-8.3-2.6
	c0,0,0,0,0,0l-7.1-2.3l-5,3.7l-3.8,4.8l-1,9.2c0,0.1-0.1,0.2-0.1,0.3l-5.9,7.4c-0.1,0.1-0.1,0.1-0.2,0.2l-8.7,3.8l-3.7,7.4l2.4,6.2
	c0.1,0.2,0,0.4-0.1,0.6l-8.3,10.3l-3.7,11.4l1.5,1.1c0.2,0.2,0.3,0.5,0.2,0.8l1.2,0.7c0.1,0,0.1,0.1,0.2,0.2l2.4,3.3l5.8,2.4
	c0.1,0.1,0.2,0.1,0.2,0.2l2.5,3.9l2.9,4.4c0,0,0,0,0,0l4.3,7.2l5.8,3.4c0.1,0.1,0.2,0.2,0.2,0.4l1.4,6l9,1.4c0,0,0,0,0,0l6.9,1.5
	c0.1,0,0.2,0.1,0.3,0.2l5.3,6.3l5.3,2.9c0,0,0.1,0,0.1,0.1l5.7,4.2l2.7-0.9c0.2-0.1,0.5,0,0.6,0.2l3.9,4.4c0.1,0.1,0.2,0.3,0.1,0.5
	l-0.9,5.7l0.4,0c0.2,0,0.5,0.1,0.6,0.3c0.1,0.2,0.1,0.5,0,0.7c-0.1,0.2-0.4,0.2-0.6,0.2l-7.9-0.5c-0.2,0-0.4-0.1-0.5-0.2l-2.5,2.5
	c-0.2,0.2-0.5,0.2-0.7,0.1l-3.5-2.2l-1.7,2.5c-0.1,0.2-0.4,0.3-0.7,0.2l-4.6-1.9l-2.7,1.8c-0.1,0.1-0.3,0.1-0.5,0.1l-8.4-2.9
	c-0.1,0-0.1-0.1-0.2-0.1l-3.8-3.3l-9.5-1.4l-14.7,4.4c-0.2,0.1-0.4,0-0.5-0.1l-7-4.7l-2.2,2.2c-0.2,0.2-0.4,0.2-0.6,0.1l-4.2-1.9
	l-1.8,0.4c-0.1,0-0.2,0-0.2,0l-4.9-1c-0.1,0-0.2-0.1-0.3-0.2l-3.8-3.8l-4.7-0.5c-0.2,0-0.3-0.1-0.4-0.3c-0.1-0.2-0.1-0.3-0.1-0.5
	l0.6-1.5l-2.4,0.3c-0.3,0-0.5-0.1-0.6-0.4l-1.2-3.6l-2.8,2.4c-0.1,0.1-0.2,0.2-0.4,0.2l-80.7-1c-0.3,0-0.6-0.2-0.6-0.6
	c0-0.3,0.2-0.6,0.6-0.6h0.6l-7-17.8l-8.3-10.8c-0.1-0.1-0.1-0.2-0.1-0.2l-1-6.9c0,0,0,0,0-0.1v-10.3v0l-1.4-5l-5.1-3.2l-5.2,0.5
	c-0.1,0-0.2,0-0.3-0.1l-6.9-3.9c-0.1,0-0.1-0.1-0.2-0.2l-5.4-6.9c0,0,0-0.1-0.1-0.1l-3.4-7.9c-0.1-0.2-0.1-0.3,0-0.5l5.8-11
	l-8.7-11.5c0,0,0,0,0-0.1l-3.9-7.3l0,0l-2.8-4.2l-31.2-4.4c0,0-0.1,0-0.1,0l0.3,2.8c0,0.1,0,0.3-0.1,0.4l-5.2,6.7l1.4,6.5l3.4,5.3
	c0.1,0.1,0.1,0.3,0.1,0.5c0,0.2-0.2,0.3-0.3,0.3l-7.4,3.4c-0.2,0.1-0.4,0.1-0.5,0c-0.2-0.1-0.3-0.3-0.3-0.5v-5.5l-5.9-3.2l-7.9,1.8
	l-1.3,2.2l-1.5,2.5c-0.1,0.2-0.3,0.3-0.4,0.3l-5.2,0.4l-6.3,5L165.4,327.7z"/>
<path id="divi-18205" class="st0" d="M86.9,269l-0.1,0.2c-0.1,0.1-0.2,0.2-0.3,0.2l-4.5,1.1l-1,3l3.2,5.8c0,0.1,0.1,0.2,0.1,0.3v2.7
	c0,0.2-0.1,0.4-0.2,0.5c-0.1,0.1-0.4,0.1-0.5,0.1l-6.2-1.8c-0.1,0-0.2-0.1-0.2-0.1l-4.7-4.4l-5.8-1.1l-0.2,2.2l1.9,5l0,0l4.7,4.9
	l4.3,1.8c0.3,0.1,0.4,0.4,0.3,0.7l-1,3.7l0.3-0.1c0-0.1-0.2,0-0.2-0.1c0-0.3,0.2-0.6,0.5-0.7l6.8-0.9c0.1,0,0.2,0,0.3,0l4,1.5V290
	c0-0.2,0.1-0.4,0.3-0.5c0.2-0.1,0.4-0.1,0.6,0l6.6,4.8c0.1,0.1,0.1,0.1,0.2,0.2l2.4,4.2c0.1,0.1,0.1,0.3,0.1,0.5
	c0,0.2-0.2,0.3-0.3,0.3l-2.8,1.4l1.8,1.8l3.6,3.3c0,0,0,0,0,0l3,3.3c0,0,0.1,0.1,0.1,0.1l2.2,4.2l3.9,0.5l1.7-2.3l-0.1-0.1
	c-0.1-0.1-0.2-0.2-0.2-0.4c0-0.2,0-0.3,0.2-0.4l-9.5-14.2c-0.1-0.1-0.1-0.3-0.1-0.4l0.9-6.8c0,0,0,0,0-0.1l1-5.1
	c0,0-0.1-0.1-0.1-0.2l-1.5-3l-1.6,1.1c0,0-0.1,0-0.1,0.1l-3.9,1.8c-0.3,0.1-0.6,0-0.7-0.2l-2.4-3.9c-0.1-0.2-0.1-0.3,0-0.5l1.6-4.3
	L86.9,269z"/>
<path id="divi-18785" class="st0" d="M104.6,284.1l3.7,0.2c0.1,0,0.1,0,0.2,0c0,0,0,0,0,0l4.4,12.1c0,0.1,0.1,0.2,0.2,0.3l10.3,7.8
	c0.2,0.2,0.5,0.2,0.7,0l6.1-5.2l12.9,4.8h0l16.6,7.1L154,316c-0.1,0.1-0.2,0.2-0.2,0.4c0,0.2,0,0.3,0.1,0.4l9.8,11.2l-2.4-0.3h0
	l-6.2-2.9c-0.1,0-0.2-0.1-0.3-0.1l-6.6,0.5l-2.6-2.6l-1-4.3c-0.1-0.3-0.3-0.4-0.6-0.4h-7.3v-2.9c0-0.2-0.1-0.3-0.2-0.4
	c-0.1-0.1-0.3-0.2-0.4-0.2h-6.4c-0.1,0-0.1,0-0.2,0l-6.2,1.9h-0.1h-5.1l-5.4-5c0-0.2,0-0.3-0.1-0.5l-10-15l0.9-6.6v-0.1L104.6,284.1
	z"/>
</svg>
