<?xml version="1.0" encoding="utf-8"?>
<!-- Generator: Adobe Illustrator 20.1.0, SVG Export Plug-In . SVG Version: 6.00 Build 0)  -->
<svg version="1.1"
     id="boyaca" inkscape:output_extension="org.inkscape.output.svg.inkscape" inkscape:version="0.46" sodipodi:docname="departamentos_colombia_plain.svg" sodipodi:version="0.32" xmlns:cc="http://creativecommons.org/ns#" xmlns:dc="http://purl.org/dc/elements/1.1/" xmlns:inkscape="http://www.inkscape.org/namespaces/inkscape" xmlns:rdf="http://www.w3.org/1999/02/22-rdf-syntax-ns#" xmlns:sodipodi="http://sodipodi.sourceforge.net/DTD/sodipodi-0.dtd" xmlns:svg="http://www.w3.org/2000/svg"
     xmlns="http://www.w3.org/2000/svg" xmlns:xlink="http://www.w3.org/1999/xlink" x="0px" y="0px" viewBox="0 0 420 396"
     style="enable-background:new 0 0 420 396;" xml:space="preserve">
  <path id="divi-15223" class="st0" d="M364.9,65.2l12.2,6.1l-0.5,1.4l-2.1,5.3l0,0l-4.1,7.6c0,0,0,0,0,0.1l-2.6,6.9
				       c0,0.1,0,0.2,0,0.2l0.3,4l-4.5,5.4c-0.2-0.1-0.5-0.1-0.7,0.1l-0.3,0.3h-0.1l-0.1,0c0,0,0,0-0.1,0l-4,1.1c0,0,0,0,0,0l-6.5,2.4
				       l-5.9-1.3c-0.2,0-0.5,0.1-0.6,0.2l-3.2,4.7h-6.4l-0.1-0.6l0.2-0.4c0.1-0.2,0.1-0.3,0-0.5c-0.1-0.2-0.2-0.3-0.4-0.3l-0.8-3.9v0
				       l0.3-5.8c0-0.2-0.1-0.4-0.3-0.5l-5.6-3.7l0.5-3.4c0-0.2,0-0.4-0.2-0.5c-0.1-0.1-0.3-0.2-0.5-0.1l-5.3,1.4l-5.8-0.5c0,0-0.1,0-0.1,0
				       l-3.9,0.7l-2.8,0.5c-0.1-0.2-0.2-0.3-0.4-0.3l-0.8-8.9l2.6-1.8l4.1,3.8c0.1,0.1,0.2,0.1,0.3,0.1l7.2,1.4c0.1,0,0.3,0,0.4,0l5.2-2.8
				       c0,0,0,0,0.1,0L333,81c0.1-0.1,0.2-0.2,0.2-0.4l1.2-8.1c0.2,0.1,0.4,0,0.6-0.1l3.2-2.8l1.4,3.9c0.1,0.2,0.3,0.4,0.6,0.4l2.2-0.3
				       c0,0,0.1,0,0.1,0l4.2-1.4c0.2-0.1,0.3-0.2,0.4-0.4l1-6.4h3.5l2,1.8c0.1,0.1,0.2,0.1,0.4,0.1h7.7c0.1,0,0.2,0,0.3-0.1L364.9,65.2z"/>
  <path id="divi-15180" class="st0" d="M328.1,91.5l-0.4,2.9c0,0.2,0.1,0.4,0.2,0.6l5.6,3.8l-0.3,5.6c0,0,0,0.1,0,0.1l1,4.8l-0.6,1.3
				       l-4.4,4c-0.1,0.1-0.1,0.1-0.2,0.2l-1.6,3.8l-2.4,1.1c0,0-0.1,0.1-0.1,0.1l-2.1,1.8c-0.2,0.2-0.3,0.5-0.1,0.8l3.2,4.6l0.8,4.2
				       l-3.8,0.3l-5.2,0.4l-4.4-3.3c-0.2-0.1-0.4-0.2-0.6-0.1l-3.9,1.8h-3.1l-2.2-5.2c0.1-0.1,0.1-0.3,0.1-0.4c0,0,0,0,0,0l4.1-3.9
				       c0.1-0.1,0.1-0.1,0.1-0.2l2.3-6c0,0,0,0,0,0l1.3-4.1c0.1-0.2,0-0.4-0.1-0.5l-2-2.8c0.1-0.1,0.2-0.3,0.2-0.5c0-0.2-0.2-0.4-0.4-0.4
				       l1.4-12.4l3.1-0.5l3.8-0.7h0.1l5.8,0.5c0.1,0,0.1,0,0.2,0L328.1,91.5z"/>
  <path id="divi-15332" class="st0" d="M361.5,104.2c0.1,0.2,0.2,0.3,0.3,0.3l-0.2,2.5l-0.9,3.7l-4.5,5.4c0,0-0.1,0.1-0.1,0.2
				       l-1.5,3.8c-0.1,0.2-0.1,0.4,0,0.5l1.8,2.6l-1.4,2.3c-0.1,0.1-0.1,0.2-0.1,0.3v4l-4.2,5.5l-0.1,0.1l-6.4,5.3l-3.9-0.6l-2-2.7
				       c-0.1-0.1-0.2-0.2-0.3-0.2l-4.4-0.8c-0.1,0-0.3,0-0.4,0.1c-0.1,0.1-0.2,0.2-0.3,0.4l-0.6,2.6c0,0.2,0,0.3,0.1,0.5l1.8,2.6l-0.8,3.8
				       l-6.4,4.7l-2.1-3.5c-0.1-0.1-0.2-0.2-0.3-0.2l-6.5-2.4c0-0.1,0-0.2-0.1-0.3l-1.7-2.7l-0.8-5.3l1.4-1.2c0,0,0.1-0.1,0.1-0.1l1.5-2.1
				       c0,0,0-0.1,0.1-0.2l4.6-0.4l4.4-0.3c0.2,0,0.3-0.1,0.4-0.2s0.1-0.3,0.1-0.5l-1-4.9c0-0.1,0-0.2-0.1-0.2l-3-4.3l1.7-1.4l2.5-1.1
				       c0.1-0.1,0.3-0.2,0.3-0.3l1.6-4l4.5-4c0.1-0.1,0.1-0.1,0.2-0.2l0.1-0.1c0.1,0.1,0.3,0.2,0.4,0.2h7.2c0.2,0,0.4-0.1,0.5-0.2l3.2-4.6
				       l5.7,1.2c0.1,0,0.2,0,0.3,0l6.7-2.4v0L361.5,104.2z"/>
  <path id="divi-15218" class="st0" d="M271.9,124.7c0.1,0.1,0.1,0.1,0.2,0.1l5.9,2.8c0,0.2,0.1,0.3,0.2,0.4l3,2.9l2.5,5.4l0,0.1
				       l0.3,0.8l-1.9,1.3c0,0,0,0,0,0l-3.6,2.8l-2.4-3.8h0l-3.1-5.5c-0.1-0.1-0.1-0.2-0.2-0.2l-4.6-2.3c0,0,0,0,0,0l0.9-2L271.9,124.7z"/>
  <path id="divi-15248" class="st0" d="M313,129.6l4.2,3.2l-1.1,1.6l0,0l-1.2,1.1l-0.1,0c-0.2,0-0.4,0.2-0.4,0.4c0,0,0,0,0,0.1
				       l-0.7,0.6l0,0l-4.8,2.1l-2.9-1.3l-1.6-1.5l-0.8-2.2l2.3-2.4h3.2c0.1,0,0.2,0,0.2-0.1L313,129.6z"/>
  <path id="divi-15317" class="st0" d="M302.5,134.5l0.7,1.9c0,0.1,0.1,0.2,0.2,0.2l1.8,1.6c0,0,0.1,0.1,0.2,0.1l2.4,1.1
				       c0,0.2,0.1,0.4,0.3,0.5s0.4,0.1,0.6,0l0.2-0.1h0l1,1.7l-1.7,1.7c-0.1,0.1-0.1,0.2-0.2,0.3l-0.6,4.3l-0.6-0.2l-2.7-3.6
				       c-0.1-0.1-0.1-0.1-0.2-0.2l-2.4-1v-6.2c0-0.2-0.1-0.4-0.2-0.5l-0.9-0.6L302.5,134.5z"/>
  <path id="divi-15673" class="st0" d="M299.1,136.3l1.2,0.8v6.2c0,0.2,0.2,0.4,0.4,0.5l2.6,1.1l2.7,3.6c0.1,0.1,0.1,0.1,0.2,0.2
				       l3.3,1.4l-1.6,3.9l-2,1.2l-3.1-2.2c-0.1-0.1-0.2-0.1-0.4-0.1l-4.2,0.2h-1l-0.4-0.6l-1.5-4.4c0-0.1-0.1-0.2-0.2-0.2l-3.6-3.1
				       l-0.3-3.2l0.2-0.1c0.2,0,0.3-0.2,0.4-0.4l2.8-1.1c0.1,0,0.1-0.1,0.2-0.1l3.1-2.9l0,0L299.1,136.3z"/>
  <path id="divi-15522" class="st0" d="M314.4,137.4l0.7,4.7c0,0.1,0,0.2,0.1,0.2l1.4,2.2l-3,1l-2.7,0.2c-0.3,0-0.5,0.2-0.6,0.5
				       l-0.2,3l-1.7-0.7l0.6-4.4l1.8-1.8c0.2-0.2,0.2-0.5,0.1-0.7l-1.2-2l4.3-1.9c0.1,0,0.1-0.1,0.2-0.1L314.4,137.4z"/>
  <path id="divi-15810" class="st0" d="M284.4,138.2l0.8,2.2c0.1,0.1,0.2,0.3,0.3,0.3l-0.6,1.2c-0.1,0.1-0.1,0.3,0,0.5l1.4,3.7
				       l0.9,3.2c0,0-0.1,0-0.1,0.1l-2.7-0.1c-0.1,0-0.2,0-0.2,0l-4.6,1.8l-4.4,1.7l2.4-2.7c0.1-0.1,0.1-0.2,0.2-0.2l1.8-7.3
				       c0-0.2,0-0.3-0.1-0.5l3.3-2.6l0,0L284.4,138.2z"/>
  <path id="divi-15097" class="st0" d="M286.6,141.2l1.8,0.8c0.1,0.1,0.2,0.1,0.4,0.1l1.4-0.3l0.3,3.2c0,0.1,0.1,0.3,0.2,0.4l3.7,3.2
				       l1.4,4.2c0,0.1,0,0.1,0.1,0.2l1.7,2.4v2.6l-2.6,1.2c-0.1,0-0.1,0.1-0.2,0.1l-1.6,1.5c-0.1,0.1-0.2,0.3-0.2,0.5
				       c0,0.2,0.1,0.3,0.3,0.4l1.8,1.3l-0.1,2.5l-4.2,3.4l-0.8-2.8c0,0,0-0.1,0-0.1l-1.4-3.1c0,0,0,0,0-0.1l0.5-4.4c0,0,0-0.1,0-0.1
				       l-0.8-7.7c0.1,0,0.3-0.1,0.4-0.3c0.1-0.1,0.1-0.3,0.1-0.4l-1.2-4.1c0,0,0,0,0-0.1l-1.4-3.5L286.6,141.2z"/>
  <path id="dvi-15244" class="st0" d="M317,145.6c0,0,0.1,0,0.1,0.1l6.8,2.6l2,3.4l-4.5,5.8c-0.1,0.1-0.1,0.1-0.1,0.2l-1.5,5.1
				      c-0.2,0-0.4,0.1-0.5,0.3l-2.9-0.7l-5.1-4.2c0,0-0.1,0-0.1-0.1l-4.3-2l1.8-1.1c0.1-0.1,0.2-0.2,0.2-0.3l1.7-4.2c0.2,0,0.3,0,0.5-0.1
				      s0.2-0.3,0.2-0.4l0.3-3.1l2.3-0.2c0.1,0,0.1,0,0.2,0L317,145.6z"/>
  <path id="divi-15753" class="st0" d="M284.5,150.4l2.5,0.1l0.8,7.7v0.1l-0.4,3.3c-0.2,0-0.3,0.1-0.4,0.3c-0.1,0.2-0.1,0.3,0,0.5l0,0
				       l-3.2,1.5l-3.3-3c-0.1-0.1-0.2-0.1-0.3-0.2l-4.5-0.3l0-0.1v-0.1v0l0.2-4.7c0-0.2-0.1-0.4-0.3-0.5l-1.5-0.8l6-2.2L284.5,150.4z"/>
  <path id="divi-15403" class="st0" d="M302.3,154l2.8,2.1c0,0.2,0.1,0.4,0.3,0.5l5.1,2.4l0.7,0.5l-4.7,1.1c-0.2,0.1-0.4,0.3-0.4,0.5
				       l-0.7,6.1l-2.1,3.8v0l-2.3,3.6c-0.1,0.1-0.1,0.2-0.1,0.3v0.2c-0.1,0-0.3,0-0.4,0.1l-3.7-3.3c-0.1-0.1-0.3-0.2-0.4-0.2l-4.4,0.5
				       l-1.7,0.1l0.3-2c0,0,0,0,0.1,0l5.1-4.1c0.1-0.1,0.2-0.3,0.2-0.4l0.2-3.1c0-0.2-0.1-0.4-0.2-0.5l-1.5-1.1l1-0.9l2.8-1.3
				       c0.2-0.1,0.3-0.3,0.3-0.5v-3.1c0-0.1,0-0.2-0.1-0.3l-0.5-0.7h0.2c0,0,0,0,0,0L302.3,154z"/>
  <path id="divi-15183" class="st0" d="M312.3,160.4l3.4,2.8c0.1,0.1,0.2,0.1,0.2,0.1l2.9,0.8l-1.1,5.1c0,0.1,0,0.2,0,0.2l2.1,8.7
				       c0,0.1,0.1,0.2,0.2,0.3l5.1,4.6c0,0,0.1,0,0.1,0.1l4.7,2.7l-0.7,2.1l-3.9,0.8c-0.2,0-0.4,0.2-0.5,0.5l-0.5,4.4c0,0,0,0,0,0.1
				       l-0.2,5.8v0.1l-2,6.2l-3.8,1.2c-0.2,0.1-0.3,0.2-0.4,0.4l-5.8-5.3c0,0-0.1-0.1-0.1-0.1l-3.4-1.8l-4.7-7.5l0-0.1l-2.3-4.7l1.2-0.2
				       c0.2,0,0.4-0.2,0.5-0.4l1.6-4.8l1.2-2.9c0.1-0.2,0-0.5-0.2-0.7l-3.8-2.9V175l2.2-3.4c0,0,0,0,0,0l2.1-3.9c0-0.1,0.1-0.1,0.1-0.2
				       l0.6-5.8L312.3,160.4z"/>
  <path id="divi-15774" class="st0" d="M275.9,161.7l4.1,0.3l3.4,3.2c0.2,0.2,0.4,0.2,0.7,0.1l3.5-1.7l1.3,2.8l0,0.1l0.8,3
				       c0,0,0,0.1,0,0.1l-0.5,3.3c0,0.1,0,0.1,0,0.2c0,0,0,0,0,0l-1.3,1.7l-3.2-1.3c-0.2-0.1-0.4-0.1-0.6,0.1l-3.8,2.9l-5.5,0.6l-3.3-2
				       c-0.1-0.1-0.3-0.1-0.4-0.1l-2.1,0.5c-0.1,0-0.3,0.1-0.3,0.2l-1.4,2.2l-3-0.6l5.2-5.9l0,0l0,0l5-4.4c0.1-0.1,0.1-0.1,0.2-0.2l1.5-3.1
				       c0-0.1,0.1-0.2,0.1-0.3L275.9,161.7z"/>
  <path id="divi-15572" class="st0" d="M45.1,166.6l0.4,1.8c0,0.2,0.1,0.3,0.2,0.4l5.2,3.2l3.4,4.7l0.1,0.1l2.9,6.1c0,0,0,0,0.1,0.1
				       l3.9,6.2c0.1,0.1,0.2,0.2,0.3,0.2l5.9,2.3c0.1,0,0.2,0,0.3,0l4.6-0.7c0.1,0,0.2-0.1,0.3-0.1l5.3-4.3l2.9,1.4l0.3,11.4
				       c0,0.1,0.1,0.3,0.2,0.4l3.8,3.8v4.5l-1.9,3.1h0c-0.1,0-0.1,0.1-0.2,0.2l-3.3,4.6c0,0,0,0.1-0.1,0.1l-2,4.8c0,0,0,0,0,0l-1,3.3
				       l-0.4-1l0-0.1l-1.1-4c0-0.1-0.1-0.2-0.2-0.3l-3-2.6c-0.2-0.2-0.6-0.2-0.8,0l-2.4,2.5l-4.8,3.2c0,0-0.1,0-0.1,0.1l-3.2,3.2l-2.4-1.1
				       c0,0-0.1,0-0.2-0.1l-5.8-1h-0.1l-1.7-0.5l0-0.1c-0.2-0.2-0.5-0.3-0.7-0.2l-2.3-0.7c-0.2-0.1-0.4,0-0.6,0.1l-2.6,2.2l-5.2,2l-5.2-1.1
				       l-1.8-4.5c0,0,0,0,0,0l0.5-7.2l1.9-2.5l4.5-2.2c0.3-0.1,0.4-0.4,0.3-0.7l-0.8-2.6c0,0,0-0.1-0.1-0.1L36,201l1.6-2.2l4.5-0.2
				       c0.3,0,0.5-0.2,0.5-0.5l0.5-3.4c0-0.1,0-0.2-0.1-0.3l-1.6-3.2v0c0,0,0-0.1,0.1-0.2l0.6-4.6c0-0.2,0-0.4-0.2-0.5l-3.6-3.1l1.5-6.5
				       l2.9-5.7l0-0.1L45.1,166.6z"/>
  <path id="divi-15368" class="st0" d="M296.4,172.8l4.8,4.4c0.2,0.2,0.5,0.2,0.8,0h0l3,2.2l-1,2.6c0,0,0,0,0,0l-1.5,4.4l-1.5,0.2
				       l-1.1-2.2c-0.1-0.2-0.3-0.3-0.5-0.3l-3.2-0.2l-3.8-3.1c-0.1,0-0.1-0.1-0.2-0.1l-3.2-1.2c0,0-0.1,0-0.1,0l0.2-4.2c0,0,0,0,0-0.1
				       l1.3-1.8l1.9-0.1c0,0,0,0,0,0L296.4,172.8z"/>
  <path id="divi-15720" class="st0" d="M284.6,174.7l3.2,1.3l-0.1,4.3L286,182c-0.1,0.1-0.2,0.3-0.2,0.4l0.1,4.5
				       c-0.2,0-0.3,0.1-0.5,0.2l-2.8,0.6l-3.7-3.1c-0.1-0.1-0.2-0.1-0.3-0.1h-3.3c0,0,0,0,0,0l-5.4,0.2c-0.1,0-0.2,0-0.2,0.1l-2.9,1.3
				       c-0.1,0-0.1,0.1-0.2,0.1l-3.7-7.2c0,0,0,0,0-0.1l0.4-0.5l4,0.8c0.2,0.1,0.5,0,0.6-0.2l1.5-2.4l1.7-0.4l3.2,2
				       c0.1,0.1,0.2,0.1,0.4,0.1l5.9-0.7c0.1,0,0.2,0,0.3-0.1L284.6,174.7z"/>
  <path id="divi-15839" class="st0" d="M262.1,179.7l3.6,7.1l0,0.1l0.2,0.8c0,0,0,0,0,0v0c0,0,0,0,0,0c0,0,0,0.1,0,0.1
				       c0,0.1,0,0.1,0.1,0.2l0.5,1.9l-1.4,4.2c0,0,0,0,0,0l-0.7-0.1c-0.2,0-0.3,0-0.4,0.1l-3.2,2.6l-0.9-3.7c0-0.1-0.1-0.2-0.2-0.3
				       l-5.4-4.6l0.1-0.1c0.1-0.1,0.2-0.2,0.2-0.3l0.3-1.5l0,0l3.2-3.4l2.9-2.8c0.2,0.1,0.5,0,0.7-0.2L262.1,179.7z"/>
  <path id="divi-15755" class="st0" d="M288.8,180.7l2.9,1l3.8,3.2c0.1,0.1,0.2,0.1,0.3,0.1l3.1,0.1l1.2,2.3c0.1,0.2,0.3,0.3,0.5,0.3
				       l2.5,5.1c0,0,0,0,0,0.1l4.7,7.7c0.1,0.1,0.1,0.2,0.2,0.2l3.6,2l5.6,5.2l-4,3c-0.1,0.1-0.2,0.2-0.2,0.3l-0.3,1.1
				       c-0.1,0.1-0.2,0.3-0.2,0.5l-0.4,1.2l-2.9,3.5c0,0,0,0,0,0l-2.3,3.6L301,223c0,0-0.1,0-0.1,0l-5.2,3.1l-5.4,3l-0.6-1.1l1.3-1.5
				       c0.1-0.1,0.1-0.2,0.1-0.2l0.8-3.8c0-0.1,0-0.3-0.1-0.4l-1.1-1.7V218v0l0.3-5.8c0-0.1,0-0.1,0-0.2l-1-3.8c-0.1-0.3-0.4-0.5-0.7-0.4
				       l0.2-0.3c0-0.1,0.1-0.2,0.1-0.2l0.2-4.1l0.9-2.6c0.1-0.2,0-0.5-0.2-0.7l-3.1-2.3l1.7-4.5c0.1-0.2,0-0.4-0.1-0.5l-2.6-3.8
				       c-0.1-0.1-0.1-0.2-0.2-0.2l0.2-0.5l0.3-0.1c0.3-0.1,0.5-0.3,0.5-0.6l-0.2-4.8l1.6-1.7C288.7,180.9,288.8,180.8,288.8,180.7z"/>
  <path id="divi-15686" class="st0" d="M180.3,182.7l3.3,3c0.1,0.1,0.2,0.1,0.2,0.2l1.4,0.3l-0.6,1.4v0l-1.7,2c0,0-0.1,0.1-0.1,0.2
				       l-1.4,4l-1.9,0.8l-2.6-0.7l-2.8-2.9l0.5-1.1c0.2,0.1,0.5,0,0.6-0.2l2.6-3.4c0,0,0,0,0,0L180.3,182.7z"/>
  <path id="divi-15723" class="st0" d="M275.3,185.6h3.1l3.7,3.1c0.1,0.1,0.3,0.2,0.5,0.1l2.4-0.5l-1,3l-3.4,2.7l-1.6,0.1l0.1-3.1
				       c0-0.1,0-0.2-0.1-0.3l-1.8-2.8c-0.1-0.1-0.2-0.2-0.4-0.2l-3.1-0.5c0,0-0.1,0-0.1,0h-6.8l-0.1-0.2c0.1,0,0.2,0,0.3,0l2.8-1.2
				       L275.3,185.6z"/>
  <path id="divi-15185" class="st0" d="M186.3,186.5l2.2,0.6l1.7,2.8c0.1,0.2,0.3,0.3,0.5,0.3h0.1l-0.1,0.3c0,0.2,0,0.3,0.2,0.5
				       l3.4,3.6l0.2,6l-1.7,3.1c0,0,0,0,0,0l-1.8,3.9l-2.4,1.7h0c-0.1,0-0.2,0-0.3,0.1l-2.8-2.3l0-0.1l-1.9-2.8l-0.8-4.8
				       c0-0.2-0.1-0.4-0.3-0.4l-2.4-1.1l0.3-2.3l1.8-0.8c0.1-0.1,0.3-0.2,0.3-0.3l1.4-4.2l1.7-2c0,0,0.1-0.1,0.1-0.1L186.3,186.5z"/>
  <path id="divi-15537" class="st0" d="M267.3,188.3h6.4l2.8,0.4l1.6,2.4l-0.2,3.6c0,0.2,0.1,0.3,0.2,0.4s0.3,0.2,0.4,0.2h0.1
				       l-2.2,1.4l-0.1,0l-0.9,0.5c-0.1-0.3-0.4-0.5-0.7-0.4s-0.5,0.4-0.4,0.7l0.1,0.2l-1.2,0.6c0,0-0.1,0.1-0.1,0.1l-2.9,2.5l-1.8-1.5
				       c0.2-0.1,0.4-0.3,0.4-0.6l-0.2-3.6c0-0.3-0.2-0.5-0.5-0.6l-1.8-0.2l1.4-4.2c0-0.1,0-0.2,0-0.3L267.3,188.3z"/>
  <path id="divi-15087" class="st0" d="M253.3,189l5.5,4.7l1.1,4.4c0,0.2,0.2,0.4,0.4,0.4c0.2,0.1,0.4,0,0.6-0.1l3.7-3l2.9,0.4
				       l0.1,2.6l-0.3,0.1c-0.1-0.1-0.3-0.1-0.4-0.1s-0.3,0.1-0.4,0.2l-1.6,0.2c-0.1,0-0.1,0-0.2,0.1l-4.8,2.1l-5.7,1.1v-1
				       c0-0.2-0.1-0.5-0.4-0.6l-2.9-1.1l-1.8-2.3l-0.2-4.4c0,0,0,0,0-0.1c0,0,0,0,0,0l2.7-2.3l0,0L253.3,189z"/>
  <path id="divi-15757" class="st0" d="M285.8,189.9l2.1,3l-1.7,4.6c-0.1,0.2,0,0.5,0.2,0.7l3.1,2.3l-0.8,2.2c0,0.1,0,0.1,0,0.2
				       l-0.2,4.1l-2.8,5.6l-1.7,1.1l-3.2-1.7l-1.1-4.7l-0.2-2.6c0-0.2-0.1-0.3-0.2-0.4l-2.9-2.3l-0.8-3.6l1.3-0.6c0,0,0,0,0.1,0l3.1-2
				       c0.2-0.1,0.3-0.3,0.3-0.5l0.6,0c0.1,0,0.2-0.1,0.3-0.1l3.8-2.9c0.1-0.1,0.2-0.2,0.2-0.3L285.8,189.9z"/>
  <path id="divi-15664" class="st0" d="M173.7,192.2l2.5,2.7c0.1,0.1,0.2,0.1,0.2,0.2l2.7,0.7l-0.2,1.5c0,0,0,0,0,0l-1,1.4l-3.1,2
				       l-2.4,1.2c-0.2,0-0.4,0-0.5,0.2l-5.1,0.1l0.3-2.2c0,0,0,0,0,0l0.6-4.3l0.1,0c0.1,0,0.2,0,0.2,0l2.6-0.7c0.1,0,0.2-0.1,0.3-0.1
				       L173.7,192.2C173.6,192.2,173.7,192.2,173.7,192.2z"/>
  <path id="divi-15162" class="st0" d="M247.8,193.5l0.1,3.8c0,0.1,0,0.2,0.1,0.3l2,2.6c0.1,0.1,0.2,0.1,0.2,0.2l2.7,1v2.8l-2.4,2.3
				       l-5.3-0.2l-2.7-1.9l-2.3-5.5h0.2c0.1,0,0.2,0,0.3-0.1l5.9-4.4c0,0,0,0,0,0L247.8,193.5z"/>
  <path id="divi-15238" class="st0" d="M224.8,196.5l2.5,2.3c0.1,0.1,0.2,0.2,0.4,0.2h6.9l1,1l3.1,2.9l0.5,5c0,0,0,0.1,0,0.1l1.1,3.3
				       c0,0.1,0.1,0.2,0.2,0.2l0.8,0.7l0.6,6c0,0.2,0.2,0.4,0.4,0.4s0.4,0,0.6-0.1l2.5-2.6l2.9,3.3l0.2,1.6l-7.3-0.3
				       c-0.2,0-0.4,0.1-0.5,0.2l-2,2.5l-3.1,1.1l-2.6-0.8l-1.2-7.2c0-0.2-0.1-0.3-0.3-0.4l-2.6-1.4V210c0-0.2-0.1-0.3-0.2-0.4l-1.9-1.7
				       l-0.9-2.8c-0.1-0.1-0.2-0.2-0.3-0.3l-2.8-1.6l-2.3-3.8l1.5-1.1h0.1c0.1,0,0.1-0.1,0.2-0.1L224.8,196.5
				       C224.7,196.5,224.7,196.5,224.8,196.5z"/>
  <path id="divi-15516" class="st0" d="M220.1,198.1c0,0,0.1,0,0.1,0l-0.8,0.6c-0.2,0.2-0.3,0.5-0.1,0.8l2.6,4.4
				       c0.1,0.1,0.1,0.1,0.2,0.2l2.8,1.6l0.9,2.7c0,0.1,0.1,0.2,0.2,0.2l1.8,1.6v4.5c0,0.2,0.1,0.4,0.3,0.5l2.7,1.5l1.2,7.2
				       c0,0.2,0.2,0.4,0.4,0.4l2.1,0.7l-1.2,1.8c-0.1,0.1-0.1,0.2-0.1,0.3l0.3,5.2c0,0.1,0.1,0.2,0.2,0.3l1.2,1.4l-0.5,1.5l-2.7,2.2
				       l-0.8-0.4l-0.5-0.6c-0.2-0.2-0.5-0.3-0.8-0.1l-4.3-3l-2.2-2.8c0.1-0.2,0.1-0.4,0-0.5l-1.2-2.5v-4.6l2.4-2.8l0,0l2.2-1.6
				       c0.2-0.2,0.3-0.4,0.2-0.7l-1.5-3.6c-0.1-0.2-0.3-0.4-0.6-0.3l-5.7,0.7c-0.1,0-0.3,0.1-0.4,0.2l-1.7,2.1l-4.5,0.4
				       c-0.2,0-0.3,0.1-0.4,0.2l-0.8,1.1l-1.5-1.4l-1.1-2.4c0-0.1-0.1-0.2-0.2-0.2l-2.2-1.4l3.9-3.9l3.3-3.2c0.1-0.1,0.1-0.1,0.1-0.2l2-5.1
				       c0-0.1,0-0.1,0-0.2l0.2-2.6L220.1,198.1z"/>
  <path id="divi-15816" class="st0" d="M179.3,198.8l2.4,1.1l0.8,4.6c0,0.1,0,0.2,0.1,0.2l1.9,2.9c0,0,0.1,0.1,0.1,0.1l2.8,2.3
				       l-2.9,2.8l-0.1,0l-2.2,1.1l-3.2-2.8c0,0-0.1,0-0.1-0.1l-4-2.3l-0.2-4.6c0-0.2-0.1-0.3-0.2-0.4l-1.3-1.2l2-1c0,0,0,0,0.1,0l3.3-2.1
				       c0.1,0,0.1-0.1,0.2-0.2L179.3,198.8z"/>
  <path id="divi-15790" class="st0" d="M274.5,198.9l0.7,3.5c0,0.1,0.1,0.3,0.2,0.3l2.9,2.3l0.2,2.4c0,0,0,0.1,0,0.1l1.2,5.1
				       c0,0.2,0.1,0.3,0.3,0.4l3.8,2c0.2,0.1,0.4,0.1,0.6,0l2.1-1.3c0.1-0.1,0.2-0.1,0.2-0.2l2.4-4.8l0.9,3.6v0l-0.3,5.7c0,0,0,0,0,0v1.2
				       c0,0-0.1,0-0.1,0l-2.5,0.2c-0.3,0-0.5,0.2-0.5,0.5l-0.2,1.4l-2.5-1.4l0,0l-2.1-2.7c-0.1-0.2-0.4-0.3-0.7-0.2l-3.8,1.3
				       c-0.1,0.1-0.2,0.2-0.3,0.3l-1,2l-2.4-4.3c-0.1-0.2-0.3-0.3-0.5-0.3l-4.5-0.3l-2.5-3.8l1-1c0.1-0.1,0.1-0.1,0.1-0.2l1.3-3.1l1.8-2.7
				       c0.1-0.1,0.1-0.2,0.1-0.2l0.3-2.7l3.1-2.6L274.5,198.9z"/>
  <path id="divi-15693" class="st0" d="M236.2,198.9h2.9c0,0.1,0,0.2,0,0.3l2.5,5.7c0,0.1,0.1,0.2,0.2,0.2l2.9,2.1
				       c0.1,0.1,0.2,0.1,0.3,0.1l4.4,0.2l-0.8,1.9l-3.2,4.9c0,0,0,0,0,0.1c0,0,0,0,0,0c-0.1,0-0.3,0.1-0.4,0.2l-2.1,2.2l-0.5-5
				       c0-0.1-0.1-0.3-0.2-0.4l-0.9-0.7l-1-3.1l0-0.1l-0.5-5.1c0-0.1-0.1-0.3-0.2-0.3l-3.2-3.1L236.2,198.9z"/>
  <path id="divi-15092" class="st0" d="M266.8,199.7l2.6,2.2l-0.3,2.5l-1.7,2.7c0,0,0,0,0,0.1l-1.3,3l-1.1,1.1c-0.1,0-0.1,0.1-0.2,0.2
				       v0h0c0,0,0,0,0,0l-4.4,1.7l-4.1-1.3l-0.9-2.8c0,0,0-0.1-0.1-0.1l-2-3.4l0.6-0.6c0.1-0.1,0.2-0.3,0.2-0.4v-1.2c0,0,0,0,0,0l5.9-1.2
				       c0,0,0.1,0,0.1,0l4.8-2.1h0L266.8,199.7z"/>
  <path id="divi-15469" class="st0" d="M172.2,203.2c0,0,0.1,0,0.1,0l1.4,1.3l0.2,4.7c0,0.2,0.1,0.4,0.3,0.5l4.2,2.4l0.1,0.1l3.3,3.1
				       c0.2,0.2,0.4,0.2,0.7,0.1l1.2-0.6l0.4,2.6l-2.7,0.9l-3.2-2.1c-0.2-0.1-0.3-0.1-0.5-0.1c-0.2,0.1-0.3,0.2-0.4,0.4l-0.7,1.9
				       c-0.1,0.2,0,0.4,0.1,0.6l1.7,2l-1.1,1.8c-0.3-0.1-0.6,0.1-0.7,0.4l-2.7-0.3h0l-2.5-1.3l-1.3-1.8c-0.1-0.1-0.2-0.2-0.4-0.2
				       c-0.2,0-0.3,0-0.4,0.1l-1.9,1.7h0c0,0,0,0,0,0c-0.1,0-0.2,0.1-0.2,0.2c0,0,0,0.1-0.1,0.1l-0.2,0.1h-1.8l0.7-2.7l1.3-5.6
				       c0-0.1,0-0.1,0-0.2l-0.3-4.2c0-0.2-0.1-0.3-0.2-0.4l-2.4-1.6l1-1.6l0.1-0.1l1.6-1.8L172.2,203.2z"/>
  <path id="divi-15276" class="st0" d="M252.5,206.2l1.8,3.1l1,3.1c0.1,0.2,0.2,0.3,0.3,0.3v4.3v0.1l-0.5,3.7l-0.8,0.9l-4.7-1
				       l-0.2-1.9c0-0.1-0.1-0.2-0.1-0.3l-3-3.4c0,0,0.1-0.1,0.1-0.1l3.3-4.9c0,0,0-0.1,0-0.1l1-2.3c0,0,0-0.1,0-0.1h0.1
				       c0.2,0,0.3-0.1,0.4-0.2L252.5,206.2z"/>
  <path id="divi-15507" class="st0" d="M92.1,208.4c0,0-0.1,0.1-0.1,0.1l-3.6,5.2c-0.1,0.2-0.4,0.3-0.7,0.2l-4.2-1.5l-2.9,4l0,0.1l0,0
				       l-1.9,4.6l0,0.1l-0.5,1.7c0.2,0.5,0.3,0.7,0.6,1.6c0.5,1.5,1.1,3.4,1.3,4.9c0.4,2.6,0.6,7.3,0.7,9.3l0.3-0.2
				       c0.1-0.1,0.3-0.2,0.5-0.2l3.2,0.5c0.2,0,0.3,0.1,0.4,0.3l1.5,2.4c0.2,0.2,0.1,0.6-0.1,0.8l-2.1,1.8l1.7,1.1c0,0,0.1,0.1,0.1,0.1
				       l1.4,1.7l2.3-0.5l0.1,0l1.3-0.8c0.1-0.1,0.2-0.1,0.2-0.1l1.8-0.1l-0.4-0.4c-0.1-0.1-0.1-0.2-0.2-0.3l-0.8-5.7c0-0.2,0.1-0.4,0.3-0.6
				       l2.2-1.4l-0.9-4.2l-1.3-5.1c0-0.2,0-0.4,0.1-0.5c0.1-0.1,0.3-0.2,0.5-0.2l3.9,0.3l3.8-2.1c0,0,0.1,0,0.2-0.1l0.2-2.7
				       c0-0.1,0-0.2,0.1-0.2l2-4.2l-0.1-2.4c0-0.1,0-0.3,0.1-0.4l-1.2-3.9l-4.9-1.2c0,0,0,0-0.1,0L92.1,208.4z"/>
  <path id="divi-15215" class="st0" d="M265.2,212.5l2,3.1l-1.5,1.5c0,0-0.1,0.1-0.1,0.1l-1.8,3.4c0,0,0,0,0,0l-1.5,3.6l-2.8,1.2
				       l-0.3-1.9c0-0.1-0.1-0.3-0.2-0.3l-2.7-2c0,0,0,0,0-0.1l0-0.3l3.6-0.8c0.1,0,0.2-0.1,0.3-0.2l3.2-3.4c0.1-0.1,0.1-0.2,0.2-0.2
				       l0.8-3.3L265.2,212.5z"/>
  <path id="divi-15114" class="st0" d="M256.8,213.2l3.5,1.1c0.1,0,0.3,0,0.4,0l2.4-0.9l-0.6,2.4l-3,3.2l-3,0.7l0.3-2.4
				       c0,0,0-0.1,0-0.1V213.2z"/>
  <path id="divi-15550" class="st0" d="M313.5,213.4l7.3,3.5v1.5v0.1l-0.6,4.4l-4.1,0.4c-0.2,0-0.3,0.1-0.4,0.2
				       c-0.1,0.1-0.1,0.3-0.1,0.5l1.2,4.2c0,0,0,0,0,0.1l1.4,4.1l-0.3,3.1l-1.1,0.9l-2.6-2c-0.1-0.1-0.2-0.1-0.3-0.1h-3.3
				       c-0.3,0-0.5,0.2-0.6,0.5l-0.1,3.2l-2.4,0.7c-0.1,0-0.2,0.1-0.2,0.2l-3.2,3.4l0,0l-2.8,1.5l-0.4-2.8l1.5-2.4c0.2-0.3,0.1-0.6-0.2-0.8
				       l-2.1-1.6c0,0,0,0,0,0l-2.6-1.8c-0.1-0.1-0.2-0.1-0.3-0.1l-0.1-5.3c0-0.1,0-0.2-0.1-0.3l-1-1.2l0.3-0.2c0,0,0,0,0,0l5.1-3h0l6-1.8
				       c0.1,0,0.2-0.1,0.3-0.2l2.4-3.7l0,0l2.9-3.6c0.1-0.1,0.1-0.1,0.1-0.2L313.5,213.4z"/>
  <path id="divi-15763" class="st0" d="M204.7,213.9l2.9,1.9l1.1,2.3c0,0.1,0.1,0.1,0.1,0.2l2.1,1.9c0.1,0.1,0.3,0.2,0.5,0.2
				       s0.3-0.1,0.4-0.2l1-1.4l4.5-0.5c0.1,0,0.3-0.1,0.4-0.2l1.7-2.1l5-0.6l1.2,2.8l-1.9,1.3c0,0-0.1,0.1-0.1,0.1l-2.6,3.1
				       c-0.1,0.1-0.1,0.2-0.1,0.4v4.9c0,0.1,0,0.2,0.1,0.3l0.9,1.9l-2.7,0.3l-0.6-1.5c-0.1-0.2-0.2-0.3-0.4-0.3s-0.3,0-0.5,0.1l-2.3,1.5
				       l-3.6,2.3l-2.7,0.2c-0.1-0.2-0.3-0.4-0.6-0.4s-0.5,0.2-0.5,0.4l-1.1,0.1l-3.8-2.3l-3.2-4.6l0,0l-1.7-5.6c-0.1-0.2-0.2-0.3-0.4-0.4
				       l-1.9-0.5l0.4-0.9l4.8-4.3L204.7,213.9z"/>
  <path id="divi-15296" class="st0" d="M267.9,216.6c0.1,0.1,0.2,0.2,0.4,0.2l4.4,0.3l2.8,5c0.1,0.2,0.3,0.3,0.5,0.3s0.4-0.1,0.5-0.3
				       l1.4-2.7l3.2-1.1l1.9,2.5c0,0.1,0.1,0.1,0.2,0.2l3.4,1.9c0.2,0.1,0.4,0.1,0.5,0c0.2-0.1,0.3-0.2,0.3-0.4l0.3-1.8l2-0.2c0,0,0,0,0,0
				       v0.2c0,0.1,0,0.2,0.1,0.3l1,1.6l-0.2,0.8l-6.3-0.4c-0.2,0-0.4,0.1-0.5,0.2l-1.1,1.6l-11.7,0.6l-0.5-0.6c0,0,0,0,0-0.1
				       c0-0.2-0.2-0.3-0.3-0.4c0,0,0,0,0,0l-0.8-0.9c-0.1-0.1-0.2-0.2-0.3-0.2l-4.3-1.2l0.2-0.6l0,0l1.8-3.3l0-0.1L267.9,216.6z"/>
  <path id="divi-15051" class="st0" d="M178.1,217.4l2.8,1.9c0.1,0.1,0.3,0.1,0.5,0.1l2.8-0.9l0,0.2c0,0.1,0.1,0.2,0.2,0.3l4.1,4.8
				       c0,0,0,0,0.1,0.1l2.5,2.1c0.1,0.1,0.3,0.2,0.5,0.1l0.5,4.1c0,0.1,0.1,0.3,0.2,0.4l2.6,2.3l0.8,5.1l-2.4-0.6l-0.8-3.9
				       c0-0.2-0.2-0.3-0.3-0.4l-2.4-1c-0.1-0.1-0.3-0.1-0.4,0l-2.6,1l-2.2-1.9c-0.1-0.1-0.2-0.1-0.3-0.1l-6.3-0.2h0v0v-6.5
				       c0,0,0.1-0.1,0.1-0.1l1.8-2.9c0.1-0.2,0.1-0.5-0.1-0.7l-1.8-2L178.1,217.4z"/>
  <path id="divi-15533" class="st0" d="M322,217.7l9.2,2.7l1.9,1.8l3.1,6.5c0,0.1,0.1,0.1,0.1,0.2l5.2,5.1l-0.4,1.5l-3.4,2
				       c-0.1,0.1-0.2,0.1-0.2,0.2l-1.6,3.1l-2.6,5.1c0,0.1-0.1,0.2-0.1,0.3l0.3,4.7c-0.3,0-0.5,0.1-0.6,0.4s0.1,0.6,0.3,0.7l0.2,0.1l-0.8,5
				       l-6.5-2.3l-4.2-7.3c-0.1-0.2-0.2-0.3-0.4-0.3c-0.2,0-0.3,0-0.5,0.1l-4.4,3.4c-0.1,0.1-0.1,0.1-0.2,0.2l-2.2,4.3l-2.4-0.9l-3.3-4.8
				       c0,0-0.1-0.1-0.1-0.1l-3.6-3.1l0,0l-1.8-1.8c-0.1-0.1-0.3-0.2-0.5-0.2l2-1c0.1,0,0.1-0.1,0.2-0.1l3.2-3.3l2.6-0.8
				       c0.2-0.1,0.4-0.3,0.4-0.5l0.2-3.1h2.5l2.8,2.2c0.2,0.2,0.5,0.2,0.7,0l1.7-1.3c0.1-0.1,0.2-0.2,0.2-0.4l0.3-3.4c0-0.1,0-0.1,0-0.2
				       l-1.5-4.2v0l-1-3.6l3.9-0.4c0.3,0,0.5-0.2,0.5-0.5l0.7-4.9c0,0,0-0.1,0-0.1V217.7z"/>
  <path id="divi-15531" class="st0" d="M104,219.1l5.7,0.2l2.7,1.7l0.1,0.1l2.4,2.1l1.2,3.6v0l-0.8,4.2c0,0.1,0,0.3,0.1,0.4l1.3,2.6
				       c0.1,0.2,0.3,0.3,0.5,0.3l2.4,0.2l-0.2,3.7c0,0.2,0.1,0.3,0.2,0.4l3.6,3.6c0,0,0.1,0,0.1,0.1l2.8,1.6c-0.1,0.1-0.2,0.1-0.2,0.2
				       l-1.1,2.2l-2.8,2.6l-1.6,0.5l-1.7-2.2c0,0,0,0-0.1,0l-2.1-2.1c-0.1-0.1-0.3-0.2-0.4-0.2h-5.9l0.1-3.3c0-0.3-0.2-0.5-0.5-0.6l-3-0.7
				       l1.8-3.1c0,0,0,0,0-0.1l1.2-2.6c0.1-0.2,0.1-0.3,0-0.5l-1.3-2.8c0-0.1-0.1-0.2-0.2-0.2l-3.4-2.3c0,0,0,0-0.1,0l-2.8-1.3l0.3-4.8
				       L104,219.1z"/>
  <path id="divi-15204" class="st0" d="M195.2,220.5l1.8,0.4l1.7,5.4c0,0.1,0,0.1,0.1,0.2l3.3,4.8c0.1,0.1,0.1,0.1,0.2,0.2l4.1,2.5
				       c0.1,0.1,0.2,0.1,0.3,0.1l1.1-0.1l-0.2,1.9c0,0.1,0,0.1,0,0.2l0.3,2.6c-0.1,0-0.3,0.1-0.4,0.2l-4,5.1l-2.8,1.2
				       c-0.1,0.1-0.2,0.2-0.3,0.3l-0.8,1.9c0,0,0,0,0,0c0,0-0.1,0-0.1,0.1l-2.3-2.6l-1.4-3.2l1.1-3.2c0-0.1,0-0.2,0-0.3l-1-5.9
				       c0-0.1-0.1-0.3-0.2-0.3l-2.6-2.3l-0.5-4.9l2.3-3.2c0,0,0-0.1,0.1-0.2L195.2,220.5z"/>
  <path id="divi-15293" class="st0" d="M169.5,220.8l1.1,1.5c0.1,0.1,0.1,0.1,0.2,0.2l2.6,1.3c0,0,0.1,0,0.2,0.1l2.9,0.4v6.5l-1.4,0.5
				       c-0.2,0.1-0.3,0.2-0.4,0.4l-0.6,3.1l-4.8,0.2l0.8-3.7c0-0.2,0-0.4-0.1-0.5l-1.3-1.6l-0.6-7.1L169.5,220.8z"/>
  <path id="divi-15806" class="st0" d="M241.4,221.7l1.7,0.1l1.8,3.4c0,0,0,0.1,0.1,0.1l2.3,2.6c0.1,0.1,0.3,0.2,0.5,0.2h0v2.1
				       l-1.2,1.9l-2.5-0.8c0,0-0.1,0-0.1,0l-3.1-0.3c-0.2,0-0.3,0-0.4,0.1l-2.2,1.8h-0.1l-2.4,0.7h0l-1.2-1.4l-0.3-4.8l1.4-1.9
				       c0.1,0,0.1,0,0.2,0l3.4-1.2c0.1,0,0.2-0.1,0.3-0.2L241.4,221.7z"/>
  <path id="divi-15491" class="st0" d="M244.5,221.8l4.7,0.2c0.1,0,0.2,0,0.3-0.1l5,1.1c0.2,0,0.4,0,0.6-0.2l0.6-0.7l2.6,1.9l0.2,1.4
				       l-2.9,0.3c0,0,0,0-0.1,0l-3.4,0.8l-4.1,0.3l-2-2.2l0,0L244.5,221.8z"/>
  <path id="divi-15696" class="st0" d="M164.9,222.8h2.1l0.6,6.5c0,0.1,0.1,0.2,0.1,0.3l1.3,1.6l-0.8,3.9l-1.8,1l-2.2-2.3
				       c-0.1-0.1-0.3-0.2-0.4-0.2H160c0-0.1-0.1-0.1-0.1-0.2l0.9-2.4c0,0,0,0,0-0.1l2.1-2.4c0.1-0.1,0.1-0.1,0.1-0.2L164.9,222.8z"/>
  <path id="divi-15820" class="st0" d="M264.2,222.8l4.2,1.2l0.4,0.5l-2.1,1.5c-0.1,0.1-0.2,0.2-0.2,0.3l-0.4,1.9l-1.2,1l-3.8-1.1
				       c-0.1,0-0.1,0-0.2,0h-1.2l-0.1-1.2c0.2-0.1,0.4-0.2,0.4-0.4l3.1-1.4c0.1-0.1,0.2-0.2,0.3-0.3L264.2,222.8z"/>
  <path id="divi-15632" class="st0" d="M153.7,224l2.9,3.1l3.2,3.6l-1.2,3.1l-3.3,1.9c-0.2,0.1-0.3,0.3-0.3,0.5v3.5l-1.7,1.7l-3.8-0.9
				       c0,0-0.1,0-0.1,0l-4.9-0.3l-6.6-0.5l-2.4-4.1l0,0v0l-1.1-2.6c-0.1-0.2-0.2-0.3-0.4-0.3c-0.2,0-0.4,0-0.5,0.1l-2.5,1.9l-1.7-0.7
				       l2.2-2.8l0.6,0.3c0.2,0.1,0.5,0,0.7-0.2l2.4-2.9l5.7-0.2c0.1,0,0.2,0,0.3-0.1l2.6-1.7c0,0,0,0,0.1,0l1.5-1.2h0L153.7,224z"/>
  <path id="divi-15464" class="st0" d="M284.4,224l5.9,0.4l-0.3,1.5l-1.5,1.6c-0.2,0.2-0.2,0.5-0.1,0.7l1.2,1.9
				       c0.2,0.3,0.5,0.4,0.8,0.2l4.5-2.5l1,1.2l0.2,7.8l-2,3.4c-0.1,0.1-0.1,0.2-0.1,0.3v2.5l-2-0.2l-4.1-4.9c-0.1-0.1-0.2-0.2-0.3-0.2
				       l-4.8-1.5c-0.2,0-0.3,0-0.5,0.1c-0.1,0.1-0.2,0.2-0.3,0.4l-0.7,3.1v0l-1.6,3.4l-3.9,1.4l-1.4-3.1c-0.1-0.1-0.1-0.2-0.2-0.2l-4.2-2.3
				       l0.4-3.8c0-0.1,0-0.2-0.1-0.3l-1.6-2.8c0-0.1-0.1-0.1-0.2-0.2l-2.8-1.9l1.2-0.9c0.1-0.1,0.2-0.2,0.2-0.3l0.4-1.9l2-1.4l0.1,0
				       l0.6,0.8c0.1,0.1,0.3,0.2,0.5,0.2l12.2-0.7c0.2,0,0.3-0.1,0.4-0.2L284.4,224z"/>
  <path id="divi-15681" class="st0" d="M100.8,226.6l-0.1,1.2c0,0.2,0.1,0.5,0.3,0.6l3,1.4l0.1,0l3.2,2.2l1.2,2.4l-1,2.3l0,0.1
				       l-2.1,3.7c0,0.1-0.1,0.2-0.1,0.3l-1.9,2.4c-0.3,0-0.5,0.2-0.5,0.5l0,0.2l0,0c-0.1,0.2-0.2,0.4-0.1,0.6c0,0,0,0,0,0l-0.2,1.1
				       l-4.4-0.9c-0.1,0-0.2,0-0.3,0l-2.3,1c0,0,0,0,0,0c-0.1-0.1-0.2-0.2-0.3-0.2h0l-1.1-1l-0.7-5.2l2.3-1.4c0.2-0.1,0.3-0.4,0.2-0.6
				       l-1-4.6c0,0,0,0,0,0l-1.1-4.3l3.2,0.3c0.1,0,0.2,0,0.3-0.1L100.8,226.6z"/>
  <path id="divi-15759" class="st0" d="M258.3,226.6l0.1,2.2c0,0.2,0.2,0.4,0.3,0.5c0,0.1,0,0.1,0,0.2l0.2,4.9c0,0.1,0,0.2,0.1,0.3
				       l3.3,4.2c0,0,0.1,0.1,0.1,0.1l4.1,2.9c0.2,0.2,0.5,0.2,0.7,0l2.3-1.9l2,1.1l-1.2,1l0,0l-2.9,1.9c-0.1,0.1-0.2,0.2-0.2,0.4l-0.4,3.1
				       l-5.3-2c0,0,0,0-0.1,0l-3.2-1c-0.1,0-0.1,0-0.2,0l-5.1-0.2l-5.3-3v-0.1c0,0,0-0.1,0-0.1l0.2-4.6l3.4-2.6c0.2-0.1,0.3-0.4,0.2-0.6
				       c-0.1-0.2-0.2-0.4-0.5-0.4l-3-0.7l1.1-1.8c0.1-0.1,0.1-0.2,0.1-0.3v-2.3l3.2-0.2c0,0,0.1,0,0.1,0l3.4-0.8L258.3,226.6z"/>
  <path id="divi-15832" class="st0" d="M117.1,227.3l2.4,0.4c0.1,0.3,0.3,0.5,0.6,0.4l6.3-0.2l2.3,1.7c0,0,0,0,0.1,0.1l1.6,0.8l-1.6,2
				       c-0.2,0-0.4,0-0.5,0.1l-3-0.3c-0.1,0-0.1,0-0.2,0l-3.4,0.9h-0.1l-4.2-0.3l-1.1-2.2L117.1,227.3z"/>
  <path id="divi-15466" class="st0" d="M259.9,229.3h0.9h0l3.3,0.9l0,0c0,0,0.1,0,0.1,0.1l3.5,2.4l1.5,2.5l-0.4,4l-1.9,1.5l-3.7-2.7
				       l-3.1-4L259.9,229.3C259.9,229.4,259.9,229.4,259.9,229.3z"/>
  <path id="divi-15837" class="st0" d="M217.5,229.9l0.6,1.3c0.1,0.2,0.3,0.4,0.6,0.3l3.2-0.4l2.5,3.1c0,0,0.1,0.1,0.1,0.1l4.6,3.2
				       c0,0,0.1,0,0.1,0.1l0.4,0.2l0.9,3.7c0,0.1,0.1,0.2,0.2,0.2c0,0,0,0,0,0c-0.3,0.1-0.4,0.5-0.3,0.8l-0.2,0.5l-9.3-0.2l-1.9-2.7
				       c-0.2-0.2-0.5-0.3-0.8-0.1l-1.5,1c0,0,0,0,0,0l-1.9,1.5l-3.6-0.6l-2.1-2.8l-0.5-3.5v-0.1v-0.1l0.2-1.9l3-0.2c0.1,0,0.2,0,0.3-0.1
				       l3.8-2.5L217.5,229.9z"/>
  <path id="divi-15407" class="st0" d="M176.9,231.8C177,231.8,177,231.8,176.9,231.8c0.1,0,0.1,0,0.2,0l6.7,0.2l2.1,1.8
				       c0,0.1-0.1,0.1-0.1,0.2v1.9h-2.7c-0.1,0-0.1,0-0.2,0l-3.3,1c-0.2,0.1-0.4,0.3-0.4,0.5l-0.2,4l-1.2,3.3l-4.2,1.8l-4.8-3.6l0-0.1
				       c0-0.2,0-0.4-0.2-0.5l-1.9-2l1.8-3.9c0.1-0.1,0.1-0.2,0.1-0.3l5.8-0.2c0.3,0,0.5-0.2,0.5-0.5l0.6-3.2L176.9,231.8z"/>
  <path id="divi-15272" class="st0" d="M241,232l2.7,0.3l0.1,0l2.8,0.9l0.1,0c0,0,0,0,0,0c0,0,0.1,0,0.1,0l2.5,0.6l-2.6,2
				       c-0.1,0.1-0.2,0.3-0.2,0.4l-0.1,4.4l-4.1,0.6v0l-6.6,0.3h-0.1l-4.1-0.6l-0.6-2.4l0.6,0.3c0.2,0.1,0.4,0.1,0.6-0.1l3.1-2.4
				       c0.1-0.1,0.2-0.2,0.2-0.3l0.5-1.4l2.8-0.8c0.1,0,0.1-0.1,0.2-0.1L241,232z"/>
  <path id="divi-15232" class="st0" d="M189.4,233l1.9,0.8l0.8,3.9v0.1l-0.2,2.5l-2.1,3.1l-4,0.8c-0.1,0-0.1,0-0.2,0.1l-4.1,2.3
				       c-0.1,0-0.1,0.1-0.2,0.1l-2.6,3l-1.6-1l0.3-2.5l1.2-0.5c0.1-0.1,0.3-0.2,0.3-0.3l1.3-3.6c0-0.1,0-0.1,0-0.2l0.1-3.7l2.7-0.8h0.1h3.2
				       c0.2,0,0.3-0.1,0.4-0.2c0.1-0.1,0.2-0.3,0.2-0.4V234c0,0,0-0.1,0-0.1L189.4,233z"/>
  <path id="divi-15106" class="st0" d="M125.3,233.6l2.6,0.2c0,0.1-0.1,0.1-0.1,0.2l-2.6,2.3c-0.2,0.1-0.2,0.4-0.2,0.6l0.7,2.9
				       c0,0.2,0.2,0.4,0.4,0.4l3.8,0.9l-0.9,1.2l-1.9,0.8l-3.2-1.9l-0.1-0.1l-0.1,0l-3.3-3.3l0.2-3.3l1,0.1c0.1,0,0.1,0,0.2,0L125.3,233.6z
				       "/>
  <path id="divi-15176" class="st0" d="M133.6,234.1l0.9,2c0,0,0,0,0,0.1l2.6,4.4c0.1,0.2,0.3,0.3,0.4,0.3l6.9,0.5l4.8,0.3l3.6,0.9
				       l-0.9,2.1l0,0l-1.8,2.5h0c-0.3-0.1-0.6,0.1-0.7,0.4l-2.4,0.8l-3.3-0.8l-2.5-1.8c-0.2-0.1-0.5-0.1-0.7,0l-2.9,2.6l-2.1,0.9
				       c-0.1-0.1-0.2-0.3-0.3-0.3l-1.3-1.5l-0.3-4.7c0-0.1-0.1-0.3-0.2-0.4l-1.8-1.8c0,0,0,0,0,0c0-0.2-0.2-0.4-0.4-0.4l-0.1,0
				       c-0.2-0.2-0.4-0.2-0.6-0.1l-3.7-0.9l-0.5-2.3l2.3-2.1l2.2,1c0.2,0.1,0.4,0,0.6-0.1L133.6,234.1z"/>
  <path id="divi-15776" class="st0" d="M159.1,234.7h4.4l2.3,2.4c0.2,0.2,0.5,0.2,0.7,0.1l0.9-0.5l-1.5,3.3c-0.1,0.2-0.1,0.5,0.1,0.6
				       l1.9,2.1l-0.8,4.1c-0.2-0.2-0.5-0.2-0.7-0.1c-0.2,0.1-0.3,0.4-0.3,0.6l-1.7,0.5c0,0,0,0,0,0l-1.7,0.7c-0.1-0.2-0.2-0.3-0.4-0.3
				       l0.1-2c0-0.2-0.1-0.4-0.2-0.5l-2.8-2c0,0,0,0-0.1,0l-4.4-2.4l1.1-1.1c0.1-0.1,0.2-0.3,0.2-0.4v-3.4L159.1,234.7z"/>
  <path id="divi-15377" class="st0" d="M297.1,235.5l2.2,1.5l0,0l1.7,1.3l-1.4,2.2c-0.1,0.1-0.1,0.2-0.1,0.4l0.5,3.8
				       c0,0.2,0.1,0.4,0.3,0.4c0.2,0.1,0.4,0.1,0.5,0l1.4-0.7c-0.2,0.2-0.2,0.6,0,0.8l1.8,1.8c0,0,0,0,0,0l3.6,3.1h0l3.3,4.8
				       c0.1,0.1,0.1,0.2,0.2,0.2l1.7,0.6l-2,0.8c-0.1,0-0.2,0.1-0.2,0.1l-2.3,2.3c-0.1,0.1-0.1,0.2-0.2,0.3l-1.1,4.9l-3.7,2.6l-0.1,0
				       l-5.3,2.9c-0.1,0-0.1,0.1-0.2,0.2l-2.3,3l-0.9-1.2v-3.9c0-0.3-0.2-0.5-0.5-0.6l-6.5-0.5l-4-2.9l-0.1-0.7l0.2-0.5
				       c0.1-0.3-0.1-0.6-0.3-0.7l0-0.3c0-0.1-0.1-0.2-0.1-0.3l-3.1-3.8c0,0,0,0,0,0l-3.7-4.2l0-0.1l0,0l-1.9-3.6l1.5-3.8l4.1-1.5
				       c0.1-0.1,0.3-0.2,0.3-0.3l1.8-3.8c0,0,0-0.1,0-0.1l0.5-2.5l4,1.2l4.1,4.9c0.1,0.1,0.3,0.2,0.4,0.2l2.9,0.3c0.2,0,0.3,0,0.4-0.1
				       c0.1-0.1,0.2-0.3,0.2-0.4v-2.9l2.1-3.5c0-0.1,0.1-0.2,0.1-0.3L297.1,235.5z"/>
  <path id="divi-15476" class="st0" d="M193.2,238.3l2.2,0.6l-0.9,2.6c0,0.1,0,0.3,0,0.4l1.5,3.4c0,0.1,0.1,0.1,0.1,0.2l2.8,3.1
				       l-1.5,1.9l-1,0.8l-0.1,0l-1.8,0.7l-1.2-1.6c-0.1-0.1-0.2-0.2-0.4-0.2l-2.6-0.4l0.7-0.8c0.1-0.1,0.2-0.3,0.1-0.5l-0.3-2.1
				       c0,0,0-0.1,0-0.1l-0.8-1.8l0.3-0.1c0.2,0,0.3-0.1,0.4-0.2l2.3-3.4c0.1-0.1,0.1-0.2,0.1-0.3L193.2,238.3z"/>
  <path id="divi-15580" class="st0" d="M81.6,239.5l2.8,0.4l1.1,1.8l-2.2,2c-0.1,0.1-0.2,0.3-0.2,0.5c0,0.2,0.1,0.3,0.3,0.4l2.2,1.5
				       l0.1,0l1.5,1.8c0.1,0.2,0.4,0.2,0.6,0.2l2.8-0.7c0.1,0,0.1,0,0.2-0.1l0.5-0.3l0.9,2.8c0,0,0,0.1,0.1,0.1l2.3,3.4
				       c0,0.1,0.1,0.1,0.2,0.2l2.1,1.5l0.1,2l-2.9,2.4c-0.1,0.1-0.2,0.2-0.2,0.4l-0.1,0.8l-3.4-0.5l-2.8-1.6c0,0,0.3-1.2,0.5-2.3
				       c0.7-0.3,1.8-0.8,1.8-0.8l-0.3-2.4l0.8-1.8l-0.4-1.7l-5.4-1.2c-0.7,0-3.3,0.5-4,0.4l-1.4-2c0,0,0,0-0.1-0.1l-4.9-5.1l4.6,0.3
				       c0.2,0,0.3,0,0.4-0.2L81.6,239.5z"/>
  <path id="divi-15500" class="st0" d="M208,239.8C208,239.8,208,239.9,208,239.8l2.3,3.2c0.1,0.1,0.2,0.2,0.4,0.2l1.6,0.2l-1.9,1.5
				       c-0.1,0.1-0.2,0.2-0.2,0.3l-0.8,2.9l-3.4,0.1c0,0-0.1,0-0.1,0l-3.2,0.8l-2.2-1.4l0.7-1.8l2.7-1.2c0.1,0,0.2-0.1,0.2-0.2L208,239.8z"
	/>
  <path id="divi-15442" class="st0" d="M106.3,241.4l2.8,0.6l-0.1,3.4c0,0.2,0.1,0.3,0.2,0.4c0.1,0.1,0.3,0.2,0.4,0.2h6.3l1.9,1.9
				       l0,0.1l1.9,2.4c0.1,0.2,0.4,0.2,0.6,0.2l1.8-0.6l2.2,1.8l-3.2,0.8l-4.1,1c-0.1,0-0.2,0.1-0.2,0.1l-1.7,1.4l-3.6,0.4
				       c-0.1,0-0.2,0.1-0.3,0.1l-2.8,2.1l-3.4-5.2l-1.8-4.7l0.2-1.3c0.2-0.2,0.3-0.5,0.2-0.8l0.3-1.5L106.3,241.4z"/>
  <path id="divi-15814" class="st0" d="M218.3,241.5l1.8,2.5c0.1,0.1,0.3,0.2,0.4,0.2l10,0.2c0.2,0,0.3-0.1,0.4-0.2l1.1,2.8l-2.2,2.8
				       c0,0-0.1,0.1-0.1,0.1l-2.1,5l-2.4,2.4l-3.6-1.6l-6.1-3.1c0,0,0,0,0,0c0,0-0.1-0.1-0.1-0.1l-2.8-2.1l-0.3-2.2l1-1.9l0,0l0-0.1
				       l1.9-2.3c0-0.1,0.1-0.1,0.1-0.2c0,0,0,0,0-0.1l1.9-1.4l0,0L218.3,241.5z"/>
  <path id="divi-15131" class="st0" d="M131,241.8l1.4,1.4l0.3,4.7c0,0.1,0.1,0.2,0.2,0.3l1.2,1.5l-2.2,2.6l0,0l-3.5,2.3l-2.3,1.4
				       l-0.8-1.4v-2.1c0.2-0.1,0.4-0.3,0.4-0.5s-0.1-0.4-0.4-0.5v-0.1c0-0.2-0.1-0.3-0.2-0.4l-2.1-1.7l2.5-2.3c0.1,0,0.1-0.1,0.1-0.2
				       l1.1-2.3c0-0.1,0.1-0.1,0.1-0.2c0.1,0.1,0.3,0.1,0.5,0l2.3-1c0.1,0,0.2-0.1,0.2-0.2L131,241.8z"/>
  <path id="divi-15362" class="st0" d="M246.4,241.9c0,0.1,0.1,0.3,0.2,0.3l3.2,1.9l-1.8,0.9l0,0l-3.4,1.5l-3.7-0.1l0.6-1.1
				       c0,0,0,0,0-0.1l1.6-3.1L246.4,241.9z"/>
  <path id="divi-15047" class="st0" d="M272.9,242l0.5,0.2l1.5,3.4l-1.5,3.8c-0.1,0.2-0.1,0.3,0,0.5l2.1,3.9c0,0,0,0.1,0.1,0.1
				       l3.8,4.2l2.9,3.6l0.2,1.1l-1.1,3.3l-0.7,0.5l-2.5-3.1c-0.1-0.1-0.2-0.2-0.3-0.2l-2.8-0.7c-0.1,0-0.3,0-0.4,0.1l-4.4,2.5
				       c-0.1,0-0.1,0.1-0.2,0.2l-2.8,4.1c-0.1,0.1-0.1,0.3-0.1,0.4l0.3,2.4l-2.3,2.6h0l-4.6,4.8l-4.9,5.6l-4.7,2.1
				       c-0.2,0.1-0.3,0.3-0.3,0.5l0.2,6.2l-1.4,0.7l-8.1-0.6c0,0,0,0,0,0c0,0,0-0.1,0-0.1c0,0,0-0.1,0-0.1l0.3-1.4l0.7-3
				       c0-0.2,0-0.4-0.1-0.5l-3.2-3.7l-2.5-3.2l-0.5-5.8l1.8-0.7c0.1,0,0.1-0.1,0.2-0.1l4.4-4.2c0.1-0.1,0.1-0.1,0.1-0.2l1.4-3.3
				       c0,0,0,0,0,0l1.9-4.8l3.7-3.7c0,0,0-0.1,0.1-0.1l2.3-3.6c0,0,0,0,0,0l2.7-5l1.9-3.9c0.1-0.2,0.1-0.3,0-0.5l0.3-0.3l0.8,0h0.1
				       l3.1,0.9h0l6,2.3c0.2,0.1,0.4,0,0.5,0c0.2-0.1,0.3-0.2,0.3-0.4l0.5-3.5l2.7-1.8c0,0,0,0,0,0l0.9-0.7c0.1,0.2,0.4,0.4,0.6,0.3
				       s0.4-0.3,0.5-0.5V242L272.9,242z"/>
  <path id="divi-15542" class="st0" d="M231.8,242.2l3.8,0.5c0,0,0.1,0,0.1,0l6.2-0.3l-1.2,2.4v0l-2.1,3.5c0,0.1-0.1,0.1-0.1,0.2
				       l-0.3,2.1l-0.7,4.1l-1.6,2.6c0,0,0,0.1,0,0.1l-1.2,3.4c0,0,0,0,0,0l-0.9,3.3v0l-1.5,2.7c0,0.1-0.1,0.2-0.1,0.3l-0.2,4l-1.8,1.6
				       c-0.1,0.1-0.2,0.3-0.2,0.4v2.3l-0.8,1.2l-4.8,0.2c-0.1,0-0.2,0-0.2,0.1l-2.5,1.4l2.4-2.4l1.9-1.8c0.2-0.1,0.2-0.4,0.2-0.6l-0.9-3.7
				       l0.4-4l0.2-2.5v0c0,0,0,0,0-0.1c0-0.1,0-0.1,0-0.2c0,0,0-0.1,0-0.1l0-0.3c0,0,0-0.1,0-0.1l-0.3-2.6l0.3-1.8h0c0,0,0,0,0-0.1l2.8-2.8
				       c0.1-0.1,0.1-0.1,0.1-0.2l2.1-5v0l2.4-3c0.1-0.2,0.2-0.4,0.1-0.6l-1.6-4.1L231.8,242.2z"/>
  <path id="divi-15808" class="st0" d="M154.1,242.4l4.5,2.4l0.1,0l2.5,1.8l-0.2,3.1c0,0.1,0,0.1,0,0.2c0,0,0,0,0,0l-0.3,0.7l-3.6,2
				       c0,0,0,0,0,0l-3.1,2.2l-3.3-2.1l-0.1-4.4c0.1,0,0.1-0.1,0.2-0.2l2.1-2.9c0,0,0-0.1,0.1-0.1L154.1,242.4z"/>
  <path id="divi-15187" class="st0" d="M213.8,243.7l0.1,0l-1.5,1.8c0,0,0,0.1,0,0.1l-1.2,2.1c-0.1,0.1-0.1,0.2-0.1,0.3l0.3,2.6
				       c0,0.2,0.1,0.3,0.2,0.4l1.7,1.3l-1.8,0.1c-0.1,0-0.2,0-0.2,0.1l-2.3,1.2c0,0,0,0-0.1,0l-2.9,1.8l-1.8-0.4l-1.4-2.4l0.3-0.6
				       c0.1-0.1,0.1-0.3,0.1-0.4l-0.2-1.6l3-0.8l3.8-0.2c0.2,0,0.5-0.2,0.5-0.4l0.9-3.1L213.8,243.7C213.8,243.7,213.8,243.7,213.8,243.7z"
	/>
  <path id="divi-15638" class="st0" d="M168.8,244.1l4.6,3.4c0.2,0.1,0.4,0.1,0.6,0.1l2.4-1l-0.2,2.2c0,0.2,0.1,0.4,0.2,0.5l2,1.2
				       l-2,1.9l-0.1,0.1l-3.8,2.6c-0.1-0.2-0.3-0.3-0.5-0.3l-0.5-1.1c0-0.1-0.1-0.1-0.2-0.2l-3-2.5l-0.8-2.7l0.1,0c0.2-0.1,0.4-0.2,0.4-0.4
				       L168.8,244.1z"/>
  <path id="divi-15762" class="st0" d="M188.8,244.7c0,0.1,0,0.1,0,0.2l0.8,1.8v0l0.2,1.7l-1.5,1.9h-1.6c-0.2-0.2-0.6-0.2-0.8,0h-2.7
				       c-0.1,0-0.2,0-0.3,0.1l-1.7,1.2l-1.2,0.2l-0.3-1.2c0-0.1,0-0.3,0-0.4l2.4-2.9l3.9-2.2L188.8,244.7z"/>
  <path id="divi-15226" class="st0" d="M251,244.7l1.3,0.7c0.1,0.1,0.2,0.1,0.3,0.1l2.9,0.1l-2.8,3.9l-3.3,1.5l-1-1.4
				       c-0.1-0.1-0.2-0.2-0.3-0.2l-2.7-0.5l-2.1-1.2h1.5c0.1,0,0.2,0,0.2-0.1l3.5-1.6c0,0,0,0,0,0L251,244.7z"/>
  <path id="divi-15480" class="st0" d="M98.1,245.7l4.2,0.8l-0.2,1.2c0,0.1,0,0.2,0,0.3l1.9,4.9c0,0,0,0.1,0.1,0.1l3.3,5l-3.5,1.1
				       c0,0-0.1,0-0.1,0.1l-2.4,1.3c-0.1-0.1-0.3-0.1-0.5-0.1c-0.2,0-0.3,0.2-0.4,0.3l-6,0.2l0.1-0.8l2.9-2.5c0.1-0.1,0.2-0.3,0.2-0.5
				       l-0.2-2.6c0-0.2-0.1-0.3-0.2-0.4l-2.2-1.5l0,0l-2.2-3.2l0-0.1l0-0.1l-0.9-2.7l2.7-0.1l0.2,0.2c0.2,0.1,0.4,0.2,0.6,0.1L98.1,245.7z"
	/>
  <path id="divi-15822" class="st0" d="M240.3,247.5c0.1,0.1,0.3,0.2,0.4,0.2h1c-0.1,0.2,0.1,0.5,0.3,0.6l2.8,1.6
				       c0.1,0,0.1,0.1,0.2,0.1l2.6,0.5l1.1,1.6c0.1,0.2,0.4,0.3,0.7,0.2l3.9-1.8l-2.3,4.3l0,0.1l-2.3,3.5l-3.6,3.6
				       c-0.1,0.1-0.1,0.1-0.1,0.2l-2,5l-1.3,3.2l-4.2,4.1l-2.7,1l-3.7-0.2v-1.7l1.8-1.6c0.1-0.1,0.2-0.3,0.2-0.4l0.2-4.2l1.5-2.7
				       c0,0,0-0.1,0.1-0.2l0.9-3.3v0l1.2-3.2l0-0.1l1.6-2.6c0-0.1,0.1-0.1,0.1-0.2l0.7-4.2l0.3-2L240.3,247.5z"/>
  <path id="divi-15676" class="st0" d="M143,248.6l0.1,0.1c0.1,0,0.1,0.1,0.2,0.1l3.6,0.8c0.1,0,0.2,0,0.3,0l2.2-0.8l0.2,4.3
				       c0,0.2,0.1,0.4,0.2,0.5l3.5,2.2l-1,2.8l-4.9,1.1h-0.1l-2.5-0.8l-3.1-2.5l0.6-3.4L143,248.6z"/>
  <path id="divi-15600" class="st0" d="M166.4,248.6l0.8,2.8c0,0.1,0.1,0.2,0.2,0.3l3,2.5l0.4,1l-2.3,1.1c-0.2,0.1-0.3,0.2-0.3,0.4
				       c0,0.2,0,0.4,0.1,0.5l2.1,2.6l-0.4,4h-2.4c-0.2,0-0.4,0.1-0.5,0.3l-1,1.8l-1.6,2.7l-2.8-2.3l-5.5-5.2c-0.1-0.1-0.2-0.1-0.3-0.2
				       l-5.2-0.7l2.1-0.4c0.2,0,0.3-0.2,0.4-0.4l1.2-3.4l3.2-2.3l0.1,0l3.7-2.1c0.1-0.1,0.2-0.2,0.2-0.3l0.4-1.1l2.4-1l0.1,0L166.4,248.6z"
	/>
  <path id="divi-15001" class="st0" d="M200.1,248.9l1.8,1.1l0,0c0,0,0,0.1,0,0.1l0.2,1.7l-0.1,0.2h0c-0.2,0-0.3,0.1-0.4,0.3
				       c-0.1,0.1-0.1,0.3-0.1,0.5c0,0,0,0,0,0l-1,1.7l-3.4,1.9c-0.2,0.1-0.3,0.2-0.3,0.4l-0.4,2.5c-0.3,0.1-0.5,0.4-0.4,0.7l0.1,0.3
				       l-1.9,0.8c-0.1,0-0.2,0.1-0.2,0.2l-1.7,2.4l-4.2,0.6l-2.8-1.5l0.8-1.6c0.1,0.1,0.3,0.1,0.4,0.1c0.2,0,0.3-0.1,0.4-0.2l2.1-2.8
				       c0.1-0.1,0.1-0.3,0.1-0.4l-0.2-3.1c0-0.1,0-0.2-0.1-0.2l-1.6-3.2h1.3c0.2,0,0.3-0.1,0.4-0.2l0.3-0.4l3,0.4l1.3,1.8
				       c0.2,0.2,0.4,0.3,0.7,0.2l2.3-0.8c0.1,0,0.1-0.1,0.2-0.1l1.3-1c0,0,0.1-0.1,0.1-0.1l1.7-2.2L200.1,248.9
				       C200.1,248.9,200.1,248.9,200.1,248.9L200.1,248.9z"/>
  <path id="divi-15224" class="st0" d="M183.5,251.4h2.7l1.8,3.6l0.2,2.8l-1.7,2.1l-1.5-1.2l-4.7-4.2l0.2-1.7l1.1-0.2
				       c0.1,0,0.2,0,0.2-0.1L183.5,251.4z"/>
  <path id="divi-15646" class="st0" d="M178.9,251.6l0.3,1c0,0.1,0.1,0.2,0.2,0.3l-0.2,1.7c0,0.2,0,0.4,0.2,0.5l4.9,4.4l1.1,0.9
				       l-1.1,2c-0.1,0-0.2,0.1-0.2,0.1l-3.2,3l-4.1,0.8c0,0,0,0,0,0l-4.2,1.2c-0.1,0-0.1,0-0.2,0.1l-2.9,1.7l-3.8-0.4l1.5-2.5l0.8-1.5h2.6
				       c0.3,0,0.5-0.2,0.6-0.5l0.5-4.7c0-0.2,0-0.3-0.1-0.4l-1.8-2.2l1.6-0.8l0.1,0.2c0.1,0.2,0.2,0.3,0.4,0.3s0.3,0,0.5-0.1l4.8-3.3
				       c0,0,0,0,0.1,0L178.9,251.6z"/>
  <path id="divi-15109" class="st0" d="M124.3,252.9v2c0,0.1,0,0.2,0.1,0.3l0.9,1.6l-0.8,0.6c-0.2,0.1-0.3,0.4-0.2,0.7l0.9,2.9
				       l-0.9,3.4c-0.1,0-0.2,0.1-0.2,0.2l-2.9,3.3l-0.3-2.2c0-0.2-0.2-0.4-0.3-0.5l-3.8-1.5l-2.5-2l1.4-1.8c0.1-0.1,0.1-0.3,0.1-0.4
				       l-0.4-3.2l0.2,0c0.1,0,0.2-0.1,0.3-0.1l1.7-1.4l4-1L124.3,252.9z"/>
  <path id="divi-15740" class="st0" d="M214.8,253.5c0,0,0.1,0.1,0.1,0.1l6.2,3.1c0,0,0,0,0,0l3.4,1.5l-0.3,1.8c0,0.1,0,0.1,0,0.2
				       l0.2,1.6l-1.8-1.8c-0.1-0.2-0.4-0.2-0.6-0.2l-2.5,0.7c-0.1,0-0.2,0.1-0.3,0.2l-4.4,5l-0.8-0.7c0,0,0,0-0.1-0.1l-4.6-2.7c0,0,0,0,0,0
				       l-3.9-2l0.2-3.8l0.3,0.1c0.1,0,0.3,0,0.4-0.1l3.1-1.9l0.1,0l2.1-1.1L214.8,253.5z"/>
  <path id="divi-15764" class="st0" d="M202.2,254l1.2,2c0.1,0.1,0.2,0.2,0.4,0.3l0.9,0.2l-0.3,4.1l-2.9,3.6l0,0l-2.2,2.3l-0.7-2.3
				       l-1.1-3.8l0.5-3.2l3.4-1.8c0.1,0,0.2-0.1,0.2-0.2L202.2,254z"/>
  <path id="divi-15212" class="st0" d="M114,256.3l0.4,3l-1.7,2.1c-0.1,0.1-0.1,0.3-0.1,0.4c0,0.2,0.1,0.3,0.2,0.4l3.1,2.5
				       c0,0,0.1,0,0.2,0.1l3.4,1.3l0.4,2.8h-1.8c-0.2,0-0.3,0.1-0.4,0.2l-2.7,2.8l-2.2,1.4l-3.7-2.2l0,0l-0.1,0l-5.4-5c0,0,0,0,0,0l0,0
				       c-0.1-0.2-0.2-0.3-0.4-0.4l-1.3-4l2.4-1.3l3.8-1.2h0.1c0.1,0,0.3,0,0.4-0.1l0.1-0.1l0.1,0c0.1,0,0.3-0.1,0.3-0.3c0,0,0,0,0,0
				       l2.6-1.9L114,256.3z"/>
  <path id="divi-15621" class="st0" d="M222.1,261.2l2.4,2.4l-0.2,2.4l-0.3,4c0,0.1,0,0.1,0,0.2l0.8,3.4l-1.7,1.6c0,0,0,0,0,0
				       l-4.4,4.4c0,0,0,0,0,0.1c0,0,0,0,0,0l-1.9,1.4l-3.9,2.1l-4.5-0.3l-0.5-2.6c0-0.1-0.1-0.2-0.2-0.3l-1.2-1.1l-0.2-1.2l2.8-0.7
				       c0.1,0,0.2-0.1,0.3-0.2l2.3-2.5l1.8-1.8c0.1-0.1,0.1-0.1,0.2-0.2l0.4-1.4c0,0,0,0,0,0c0,0,0,0,0-0.1l2.1-3.9
				       c0.1-0.1,0.1-0.3,0.1-0.5l4-4.7L222.1,261.2z"/>
  <path id="divi-15104" class="st0" d="M196.4,261.4l0.9,3.2c0,0,0,0,0,0l0.6,1.9c0,0,0,0,0,0l-4.8,3.2l-1.6-1.5
				       c-0.2-0.2-0.5-0.2-0.8,0l-2.3,1.8l-2.9-0.2l1.3-3.1l2.4-0.9c0.2-0.1,0.4-0.3,0.4-0.5l3.2-0.5c0.2,0,0.3-0.1,0.4-0.2l1.7-2.5
				       L196.4,261.4z"/>
  <path id="divi-15879" class="st0" d="M205,261.6l3.9,1.9l0,0l4.6,2.6l1.1,1l-1.4,2.7c0,0,0,0,0,0c0,0,0,0,0,0l-1-0.1c0,0,0,0,0,0
				       l-7.6-0.5l-3.2-3.3l0.9-0.9c0,0,0,0,0,0L205,261.6z"/>
  <path id="divi-15861" class="st0" d="M184.6,263.7l2.8,1.4l-1.3,0.5c-0.2,0.1-0.3,0.2-0.3,0.3l-1.6,4.1c0,0,0,0.1,0,0.1c0,0,0,0,0,0
				       l-0.8,0.9l-0.1,0.1l-2.5,2.3l-0.1,0.1l-3.7,2.2h-2.9c-0.1,0-0.3,0-0.4,0.1l-4.9,4.1l-0.8-0.6l-0.2-2.6c0-0.1,0-0.2-0.1-0.2l-1.5-2.8
				       c0,0,0,0,0,0l-0.2-3.6l3.5,0.3c0.1,0,0.2,0,0.3-0.1l3.1-1.8l4.1-1.1h0l4.2-0.8c0.1,0,0.2-0.1,0.3-0.2L184.6,263.7z"/>
  <path id="divi-15518" class="st0" d="M275.1,263.8l2.4,0.6l2.7,3.4c0.2,0.2,0.5,0.3,0.8,0.1l1.2-0.9c0.1-0.1,0.2-0.2,0.2-0.3
				       l0.7-2.1l4,2.9c0.1,0.1,0.2,0.1,0.3,0.1l6.2,0.4v3.6c0,0.1,0,0.2,0.1,0.3l0.3,0.4v0c-0.1,0.2,0,0.5,0.2,0.7l1,0.8l0,0c0,0,0,0,0,0
				       l-0.8,0.9l-4.2-0.2c-0.2,0-0.4,0.1-0.5,0.3l-1.2,2.7l-2.8,5.7l-3.4,2.6l-1.8-3c0,0,0-0.1-0.1-0.1l-4.2-5.1c0-0.1-0.1-0.1-0.2-0.1
				       l-7.7-4.7l0.2-0.2c0.1-0.1,0.2-0.3,0.1-0.5l-0.3-2.4l2.7-3.8L275.1,263.8z"/>
  <path id="divi-15189" class="st0" d="M200.5,266.7l3.3,3.4c0.1,0.1,0.2,0.2,0.4,0.2l7.8,0.5h0l0.7,0.1l-0.2,0.8l-1.7,1.7
				       c0,0,0,0,0,0l-2.2,2.3l-2.4,0.6l-2.3-1.8l-1.9-3.8c0,0,0,0,0-0.1l-2.2-3L200.5,266.7z"/>
  <path id="divi-15599" class="st0" d="M198.3,267.6l0.1,0.2c0,0.1,0.1,0.3,0.3,0.3l0,0l2.2,3.1l2,3.9c0,0.1,0.1,0.1,0.2,0.2l1.9,1.5
				       v0c0,0,0,0,0,0.1l0.3,2.3c0,0.1,0.1,0.3,0.2,0.3l1.3,1.1l0.4,2l-1.5,0.3c-0.2,0-0.4,0.2-0.5,0.4l-0.9,4.6c0,0.2,0,0.3,0.1,0.4
				       l1.9,2.5c0.1,0.1,0.1,0.1,0.2,0.2l1.8,0.9l-1.3,1.5h-1.2c-0.1-0.2-0.3-0.4-0.5-0.4s-0.4,0.1-0.5,0.4h-0.4l-3.3-1.9l-0.5-3.2l1.7-1.5
				       c0.2-0.2,0.2-0.5,0.1-0.7l-1.9-3.8c0,0,0,0,0,0v0v-2c0-0.1,0-0.2-0.1-0.2l-1.1-2.5c-0.1-0.1-0.2-0.2-0.3-0.3l-3-1.3l-0.7-2.4
				       l1.9-2.1c0.1-0.1,0.2-0.2,0.2-0.4v-2.8c0-0.1-0.1-0.2-0.2-0.3L198.3,267.6z"/>
  <path id="divi-15367" class="st0" d="M196.4,268.8v2.3l-2,2.2c-0.2,0.1-0.2,0.4-0.2,0.6l0.9,3c0,0.2,0.2,0.3,0.3,0.4l3,1.3l0.9,2.1
				       v0.6l-2.9-2.7c0,0-0.1,0-0.1-0.1l-3.5-2.1c0,0,0,0-0.1-0.1l-3.3-1.4l-1.3-1.5v-2.3l0.3,0c0.1,0,0.3,0,0.4-0.1l2.1-1.6l1.6,1.4
				       c0.2,0.2,0.5,0.2,0.7,0.1L196.4,268.8z"/>
  <path id="divi-15494" class="st0" d="M185,270.9l2,0.2v2.6c0,0.2,0.1,0.3,0.2,0.4l1,1.1c0,0,0,0.1-0.1,0.1l-0.6,2.2l-2.2,0.8
				       c-0.2,0.1-0.3,0.2-0.4,0.4l-0.7,3l0,0.1h0c-0.3,0-0.5,0.3-0.5,0.6l-1,1.1l-1.9,0.5l-0.2-1.6l1.6-1.4c0.2-0.2,0.2-0.4,0.2-0.6
				       l-0.7-2.3l-0.9-3c0-0.1,0-0.1-0.1-0.2l0.7-0.4c0,0,0.1-0.1,0.1-0.1l2.7-2.5c0,0,0,0,0-0.1L185,270.9z"/>
  <path id="divi-15835" class="st0" d="M179.6,275.5l0.8,2.9c0,0,0,0,0,0l0.6,2l-1.5,1.3c-0.1,0.1-0.2,0.3-0.2,0.5l0.3,2.1l-1.5,1.5
				       c-0.1,0.1-0.1,0.2-0.2,0.3l-0.5,3.8h-1.4l-0.4-1.2c0,0,0-0.1-0.1-0.1l-2.5-4.1c0,0-0.1-0.1-0.1-0.1l-3.6-3.5l4.8-4h2.8
				       c0.1,0,0.2,0,0.3-0.1L179.6,275.5z"/>
  <path id="divi-15804" class="st0" d="M189.1,276l3.2,1.3l0.1,0l3.4,2l0.1,0.1l3.6,3.3v0c0,0.1,0,0.1,0.1,0.2l1.8,3.5l-1.5,1.4
				       l-2.3-2.8c-0.1-0.1-0.2-0.2-0.4-0.2c-0.2,0-0.3,0-0.4,0.1l-2.1,1.8c0,0,0,0,0,0.1l-2.2,2.3l-1.9,0.2h0c-0.2-0.1-0.4-0.1-0.6,0.1
				       c0,0,0,0,0,0l-3.8,0.4l-1.6-0.4l1-1.7c0,0,0.1-0.1,0.1-0.2l0.9-3.3c0.1-0.2,0-0.4-0.2-0.6l-1.1-1.1l0.1-0.1c0.1-0.1,0.1-0.2,0.1-0.2
				       l0.7-2.9l2.2-0.8c0.2-0.1,0.3-0.2,0.4-0.4L189.1,276z"/>
  <path id="divi-15897" class="st0" d="M230.8,276.4l4.1,0.2c0.1,0,0.1,0,0.2,0l0.5,5.6l-2.1,1.9l-0.1,0l-1.4,1.1l-3.2,0.2
				       c-0.1,0-0.2,0.1-0.3,0.2l-2.8,2.5c0,0-0.1,0.1-0.1,0.1l-2.3,3.3l-7.6-0.7c-0.3,0-0.5,0.1-0.6,0.3l-1.5,3.5l-3.1,1.8h0l-5.1,1.5
				       l0.5-3.1h1.5c0.2,0,0.3-0.1,0.4-0.2l1.9-2.3c0.1-0.1,0.2-0.3,0.1-0.5c0-0.2-0.1-0.3-0.3-0.4l-2.4-1.2l-1.7-2.2l0.8-4l1.3-0.2
				       c0.1,0.1,0.2,0.1,0.3,0.1l5.1,0.4c0.1,0,0.2,0,0.3-0.1l4.1-2.1c0,0,0,0,0.1-0.1l2.1-1.6l2.2-0.8c0,0,0,0,0.1,0l2.8-1.5l5-0.2
				       c0.2,0,0.3-0.1,0.4-0.2L230.8,276.4z"/>
  <path id="divi-15660" class="st0" d="M236.1,283.1l2.2,2.8c0,0,0,0,0,0l3,3.5l-0.7,2.7l-0.3,1.6l-1,1.8l0,0.1l-4.2,4.2l-2-2.7l-3-4
				       l0.9-2.9l2.4-1.1c0.2-0.1,0.3-0.2,0.3-0.4l0.5-3.5c0-0.1,0-0.1,0-0.2L236.1,283.1z"/>
  <path id="divi-15842" class="st0" d="M184.3,283.3l0.8,0.8l-0.8,3l-1.4,2.2c-0.1,0.1-0.1,0.3,0,0.5s0.2,0.3,0.4,0.3l2.3,0.7
				       c0.1,0,0.1,0,0.2,0l3.7-0.4l0.1,3c-0.2,0.1-0.3,0.2-0.3,0.4c0,0.2,0,0.4,0.1,0.5c0,0,0,0,0,0l-3.7,4.9h0c0,0,0,0,0,0
				       c-0.1,0.1-0.2,0.2-0.2,0.3l-0.2,0.2l-2.8,1c0,0-0.1,0-0.1,0l-2.7,1.5l-1.1-1.7v-0.1l-1.1-4.7V296l-0.7-5h1.2c0.3,0,0.5-0.2,0.6-0.5
				       l0.5-4l1.3-1.3h0.1c0,0,0,0,0,0l2.7-0.7c0.1,0,0.2-0.1,0.3-0.2L184.3,283.3z"/>
  <path id="divi-15090" class="st0" d="M232.9,285.9l-0.3,2.3l-2.4,1.1c-0.1,0.1-0.2,0.2-0.3,0.4l-1.1,3.3c-0.1,0.2,0,0.4,0.1,0.5
				       l3.2,4.2c0,0,0,0,0,0l1.9,2.5l-2,1.3h0c-0.1,0-0.1,0-0.2,0l-1.4-2.7c0-0.1-0.1-0.1-0.1-0.2l-4-3.6l0,0l-0.1-0.1l-2.1-2.9l2.3-3.3h0
				       l2.6-2.3l3.2-0.2c0.1,0,0.2-0.1,0.3-0.1L232.9,285.9z"/>
  <path id="divi-15172" class="st0" d="M196.9,286.2l2.3,2.8c0.1,0.1,0.2,0.2,0.3,0.2l0.4,3c0,0.2,0.1,0.3,0.3,0.4l3.7,2.1
				       c0.1,0,0.2,0.1,0.3,0.1h0.3l-0.5,3.8c0,0.1,0,0.1,0,0.2c0,0,0,0,0,0l-1.1,3.7h-3c0,0-0.1,0-0.1,0l-2.8,0.5h0
				       c-0.2-0.2-0.5-0.2-0.7-0.1l-1.9-2.3l0.9-2.5c0.1-0.2,0-0.5-0.2-0.7l-4.4-3.4l-0.1-3.7l1.9-0.2c0.1,0,0.3-0.1,0.4-0.2l2.3-2.5
				       L196.9,286.2z"/>
  <path id="divi-15455" class="st0" d="M215.9,291.8l7,0.6v0c0,0.1,0.1,0.1,0.1,0.2l2.3,3.2c0,0,0,0.1,0.1,0.1l4,3.7l1.7,3.1l-2.6,4
				       l0,0l-4.8,3.5l-6.2,1.7l-4.7,0.7v-0.2c0-0.2-0.1-0.4-0.3-0.5l-1.7-0.8l-0.1-1.9c0,0,0-0.1,0-0.1l-0.4-1.1l2-1
				       c0.2-0.1,0.3-0.3,0.3-0.5v-3.2c0-0.2-0.1-0.3-0.2-0.4l-4.6-4.6l2.9-0.9c0,0,0.1,0,0.1,0l3.3-2c0.1-0.1,0.2-0.1,0.2-0.2L215.9,291.8z
				       "/>
  <path id="divi-15511" class="st0" d="M190.4,295.2l3.8,3l-0.9,2.4c-0.1,0.2,0,0.4,0.1,0.6l2.5,3c0,0,0,0,0,0l-0.7,2.6l-1.4,3.3
				       l-1.5-0.6l-4.4-3.8c0,0-0.1-0.1-0.2-0.1c0-0.1,0-0.1,0-0.2l-1.2-5.3L190.4,295.2z"/>
  <path id="divi-15514" class="st0" d="M240.8,295.2l8.7,0.7c0.1,0,0.2,0,0.3,0l0.5-0.2l-0.2,1.2l-3.9,3.4c-0.1,0.1-0.2,0.3-0.2,0.5
				       c0,0.2,0.1,0.4,0.3,0.5l3.8,2.2l0.1,0.1l4.8,4.5l-0.8,3.3l-2.8,4.5l0,0l-4.2,5.8l-2.7,0.2l-4.2-1.4l0.1-2.1c0-0.3-0.2-0.5-0.5-0.6
				       l-6-1l-2-1.8l1.7-2.8c0.1-0.2,0.1-0.4,0-0.6l-2.5-4.1c-0.1-0.1-0.1-0.1-0.2-0.2l-0.8-0.4v0c0-0.1,0-0.2-0.1-0.2l2.3-3.6l2.7-1.8
				       c0.2,0.1,0.4,0,0.6-0.2l4.6-4.6c0,0,0.1-0.1,0.1-0.1L240.8,295.2z"/>
  <path id="divi-15299" class="st0" d="M206.6,298.6l4.8,4.8v2.6l-2.2,1.1c-0.2,0.1-0.4,0.4-0.3,0.7l0.5,1.5v0l0.2,2.4l-1,1.7
				       c0,0,0,0.1,0,0.1l-1.3,3.5l-0.8,0.4l-0.9-2.6c-0.1-0.3-0.4-0.4-0.7-0.4l-4.1,0.9c0,0,0,0-0.1,0l-4.2,1.4l-0.1,0l-4.9,0.8l-0.5-1.8
				       l1.2-0.3c0.2,0,0.3-0.1,0.4-0.3l0.7-1.2c0,0,0-0.1,0.1-0.1l0.8-2.4c0.1-0.1,0.2-0.2,0.2-0.3l1.6-3.9c0,0,0-0.1,0-0.1l0.8-2.9
				       l3.1-0.6h3.2c0.3,0,0.5-0.2,0.6-0.4l1.2-4.1c0,0,0-0.1,0-0.1L206.6,298.6z"/>
  <path id="divi-15380" class="st0" d="M185.7,301l1,4.5v0l-0.3,2.3v0l-1.3,2.9l-2.9,1l0.4-1.2c0-0.1,0-0.2,0-0.3l-0.7-4.1
				       c0-0.1,0-0.1-0.1-0.2l-1.2-2.3c0-0.1,0-0.2-0.1-0.3l2.3-1.3l0.1,0L185.7,301z"/>
  <path id="divi-15798" class="st0" d="M187.6,306.9l4,3.5c0,0,0.1,0.1,0.2,0.1l1.5,0.6l-0.8,2.2l-0.5,0.9l-3.2,0.8l-4.4-0.7l-0.1,0
				       l-2.7-1.1l0.1-0.2l4-1.3c0.2-0.1,0.3-0.2,0.3-0.3l1.4-3.2c0-0.1,0-0.1,0-0.2L187.6,306.9z"/>
  <path id="divi-15135" class="st0" d="M229.3,307.4l0.9,0.5l2.2,3.6l-1.8,2.9c-0.2,0.2-0.1,0.6,0.1,0.8l2.5,2.3
				       c0.1,0.1,0.2,0.1,0.3,0.2l5.7,1l-0.1,2.1l-4,1.1c0,0-0.1,0-0.1,0.1l-5.8,3.3c0,0-0.1,0.1-0.1,0.1l-4.3,4.5l-5.2,2.6
				       c-0.1-0.2-0.2-0.3-0.3-0.3l-3.5-1.3l-0.3-4.8c0-0.1,0-0.2-0.1-0.2l-1-1.5l0,0v0l-0.1-0.3c0-0.1-0.1-0.1-0.1-0.2l0.8-1.4
				       c0.1-0.2,0.1-0.4,0-0.5l-1.6-3.5l-0.3-4.6l4.8-0.7c0,0,0,0,0.1,0l6.4-1.8c0.1,0,0.1,0,0.2-0.1l5-3.6
				       C229.3,307.5,229.3,307.5,229.3,307.4z"/>
  <path id="divi_x5F_15425" class="st0" d="M210.7,312.3l1,0.5l0.3,5.7c0,0.1,0,0.2,0.1,0.2l1.5,3.3l-1.1,2l0,0l-6.1,4.7v0l-5.2,2.5h0
					   l-4.4,1.6l-1.5-2.2l1.3-2.9c0.1-0.1,0.1-0.3,0-0.5v0l0.1-0.1c0.1,0,0.1-0.1,0.1-0.2l1.4-3.2c0.1-0.1,0.1-0.3,0-0.5l-1.8-3.7
					   l-0.7-1.6l1.3-0.2c0,0,0.1,0,0.1,0l4.2-1.4h0.1l3.5-0.8l0.9,2.7c0.1,0.2,0.2,0.3,0.3,0.3c0.1,0.1,0.3,0.1,0.5,0l1.6-0.7
					   c0.1-0.1,0.3-0.2,0.3-0.3l1.4-3.6l0-0.1L210.7,312.3z"/>
  <path id="divi-15778" class="st0" d="M181,314.2l3,1.2c0,0,0.1,0,0.1,0l4.6,0.7c0.1,0,0.1,0,0.2,0l1.2-0.3l0.6,2.2l-0.6,1
				       c-0.3,0.1-0.5,0.3-0.5,0.6c0,0,0,0,0,0l-2.4,1.3l-3.2,0.3c-0.1-0.1-0.3-0.1-0.4-0.1l-1.3-2.7c0,0,0,0,0,0l-2.3-3.8L181,314.2z"/>
  <path id="divi-15322" class="st0" d="M178.8,315.1l2.5,4l0,0l1.3,2.7l-1.1,0.7l-3.5-0.6l-2-2.5l0.3-3.3L178.8,315.1z"/>
  <path id="divi-15022" class="st0" d="M194.4,318.2l0.8,1.9c0,0,0,0,0,0l1.7,3.5l-1.3,2.9l-1.8,1.9l-3.2,0.9l-1.9-2.2l0.1-0.1
				       c0.1,0,0.1-0.1,0.2-0.1l3.5-4.6c0,0,0-0.1,0.1-0.1l1.1-2.3c0.1-0.2,0.1-0.4,0-0.6s-0.3-0.3-0.5-0.3h-1.6l0.3-0.5L194.4,318.2z"/>
  <path id="divi-15761" class="st0" d="M190.8,320.3h1.4l-0.6,1.4v0l-3.5,4.5l-0.3,0.2h0c-0.2,0-0.4,0.2-0.5,0.4l-3.7,2.5l-0.1-2.9
				       c0-0.2-0.1-0.3-0.2-0.4l-3.5-2.7l1.8,0.3c0.1,0,0.3,0,0.4-0.1l1.7-1l3.9-0.3c0.1,0,0.2,0,0.2-0.1l2.8-1.6
				       C190.6,320.5,190.7,320.5,190.8,320.3L190.8,320.3z"/>
  <path id="divi-15667" class="st0" d="M239.1,321.9l-1.2,4.2c0,0,0,0.1,0,0.1l-0.9,7.9l-1.6,5.4l-2.6,3.4c-0.1,0.2-0.2,0.4-0.1,0.6
				       l2.6,5l0,0.1l0.4,1.4l-1.6,2.2c0,0,0,0,0,0l-2.1,3.6c0,0.1-0.1,0.2-0.1,0.2l-0.2,4.8l-2.8,0.9l-8.6-1.2l-0.1,0l-4.7-1.9
				       c0,0,0,0-0.1,0l1.9-3.2l0,0l2.2-1.8c0.2-0.2,0.3-0.4,0.2-0.7l-2.7-5.3c-0.1-0.2-0.3-0.3-0.5-0.3h-4.4l0.3-1.1l3.2-1.2
				       c0.2-0.1,0.3-0.2,0.3-0.3c0.1-0.1,0.1-0.3,0-0.5l-1.7-3.7l0.1-1.9l3.8-2.2c0.1-0.1,0.2-0.2,0.2-0.3l0.6-2.3l6-3
				       c0.1,0,0.1-0.1,0.2-0.1l4.4-4.6l0-0.1l5.7-3.2L239.1,321.9z"/>
  <path id="divi-15325" class="st0" d="M177.9,323.4c0,0,0.1,0.1,0.1,0.1l4.2,3.2l0.2,3.2l-0.2,2.1l-6.3-0.5c-0.1,0-0.2,0-0.2,0
				       l-2-1.2c0,0,0,0-0.1,0l1-4.3l2.2-2l0,0L177.9,323.4z"/>
  <path id="divi-15690" class="st0" d="M213.2,324.8l0.9,1.4l0.4,5c0,0.2,0.2,0.4,0.4,0.5l3.4,1.2l0,0.1c-0.2,0.2-0.3,0.4-0.2,0.7
				       l-0.5,1.8l-3.9,2.2c-0.2,0.1-0.3,0.3-0.3,0.4l-0.2,2.3c0,0.1,0,0.2,0.1,0.3l1.5,3.3l-2.9,1c-0.2,0.1-0.3,0.2-0.4,0.4l-0.5,2.1
				       c0,0.2,0,0.4,0.1,0.5c0.1,0.1,0.3,0.2,0.5,0.2h4.8l2.3,4.6l-1.9,1.7c-0.1,0-0.1,0.1-0.1,0.2l-2.4,4l-0.7-0.3l2.3-3.5
				       c0.1-0.2,0.1-0.4,0.1-0.6l-1.1-2.3c-0.1-0.2-0.3-0.3-0.5-0.3l-4.2-0.4c-0.2,0-0.3,0.1-0.4,0.2l-1.7,1.7l-1.9,0.5l-2.1-4.2
				       c0-0.1-0.1-0.1-0.1-0.2l-2.5-2.6v0c-0.1-0.2-0.2-0.3-0.3-0.3c0,0,0,0-0.1,0l-1.3-1.4v-2.6c0,0,0-0.1,0-0.1l-0.3-1.9l3.1-2.1
				       c0.1-0.1,0.1-0.2,0.2-0.2l1.2-2.7c0-0.1,0.1-0.2,0.1-0.2l-0.2-4l2.7-1.2c0.2,0,0.3,0,0.5-0.1L213.2,324.8
				       C213.1,324.9,213.2,324.9,213.2,324.8z"/>
  <path id="divi-15236" class="st0" d="M187.8,327.8l2.2,2.6c0.2,0.2,0.4,0.2,0.6,0.2l3.7-1.1c0,0,0.1,0,0.1,0l-0.4,1
				       c-0.1,0.2,0,0.4,0.1,0.5l1.8,2.7c0.2,0.3,0.5,0.3,0.8,0.2l0.1,0.2l4.4-1.7l0,0l0.3-0.2l1-0.5l0.2,3.4l-1.1,2.3l-3.2,2.2
				       c-0.2,0.1-0.3,0.3-0.2,0.6l0.3,2.2v0.1v2l-1.7,0.2v-1.1c0,0,0-0.1,0-0.1l-1.2-4.6c0,0,0-0.1-0.1-0.1l-2.1-3.6l-1.6-2.7
				       c-0.1-0.2-0.3-0.3-0.4-0.3l-7.9-0.7l0.1-1L187.8,327.8z"/>
  <polygon id="divi-15401" class="st0" points="82.8,250.1 85.3,250.1 87.3,250.5 88.5,251.5 87.7,252.9 88,254.9 86.5,254.9 
					       86.4,256.3 86,257.6 81.3,257.5 81.2,250.3 "/>
</svg>
