<?xml version="1.0" encoding="utf-8"?>
<!-- Generator: Adobe Illustrator 20.1.0, SVG Export Plug-In . SVG Version: 6.00 Build 0)  -->
<svg version="1.1"
	 id="arauca" inkscape:output_extension="org.inkscape.output.svg.inkscape" inkscape:version="0.46" sodipodi:docname="departamentos_colombia_plain.svg" sodipodi:version="0.32" xmlns:cc="http://creativecommons.org/ns#" xmlns:dc="http://purl.org/dc/elements/1.1/" xmlns:inkscape="http://www.inkscape.org/namespaces/inkscape" xmlns:rdf="http://www.w3.org/1999/02/22-rdf-syntax-ns#" xmlns:sodipodi="http://sodipodi.sourceforge.net/DTD/sodipodi-0.dtd" xmlns:svg="http://www.w3.org/2000/svg"
	 xmlns="http://www.w3.org/2000/svg" xmlns:xlink="http://www.w3.org/1999/xlink" x="0px" y="0px" viewBox="0 0 468 192"
	 style="enable-background:new 0 0 468 192;" xml:space="preserve">
<style type="text/css">
	.st0{fill:none;stroke:#2C5AA0;stroke-miterlimit:10;}
</style>
<path id="divi-81001" class="st0" d="M267.1,22.7l18.9,7.4l26.9,11.5c0.1,0.1,0.3,0.1,0.4,0l12.2-4.7l10.6,1.2l45.1,52.6l-4.3,2.2
	l-6.2-0.6l-3.4-3.4c-0.1-0.1-0.2-0.1-0.2-0.1l-5.3-1.8c0,0,0,0-0.1,0l-8.9-1.8c0,0,0,0-0.1,0l-12.5-1.2v0L330,82.1c0,0,0,0-0.1,0
	l-7.7-0.6h-0.1l-9.3-4.1l-0.1,0l-10.7-5.9c-0.1,0-0.1-0.1-0.2-0.1l-7.6-1.2l-0.1,0l-5.3-1.8c-0.2-0.1-0.5,0-0.7,0.2l-17.6,26.1
	c-0.1-0.1-0.3-0.2-0.5-0.1c-0.2,0-0.3,0.2-0.4,0.3l-5.5-6l-3-5.3c-0.2-0.3-0.5-0.4-0.8-0.2l-5.7,3.4l-8.7-4.6c0,0-0.1,0-0.1,0
	l-8.3-2.4c-0.1,0-0.2,0-0.3,0l-3.7-2.3l-6.4-4.1l-6.5-9.4l0-0.1l-1.6-3.2l1.7-4.6c0.1-0.3,0-0.5-0.2-0.7l-5.4-3c0,0-0.1,0-0.1,0
	l-8.3-2.4l-7.2-2.4c-0.1,0-0.1,0-0.2,0h-1.5l10.2-9.7c0.1-0.1,0.1-0.1,0.1-0.2l1.4-3.1l0.1,0c0,0,0,0,0,0c0,0,2.6,0.8,5.6,1.5
	c1.5,0.4,3,0.6,4.4,0.8c1.4,0.2,2.5,0.3,3.3-0.1c0.7-0.3,1.6-0.9,2.6-1.7c1-0.8,2.1-1.7,3.2-2.7c2-1.8,3.6-3.3,3.8-3.4l17.8-4.2v0
	L267.1,22.7z"/>
<path id="divi-81736" class="st0" d="M131.8,27.4c0,0.1,0,0.1,0,0.2l-0.3,22.9c-0.2,0-0.4,0.2-0.5,0.4c-0.1,0.2,0,0.5,0.2,0.6
	l0.3,0.2V52l-7.7,7.1L87,63.8l3.3-4c0.1-0.1,0.1-0.3,0.1-0.4l-0.3-4.1l2.6-6.7l0-0.1l4.1-7.6c0,0,0,0,0-0.1l2.1-5.4c0,0,0,0,0,0
	l0.6-1.7L131.8,27.4z"/>
<path id="divi-81065" class="st0" d="M132.9,27.6l9.7,2c0,0,0.1,0,0.1,0l22,1.1c0,0,0,0,0,0l34-0.1l9.9,3.7l-1.3,2.9l-11.2,10.7
	c-0.2,0.2-0.2,0.4-0.2,0.6c0.1,0.2,0.3,0.4,0.5,0.4h2.9l7.1,2.4l8.3,2.4h0l4.8,2.7l-1.6,4.3c0,0.1,0,0.3,0,0.4l1.8,3.6
	c0,0,0,0,0.1,0.1l6.5,9.5c0.1,0.1,0.1,0.1,0.2,0.2l6.5,4.2c0,0,0,0,0,0l4.6,2.8l2.1,10.6l-6.2-2.6c0,0,0,0-0.1,0l-4.8-1.2
	c-0.1,0-0.1,0-0.2,0l-6.6,0.6l-9.5,1.2c0,0,0,0,0,0l-6.9,1.1l-3.3-3.3c-0.1-0.1-0.3-0.2-0.5-0.2l-6.3,1.1l-3.3-3.3
	c-0.2-0.2-0.4-0.2-0.7-0.1l-5.2,2.3l-8.6-0.6l-15.7-12.5v0c0-0.2-0.1-0.4-0.2-0.5l-29.1-22.7L132.9,27.6
	C132.9,27.6,132.9,27.6,132.9,27.6z"/>
<path id="divi-81300" class="st0" d="M132.5,52.6l27.1,21.1c0,0.1,0,0.3,0.1,0.4l-10.3,2.1h-0.1l-8.7,0.6l-6.4-4.1
	c-0.1-0.1-0.2-0.1-0.3-0.1l-10.7,0.6h-0.1l-8.8-2.3c-0.1,0-0.3,0-0.4,0l-8.3,4.2c-0.1,0-0.1,0.1-0.2,0.2l-5.4,7.1h0l-7.7,8.3l0,0
	l-8.7,5.2H75l2.3-3c0.1-0.1,0.1-0.2,0.1-0.3v-4.1l1.5-2.4c0.1-0.2,0.1-0.4,0-0.6l-1.8-2.7l1.3-3.4l4.5-5.5c0.1-0.1,0.1-0.2,0.1-0.2
	l1-3.9c0,0,0-0.1,0-0.1l0.2-2.6c0.2,0,0.3-0.2,0.4-0.3c0.1-0.2,0.1-0.3,0-0.5l0-0.1l0.5-0.1c0.1,0,0.2-0.1,0.3-0.2l0.5-0.6
	c0,0,0.1,0,0.1,0l38.1-4.9c0.1,0,0.2-0.1,0.3-0.2L132.5,52.6C132.5,52.7,132.5,52.6,132.5,52.6z"/>
<path id="divi-81220" class="st0" d="M289.1,69.7l4.9,1.7c0,0,0.1,0,0.1,0l7.7,1.2h0l10.5,5.9c0,0,0,0,0,0l9.5,4.2
	c0.1,0,0.1,0.1,0.2,0.1l7.7,0.6h0l10.1,1.8c0,0,0,0,0,0l12.5,1.2h0l8.8,1.8l0.1,0l5.2,1.8l3.4,3.5c0.1,0.1,0.2,0.1,0.3,0.2l6.6,0.6
	c0.1,0,0.2,0,0.3-0.1l4.8-2.4l42.4,49.4c0.1,0.2,0.4,0.2,0.6,0.2l2.3-0.5l-4.8,5.3l-14.1,5.8l-11.1-1.8c-0.1,0-0.2,0-0.2,0l-5.8,1.7
	l-8.1-3.5c-0.1-0.1-0.3-0.1-0.5,0l-6.4,2.9l-0.2-0.1l0.1-0.2c0.2-0.3,0.1-0.6-0.1-0.8c-0.3-0.2-0.6-0.1-0.8,0.1l-0.3,0.4l-6.6-2.4
	l-0.3-0.7l0.3-0.2c0.1-0.1,0.2-0.2,0.3-0.4c0-0.2,0-0.3-0.2-0.5l-0.6-0.6c-0.2-0.2-0.5-0.2-0.7-0.1l-2.2-4c-0.1-0.1-0.1-0.2-0.2-0.2
	L357,137c-0.1-0.1-0.2-0.1-0.4-0.1L350,138l-1.1-4.8c0-0.1-0.1-0.2-0.2-0.3L333.9,121c-0.1-0.1-0.2-0.1-0.4-0.1h-6.6c0,0,0,0-0.1,0
	l-8.9,1.2l-14.2-1.8c-0.1,0-0.2,0-0.3,0.1l-10,5.3l-13,1.8c0,0,0,0,0,0l-18.4,3.4c-0.1-0.1-0.2-0.2-0.3-0.3l8.8-33.5
	c0.1,0,0.3-0.1,0.3-0.2L289.1,69.7z"/>
<path id="divi-81794" class="st0" d="M114.3,72l8.7,2.3c0.1,0,0.1,0,0.2,0l10.5-0.6l6.4,4.1c0.1,0.1,0.2,0.1,0.4,0.1l8.9-0.6
	c0,0,0,0,0.1,0l11.3-2.2l14.2,11.2c0,0,0,0,0,0c0,0.2,0.1,0.3,0.2,0.4l1.8,1.2l11.1,7.6l1.2,26.5c-0.3,0-0.5,0.2-0.6,0.5
	c0,0,0,0,0,0l-5.6,2.5l-7,2.9l-10.6-1.2c-0.2,0-0.3,0-0.5,0.2l-2.8,2.9l-5.7,1.7l-4.6-1.2c-0.1,0-0.2,0-0.2,0l-5.2,1.1l-9.3-5.2
	c-0.1-0.1-0.3-0.1-0.5,0l-16,5.9l-0.1,0l-7.7,1.8c-0.1,0-0.2,0.1-0.2,0.1l-5.7,4.5l-7.4-4.6c-0.2-0.1-0.4-0.1-0.6,0l-8.3,5.3l0,0
	l-7.6,2.3c-0.2,0-0.3,0.2-0.4,0.3c-0.1,0.2-0.1,0.4,0,0.5c0,0-0.1,0.1-0.1,0.1l-1.7,3l0,0l-3.1,2.8l-4.3,1l-2.4-2.7c0,0,0,0,0,0
	l-4.4-4.4c-0.1-0.1-0.4-0.2-0.6-0.2c-0.2,0.1-0.4,0.2-0.4,0.4l-4.8-0.6c0-0.1-0.1-0.2-0.2-0.3l-1.6-1.9c-0.1-0.1-0.2-0.1-0.2-0.2
	l-6.9-2.4l-5.8-6.1c0,0,0,0,0,0l-4.5-4.7c0,0,0-0.1,0.1-0.2l1.8-5.9l4.5-5.8h0c0.1,0,0.3,0,0.4-0.1l6.9-5.1c0.1-0.1,0.2-0.2,0.2-0.3
	l1-4.2c0-0.2,0-0.3-0.1-0.5l-1.8-2.6l0.5-1.8l3.7,0.7l2,2.8c0.1,0.1,0.2,0.2,0.4,0.2l4.4,0.7c0.2,0,0.3,0,0.4-0.1l6.7-5.6
	c0,0,0.1-0.1,0.1-0.1l1.2-1.6c0.1,0,0.1,0,0.2,0h9.5c0.1,0,0.2,0,0.3-0.1l8.9-5.4c0,0,0.1-0.1,0.1-0.1l7.8-8.3c0,0,0,0,0,0l5.3-7.1
	L114.3,72z"/>
<path id="divi-81591" class="st0" d="M238.8,81.3l6.8,1.9l8.9,4.8c0.2,0.1,0.4,0.1,0.6,0l5.4-3.3l2.7,4.8c0,0,0,0.1,0.1,0.1l6.1,6.6
	l-8.8,33.6l-8.5-4.8c-0.1-0.1-0.3-0.1-0.5,0l-4.7,1.8H247l-0.1,0l-8.8,1.2h-0.1l-8.8,0.6l-10-3.5l-7.2-2.4c-0.2,0-0.3,0-0.5,0.1
	l-4,2.2l-6.3-2.3c0,0,0,0-0.1,0l-5.4-1.2c-0.2,0-0.3,0-0.5,0.1l-2.7,2.2l-2.3-1.2l-1.2-27.4c0-0.2-0.1-0.3-0.2-0.4l-9.7-6.6l6.9,0.5
	c0.1,0,0.2,0,0.3,0l5-2.2l3.3,3.3c0.1,0.1,0.3,0.2,0.5,0.2l6.2-1.1L205,92c0.1,0.1,0.3,0.2,0.5,0.2l7.2-1.2l9.5-1.2l6.3-0.6h0.1
	l4.6,1.2l0.1,0l7.1,3c0.2,0.1,0.4,0,0.6-0.1c0.2-0.1,0.2-0.4,0.2-0.6L238.8,81.3z"/>
</svg>
