<?xml version="1.0" encoding="utf-8"?>
<!-- Generator: Adobe Illustrator 20.1.0, SVG Export Plug-In . SVG Version: 6.00 Build 0)  -->
<svg version="1.1"
     id="bolivar" inkscape:output_extension="org.inkscape.output.svg.inkscape" inkscape:version="0.46" sodipodi:docname="departamentos_colombia_plain.svg" sodipodi:version="0.32" xmlns:cc="http://creativecommons.org/ns#" xmlns:dc="http://purl.org/dc/elements/1.1/" xmlns:inkscape="http://www.inkscape.org/namespaces/inkscape" xmlns:rdf="http://www.w3.org/1999/02/22-rdf-syntax-ns#" xmlns:sodipodi="http://sodipodi.sourceforge.net/DTD/sodipodi-0.dtd" xmlns:svg="http://www.w3.org/2000/svg"
     xmlns="http://www.w3.org/2000/svg" xmlns:xlink="http://www.w3.org/1999/xlink" x="0px" y="0px" viewBox="0 0 364 616"
     style="enable-background:new 0 0 364 616;" xml:space="preserve">
  <path id="divi-13655" class="st0" d="M207.6,360.3l1.2,7.5c0,0,0,0.1,0,0.1l1.1,3.3c0,0.1,0.1,0.2,0.1,0.2l2.1,2.1l-2.8,3.3
				       l-7.5,0.5c-0.1,0-0.1,0-0.2,0l-10.5,4.7c-0.1,0.1-0.2,0.2-0.3,0.3l-1.7,3.8c-0.1,0.1-0.1,0.3,0,0.5l5.2,11c0,0.1,0.1,0.1,0.1,0.2
				       l3.7,3.7v0.7l-6.8-3.6l0,0l-0.1,0l-10.1-8.2c0,0-0.1,0-0.1-0.1l-5.7-3l0,0l-0.1,0l-2.6-2.2l5.1-3.4c0.2-0.1,0.3-0.3,0.3-0.5
				       c0-0.2-0.1-0.4-0.2-0.5l1.5-2.5l3.5-2.2h0.1l5.5-1.1c0.1,0,0.2,0,0.2-0.1l5.2-4.1c0,0,0,0,0,0l3.6-3.3c0.1-0.1,0.1-0.2,0.2-0.3
				       l1.5-6.2l4.6,2.2c0.2,0.1,0.4,0,0.6-0.1L207.6,360.3z"/>
  <path id="divi-13673" class="st0" d="M112.9,74.4l2.6,2.6c0,0,0,0,0,0c-0.2,0.2-0.2,0.4-0.1,0.6l1.6,4.6l0.2,3.6l-2.8,0.7
				       c-0.2,0-0.4,0.2-0.4,0.4l-1.1,3.9c0,0.1,0,0.1,0,0.2v3c0,0,0,0.1,0,0.1v0.2c0,0.2,0.2,0.4,0.4,0.5h0l2.1,3.8l-2.3,0.9l-1-5.1
				       c0-0.1-0.1-0.3-0.2-0.3l-7.2-5.2l0.4-3.4l4.6-1.1c0.3-0.1,0.5-0.4,0.4-0.7v0c0,0,0,0,0,0l1.1-3.2c0-0.1,0.1-0.2,0-0.3l-0.7-3
				       l0.8-0.8c0,0,0,0,0,0L112.9,74.4z"/>
  <path id="divi-13001" class="st0" d="M109.7,78.1l0.5,2l-1.1,3.2l-4,0.9c-0.1-0.2-0.4-0.3-0.6-0.2c-0.2,0.1-0.4,0.3-0.4,0.5
				       l-0.5,4.5v0l-3.6,7.1c0,0.1-0.1,0.1-0.1,0.2l-2.4,3.6c-0.1,0.1-0.1,0.2-0.1,0.3l-0.2,6.3l-3.3,2.3c0,0-0.1,0.1-0.1,0.1l-2.2,2.8
				       c-0.1,0.1-0.1,0.3-0.1,0.4c0,0.2,0.1,0.3,0.2,0.4l1.8,1.3l-2.8,1c-0.2,0.1-0.4,0.3-0.4,0.5l-0.3,5.5c0,0.1,0,0.3,0.1,0.4l1.5,2.2
				       l-5,0.5c-0.2,0-0.4,0.2-0.5,0.4l-0.6,1.9c0,0.2,0,0.4,0.1,0.5l3.5,4.2l-1.1,0.7l-0.1,0l-3.7,1c-0.2,0.1-0.4,0.3-0.4,0.5l-0.5,5.8
				       c0,0.1,0,0.2,0,0.3l2.5,5.8l-1.9,0.7c-0.1-0.1-0.3-0.1-0.5-0.1s-0.3,0.2-0.4,0.3c0,0,0,0,0,0l-2.1,0.7c0,0,0,0-0.1,0l-3.2,1.5
				       l-1.6-1.6l4.8-6.3c0.1-0.1,0.1-0.3,0.1-0.4l-0.6-5.6c0-0.2-0.1-0.4-0.3-0.5c-0.2-0.1-0.4-0.1-0.6,0l-16.5,10.2l2.8-2.8
				       c0.1-0.1,0.1-0.1,0.2-0.2l2.7-8.2l6.1-3.7l3.8,0.5c0.2,0,0.4-0.1,0.5-0.2l3.5-4.7c0.1-0.1,0.1-0.2,0.1-0.4l-0.4-7.4
				       c0-0.1-0.1-0.3-0.2-0.4l-4.8-4.7l6-5.7l1.8,4.7l0.1,0.2c0.1,0.2,0.4,0.4,0.6,0.3s0.5-0.3,0.5-0.5l0.2-5.9c0,0,0-0.1,0-0.1l-1.2-7.8
				       c0,0,0-0.1,0-0.1L83.9,93l3.7-2.5c0,0,0.1-0.1,0.1-0.1l8-8.5l12.4-2.4c0.1,0,0.2-0.1,0.3-0.2L109.7,78.1z"/>
  <path id="divi-13222" class="st0" d="M104.4,90l6.6,4.8l0.9,4.8l-1.1-0.1l0,0c-0.2-0.1-0.4-0.1-0.6,0l-3.9-0.3l-2.1-2.6
				       c-0.1-0.1-0.2-0.2-0.3-0.2l-2.5-0.4L104.4,90z"/>
  <path id="divi-13683" class="st0" d="M100.9,97l2.7,0.5l2,2.6c0.1,0.1,0.3,0.2,0.4,0.2l3.9,0.3v6.2l-1.8,3.2l-3.7,1.3
				       c-0.1-0.1-0.3-0.1-0.4-0.1l-9.1,2.2l-2.1-1.4l1.7-2.2l0.1,0l3.5-2.4c0.1-0.1,0.2-0.3,0.2-0.5l0.3-6.4L100.9,97z"/>
  <path id="divi-13873" class="st0" d="M116.1,99.5l2.4,2.9c0.1,0.1,0.2,0.1,0.2,0.2l6.7,2.4l1.4,1.5l-6.9,3l-3.3,0.6
				       c-0.3,0-0.5,0.2-0.5,0.5l-0.8,6l-3.4,2.2l-2.2-1.2l-1.8-3.7c-0.1-0.1-0.1-0.2-0.2-0.2l-2.4-1.3l3.5-1.2c0.1,0,0.2-0.1,0.3-0.2
				       l1.9-3.6c0-0.1,0.1-0.2,0.1-0.3v-6.2l1.4,0.1h0.1c0.1,0,0.1,0,0.2,0h0.1h0.1c0.2,0,0.4-0.1,0.5-0.2v0L116.1,99.5z"/>
  <path id="divi-13647" class="st0" d="M127.8,107.3l1.7,1.8l0.8,2.4l-1.5,1.3c-0.1,0.1-0.2,0.2-0.2,0.4l-0.8,7.6l-2.9,5.6l-4.2-0.2
				       c-0.2,0-0.3,0.1-0.4,0.2l-2.2,1.9l-1.3-3.3l0-0.1l-0.5-2.4c-0.1-0.3-0.3-0.5-0.6-0.4l-3,0.2v-1.9c0.3,0.1,0.6,0,0.8-0.2
				       c0.1-0.3,0-0.6-0.2-0.8l-0.1,0l3.1-2c0.1-0.1,0.2-0.2,0.2-0.4l0.8-5.9l2.9-0.5c0.1,0,0.1,0,0.2-0.1L127.8,107.3z"/>
  <path id="divi-13836" class="st0" d="M103.5,112.6C103.5,112.6,103.5,112.6,103.5,112.6C103.5,112.6,103.5,112.6,103.5,112.6
				       l3.5,1.9l1.8,3.7c0.1,0.1,0.1,0.2,0.2,0.2l2.4,1.3v2.3l-2.8,0.2c-0.1,0-0.3,0.1-0.4,0.2l-4.2,4.4l-4.3-1c-0.2,0-0.3,0-0.5,0.1
				       c-0.1,0.1-0.2,0.2-0.2,0.4l-0.2,2.5c-0.2,0-0.3,0-0.5,0.2l-0.9-0.3l-4.2-5c0,0,0,0,0,0l0-0.1c0,0-0.1-0.1-0.1-0.1c0,0,0,0,0,0
				       l-0.2-0.2l0-0.1l-1.8-2.5l0.2-4.9l3.4-1.2l0.1,0l0.1,0L103.5,112.6z"/>
  <path id="divi-13760" class="st0" d="M130.8,112.6c0.1,0.1,0.2,0.1,0.3,0.1l6.5,0.2l-1.3,1.4l-2.4,1.1c-0.1,0.1-0.3,0.2-0.3,0.3
				       l-0.8,2.8c-0.1,0.2,0,0.5,0.2,0.6l2.8,2.2c0.1,0.1,0.2,0.1,0.2,0.1l3.8,0.8c0,0,0,0,0,0l-0.2,0.8l-2.1,1.8c-0.1,0.1-0.1,0.1-0.1,0.2
				       l-1.7,3.7l-3.5,1.2l-2.8-2c-0.1-0.1-0.2-0.1-0.2-0.1l-3.5-0.4c0.1-0.1,0.1-0.3,0.1-0.4c0,0,0,0,0,0l3-5.7c0-0.1,0.1-0.1,0.1-0.2
				       l0.8-7.5L130.8,112.6z"/>
  <path id="divi-13620" class="st0" d="M139.2,112.9l5.9,4.5l-4.7,2.8c-0.1,0.1-0.2,0.2-0.2,0.4l-0.1,0.7c0,0,0,0,0,0l-3.8-0.8
				       l-2.3-1.9l0.7-2.1l2.2-1c0.1,0,0.1-0.1,0.2-0.2L139.2,112.9z"/>
  <path id="divi-13140" class="st0" d="M146.6,117.8l-5.3,3.2l-0.5,2.5c0,0.1-0.1,0.2-0.2,0.3l-2.1,1.9l-1.5,3.2l2.8-2.6
				       c0.1-0.1,0.3-0.1,0.4-0.1s0.3,0.1,0.4,0.2l1.9,2.7l1.8-0.7c0.1,0,0.1,0,0.2,0h1.6l0-0.3c1,0.2,3.1,0.7,4,1.5
				       c1.2,1.1,2.8,5.2,2.8,5.2l0.3,2.5l-7.6,0.7l-3.9,3.3l-1.1,2.9c-0.1,0.3-0.4,0.4-0.7,0.4c0,0,0,0,0,0l-2.5,1.8l0.4,1.4h4.4
				       c0.1,0,0.3,0,0.4,0.1l1.6,1.5c0.2-0.3,0.5-0.3,0.8-0.2c0.3,0.1,0.4,0.4,0.3,0.7l5.7-1l4.3-1.9c0,0,0,0,0.1,0l1.3-0.4c0,0,0,0,0.1,0
				       h0v0l-0.5-4.8c0-0.1,0-0.3,0.1-0.4l1.9-2.7l0.8-4.8c0-0.2,0.1-0.3,0.2-0.4c0.1-0.1,0.3-0.1,0.5-0.1l0.8-2.2l-4.7-3.9v0.1l-1.7-2.8
				       l-2.1-2.4h0.2L146.6,117.8z"/>
  <path id="divi-13052" class="st0" d="M111.6,123.2c0.1,0.2,0.3,0.3,0.5,0.2l3.1-0.2l0.5,2c0,0,0,0.1,0,0.1l1.6,3.9l-4.2,3.7
				       c-0.2,0.2-0.3,0.5-0.1,0.8l2.3,3.9l-0.7,2.9l-3.8,3.8c-0.1,0.1-0.2,0.3-0.1,0.5c0.1,0.2,0.2,0.3,0.4,0.4l3.7,1.1l0.1,0l2.6,1.5
				       l0.8,2l-5.2,2.2c0,0-0.1,0-0.1,0l-11.3-0.3c-0.1,0-0.3,0-0.4,0.1l-5.5,4.1c0,0,0,0-0.1,0.1l-3,3.3l-2.4-1.2c-0.1,0-0.1-0.1-0.2-0.1
				       l-2.7-0.3l-4.3-2.2l2.5-5c0.1-0.1,0.1-0.3,0-0.4l-1.1-3.4l2.4-0.8c0.1-0.1,0.3-0.2,0.3-0.3c0.1-0.1,0.1-0.3,0-0.4l0-0.1l3.7-0.5
				       c0.2,0,0.3-0.1,0.4-0.3l1.7-3c0.1-0.1,0.1-0.3,0-0.4l-0.7-2.9h3.7c0.2,0,0.3-0.1,0.4-0.2l3.6-3.3c0.2-0.1,0.2-0.3,0.2-0.5l-0.6-3.5
				       c0.2-0.1,0.3-0.3,0.3-0.5l0.2-2.9l4,1c0.2,0,0.4,0,0.6-0.2l4.3-4.5L111.6,123.2z"/>
  <path id="divi-13062" class="st0" d="M152.2,136.4l-0.1-1.7l-2.4-4.2l-3.2-1.8l0,0.4c0,0.2-0.1,0.3-0.2,0.4
				       c-0.1,0.1-0.3,0.2-0.4,0.2l-1.3-0.1l-2.1,0.8c-0.2,0.1-0.5,0-0.7-0.2l-1.8-2.5l-2.7,2.4v3.3v5c0,0.1,0,0.2-0.1,0.3l-1.6,2.8l4.1,1.9
				       l0.9-2.4c0-0.1,0.1-0.2,0.2-0.2l4.2-3.6c0.1-0.1,0.2-0.1,0.3-0.1L152.2,136.4z"/>
  <path id="divi-13838" class="st0" d="M92.5,124.6l4.2,5c0.1,0.1,0.2,0.1,0.2,0.2l1.4,0.5l0.7,3.7l-3.2,3h-4.2
				       c-0.2,0-0.3,0.1-0.4,0.2c-0.1,0.1-0.2,0.3-0.1,0.5l0.8,3.3l-1.4,2.6l-3.8,0.5l-2.2-5l0.5-5.2l3.5-1c0.1,0,0.1,0,0.2-0.1l1.7-1.1
				       c0.1-0.1,0.2-0.2,0.2-0.4c0-0.2,0-0.3-0.1-0.4l-3.7-4.5l0.4-1.2L92.5,124.6z"/>
  <path id="divi-13433" class="st0" d="M120.8,127.3l3.4,0.2v0c-0.1,0.2-0.1,0.4,0,0.5c0.1,0.2,0.3,0.3,0.4,0.3l4.3,0.6l2.9,2.1
				       c0.1,0.1,0.3,0.1,0.5,0.1l3.4-1.1c0.2,0.1,0.4,0.1,0.5,0v3.3v4.8l-1.8,3.2c-0.1,0.1-0.1,0.3-0.1,0.5c0,0.2,0.2,0.3,0.3,0.4l4.1,2
				       l-2.3,1.8c-0.2,0.1-0.3,0.4-0.2,0.6l0.9,3l-3,0.9l-1.4-1.2c-0.2-0.2-0.4-0.2-0.7-0.1l-7.2,4.2c-0.2,0.1-0.3,0.3-0.3,0.4l-0.3,2.6
				       l-1.4,2.1l-2.4-0.2V156V156l0.3-2.7c0-0.2,0-0.4-0.2-0.5s-0.4-0.2-0.5-0.1l-3.9,1.1l-2.1-0.8l5-2.2c0.3-0.1,0.4-0.5,0.3-0.8
				       l-1.1-2.8c0-0.1-0.1-0.2-0.2-0.3l-2.8-1.7c0,0-0.1,0-0.1-0.1l-2.9-0.8l3.2-3.2c0.1-0.1,0.1-0.2,0.1-0.2l0.8-3.3c0-0.1,0-0.3-0.1-0.4
				       l-2.2-3.7l4.3-3.8c0.1-0.1,0.2-0.3,0.2-0.4c0,0,0,0,0,0L120.8,127.3z"/>
  <path id="divi-13248" class="st0" d="M157.4,147.8l9.5,2.9l5.4,4.1c0,0,0,0,0,0c0,0,0,0,0,0c0,0.1,0,0.2,0.1,0.3l3.2,5.4v0l-0.5,5.5
				       l-2.5-0.2c-0.1,0-0.2,0-0.3,0.1l-5.5,2.8c0,0-0.1,0-0.1,0.1l-3.8-2.2c-0.1,0-0.2-0.1-0.3-0.1h-4.9c-0.1,0-0.2,0-0.3,0.1l-4.2,2.3
				       l-2.2-1.2c0,0-0.1,0-0.1,0l-4-1.3l1.9-1.6c0.2-0.2,0.3-0.4,0.2-0.7l-1.4-3.3c-0.1-0.2-0.3-0.3-0.5-0.3l-5.8-0.5l0.2-4l2.8-4.6
				       c0.1,0,0.2,0,0.2,0l6.3-1.1c0,0,0.1,0,0.1,0l4.3-1.9l0.1,0L157.4,147.8z"/>
  <path id="divi-13657" class="st0" d="M138.3,149.1h3.8l1.7,1.5l-3,4.8c-0.1,0.1-0.1,0.2-0.1,0.2l-0.3,4.7c0,0.2,0,0.3,0.1,0.4
				       c0.1,0.1,0.2,0.2,0.4,0.2l6,0.5l1.1,2.6l-2.4,1.9c-0.2,0.1-0.2,0.3-0.2,0.6s0.2,0.4,0.4,0.4l4.9,1.7l2.4,1.3c0.2,0.1,0.4,0.1,0.5,0
				       l4.3-2.4h4.6l3.9,2.3l-0.7,3.9c0,0.1,0,0.1,0,0.2l1.2,6.9l-2.7,1.2l-5.2,0.3l-1.8-1.5c0,0-0.1-0.1-0.1-0.1l-0.6-0.3l0,0
				       c-0.1-0.2-0.3-0.3-0.5-0.3c0,0,0,0,0,0l-3-1.6c-0.2-0.1-0.5-0.1-0.7,0.1l-1.9,1.9l-2.7-1c-0.1,0-0.2-0.1-0.3,0l-4.5,0.8l-1.5-3.5
				       c-0.1-0.2-0.2-0.3-0.4-0.3s-0.4,0-0.5,0.1l-3.2,2.2l-5.7-5.7c-0.1-0.1-0.3-0.2-0.5-0.2l-4.8,0.5l-4.1-1.1c-0.2-0.1-0.4,0-0.5,0.1
				       l-2.6,2.3c-0.1,0-0.1,0-0.2,0c0,0,0,0,0,0l-1.7-1.5l1.2-2.9l2.8-6.1c0-0.1,0.1-0.2,0-0.3l-0.9-4.8l2.8,0.2c0.2,0,0.4-0.1,0.5-0.3
				       l1.6-2.5c0.1-0.1,0.1-0.2,0.1-0.2l0.2-2.5l6.5-3.8l1.4,1.1c0.2,0.1,0.3,0.2,0.5,0.1l3.9-1.1c0.3-0.1,0.5-0.4,0.4-0.7L138.3,149.1z"
	/>
  <path id="divi-13442" class="st0" d="M101.8,153l10.3,0.2c0.1,0.1,0.2,0.2,0.3,0.2l3.6,1.4c0.1,0.1,0.3,0.1,0.4,0l3.3-0.9l-0.2,1.9
				       c0,0,0,0,0,0.1v2.2c-0.2,0.1-0.3,0.4-0.2,0.6l1.1,5.3l-2.7,5.9c0,0,0,0,0,0l-1.4,3.3c-0.1,0.2,0,0.5,0.1,0.6l1.4,1.2l-2.7,0.6h0
				       l-8.1,1.1l-6.5-1.9c0,0,0,0-0.1,0l-7.7-1.4c-0.1,0-0.3,0-0.4,0.1l-2.8,1.4l1.7-8.2c0-0.1,0-0.2,0-0.2l-1.8-7.3l0.5,0.1l2.7,1.3
				       c0.2,0.1,0.5,0.1,0.7-0.1l3.2-3.5l0,0l0.1-0.1L101.8,153z"/>
  <path id="divi-13654" class="st0" d="M122.4,173.7l3.8,1c0.1,0,0.1,0,0.2,0l4.7-0.5l5.9,5.9c0.2,0.2,0.5,0.2,0.7,0.1l3-2.1l1.4,3.2
				       c0.1,0.2,0.4,0.4,0.6,0.3l4.8-0.8l2.9,1.1c0.2,0.1,0.4,0,0.6-0.1l1.9-1.9l2.6,1.4l-0.5,4.2c0,0.2,0,0.3,0.1,0.4l2.6,2.8l-4.1,2.4
				       c-0.2,0.1-0.3,0.3-0.3,0.5v1.8l-3.3-0.4l-2.3-2.8c-0.1-0.2-0.3-0.3-0.6-0.2l-5.8,1.1c0,0,0,0,0,0l-3.3,0.8c-0.1,0-0.1,0-0.2,0.1
				       l-3,1.8l-3.5-2.5c-0.1,0-0.1-0.1-0.2-0.1l-4.7-1.1c0,0-0.1,0-0.1,0l-6.8-0.3l-0.9-1.9l0.8-5.9c0-0.3-0.1-0.5-0.4-0.6l-5.4-1.4
				       l-0.1,0l-4.6-1.9l6.2-0.8c0,0,0,0,0,0l3.6-0.7l0.1,0c0.2,0.2,0.5,0.2,0.8,0L122.4,173.7z"/>
  <path id="divi-13244" class="st0" d="M106.9,178c0.1,0.1,0.2,0.2,0.3,0.2l6.1,2.5c0,0,0,0,0.1,0l5,1.2l-0.8,5.6c0,0.1,0,0.2,0.1,0.3
				       l1.1,2.5c0.1,0.2,0.3,0.3,0.5,0.3l7.2,0.3l4.4,1.1l3.8,2.7c0.2,0.1,0.4,0.1,0.6,0l3.2-1.9l3.2-0.8h0l5.4-1l2.3,2.8
				       c0.1,0.1,0.2,0.2,0.3,0.2l3.1,0.4l-0.8,4.2c0,0.1,0,0.2,0,0.3l1.7,3.9l-2.2,3.5c0,0,0,0.1-0.1,0.2l-1.4,5.5l-2.6,4l-6.3-1.9
				       c-0.1,0-0.1,0-0.2,0h-4.8l-4.5-4.8l-6-6.6c-0.1-0.1-0.2-0.2-0.3-0.2l-12.4-3c-0.1,0-0.2,0-0.2,0l-8,1.9c-0.2,0-0.3,0.1-0.4,0.3
				       l-2,3.6l-1.9,0.2l0.9-3.3c0,0,0,0,0,0l1.3-5.4l0,0v-0.1l4.4-9.8c0-0.1,0.1-0.2,0.1-0.2L106.9,178z"/>
  <path id="divi-13894" class="st0" d="M156.6,181.8L156.6,181.8l1.9,1.6c0.1,0.1,0.3,0.2,0.4,0.2l5.5-0.3c0.1,0,0.2,0,0.2-0.1
				       l2.7-1.2l3.8,4.7c0.2,0.2,0.4,0.3,0.7,0.2l0.1,0l2.4,6.5l-0.8,7.6c0,0.2,0,0.3,0.2,0.5l3,2.9l0.1,0.1l1.8,2.5l-4-0.2h-0.1l-4.9-0.8
				       h0l-8.8-1.9l-5.7-1.3c0-0.1-0.1-0.2-0.2-0.3c0,0,0,0,0,0l-1.6-3.7l0.8-4c0.2,0,0.3-0.1,0.4-0.2c0.1-0.1,0.2-0.3,0.2-0.4v-2.2
				       l4.4-2.6c0.2-0.1,0.3-0.2,0.3-0.4c0-0.2,0-0.4-0.1-0.5l-2.9-3.1L156.6,181.8z"/>
  <path id="divi-13212" class="st0" d="M154.6,203.7l5.8,1.3l8.8,1.9c0,0,0,0,0,0l5,0.8c0,0,0,0,0.1,0l4.9,0.2l0.3,0.4l-0.8,7
				       l-2.7,3.2c-0.1,0.2-0.2,0.4-0.1,0.6l1.7,4.4c0,0.1-0.1,0.1-0.1,0.2l-1.8,7.6c-0.3-0.1-0.6,0.1-0.7,0.4l-3.5,1.3c0,0-0.1,0-0.1,0
				       l-6.3,3.6l-4.8,0.7l-0.7-5.5c0-0.1-0.1-0.2-0.1-0.3l-1.3-1.4c0,0,0,0,0,0c-0.1-0.2-0.2-0.3-0.3-0.3l-2.2-2.5l0-0.1l0,0l-1.6-2.7
				       c0,0,0-0.1-0.1-0.1l-3.8-4l0-0.1l-0.1-0.1l-1.9-3.4l2.8-4.4c0,0,0-0.1,0.1-0.2l1.3-5.3l0,0L154.6,203.7z"/>
  <path id="divi-13780" class="st0" d="M177.2,230.9c0,0,0.1,0,0.1,0l7,1.3l5.4,2.7l0.1,0.1l5.7,4.6c0.1,0.1,0.2,0.1,0.4,0.1
				       l12.9,13.4v0c0,0,0,0,0,0v4.4h-3c-0.2,0-0.3,0.1-0.4,0.2l-1.6,1.8l-4.4,2.1l-3.9-0.2l-1.3-3.8c0,0,0,0,0-0.1l-2.8-5.8
				       c-0.1-0.2-0.4-0.4-0.7-0.3l-4.9,1.6l0.5-3.8c0,0,0,0,0-0.1v-3c0-0.1,0-0.2-0.1-0.3l-3.5-5.4l-1.1-6.5c0-0.2-0.2-0.4-0.4-0.4
				       l-4.3-1.8L177.2,230.9z"/>
  <path id="divi-13430" class="st0" d="M176,232.7l4.5,1.9l1,6.3c0,0.1,0,0.2,0.1,0.2l3.5,5.4v2.8v0.1l-0.5,4c0-0.3-0.3-0.5-0.5-0.5
				       c-0.3,0-0.5,0.2-0.6,0.4l-2.5,8c0,0.1,0,0.3,0,0.4l1.9,4.9c0,0.1,0.1,0.2,0.2,0.3h0l2.2,5.5c0,0.1,0.1,0.1,0.1,0.2l11.6,12.4
				       c0.1,0.1,0.3,0.2,0.5,0.2l5.3-0.5l1.3,1.9c0,0,0.1,0.1,0.1,0.1l5.8,5.8l0,0l7.5,8.8l-2.7,7.4l0,0c0,0-0.1,0-0.1,0.1l-4.6-0.7l-3-2.6
				       v-0.5c0-0.3-0.1-0.5-0.4-0.6c-0.2-0.1-0.5,0-0.7,0.2l-1.6-1.3l0,0l-0.1-0.1l-8.2-11.2c0,0,0,0,0-0.1l-7.2-7.2
				       c-0.1-0.1-0.2-0.1-0.2-0.1l-9.3-2.8h0l-5.5-3.2l-1.7-3.6c0.2-0.2,0.2-0.4,0.1-0.6l-3-5.8c0,0,0,0,0,0l-2.8-4.2c0,0,0-0.1-0.1-0.1
				       l-3-2.8l0.7-0.1c0.3-0.1,0.4-0.3,0.4-0.6c0-0.3-0.2-0.5-0.5-0.5c0,0,0,0,0,0c0,0,0,0,0,0l-4.3-6.5l-1.1-8.4l1.8-6.9l5.2-0.8
				       c0.1,0,0.2,0,0.2-0.1l6.2-3.6l0.1,0L176,232.7z"/>
  <path id="divi-13188" class="st0" d="M190.6,252.8l2.5,5.3h0l1.3,3.9c-0.1,0-0.3,0.1-0.3,0.2l-3.2,2.9l-2.6,0.2c0,0,0,0,0,0
				       l-4.5,0.5l-1.7-4.3l2.4-7.8l0,0.3c0,0.2,0.1,0.4,0.2,0.5s0.4,0.2,0.5,0.1L190.6,252.8z"/>
  <path id="divi-13468" class="st0" d="M220.3,253.3l4.4,5.1l0,0v0c-0.1,0.2,0.1,0.5,0.3,0.6c0.2,0.1,0.5,0.1,0.7-0.1l0.2-0.2h0.4
				       l4.6,4.2l1,5.1l-3.9,1.4l-4.3,0.3c-0.2,0-0.3,0.1-0.4,0.2l-3.2,3.8l-4.6,2.4c-0.1,0.1-0.2,0.2-0.3,0.3l-1.8,5.6l-7.5-1.1
				       c-0.2,0-0.3,0-0.5,0.2l-2.3,2.1h0c-0.2,0-0.5,0.1-0.6,0.3l-4.8,0.5l-11.3-12.2l0,0l-1.9-4.9l4-0.5l2.8-0.3c0.1,0,0.2,0,0.3-0.1
				       l3.3-3c0.1-0.1,0.2-0.3,0.2-0.4l4.3,0.3c0.1,0,0.2,0,0.3-0.1l4.7-2.2c0.1,0,0.1-0.1,0.2-0.1l1.5-1.8h3.3c0.3,0,0.6-0.3,0.6-0.6v-0.3
				       l5.8-0.5c0.1,0,0.2-0.1,0.3-0.2L220.3,253.3z"/>
  <path id="divi-13650" class="st0" d="M234,258.4l4.7,3.4v4.1c0,0.2,0.1,0.3,0.2,0.4c0.1,0.1,0.3,0.2,0.4,0.1l0.2,0l0.3,2.7l-2.6,1
				       c-0.2,0.1-0.3,0.2-0.3,0.3l-0.8,2.2c-0.1,0.2-0.1,0.3,0,0.5l1.9,3c0,0,0,0,0,0.1l4.8,6.1l-1.9,4l-12-1.8l-2.6-5
				       c-0.1-0.1-0.2-0.2-0.4-0.3c-0.2,0-0.3,0-0.5,0.1l-3.9,2.7l-4.1-5.6l3.2-1.7c0.1,0,0.1-0.1,0.2-0.2l3.2-3.7l4.2-0.2
				       c0.1,0,0.1,0,0.2-0.1l4.4-1.6c0.3-0.1,0.4-0.4,0.4-0.7l-1.1-5.8c0-0.1-0.1-0.2-0.2-0.3l-3.9-3.5L234,258.4z"/>
  <path id="divi-13440" class="st0" d="M245.3,265.8l3.4,3.9c-0.1,0.2-0.1,0.5,0.1,0.6l3.9,4.2v0c0,0,0,0,0,0.1c0,0,0.1,0.1,0.1,0.1
				       c0,0,0.1,0.1,0.1,0.1l0.6,0.7c0.2,0.2,0.4,0.2,0.6,0.2l0.1,0l6,3.6l2.7,4.3c0,0,0,0,0,0l0.1,0.1l0.6,1.2l-1,2l-1.9-1.1
				       c-0.1-0.1-0.3-0.1-0.5,0l-2.2,0.8l-6.5,0.5c-0.2,0-0.4,0.1-0.4,0.3l-2.3,4.5l-2.5-0.9l-7.4-2.8c-0.1,0-0.1,0-0.2,0l-8.5,0.2l-5-2.1
				       l0,0l-3.3-3.1c0,0,0,0,0.1,0l3.9-2.7l2.4,4.7c0.1,0.2,0.2,0.3,0.4,0.3l12.7,1.9c0.2,0,0.5-0.1,0.6-0.3l2.2-4.7
				       c0.1-0.2,0.1-0.4-0.1-0.6l-4.9-6.3l0-0.1l-1.8-2.7l0.6-1.7l2.8-1c0.2-0.1,0.4-0.4,0.3-0.6l-0.4-3.1L245.3,265.8z"/>
  <path id="divi-13549" class="st0" d="M216.5,276.9l4.3,5.8c-0.2,0.1-0.3,0.2-0.4,0.4c0,0.2,0,0.4,0.2,0.5l3.8,3.6
				       c0,0,0.1,0.1,0.2,0.1l5.2,2.2c0.1,0,0.2,0,0.2,0l8.4-0.3l7.3,2.7l1,0.4l-1.3,9l-5.8,3.4c-0.1,0-0.1,0.1-0.2,0.2l-2.2,3.3
				       c0,0-0.1,0.1-0.1,0.2l-0.8,3.3c0,0.1,0,0.3,0,0.4l3.6,8c0,0,0,0.1,0.1,0.1l5,6.9c0,0.1,0.1,0.1,0.2,0.2l4.5,2.8l-11.7-0.2l-8.6-2.1
				       l-1-5.6l1.3-4c0.1-0.3,0-0.5-0.2-0.7l-5-2.9l-0.2-4.4c0-0.3-0.2-0.5-0.5-0.6l-6.2-0.5l-1.5-0.3l2.7-7.4c0.1-0.2,0-0.4-0.1-0.6
				       l-7.7-9.1c0,0,0,0,0,0l-5.7-5.7l-0.1-0.1l-1.2-1.8l2-1.9l7.8,1.1c0.3,0,0.5-0.1,0.6-0.4l1.9-5.8L216.5,276.9z"/>
  <path id="divi-13300" class="st0" d="M273.3,282l5.6,3.9c0,0,0.1,0,0.2,0.1l1.8,0.6l-4.8,5.2l-5.8,0.3c0,0,0,0,0,0l-7.6,0.6
				       l-3.5-1.3c-0.1,0-0.2,0-0.2,0l-8.9,0.7l1.8-3.7l6.3-0.5c0.1,0,0.1,0,0.2,0l1.9-0.7l2.3,1.2c0.1,0.1,0.3,0.1,0.4,0s0.3-0.2,0.3-0.3
				       l1.4-2.8c0,0,0-0.1,0-0.1L273.3,282z"/>
  <path id="divi-13268" class="st0" d="M282.1,286.9l8.1,2.7c0.1,0,0.1,0,0.2,0l3.6-0.3l1.3,10.8c0,0.1,0.1,0.2,0.2,0.3l6.1,6.6
				       l-3.8,0.4c-0.1,0-0.2,0-0.2,0.1l-4.2,3c-0.2,0.2-0.3,0.4-0.2,0.7l1.9,4.6l-0.8,5.3l-2.9,1.3l-4.6-4.5l-0.5-4.5
				       c0-0.1-0.1-0.3-0.2-0.4l-4.7-3.9l0.4-1.5v0l2.2-3.4c0.2-0.3,0.1-0.6-0.2-0.8l-3.2-2.3l1.3-5.4c0.1-0.2,0-0.5-0.2-0.6l-4.2-3.2
				       L282.1,286.9z"/>
  <path id="divi-13074" class="st0" d="M258.9,292.4l3.5,1.3c0.1,0,0.2,0,0.2,0l4.6-0.3l0.3,9.4c0,0.1,0,0.2,0.1,0.3l3,5.4v0l1.6,6.4
				       l-4,7.7l-7.7,7.4l-2.9-0.8c0.1-0.2,0.1-0.3,0-0.5l-1.1-2.2c-0.1-0.2-0.3-0.3-0.5-0.3l-4.3-0.5l-0.6-2.1l7.1-1c0.1,0,0.1,0,0.2-0.1
				       l6.1-3.3c0.1-0.1,0.2-0.1,0.2-0.2l3.6-7.7c0.1-0.2,0.1-0.4,0-0.6l-1.9-3c-0.1-0.1-0.2-0.2-0.4-0.2l-4.7-0.8c-0.1,0-0.1,0-0.2,0
				       l-6.6,1.1c0,0,0,0-0.1,0l-8.9,2.4l-6.4-2.4c0,0,0,0-0.1,0l1.3-2l6-3.5c0.2-0.1,0.3-0.2,0.3-0.4l1.3-8.7c0.1,0.1,0.3,0.1,0.4,0.1
				       l0.5,0h0c0.2,0.1,0.4,0,0.5-0.1L258.9,292.4z"/>
  <path id="divi-13667" class="st0" d="M276.6,292.9l4.1,3l-1.3,5.4c-0.1,0.2,0,0.5,0.2,0.6l3.1,2.2l-1.9,3.1c0,0,0,0.1-0.1,0.2
				       l-0.6,1.9c-0.1,0.2,0,0.4,0.2,0.6l4.8,4l0.5,4.5c0,0.1,0.1,0.3,0.2,0.3l4.6,4.6c-0.1,0-0.2,0.1-0.2,0.2l-1.4,1.9
				       c-0.1,0.1-0.1,0.2-0.1,0.4l-6.9,2.4l-2.8-0.8c-0.2,0-0.4,0-0.5,0.1l-2.6,2l-5.2-1.1c-0.1,0-0.2,0-0.3,0.1l-4.8,2.1l-3.3-0.6l6.8-6.6
				       c0,0,0.1-0.1,0.1-0.2l4.1-8c0.1-0.1,0.1-0.3,0.1-0.4l-1.7-6.6c0-0.1,0-0.1-0.1-0.2l-2.9-5.3l-0.3-9.4l1.9-0.1l6.1-0.3
				       C276.5,292.9,276.5,292.9,276.6,292.9L276.6,292.9z"/>
  <path id="divi-13006" class="st0" d="M207.1,307l2.4,2.1c0.1,0.1,0.2,0.1,0.3,0.1l5.2,0.8c0.2,0,0.4,0,0.5-0.2l1.7,0.4
				       c0,0,0.1,0,0.1,0l5.8,0.5l0.2,4.2c0,0.2,0.1,0.4,0.3,0.5l4.8,2.8l-1.2,3.7c0,0.1,0,0.2,0,0.3l1.1,6c-0.2,0.1-0.3,0.3-0.3,0.6
				       l0.5,3.6c0,0.2,0.1,0.3,0.2,0.4l5.8,4.1l-2.2,0.2c-0.2,0-0.3,0.1-0.4,0.2c-0.1,0.1-0.1,0.3-0.1,0.5l1.7,5.9l-7.6,0.5
				       c-0.2,0-0.4,0.2-0.5,0.4c-0.1,0.2,0,0.4,0.1,0.6l5.9,6l-2.6,3.3l-4.2-3c-0.1-0.1-0.3-0.1-0.4-0.1c-0.2,0-0.3,0.1-0.4,0.3l-4,6.7
				       l-5.7,1.1h-0.1l-4.9,0.2c-0.1-0.2-0.3-0.2-0.5-0.2l1.4-5.6c0-0.1,0-0.3,0-0.4l-4.7-8.2c-0.1-0.2-0.2-0.3-0.4-0.3l-2-6.9v0l-0.3-13.5
				       c0-0.1,0-0.2-0.1-0.2l-2.6-5l0.9-1.4l5.7-3.5c0.2-0.1,0.3-0.3,0.3-0.5L207.1,307z"/>
  <path id="divi-13030" class="st0" d="M261.2,307.9l4.3,0.8l1.7,2.6l-3.4,7.2l-5.8,3.2l-7.6,1.1c-0.2,0-0.3,0.1-0.4,0.3
				       c-0.1,0.1-0.1,0.3-0.1,0.5l0.8,3c0.1,0.2,0.3,0.4,0.5,0.4l4.4,0.5l0.6,1.2l-0.6,0.1l-0.9-0.2c-0.2-0.1-0.4,0-0.5,0.1
				       c-0.1,0.1-0.2,0.3-0.2,0.5l-2.6,0.5c-0.1,0-0.2,0-0.2,0.1l-5.3-3.3l-4.8-6.7v0l-0.1-0.1l-3.4-7.7l0.8-3.1l0.1-0.1
				       c0.1,0.1,0.2,0.2,0.3,0.2l6.6,2.5c0.1,0,0.2,0,0.3,0l9-2.5h0.1L261.2,307.9z"/>
  <path id="divi-13580" class="st0" d="M302.5,308.1l1.6,1.8l-0.7,7.8c0,0.3,0.2,0.5,0.4,0.6l2.2,0.6c0,0,0,0.1-0.1,0.2l-2.2,7
				       c0,0.1,0,0.2,0,0.3l0.6,3.2l-1,0.6l-3-1.5c-0.1,0-0.2-0.1-0.3-0.1l-4.2,0.5l-5.4-3.3c0,0,0,0,0,0c0-0.1-0.1-0.1-0.2-0.2l1-1.3
				       c0.1-0.1,0.1-0.2,0.1-0.3c0.1,0,0.2,0,0.2-0.1l3.6-1.7c0.2-0.1,0.3-0.2,0.3-0.4l0.8-5.8c0-0.1,0-0.2,0-0.3l-1.8-4.3l3.6-2.6
				       L302.5,308.1z"/>
  <path id="divi-13600" class="st0" d="M289.7,326.6l5.6,3.4c0.1,0.1,0.2,0.1,0.4,0.1l4.2-0.5l0.3,0.2c0,0.1,0,0.2,0.1,0.3l3.2,6.2
				       v0.1l1.7,9c0,0.1,0,0.2,0.1,0.2l4.3,6.7l-0.5,10.3c-0.3,0.1-0.4,0.4-0.3,0.7l0.1,0.2l-2.7-2.7c0,0-0.1-0.1-0.2-0.1l-5.2-2.5l0,0
				       l-4-3.5l-3.2-4.3c-0.1-0.1-0.2-0.2-0.3-0.2h0l-0.1-0.6c0-0.2-0.1-0.4-0.3-0.5c-0.2-0.1-0.4,0-0.6,0.1c-0.2,0.1-0.2,0.4-0.2,0.6
				       l0.1,0.5l-11.7,0.8c-0.2,0-0.4,0.1-0.5,0.3l-1.3,2.9l-3.9,2.6l-4.3,1.1c-0.1,0-0.1,0.1-0.2,0.1l-4.8,3.2h0l-6.6,1.9
				       c0,0-0.1,0-0.1,0.1l-8,4.7c-0.1,0.1-0.2,0.1-0.2,0.2l-3.1,7l-4-0.5c-0.2,0-0.4,0-0.5,0.2l-6.3,6.6c-0.1,0.1-0.1,0.2-0.1,0.2
				       l-0.9,3.7h0c-0.2,0-0.4,0-0.5,0.1c-0.1,0.1-0.2,0.3-0.2,0.5l-1.8,0.5l-2.5-1.6v-6l3.6-2.3c0.2-0.1,0.2-0.3,0.2-0.5v-2.3l6-2.7
				       c0.1,0,0.2-0.1,0.2-0.2l4.2-5.2c0.1-0.2,3.1,0.5,3,0.3l3.3-0.7l1.5,0.9l2.6-1.1l-0.3-1.5l5-3.3l6.3-5.4l0.9,3.3l2.1-0.9l2-4.1
				       l4.9-3.1l2.4-3l3.1-4.1l1.6-2.3l-3-2l-1.9-4.1c0.2-0.1-8.7-1.3-8.7-1.5l-3.7,0.6c0-0.1-3-1.2-3-1.3l-1.5,0.4l0.2-0.6
				       c0.1-0.1,0.1-0.3,0.1-0.5c-0.1-0.2-0.2-0.3-0.4-0.4c0.1,0,0.1-0.1,0.2-0.1l0.1-0.1l4.3,0.8c0.1,0,0.2,0,0.3,0l4.8-2.1l5.3,1.1
				       c0.2,0,0.3,0,0.5-0.1l2.6-2l2.7,0.7c0.1,0,0.2,0,0.3,0L289.7,326.6z"/>
  <path id="divi-13810" class="st0" d="M229.3,328.9l8.7,2.1c0,0,0.1,0,0.1,0l13.8,0.3c0.2,0,0.3-0.1,0.5-0.2s0.2-0.3,0.1-0.5
				       c0,0,0,0,0,0l3.2-0.6l0.8,0.2l4.1,1.1c-0.1,0-0.2,0.1-0.3,0.2l-4.4,6.9c-0.1,0.2-0.1,0.4,0,0.5l1.6,3.7l-0.2,4l-6.9,4c0,0,0,0,0,0
				       l-7.2,4.7c-0.1,0.1-0.2,0.2-0.2,0.4c0,0.2,0,0.3,0.1,0.4l3.6,4.3l-6.8,9.7l-5.7,2.5c-0.2-0.1-0.4-0.1-0.6-0.1
				       c-0.2,0.1-0.3,0.3-0.3,0.5c0,0,0,0,0,0l-0.1,0h-6.7l-2.2-2.4v-4.2c0-0.1,0-0.2-0.1-0.3l-3.8-6.6c0-0.1-0.1-0.1-0.1-0.2l0.6-0.1
				       c0.2,0,0.3-0.1,0.4-0.3l3.8-6.3l4.2,2.9c0.2,0.2,0.6,0.1,0.8-0.1l3.3-4.2c0.2-0.2,0.1-0.6-0.1-0.8l-5.4-5.4l7-0.5
				       c0.2,0,0.3-0.1,0.5-0.2c0.1-0.1,0.1-0.3,0.1-0.5l-1.8-5.9l3.2-0.2c0.2,0,0.4-0.2,0.5-0.4c0.1-0.2,0-0.5-0.2-0.6l-6.9-4.8
				       L229.3,328.9z"/>
  <path id="divi-13042" class="st0" d="M292.3,351.5l1.3,7.6l-2.1,1.4l-8.7,1.9c0,0,0,0-0.1,0l-11.3,4.4c-0.1,0-0.1,0.1-0.2,0.1
				       l-7.1,5.8l-0.1,0l-8.8,5.5l-5,3c0,0,0,0-0.1,0l-10.8,8.4l-2.8-0.9l-0.7-1.8c0.1-0.1,0.2-0.2,0.2-0.3l1.1-4.2l6.1-6.3l4.1,0.5
				       c0.3,0,0.5-0.1,0.6-0.3l3.2-7.3l7.8-4.6l6.5-1.9c0.1,0,0.1-0.1,0.2-0.1l4.8-3.2l4.3-1.1c0.1,0,0.1-0.1,0.2-0.1l4.1-2.8
				       c0.1-0.1,0.2-0.1,0.2-0.2l1.2-2.7L292.3,351.5z"/>
  <path id="divi-13473" class="st0" d="M293.6,352.4l2.4,3.2c0,0,0,0.1,0.1,0.1l4.2,3.6c0,0,0.1,0.1,0.1,0.1l5.2,2.4l0.1,0l3.7,3.8
				       c0,0,0.1,0.1,0.2,0.1l0.2,0.8v0l-0.3,8.9l-3.5,6.5c0,0.1-0.1,0.2-0.1,0.3v4.1c0,0,0,0.1,0,0.1l1,5.7c-0.2,0.1-0.4,0.2-0.4,0.5
				       l-3.6,1.8h-0.1c0,0-0.1,0-0.1,0c-0.1,0-0.2,0.1-0.2,0.1c0,0,0,0,0,0l-1.5,0.7c-0.1,0-0.2,0.1-0.2,0.2l-4.9,7.2h-0.1c0,0,0,0-0.1,0
				       l-1.9-6.2c-0.1-0.2-0.2-0.3-0.4-0.4l-3.4-1.1l-5.9-6.8c-0.1-0.1-0.3-0.2-0.5-0.2l-8.8,1.1l-6.3,0.6c-0.1,0-0.2,0-0.2,0.1l-11.9,7.1
				       l-5.7-0.5l-6.1-0.8c-0.1-0.2-0.2-0.3-0.4-0.3c0,0,0,0,0,0l-3.2-5c0,0,0,0,0,0l10.3-8l0.1-0.1l4.9-3c0,0,0,0,0,0l8.8-5.5
				       c0,0,0,0,0.1,0l7.2-5.8l11.1-4.3l0.1,0l8.7-1.9c0.1,0,0.2,0,0.2-0.1l2.5-1.7c0.2-0.1,0.3-0.4,0.2-0.6L293.6,352.4z"/>
  <path id="divi-13458" class="st0" d="M219,359.6c-0.1,0.2-0.1,0.4,0,0.5l3.8,6.5v4.3c0,0.1,0.1,0.3,0.2,0.4l2.5,2.8
				       c0.1,0.1,0.3,0.2,0.4,0.2h7.1v1.6l-3.6,2.3c-0.2,0.1-0.3,0.3-0.2,0.5v6.6c0,0.2,0.1,0.4,0.2,0.5l3,1.9c0.1,0.1,0.3,0.1,0.5,0.1
				       l2.1-0.6l0.8,2.1c0.1,0.2,0.2,0.3,0.3,0.3l3.3,1.1c0.1,0,0.1,0,0.2,0c0,0,0,0,0,0l3.5,5.3v3l-3.5,6.8c-0.1,0.2-0.1,0.4,0,0.6
				       l6.1,10.1l-1.5,1.5l-5.3,1.1c-0.1,0-0.2,0-0.2,0.1l-4.7,3c-0.2,0.1-0.3,0.4-0.2,0.7l1.2,4.1l-3.8,0.9c-0.2,0.1-0.4,0.3-0.4,0.5
				       l-0.2,7.3l-7.8-2c-0.2,0-0.4,0-0.5,0.1c-0.1,0.1-0.2,0.3-0.2,0.5v9.7c0,0.1,0,0.2,0.1,0.3l2.2,4l-5.4,3.8c-0.2,0.2-0.3,0.4-0.2,0.7
				       l0.9,2.6l-2.1,1.1c-0.2,0.1-0.3,0.3-0.3,0.5l0.2,7.8l-4.4,0.5c-0.2,0-0.3,0.1-0.4,0.2c-0.1,0.1-0.1,0.3-0.1,0.5l1.9,7.1l-3.3-1.4
				       c-0.2-0.1-0.5-0.1-0.6,0.1l-6.1,6.1c0,0,0,0-0.1,0.1l-2.2-3l5.9-10.4c0-0.1,0.1-0.2,0.1-0.3l-0.5-9.3l12.6-6.4
				       c0.2-0.1,0.3-0.3,0.3-0.5V442c0-0.2-0.1-0.4-0.3-0.5l-8.6-5.4l-1.3-20.7c0-0.2-0.1-0.4-0.3-0.4l-3.2-1.8c0.1-0.1,0.2-0.3,0.2-0.4
				       c0-0.2-0.1-0.3-0.2-0.4l-4.6-4.1l-2.1-5.3v-1.2c0-0.2-0.1-0.3-0.2-0.4l-3.8-3.8l0,0l-5-10.6l1.5-3.4l10.2-4.6l0,0l7.5-0.5
				       c0.2,0,0.3-0.1,0.4-0.2l3.3-3.8c0.2-0.2,0.2-0.6,0-0.8l-2.4-2.3l-1.1-3.2l-1.2-7.3l4.8-0.2c0,0,0.1,0,0.1,0L219,359.6z"/>
  <path id="divi-13744" class="st0" d="M283.3,389.2l5.9,6.7c0.1,0.1,0.2,0.1,0.3,0.2l3.3,1l1.8,6c0,0.1,0,0.1,0.1,0.2l0.5,0.8
				       l0.2,6.9c0,0.1,0,0.1,0.1,0.2l3,7.9l0,0.1l2.2,8.4h0l2.4,13l-3.7,5l-4.6-1.5c-0.3-0.1-0.6,0-0.7,0.3l-1.5,3l-7-0.5
				       c-0.2,0-0.5,0.1-0.6,0.3c-0.1,0.2-0.1,0.5,0.1,0.6l1.6,2.2l-4.6,0.4l-3.4-1.8c-0.1-0.1-0.3-0.1-0.4,0l-8.5,2.5c0,0,0,0-0.1,0l-8,3.3
				       c-0.1,0.1-0.3,0.2-0.3,0.3l-1.9,4.7c0,0,0,0,0,0l-0.4,1.1l-2.6-2c-0.2-0.1-0.4-0.1-0.5-0.1l-6.1,2.2l0.2-9.2l2.8-5.2l6.6-1.3
				       c0.2,0,0.3-0.2,0.4-0.4l0.8-2.2c0.1-0.2,0.1-0.3,0-0.5c-0.1-0.2-0.2-0.3-0.4-0.3l-2.6-0.7l2.7-1c0.2-0.1,0.3-0.2,0.4-0.4l1-6
				       l7.3-1.8c0.1,0,0.2-0.1,0.3-0.2l3.8-4.7c0,0,0,0,0,0l5.2-6.9c0.1-0.1,0.1-0.2,0.1-0.2l2.2-13.8c0-0.1,0-0.3-0.1-0.4l-3.3-4.7
				       c-0.1-0.2-0.3-0.2-0.5-0.2h-3.8l0.8-6l1.1-4.1c0-0.1,0-0.1,0-0.2L283.3,389.2z"/>
  <path id="divi-13688" class="st0" d="M273.8,390.3l-1,3.9c0,0,0,0,0,0.1l-0.8,6.6c0,0.2,0,0.3,0.1,0.5c0.1,0.1,0.3,0.2,0.4,0.2h4.1
				       l3,4.2l-2.2,13.4l-5.2,6.7l-3.7,4.6l-7.5,1.8c-0.2,0.1-0.4,0.2-0.4,0.5l-1.1,6l-4.1,1.5c-0.2,0.1-0.4,0.3-0.4,0.6
				       c0,0.2,0.2,0.5,0.4,0.5l3.8,0.9l-0.5,1.3l-6.6,1.3c-0.2,0-0.3,0.1-0.4,0.3l-3,5.5c0,0.1-0.1,0.2-0.1,0.3l-0.3,10.2
				       c0,0.2,0.1,0.4,0.2,0.5c0.2,0.1,0.4,0.1,0.5,0.1l6.6-2.4l2.5,1.9l-4.1,3.4c0,0-0.1,0.1-0.1,0.1l-2.7,4.2l-3.3,1
				       c-0.1,0-0.1,0.1-0.2,0.1l-9.4,7l-7-0.8c-0.1,0-0.1,0-0.2,0l-6.3,1.1c-0.3,0.1-0.5,0.3-0.5,0.6l0.3,6.9l-8.3,7l-3.7-1.9l-2.4-4.5
				       c-0.1-0.1-0.2-0.2-0.3-0.3l-3.6-1.3l-0.3-1.1l0.9-0.5c0.1-0.1,0.2-0.2,0.3-0.4c0-0.2,0-0.3-0.1-0.5l-2.2-3c0.1,0,0.2,0,0.2-0.1
				       l5.8-5.8l4,1.8c0.2,0.1,0.4,0.1,0.6-0.1c0.2-0.1,0.2-0.4,0.2-0.6l-2-7.6l4.3-0.5c0.3,0,0.5-0.3,0.5-0.6l-0.3-7.9l2.2-1.2
				       c0.2-0.1,0.4-0.4,0.3-0.7l-1-2.6l5.4-3.9c0.2-0.2,0.3-0.5,0.2-0.8l-2.4-4.3V435l7.8,2c0.2,0,0.4,0,0.5-0.1c0.1-0.1,0.2-0.3,0.2-0.5
				       l0.3-7.5l4-1c0.2,0,0.3-0.1,0.4-0.3c0.1-0.1,0.1-0.3,0.1-0.4l-1.2-4.3l4.2-2.7l5.4-1.1c0.1,0,0.2-0.1,0.3-0.2l1.9-1.9
				       c0.2-0.2,0.2-0.5,0.1-0.7l-6.2-10.2l3.4-6.6c0-0.1,0.1-0.2,0.1-0.3v-2.7l6,0.8c0,0,0,0,0,0l5.8,0.6c0.1,0,0.2,0,0.3-0.1l12-7.1
				       L273.8,390.3z"/>
  <path id="div-13670" class="st0" d="M301.1,444.9L300,452l-4.1,12.1l-8.5,9.8c-0.1,0.2-0.2,0.4-0.1,0.6l1.9,5.4v0v0.1l-0.2,0.4
				      c0,0,0,0.1-0.1,0.1l-0.1,0.2l-8,2.4c-0.1,0-0.2,0.1-0.3,0.2l-5.4,8.3l-6.6,1.1c-0.2,0-0.3,0.1-0.4,0.2l-3.2,4.6l-6.2,3.8
				      c-0.1,0.1-0.2,0.2-0.2,0.3l-1.8,5.2l-9.2,4.1c-0.1,0-0.1,0.1-0.2,0.1l-5.2,5.8c-0.1,0.2-0.2,0.4-0.1,0.6l1.1,4.1l0.2,9.8
				      c-0.2,0.1-0.3,0.4-0.2,0.7l-3.6,1.1l-6.3-2.3v-4.2c0-0.1,0-0.2-0.1-0.3l-2.7-4.5l-1.1-8.5c0-0.1,0-0.1,0-0.2l-3.2-7.3l1.1-9.5
				      c0,0,0-0.1,0-0.1l-0.5-5l4.8-5.1c0,0,0,0,0,0l3.3-3.8c0.2-0.2,0.2-0.5,0-0.8l-3.3-4l0.1,0l7.1,0.8c0.1,0,0.3,0,0.4-0.1l9.5-7.1h0.1
				      l3.5-1.1c0.1,0,0.2-0.1,0.3-0.2l2.8-4.4l0,0l3.8-3.1h0c0.3,0.1,0.6-0.1,0.7-0.4l0.1-0.3c0.2-0.1,0.2-0.3,0.2-0.5c0,0,0,0,0,0
				      l0.5-1.6v0l1.8-4.4l7.7-3.2l0.1,0l8.2-2.4l3.4,1.8c0.1,0.1,0.2,0.1,0.3,0.1l5.8-0.6c0.2,0,0.4-0.1,0.5-0.3s0.1-0.4-0.1-0.6l-1.5-2
				      l6.2,0.5c0.2,0,0.5-0.1,0.6-0.3l1.4-2.9l4.5,1.5c0.2,0.1,0.5,0,0.6-0.2L301.1,444.9z"/>
  <path id="divi-13160" class="st0" d="M289.2,481.8l-0.2,6.7l-2.2,8.1l-35.1,32.6l-0.1,0l-4.4,3.3c-0.1,0.1-0.1,0.2-0.2,0.2l-2.8-1.2
				       l-0.2-10.2c0-0.1,0-0.1,0-0.2l-1-3.8l4.9-5.5l9.2-4.1c0.1-0.1,0.3-0.2,0.3-0.3l1.8-5.3l6.2-3.8c0.1,0,0.1-0.1,0.2-0.2l3.2-4.5
				       l6.7-1.1c0.2,0,0.3-0.1,0.4-0.2l5.4-8.4L289.2,481.8z"/>
  <polygon id="divi-13490" class="st0" points="258.4,342.3 257.5,340.5 257.5,339.2 257.5,338.1 260,334.1 262,332.9 265,334.4 
					       268.4,334.2 273.8,335.3 277.2,335.6 278.6,339.2 281.1,340.7 279.5,342.1 280.1,344 278.3,345.3 275.2,349 270.4,352.2 
					       267.5,356.6 267.7,353.9 266.5,352.2 265.6,354.2 263.2,353.5 264,355.7 260.4,356.6 258.4,359.8 255.9,361.2 253.6,363 
					       253.6,365.1 252.5,365.1 251.6,363.5 248.9,365.1 246.6,365.1 245.6,364.2 247.8,360.5 244.6,357 244.6,355.8 250.8,351.5 
					       254.3,349.5 257.9,347.5 258.2,345.9 "/>
</svg>
