<?xml version="1.0" encoding="utf-8"?>
<!-- Generator: Adobe Illustrator 20.1.0, SVG Export Plug-In . SVG Version: 6.00 Build 0)  -->
<svg version="1.1"
	 id="guania" inkscape:output_extension="org.inkscape.output.svg.inkscape" inkscape:version="0.46" sodipodi:docname="departamentos_colombia_plain.svg" sodipodi:version="0.32" xmlns:cc="http://creativecommons.org/ns#" xmlns:dc="http://purl.org/dc/elements/1.1/" xmlns:inkscape="http://www.inkscape.org/namespaces/inkscape" xmlns:rdf="http://www.w3.org/1999/02/22-rdf-syntax-ns#" xmlns:sodipodi="http://sodipodi.sourceforge.net/DTD/sodipodi-0.dtd" xmlns:svg="http://www.w3.org/2000/svg"
	 xmlns="http://www.w3.org/2000/svg" xmlns:xlink="http://www.w3.org/1999/xlink" x="0px" y="0px" viewBox="0 0 563.4 436.5"
	 style="enable-background:new 0 0 563.4 436.5;" xml:space="preserve">
<style type="text/css">
	.st0{fill:none;stroke:#2C5AA0;stroke-miterlimit:10;}
</style>
<path id="divi-94001" class="st0" d="M424.5,45.9l3,15.3c0,0,0,0.1,0,0.1l4.4,12.7l0,0.1c0,0.1,0.2,2,0.7,3.8c0.3,1,0.6,1.9,1,2.7
	c0.2,0.4,0.5,0.7,0.8,0.9c0.4,0.2,0.8,0.3,1.2,0.1c0.8-0.3,2.2,0.1,3.4,0.7c0.2,0.1,0.2,0.1,0.4,0.2l3.2,5.9c0,0,0,0,0,0l2.2,3.6
	l-3.2,5l-0.1,0.1l-6.3,6.8l-13.2,8.8c0,0,0,0,0,0l-13.3,9.3c-0.1,0.1-0.1,0.1-0.2,0.2l-4.4,8.3c-0.1,0.1-0.1,0.3-0.1,0.4l2.5,10.3
	c0,0,0,0.1,0.1,0.1l7.5,14.6l-0.5-0.1c-0.3-0.1-0.6,0.1-0.7,0.4c-0.1,0.3,0.1,0.6,0.4,0.7l0.4,0.1l-1.4,2l-2.5-1.7
	c-0.1-0.1-0.2-0.1-0.3-0.1L401,158c-0.1,0-0.1,0-0.2,0l-4.4,1.5l-9.3,2.5c-0.2,0.1-0.4,0.2-0.4,0.5l-0.9,6.3l-10.6-1.4l-4.3-2.9
	c-0.1-0.1-0.2-0.1-0.3-0.1l-7.4-0.5c-0.2,0-0.4,0.1-0.5,0.2c-0.1,0.1-0.2,0.3-0.1,0.5l1.9,7.6l-3.1,4.3l-23.2-6.8
	c-0.2,0-0.4,0-0.5,0.1l-10.3,7.9c0,0-0.1,0.1-0.1,0.1l-3.4,4.4l-10.2,6.3l-13.7,5.4c0,0-0.1,0-0.1,0.1l-4.4,3.4l-0.1,0l-12.7,7.8
	l-5.8,1.4c-0.1,0-0.1,0.1-0.2,0.1l-15.8,12.3l-9.2,3.4c-0.1,0-0.2,0.1-0.3,0.2l-1.7,3l-3.5-1.3c-0.1,0-0.2-0.1-0.3,0l-6.9,1.5
	c-0.2,0-0.3,0.1-0.4,0.3l-4.9,8.9c0,0.1-0.1,0.1-0.1,0.2l-1,6.3l-3.4,11.1l-0.1,0.1l-21-47.1v0l-2.4-6.9c0-0.1-0.1-0.2-0.2-0.2
	l-5.4-4.9h1.6c0.2,0,0.4-0.1,0.5-0.2l2.4-3.9c0.2-0.3,0.1-0.6-0.1-0.8l-3.6-2.7l2.2-9h4c0.2,0,0.3-0.1,0.4-0.2l4.9-4.8l0.1-0.1
	l11.6-8.7l10.3-4.4c0.2-0.1,0.3-0.2,0.3-0.4l1.8-6.4l8.7,0.9l4.3,2.4c0.2,0.1,0.4,0.1,0.5,0l5.9-2.9c0,0,0.1-0.1,0.1-0.1l6.8-5.8
	l4.8-1.4c0.1,0,0.1-0.1,0.2-0.1l7.8-6.3l0,0l8.7-5.8l21.1-8.3l0.1,0l9.8-2.9c0.1,0,0.2-0.1,0.2-0.2l7.4-7.9c0.1-0.1,0.2-0.3,0.1-0.5
	c0-0.2-0.1-0.3-0.3-0.4l-2.9-1.5c0,0-0.1,0-0.1,0l-8.4-2.5c-0.1,0-0.1,0-0.2,0l-9.2,1h-0.1l-8.7-1.4l-10.7-9.2
	c-0.1-0.1-0.2-0.1-0.3-0.2l-9.3-0.9l0.4-9.1l4.6,2.8c0.2,0.1,0.5,0.1,0.6,0c0.2-0.1,0.3-0.4,0.2-0.6l-2.5-8l5.2,2.8
	c0.1,0.1,0.2,0.1,0.3,0.1l4.9-0.5c0.3,0,0.5-0.2,0.5-0.5l0.9-4.4l4.8,0.5h0.1l7.8,1.5c0.2,0,0.4,0,0.5-0.2c0.1-0.2,0.2-0.4,0.1-0.6
	l-1.4-4.3l0.3-1.1l6.2,3.6c0.1,0.1,0.2,0.1,0.3,0.1h6.9c0.2,0,0.3-0.1,0.4-0.2c0.1-0.1,0.2-0.3,0.1-0.4l-0.4-5.3l6.4,3.4
	c0.2,0.1,0.4,0.1,0.6,0s0.3-0.4,0.2-0.6l-0.9-4l3.8-2.1l6.2,1.4c0.3,0.1,0.6-0.1,0.7-0.4c0.1-0.3-0.1-0.6-0.4-0.7h-0.1l5-1.9
	l0.5,0.5c0.1,0.2,0.4,0.2,0.6,0.2c0.2-0.1,0.4-0.2,0.4-0.4c0.1-0.2,0-0.4-0.2-0.6l-0.1-0.1c0.3-0.1,0.4-0.5,0.2-0.8
	s-0.5-0.4-0.8-0.2l-0.4,0.1l-4.9-4.9h6c0.1,0,0.2,0,0.3-0.1l3.9-2.5c0.1-0.1,0.2-0.2,0.2-0.3l1.8-7.8l5.3,1.8l9.3,3
	c0.2,0.1,0.4,0,0.5-0.1c0.2-0.1,0.2-0.3,0.2-0.5l-0.4-4.8l12.2,1.4l1.4,4.5c0.1,0.2,0.3,0.4,0.5,0.4c0.2,0,0.5-0.1,0.6-0.3l1.9-3.4
	l2,5.2c0.1,0.2,0.3,0.4,0.5,0.4c0.2,0,0.5-0.2,0.5-0.4l3.5-9.5l1.8,4.1c0.1,0.2,0.3,0.3,0.5,0.3l11,0.5l3.8,8.5
	c0.1,0.2,0.2,0.3,0.3,0.3c0.2,0.1,0.3,0,0.5,0l7.4-3.9c0.1,0,0.1-0.1,0.2-0.1l6.8-7.2h0L424.5,45.9z"/>
<path id="divi-94886" class="st0" d="M448.3,79.7l1.2,1.8l0,0l4.9,9v0.1l1.9,9.8c0,0,0,0.1,0,0.1l6.9,15.3c0.1,0.1,0.2,0.2,0.3,0.3
	l7.3,3.4l2.4,12.4l-5.2,5.7c0,0,0,0.1-0.1,0.1l-4.2,7.5l-3.2-0.2c-0.1,0-0.3,0-0.4,0.1l-8.9,6.9l-7.3,6.3l-6-1.8c-0.1,0-0.3,0-0.4,0
	l-4.2,1.9h-0.1l-8.6,0.5h0l-8.9-2.4v0c0-0.1,0-0.2-0.1-0.2l-7.8-15.1l-2.4-10.1l4.2-8l13.2-9.3l13.2-8.8c0,0,0.1-0.1,0.1-0.1
	l6.4-6.9c0,0,0-0.1,0.1-0.1l3.4-5.4c0.1-0.2,0.1-0.4,0-0.6l-2.4-3.9v0l-2.4-4.4c0.2,0.1,0.4,0.1,0.6,0c0.2-0.1,0.3-0.3,0.3-0.5V82
	L448.3,79.7z"/>
<path id="divi-94663" class="st0" d="M120.5,128.1l-0.2-0.3h-5.2v0l-4.6,0.5L108,132l4.6,5.6c0.2,0.2,0.2,0.5,0,0.7l-2.7,3.2
	l3.8,10.5c0.1,0.2,0,0.5-0.2,0.7c-0.2,0.1-0.5,0.1-0.7,0l-7.6-5.4l-0.8,5.5c0,0.2-0.2,0.4-0.4,0.4c-0.2,0.1-0.4,0-0.6-0.1l-3-3
	l-2.6,3.4c0,0,0,0,0,0L92,160c0,0-0.1,0-0.1,0.1l-4.2,3l7.2,4.9c0.2,0.1,0.3,0.4,0.3,0.6s-0.3,0.4-0.5,0.5l-5.7,1.3l5.6,10.6
	c0.1,0.1,0.1,0.3,0,0.5s-0.2,0.3-0.3,0.3l-11.1,4.8l-1.9,9.6c-0.1,0.2-0.3,0.4-0.5,0.4l-8.2,1l-0.1,0l-9.5,3.3c0,0,0,0,0,0l-0.1,0
	l-44.7,25.8l4.8,6l5.5-2.3c0.2-0.1,0.5,0,0.7,0.2l4.4,4.9c0,0,0,0.1,0.1,0.1l2.5,3.9l3.4,5.9l4.1,6.5l3.2-6.5l1.4-9.6v0l-0.5-6.8
	c0-0.3,0.1-0.5,0.4-0.6c0.2-0.1,0.5,0,0.7,0.2l7.3,9.7l8.6,3.3l0.1,0l3.5,0.4l-0.8-3.7c0,0,0-0.1,0-0.1v-4.4c0-0.2,0.1-0.3,0.2-0.4
	s0.4-0.1,0.5-0.1l2.5,1.1l-0.8-5.9c0-0.1,0-0.1,0-0.2l1-7.9c0-0.3,0.3-0.5,0.6-0.5l7.9,0.5c0.1,0,0.2,0,0.2,0.1l8.2,4.8l12.2-0.5
	c0,0,0.1,0,0.1,0l7.4,1.5c0.2,0,0.3,0.2,0.4,0.3l2.3,5.1h6.4l7.4-1.5c0.2,0,0.3,0,0.5,0.1l5.7,4.3l5.4,0.5l0.6-1.2l-7.6-7.6
	c-0.1-0.1-0.2-0.3-0.2-0.5l0.5-4.9c0-0.1,0.1-0.2,0.1-0.3l1.9-2.5l1.9-4.8c0.1-0.2,0.3-0.3,0.5-0.3h7.2l4.3-1.9
	c0.2-0.1,0.3-0.1,0.5,0l3.8,1.9l2.1-0.3l-2.2-4.8c0-0.1-0.1-0.1-0.1-0.2l-0.5-10.8l-1-10.8l-27.5-57.4c-0.1-0.2-0.1-0.4,0-0.6
	C120.1,128.1,120.3,128.1,120.5,128.1z"/>
<path id="divi-94343" class="st0" d="M264.9,85.2l1.3,6.4c0,0.2,0,0.4-0.2,0.5s-0.3,0.2-0.5,0.1l-8.6-2.4l-5.2,4.2
	c-0.1,0.1-0.2,0.1-0.3,0.1l-5.9,1c-0.2,0-0.4-0.1-0.6-0.2l-1.7-2.6l-9.4,3.3c-0.2,0.1-0.5,0-0.6-0.2c-0.2-0.2-0.2-0.4-0.1-0.6
	l2.3-4.9l-5.9,2.8c-0.2,0.1-0.3,0.1-0.5,0c-0.2-0.1-0.3-0.2-0.3-0.4l-0.8-4.4l-2.7,2.3c-0.1,0.1-0.3,0.1-0.4,0.1
	c-0.2,0-0.3-0.1-0.4-0.2l-2.4-3l1.5,4.4c0.1,0.3-0.1,0.6-0.3,0.7l-3.9,1.5c-0.2,0.1-0.3,0.1-0.5,0c-0.2-0.1-0.3-0.2-0.3-0.4
	l-1.3-6.6l-8.2,4.5c-0.1,0.1-0.2,0.1-0.4,0.1l-5.9-1c-0.1,0-0.1,0-0.2-0.1l-5.3-2.7l-2.2,6.8c-0.1,0.2-0.2,0.3-0.4,0.4
	c-0.2,0-0.4,0-0.5-0.2l-3.3-3.8l-10-1.4l-0.5,14.6c0,0.2-0.1,0.3-0.2,0.4s-0.3,0.1-0.5,0.1l-7.2-2.2l-0.9,6.7c0,0.2-0.2,0.4-0.4,0.5
	c-0.2,0.1-0.4,0-0.6-0.1l-8.1-7.7l1.2,6.2c0.1,0.3-0.1,0.5-0.3,0.7c-0.3,0.1-0.6,0-0.7-0.2l-4.8-5.6l-1.6,4.5c0,0.1-0.1,0.2-0.2,0.2
	l-4.4,4.4c-0.1,0.1-0.3,0.2-0.5,0.2c-0.2,0-0.3-0.1-0.4-0.3l-2.1-3.6l0.2,1.7v0.1l1.5,6.8c0,0.2-0.1,0.5-0.3,0.6
	c-0.2,0.1-0.5,0.1-0.7-0.1l-5.7-5.3l1.6,2.7c0.1,0.1,0.1,0.2,0.1,0.3l-0.5,6.9c0,0.2-0.1,0.3-0.2,0.4c-0.1,0.1-0.3,0.1-0.4,0.1
	l-5.9-0.5c0,0-0.1,0-0.1,0l-4.8-1.2l2,4.8c0.1,0.3,0,0.6-0.2,0.7l-4.9,2.9c-0.2,0.1-0.4,0.1-0.6,0l-5.2-2.8l-3.7,1.4
	c-0.1,0-0.1,0.1-0.2,0.1h-0.3l0.2,0.3c0.1,0,0.1-0.1,0.2-0.1c0.2,0,0.4,0.2,0.5,0.4l27.6,57.6c0,0.1,0,0.1,0,0.2l1,10.8c0,0,0,0,0,0
	l0.5,10.7l2.2,4.8l4.5-1.6l-0.5-5.5c0-0.1,0-0.2,0-0.2l2-4.9l2-7.3c0.1-0.3,0.3-0.5,0.6-0.4l9.3,1h0.1l16.6,0.5h0.1l9.2-1.5
	c0,0,0.1,0,0.1,0h5.1l2-3.2l-3.5-2.6c-0.2-0.1-0.3-0.4-0.2-0.6l2.5-9.8c0.1-0.3,0.3-0.4,0.6-0.4h4.2l4.8-4.8c0,0,0,0,0.1-0.1
	l11.8-8.8c0,0,0.1,0,0.1-0.1l10.1-4.3l1.9-6.6c0.1-0.3,0.3-0.5,0.6-0.4l9.3,1c0.1,0,0.2,0,0.2,0.1l4.2,2.3l5.5-2.8l6.9-5.9
	c0.1,0,0.1-0.1,0.2-0.1l4.8-1.4l7.8-6.3c0,0,0,0,0,0l8.9-5.9c0,0,0.1,0,0.1-0.1l21.2-8.3c0,0,0,0,0.1,0l9.7-2.9l6.8-7.2l-2.2-1.1
	l-0.1,0h0l-8.1-2.4l-9.2,1c-0.1,0-0.1,0-0.2,0l-8.9-1.5c-0.1,0-0.2-0.1-0.3-0.1l-10.7-9.2l-9.7-0.9c-0.3,0-0.5-0.3-0.5-0.6l0.5-9.6
	l-4.8,0.4c-0.2,0-0.4-0.1-0.5-0.2L264.9,85.2z"/>
<path id="divi-94884" class="st0" d="M415.3,157.7l9.2,2.5c0.1,0,0.1,0,0.2,0l8.8-0.5c0.1,0,0.2,0,0.2-0.1l4.2-1.9l5.2,1.6
	l-35.8,36.9c-0.2,0.2-0.2,0.4-0.1,0.6c0.1,0.2,0.3,0.4,0.5,0.4l7.7,1.1l6.3,1.7h0l9.2,3.3c0.2,0.1,0.4,0,0.6-0.1l3.9-3.8l5.6,10.8
	l-0.2,9.4c0,0.2,0.1,0.3,0.2,0.4c0.1,0.1,0.3,0.2,0.4,0.2l9-1.2l21.2,19l-13.1,4.2l-11.2-0.5c-0.1,0-0.2,0-0.2,0l-5.7,2.4l-7.7-2.4
	c-0.2-0.1-0.4,0-0.5,0.1l-4.4,2.9c-0.3,0.2-0.3,0.5-0.2,0.8l1.8,3.1l-2.3,3.7c0,0,0,0.1-0.1,0.1l-1.9,5.8l0,0.1l-1.8,2.3
	c-0.2,0.2-0.2,0.6,0.1,0.8l8.8,7.3l0,0.1l3.2,4.5l-2.2,2.6l-2.5,2.9c-0.1,0.1-0.1,0.2-0.1,0.3l-0.5,6.9c0,0,0,0.1,0,0.1l0.5,4.1
	l-5.2,4.8c-0.1,0.1-0.1,0.1-0.2,0.2l-2.9,6.9c0,0,0,0,0,0.1l-1.3,4.4l-8.1,0.5c-0.1,0-0.3,0.1-0.4,0.2l-11.8,12.5
	c-0.1,0.1-0.2,0.3-0.2,0.5l2.4,12.4l-5.5-1.5l-20.3-15.7c0,0,0,0,0,0l-16.9-12c-0.1-0.1-0.3-0.1-0.4-0.1s-0.3,0.1-0.4,0.3
	c0,0-0.6,0.9-0.7,1l-8-5v-6.6l1-4.8c0-0.1,0-0.1,0-0.2l-1.5-8.4c0-0.2-0.2-0.3-0.3-0.4l-4.9-2.5c-0.3-0.1-0.6,0-0.8,0.3l-2,3.9
	c0,0,0,0.1-0.1,0.1l-1.4,6.9l-3.9-0.4c0,0-0.1,0-0.1,0l-5.9,0.5c0,0,0,0,0,0l-8.3,1h0l-10.2,0.5h-0.1l-9.7-0.5h-0.1l-6.5-0.9
	l-2.3-4.2c-0.1-0.2-0.3-0.3-0.5-0.3l-10.8,0.5c-0.2,0-0.4,0.2-0.5,0.4l-2.5,7.2l-4.7-8.6l1.4-9l7.2-6.7c0.1-0.1,0.1-0.2,0.2-0.2
	l3.8-10.9c0.2,0,0.4,0,0.5-0.1c0.1-0.1,0.2-0.3,0.2-0.5l-0.1-1.1l0.1-0.2c0.1-0.2,0-0.4-0.1-0.5l0,0c0,0,0,0,0,0l-0.3-4.6
	c0-0.3-0.2-0.5-0.5-0.5l-5.9-0.5c-0.3,0-0.5,0.1-0.6,0.4l-6.1-2.8c-0.2-0.1-0.4-0.1-0.6,0.1l-3.8,2.8h-8.2c-0.1,0-0.2,0-0.3,0.1
	l-6.4,3.9c0,0-0.1,0-0.1,0.1l-6.6,6.7l-18.7-5.8l0-0.1l0,0c0.1-0.1,0.1-0.3,0.1-0.4c0,0,0,0,0-0.1l3.4-11c0,0,0-0.1,0-0.1l0.9-6.2
	l4.8-8.6l6.5-1.4l3.8,1.4c0.3,0.1,0.6,0,0.7-0.3l1.9-3.3l9.1-3.3c0.1,0,0.1-0.1,0.2-0.1l15.7-12.2l5.8-1.4c0.1,0,0.1,0,0.2-0.1
	l12.8-7.9c0,0,0,0,0,0l4.4-3.4l0,0l13.6-5.3c0,0,0.1,0,0.1-0.1l10.3-6.4c0.1,0,0.1-0.1,0.2-0.2l3.3-4.3l0.1,0l0-0.1l10-7.6l23.3,6.8
	c0.2,0.1,0.5,0,0.6-0.2l3.4-4.9c0.1-0.1,0.1-0.3,0.1-0.5l-1.8-7.1l6.4,0.4l4.3,2.8c0.1,0,0.1,0.1,0.2,0.1l11.3,1.5
	c0.3,0,0.6-0.2,0.6-0.5l0.9-6.5l9-2.3c0,0,0,0,0,0l4.3-1.4h0.1l8.6-0.5l2.8,1.9c0.3,0.2,0.6,0.1,0.8-0.1L415.3,157.7z"/>
<path id="divi-94888" class="st0" d="M196.3,193.6L196.3,193.6h3c-0.1,0.1-0.2,0.3-0.2,0.4c0,0.2,0.1,0.3,0.2,0.4l5.3,4.8l2.4,6.8
	c0,0,0,0,0,0.1l21,47.1l-6.4,2.8c0,0,0,0,0,0l-5.3,2.9h0l-7.6,1.9l-4.6-3.2l-2.4-4.3c-0.1-0.2-0.2-0.3-0.4-0.3c-0.2,0-0.3,0-0.5,0.1
	l-5.8,4.4l-3.8,0.4c-0.3,0-0.5,0.2-0.5,0.5l-0.4,3.5l-0.6-0.1l-0.5,5.3l-4.8,8.2l0,0.1l-4.8,6.2l-0.1,0.1l-3.8,2.8
	c-0.2,0.2-0.3,0.5-0.2,0.7l-7.3,8.2c-0.1,0.1-0.1,0.2-0.2,0.3l-0.9,5.5l-11.3,1.4h-0.1l-12.6-0.5l-6.2-2.3l-1.8-2.8
	c-0.2-0.3-0.5-0.3-0.8-0.2l-7.7,4.8l-10.7,0.5c-0.1,0-0.2,0.1-0.3,0.1l-8.1,5.7l-3.5-1.8c0,0,0,0-0.1,0l6.8-3.4
	c0.1-0.1,0.2-0.2,0.3-0.3l1.5-3.4c0-0.1,0-0.2,0-0.2l-0.3-4.6l0.5,0.2c0.2,0.1,0.4,0.1,0.6,0c0.2-0.1,0.3-0.4,0.2-0.6
	c0-0.2-0.2-0.4-0.4-0.4l-1-0.3l-0.2-2.6c0,0,0,0,0,0l-0.4-4.1l14.4-8.7c0.1-0.1,0.2-0.2,0.2-0.3l3-9.3c0.1-0.2,0-0.3-0.1-0.5
	c-0.1-0.1-0.3-0.2-0.4-0.3l-5.7-0.4l-3.8-4.8c-0.1-0.2-0.3-0.2-0.5-0.2c-0.2,0-0.4,0.1-0.5,0.3l-2.3,4.1l-8.5-0.9
	c-0.3,0-0.6,0.2-0.6,0.4l-0.8,3.9l-5.8-1.4v0l-3.4-1c-0.1,0-0.2,0-0.3,0l-5.8,1.4l-3.8-0.9c-0.2,0-0.4,0-0.5,0.1
	c-0.1,0.1-0.2,0.3-0.2,0.5l0.6,3.1l-3.6-3.6c-0.1-0.1-0.2-0.2-0.3-0.2l-3.8-0.4h0l-6.4-2.9c-0.2-0.1-0.4-0.1-0.6,0l-6.8,4.3
	l-4.4,0.4l-1.8-4c-0.1-0.2-0.2-0.3-0.4-0.3l-1.9-0.3l-0.1-0.2c0-0.3-0.3-0.6-0.6-0.5c-0.3,0-0.6,0.3-0.5,0.6l-0.2,0h-0.1l-9.5-2.3
	l-1.8-7.3l3.3-6.7c0-0.1,0.1-0.1,0.1-0.2l1.5-9.8c0,0,0-0.1,0-0.1l-0.3-4.9l6.2,8.3c0.1,0.1,0.2,0.1,0.2,0.2l8.8,3.4
	c0.1,0,0.1,0,0.2,0l4.4,0.5c0.2,0,0.4,0,0.5-0.2s0.2-0.3,0.1-0.5l-1-4.4v-3.4l2.7,1.2c0.2,0.1,0.4,0,0.6-0.1
	c0.2-0.1,0.2-0.3,0.2-0.5l-1-6.8l0.9-7.2l7.2,0.5l8.2,4.8c0.1,0.1,0.2,0.1,0.3,0.1l12.2-0.5h0l7.1,1.4l2.3,5.2
	c0.1,0.2,0.3,0.3,0.5,0.3h6.9c0,0,0.1,0,0.1,0l7.1-1.4l5.7,4.2c0.1,0.1,0.2,0.1,0.3,0.1l5.9,0.5c0.2,0,0.5-0.1,0.6-0.3l1-2
	c0.1-0.2,0.1-0.5-0.1-0.7l-7.7-7.7l0.4-4.5l1.9-2.3c0,0,0.1-0.1,0.1-0.2l1.8-4.6h7c0.1,0,0.1,0,0.2,0l4.2-1.9l3.7,1.8
	c0.1,0.1,0.2,0.1,0.3,0.1l3.4-0.5c0.2,0,0.4-0.1,0.5-0.3l4.6-1.7c0.2-0.1,0.4-0.3,0.4-0.6l-0.5-5.8l1.9-4.8c0,0,0,0,0-0.1l1.8-6.9
	l8.9,0.9c0,0,0,0,0,0l16.7,0.5c0,0,0.1,0,0.1,0L196.3,193.6z"/>
<path id="divi-94883" class="st0" d="M472.6,238.8L472.6,238.8l0.2,0.2l0.1,0.1l15.8,19l-3.3,4.8c-0.1,0.2-0.1,0.4-0.1,0.5l7.3,20.3
	c0.1,0.2,0.2,0.3,0.4,0.3l5.5,1.4l3.6,7l-2.4,9.8c0,0.2,0,0.3,0.1,0.5l6.6,9.1l0,0.1l9.3,28.8v0l-11.2,2.3c-0.1,0-0.1,0.1-0.2,0.1
	l-5.9,4.1l-1.2-0.3l-5.5-12.8c0-0.1-0.1-0.2-0.2-0.2l-14.8-10.5l-3.6-13.2l-0.7-16.7c0,0,0-0.1,0-0.1l-2.2-10.9
	c0-0.2-0.2-0.4-0.5-0.5l-8.9-1.5c-0.1,0-0.3,0-0.4,0.1l-14.8,9.3c-0.1,0-0.1,0.1-0.2,0.1l-10.1,12.6l-12.5,3.7l1.1-3.8l0-0.1
	l2.9-6.8l5.3-4.8c0.1-0.1,0.2-0.3,0.2-0.5l-0.5-4.3V286V286l0.5-6.6l2.3-2.8l2.5-2.9c0.2-0.2,0.2-0.5,0-0.7l-3.5-4.9
	c0,0-0.1-0.1-0.1-0.1l-8.4-7l1.6-2c0-0.1,0.1-0.1,0.1-0.2l2-5.9l2.4-3.8c0.1-0.2,0.1-0.4,0-0.6l-1.7-3l3.7-2.5l7.7,2.4
	c0.1,0,0.3,0,0.4,0l5.8-2.4l11.2,0.5c0.1,0,0.1,0,0.2,0L472.6,238.8C472.6,238.9,472.6,238.8,472.6,238.8z"/>
<path id="divi-94887" class="st0" d="M274.6,246.9l6.1,2.8c0.2,0.1,0.4,0.1,0.5,0c0.2-0.1,0.3-0.2,0.3-0.4l5.3,0.5l0.4,4.6
	l-4.3,12.3l-7.2,6.8c-0.1,0.1-0.2,0.2-0.2,0.3L274,283c0,0.1,0,0.3,0.1,0.4l5.4,9.8c0.1,0.2,0.3,0.3,0.6,0.3c0.2,0,0.4-0.2,0.5-0.4
	l2.8-8l10.1-0.4l2.3,4.1c0.1,0.2,0.2,0.3,0.4,0.3l6.9,1c0,0,0,0,0,0l9.8,0.5c0,0,0,0,0.1,0l10.3-0.5c0,0,0,0,0,0l8.4-1l5.8-0.5h0.1
	l4.3,0.5c0.3,0,0.6-0.2,0.6-0.4l1.4-7.2l1.7-3.4l4.2,2.1l1.4,8l-1,4.8c0,0,0,0.1,0,0.1v6.9c0,0.2,0.1,0.4,0.3,0.5l8.3,5.2
	c-0.9,1.4-2.2,3.3-4.2,6.7c-1.3,2.2-2.5,4.4-3.2,6.1c-0.4,0.8-0.6,1.5-0.7,2.1c0,0.3-0.1,0.6,0,0.9s0.5,0.6,0.8,0.6
	c0.1,0,0.4,0.1,0.9,0.5c0.4,0.4,1,0.9,1.6,1.6c1.2,1.3,2.5,3.1,3.8,4.9c2.2,3.1,3.7,5.5,4.2,6.2l-152.7,0.8l-21.6-8.6
	c-0.1,0-0.3,0-0.4,0l-15.3,5.6l-8-1.2c-0.1,0-0.1,0-0.2,0l-14.4,2.6c-0.1,0-0.2,0-0.2,0.1l-4.2-1l0.1-0.1c0.2-0.1,0.3-0.3,0.3-0.5
	c0-0.2-0.2-0.4-0.4-0.5c-0.2-0.1-0.5,0-0.6,0.1l-0.6,0.5l-6.1-3.5c-0.1,0-0.2-0.1-0.2-0.1l-10.2-0.5l-9.6-5.3l-6.8-8.8
	c-0.1-0.1-0.2-0.2-0.3-0.2l-5.9-0.9v-7.9l3.1,1.6c0.2,0.1,0.4,0.1,0.6,0l8.2-5.8l10.7-0.5c0.1,0,0.2,0,0.3-0.1l7.4-4.6l1.7,2.5
	c0.1,0.1,0.1,0.2,0.2,0.2l6.4,2.5c0.1,0,0.1,0,0.2,0l12.8,0.5c0,0,0.1,0,0.1,0l11.8-1.5c0.3,0,0.5-0.2,0.5-0.5l1-5.8l7.8-8.7
	c0.1-0.1,0.2-0.3,0.2-0.5l3.2-2.4c0,0,0.1-0.1,0.1-0.1l4.9-6.4c0,0,0,0,0.1-0.1l4.9-8.4c0-0.1,0.1-0.1,0.1-0.2v0c0,0,0-0.1,0-0.1
	l0.3-4l0.5-0.4c0,0,0.1-0.1,0.1-0.2c0,0,0,0,0-0.1c0,0,0-0.1,0-0.1c0,0,0,0,0,0v0c0,0,0-0.1,0-0.1l0.4-3.4l3.5-0.4
	c0.1,0,0.2,0,0.3-0.1l5.3-4l2.2,3.8c0,0.1,0.1,0.1,0.2,0.2l4.9,3.4c0.1,0.1,0.3,0.1,0.5,0.1l7.9-2c0,0,0.1,0,0.1-0.1l5.4-2.9l0,0
	l6.3-2.8l0.2,0.5c0.1,0.2,0.3,0.3,0.6,0.3c0.2,0,0.4-0.2,0.5-0.4v0l19,5.8c0.2,0.1,0.4,0,0.6-0.1l6.8-6.8l6.2-3.8h8.2
	c0.1,0,0.2,0,0.3-0.1L274.6,246.9z"/>
<path id="divi-94885" class="st0" d="M516.2,341.8l2.3,7.5c0,0,0,0.1,0,0.1l9,16.3l-1.6,8.5c0,0.2,0,0.4,0.2,0.6l4.2,3.2l3.5,4.9
	l-5.2,7.2c-0.1,0.2-0.1,0.4,0,0.6l5.2,8.6l-25.1,7.7l-5-12.8l0.4-20c0-0.1,0-0.1,0-0.2l-4.9-15.7l0.8-10.2c0-0.2,0-0.3-0.2-0.4
	l5.2-3.6L516.2,341.8z"/>
</svg>
