<?xml version="1.0" encoding="utf-8"?>
<!-- Generator: Adobe Illustrator 20.1.0, SVG Export Plug-In . SVG Version: 6.00 Build 0)  -->
<svg version="1.1"
	 id="tolima" inkscape:output_extension="org.inkscape.output.svg.inkscape" inkscape:version="0.46" sodipodi:docname="departamentos_colombia_plain.svg" sodipodi:version="0.32" xmlns:cc="http://creativecommons.org/ns#" xmlns:dc="http://purl.org/dc/elements/1.1/" xmlns:inkscape="http://www.inkscape.org/namespaces/inkscape" xmlns:rdf="http://www.w3.org/1999/02/22-rdf-syntax-ns#" xmlns:sodipodi="http://sodipodi.sourceforge.net/DTD/sodipodi-0.dtd" xmlns:svg="http://www.w3.org/2000/svg"
	 xmlns="http://www.w3.org/2000/svg" xmlns:xlink="http://www.w3.org/1999/xlink" x="0px" y="0px" viewBox="0 0 365.9 407.9"
	 style="enable-background:new 0 0 365.9 407.9;" xml:space="preserve">
<path id="divi-73349" class="st0" d="M247.3,61.8l4.4,0.8l0,0l4.2,1.1c0.1,0,0.3,0,0.4,0l0,0l2.5,1.4c0,0,0.1,0,0.2,0.1l2.8,0.5
	l1.3,8.3c-0.2,0.1-0.3,0.3-0.3,0.6l1,9.7L260,95.1l-1.1-0.5v-6c0-0.2-0.1-0.4-0.3-0.5l-1.9-1.1c-0.2-0.1-0.5-0.1-0.7,0.1l-2.3,2.4
	l-3.2-0.3l-1.8-2.6l-1.1-1.6c0,0,0-0.1-0.1-0.1l-2.7-2.5l3.1-2.9h0.1l5.4-3l0.1-0.1l2.3-2.5c0.2-0.2,0.2-0.5,0.1-0.7l-1.9-2.8l0,0
	l-1.5-2.5l-0.2-2.9c0-0.3-0.2-0.5-0.5-0.5l-4.8-0.8l-1.2-1L247.3,61.8z"/>
<path id="divi-73443" class="st0" d="M233.3,62.7h3.5l2.1,1.3c0.1,0.1,0.2,0.1,0.4,0.1l4.2-0.3c0.1,0,0.2,0,0.2-0.1l1.1-0.6l1.6,1.4
	c0.1,0.1,0.2,0.1,0.3,0.1l4.5,0.8l0.2,2.6c0,0.1,0,0.2,0.1,0.2l1.6,2.7l0,0l1.7,2.5l-1.9,2l-5.4,3c0,0-0.1,0-0.1,0.1l-3.2,3
	l-0.8-0.1l0,0c-0.2-0.2-0.4-0.2-0.6-0.1l0,0l-2.1-0.4c-0.1,0-0.1,0-0.2,0l-2.4,0.5l-2.1-1.9c-0.1-0.1-0.1-0.1-0.2-0.1l-2.6-1
	l-1.3-3.7c0-0.1-0.1-0.2-0.2-0.2l-2.1-1.6l-1-6.8V66c0.2,0,0.4-0.1,0.6-0.3c0.2-0.2,0.1-0.4,0-0.6l0,0l0.7-1.2
	c0.1,0.1,0.3,0.1,0.4,0L233.3,62.7z"/>
<path id="divi-73283" class="st0" d="M223.2,64.7l4.2,0.9c0,0.1-0.1,0.2-0.1,0.3l1.1,7.2c0,0.1,0.1,0.3,0.2,0.4l2.2,1.7l1.3,3.7
	c0.1,0.2,0.2,0.3,0.3,0.3l0.8,0.3l-1.3,1.6l-2.8,0.5l-3.2,0.5c-0.1,0-0.2,0.1-0.3,0.2l-2.2,2.2l-2.5,1.1v-0.1
	c-0.1-0.2-0.3-0.4-0.5-0.4l-4.6,0.2c-0.1,0-0.2,0.1-0.3,0.2l-3.2,3l0,0l-0.2,0.2l-0.2-2.3c0-0.1-0.1-0.2-0.1-0.3l-3.3-4l-0.5-2.5h1
	l2.3,1c0.3,0.1,0.6,0,0.8-0.2l2.2-4.2l0,0v-0.1l3-3.6c0,0,0,0,0-0.1l2.2-3.7l0,0c0.1,0,0.2-0.1,0.2-0.2l2.2-2.9h0.1v-0.1L223.2,64.7
	z"/>
<path id="divi-73347" class="st0" d="M203.7,79.7h3l0.6,2.9c0,0.1,0.1,0.2,0.1,0.2l3.2,3.9l0.3,2.8h-0.1c-0.3,0.2-0.3,0.5-0.2,0.8
	l-1.5,2.3l-3.6,1.5c-0.1,0-0.2,0.1-0.2,0.2l-3,3.5l-2.1,2l-3.9,0.7h-0.1l-5.1,1.6c-0.1,0-0.1,0.1-0.2,0.1l-3.9,3.1h-2.2l2-2.6
	c0.1-0.1,0.1-0.2,0.1-0.3l0.3-4.1v-0.1l-0.2-2.7l0.2-0.5c0.1-0.3-0.1-0.6-0.3-0.7l-1.1-0.5l-0.2-5.9l2.4-1.6
	c0.1-0.1,0.2-0.2,0.2-0.3l0.4-1.8l0.1-0.1l2.8-1.3l4.2,1.2c0.1,0,0.1,0,0.2,0l3.2-0.4c0.1,0,0.2-0.1,0.3-0.1L203.7,79.7z"/>
<path id="divi-73270" class="st0" d="M234.4,80l0.8,0.3l2.2,2.1c0.1,0.1,0.3,0.2,0.5,0.1l2.6-0.5l1.7,0.3l-0.9,2.5l-2,1.8
	c-0.2,0.2-0.2,0.4-0.2,0.6L240,90c0,0.1,0.1,0.1,0.1,0.2l1.8,2.2l-1.1,4.1l-3.2,1.9l-7.3-0.2c0,0,0,0-0.1,0l-4.6,0.2l-3.3-2.2
	c0,0,0,0,0.1-0.1l0.9-1.2l2.4,1.4c0.2,0.1,0.5,0.1,0.7-0.1l1.2-1.4c0.2-0.2,0.2-0.4,0.1-0.6l-1.2-2.8l0.5-2.2l0,0l1.4-3
	c0-0.1,0.1-0.2,0.1-0.2v-3l0.9-0.2l3-0.5c0.1,0,0.3-0.1,0.4-0.2L234.4,80z"/>
<path id="divi-73055" class="st0" d="M243.3,82.5l0.3,0.1c0,0.1,0.1,0.2,0.2,0.3l2.9,2.8l1.1,1.6l1.9,2.8c0.1,0.1,0.3,0.2,0.4,0.2
	l3.7,0.3c0.2,0,0.3-0.1,0.5-0.2l2.2-2.3l1.3,0.7v6c0,0.2,0.1,0.4,0.3,0.5l1.7,0.9l2.1,3c0.1,0.2,0.4,0.3,0.6,0.2l0,0l0.7,1.3v1.2
	l-2.8,1.1c-0.2,0.1-0.4,0.3-0.4,0.6l0.1,2.3c-0.1,0.1-0.1,0.2-0.1,0.3v0.3l-2.9,0.7c-0.1,0-0.2,0.1-0.3,0.2l-1.6,1.7l-4.8-0.7
	c-0.2,0-0.3,0-0.5,0.1c-0.1,0.1-0.2,0.3-0.2,0.4v1.9c0,0.3,0.2,0.5,0.5,0.6l2.4,0.4l0.1,1.6l-4.2-0.2l-4.3-1l-3.4-6.5
	c0-0.1-0.1-0.2-0.2-0.2l-2.8-1.8c-0.1-0.1-0.2-0.1-0.3-0.1l-4.7,0.2c-0.2-0.1-0.4-0.2-0.6-0.1l-3.7-3l-0.3-1.4l2-0.1l0,0l7.4,0.2
	c0.1,0,0.2,0,0.3-0.1l3.5-2.1c0.1-0.1,0.2-0.2,0.2-0.3l1.2-4.6c0-0.2,0-0.4-0.1-0.5l-1.9-2.4L240,87l1.9-1.7
	c0.1-0.1,0.1-0.2,0.2-0.2L243.3,82.5z"/>
<path id="divi-73520" class="st0" d="M227.3,83.2v2.7l-1.4,2.9v0.1l-0.5,2.5c0,0.1,0,0.2,0,0.3l1.1,2.7l-0.7,0.8l-2-1.1l0,0
	c0-0.2,0-0.4-0.2-0.5l-2.7-2.7l-0.5-1.2l1.3-0.8c0.2-0.2,0.3-0.5,0.2-0.7l-0.6-1.4l2.6-1.1c0.1,0,0.1-0.1,0.2-0.1l2.2-2.2
	L227.3,83.2z"/>
<path id="divi-73152" class="st0" d="M220.1,86.4l0.7,1.7l-1.4,0.8c-0.2,0.2-0.3,0.5-0.2,0.7l0.7,1.8c0,0.1,0.1,0.1,0.1,0.2l2.5,2.5
	l-1,1.3l-2.8,0.3l-2.1-1.9c-0.1-0.1-0.2-0.1-0.2-0.2l-3.4-0.9c-0.1,0-0.3,0-0.4,0l-3.9,2c-0.2,0.1-0.3,0.2-0.3,0.4l-0.5,3.8
	l-5.2,2.3l0,0l-6.5,3.2c-0.1,0-0.1,0.1-0.2,0.1l-2.9,3.3l-0.1,0.1l-6.2,4.8c0-0.2-0.1-0.4-0.2-0.5l-1.9-1.4v-4.5h2.6
	c0.1,0,0.2,0,0.3-0.1l4-3.1l4.9-1.6h0.1l4-0.7c0.1,0,0.2-0.1,0.3-0.2l2.3-2.1c0,0,0,0,0.1-0.1l2.9-3.4l3.6-1.5
	c0.1,0,0.2-0.1,0.2-0.2l2.1-2.8c0.1-0.1,0.1-0.2,0.1-0.4V90l0.8-0.7c0,0,0,0,0.1,0l3-2.8L220.1,86.4z"/>
<path id="divi-73870" class="st0" d="M212.9,93.9l3,0.8l2.2,2c0.1,0.1,0.3,0.1,0.4,0.1l2.1-0.2c0,0.1,0.1,0.1,0.2,0.1l4.2,2.8
	c0.1,0.1,0.2,0.1,0.3,0.1l1.6-0.1l0.3,1.6l-5.9,0.7c-0.2,0-0.4,0.2-0.4,0.3l-2,4.6l-2.7,1.3c-0.1,0.1-0.2,0.2-0.3,0.3l-1.4,3.8
	L213,112l0,0l-6.9-1.1H206l-5.1,0.3c-0.1,0-0.1,0-0.2,0l-5.9,2.1h-0.1l-8.5,0.9l0.1-0.1l7.3-5.7c0,0,0,0,0.1-0.1l3-3.3l6.4-3.1
	l5.5-2.5c0.2-0.1,0.3-0.2,0.3-0.4l0.5-3.8L212.9,93.9z"/>
<path id="divi-73411" class="st0" d="M228.2,102.3L228.2,102.3l2.9,2.4l-3.8,2.6c-0.1,0.1-0.2,0.3-0.2,0.4l-0.2,1.9
	c0,0.2,0.1,0.4,0.2,0.5l4.6,3.2l-0.9,4.5l-3,2.2c-0.1,0.1-0.1,0.1-0.2,0.2l-1.7,3.8l-0.1,0.1l-2.8,4l-4.8,2l-4-2.6l-1.1-3.5l2.2-4.4
	c0.1-0.2,0.1-0.3,0-0.5L214,116l0.9-2.6c0.2,0,0.3-0.2,0.4-0.4l1.5-4l2.7-1.3c0.1-0.1,0.2-0.2,0.2-0.3l2-4.5L228.2,102.3
	L228.2,102.3z"/>
<path id="divi-73408" class="st0" d="M237.3,105.2l2.6,1.6l3.4,6.6c0.1,0.1,0.2,0.2,0.4,0.3l4.6,1.1h0.1l4,0.1l-0.1,2l-3.8,0.8
	c-0.2,0.1-0.4,0.3-0.4,0.5s0.1,0.5,0.4,0.6l1.8,0.7l-2.3,2l0,0l-3.7,3.6c-0.1,0.1-0.1,0.2-0.2,0.3l-0.3,3.5l-2.8-0.2l-2.2-1.7
	c-0.1-0.1-0.3-0.1-0.4-0.1l-2.9,0.5l-2.8-1.3h-0.1l-5.4-1.5l1.6-3.6l3.1-2.2c0.1-0.1,0.2-0.2,0.2-0.4l1.1-5.1c0-0.2-0.1-0.5-0.2-0.6
	l-4.7-3.2l0.1-1.3l4.1-2.8L237.3,105.2z"/>
<path id="divi-73030" class="st0" d="M259.9,107.9v0.6l-0.4,4.7v0.1l-2.1,4.8c-0.1,0.1-0.1,0.3,0,0.4l1.4,3.2l0,0l0.6,3.2l-2.8,3.8
	l-5.9,3.7c-0.1,0.1-0.2,0.2-0.2,0.3l-0.8,2.8l-5.4,0.2l-0.6-1.2l0.9-1c0.1-0.1,0.2-0.3,0.2-0.4l-0.2-3.3v-0.1l0.3-3.8l3.6-3.4l3-2.6
	c0.2-0.1,0.2-0.3,0.2-0.5s-0.2-0.4-0.4-0.4l-0.9-0.4l2.4-0.5c0.2,0,0.4-0.2,0.5-0.5l0.2-2.5c0.2-0.1,0.4-0.3,0.4-0.6l-0.2-2.7
	c0-0.3-0.2-0.5-0.5-0.5l-2.3-0.4v-0.8l4.5,0.6c0.2,0,0.4,0,0.5-0.2l1.7-1.8L259.9,107.9z"/>
<path id="divi-73461" class="st0" d="M206,112.3L206,112.3l6.9,1.1l0,0l0.9,0.1l-0.9,2.5c0,0.1,0,0.3,0,0.4l1.3,3.1l-2.2,4.4
	c-0.1,0.1-0.1,0.3,0,0.4l1.2,3.9c0,0.1,0.1,0.2,0.2,0.3l3.3,2.1l-2.2,0.4l0,0l-4.8,1.2l-7.2-3.3h-0.1l-5.5-1.2c-0.1,0-0.3,0-0.4,0
	l-5.2,2.2l-4.7-0.2l-7.9-5.7l1.9-3.9l4.4-3.3c0.1-0.1,0.1-0.2,0.2-0.2l0.2-0.7l9.3-1c0.1,0,0.1,0,0.2,0l5.9-2.1L206,112.3z"/>
<path id="divi-73686" class="st0" d="M178.8,125.3l7.5,5.4c0.1,0.1,0.2,0.1,0.3,0.1l5,0.2c0.1,0,0.2,0,0.2,0l5.2-2.2l5.2,1.2h0.1
	l7.3,3.3c0.1,0.1,0.2,0.1,0.4,0l4.9-1.2h0.1l3.8-0.7c0.2,0,0.3-0.1,0.4-0.3l4.5-1.9c0.1,0,0.2-0.1,0.2-0.2l0.5-0.7l0.2,1.4l-3.2,3.5
	l0,0l-2.1,2.5c-0.1,0.1-0.2,0.3-0.1,0.4c0,0.2,0.1,0.3,0.2,0.4l2,1.4l-0.3,0.5l-2.1,0.5c-0.2,0-0.3,0.1-0.4,0.2l-1.2,2.1l-1.3,1.4
	l-1.7-1.6c-0.1-0.1-0.3-0.2-0.5-0.2l-1.5,0.2l-3.1-1l-2.4-2.7c-0.1-0.1-0.1-0.1-0.2-0.2l-3-1.2c-0.1,0-0.2-0.1-0.3,0l-3.3,0.7H200
	l-5.2-0.2l-1.2-1.2c-0.2-0.2-0.5-0.2-0.8-0.1l-1.4,1.1l-2.1,0.8l-7.2-0.2H182l-2.7-0.8c-0.1,0-0.3,0-0.4,0l-1.6,0.6
	c-0.2-0.1-0.4-0.1-0.6-0.1v-0.7c0.1-0.1,0.2-0.2,0.3-0.4c0-0.2,0-0.3-0.1-0.5l0.9-1.7c0-0.1,0.1-0.1,0.1-0.2L178.8,125.3z"/>
<path id="divi-73861" class="st0" d="M226.4,125.5L226.4,125.5C226.5,125.5,226.5,125.5,226.4,125.5l5.7,1.6h0.1l2.9,1.4
	c0.1,0.1,0.2,0.1,0.3,0.1l2.8-0.5l2.1,1.6c0.1,0.1,0.2,0.1,0.3,0.1l3,0.3l0.2,2.6l-1.1,1.1c-0.2,0.2-0.2,0.4-0.1,0.6l0.9,2
	c0.1,0.2,0.3,0.3,0.6,0.3l5.8-0.2l2.2,4.1v0.1l0.7,3.4l-2.2,3.3c-0.1,0.1-0.1,0.2-0.1,0.3v0.2l-4.7-2c0.1-0.3-0.1-0.6-0.4-0.7
	c-0.3-0.1-0.6,0.1-0.7,0.3l-5.1-0.3l-6-6.9c-0.1-0.1-0.1-0.1-0.2-0.2l-3-1.4c-0.1-0.1-0.3-0.1-0.4,0l-4.4,1.5l-2.6-0.9
	c0-0.2-0.2-0.3-0.3-0.4c-0.2-0.1-0.4-0.1-0.5,0l-1.5-1l1.7-2l3.3-3.7c0.1-0.1,0.2-0.3,0.2-0.5l-0.4-2.6l0,0v-0.2c0-0.1,0-0.1,0-0.2
	l0,0L226.4,125.5z"/>
<path id="divi-73043" class="st0" d="M193.1,136.4l1.1,1.1c0.1,0.1,0.3,0.2,0.4,0.2l5.5,0.2h0.1l3.3-0.5l2.8,1.2l2.4,2.7
	c0.1,0.1,0.2,0.1,0.2,0.2l3.4,1.1c0.1,0,0.2,0,0.2,0l1.3-0.2l1.9,1.8c0.1,0.1,0.3,0.1,0.4,0.1s0.3-0.1,0.4-0.2l1.8-1.9
	c0,0,0-0.1,0.1-0.1l1.1-1.9l2.1-0.5c0.1,0,0.3-0.1,0.3-0.2l0.5-0.8l2.8,1l-0.1,1.4l-2.3,0.8c-0.2,0.1-0.3,0.2-0.4,0.3s0,0.3,0,0.5
	l1.1,1.9l-0.4,1.3l-3.4,2.4c-0.1,0.1-0.2,0.2-0.2,0.3l-1,4.6l0,0c-0.1,0.1-0.1,0.3-0.1,0.4l-0.1,0.4l-4.2,0.2H214l-3.7,0.9
	c-0.1,0-0.2,0-0.2,0.1l-2.9,2.2l-5.8,0.8l-2.8-2.1l-0.8-1.5c-0.1-0.2-0.4-0.3-0.6-0.3l-2.9,0.5l-2.2-1.9l-1.4-2.3l0.8-2.4
	c0.1-0.2,0-0.4-0.1-0.5l-2.1-2.8c0,0,0,0-0.1-0.1l-2.8-2.5c0,0-0.1,0-0.1-0.1l-4.8-2.7c0,0-0.1,0-0.1-0.1l-4-1.2v-0.4l1.6-0.6
	l2.6,0.8c0.1,0,0.1,0,0.2,0l7.4,0.2c0.1,0,0.1,0,0.2,0l2.3-0.9c0.1,0,0.1,0,0.2-0.1L193.1,136.4z"/>
<path id="divi-73026" class="st0" d="M230.2,138l2.7,1.3l6.1,7c0.1,0.1,0.3,0.2,0.4,0.2l5.1,0.3l-0.7,4l-3.7,3.9l0,0l-6.7,6
	c0,0-0.1,0.1-0.1,0.2l-1.7,2.9l-2.6,2.1l-3.9,2l-3.1-0.6l0,0c0-0.1,0-0.3-0.1-0.4l-1-1.3l-0.7-3.8l2-2.3c0.1-0.1,0.2-0.3,0.1-0.5
	l-0.9-3.9c0-0.1-0.1-0.2-0.2-0.2l-1.3-1.5l0.9-4.3l3.3-2.3c0.1-0.1,0.2-0.2,0.2-0.3l0.5-1.8c0-0.2,0-0.3-0.1-0.5l-0.9-1.5l2-0.7
	c0.2-0.1,0.4-0.3,0.4-0.5l0.1-2.1L230.2,138z"/>
<path id="divi-73001" class="st0" d="M177.6,139.3l3.7,1.1l0,0l4.6,2.5l0.1,0.1l2.7,2.4l1.9,2.5l-0.8,2.4c-0.1,0.2-0.1,0.3,0,0.5
	l1.6,2.7l0.1,0.1l2.5,2.1c0.1,0.1,0.3,0.2,0.5,0.1l2.8-0.5l0.7,1.2c0,0.1,0.1,0.1,0.2,0.2l3,2.3c0.1,0.1,0.3,0.1,0.4,0.1l6.2-0.9
	c0.1,0,0.2-0.1,0.3-0.1l2.9-2.2l3.5-0.8l4.6-0.2c0.2,0,0.4-0.1,0.5-0.3l0,0l0.7,0.8l0.8,3.4l-1.9,2.3c-0.1,0.1-0.2,0.3-0.1,0.5
	l0.7,4.2c0,0.1,0,0.2,0.1,0.2l0.9,1.2l-0.2,2.2l-1.5,2c-0.2,0.2-0.1,0.6,0.1,0.8l3.2,2.8c0.1,0.1,0.2,0.1,0.3,0.2l5.4,0.8v4.1
	c0,0.2,0.1,0.4,0.3,0.5l3.7,1.5l-1.5,1.9c0,0,0,0.1-0.1,0.1l-0.9,2.1l-0.7-1.4c-0.1-0.3-0.5-0.4-0.8-0.3l-2.3,1.1
	c-0.2,0.1-0.3,0.2-0.3,0.4l-1.1,4.1l-5.2-1.2h-0.1l-6.1-2.6l0,0l-3.2-1.6c-0.1,0-0.1,0-0.2,0l-4.1-0.7c-0.2,0-0.3,0-0.5,0.1
	l-3.4,2.8l-3.2-0.3l-3.6-3.8c-0.1-0.1-0.2-0.2-0.3-0.2l-3.4-0.3l-4.6-0.5c-0.2,0-0.4,0.1-0.5,0.2l-2.4,3.3l-2.4,1l0,0h-0.1l-4,0.8
	c-0.1,0-0.2,0.1-0.2,0.1l-2.5,2l-5.3,0.2c-0.1,0-0.2,0.1-0.3,0.1l-3,2.2l-3.6-0.2l0.4-1.7l0,0v-0.1l1.2-2.7l0.1-0.1l3-4.3l2.6-0.8
	c0.1,0,0.1-0.1,0.2-0.1l2.1-1.7l5.9-1.9c0,0,0,0,0.1,0l3.7-1.8c0.2-0.1,0.3-0.2,0.3-0.4l0.7-3.5c0-0.2,0-0.4-0.2-0.5l-3-3.1v-0.1
	l-3.1-4.2l-0.8-4.1c0-0.2-0.2-0.4-0.5-0.5l-4.8-0.5l-1-1l-0.1-0.1l-2.8-3.8l2.7-1.6l6.3-2.4c0.1,0,0.2-0.1,0.2-0.2l1.8-2.1
	c0.1-0.1,0.1-0.2,0.1-0.3L177.6,139.3z"/>
<path id="divi-73547" class="st0" d="M245.6,147.2l4.9,2.1v0.7c-0.1,0.1-0.2,0.3-0.2,0.4l0.2,3.2c0,0.1,0,0.2,0.1,0.3l1.6,2.4l0.8,5
	l-1.3,1.3l-2.6-1.2c-0.1,0-0.2-0.1-0.3-0.1l-4.8,0.5c-0.1,0-0.2,0.1-0.3,0.1l-3.2,2.3c-0.1,0.1-0.2,0.3-0.2,0.5l0.2,4v0.1l-1,4l0,0
	l-2.9,5.3l-5.7,2.3l-1.7-0.7v-4.2c0-0.3-0.2-0.5-0.5-0.6L223,174l-2.6-2.3l1.3-1.7c0.1-0.1,0.1-0.2,0.1-0.3l0.1-1.5l3.1,0.6
	c0.1,0,0.3,0,0.4-0.1l4.2-2.1c0,0,0.1,0,0.1-0.1l2.7-2.1c0.1,0,0.1-0.1,0.2-0.2l1.7-2.9l6.7-6l0,0l3.9-4.1c0.1-0.1,0.1-0.2,0.2-0.3
	L245.6,147.2z"/>
<path id="divi-73124" class="st0" d="M165.3,155l2.9,4c0,0,0,0,0.1,0.1l1.2,1.2c0.1,0.1,0.2,0.2,0.4,0.2l4.5,0.5l0.8,3.8
	c0,0.1,0.1,0.2,0.1,0.2l3.2,4.4c0,0,0,0,0,0.1l2.8,3l-0.6,3l-3.5,1.6l0,0l-5.9,1.9c-0.1,0-0.1,0.1-0.2,0.1l-2.1,1.7l-2.7,0.8
	c-0.1,0-0.2,0.1-0.3,0.2l-3.2,4.6c0,0,0,0.1-0.1,0.1l-1.2,2.8v0.1l-0.6,2.8l-3,1.8c0,0,0,0-0.1,0l-1.4,1.1c0,0-0.1,0-0.1-0.1
	l-1.5-3.8c0-0.1-0.1-0.2-0.2-0.3l-3.6-2.4l-1.6-2.1c0,0,0,0,0-0.1s0-0.1-0.1-0.2l1.5-3.7c0,0,0,0,0-0.1l0.6-2.3l1.2-0.5
	c0.2-0.1,0.3-0.3,0.3-0.5l0.2-6.7l0.7-4.3l1.5-2c0,0,0,0,0-0.1l1.1-1.9c0.1-0.1,0.1-0.3,0.1-0.5l1.6-2.6l0,0l0.1-0.1l4.6-4.6
	L165.3,155z"/>
<path id="divi-73200" class="st0" d="M248.7,162.4l2.9,1.3c0.2,0.1,0.5,0,0.6-0.1l0.4-0.4l-0.7,2.8l-3.3,4.1
	c-0.1,0.1-0.1,0.2-0.1,0.3v0.5c-0.1,0-0.2,0.1-0.2,0.2l-1.8,2.7c0,0,0,0.1-0.1,0.2l-0.9,3.1v0.1l-1.7,3.8v0.1l-2.8,4.2
	c0,0.1-0.1,0.1-0.1,0.2l-0.5,3.6c0,0.1,0,0.2,0,0.3l0.7,1.9l0,0c0,0.1,0,0.2,0,0.3l0,0l0,0l-2.8,3.7l-1.8,2.4l-3.6-0.2l-0.2-2
	c0-0.1,0-0.2-0.1-0.3l-3-3.5c-0.1-0.1-0.1-0.1-0.2-0.2l-0.2-0.1l0,0c0-0.2-0.2-0.4-0.4-0.5s-0.4,0-0.6,0.1l-2.7-1.1l0.9-3.3l1.5-0.7
	l1,2c0.1,0.2,0.3,0.3,0.5,0.3s0.4-0.1,0.5-0.3l1.3-3.1l0.1-0.1l0,0l1.9-2.4c0.1-0.1,0.1-0.3,0.1-0.5s-0.2-0.3-0.3-0.4l-0.9-0.3
	l4.8-2c0.1,0,0.2-0.1,0.3-0.2l3-5.7c0,0,0-0.1,0.1-0.1l1.1-4.2c0-0.1,0-0.1,0-0.2l-0.2-3.8l2.8-2L248.7,162.4z"/>
<path id="divi-73624" class="st0" d="M186.9,182.9l4.2,0.5l0,0l3.2,0.3l3.6,3.8c0.1,0.1,0.2,0.1,0.3,0.2l3.7,0.4
	c0.2,0,0.3,0,0.4-0.2l3.3-2.8l3.4,0.6l-4.3,3.8c-0.2,0.2-0.2,0.4-0.2,0.6l0.2,0.8c-0.2,0-0.3,0.2-0.4,0.3l-3.1,5.3h-0.1l-4.7,4.6
	c-0.1,0.1-0.2,0.2-0.2,0.3l-0.7,6.2c0,0.1,0,0.1,0,0.2l0.4,2.9l-3.6-0.9c-0.1,0-0.1,0-0.2,0l-4.6,0.9c-0.2,0-0.3,0.2-0.4,0.3
	l-2.4,4.7l-4.1,3.2l-2.1-0.6c0,0,0,0-0.1,0c-0.1-0.1-0.2-0.1-0.3-0.2l0,0l-0.7-0.2l-0.2-2.4l1.4-3.5c0-0.1,0.1-0.1,0.1-0.2l0.2-4.6
	c0-0.2-0.1-0.3-0.2-0.4l-2.3-2.1c-0.2-0.2-0.4-0.2-0.7-0.1L173,206l-1.8-2l-0.1-0.1l-4.6-2.5l0,0l-7.8-3.5l-1.4-1.9l1.3-1h0.1
	l3.1-1.9c0.1-0.1,0.2-0.2,0.2-0.3v-0.1l4,0.2c0.1,0,0.3,0,0.4-0.1l3.1-2.2l5.3-0.2c0.1,0,0.2,0,0.3-0.1l2.5-2l4-0.8h0.1l2.7-1.1
	c0.1,0,0.2-0.1,0.2-0.2L186.9,182.9z"/>
<path id="divi-73678" class="st0" d="M210.3,186.2l2.2,1.1l0,0l6.2,2.7h0.1l5.8,1.4c0.3,0.1,0.6-0.1,0.7-0.3l2.8,1.2l-0.1,5l-2-1.5
	l-0.8-3c-0.1-0.2-0.3-0.4-0.5-0.4l-2.3-0.2c-0.3,0-0.6,0.2-0.6,0.5l-0.7,6.5l-2.2,4.5l0,0l-2.3,3.7c-0.1,0.2-0.1,0.4,0,0.6l2.2,3.4
	l0.5,3.8l-2,3.2c-0.1,0.1-0.1,0.2-0.1,0.3l-0.2,3.7c0,0.1,0,0.2,0.1,0.3l2.1,3.3c0.1,0.2,0.4,0.3,0.6,0.2h0.1l1,3.9
	c0,0.1,0,0.1,0.1,0.2l1.4,2l-3.4,0.1l-2.2-1.6l-2.2-3.9c-0.1-0.1-0.2-0.2-0.3-0.3l-3-1l-2.6-2.7c-0.1-0.1-0.3-0.2-0.5-0.2
	s-0.4,0.1-0.4,0.3l-0.8,1.6l-4.2-2.8l-1.4-3.4l2.2-6.3l1.9,0.8c0.2,0.1,0.5,0,0.7-0.2l3.7-4.6l0,0l5-3.2c0.1-0.1,0.2-0.2,0.2-0.3
	l0.9-3l0,0l1.9-3.2c0.1-0.1,0.1-0.2,0.1-0.4l-0.5-3.4c0-0.2-0.1-0.3-0.3-0.4l-2.7-1.6c-0.3-0.2-0.6-0.1-0.8,0.2l-1.4,2l-0.4-0.1l0,0
	l-1.7-0.8h-0.1l-3.8-2.5l-0.4-1.2L210.3,186.2z"/>
<path id="divi-73622" class="st0" d="M148.9,187.6l1.3,1.8c0,0.1,0.1,0.1,0.2,0.2l3.6,2.4l1.7,4.4c0.1,0.3,0.4,0.4,0.7,0.3l1.6,2.1
	c0.1,0.1,0.1,0.1,0.2,0.2l7.9,3.5l0,0l4.5,2.4l2.1,2.2c0.2,0.2,0.5,0.2,0.7,0.1l2.7-1.4l1.8,1.7l-0.1,2.9l0,0l-5.5,1.9
	c-0.1,0-0.2,0.1-0.3,0.2l-2.4,3.4l-3.4,1.9c-0.2,0.1-0.3,0.2-0.3,0.4l-0.5,4.2l-3.8,2.1h-0.1l-4.5,0.9h-0.1l-5.1,2.1
	c-0.1,0-0.2,0.1-0.2,0.2l-1.9,2.4l-4.8-0.2c-0.3,0-0.6,0.2-0.6,0.5l-0.1,2.4l-3.5-3l-6.8-5.6l0.6-4.2c0,0,0,0,0-0.1l0,0
	c0-0.1,0.1-0.1,0.1-0.2c0,0,0,0,0-0.1l3.4-4c0.1-0.1,0.1-0.2,0.1-0.3l0.1-1.5c0.1-0.2,0.1-0.3,0-0.5l0,0l0.4-6.9l4.2-9v-0.1
	L148.9,187.6z"/>
<path id="divi-73770" class="st0" d="M252.9,188.3l2.8,2.5l0.1,0.1l3.4,1.7l-1.5,5.4l0,0l-3.8,6.4c-0.1,0.1-0.1,0.2-0.1,0.2
	l-0.2,2.8c0,0.1,0,0.2,0.1,0.3l1.1,2.1l-1.3,4.9c0,0.1,0,0.1,0,0.2l0.7,6.9c0,0.1,0.1,0.3,0.2,0.3l1.9,1.8l-2.7,3.9
	c-0.1,0.1-0.1,0.2-0.1,0.2l-0.7,5.5l-2.4,4l-2.8-1.8c0,0-0.1,0-0.1-0.1L243,234l0.9-3.9l0,0l0.7-4.3l0.3-1.8l2.8-4
	c0,0,0-0.1,0.1-0.1l2.5-6.2c0.1-0.2,0.1-0.4,0-0.5s-0.3-0.3-0.5-0.3l2.2-4.3c0.1-0.1,0.1-0.2,0.1-0.3l-0.2-6.9c0,0,0,0,0-0.1
	l1.9-5.6c0-0.1,0-0.1,0-0.2v-5c0-0.1,0-0.1,0-0.2L252.9,188.3z"/>
<path id="divi-73275" class="st0" d="M251.9,188.8l0.8,2.2v4.8l-1.9,5.5l-3.6-1.9l-0.6-3.8c-0.1-0.3-0.3-0.5-0.6-0.5l-2.8,0.2
	l-2.1-1.5l1.4-1.8l0.1-0.1l3.3-0.9l5.1-1.2c0.1,0,0.2-0.1,0.2-0.2L251.9,188.8z"/>
<path id="divi-73352" class="st0" d="M281.8,190.4l4,1.2c0,0,0,0,0.1,0l0,0c0.1,0.1,0.2,0.2,0.3,0.2h0.3l0.3,2.3
	c0,0.3,0.3,0.5,0.6,0.5h1v4.2c0,0.2,0.1,0.3,0.2,0.4l4.1,4.1l0.5,4.8l-1.6,3.9c-0.1,0.2,0,0.4,0.1,0.5l0,0l-2.8,3.2
	c-0.1,0.1-0.1,0.2-0.1,0.3l-0.5,3.9c0,0.1,0,0.1,0,0.2l0.3,2.5c0,0,0,0,0,0.1v5.1l-1.6-1l-0.5-4.7V222l-1.8-5.1
	c0-0.1-0.1-0.2-0.2-0.3l-2.7-2.1c-0.1-0.1-0.2-0.1-0.3-0.1l-4.3-0.1l-0.4-3.6c0.1,0,0.1-0.1,0.2-0.2l0,0l3.9-2.7
	c0.1,0,0.1-0.1,0.2-0.1l3.7-4.8c0.1-0.1,0.1-0.3,0.1-0.4l-0.3-3.5c0-0.1,0-0.2-0.1-0.3l-3.6-4.8L281.8,190.4z"/>
<path id="divi-73449" class="st0" d="M280.5,190.9l-0.7,3c0,0.2,0,0.3,0.1,0.5l3.7,4.9l0.3,3.1l-3.4,4.5h-0.1l-4.3,2.9l-3,1.2
	c-0.1,0-0.1,0.1-0.2,0.1l-2.3,2.1h-1.3c0-0.2-0.1-0.3-0.2-0.4c-0.1-0.1-0.3-0.1-0.4-0.1l0.1-2.2l2.2-4c0.1-0.2,0.1-0.4,0-0.6
	l-1.2-2.3c-0.1-0.1-0.2-0.2-0.3-0.2l-3.5-1.6h-0.1l-2.8-1.8l-1-2.5l0.4-4l0.9,0.2l1.3,2.9c0.1,0.1,0.1,0.2,0.2,0.2l4.1,2.5
	c0.2,0.1,0.3,0.1,0.5,0l4.8-1.8c0.1,0,0.2-0.1,0.3-0.2l2.6-4.3L280.5,190.9z"/>
<path id="divi-73854" class="st0" d="M205.3,192.2C205.4,192.2,205.4,192.2,205.3,192.2l4.2,2.7c0,0,0,0,0.1,0l1.8,0.9
	c0,0,0.1,0,0.2,0.1l0.9,0.2c0.2,0.1,0.5,0,0.6-0.2l1.3-1.8l1.9,1.2l0.5,2.9l-1.8,3.2c0,0,0,0.1-0.1,0.1l-0.8,2.8l-5,3.2l-0.1,0.1
	l-3.4,4.2l-2.1-0.9c-0.2-0.1-0.5,0-0.6,0.1l-5.1,0.1h-0.2l-0.5-3.2v-0.1v-0.1l0.7-5.9l4.6-4.4l0.1-0.1L205.3,192.2z"/>
<path id="divi-73268" class="st0" d="M229.3,193l2.4,2.9l0.2,2.3c0,0.3,0.3,0.5,0.6,0.5l4.4,0.2c0.2,0,0.4-0.1,0.5-0.2l2-2.7l1-1.3
	l2.3,1.6c0.1,0.1,0.2,0.1,0.3,0.1l2.5-0.2l0.6,3.6c0,0.2,0.2,0.3,0.3,0.4l4.3,2.2l0.2,6l-2.4,4.7l-5.8-0.2l-5.9-4.4l-0.7-3.5
	c0-0.2-0.2-0.4-0.5-0.5l-2.9-0.5l-3.5-5.6L229.3,193z"/>
<path id="divi-73148" class="st0" d="M260.2,193l0.2,0.1c0,0,0.1,0,0.2,0.1l0.8,0.1l-0.4,4.2c0,0.1,0,0.2,0,0.2l1.1,2.8
	c0,0.1,0.1,0.2,0.2,0.3l3,1.9h0.1l3.4,1.5l1,1.8l-2.1,3.8c-0.1,0.1-0.1,0.2-0.1,0.3l-0.2,3.5c0,0.2,0.1,0.4,0.3,0.5l-0.1,0.2l-3.5,2
	H264l-3.7,3c0,0,0,0-0.1,0l-3.3,3.5l-1.8-1.6l-0.7-6.6l1.4-5c0-0.1,0-0.3-0.1-0.4l-1.2-2.1l0.2-2.6l3.8-6.4c0,0,0-0.1,0.1-0.2
	L260.2,193z"/>
<path id="divi-73319" class="st0" d="M222.9,193.4l1.3,0.1l0.8,2.8c0,0.1,0.1,0.2,0.2,0.3l2.8,2.1l0,0c0,0.1,0,0.1,0.1,0.2l3.7,6
	c0.1,0.1,0.2,0.2,0.4,0.2l2.8,0.5l0.7,3.3c0,0.1,0.1,0.3,0.2,0.3l6.2,4.6c0.1,0.1,0.2,0.1,0.3,0.1l6.4,0.2l0,0l-2.1,5.3l-0.1,0.1
	l-2.8,3.9c-0.1,0.1-0.1,0.2-0.1,0.2l-0.3,1.7l-8.9,5.5l-3.8,0.5l-5-7.3c-0.1-0.2-0.4-0.3-0.6-0.2l-5.3,1.1l-1.8-2.8l0.2-3.4l2-3.2
	c0.1-0.1,0.1-0.2,0.1-0.4l-0.5-4.1c0-0.1,0-0.2-0.1-0.2l-2.1-3.2l2.1-3.4l0,0l2.3-4.6c0-0.1,0-0.1,0-0.2L222.9,193.4z"/>
<path id="divi-73504" class="st0" d="M192.4,211.1l4,1c0.1,0.2,0.3,0.3,0.5,0.2h0.5h0.1c0.1,0,0.2,0,0.3,0l4.4-0.1l-2.2,6.1
	c0,0.1,0,0.3,0,0.4l1.6,3.7c0,0.1,0.1,0.2,0.2,0.3l5,3.2c0.1,0.1,0.3,0.1,0.5,0.1s0.3-0.2,0.4-0.3l0.7-1.4l2.1,2.2
	c0.1,0.1,0.2,0.1,0.2,0.2l2.9,1l2.2,3.9c0,0.1,0.1,0.1,0.2,0.2l2.1,1.5l-4.1,3.6l-3.7,3.1l-6.3,2.4c-0.1,0-0.2,0.1-0.3,0.2l-1.2,2.3
	c0,0.1-0.1,0.1-0.1,0.2l-0.8,5.1l-3.3,3.1l-5.2,1.1c-0.1-0.2-0.3-0.4-0.6-0.4s-0.5,0.2-0.5,0.4v0.2l-3.5,0.5l0.6-3.5
	c0-0.2,0-0.3-0.1-0.4l-1.9-2.7c-0.1-0.2-0.3-0.3-0.6-0.2l-2.8,0.5l-1.2-2.2c-0.1-0.1-0.2-0.2-0.3-0.2l-3.1-1l-3.6-3.3
	c-0.1-0.1-0.2-0.1-0.2-0.1l-3.9-0.8c-0.1-0.2-0.4-0.3-0.7-0.2l-0.5-5.7l4.4-3.4l0.1-0.1l2.5-3.2c0.1-0.1,0.1-0.2,0.1-0.3l0.2-4.6
	c0-0.2-0.1-0.3-0.2-0.4l-0.9-0.9l-0.2-3.1l1.6,0.1l2.9,0.9c0.2,0.1,0.4,0,0.5-0.1l4.4-3.5c0.1-0.1,0.1-0.1,0.2-0.2l2.3-4.6
	L192.4,211.1z"/>
<path id="divi-73226" class="st0" d="M275.8,211.1l0.4,3.7c0,0.3,0.3,0.5,0.6,0.5l4.6,0.2l2.4,1.9l1.7,4.9v0.1l0.5,4.8h-1.7l0,0
	l-5-1.4c-0.2-0.1-0.4,0-0.6,0.2l-2.6,3.2l-3.8,1.3c-0.2,0.1-0.4,0.3-0.4,0.5v6.1l-4.4,3.9c-0.1,0.1-0.2,0.3-0.2,0.5l0.3,5.5l-2,1.2
	l-5.6-5.4l-0.5-4.4c0-0.1-0.1-0.2-0.2-0.3l-2-1.9c-0.1-0.1-0.3-0.2-0.4-0.2c-0.2,0-0.3,0.1-0.4,0.2l-3.2,4.2l-2.2-1.7l0,0
	c0-0.1,0-0.2-0.1-0.3l2.5-4.2c0-0.1,0.1-0.1,0.1-0.2l0.7-5.5l2.8-3.9l0,0c0,0,0,0,0.1-0.1c0,0,0,0,0.1,0l3.7-3.9l3.6-2.9l3.7-2.1
	c0.1-0.1,0.2-0.2,0.2-0.3l0.2-0.7h1.9c0.1,0,0.3-0.1,0.4-0.2l2.5-2.2l0,0L275.8,211.1z"/>
<path id="divi-73675" class="st0" d="M177.6,211.7L177.6,211.7l-1.4,3.5c0,0.1-0.1,0.2-0.1,0.2l0.2,2.6h-0.6c-0.2,0-0.3,0-0.5,0.2
	c-0.1,0.1-0.2,0.3-0.2,0.5l0.2,3.9c0,0.1,0.1,0.3,0.2,0.4l0.9,0.9l-0.2,4.2l-2.2,2.9l-0.1,0.1l-4.5,3.5c-0.2,0.1-0.2,0.3-0.2,0.5
	l0.5,6.5c0,0.2,0.2,0.4,0.4,0.5l-0.9,2l0,0l-1.1,1.3l-6.5-1.7l-6.4-2.4l-5.8-6.6c-0.1-0.1-0.2-0.2-0.3-0.2l-4.1-0.9l0.1-2.4l4.6,0.2
	c0.2,0,0.4-0.1,0.5-0.2l2-2.5l4.9-2.1h0.1l4.5-0.9c0.1,0,0.1,0,0.2,0l4.2-2.3c0.2-0.1,0.3-0.2,0.3-0.4l0.5-4.2l3.3-1.8
	c0.1,0,0.1-0.1,0.2-0.2l2.3-3.4L177.6,211.7z"/>
<path id="divi-73168" class="st0" d="M132.8,220.8l-0.5,3.8c0,0.2,0.1,0.4,0.2,0.5l7.1,5.8l4.4,3.7c0.2,0.1,0.4,0.2,0.6,0.1h0.1
	l4,0.9l5.7,6.6c0.1,0.1,0.2,0.1,0.2,0.2l6.5,2.5c0,0,0,0,0.1,0l6.9,1.8c0.2,0.1,0.4,0,0.6-0.2l1.4-1.8c0,0,0-0.1,0.1-0.1l1-2.2
	l3.7,0.8l3.6,3.2c0.1,0.1,0.1,0.1,0.2,0.1l3,1l1.3,2.3c0.1,0.2,0.4,0.3,0.6,0.3l2.8-0.5l1.6,2.2l-0.7,4c0,0.2,0,0.4,0.2,0.5
	c0.1,0.1,0.3,0.2,0.5,0.2l3.8-0.6l-1.2,5.1l-4.9,4.9l0,0l-1,1.1l-0.1-0.3c-0.1-0.3-0.4-0.5-0.7-0.4s-0.5,0.4-0.4,0.7l0.2,1.1
	l-1.6,1.7l0,0l-6.6,8.7c0,0,0,0.1-0.1,0.1l-4.1,10.5l-6.1,2.5l0,0l-10.8,0.3l-1.3-5.3v-0.1l0.3-4.7c0-0.1,0-0.1,0-0.2l-0.9-3.3
	c-0.1-0.2-0.3-0.4-0.5-0.4l-3.4-0.3l-1.7-1.7l-0.3-3.4c0-0.2-0.2-0.4-0.4-0.5l-4-1.1l-2.6-3.4c-0.2-0.2-0.4-0.3-0.7-0.2l-3.7,1.7
	l-3.9-1.3l-0.5-3.5c0-0.3-0.2-0.5-0.5-0.5l-4-0.6l-3.5-3.2v-4.5c0-0.2-0.1-0.4-0.3-0.5l-3-1.5c-0.2-0.1-0.4-0.1-0.6,0l-6.2,4
	l-3.4-2.5l1-2v-0.1l2.6-8.6v-0.1l3.5-6.9v-0.1l3.8-3.8c0.2-0.2,0.2-0.4,0.1-0.6l0,0l2.8-2.1l0.1-0.1l7.2-8.6L132.8,220.8z"/>
<path id="divi-73671" class="st0" d="M225.2,225.2l4.9,7.3c0.1,0.2,0.3,0.3,0.6,0.2l4.2-0.5c0.1,0,0.2,0,0.2-0.1l2.6-1.6l1.1,2.8
	l-3.7,4.4l-5.7-0.3c-0.2,0-0.3,0-0.4,0.2l-2,2c-0.2,0.2-0.2,0.4-0.1,0.7l1.5,2.8l-1.2,2.8l-2.8,1.8l-2-2.3c-0.1-0.1-0.1-0.1-0.2-0.1
	l-5.8-3.1l-1.1-4.7l4-3.6c0.1-0.1,0.1-0.2,0.2-0.2l4.1-0.2c0.2,0,0.4-0.1,0.5-0.3s0.1-0.4,0-0.6l-1.9-2.8l0,0l-0.9-3.6L225.2,225.2z
	"/>
<path id="divi-73873" class="st0" d="M279.3,226.9l4.8,1.3h0.1h2.7c0.1,0,0.2,0,0.3-0.1l1.4,0.9h0.1v4.8l-2.1,5.8c0,0.1,0,0.1,0,0.2
	l-0.5,6c0,0.2,0.1,0.4,0.3,0.6l0.7,0.3l-1.2,2.2l0,0l-2.7,5.6l0,0l-2.8,3.1l-5,2.6c0,0,0,0-0.1,0l-0.3,0.2c-0.2-0.1-0.3-0.1-0.5,0
	c-0.1,0.1-0.3,0.2-0.3,0.4l-0.1,0.2l-2.2,1.5l-3.2-1.1l-2.1-2.9l0.5-5.1c0.2,0,0.3-0.1,0.4-0.2c0.1-0.1,0.1-0.3,0.1-0.4l-0.5-4.2
	l1.5-0.9c0.2-0.1,0.3-0.3,0.3-0.5l-0.3-5.6l4.4-3.9c0.1-0.1,0.2-0.3,0.2-0.4v-5.9l3.5-1.3c0.1,0,0.2-0.1,0.3-0.2L279.3,226.9z"/>
<path id="divi-73585" class="st0" d="M243.2,227.1l-0.5,3l0,0l-1.1,4.4c-0.1,0.3,0.1,0.6,0.3,0.7l4.8,1.7l0.1,0.1l2.8,1.8l0,0
	c0,0.1,0.1,0.3,0.2,0.3l3.2,2.5c0.1,0.1,0.3,0.1,0.4,0.1c0.2,0,0.3-0.1,0.4-0.2l3.1-4.1l1.4,1.3l0.5,4.4c0,0.1,0.1,0.2,0.2,0.3
	l6,5.8c0.2,0.2,0.5,0.2,0.7,0.1l0.1-0.1l0.3,3l-2.8-0.3c-0.1,0-0.1,0-0.2,0l-4.2,0.8l-5.7-1l-3.4-3.4c-0.1-0.1-0.1-0.1-0.2-0.2
	l-4.4-1.6c-0.1,0-0.1,0-0.2,0l-9,0.5c-0.1,0-0.2,0-0.3,0.1l-3.4,2.1c-0.1,0-0.1,0.1-0.2,0.2l-3.2,4.6l-3.7-6.2l2.4-1.5
	c0.1-0.1,0.2-0.1,0.2-0.2l1.4-3.2c0.1-0.2,0.1-0.4,0-0.5l-1.4-2.6l1.5-1.5l5.8,0.3c0.2,0,0.4-0.1,0.5-0.2l4.1-4.9
	c0.1-0.2,0.2-0.4,0.1-0.6l-1.2-3.2c0,0,0,0,0-0.1L243.2,227.1z"/>
<path id="divi-73217" class="st0" d="M214.3,238.2l1,4.3c0,0.2,0.2,0.3,0.3,0.4l5.9,3.2l2.2,2.6c0.2,0.2,0.5,0.3,0.7,0.1l3.6,5.9
	l-0.8,1.2c-0.1,0.2-0.1,0.3,0,0.5l1.1,2.9l-2.3,2.1l-0.1,0.1l-4.4,2.9c0,0,0,0.1-0.1,0.1l-2.6,2.6l-2.9-2.9
	c-0.1-0.1-0.1-0.1-0.2-0.1l-4.5-1.5c-0.3-0.1-0.5,0-0.7,0.2l-2.4,4.2l-5,4.7l-4.8-1.1c-0.2,0-0.3,0-0.5,0.1
	c-0.1,0.1-0.2,0.2-0.3,0.4l-0.6,4.3l-2.8,2.7c0-0.2-0.1-0.5-0.3-0.6s-0.5-0.1-0.6,0l-0.1,0.1l-2.5-2.7c-0.1-0.1-0.2-0.1-0.2-0.2
	l-4.7-1.4l-1.1-4.9l1.6-1.7l5.1-5.1c0.1-0.1,0.1-0.2,0.2-0.3l1.3-5.6l5.8-1.2c0.1,0,0.2-0.1,0.3-0.1l3.5-3.4
	c0.1-0.1,0.2-0.2,0.2-0.3l0.9-5.2v-0.1l1.1-2l6.2-2.4c0.1,0,0.1-0.1,0.2-0.1L214.3,238.2z"/>
<path id="divi-73563" class="st0" d="M245.2,247.9l4.2,1.5l3.5,3.5c0.1,0.1,0.2,0.1,0.3,0.2l6,1.1c0.1,0,0.1,0,0.2,0l4.2-0.9h0.1
	l2,0.2l-1.9,2.3c-0.1,0.1-0.1,0.1-0.1,0.2l-0.8,3.6l-3.3,1.4c-0.1,0.1-0.3,0.2-0.3,0.3l-1.7,3.9l-7.9,3.1l-7.6-1.8
	c-0.1,0-0.1,0-0.2,0l-3.3,0.3c-0.2,0-0.3,0.1-0.4,0.2c-0.1,0.1-0.1,0.3-0.1,0.5l0.6,2.4l-1.9,2.8l-5.4-4.8l0,0l0,0l-4.7-5.5l0.2-0.1
	c0,0,0,0,0.1-0.1l2.7-2.4c0.2-0.2,0.2-0.4,0.2-0.6l-1.1-3l0.3-0.5c0.1,0.1,0.3,0.2,0.5,0.2s0.3-0.1,0.4-0.2l3.7-5.2l3.2-2
	L245.2,247.9z"/>
<path id="divi-73616" class="st0" d="M119.1,254.4l2.4,1.2v4.4c0,0.2,0.1,0.3,0.2,0.4l3.9,3.6c0.1,0.1,0.2,0.1,0.3,0.2l3.8,0.5
	l0.5,3.4c0,0.2,0.2,0.4,0.4,0.5l4.5,1.5c0.1,0,0.3,0,0.4,0l3.5-1.6l2.4,3.2c0.1,0.1,0.2,0.2,0.3,0.2l3.8,1.1l0.2,3.2
	c0,0.1,0.1,0.3,0.2,0.4l2.1,2.1c0.1,0.1,0.2,0.2,0.4,0.2l3.2,0.2l0.8,2.9l0,0l-0.3,4.6c0,0.1,0,0.1,0,0.2l1.4,5.5h-4h-0.1l-7.7-1.2
	c-0.2,0-0.5,0.1-0.6,0.3l-2.4,3.9l0,0l-5.3,10.7c-0.3,0-0.5,0.1-0.6,0.4l-1.1,3l-5.1,1.4c-0.1,0-0.1,0.1-0.2,0.1l-5.4,4.4
	c0,0,0,0.1-0.1,0.1l-4.3,5.2h-4.2c-0.2,0-0.3,0.1-0.4,0.2l-4.3,4.9l-7.8,0.6c0,0,0,0-0.1,0l-5,0.9h-0.1l-6.2-0.5l5.4-14.5
	c0,0,0,0,0-0.1l3.2-12.7l3.6-5.9c0.1-0.2,0.1-0.5,0-0.7s-0.4-0.3-0.6-0.2l1-7.1l0,0l1.2-14.4l0,0l5-11.6l0.8-1.1
	c0.1-0.1,0.1-0.3,0.1-0.4c0-0.2-0.1-0.3-0.2-0.4l0.8-1.7l3.6,2.6c0.2,0.1,0.5,0.2,0.7,0L119.1,254.4z"/>
<path id="divi-73236" class="st0" d="M265.7,255.1l-0.4,3.7c0,0.1,0,0.3,0.1,0.4l2.4,3.3c0.1,0.1,0.2,0.2,0.3,0.2l3.6,1.2
	c0.2,0.1,0.4,0,0.5-0.1l1.2-0.8l-0.5,1.8l-2,1.7l0,0l-3.2,2.9l-5.2,0.8c-0.2,0-0.4,0.2-0.4,0.4l-1.2,5.1c0,0.1,0,0.1,0,0.2l0.5,4.4
	h-4.1c-0.2,0-0.4,0.1-0.5,0.3l-1.5,2.7c0,0.1-0.1,0.1-0.1,0.2l-0.6,3c0,0.2,0,0.3,0.1,0.4l3.3,4.7l-2.3,2.8l-4.3,3l-3.1-4.4l0.8-3.3
	l0.6-2.7c0-0.2,0-0.3-0.1-0.5s-0.3-0.2-0.4-0.2l-5.7-0.3c-0.1,0-0.2,0-0.3,0.1l-3.8,2.3l-5.2,0.6l-5.2-4.9l0,0l3-3l0,0l3.4-1.7
	c0.1-0.1,0.2-0.2,0.3-0.4l1.1-4.7c0.1,0,0.2-0.1,0.3-0.2l0,0l0.9-0.4c0.2-0.1,0.4-0.3,0.4-0.5v-0.3c0-0.2-0.1-0.3-0.2-0.4l1.3-2
	c0.1-0.1,0.1-0.3,0.1-0.4l-0.4-2l2.5-0.2l7.7,1.8c0.1,0,0.2,0,0.3,0l8.3-3.3c0.1-0.1,0.3-0.2,0.3-0.3l1.7-3.9l3.4-1.4
	c0.2-0.1,0.3-0.2,0.3-0.4l0.9-3.7L265.7,255.1z"/>
<path id="divi-73483" class="st0" d="M225.5,263l4.8,5.7c0,0,0,0,0,0.1l5.5,4.9l-1.1,4.7l-3.3,1.7c-0.1,0-0.1,0.1-0.2,0.1l-3.3,3.3
	c-0.1,0.1-0.2,0.3-0.2,0.5l0.9,6.6l-3.9,4.2c-0.1-0.3-0.4-0.4-0.6-0.4c-0.3,0-0.5,0.3-0.5,0.6h-3.3h-7l-3.8-1.4
	c-0.2-0.1-0.4-0.1-0.5,0l-3.6,2.4l0,0l-3.3,2.5l-2.9-1.6c-0.2-0.1-0.5-0.1-0.7,0.1l-2.7,2.4c-0.1,0.1-0.1,0.1-0.2,0.2l-0.9,2
	l-2.2-1.6c0.1-0.3-0.1-0.6-0.3-0.7l-0.2-0.1l0.5-3.2c0-0.3-0.1-0.5-0.3-0.6l-2.9-1.3l2-1.2l0.1-0.1l3-3.3c0.1-0.1,0.2-0.2,0.2-0.4
	v-2.7c0-0.1-0.1-0.3-0.2-0.4l-2.4-2.7l-1.2-2.4l2.3-1.8l0.4,0.5c0.2,0.2,0.6,0.2,0.8,0l3.6-3.6c0.1-0.1,0.1-0.2,0.2-0.3l0.5-3.8
	l4.4,1c0.2,0,0.4,0,0.5-0.2l5.4-5.1l0.1-0.1l2.2-3.8l3.9,1.3l3.2,3.2c0.2,0.2,0.6,0.2,0.8,0l2.9-2.9l0.1-0.1L225.5,263z"/>
<path id="divi-73067" class="st0" d="M184,269.4l1,4.4c0.1,0.2,0.2,0.4,0.4,0.4l4.9,1.4l2.3,2.5L190,280c-0.2,0.2-0.3,0.5-0.2,0.7
	l1.5,3l0.1,0.1l2.2,2.5v2.2l-2.8,3.1l0,0l-2.8,1.7c-0.2,0.1-0.3,0.3-0.3,0.5s0.1,0.4,0.3,0.5l3.5,1.6l-0.4,2.4l-5.3-2.4
	c-0.2-0.1-0.3-0.1-0.5,0l-3.9,2.2l-6-2.3c-0.1,0-0.1,0-0.2,0l-5.7-0.6c-0.3,0-0.5,0.1-0.6,0.3l-2.7,6.2l-5,5.6l-7.1,7.4
	c-0.1,0.1-0.1,0.2-0.2,0.3l-1.1,8.4l-0.1,0.1l-2.4-0.8l-0.6-8.6c0-0.2-0.1-0.4-0.3-0.5l-3.9-2.1c-0.2-0.1-0.4-0.1-0.6,0l-3.5,2l0,0
	l-3.4,1l-2.5-5.2l0,0l-1.7-3l5.5-11l0,0l2.2-3.5l7.4,1.1h0.1h5.7c0.2,0,0.4-0.1,0.5-0.3l9.9-0.3c0.1,0,0.1,0,0.2,0l6.6-2.7
	c0.1-0.1,0.3-0.2,0.3-0.3l4.2-10.7v-0.1l6.4-8.4V270L184,269.4z"/>
<path id="divi-73024" class="st0" d="M229.2,285.7l4.4,4.2c0.1,0.1,0.3,0.2,0.4,0.2l5.7-0.6c0.1,0,0.2,0,0.2-0.1l3.7-2.3l4.8,0.2
	l-0.4,2l-0.9,3.6c0,0.2,0,0.3,0.1,0.5l3.6,5.1c0.1,0.2,0.3,0.3,0.5,0.2l-12.5,12l0,0l0,0l-0.1,0.1c0,0,0,0-0.1,0.1l-3,1.9l-9.7-0.3
	h-0.1h-0.3c-0.1-0.2-0.3-0.4-0.6-0.4s-0.5,0.2-0.5,0.4l0,0l-3.8,0.4l-4.3-3.6l5.4-4.6c0,0,0.1,0,0.1-0.1l3.2-4.2
	c0.1-0.1,0.1-0.3,0.1-0.4l-0.5-4.2c0.1,0,0.2-0.1,0.3-0.2l4.5-4.8c0.1-0.1,0.2-0.3,0.2-0.5L229.2,285.7z"/>
<path id="divi-73555" class="st0" d="M133.2,307.7l1.4,2.6l0,0l2.7,5.6c0.1,0.3,0.4,0.4,0.7,0.3l3.9-1.2c0,0,0.1,0,0.1-0.1l3.3-1.9
	l3.3,1.8l0.6,8.6c0,0.2,0.2,0.4,0.4,0.5l1.8,0.6l-1.8,3.5l-4.6,2c0,0-0.1,0-0.1,0.1l-14.2,10.1l0,0l-13.3,7.7l0,0l-8.9,4.3l-6.6-2.8
	v-0.3c0-0.2-0.2-0.4-0.5-0.5c-0.2,0-0.5,0.1-0.6,0.3l-1.3-0.5l0,0l-6.3-6l-1.2-2.9l0.1-0.1l0,0c0.3-0.1,0.4-0.3,0.4-0.6
	c0-0.3-0.2-0.5-0.5-0.5h-0.3c-0.1,0-0.2,0-0.2,0l-1.3-3.2c-0.1-0.2-0.2-0.3-0.3-0.3c-0.2-0.1-0.3,0-0.5,0l0,0l0,0l-0.8-7.2l6.2,0.5
	c0.1,0,0.1,0,0.2,0l5-0.9l0,0l8-0.6c0.2,0,0.3-0.1,0.4-0.2l4.3-4.8h4.2c0.2,0,0.3-0.1,0.4-0.2l4.4-5.3l5.3-4.4l5.2-1.4
	c0.2-0.1,0.3-0.2,0.4-0.4L133.2,307.7z"/>
</svg>
