<?xml version="1.0" encoding="utf-8"?>
<!-- Generator: Adobe Illustrator 20.1.0, SVG Export Plug-In . SVG Version: 6.00 Build 0)  -->
<svg version="1.1"
	 id="guaviare" inkscape:output_extension="org.inkscape.output.svg.inkscape" inkscape:version="0.46" sodipodi:docname="departamentos_colombia_plain.svg" sodipodi:version="0.32" xmlns:cc="http://creativecommons.org/ns#" xmlns:dc="http://purl.org/dc/elements/1.1/" xmlns:inkscape="http://www.inkscape.org/namespaces/inkscape" xmlns:rdf="http://www.w3.org/1999/02/22-rdf-syntax-ns#" xmlns:sodipodi="http://sodipodi.sourceforge.net/DTD/sodipodi-0.dtd" xmlns:svg="http://www.w3.org/2000/svg"
	 xmlns="http://www.w3.org/2000/svg" xmlns:xlink="http://www.w3.org/1999/xlink" x="0px" y="0px" viewBox="0 0 540 368"
	 style="enable-background:new 0 0 540 368;" xml:space="preserve">
<style type="text/css">
	.st0{fill:none;stroke:#B3B3B3;stroke-miterlimit:10;}
</style>
<path id="divi-95001" class="st0" d="M328.9,48.8l2.1,5.7c0.1,0.2,0.3,0.4,0.6,0.4l5.7-0.5h0.1l3.9,1c0.1,0,0.3,0,0.4,0l5.2-2.8
	l5.2,1.4c0.2,0,0.3,0,0.5-0.1s0.2-0.2,0.3-0.4l0.4-2.2l5,2.7c-0.2,0.2-0.2,0.5,0,0.8l4.4,4.9c0.2,0.2,0.5,0.2,0.8,0.1l4.6-3.2l5,4.5
	l0,0l0,0l4.4,5.3c0.1,0.2,0.4,0.2,0.6,0.2c0.2-0.1,0.4-0.2,0.4-0.4l1.2-7.5l3.6,4.8c0.1,0.2,0.3,0.2,0.5,0.2h5.9h6.1l-1.3,4.7
	c0,0.2,0,0.4,0.1,0.5c0.1,0.1,0.3,0.2,0.5,0.2l7.9-1.5c0.1,0,0.2,0,0.2-0.1l3.8-2.9l1.8,6.1c0.1,0.2,0.2,0.3,0.4,0.4
	c0.2,0.1,0.4,0,0.5-0.1l7.2-6.2l6.1,0.5c0.2,0,0.3,0,0.4-0.1c0.1-0.1,0.2-0.2,0.2-0.4l0.4-5l9,4.7l-43.2,24.9
	c-0.2,0.1-0.3,0.2-0.3,0.4c0,0.2,0,0.3,0.1,0.5l5.4,6.9c0.2,0.2,0.4,0.3,0.7,0.2l5.5-2.3l4.1,4.5l0.1,0.1v0l2.4,3.8l3.4,5.9
	c0,0,0,0,0,0l4.9,7.9c0.1,0.1,0.2,0.2,0.3,0.2l1.6,6.5c0.1,0.2,0.2,0.4,0.4,0.4l9.8,2.5c0,0,0,0,0.1,0l0.7,0.1l1,4.5l-3.2-2.2
	l-3.4-2.4c-0.1-0.1-0.3-0.1-0.5-0.1c-0.2,0-0.3,0.1-0.4,0.3l-3.9,7.4l-1.5-2.9c-0.1-0.2-0.2-0.3-0.4-0.3l-6.4-1
	c-0.2,0-0.4,0-0.5,0.2c-0.1,0.1-0.2,0.3-0.2,0.5l0.3,2.1l-4.6-0.8c-0.2,0-0.5,0.1-0.6,0.2c-0.1,0.2-0.1,0.4,0,0.6l1.6,2.4l-5.2,2.2
	h-6.1H395l-5.8-1c-0.3,0-0.5,0.1-0.6,0.3l-1.5,3.5c0,0,0,0.1-0.1,0.2l-0.3,3l-3.1-4.2c-0.1-0.1-0.2-0.2-0.3-0.2l-3.7-0.9l-2.3-3.3
	c-0.1-0.2-0.3-0.3-0.6-0.2l-6.6,1.3l0.4-2.7c0-0.2,0-0.4-0.2-0.5c-0.2-0.1-0.4-0.2-0.5-0.1l-6.9,2.5c-0.2,0.1-0.3,0.2-0.4,0.4
	c0,0.2,0,0.4,0.1,0.5l3.5,4.2l-7-1.2l-1.8-5.1c-0.1-0.1-0.2-0.3-0.3-0.3c-0.1-0.1-0.3-0.1-0.4,0l-4.6,1.8l-4.2-2.8
	c-0.1-0.1-0.3-0.1-0.5-0.1c-0.2,0-0.3,0.2-0.4,0.3l-1.8,4.1l-6.9-0.4v-4.7c0-0.1,0-0.2,0-0.3v-0.8c0-0.2-0.1-0.4-0.3-0.5l-0.6-2.4
	l2.3-4.2c0.1-0.2,0.1-0.5-0.1-0.7l-3.4-3.4c-0.2-0.2-0.5-0.2-0.7-0.1l-6.4,3.5l-4.8,2.9l-5.8,0.5c-0.3,0-0.5,0.3-0.5,0.6l0.4,5.9
	l-2.9,0.4c-0.1,0-0.1,0-0.2,0.1l-5.2,2.8l-3.7-1.8c-0.1,0-0.2-0.1-0.2-0.1l-7.8-0.5c-0.2,0-0.3,0-0.5,0.2c-0.1,0.1-0.2,0.3-0.2,0.5
	l0.5,4.4c0,0.1,0,0.2,0.1,0.2l2.3,3.4l-4.7-0.4c-0.2,0-0.4,0.1-0.5,0.3c-0.1,0.2-0.1,0.4,0,0.6l2.8,4.2l-6.7-3l0.4-5.5
	c0-0.2-0.1-0.3-0.2-0.4c-0.1-0.1-0.3-0.2-0.4-0.2h-5.9l-1.4-5.5c-0.1-0.2-0.2-0.4-0.5-0.4l-8.2-1.4h0l-6.1-2.8l-1.4-4.6v0l0-0.1
	c-0.1-0.3-0.4-0.5-0.7-0.4s-0.5,0.3-0.5,0.6l0.5,4l-4.2,2.1l-3.2-2.2c-0.2-0.1-0.5-0.1-0.7,0c-0.2,0.2-0.3,0.4-0.2,0.6l2.1,4.6h-4
	c-0.2,0-0.3,0.1-0.4,0.2l-2.3,2.8h-5.8l-8.7-8.7c0,0-0.1-0.1-0.1-0.1l-6.4-3.9c0,0-0.1,0-0.1,0l-2.4-1c-0.1,0-0.1,0-0.2,0h-10.7
	l-5.2-3.3c0,0-0.1,0-0.1-0.1l-9.3-3c-0.1,0-0.2,0-0.3,0l-11.2,2.4l-10.2-1.4l-9.2-2.9c-0.1,0-0.2,0-0.2,0l-4.3,0.5h-0.1l-12.7-2
	c-0.1,0-0.1,0-0.2,0l-7.9,1c-0.1,0-0.2,0.1-0.3,0.2l-8.8,8.8c0,0,0,0-0.1,0.1l-3.4,4.3l-16.1,9.3c-0.1,0.1-0.2,0.1-0.2,0.2l-1.9,3.4
	l0,0.1l-1.4,1.2h0c-0.3,0-0.5,0.2-0.6,0.5c0,0,0,0,0,0l-0.7,0.6l-9.7,3.4c-0.1,0-0.2,0.1-0.2,0.2l-3.4,3.9c0,0,0,0.1-0.1,0.1
	l-3.2,5.8l-5.8-3.6c-0.1,0-0.2-0.1-0.2-0.1l-15.2-1.5c-0.1,0-0.1,0-0.2,0l-9.8,1.5c-0.1,0-0.1,0-0.2,0.1l-7.7,4.3l-17-1.5l-12.6-6.3
	L29,127.6v-3.3l1-4.4c0-0.1,0-0.2,0-0.3l-0.8-2.9l4.9-1.2l1.8,3.1c0.1,0.1,0.2,0.2,0.4,0.3c0.2,0,0.3,0,0.4-0.1l5.1-3.4l0.4,4
	c0,0.2,0.1,0.4,0.3,0.5s0.4,0.1,0.6,0l3.1-1.8l6.1,3.8c0.1,0.1,0.3,0.1,0.4,0.1l6.4-1.5c0.2,0,0.4-0.2,0.4-0.4c0-0.2,0-0.5-0.2-0.6
	c0,0,0,0,0,0l0.6-0.6l2.5,3.4c0.1,0.2,0.4,0.3,0.6,0.2s0.4-0.3,0.4-0.5l0.4-5.8l1.5,2.1l2,3.9c0.1,0.2,0.3,0.3,0.6,0.3
	s0.4-0.2,0.5-0.4L70,117l2.8,3.6c0.2,0.2,0.4,0.3,0.7,0.2l6.4-2.5c0.2-0.1,0.4-0.3,0.4-0.5v-3.2l3.1-3.1l1.2,3.1
	c0.1,0.2,0.2,0.3,0.4,0.4c0.2,0.1,0.4,0,0.5-0.1l3.6-2.4l0.4,3.5c0,0.2,0.1,0.3,0.3,0.4c0.1,0.1,0.3,0.1,0.5,0.1l3.9-1.5
	c0.3-0.1,0.4-0.4,0.4-0.6l-0.3-2.7l3.9,2.7c0.2,0.1,0.4,0.1,0.5,0.1c0.2-0.1,0.3-0.2,0.3-0.4l1-3.8l1.6-1.2l5.7,0.9
	c0.1,0,0.3,0,0.4-0.1l4.6-2.8l5.1,3.2c0.2,0.1,0.5,0.1,0.7,0c0.2-0.2,0.3-0.4,0.2-0.6l-2.2-5.2l6.6-0.9c0.2,0,0.5-0.2,0.5-0.4
	c0.1-0.2,0-0.5-0.3-0.6l-5.4-3.6l3.9-6.6l8.3-2.5c0.1,0,0.1,0,0.2-0.1l4.1-2.8l5.1,3.7c0.1,0.1,0.2,0.1,0.2,0.1l6.4,1
	c0.3,0,0.5-0.1,0.6-0.4l1.9-4.7l3.3-1.7l4.1,6c0.1,0.2,0.3,0.3,0.5,0.3c0.2,0,0.4-0.1,0.5-0.3l2.7-5.5l7.9,1.9
	c0.3,0.1,0.5,0,0.7-0.3c0.1-0.2,0.1-0.5-0.1-0.7l-5.6-6l4.6-0.4h0.1l4.9,1c0.2,0,0.3,0,0.5-0.1c0.1-0.1,0.2-0.3,0.2-0.4v-5.6
	l2.5-1.4c0.1,0.1,0.2,0.1,0.4,0.1l9.3,0.5c0.2,0,0.3-0.1,0.4-0.2l7.8-7.3l0.1-0.1l3.7-2.2l7.1,2.4c0.3,0.1,0.6-0.1,0.7-0.3l1.6-4.3
	l3.8,5.9c0.1,0.2,0.3,0.2,0.5,0.2h8.4c0.2,0,0.4-0.1,0.5-0.4c0.1-0.2,0-0.5-0.1-0.6l-5.7-6.2l1.8-4.8l5.9-2.8l5.6,4.2
	c0,0,0.1,0,0.1,0.1l6.4,2.9c0.1,0,0.2,0.1,0.3,0.1l7.3-0.9l0.4,3.4c0,0.2,0.1,0.4,0.3,0.4c0.2,0.1,0.4,0.1,0.5,0l6.7-3.8h10.2
	c0.2,0,0.3-0.1,0.4-0.2l4-4l6,5.5c0.1,0.1,0.3,0.2,0.5,0.1c0.2,0,0.3-0.2,0.4-0.4l2.7-7.6l5.3,4.4c0.1,0.1,0.3,0.2,0.5,0.1l4.1-0.9
	l2.2,2.2c0.2,0.2,0.4,0.2,0.7,0.1l4.3-1.9l0.1,0l6.1-1.8l2.8,1.8c0.2,0.1,0.5,0.1,0.7-0.1l3.8-3.3l7.4-1.9l5.7,4.8
	c0.2,0.2,0.5,0.2,0.7,0l5.7-3.9l0.8,3.1c0.1,0.2,0.2,0.4,0.5,0.4s0.5-0.1,0.6-0.3L328.9,48.8z"/>
<path id="divi-95025" class="st0" d="M156.4,112.9l12.7,2c0.1,0,0.1,0,0.2,0l4.3-0.5l9.2,2.9c0,0,0.1,0,0.1,0l10.3,1.5
	c0.1,0,0.1,0,0.2,0l11.2-2.4l9,2.8l0,0l5.4,3.4c0.1,0.1,0.2,0.1,0.3,0.1h10.8l2.2,0.9l6.3,3.8l8.9,8.8c0.1,0.1,0.3,0.2,0.4,0.2h6.4
	c0.2,0,0.3-0.1,0.4-0.2l2.3-2.8h4.6c0.2,0,0.4-0.1,0.5-0.3c0.1-0.2,0.1-0.4,0-0.6l-1.6-3.5l1.7,1.2c0.2,0.1,0.4,0.2,0.6,0.1l4.9-2.5
	c0,0,0.1,0,0.1-0.1l0.1,0.2c0.1,0.2,0.2,0.3,0.3,0.3l6.4,2.9c0,0,0.1,0,0.1,0.1l8,1.4l1.4,5.5c0.1,0.3,0.3,0.4,0.6,0.4h5.8l-0.4,5.3
	c0,0.3,0.1,0.5,0.3,0.6l8.8,3.9c0.2,0.1,0.5,0,0.7-0.1c0.2-0.2,0.2-0.5,0-0.7l-3.3-4.9l4.7,0.4c0.2,0,0.4-0.1,0.6-0.3
	c0.1-0.2,0.1-0.4,0-0.6l-2.9-4.3l-0.4-3.6l7.1,0.4l3.8,1.9c0.2,0.1,0.4,0.1,0.5,0l5.3-2.9l3.3-0.5c0.3,0,0.5-0.3,0.5-0.6l-0.5-5.8
	l5.3-0.4c0.1,0,0.2,0,0.2-0.1l4.9-2.9h0l6-3.2l2.8,2.8l-2.2,4.1c-0.1,0.1-0.1,0.3,0,0.4l0.9,3.8v5.4c0,0.3,0.3,0.6,0.6,0.6l7.9,0.5
	c0.2,0,0.5-0.1,0.6-0.3l1.7-3.8l3.8,2.6c0.2,0.1,0.4,0.1,0.5,0l4.4-1.8l1.8,4.9c0.1,0.2,0.2,0.3,0.4,0.4l8.8,1.5
	c0.2,0,0.5-0.1,0.6-0.3c0.1-0.2,0.1-0.5-0.1-0.7l-3.9-4.8l5.2-1.9l-0.4,2.5c0,0.2,0,0.4,0.2,0.5c0.1,0.1,0.3,0.2,0.5,0.1l7-1.4
	l2.2,3.2c0.1,0.1,0.2,0.2,0.3,0.2l3.7,0.9l3.8,5.2c0.1,0.2,0.4,0.3,0.6,0.2c0.2-0.1,0.4-0.2,0.4-0.5l0.5-4.3l0,0l1.2-3l5.5,0.9
	c0,0,0.1,0,0.1,0h6.4c0.1,0,0.2,0,0.2-0.1l5.9-2.5c0.2-0.1,0.3-0.2,0.3-0.4c0.1-0.2,0-0.3-0.1-0.5l-1.2-1.8l4.1,0.8
	c0.2,0,0.4,0,0.5-0.2c0.1-0.1,0.2-0.3,0.2-0.5l-0.4-2.2l5.3,0.8l1.8,3.7c0.1,0.2,0.3,0.3,0.5,0.3c0.2,0,0.4-0.1,0.5-0.3l4.1-7.8
	l2.9,2.1c0,0,0,0,0,0l4.4,2.9c0.2,0.1,0.4,0.1,0.6,0s0.3-0.4,0.2-0.6l-1.2-5.4l1.2,0.2l1.8,4.1c0.1,0.2,0.3,0.4,0.6,0.3l4.9-0.5
	c0.1,0,0.2,0,0.2-0.1l6.6-4.2l6.1,2.8c0.1,0,0.1,0.1,0.2,0.1l3.7,0.5l4.8,4.8c0.2,0.2,0.5,0.2,0.7,0.1c0.2-0.1,0.3-0.4,0.3-0.6
	l-0.8-4l3,0.8c0.1,0,0.2,0,0.3,0l5.8-1.4l3.2,0.9c0,0,0,0,0,0l6.4,1.5c0.1,0,0.3,0,0.4-0.1c0.1-0.1,0.2-0.2,0.3-0.4l0.9-3.9l8.3,0.9
	c0.2,0,0.5-0.1,0.6-0.3l2-3.7l3.4,4.3c0.1,0.1,0.3,0.2,0.4,0.2l5.2,0.4l-2.7,8.5l-14.6,8.8c-0.2,0.1-0.3,0.3-0.3,0.5l0.5,4.4v0
	l0.1,2.1l-3.3-1.2c-0.2-0.1-0.4,0-0.6,0.1l-4.3,4.3l-14.9,2.8l0-0.1c0.1-0.2,0.1-0.4-0.1-0.6c-0.1-0.2-0.3-0.3-0.5-0.2
	c-0.2,0-0.4,0.2-0.5,0.4l-0.6,1.4l-2.1-1.2c-0.2-0.1-0.5-0.1-0.7,0.1l-2.7,3.2l-3.1-0.9c-0.2-0.1-0.4,0-0.6,0.1l-2.1,2.1l-3-3
	c-0.2-0.2-0.6-0.2-0.8,0l-2.9,2.4l0,0l-4.6,3.2l-4.1-1.8c-0.1-0.1-0.3-0.1-0.5,0c-0.1,0.1-0.3,0.2-0.3,0.3l-1.8,5h-7
	c-0.1,0-0.2,0-0.2,0.1l-7.2,3.8l-7.6-1.9l-0.1,0l-4.8-2.4c-0.2-0.1-0.4-0.1-0.6,0.1l-5.2,4.2l-12.5-3.8c0,0,0,0-0.1,0l-8.3-2
	c-0.2,0-0.4,0-0.6,0.2l-3.1,3.6l-8-4.7c-0.2-0.1-0.4-0.1-0.6,0l-4.7,2.8l-6.2-1.9c-0.1,0-0.2,0-0.3,0l-5.9,2c0,0-0.1,0-0.1,0
	l-17.7,9.8c-0.2,0.1-0.3,0.3-0.3,0.4l-0.5,6.3l-2.8,5.5c-0.3-0.1-0.6,0-0.7,0.3c-0.1,0.3,0,0.6,0.2,0.7l-0.6,1.2l0,0.1l-2.5,3.7
	l0.1-0.3c0.1-0.3-0.1-0.6-0.4-0.7c-0.3-0.1-0.6,0.1-0.7,0.4l-0.1,0.6l-23.2-8.4c-0.1,0-0.1,0-0.2,0l-15.4-1.4l-1.8-5.1
	c-0.1-0.3-0.4-0.4-0.7-0.4l-5.6,1.4l-3.7-2.8c-0.1-0.1-0.2-0.1-0.3-0.1l-5.8-0.5l-7.6-3.8l-1.4-3.7c0-0.1-0.1-0.1-0.1-0.2l-3-3.4
	c-0.1-0.1-0.3-0.2-0.4-0.2h-5.7l0.8-3.7c0-0.2,0-0.3-0.1-0.5c-0.1-0.1-0.2-0.2-0.4-0.3l-7.4-1c-0.1,0-0.2,0-0.3,0l-48.4,18.1
	l-0.1-0.1c-0.1-0.3-0.5-0.4-0.8-0.2l-4.5-2.2l0.4-2.3l5.2-3.8c0.2-0.1,0.3-0.4,0.2-0.6l-1.5-5.9c0-0.1,0-0.1-0.1-0.2l-2.9-4.9
	l-2.5-3.9c-0.1-0.1-0.2-0.2-0.3-0.2l-4.7-1.4l-2.9-4.8c0,0-0.1-0.1-0.1-0.1l-8.4-6.9c-0.1-0.1-0.3-0.1-0.4-0.1l-8.9,1.5
	c-0.1,0-0.2,0-0.2,0.1l-6.4,4.4c-0.1,0.1-0.1,0.1-0.2,0.2l-2,3.4c-0.1,0.2-0.1,0.4,0,0.5l1.8,4l-3.8,3.1l-1.3-7.4
	c0-0.1-0.1-0.2-0.1-0.2l-5.4-6.3l-2.4-6.8c-0.1-0.2-0.2-0.3-0.4-0.3l-10.3-3c-0.2,0-0.4,0-0.6,0.2l-4.6,5.1l-5.1-2.3l1.1-0.9
	c0.1,0,0.1-0.1,0.1-0.2l1.9-3.3l16.1-9.2c0.1,0,0.1-0.1,0.2-0.2l3.5-4.4l8.7-8.7L156.4,112.9z"/>
<path id="divi-95015" class="st0" d="M127.5,139.1l9.7,2.8l2.3,6.6c0,0.1,0.1,0.1,0.1,0.2l5.3,6.2l1.4,8.2c0,0.2,0.2,0.4,0.4,0.4
	s0.4,0,0.6-0.1l4.9-3.9c0.2-0.2,0.3-0.4,0.2-0.7l-1.8-4.1l1.8-3.2l6.2-4.2l8.4-1.4l8.1,6.7l2.9,4.8c0.1,0.1,0.2,0.2,0.3,0.2l4.8,1.4
	l2.3,3.8l2.9,4.8l1.3,5.4l-5.1,3.7c-0.1,0.1-0.2,0.2-0.2,0.4l-0.5,2.9c-0.1,0.2,0.1,0.5,0.3,0.6l5.5,2.7l2.9,4.9l-4.9,2.7
	c-0.2,0.1-0.3,0.3-0.3,0.4l-0.5,4.4c0,0.1,0,0.2,0,0.2l1.4,3.7l-2.8,3.7c-0.2,0.2-0.2,0.5,0,0.7l3,3.9c0.1,0.1,0.2,0.2,0.4,0.2
	l3.9,0.5l5.6,1.4l2.3,4.6l0,0l0.4,4.2l-9.3,1.4c-0.2,0-0.4,0.1-0.4,0.3l-3.8,7.5l-11.8,0.5l-5.2-3.3c-0.1-0.1-0.3-0.1-0.4-0.1
	l-3.9,1c-0.2,0-0.3,0.1-0.4,0.3l-14.3,26.6l-4.3,4.3c-0.1,0.1-0.1,0.2-0.2,0.3l-1.4,6.5l-5.5,1.7l-0.8-4.3c0-0.2-0.2-0.4-0.4-0.4
	l-3.9-1.5c-0.2-0.1-0.3-0.1-0.5,0c-0.2,0.1-0.3,0.2-0.3,0.4l-0.8,5l-4.2-2.9c-0.1-0.1-0.3-0.1-0.5-0.1c-0.2,0-0.3,0.1-0.4,0.3
	l-3.4,6.4c-0.1,0.1-0.1,0.2-0.1,0.3l0.5,3.9c0,0,0,0,0,0l1,5.7l-0.8,2.5H119c-0.3,0-0.5,0.2-0.6,0.5l-0.5,3.2l-6.6,3.3
	c-0.2,0.1-0.3,0.3-0.3,0.6l0.4,3l-9.6,4.6l-4.2-4.2c-0.2-0.2-0.6-0.2-0.8,0L86.9,285c0,0,0,0,0,0l-5.7-3.9v0c0-0.3-0.1-0.5-0.4-0.6
	l-0.9-0.3l-0.8-0.6l-0.1,0L59,263.1L57.6,252c0-0.1-0.1-0.2-0.1-0.3l-4.4-5.4l-7.4-8.9c0-0.1-0.1-0.1-0.2-0.1l-6.2-3.3l-2.9-6.8
	c0,0-0.1-0.1-0.1-0.1l-6.2-7.5l-0.1-10.4c0.2-0.2,0.2-0.5,0-0.8L29.2,149l12.2,6.1c0.1,0,0.1,0.1,0.2,0.1l17.2,1.5
	c0.1,0,0.2,0,0.3-0.1l7.8-4.4l9.7-1.5h0.1l14.9,1.4l6.3,3.9c0.1,0.1,0.3,0.1,0.5,0.1c0.2,0,0.3-0.1,0.4-0.3l3.4-6.3l0,0l0-0.1
	l3.2-3.7l9.7-3.4c0.1,0,0.1-0.1,0.2-0.1l0.8-0.7l5.9,2.8c0.2,0.1,0.5,0,0.7-0.2L127.5,139.1z"/>
<path id="divi-95200" class="st0" d="M239.1,165.6l6.6,0.9l-0.8,3.8c0,0.2,0,0.4,0.1,0.5c0.1,0.1,0.3,0.2,0.5,0.2h6.2l2.7,3.2
	l1.4,3.8c0.1,0.1,0.2,0.2,0.3,0.3l7.9,3.9c0.1,0,0.1,0.1,0.2,0.1l5.7,0.5l3.8,2.8c0.1,0.1,0.3,0.1,0.5,0.1l5.4-1.3l1.8,4.9
	c0.1,0.2,0.3,0.3,0.5,0.4l15.6,1.4l0.1,0l23.3,8.4l-1.1,4.5l-6.8,7.3c-0.1,0.1-0.2,0.2-0.2,0.4l-0.5,10.2l-5.8,10.2
	c0,0,0,0.1-0.1,0.1l-2.9,9.7l0,0.1l-6.3,11.2c-0.1,0.1-0.1,0.2-0.1,0.3l0.5,8.8c0,0.1,0.1,0.2,0.1,0.3l5.8,7.6l-5,0.8l-3.4,0.5
	c-0.2,0-0.4,0.2-0.4,0.3l-2.4,5.8l-5.2,3.3c-0.1,0-0.1,0.1-0.2,0.2l-3.3,5.1l-7.5-0.5c-0.1,0-0.2,0-0.3,0.1l-5.4,3.4
	c-0.1,0.1-0.2,0.1-0.2,0.2l-3.4,6.9c0,0,0,0.1,0,0.1l-0.8,3.6c-0.2,0.2-0.2,0.4-0.2,0.6c0,0,0,0,0,0l-27.3,24.9l-0.3-0.4
	c-0.2-0.3-0.6-0.3-0.8-0.1c-0.3,0.2-0.3,0.6-0.1,0.8l0.1,0.1h-4.7l1.2-3.7c0.1-0.2,0-0.3,0-0.5s-0.2-0.2-0.4-0.3l-5.7-1.4l0,0
	l-4.4-2.9c-0.1-0.1-0.3-0.1-0.5-0.1l-5.9,2c-0.2,0.1-0.3,0.2-0.4,0.3l-0.8,2.5l-3.1-0.8l-1.4-5.6c0,0,0,0,0-0.1l-2-5.4
	c-0.1-0.2-0.3-0.4-0.6-0.4s-0.5,0.2-0.5,0.4l-1.2,4l-5.4-5l1.8-4v0l0,0l1.9-3.4c0.1-0.2,0.1-0.3,0-0.5s-0.2-0.3-0.4-0.3l-7-1.9v-6.4
	c0-0.2-0.1-0.4-0.3-0.5c-0.2-0.1-0.4-0.1-0.5-0.1l-4.9,2.1l0.8-4.9c0-0.2,0-0.3-0.1-0.5s-0.3-0.2-0.4-0.2h-4.6l1.2-3.7
	c0-0.2,0-0.3-0.1-0.5l-5.4-8.9c-0.1-0.2-0.3-0.3-0.6-0.2l-8.1,0.9l-4.7-5.7c-0.1-0.1-0.2-0.1-0.2-0.2l-10.5-4.3l-0.9-4.6
	c0-0.2-0.2-0.4-0.4-0.5c-0.2-0.1-0.4,0-0.6,0.2l-3.1,3.5l-6.5-6l0.2-0.8l4.3-4.3c0,0,0.1-0.1,0.1-0.1l14.1-26.3l3.5-0.9l5.2,3.3
	c0.1,0.1,0.2,0.1,0.3,0.1l12.3-0.5c0.2,0,0.4-0.1,0.5-0.3l3.8-7.6l9.5-1.4c0.3,0,0.5-0.3,0.5-0.6l-0.5-4.9c0-0.1,0-0.1-0.1-0.2
	l-2.4-4.9c-0.1-0.1-0.2-0.2-0.4-0.3l-5.9-1.5c0,0,0,0-0.1,0l-3.7-0.5l-2.5-3.4l2.7-3.6c0.1-0.2,0.2-0.4,0.1-0.6l-1.4-3.8l0.4-4
	l5.2-2.8c0.1-0.1,0.2-0.2,0.3-0.4c0-0.2,0-0.3-0.1-0.5l-2.8-4.8L239.1,165.6z"/>
</svg>
