<?xml version="1.0" encoding="utf-8"?>
<!-- Generator: Adobe Illustrator 20.1.0, SVG Export Plug-In . SVG Version: 6.00 Build 0)  -->
<svg version="1.1"
	 id="santander" inkscape:output_extension="org.inkscape.output.svg.inkscape" inkscape:version="0.46" sodipodi:docname="departamentos_colombia_plain.svg" sodipodi:version="0.32" xmlns:cc="http://creativecommons.org/ns#" xmlns:dc="http://purl.org/dc/elements/1.1/" xmlns:inkscape="http://www.inkscape.org/namespaces/inkscape" xmlns:rdf="http://www.w3.org/1999/02/22-rdf-syntax-ns#" xmlns:sodipodi="http://sodipodi.sourceforge.net/DTD/sodipodi-0.dtd" xmlns:svg="http://www.w3.org/2000/svg"
	 xmlns="http://www.w3.org/2000/svg" xmlns:xlink="http://www.w3.org/1999/xlink" x="0px" y="0px" viewBox="0 0 360 432"
	 style="enable-background:new 0 0 360 432;" xml:space="preserve">
<path id="divi-68575" class="st0" d="M151.1,70.7l6.3,8.4c0,0,0,0,0,0l4.7,5.8c-0.2,0.1-0.2,0.4-0.2,0.6l0.8,3c0,0.1,0,0.1,0.1,0.2
	l3.9,6.1l-4.4,7.8l0,0l-5.8,5.2c-0.2,0.1-0.2,0.4-0.2,0.6l1.3,5.9l-2.5,9.2c-0.1,0.3,0,0.5,0.3,0.7v5.8c0,0.2,0.1,0.3,0.2,0.4l5.5,5
	l-6.2,4c-0.2,0.1-0.3,0.2-0.3,0.4l-1.4,12.4c0,0.2,0,0.4,0.2,0.5s0.3,0.2,0.5,0.2l3.6-0.4l-2.3,4.8c-0.1,0.1-0.1,0.3,0,0.5
	c0.1,0.1,0.2,0.3,0.3,0.3l6.9,1.9l1.2,3c0.1,0.2,0.3,0.3,0.5,0.3l5.1,0.5l1.3,6.2c0,0.1,0.1,0.2,0.2,0.3l4.6,4.9l2.4,6.8
	c0,0.1,0.1,0.1,0.1,0.2l2.1,2.6l-11.8-5.9l-4.2-3.3c-0.1-0.1-0.3-0.1-0.4-0.1c-0.2,0-0.3,0.1-0.4,0.2l-2.8,3.8l-5.4-1.8
	c-0.2-0.1-0.4,0-0.6,0.1l-3,2.8l-3.2-1.2c-0.2-0.1-0.5,0-0.6,0.1l-4.2,4.2l-6.1-0.9l0-0.7c0-0.2-0.1-0.4-0.3-0.5
	c-0.2-0.1-0.4-0.1-0.6,0l-0.2-9.6c0,0,0,0,0-0.1c0,0,0,0,0-0.1c0,0,0,0,0,0l2.2-8.1c0,0,0-0.1,0-0.1l0.3-8.8c0-0.1,0-0.1,0-0.2
	l-1.8-5.2l8.3-9.7c0.1-0.1,0.1-0.1,0.1-0.2l4.1-12.1c0,0,0-0.1,0-0.1l1.4-9.1c0-0.1,0-0.1,0-0.2l1.5-2.1c0.1-0.1,0.1-0.3,0.1-0.4
	l-2.5-13.2c0,0,0,0,0,0l-2.2-8.5c0,0,0,0,0-0.1l-3-7.9l-0.2-6.9l0.2-0.2l0.5-0.2c0.2-0.1,0.3-0.2,0.4-0.4c0.1-0.2,0-0.4-0.1-0.5
	l4.4-6.3L151.1,70.7z"/>
<path id="divi-68615" class="st0" d="M242.3,165.8l-2.7,4.1c-0.1,0.1-0.2,0.3-0.1,0.5c0,0.2,0.1,0.3,0.3,0.4l3.1,2l0.5,3.4l-5.2,5.7
	l-5.8-0.3h0l-8-2.4l-5-6.2l0.3-4.2c0-0.2,0-0.3-0.1-0.4l-3.6-4.1c-0.2-0.2-0.5-0.2-0.7-0.1l-2.5,1.2l-2.5-1.4l0.3-7.1
	c0-0.3-0.2-0.5-0.4-0.6l-3.6-0.8c-0.2-0.1-0.5,0.1-0.6,0.3l-0.7,1.3c-0.2-0.1-0.4,0-0.6,0.1s-0.2,0.4-0.1,0.6l0.1,0.4l-0.5,1l-8-6.2
	l0.5-2.4c0-0.1,0-0.3-0.1-0.4l-3.9-6.3c-0.1-0.2-0.4-0.3-0.6-0.3l-3.9,0.8l-0.9-2.6c-0.1-0.2-0.2-0.3-0.3-0.3l-3.7-1.5l0.7-3.7
	c0.1-0.2-0.1-0.5-0.3-0.6l-4.4-2.2c0,0-0.1,0-0.1-0.1l-7.7-1.8l-0.7-3c-0.1-0.3-0.3-0.5-0.6-0.4l-2.4,0.2l-4.5-7.4
	c-0.1-0.2-0.3-0.3-0.5-0.3c-0.2,0-0.4,0.1-0.5,0.2l-1.5,2l-3.9,0.2l1.9-7.1c0,0,0.1,0,0.1,0l13.8,0.3c0.1,0,0.2,0,0.2-0.1h0l5.9,6
	c0,0,0,0,0.1,0.1l6.8,4.9l3.8,6c0.1,0.1,0.1,0.1,0.2,0.2l7.4,4.1c0.1,0.1,0.2,0.1,0.3,0.1l6.8-0.8l6.2,2.3c0,0,0,0,0,0.1l0.3,0.6
	c0.1,0.2,0.3,0.3,0.5,0.3c0.2,0,0.4-0.1,0.5-0.2l0.4-0.6l4.3,2.7l-2.4,0.3c-0.2,0-0.4,0.2-0.5,0.4l-1.1,3c-0.1,0.2,0,0.4,0.1,0.5
	l3.2,4.5l-3.4,2.2c-0.2,0.1-0.3,0.3-0.3,0.5s0.1,0.4,0.3,0.5l3.6,2.5c0.1,0.1,0.3,0.1,0.4,0.1l6.6-1.1c0.2,0,0.3-0.1,0.4-0.2
	l1.9-2.7l3.2,1.4l0.8,3c0,0.2,0.1,0.3,0.3,0.4c0.1,0.1,0.3,0.1,0.5,0l6.6-2.5c0.1,0,0.1-0.1,0.2-0.1l5.7-4.6h0c0.1,0,0.1,0,0.2,0
	l3.2,0.2"/>
<path id="divi-68655" class="st0" d="M162.5,122.3l4.2,7c0.1,0.2,0.3,0.3,0.6,0.3l2.2-0.2l0.7,2.8c0.1,0.2,0.2,0.4,0.4,0.4l7.9,1.9
	l4,2l-0.7,3.7c-0.1,0.3,0.1,0.6,0.3,0.7l3.9,1.6l1,2.8c0.1,0.3,0.4,0.4,0.7,0.4l4-0.8l3.5,5.8l-0.5,2.5c0,0.2,0,0.4,0.2,0.6l8.8,6.9
	c0.1,0.1,0.3,0.2,0.5,0.1s0.3-0.1,0.4-0.3l0.3-0.6l1.7,6.2l1.3,5.1v6.1l-9.6,8.2h0c-0.3-0.1-0.6,0-0.7,0.2l-10.8,2.7
	c0-0.2-0.2-0.3-0.3-0.4c-0.2-0.1-0.4-0.1-0.5,0l-3.5-2.2l-0.1,0l-3.4-4.2l-2.5-6.8c0-0.1-0.1-0.1-0.1-0.2l-4.6-4.8l-1.3-6.5
	c0-0.2-0.2-0.4-0.5-0.5l-5.2-0.5l-1.2-3c-0.1-0.2-0.2-0.3-0.4-0.3l-6.5-1.8l2.4-5.2c0.1-0.2,0.1-0.4-0.1-0.6
	c-0.1-0.2-0.3-0.3-0.5-0.2l-3.9,0.5l1.2-11.4l6.7-4.3c0.2-0.1,0.3-0.3,0.3-0.5c0-0.2-0.1-0.4-0.2-0.5l-5.9-5.3v-5.5l4.2-0.2
	c0.2,0,0.3-0.1,0.4-0.2L162.5,122.3z"/>
<path id="divi-68780" class="st0" d="M253.1,129.7l2.8,3.2c0.1,0.1,0.3,0.2,0.5,0.2l0.2,6.9c0,0.2,0.1,0.3,0.2,0.4l9.5,8.2l1.6,5.9
	c0,0.1,0.1,0.3,0.2,0.3v3.6c0,0,0,0.1,0,0.1c0,0,0,0,0,0l-5.2,3c-0.1,0-0.1,0.1-0.2,0.2l-2.5,3.3c-0.1,0.1-0.1,0.3-0.1,0.4
	c0,0.2,0.1,0.3,0.2,0.4l4.4,3.4l-0.4,3.4l-3.8-3.8c-0.2-0.2-0.4-0.2-0.6-0.1l-2.8,1.1v-3c0-0.1,0-0.2-0.1-0.3l-2-3.2l0.2-0.2
	c0.2-0.1,0.3-0.3,0.2-0.5c0-0.2-0.2-0.4-0.4-0.5l0.6-3.8c0-0.2,0-0.3-0.2-0.5l-3.8-4.1l-0.1-0.1l-2.7-4.3c-0.1-0.2-0.3-0.3-0.5-0.3
	l-4.8-0.2l1.6-1.6c0.2-0.2,0.2-0.5,0.1-0.8l-2.5-3.5l5.2-5.2c0.2-0.2,0.2-0.4,0.1-0.6l-1.9-4.7c0,0,0,0,0-0.1v-1.5l3.2,0.1
	c0.1,0,0.2,0,0.2-0.1L253.1,129.7z"/>
<path id="divi-68255" class="st0" d="M225.6,130.6h10l9.6,0.4v0.5c-0.3,0.1-0.4,0.5-0.2,0.7l2.1,5.2l-5.2,5.2
	c-0.2,0.2-0.2,0.5-0.1,0.8l2.5,3.5l-1.1,1.1h0c-0.1,0-0.3,0-0.4,0.1l-6.8,5.5l-5.9,2.2l-0.7-2.7c0-0.2-0.2-0.3-0.3-0.4l-3.9-1.7
	c-0.2-0.1-0.5,0-0.7,0.2l-2,2.8l-6.2,1.1l-2.7-1.9l3.1-2c0.1-0.1,0.2-0.2,0.2-0.4s0-0.3-0.1-0.4l-3.4-4.7l0.9-2.4l3.5-0.5l0.2,0.2
	c0.2,0.1,0.5,0.1,0.7,0l4.1-3.3c0.2-0.1,0.2-0.3,0.2-0.5l-0.5-5L225.6,130.6z"/>
<path id="divi-68406" class="st0" d="M206.7,156.6l2.7,0.6l-0.2,7c0,0.2,0.1,0.4,0.3,0.5l3,1.7c0.2,0.1,0.4,0.1,0.5,0l2.4-1.2
	l3.1,3.6l-0.2,4.2c0,0.1,0,0.3,0.1,0.4l5.2,6.6c0.1,0.1,0.2,0.2,0.3,0.2l8.3,2.5c0,0,0.1,0,0.1,0l1.9,0.1l-0.2,1.4h0l-1.1,4.1
	l-2.5,1.5c-0.2,0.1-0.3,0.2-0.3,0.4l-1.1,6.6c0,0,0,0,0,0l-0.5,6.6l-7-1.2l-1-4.3c0-0.1,0-0.1-0.1-0.2l-3-4.7
	c-0.1-0.2-0.3-0.3-0.5-0.2l-4.2,0.2l-4-3.4c-0.1-0.1-0.2-0.1-0.3-0.1L202,189l-2.7-2.7l9.8-8.4c0.1-0.1,0.2-0.3,0.2-0.4v-6.3
	c0-0.1,0-0.1,0-0.2l-1.4-5.2l-2-7.4L206.7,156.6z"/>
<path id="divi-68132" class="st0" d="M269.1,159.3l4.9,2.1l0.4,1.4l-4.8-1.2c-0.1,0-0.3,0-0.4,0l-3.6,1.7c-0.2,0.1-0.3,0.3-0.3,0.5
	l-0.3,4.2c0,0.1,0,0.1,0,0.2l-3.6-2.8l2-2.7L269.1,159.3z"/>
<path id="divi-68867" class="st0" d="M269.6,162.6l5,1.3c0.1,0,0.1,0,0.2,0h0l0.6,2.3l-1.7,0.8c-0.2,0.1-0.3,0.2-0.3,0.4l-0.3,1.8
	c0,0,0,0,0,0.1l0,0.1c0,0,0,0.1,0,0.1l-0.2,1.3v0l-2.7,5.7l-4.6-3.4l0.5-4.2c0-0.2-0.1-0.4-0.2-0.5l-0.1-0.1c0.3,0,0.6-0.3,0.6-0.6
	l0.2-3.8L269.6,162.6z"/>
<path id="divi-68169" class="st0" d="M260,169.8l4.4,4.4c0.2,0.2,0.5,0.2,0.7,0.1l4.2,3.1l-2.8,1.4h-5.1l-8.2-0.3
	c-0.2,0-0.4,0.1-0.5,0.3l-1.9,3.8l-3.5,2.9c-0.1,0.1-0.2,0.2-0.2,0.3c0-0.1-0.1-0.2-0.2-0.3l-0.2-0.2c0.1-0.1,0.2-0.3,0.2-0.5
	c0-0.2-0.2-0.3-0.3-0.4l0.7-0.7c0.1-0.1,0.2-0.2,0.2-0.3l0.8-6.9l8.6-5.1c0.1-0.1,0.2-0.2,0.2-0.4c0,0,0,0,0,0L260,169.8z"/>
<path id="divi-68081" class="st0" d="M164.1,176.9l3.7,2.9c0,0,0.1,0,0.1,0.1l13.8,6.9c0.1,0.1,0.2,0.1,0.3,0.1h0l3,1.9l-12.1,13.4
	c0,0,0,0,0,0l-8.5,11.9c-0.2,0.2-0.1,0.5,0,0.7l4.2,4.8l-1.5,1.2h-2c0,0,0,0-0.1,0l-5.5,0.6c-0.2,0-0.3,0.1-0.4,0.2l-2.6,3.9
	c-0.1-0.2-0.2-0.3-0.4-0.3c-0.2,0-0.4,0-0.5,0.1l-2.2-2.4c-0.1-0.1-0.1-0.1-0.2-0.2l-7.2-2.8l0.7-2.2c0.1-0.3-0.1-0.6-0.4-0.7
	l-3.9-1.1c-0.1,0-0.3,0-0.4,0l-7.4,3c0,0-0.1,0-0.1,0.1l-9.3,6.3l0,0l-10.8,6.2l4.6-7.2l7.3-3.8c0,0,0,0,0,0l11-5.8
	c0.1,0,0.1-0.1,0.2-0.1l7.2-7.2c0.2-0.2,0.2-0.4,0.1-0.7l-3.3-6.9c0,0,0,0,0-0.1l-4.1-6.5l0.2-9.2l6.3,0.9c0.2,0,0.3,0,0.5-0.2
	l4.2-4.2l3.2,1.2c0.2,0.1,0.4,0,0.6-0.1l3.1-2.8l5.4,1.8c0.2,0.1,0.5,0,0.7-0.2L164.1,176.9z"/>
<path id="divi-68820" class="st0" d="M271,177.9L271,177.9l4,5.5l-1,7.9l-4,5.1c-0.1,0.1-0.1,0.2-0.1,0.2l-0.2,1.2
	c-0.2,0.1-0.3,0.2-0.3,0.4c0,0.2,0,0.3,0.1,0.5l0,0.1l-3.6-0.6v-0.2c0-0.2-0.2-0.5-0.4-0.5l-8.6-2.5c-0.1,0-0.2,0-0.3,0l-3.8,1
	l1-2.8c0.1-0.2,0-0.5-0.2-0.7l-3.8-2.8c-0.2-0.1-0.4-0.1-0.5-0.1l-1,0.3l-0.6-3.8c0.1,0.1,0.2,0.2,0.4,0.2s0.3,0,0.4-0.1l3.6-3
	c0.1-0.1,0.1-0.1,0.2-0.2l1.8-3.5l7.9,0.3c0,0,0,0,0,0h5.2c0.1,0,0.2,0,0.3-0.1L271,177.9C270.9,177.9,270.9,177.9,271,177.9z"/>
<path id="divi-68001" class="st0" d="M242.6,178.6l-0.4,3.8c0,0.2,0,0.4,0.2,0.5l3.7,3.4l0.7,4.3l-0.3,0.1c-0.2,0-0.4,0.2-0.4,0.4
	c-0.1,0.2,0,0.4,0.2,0.6c0.2,0.1,0.4,0.2,0.6,0.1h0l-0.2,1.8l-2.7-0.4c-0.2,0-0.4,0.1-0.6,0.2l-1.6,2.4l0,0.1l-4.8,3.7
	c0,0-0.1,0.1-0.1,0.1l-2.3-3.1l0.3-4.8l3.1-2.9c0.2-0.2,0.2-0.4,0.2-0.6l-2-5.4l2.2,0.1c0.2,0,0.3-0.1,0.5-0.2L242.6,178.6z"/>
<path id="divi-68307" class="st0" d="M235.2,183.7l1.7,4.6l-3,2.8c-0.1,0.1-0.2,0.2-0.2,0.4l-0.2,5.2c0,0.1,0,0.3,0.1,0.4l3,4
	l1.9,7.6c0,0,0,0.1,0,0.1l2.4,5.3l-1,5l0,0c-0.2-0.1-0.4-0.1-0.6,0l-6.1,3c-0.1,0.1-0.2,0.1-0.2,0.2l-0.4,0.7l-5.3-6.3
	c-0.1-0.2-0.3-0.3-0.6-0.2l-7.7-6.7l-7.5-8c0,0,0,0-0.1-0.1l-7.7-5.8l0,0l-6.9-5.8c-0.1-0.1-0.2-0.1-0.3-0.2l-9.7-0.5v0l11.2-2.8
	l3.2,3.2c0.1,0.1,0.2,0.2,0.4,0.2l6.4,0.6l4,3.4c0.1,0.1,0.3,0.1,0.4,0.1l4.1-0.2l2.8,4.3l1.1,4.6c0,0.2,0.2,0.4,0.4,0.4l8,1.4
	c0.2,0,0.3,0,0.5-0.1s0.2-0.3,0.2-0.4l0.5-7.1v-0.1l1.1-6.3l2.5-1.5c0.1-0.1,0.2-0.2,0.2-0.3l1.1-4.4c0,0,0,0,0,0L235.2,183.7z"/>
<path id="divi-68689" class="st0" d="M185.7,189.7l-0.5,13.7c0,0.2,0.1,0.4,0.3,0.5c0.2,0.1,0.4,0.1,0.6,0l3.5-2.3l-1.1,6.1
	c0,0.2,0,0.4,0.2,0.5l4.4,5c0.1,0.1,0.3,0.2,0.4,0.2l5.8,0.3h0l6.5,1.8l3.9,9.2l-2.7,9.2c0,0,0,0,0,0l-2.1,8.9l-9.9-0.5l-0.9-2.3
	l0.8-5.1c0-0.3-0.1-0.5-0.4-0.6l-7.2-2.5c-0.2-0.1-0.4,0-0.5,0.1l-4.6,2.8l-4.4-4.1c-0.1-0.1-0.2-0.1-0.2-0.1l-5.5-1.4
	c-0.2,0-0.4,0-0.5,0.1c-0.1,0.1-0.2,0.3-0.2,0.5l0.5,7.3l-2.7-1.2c-0.3-0.1-0.6,0-0.8,0.3l-1.9,4.2l-6-2.8l-4.2-5.8l0.2-4.3
	c0.1-0.1,0.2-0.1,0.2-0.2l3.2-4.7l5.2-0.5h0.1h2.2c0.1,0,0.2,0,0.3-0.1l2.2-1.6c0.1-0.1,0.2-0.2,0.2-0.4c0-0.2,0-0.3-0.1-0.4
	l-4.4-4.9l8.3-11.5h0L185.7,189.7z"/>
<path id="divi-68092" class="st0" d="M186.8,190.7l9.5,0.5l6.8,5.7c0,0,0,0,0,0l7.7,5.7l0.1,0.1l7.4,7.9c0,0,0,0,0,0l8,7l-4.1,3.2
	c-0.1,0.1-0.1,0.1-0.2,0.2l-2.7,4.9l-5.7-4.9l-4.1-10.1c0-0.1-0.1-0.1-0.1-0.2l-2.8-3.6c-0.2-0.2-0.5-0.3-0.7-0.2l-9.4,4.9
	c-0.1,0.1-0.2,0.2-0.3,0.3l-2.5-0.1l-4-4.6l1.3-7.2c0-0.2-0.1-0.5-0.2-0.6c-0.2-0.1-0.4-0.1-0.6,0l-3.8,2.4L186.8,190.7z"/>
<path id="divi-68276" class="st0" d="M249,191.1l3.2,2.3l-1.1,3.1c-0.2,0-0.3,0.2-0.4,0.4c-0.1,0.2,0,0.4,0.1,0.5l-1.4,4.3l-4.7,4.4
	l-5.6-0.3c-0.1,0-0.2,0-0.3,0.1l-1.3-5.2c0-0.1,0-0.1-0.1-0.2c0,0,0.1-0.1,0.1-0.1l5-3.8c0.1,0,0.1-0.1,0.1-0.2l1.4-2.2l2.9,0.5
	c0.2,0,0.3,0,0.5-0.1s0.2-0.3,0.2-0.4l0.2-2.9L249,191.1z"/>
<path id="divi-68547" class="st0" d="M256.6,196.2l7.2,2.1c-0.1,0.2-0.1,0.4-0.1,0.6c0.1,0.2,0.2,0.3,0.4,0.3l0.4,0.1l0.2,7
	l-2.4,7.6l-7.1,1.8c-0.2,0.1-0.3,0.2-0.4,0.4l-1.9,5.2c-0.1,0.2,0,0.5,0.2,0.6c0.2,0.2,0.5,0.2,0.7,0l4.3-2.7l1.2,3.2
	c0.1,0.2,0.2,0.3,0.4,0.4l5.9,1.7v0c0,0.1,0,0.2,0.1,0.2l-1.4,4.9l-2.7,2.8l-0.1,0c-0.2,0.1-0.3,0.2-0.3,0.3c0,0,0,0,0,0l-3,3.1
	c0-0.3-0.2-0.5-0.5-0.5c-0.3,0-0.5,0.2-0.6,0.4l-2.8-5.6l0.2-0.3c0.1-0.1,0.1-0.3,0.1-0.4c0-0.2-0.1-0.3-0.2-0.4l-9.9-7.2
	c0,0,0,0,0,0l-3.6-2.3c0,0,0-0.1,0-0.1l1.1-5.5c0-0.1,0-0.2,0-0.3l-2.4-5.4l-0.4-1.5c0,0,0,0,0.1,0l5.8,0.3c0.2,0,0.3-0.1,0.4-0.2
	l5-4.7c0.1-0.1,0.1-0.2,0.2-0.2l1.6-4.8L256.6,196.2z"/>
<path id="divi-68705" class="st0" d="M270.4,199.2l3.1,1.1l-0.8,9v0.1l-2.2,6.2c0,0,0,0,0,0.1l-1.6,6.9l-2.4,1.2l-6.3-1.8l-1.3-3.6
	c-0.1-0.2-0.2-0.3-0.4-0.3c-0.2-0.1-0.3,0-0.5,0.1l-3.6,2.2l1.2-3.4l7.2-1.9c0.2,0,0.3-0.2,0.4-0.4l2.5-8c0-0.1,0-0.1,0-0.2
	l-0.2-6.9l4,0.6c0.3,0,0.6-0.2,0.6-0.4L270.4,199.2z"/>
<path id="divi-68318" class="st0" d="M274.7,200.7l2,0.7l0.1,0.1l8.2,4.9c0.1,0,0.1,0.1,0.2,0.1l0.2,0l0.7,4.7v0l0.5,6.2l-6.8,2.6
	c-0.1,0-0.2,0.1-0.2,0.2l-3.3,4.7c0,0.1-0.1,0.1-0.1,0.2l-0.7,4.5l-4.6-1.9c-0.2-0.1-0.5,0-0.6,0.1l-2.9,2.9h0c-0.2,0-0.4,0-0.5,0.1
	c-0.1,0.1-0.2,0.3-0.2,0.5c0,0,0,0,0,0l-2.8,0.7l1.4-1.5c0.1-0.1,0.1-0.2,0.1-0.2l1.5-5.4l2.9-1.4c0.2-0.1,0.3-0.2,0.3-0.4l1.6-7.1
	v0l2.2-6.3c0-0.1,0-0.1,0-0.2L274.7,200.7z"/>
<path id="divi-68162" class="st0" d="M290.6,205.3l9.5,3.8c0.1,0,0.2,0.1,0.3,0l8.9-1.3l2.8,7v5.9c0,0.1,0,0.2,0.1,0.3l-0.1,3.3v0.1
	l-1,5.7l-2.7,3.3l-4.3,1l-2.2-3.1c-0.1-0.1-0.2-0.2-0.3-0.2l-5.4-1c-0.2,0-0.4,0-0.5,0.1l-2.8,2.6l-2.4-2.7c0,0-0.1-0.1-0.1-0.1
	l-3.8-2.5l1.3-4.2l2.1-5.8c0.1-0.2,0-0.5-0.1-0.6l-2.1-2.1c-0.1-0.1-0.2-0.2-0.4-0.2l-0.3-3.6c0,0,0,0,0,0l-0.7-4.4l3.6,0.4
	c0.2,0,0.3,0,0.5-0.2c0.1-0.1,0.2-0.3,0.2-0.5L290.6,205.3z"/>
<path id="divi-68895" class="st0" d="M206,208.2l2.4,3.1l0,0.1l4.1,10.2c0,0.1,0.1,0.2,0.2,0.2l6.3,5.5c0.1,0.1,0.3,0.2,0.5,0.1
	s0.3-0.1,0.4-0.3l3-5.4l4.2-3.2l4.8,5.7v0l-0.4,0.7c-0.1,0.2-0.1,0.4,0,0.5c0,0,0,0,0,0l-3,8.5l-0.1,0.1l-4.1,5.9c0,0,0,0.1-0.1,0.1
	l-2.5,6.1c-0.2-0.1-0.4-0.1-0.6,0c-0.2,0.1-0.3,0.3-0.3,0.5v0.1l-4.5-2.3l-1.6-4.5c0-0.1-0.1-0.2-0.2-0.3l-6.9-4l0.3-1.4v0l2.8-9.3
	c0-0.1,0-0.3,0-0.4l-4.1-9.6c-0.1-0.2-0.2-0.3-0.4-0.3l-6.9-1.9c0,0-0.1,0-0.1,0l-1.2-0.1L206,208.2z"/>
<path id="divi-68669" class="st0" d="M287.6,216.2l1.3,1.3l-2,5.6c0,0,0,0,0,0l-1.5,4.6c-0.1,0.2,0,0.5,0.2,0.7l0.8,0.6l-1.9,8.3
	c-0.1,0.2,0.1,0.5,0.3,0.6l0.1,0.1c0,0.1,0,0.1,0,0.2l-0.6,3.3l-2.3,1.4l-3-0.9c-0.2-0.1-0.4,0-0.6,0.2l-4.4,4.9h-7.3l-0.3-0.1
	l3.6-2.6c0.2-0.2,0.3-0.5,0.2-0.8l-1.9-3.2v-1.3l2-2c0.2-0.1,0.2-0.4,0.2-0.6l-1-3.4c0-0.1-0.1-0.2-0.1-0.2l-1.1-1.2l2.6-2.6
	l4.9,2.1c0.2,0.1,0.4,0.1,0.5,0c0.2-0.1,0.3-0.2,0.3-0.4l0.8-5.1l3.2-4.5l7-2.7c0.2-0.1,0.4-0.3,0.3-0.6L287.6,216.2z"/>
<path id="divi-68745" class="st0" d="M142.2,216.9l3.1,0.9l-0.7,2.2c-0.1,0.3,0.1,0.6,0.3,0.7l7.6,3l2.7,2.9l-0.2,5.1
	c0,0.1,0,0.3,0.1,0.4l4.1,5.7c-0.3,0-0.6,0.2-0.7,0.5l-1.9,9.9c0,0.1,0,0.1,0,0.2l1.7,6.6c0,0.1,0.1,0.3,0.2,0.3l5.9,4l2.4,4.3
	c0.1,0.2,0.3,0.3,0.4,0.3l11.7,1.1l4.2,4.2c0.1,0.1,0.3,0.2,0.5,0.2l8.8-1.1c0,0,0.1,0,0.1,0l3.3-0.9l2.1,2.9
	c0.1,0.1,0.3,0.2,0.4,0.2s0.3-0.1,0.5-0.2l3-3l4.6,2.3c0,0,0,0,0,0l3.9,1.7c0.1,0,0.1,0.1,0.2,0.1h1.3c0,0.2,0.1,0.4,0.3,0.5
	l2.7,1.6l-1.4,4.3h0c-0.3,0-0.5,0.2-0.6,0.4l-1,3.9h0c0,0,0,0,0,0c0,0,0,0,0,0l-14.4-2.1l-1.5-4.6c-0.1-0.3-0.4-0.4-0.6-0.4l-1,0.1
	c-0.1-0.2-0.3-0.4-0.5-0.4c-0.2,0-0.5,0.1-0.6,0.3l-0.2,0.3l-0.6,0.1l-5.9-1.2v0l-4.9-2l-0.3-2.6c0-0.3-0.2-0.5-0.5-0.5l-9.2-1.5
	c-0.2,0-0.5,0.1-0.6,0.3l-1.1,2c0,0,0,0.1-0.1,0.1l-0.8,2.9l0,0.1l-0.2,0.4l-1.2-2.7c-0.1-0.1-0.2-0.3-0.3-0.3l-6-2.2l-2.9-3.5
	c0,0-0.1-0.1-0.1-0.1l-1.7-1c-0.1-0.1-0.2-0.1-0.4-0.1l-4.9-3.6l1.7-3.9c0.3,0,0.6-0.2,0.6-0.5c0.1-0.3-0.1-0.6-0.4-0.7l-5.4-1.5
	c0-0.1,0-0.3-0.1-0.4l-5.8-10.8c0-0.1-0.1-0.1-0.2-0.2l-11.5-7.5l3.9-8.9c0-0.1,0.1-0.2,0.1-0.2v-5c0,0,0-0.1,0-0.1c0,0,0,0,0,0
	l0.2-0.1L142.2,216.9z"/>
<path id="divi-68207" class="st0" d="M319.2,219.7l0.9,9.5c0,0.1,0.1,0.3,0.2,0.4l-1.4,12.6l-2.1,0.5l-3.8-2.5
	c-0.1-0.1-0.3-0.1-0.4-0.1l-1.8,0.4l-1.4-1.2c-0.1-0.1-0.2-0.1-0.2-0.1l-3.4-0.7c-0.2,0-0.4,0-0.5,0.2c-0.1,0.2-0.2,0.4-0.1,0.6
	l1.4,3.4l-3.4,0.7c-0.1,0-0.1,0-0.2,0.1l-2.8,1.8v0l-3,1.8l-3.5-3.9c0,0,0,0,0,0l-3.9-4.1c0,0-0.1-0.1-0.1-0.1l-3.7-2.1l1.7-7.4
	l2.2,1.5l0,0l2.7,3c0.1,0.1,0.2,0.2,0.4,0.2s0.3,0,0.4-0.1l3.1-2.8l4.9,0.9l2.3,3.2c0.1,0.2,0.4,0.3,0.6,0.2l4.9-1.1
	c0.1,0,0.2-0.1,0.3-0.2l2.9-3.6c0.1-0.1,0.1-0.2,0.1-0.2l1-5.9c0,0,0,0,0-0.1l0.1-3.4L319.2,219.7z"/>
<path id="divi-68418" class="st0" d="M239.4,220.3l4.4,2.8l9.2,6.7c-0.1,0.2-0.1,0.4,0,0.6l-3,4.3l0,0l-3.8,4.6c0,0,0,0-0.1,0.1
	l-0.1,0.1l-1.2,1.4l-5.8,0.8c-0.2,0-0.4,0.2-0.5,0.3l-4.5,0.4l-6.1-5.8l1.4-2c0,0,0.1-0.1,0.1-0.2l3.4-9.9l0.8-1.4L239.4,220.3z"/>
<path id="divi-68573" class="st0" d="M133.6,220.8v4.3l-4.1,9.2c-0.1,0.3,0,0.5,0.2,0.7l11.7,7.6l5.7,10.7c0,0,0,0,0,0
	c-0.1,0.1-0.1,0.3,0,0.5c0.1,0.1,0.2,0.3,0.3,0.3l4.7,1.7l-1.7,3.8c-0.1,0.2,0,0.5,0.2,0.7l4.7,3.5l-1.9-0.1l-3.5-0.8
	c-0.2,0-0.4,0-0.6,0.2l-4.2,5l-2.9-0.2h0l-0.3,0l-2.9-5.2c-0.1-0.3-0.4-0.4-0.7-0.3l-5.1,2l-2-3.2c-0.1-0.1-0.1-0.2-0.2-0.2
	l-7.2-3.8c-0.1-0.1-0.2-0.1-0.3-0.1l-5.3,0.3l-2.7-2l-2.4-7.1v-0.1l-0.6-8.2c0-0.1-0.1-0.3-0.2-0.4l-2.4-2.4l2.2-2.6
	c0,0,0,0,0.1-0.1l0.9-1.4c0.2,0.1,0.4,0.1,0.5,0l11.9-6.9c0,0,0,0,0,0L133.6,220.8z"/>
<path id="divi-68235" class="st0" d="M172.6,230.3l4.6,1.1l4.6,4.3c0.2,0.2,0.5,0.2,0.7,0.1l4.7-2.9l6.5,2.2l-0.8,4.8
	c0,0.1,0,0.2,0.1,0.3l1.1,2.8c0.1,0.2,0.3,0.4,0.5,0.4l10.3,0.5l-1.2,7.7l-0.1-0.1c-0.2-0.2-0.6-0.2-0.8,0.1s-0.2,0.6,0.1,0.8
	l0.6,0.5l-5,4.2c-0.1,0.1-0.2,0.2-0.2,0.4l-0.8,8.7l-0.8,0.2c-0.3-0.1-0.6,0-0.7,0.2c0,0,0,0,0,0l-3.3,0.8l-8.4,1.1l-4.2-4.2
	c-0.1-0.1-0.2-0.1-0.3-0.2l-11.6-1.1l-2.3-4.2c0-0.1-0.1-0.1-0.2-0.2l-5.9-4l-1.6-6.3l1.9-9.8c0,0,0-0.1,0-0.1l6.6,3
	c0.1,0.1,0.3,0.1,0.5,0s0.3-0.2,0.3-0.3l1.9-4.2l3.1,1.4c0.2,0.1,0.4,0.1,0.6-0.1c0.2-0.1,0.3-0.3,0.2-0.5L172.6,230.3z"/>
<path id="divi-68051" class="st0" d="M253.6,231.5l3.2,6.5c0.1,0.1,0.1,0.2,0.2,0.2v1.7c0,0.2,0.1,0.3,0.2,0.4l6.9,6.4l-5.7,4.5
	l-8.7,1.1l-6.3-5.1l0.5-1.2h4.3c0.2,0,0.5-0.2,0.5-0.4l0.8-3c0.1-0.2,0-0.4-0.1-0.5l-2.2-2.4l3.5-4.3c0,0,0,0,0,0L253.6,231.5z"/>
<path id="divi-68160" class="st0" d="M267.3,232.2l1,1.1l0.8,3l-1.9,1.9c-0.1,0.1-0.2,0.3-0.2,0.4v1.8c0,0.1,0,0.2,0.1,0.3l1.7,2.8
	l-3.7,2.7l-6.9-6.3v-2l4-4.2l4.9-1.3C267.2,232.3,267.3,232.3,267.3,232.2z"/>
<path id="divi-68296" class="st0" d="M207.5,236.7l6.4,3.7l1.6,4.5c0,0.1,0.1,0.3,0.3,0.3l5.2,2.7l-0.2,5.4l-2.7,6.9l-2.4,1.4
	l-0.7-3.9c0-0.2-0.2-0.3-0.3-0.4l-7.6-3l-2.4-2l1.6-9.5c0-0.1,0-0.2-0.1-0.3v0c0,0,0,0,0,0L207.5,236.7z"/>
<path id="divi-68872" class="st0" d="M227.4,237.6l6.2,5.9c0.1,0.1,0.3,0.2,0.5,0.2l4.3-0.4l-2.1,3.4c-0.1,0.2-0.1,0.4,0,0.6
	l2.1,3.4l-0.2,2.9v0c0,0,0,0,0,0.1c0,0.1,0,0.2,0,0.2l0,0.8l-3,0.4v-0.7c0-0.2-0.1-0.4-0.3-0.5l-4.5-2.3l1.2-3.9
	c0.1-0.2,0-0.4-0.1-0.6l-5.5-6.1c-0.1-0.2-0.4-0.2-0.6-0.2l0.1-0.2l0,0l0-0.1L227.4,237.6z"/>
<path id="divi-68190" class="st0" d="M109.3,238l2.2,2.2l0.5,8.1c0,0.1,0,0.1,0,0.2l2.5,7.4c0,0.1,0.1,0.2,0.2,0.3l3,2.2
	c0.1,0.1,0.2,0.1,0.4,0.1l5.3-0.3l6.9,3.8l2.1,3.4c0.1,0.2,0.4,0.3,0.7,0.2l5.1-2l2.8,5.1c0.1,0.2,0.3,0.3,0.4,0.3h0.2l0.1,0
	c0.1,0,0.1,0,0.2,0h0l2.5,3.4c0,0,0,0.1,0.1,0.1l5.8,5.2l-2,2.9c0,0,0,0-0.1,0.1l-2.9,6.2l0,0l-3.5,6.1l-7,5.4l-6.7,3.5h-0.1
	l-8.1,1.7l-7.2,1.6c-0.1,0-0.2,0.1-0.2,0.1l-3.2-2.6c-0.2-0.2-0.4-0.2-0.7-0.1l-3.5,1.9h0l0,0l-5.5,2.2c-0.1,0-0.2,0.1-0.2,0.2
	l-2.9,3.9c-0.2,0.2-0.2,0.5,0,0.8l2.8,2.8v5.1l-2.5,3.2l-1.6-5.4c0-0.2-0.2-0.3-0.3-0.4c-0.2-0.1-0.3-0.1-0.5,0l-2.7,1.3l-1.1-3.9
	c-0.1-0.2-0.2-0.3-0.4-0.4c-0.2-0.1-0.4,0-0.5,0.1l-4.1,3.7l-12.4-0.9l-2.1-7.3l1.2-3.8c0.1-0.2,0-0.5-0.2-0.7l-4.2-2.9l-6.2-6.8
	l3.9-3.4c0,0,0.1-0.1,0.1-0.1l4.8-8l6.9-1.2c0.2,0,0.3-0.1,0.4-0.3c0.1-0.2,0.1-0.4,0-0.5l-4.2-9.3l0.9-4.7c0-0.2,0-0.3-0.1-0.5
	l-2.3-3.2l4.7-6.5c0.1-0.1,0.1-0.2,0.1-0.2l0.5-3l5.5,1c0.2,0,0.3,0,0.4-0.1l9.1-6.3c0,0,0,0,0.1-0.1l5.6-5.4l6.7-0.5
	c0.2,0,0.3-0.1,0.4-0.2L109.3,238z"/>
<path id="divi-68432" class="st0" d="M286,238.4l2.8,1.5l0.1,0.1l3.8,4l-1.9,4.5l-1.3-0.6c-0.1,0-0.2-0.1-0.3-0.1l-3.4,0.2h0
	l-2.2-0.6l-0.8-3.8l2.4-1.4c0.1-0.1,0.2-0.2,0.3-0.4L286,238.4z"/>
<path id="divi-68152" class="st0" d="M306.5,240l2.3,0.4l1.5,1.2c0.1,0.1,0.3,0.2,0.5,0.1l1.9-0.4l3.7,2.5c0.1,0.1,0.3,0.1,0.5,0.1
	l2.4-0.6l2.1,2.9L320,250l-2.2,5.8l-4.2,4.1l-2.4-0.7c-0.2-0.1-0.4,0-0.6,0.2l-1.8,2.2l0,0l-2.9,1.9l0.1-2.8c0-0.2-0.1-0.4-0.3-0.5
	l-4.4-2.6c0,0-0.1,0-0.2-0.1l-4-1l2.5-4.4l2.6-4.4c0-0.1,0.1-0.1,0.1-0.2l0.5-2.4c0,0,0-0.1,0-0.1c0,0,0,0,0,0l0.4-0.3l4-0.8
	c0.2,0,0.3-0.1,0.4-0.3c0.1-0.2,0.1-0.3,0-0.5L306.5,240z"/>
<path id="divi-68370" class="st0" d="M246.6,240.6l1.8,2l-0.6,2.3h-4.2c-0.2,0-0.4,0.2-0.5,0.4l-0.5,1.3c-0.3,0-0.5,0.1-0.6,0.4
	c-0.1,0.2,0,0.5,0.2,0.7l0,0l-3.4-0.5c0,0,0,0-0.1,0c-0.1,0-0.1,0-0.2,0c0,0,0,0,0,0l-0.8,0.1l-0.2-0.4l2.6-4.1c0,0,0-0.1,0.1-0.1
	l5.3-0.7c0.1,0,0.3-0.1,0.4-0.2L246.6,240.6z"/>
<path id="divi-68079" class="st0" d="M224.9,241.7C224.9,241.7,225,241.7,224.9,241.7l5.3,5.9l-1.3,4.1c-0.1,0.3,0.1,0.6,0.3,0.7
	l4.6,2.3v0.9c0,0.1,0,0.1,0,0.2v2.3l-3.4,1c-0.2,0.1-0.4,0.2-0.4,0.4l-0.5,2.4l-1.8,0.6l-6.1-8c-0.1-0.1-0.1-0.1-0.2-0.1l0.2-0.7
	c0-0.1,0.1-0.1,0.1-0.2l0.2-5.3c0.1-0.1,0.2-0.2,0.3-0.3L224.9,241.7z"/>
<path id="divi-68468" class="st0" d="M278.9,243l2.6,0.8l0.9,4.2c0,0.2,0.2,0.4,0.4,0.4l0.4,0.1c0,0.1,0,0.3,0,0.4l1.1,3l-0.6,4.1
	l-1,0.3c-0.2,0.1-0.4,0.3-0.4,0.6l0.2,2.6c0,0,0,0-0.1,0l-3.4,3.1c-0.1,0.1-0.1,0.1-0.1,0.2l-0.8,1.7l-4.5-6.4l-2.4-3.6
	c0.2-0.2,0.3-0.5,0.2-0.7c-0.1-0.3-0.4-0.4-0.7-0.3l-0.2,0l-0.5-0.8l-3.3-4.8h7.3c0.2,0,0.3-0.1,0.4-0.2L278.9,243z"/>
<path id="divi-68266" class="st0" d="M293.5,244.9l2.9,3.3c0.2,0.2,0.5,0.3,0.7,0.1l3.4-2c0,0,0,0,0,0l0.9-0.6l-0.2,1.3l-2.6,4.3
	l-2.6,4.5l-0.2,0.2h-0.1l-0.1,0c-0.2,0-0.4,0-0.5,0.2c-0.1,0.1-0.2,0.3-0.2,0.5l-2.4,1.8l0,0l-1.9,0.8l0.7-4.9c0,0,0,0,0,0l0.4-5v0
	c0.1-0.2,0.1-0.3,0-0.5c0,0,0,0,0,0l0-0.2L293.5,244.9z"/>
<path id="divi-68229" class="st0" d="M265.2,247.6C265.2,247.6,265.2,247.6,265.2,247.6l4.1,5.9l0.2,0.4l-0.8,0.1l-4.2-0.6
	c-0.2,0-0.4,0.1-0.5,0.2l-2,2.6H257c-0.2,0-0.4,0.1-0.5,0.3l-1.8,3.6c0,0,0,0.1-0.1,0.2l-0.9,5.2l-2.5,1.1l-3.8-2.9
	c0,0-0.1-0.1-0.2-0.1l-5.7-1.8c0,0-0.1,0-0.1,0l-1.6-0.1l0.8-3.6l1.7-1.9c0.1-0.1,0.2-0.3,0.2-0.5c0-0.2-0.1-0.3-0.3-0.4l-2.8-1.8
	l0.2-2.9c0-0.1,0-0.2-0.1-0.3l-1.1-1.8l0.3,0l3.9,0.5c0.3,0,0.5-0.1,0.6-0.3l0.1-0.1l6.2,5c0.1,0.1,0.3,0.1,0.4,0.1l9.1-1.1
	c0.1,0,0.2-0.1,0.3-0.1L265.2,247.6z"/>
<path id="divi-68684" class="st0" d="M284.5,248.8l1,0.2c0.1,0,0.1,0,0.2,0l3.5-0.2l1.6,0.8l-0.4,4.8v0l-0.8,5.8
	c-0.1,0.1-0.1,0.2-0.2,0.3l-0.2,1.8l-5.2-2.5l-0.2-2.8l0.9-0.3c0.2-0.1,0.3-0.2,0.3-0.4l0.7-4.6c0-0.1,0-0.2,0-0.3L284.5,248.8z"/>
<path id="divi-68344" class="st0" d="M204.1,253.5l2.2,1.8c0,0,0.1,0.1,0.2,0.1l7.4,2.9l0.8,4.3v0.1l0.3,5.2l-1.4,2.3H211l-3.8-1.6
	l0,0l-4.9-2.5c-0.2-0.1-0.5-0.1-0.7,0.1l-2.8,2.8l-1.5-2l0.7-0.2c0.2-0.1,0.4-0.3,0.4-0.5l0.8-8.8L204.1,253.5z"/>
<path id="divi-68464" class="st0" d="M264.8,254.6l3.5,0.5l0,0c0.1,0.1,0.3,0.1,0.4,0.1h0l0.2,0c0.2,0,0.4,0,0.5-0.2l0.7-0.1l2.7,4
	l1,1.4c-0.2,0-0.4,0.1-0.5,0.3l-3.3,6.3l-3.1,1.2c-0.2,0.1-0.3,0.2-0.3,0.4c0,0.2,0,0.4,0.1,0.5l1.7,2.2l-0.4,4.9l-2.8,3.6
	c0,0-0.1,0.1-0.1,0.1l-1.5,3.3l0,0l-2,2.1l-2.7,0.2c-0.1,0-0.1,0-0.2,0l-3.4,1.3l-1.8,0.1l-1.3-2.4c-0.1-0.2-0.2-0.3-0.4-0.3
	l-3.9-0.7c0,0,0,0-0.1,0l-4.2-0.2l-0.4-1.3l3.5-3c0.1-0.1,0.2-0.2,0.2-0.4c0-0.2,0-0.3-0.1-0.4l-1.8-2.1l-0.4-3l5.2-6
	c0,0,0-0.1,0.1-0.1l1.1,0.8c0.2,0.1,0.4,0.1,0.6,0.1l3.1-1.3c0.2-0.1,0.3-0.2,0.3-0.4l1-5.5v-0.1l1.6-3.1h5c0.2,0,0.3-0.1,0.4-0.2
	L264.8,254.6z"/>
<path id="divi-68679" class="st0" d="M239.2,254.7l1.7,1.1l-1.3,1.4c-0.1,0.1-0.1,0.2-0.2,0.3l-1,4.4c0,0.2,0,0.3,0.1,0.5
	c0.1,0.1,0.3,0.2,0.4,0.2l2.2,0.2l5.6,1.8l2,1.5c0,0,0,0,0,0l-5.2,6.1c-0.1-0.1-0.3-0.1-0.4,0l-4.9,1.8c-0.1,0-0.1,0.1-0.2,0.1
	l-0.2,0.2l-0.8-3c0-0.2-0.2-0.3-0.3-0.4l-0.3-3.1l-0.3-3.1c0-0.2-0.2-0.4-0.4-0.5l-2.8-1c-0.1,0-0.3,0-0.4,0l-4.9,2l0.5-1.6l2.2-0.8
	c0.2-0.1,0.4-0.2,0.4-0.4l0.5-2.4l3.5-1c0.2-0.1,0.4-0.3,0.4-0.6v-2.2l3.6-0.5c0.3,0,0.5-0.3,0.5-0.5L239.2,254.7z"/>
<path id="divi-68121" class="st0" d="M221.1,255.6l5.7,7.4c0,0,0,0,0,0c-0.1,0.2,0,0.4,0.1,0.5l-0.6,1.7l-4.7,1.8
	c-0.1,0-0.1,0.1-0.2,0.1l-1.8-7.2c0-0.1-0.1-0.2-0.2-0.2L221.1,255.6z"/>
<path id="divi-68686" class="st0" d="M296,257.5l0.2,0.1c0.2,0.1,0.3,0.1,0.5,0l4.1,1l4.1,2.4l-0.2,4.1l-3,4.5c0,0,0,0-0.1,0
	c-0.1,0-0.3,0.1-0.4,0.2l-0.9,0.1l-1.3-4.6c0-0.1-0.1-0.2-0.2-0.3l-3.5-2.9l-1.4-2.8L296,257.5z"/>
<path id="divi-68147" class="st0" d="M292.8,259.9l1.5,2.8c0,0.1,0.1,0.1,0.1,0.2l3.5,2.8l1.4,4.9c0.1,0.3,0.3,0.4,0.6,0.4l1.3-0.1
	l0.7,3.2l-0.6,2.4l-1.7,0.4l-2.4-1.1l-1.4-3.8c0,0,0,0,0-0.1l-2.6-5.6c0-0.1-0.1-0.1-0.1-0.2l-2.9-2.8l0.3-2.6L292.8,259.9z"/>
<path id="divi-68425" class="st0" d="M311.3,260.4l1.9,0.6l2.5,5.8l-2.1,2.2c-0.2,0-0.4,0.2-0.5,0.5l-4.9,2.5
	c-0.1,0-0.1,0.1-0.2,0.1L305,275l0,0l-2.4,0.9l0.4-1.7c0-0.1,0-0.2,0-0.2l-0.7-3.5l3.4-5c0.1-0.1,0.1-0.2,0.1-0.3l0-0.6
	c0.2,0.1,0.4,0,0.5-0.1l3.1-2c0,0,0.1-0.1,0.1-0.1L311.3,260.4z"/>
<path id="divi-68682" class="st0" d="M274.4,260.9l3.1,4.4c-0.1,0.1-0.1,0.2-0.1,0.3l-0.8,6.8c0,0,0,0,0,0l-0.5,8l-2.8,2.8l-5.9,1.1
	c-0.1,0-0.2,0.1-0.3,0.2l-0.7,0.7l-1.8-1.8l1.5-3.1l2.9-3.7c0.1-0.1,0.1-0.2,0.1-0.3l0.5-5.2c0-0.1,0-0.3-0.1-0.4l-1.4-1.9l2.6-1
	c0.1,0,0.2-0.1,0.3-0.2l3.4-6.5C274.4,261,274.4,261,274.4,260.9z"/>
<path id="divi-68522" class="st0" d="M218.8,261.2l1.6,6.5l-4.2,4.6c-0.2-0.1-0.4,0-0.6,0.2l-1.7-1c0.2,0,0.3-0.1,0.4-0.2l1.7-2.8
	c0-0.1,0.1-0.2,0.1-0.3l-0.2-5.2c0.1,0,0.2,0,0.2-0.1L218.8,261.2z"/>
<path id="divi-68861" class="st0" d="M150.2,264.1l3.1,0.7c0,0,0.1,0,0.1,0l3.8,0.3c0.1,0,0.2,0,0.2-0.1l0.4,0.3l2.8,3.5
	c0.1,0.1,0.2,0.1,0.2,0.2l6,2.2l2.5,5.5l-2.2,10.8l-4.8,5.8c-0.1,0.2-0.2,0.3-0.1,0.5l1.6,6.2c0,0.1,0.1,0.2,0.2,0.3l8,7.1v9
	c0,0,0,0,0,0l-0.1,0c-0.1,0.1-0.1,0.1-0.2,0.2l-5.4,5.1c0,0-0.1,0.1-0.1,0.2l-2,3.9c-0.1,0.3,0,0.6,0.2,0.7l5.2,3.6
	c0.1,0.1,0.3,0.1,0.5,0.1l6.2-1.7l-0.6,1.7l-3.4,2.2c-0.1,0-0.1,0.1-0.1,0.2l-3.9,5.2l-1.2,0.6l-6.2-5.2c-0.1-0.1-0.1-0.1-0.2-0.1
	l1.3-3.5c0-0.1,0-0.1,0-0.2l0.7-8.1l1.9-5.2c0-0.1,0-0.3,0-0.4l-3.3-8.2c-0.1-0.2-0.3-0.4-0.5-0.4h-2.7l1.2-2.8
	c0.1-0.1,0.1-0.3,0-0.4l-2.2-5.3l2.2-4.3c0,0,0-0.1,0-0.1l2.3-8.2c0-0.1,0-0.3,0-0.4l-3.2-8.4v0l-1.6-5.5c0-0.1-0.1-0.2-0.1-0.2
	L150.2,264.1C150.3,264.1,150.3,264.1,150.2,264.1z"/>
<path id="divi-68549" class="st0" d="M232.7,264.3l2.2,0.8l0.3,2.8l0.3,3.3l-3.8,3c-0.1-0.1-0.3-0.1-0.4-0.1h0l-1.9-2.4l-2.4-2.9
	c-0.1-0.1-0.2-0.2-0.4-0.2l-4.6-0.4c0.1,0,0.1,0,0.2-0.1l4.1-1.6c0.2,0.2,0.5,0.3,0.7,0.2L232.7,264.3z"/>
<path id="divi-68385" class="st0" d="M149.4,264.9C149.4,264.9,149.4,264.9,149.4,264.9l6.5,7.1l1.6,5.4c0,0,0,0,0,0.1l3.2,8.3
	l-2.2,7.9l-2.2,4.5c-0.1,0.1-0.1,0.3,0,0.5l2.2,5.3l-1.4,3l-7.4-1c-0.1,0-0.2,0-0.3,0.1l-7.1,4l-4.9-5.5c-0.1-0.1-0.3-0.2-0.4-0.2
	H128c-0.1,0-0.2,0-0.2,0l-8.9,3.8l-3.9-1.2l-1.2-1l6.6-1.5l8.2-1.7c0.1,0,0.1,0,0.2,0l6.8-3.6c0,0,0.1,0,0.1-0.1l7.2-5.6
	c0.1,0,0.1-0.1,0.2-0.2l3.6-6.2c0,0,0,0,0,0l2.9-6.1l0.1-0.1l2.2-3.2c0.2-0.2,0.1-0.6-0.1-0.8l-6.2-5.6l-1.8-2.5l1.9,0.2
	c0.2,0,0.4-0.1,0.5-0.2L149.4,264.9z"/>
<path id="divi-68502" class="st0" d="M278.5,266.3c0,0.1,0.1,0.1,0.2,0.2l4.4,2.2l3,5.4c0,0,0,0,0,0l2.8,4.4
	c0.1,0.2,0.3,0.3,0.4,0.3l-1.6,6.7l-3.8,4.3c-0.1,0.1-0.1,0.3-0.1,0.4c0,0,0,0,0,0c-0.1,0.1-0.2,0.3-0.2,0.5c0,0.2,0.1,0.3,0.3,0.4
	l1.8,1l-0.2,4.3c0,0,0,0.1,0,0.1l0.3,2.8l-1.3,2.8l-5,4.3c0,0,0,0-0.1,0.1l-5.6,6.5h0c-0.2,0-0.3,0.1-0.4,0.2
	c-0.1,0.1-0.1,0.3-0.1,0.4c0,0,0,0,0,0l-0.6,0.7h0c-0.1,0-0.3,0-0.4,0.1h0l-1-1.5l0.8-1.8c0.1-0.2,0.1-0.5-0.1-0.7l-1.3-1.3l0.3-5.1
	c0-0.1,0-0.2-0.1-0.3l-1.5-3.1l0.9-3.7c0.1-0.2,0-0.5-0.2-0.6l-3.9-3l-1.7-4.8l3.2-3.2l5.9-1.1c0.1,0,0.2-0.1,0.3-0.2l3.1-3.1
	c0.1-0.1,0.2-0.2,0.2-0.4l0.5-8.2h0L278.5,266.3z"/>
<path id="divi-68720" class="st0" d="M172.2,268.8l8.4,1.3l0.2,2.5c0,0.2,0.2,0.4,0.3,0.5l5.2,2.1c0,0,0.1,0,0.1,0l6,1.3
	c0,0,0.1,0,0.1,0l-2,3.7c0,0.1-0.1,0.2-0.1,0.2l-0.3,5.1l-2.8,0.3c-0.1,0-0.2,0-0.3,0.1l-1.5,1.2c-0.1,0.1-0.2,0.3-0.2,0.5l0.2,4.2
	l-0.8,1.3l-4.3,0.4V292c0-0.2-0.1-0.3-0.2-0.4c-0.1-0.1-0.3-0.2-0.4-0.2l-5.7,0.5c-0.2,0-0.4,0.1-0.4,0.3c-0.1,0.2-0.1,0.4,0,0.5
	l0.2,0.3l-3.1,2l-2-0.2l-1.1-1.3l1.2-3.1c0-0.1,0-0.2,0-0.3l-0.3-2.3c0-0.2-0.1-0.3-0.2-0.4l2.2-10.7c0-0.1,0-0.2-0.1-0.3l-0.8-1.8
	l0.6-1.4c0,0,0-0.1,0-0.1l0.8-2.9v0L172.2,268.8z"/>
<path id="divi-68755" class="st0" d="M220.6,269.2l5.6,0.5l2.3,2.8l1.9,2.4l-2.8,2.8c-0.1,0.1-0.1,0.2-0.1,0.2l-1,3.4l-3.4-0.7
	l-7-1.6l-1.1-0.9l1.4-4.2h0c0.1,0,0.1-0.1,0.2-0.1L220.6,269.2z"/>
<path id="divi-68533" class="st0" d="M236.1,272.2l0.8,2.9l-2.5,2.1c-0.1,0.1-0.1,0.2-0.2,0.2l-1.5,3.9c-0.1,0.2,0,0.4,0.1,0.6
	l-0.2,5.3l-0.8,1.3l0,0l-1.9,1.8h-1.6l0.6-6.1c0-0.2,0-0.3-0.2-0.5l-1.4-1.5c0.1-0.1,0.1-0.1,0.1-0.2l1.1-3.8l2.7-2.7
	c0.2,0.1,0.4,0.1,0.6-0.1L236.1,272.2z"/>
<path id="divi-68855" class="st0" d="M243.3,273.3l0.4,2.9c0,0.1,0.1,0.2,0.1,0.3l1.6,1.8l-3.3,2.9c-0.2,0.1-0.3,0.4-0.2,0.6
	l0.4,1.2l-3.5,0.7l-3.2-1.2l-0.1,0l-0.1,0l-1.1-0.8c0-0.2-0.1-0.4-0.2-0.5l-0.2-0.1l1.2-3.1l3.5-3L243.3,273.3z"/>
<path id="divi-68176" class="st0" d="M195.2,276.3l1.5,4.5c0.1,0.2,0.3,0.3,0.5,0.4l14.4,2.2l-0.9,2.5l0,0l-0.1,0.2h0
	c-0.2,0-0.3,0.1-0.5,0.2c-0.1,0.1-0.1,0.3-0.1,0.5l-1.8,2.5l-4.4,2.6l-4.2,1.6l-6.4,0.3l1.7-3.8c0.1-0.2,0-0.4-0.1-0.6l-3.3-3.8
	l0.3-5l2.3-4.3L195.2,276.3z"/>
<path id="divi-68524" class="st0" d="M214.2,279l1.1,1c0.1,0.1,0.2,0.1,0.2,0.1l7.2,1.7c0,0,0,0,0,0l1.6,0.3l-1.7,2.8l-3.2,1.2
	l-4.3,1.8H215c-0.1,0-0.2,0.1-0.3,0.1l-3.2-1.6l0.1-0.1c0,0,0-0.1,0.1-0.1l1.1-2.9c0,0,0,0,0,0c0.2-0.1,0.3-0.2,0.4-0.4L214.2,279z"
	/>
<path id="divi-68209" class="st0" d="M225.5,282.3l0.2,0v0l2,2.1l-0.6,6.4l-1.5,1.4l-1.5,0.4l-4.4-1.2l-0.2-0.2v0
	c0-0.2-0.1-0.3-0.2-0.4c-0.1-0.1-0.3-0.1-0.4-0.1h0l-2.5-2l3.7-1.5l3.4-1.3c0.1,0,0.2-0.1,0.3-0.2L225.5,282.3z"/>
<path id="divi-68498" class="st0" d="M233.9,282.7l1.1,0.8c0,0,0.1,0,0.1,0.1l3.4,1.3c0.1,0,0.2,0.1,0.3,0l3.8-0.7
	c0.1,0.1,0.3,0.2,0.4,0.2l1,0l-1.6,3.4l-3.6,4.2c0,0,0,0,0,0l-2.7,3.7l-0.2,0.2l0.6-1.1c0.1-0.1,0.1-0.2,0.1-0.3l-0.5-4.2
	c0-0.2-0.1-0.3-0.2-0.4l-2.5-1.7l0.2-0.4c0-0.1,0.1-0.2,0.1-0.3L233.9,282.7z"/>
<path id="divi-68217" class="st0" d="M263.9,284.3l1.7,1.7l-2.1,2.1c-0.2,0.2-0.2,0.4-0.2,0.6l1.8,5.2c0,0.1,0.1,0.2,0.2,0.3
	l3.8,2.9l-0.9,3.6c0,0.1,0,0.3,0,0.4l1.6,3.1l-0.3,5.2c0,0.2,0,0.3,0.2,0.4l1.2,1.2l-0.8,1.8c-0.1,0.2-0.1,0.4,0.1,0.6l1.3,1.9
	l-3,2.9c0,0,0,0,0,0l-2.8,2.9c-0.1,0-0.1,0-0.2,0l-2.2-2l-0.8-2.5c-0.1-0.3-0.3-0.4-0.6-0.4l-3.9,0.2l-1.3-1.2
	c-0.1-0.1-0.3-0.2-0.4-0.2l-4.4,0.3l-1.1-0.8c-0.1-0.1-0.2-0.1-0.3-0.1h-3.9l-3.9-3.4c0,0-0.1,0-0.1-0.1l-5.3-2.9
	c0.1-0.1,0.1-0.1,0.2-0.2c0,0,0-0.1,0.1-0.1l4.3-3.2c0.2-0.1,0.3-0.4,0.2-0.7l-1.4-3.9l4.3-0.8c0.3-0.1,0.5-0.3,0.4-0.6l-0.3-3.8
	l4.8-5.4l3.8-0.9h0.5c0.3,0,0.5-0.2,0.6-0.4l0.8-0.1c0.1,0,0.1,0,0.2,0l3.3-1.2l2.9-0.2c0.1,0,0.3-0.1,0.4-0.2L263.9,284.3z"/>
<path id="divi-68167" class="st0" d="M245.3,284.5l2.3,0.1h0.1l3.6,0.6l1.2,2.2l-3.1,0.8c-0.1,0-0.2,0.1-0.3,0.2l-5.1,5.7
	c-0.1,0.1-0.2,0.3-0.2,0.4l0.3,3.6l-4.4,0.9c-0.2,0-0.3,0.1-0.4,0.3c-0.1,0.1-0.1,0.3,0,0.5l1.5,4.2l-4.5,3.2l-2.1,0.8
	c-0.2,0.1-0.3,0.2-0.3,0.3l-1.6,5.4l-1.7,5.9c-0.1,0.2,0.1,0.5,0.3,0.6l2.6,1.6l2,5.1l-0.8,5l-1.6,1c-0.1,0-0.2,0-0.3,0.1l-0.2,0.2
	l-1.4-0.2l-4.5-4.2l-2.3-3.3l-0.5-8.6c0.1-0.1,0.2-0.3,0.2-0.4v-3.9l2.2-2.6c0.1-0.1,0.1-0.2,0.1-0.3l0.3-7.9l1-1
	c0.1-0.2,0.2-0.4,0.1-0.6l-0.7-2.3l-0.8-2.8c0-0.1-0.1-0.2-0.1-0.2l-1.2-1.3l0.9-0.2c0.1,0,0.2-0.1,0.2-0.2l1.8-1.6h2.1
	c0.2,0,0.3-0.1,0.4-0.2l2.1-2c0,0,0.1-0.1,0.1-0.1l0.1-0.2l2.3,1.6l0.4,3.8l-1.9,3.8l-0.1,0.2c-0.1,0.2,0,0.5,0.2,0.7
	c0.2,0.2,0.5,0.1,0.7,0l2.6-2.4c0,0,0,0,0.1-0.1l2.8-3.8v0l3.6-4.2c0,0,0-0.1,0.1-0.1L245.3,284.5
	C245.3,284.5,245.3,284.5,245.3,284.5z"/>
<path id="divi-68211" class="st0" d="M190.8,286.7l2.8,3.3l-2,4.2c-0.1,0.2-0.1,0.4,0,0.6s0.3,0.3,0.5,0.3l6.3-0.3l-1.3,3.4
	c0,0,0,0,0,0l-1.4,4.7l-1.1,0.5c0,0,0,0-0.1,0l-0.1,0c0,0,0,0-0.1,0l-0.4,0.2l-1.1-3.6c-0.1-0.2-0.3-0.4-0.5-0.4l-8.6-0.6l-0.7-2.1
	c-0.1-0.2-0.3-0.4-0.6-0.4h-2.7l-1.5-0.8l-2.1-1l-1-1.7l4.2-0.3v1.5c0,0.2,0.1,0.3,0.2,0.4c0.1,0.1,0.3,0.2,0.4,0.1l5.2-0.5
	c0.2,0,0.3-0.1,0.4-0.3l1-1.6c0.1-0.1,0.1-0.2,0.1-0.3l-0.2-4.1l1.1-0.8L190.8,286.7z"/>
<path id="divi-68322" class="st0" d="M210.8,287.4l3.6,1.8c0.1,0.1,0.3,0.1,0.5,0l0,0l2.9,2.3l-2,2.3l-3.5,0.5
	c-0.2,0-0.3,0.1-0.4,0.2l-1.1,1.8h-4l0-0.3c0-0.2-0.1-0.4-0.3-0.5c-0.2-0.1-0.4-0.1-0.6,0.1l-0.9-0.7l-0.3-2.4l4.1-2.5
	c0.1,0,0.1-0.1,0.2-0.2L210.8,287.4z"/>
<path id="divi-68397" class="st0" d="M167.7,288.8l0.2,1.3l-1.2,3.3c-0.1,0.2,0,0.4,0.1,0.6l1.5,1.8c0.1,0.1,0.2,0.2,0.4,0.2
	l1.9,0.1c0,0.1,0.1,0.2,0.2,0.2l3.9,3.1c0.1,0.1,0.2,0.1,0.3,0.1l2.1,0.2c0,0.1,0,0.2,0,0.2l1.8,3.9c0,0,0,0,0,0l2,3.4l-1.1,4.8
	c0,0.1,0,0.3,0.1,0.4l1.5,2.6l1,1.9l-1.7,2.6l-0.1,0.1l-1.2,1.2c0,0,0,0,0,0c-0.1,0-0.1,0-0.2,0h0l-3.7-3c0,0,0,0,0,0l-2.1-1.4
	c0-0.1,0.1-0.1,0.1-0.2V307c0-0.2-0.1-0.3-0.2-0.4l-8-7.1l-1.5-5.8L167.7,288.8z"/>
<path id="divi-68500" class="st0" d="M218.7,292.3l0.2,0.2c0.1,0,0.1,0.1,0.2,0.1l4.6,1.2l1.7,1.8l0.8,2.6l0.6,2l-0.9,0.9
	c-0.1,0.1-0.2,0.2-0.2,0.4l-0.3,8l-2.2,2.6c-0.1,0.1-0.1,0.2-0.1,0.3v3.4l-3.7-0.7l-1.7-2c-0.1-0.1-0.3-0.2-0.5-0.2
	s-0.3,0.1-0.4,0.3l-0.9,1.6l-2.3-0.7L213,311c0-0.2-0.1-0.3-0.2-0.4c-0.1-0.1-0.3-0.1-0.5-0.1l-2.6,0.5c-0.1,0-0.2,0.1-0.3,0.1
	l-2.5,2.1l-0.8-0.9l1.2-2.6l1.5-1.1c0.1-0.1,0.2-0.2,0.2-0.4l0.5-5.2c0-0.1,0-0.3-0.1-0.4l-2.3-3l-0.2-2h4.2c0.2,0,0.4-0.1,0.5-0.3
	l1.1-1.9l3.5-0.5c0.1,0,0.3-0.1,0.4-0.2L218.7,292.3z"/>
<path id="divi-68320" class="st0" d="M203.6,293.2l0.2,2.2c0,0.1,0.1,0.3,0.2,0.4l1.7,1.3l0.2,2.7c0,0.1,0.1,0.2,0.1,0.3l2.3,2.9
	l-0.4,4.8l-1.1,0.8l-2.5-1.6c-0.1-0.1-0.3-0.1-0.5-0.1l-3.8,1.1H200l-4.3,0.7c-0.1,0-0.2,0-0.2,0.1l-2.8,1.9l1.6-3c0,0,0-0.1,0-0.1
	l0.9-3.3l1.2-0.5c0.1-0.1,0.3-0.2,0.3-0.3l1.5-4.9l1.5-3.8h0c0,0,0,0,0.1,0L203.6,293.2z"/>
<path id="divi-68245" class="st0" d="M174.6,294l0.8,1.3c0.1,0.1,0.1,0.2,0.2,0.2l2.3,1.2l1.6,0.8c0.1,0,0.2,0.1,0.2,0.1h2.3
	l0.5,1.5c-0.1,0.2-0.2,0.4-0.1,0.6c0.1,0.2,0.2,0.3,0.4,0.4c0,0,0,0,0,0c0,0,0,0,0,0c0.2,0.2,0.5,0.2,0.7,0.1l8.2,0.5l1.2,3.9
	c0,0.2,0.2,0.3,0.3,0.4c0.1,0.1,0.3,0.1,0.5,0l0,0l-0.7,2.4v0l-2.1,3.8c0,0-0.1-0.1-0.1-0.1l-3-3.1l-3.6-4.6c0,0,0,0-0.1-0.1
	l-4.4-4.2c-0.1-0.1-0.2-0.1-0.3-0.2l-4.4-0.5l-3.4-2.7L174.6,294z"/>
<path id="divi-68101" class="st0" d="M60.9,296.3l6.2,6.8c0,0,0.1,0.1,0.1,0.1l3.9,2.7l-1.2,3.5c0,0.1,0,0.2,0,0.3l2.3,7.8
	c0.1,0.2,0.3,0.4,0.5,0.4l13.1,1c0.2,0,0.3,0,0.4-0.2l3.6-3.3l1.1,3.7c0,0.2,0.2,0.3,0.3,0.4c0.2,0.1,0.3,0.1,0.5,0l2.7-1.3l1.8,5.9
	c0.1,0.2,0.2,0.4,0.4,0.4c0.2,0,0.4,0,0.6-0.2l3.3-4.2c0.1-0.1,0.1-0.2,0.1-0.3v-5.6c0-0.2-0.1-0.3-0.2-0.4l-2.6-2.6l2.6-3.4
	l5.4-2.2c0,0,0,0,0.1,0l3.2-1.8l5.2,4.3c0.1,0,0.1,0.1,0.2,0.1l4.2,1.3c0.1,0,0.3,0,0.4,0l9.1-3.9h8.4l5.1,5.7
	c0.2,0.2,0.5,0.2,0.7,0.1l7.4-4.2l7.3,1c0,0,0,0,0.1,0h0.2h0.2h3.1l3,7.6l-1.9,5c0,0.1,0,0.1,0,0.2l-0.7,8.2l-2.2,5.5l-3.7,1.1
	l0.2-0.5c0.1-0.3-0.1-0.6-0.4-0.7c-0.3-0.1-0.6,0.1-0.7,0.4l-0.1,0.4l-0.1,0l-0.6-4.2l0.4,0c0.2,0,0.3-0.1,0.4-0.2
	c0.1-0.1,0.1-0.3,0.1-0.4l2.1-1.4c0.2-0.2,0.3-0.5,0.2-0.8l-2.6-4.9c0,0,0,0-0.1-0.1l-2.5-3.5l-1-3.8c-0.1-0.3-0.3-0.5-0.6-0.4
	l-5.7,0.6l-3.7-2.5c-0.1-0.1-0.3-0.1-0.4-0.1l-5.9,1.2l-5.3-6c-0.1-0.1-0.3-0.2-0.5-0.2l-6.9,1c0,0-0.1,0-0.1,0l-6.9,2.6
	c-0.1,0-0.2,0.1-0.3,0.2l-2.3,3.6c-0.1,0.1-0.1,0.2-0.1,0.3l0.3,7.3l-3.1,5.3l-0.1,0.1l-4.8,5.1c-0.1,0.1-0.1,0.2-0.1,0.3l-1.9,9.3
	l-3.3,4.8l-3.4-1.2c0,0,0,0,0,0c0,0,0,0,0-0.1l1.8-2.9c0.1-0.1,0.1-0.2,0.1-0.3v-4.9c0-0.2-0.1-0.3-0.2-0.4l-3.8-3.8l-0.3-11.6
	c0-0.2-0.1-0.4-0.3-0.5l-3.6-1.6c-0.2-0.1-0.5-0.1-0.6,0.1l-5.4,4.5l-4.2,0.6l-5.6-2.2l-3.8-6l0-0.1l-2.9-6.1c0,0,0-0.1-0.1-0.1
	l-3.6-4.9c0-0.1-0.1-0.1-0.2-0.2l-5-3.1l-0.6-2.8c0,0,0,0,0-0.1c0-0.2,0-0.3-0.1-0.4c0,0,0,0,0,0l-0.1-0.3l2.9-3.1l0,0L60.9,296.3z"
	/>
<path id="divi-68013" class="st0" d="M178.3,299.9l1,0.1l4.2,4.1l0,0l3.6,4.5c0,0,0,0,0,0.1l2.9,2.9v1l-4.4,3.8l0,0l-1.9,0.9
	l-1.4-2.7l-1.3-2.4l1.1-4.8c0-0.1,0-0.3-0.1-0.4l-2.1-3.6l0,0L178.3,299.9z"/>
<path id="divi-68770" class="st0" d="M204,308.1l2.1,1.4l-1.2,2.7c-0.1,0.2-0.1,0.5,0.1,0.7l1.5,1.6c0.1,0.1,0.2,0.2,0.4,0.2
	s0.3,0,0.4-0.1l2.8-2.4l1.9-0.3l0.4,2.8c0,0.2,0.2,0.4,0.4,0.5l3.1,1c0.3,0.1,0.5,0,0.7-0.2l0.7-1.2l1.3,1.5
	c0.1,0.1,0.2,0.2,0.3,0.2l3.9,0.7l0.4,8.2c-0.1,0.1-0.1,0.2-0.1,0.3l-1.2,0.6c0,0,0,0-0.1-0.1l-6.4-3.8c0,0-0.1,0-0.2-0.1l-3.9-1
	c-0.2,0-0.3,0-0.5,0.1c-0.1,0.1-0.2,0.2-0.2,0.4l-0.4,3.1l-7.4,0.2c-0.2-0.2-0.5-0.2-0.8,0c0,0,0,0,0,0h-0.1l-1.6-2.7
	c-0.1-0.1-0.2-0.2-0.3-0.2l-4.8-1.3l-3.5-3.2l0.3-5.1c0,0,0,0,0,0l3.9-2.8l4.2-0.6c0,0,0.1,0,0.1,0L204,308.1z"/>
<path id="divi-68264" class="st0" d="M235.9,308.5l6,3.3l4.1,3.6c0.1,0.1,0.2,0.1,0.4,0.1h3.9l1.2,0.9c0.1,0.1,0.2,0.1,0.4,0.1
	l4.3-0.3l1.3,1.1c0.1,0.1,0.3,0.2,0.4,0.2l3.6-0.1l0.7,2.2c0,0.1,0.1,0.2,0.2,0.2l2.5,2.3l-0.3,1.3l-2.6,1.8c0,0,0,0-0.1,0l-4.8,4.2
	l0,0l-5.8,4.3H246l-0.2-0.2c-0.1-0.1-0.3-0.2-0.5-0.2c-0.2,0-0.3,0.2-0.4,0.3h-6.1l-2.6-2.5c0-0.1-0.1-0.1-0.2-0.1l0.7-4.4
	c0-0.1,0-0.2,0-0.3l-2.1-5.4c0-0.1-0.1-0.2-0.2-0.3l-2.4-1.4l1.5-5.5l1.5-5.1L235.9,308.5z"/>
<path id="divi-68250" class="st0" d="M128.1,309.9l5.3,6c0.1,0.2,0.4,0.2,0.6,0.2l6-1.2l3.7,2.5c0.1,0.1,0.2,0.1,0.4,0.1l5.4-0.6
	l0.9,3.4c0,0.1,0,0.2,0.1,0.2l2.6,3.5l0,0.1l2.3,4.4L153,330l-2.8,0.3h-0.1h-3l-3.8-3.2c-0.1-0.1-0.2-0.1-0.3-0.1l-8.1-1.2l-1.2-4.5
	c0-0.2-0.2-0.3-0.4-0.4c-0.2-0.1-0.4,0-0.5,0.1l-2.6,1.9l0,0l-4.3,1.8h-0.1l0,0l-6,1.5l-3.3-6.7v-6.8l5.1-2l0.1,0L128.1,309.9z"/>
<path id="divi-68773" class="st0" d="M115.3,313.2v6.5c0,0.1,0,0.2,0.1,0.2l3.6,7.2c0.1,0.2,0.4,0.4,0.7,0.3l6.5-1.6
	c0,0,0.1,0,0.1,0l4.6-2c0,0,0.1,0,0.1-0.1l1.9-1.4l1.1,4.1c0.1,0.2,0.2,0.4,0.5,0.4l8.3,1.3l3.8,3.2c0.1,0.1,0.2,0.1,0.4,0.1h3.3
	c0,0,0,0,0,0l2-0.2l0.6,4.6c0,0.2,0.2,0.4,0.4,0.5l0.5,0.2l-1.2,4.3c-0.1,0.2,0,0.4,0.2,0.6l2.5,2.5c-0.1,0.1-0.1,0.3-0.1,0.4
	l-0.5,0.3l-4.7-0.6c-0.1,0-0.2,0-0.2,0l-3.9,1.3c-0.1,0-0.1,0.1-0.2,0.1l-3.2,2.8h-5.2l-0.8-2.2c0,0,0-0.1-0.1-0.1l-2.6-3.9
	c-0.1-0.1-0.2-0.2-0.4-0.2l-5.6-0.6l-2.5-4.3c0-0.1-0.1-0.1-0.2-0.2l-4.2-3c-0.1-0.1-0.3-0.1-0.5-0.1c-0.2,0-0.3,0.2-0.4,0.3
	l-2.2,4.2l-0.1,0.1l-2.6,3.2l-4.7-1.9l1.8-4.7c0.1-0.2,0-0.4-0.1-0.5l-2.3-3.6c-0.1-0.1-0.2-0.2-0.4-0.2l0.3-0.3
	c0,0,0.1-0.1,0.1-0.1l3.2-5.6c0.1-0.1,0.1-0.2,0.1-0.3l-0.3-7.3l2.1-3.3L115.3,313.2z"/>
<path id="divi-68673" class="st0" d="M190.8,313.8C190.8,313.8,190.9,313.8,190.8,313.8l-0.2,3.9c0,0,0,0.1-0.1,0.1l-2.6,3.9l0,0
	l-2.6,3.4c-0.1,0-0.1-0.1-0.2-0.1l-2.9,0.2l-1.3-1.8c0,0,0,0,0-0.1l-1-1.1l1.6-1.6c0,0,0-0.1,0.1-0.1l1.5-2.2
	c0.1,0.3,0.5,0.4,0.8,0.2l2.5-1.2c0,0,0.1,0,0.1-0.1l4.2-3.6C190.7,313.8,190.8,313.8,190.8,313.8z"/>
<path id="divi-68179" class="st0" d="M172.4,317.6l2.2,1.5l0,0l3.7,3l-1.7,5.1l-6.5,1.8l-4.6-3.2l1.7-3.4L172.4,317.6z"/>
<path id="divi-68298" class="st0" d="M211.7,322.4l3.2,0.8l6.2,3.7c0,0.2,0.1,0.3,0.3,0.4c0.2,0.1,0.4,0.1,0.5,0l1.6-0.9l2.2,3.2
	c0,0,0.1,0.1,0.1,0.1l3.8,3.5l-3.6,0.1c-0.3,0-0.5,0.2-0.5,0.5l-0.3,3l0,0.1l-1.9,4.9l-3.2,3.2l-3.9,3.9l-0.4,0h-0.1
	c-0.1,0-0.2,0-0.3,0l-4.1,0.3c-0.1,0-0.2,0.1-0.3,0.2l-5.1,4.6c-0.1,0.1-0.1,0.1-0.2,0.2l-1.1,3.1l0,0.1l-2,2.7
	c-0.2,0-0.3,0.1-0.4,0.2c-0.1,0.1-0.1,0.3-0.1,0.4v0v0l-1.9-1.7l0,0l0,0l-3.9-4.5l0-0.2c0.3-0.1,0.4-0.4,0.4-0.6
	c0-0.3-0.3-0.5-0.6-0.5l-0.4-2.6c0-0.1,0-0.1-0.1-0.2l0.4-0.2c0,0,0.1-0.1,0.1-0.1l3.2-3.1c0.1,0,0.2,0,0.3-0.1l3.1-2.1
	c0.1-0.1,0.2-0.1,0.2-0.2l1.8-4l0,0v0l1.8-3.2c0-0.1,0.1-0.2,0.1-0.3l-0.2-6.4c0-0.1-0.1-0.3-0.2-0.4l-3.4-3.6l0-0.2l7.9-0.3
	c0.3,0,0.5-0.2,0.6-0.5L211.7,322.4z"/>
<path id="divi-68327" class="st0" d="M179.2,323.2l0.7,0.8l0,0.1l1.4,2.1c0.1,0.2,0.3,0.3,0.5,0.2l2.3-0.1l-0.6,1.4l-2.4,2.4
	l-2.3,0.6l-0.2,0c-0.2-0.3-0.5-0.4-0.8-0.2h0l-0.8-0.2c0,0,0,0-0.1,0l0.8-2.4c0-0.1,0-0.3,0-0.4L179.2,323.2z"/>
<path id="divi-68377" class="st0" d="M108.8,331c0,0.1,0,0.1,0.1,0.2l2.2,3.4l-1.9,4.9c-0.1,0.3,0,0.6,0.3,0.7l5.6,2.3
	c0.2,0.1,0.5,0,0.7-0.2l2.9-3.6c0,0,0-0.1,0.1-0.1l2-3.7l3.6,2.5l2.6,4.5c0.1,0.2,0.3,0.3,0.4,0.3l5.6,0.6l2.4,3.6l0,0.1l0,0.1
	l0.2,0.7l-2.5,1.6c-0.1,0-0.1,0.1-0.1,0.2l-1.3,1.8l-3.7,0.3c-0.1,0-0.2,0-0.2,0.1l-3.9,2.5l-2.3-2c-0.1-0.1-0.2-0.1-0.3-0.2l-6-0.6
	l-1.2-4.1c-0.1-0.2-0.2-0.3-0.4-0.4l-5.2-1.3l-5.1-1.8l1.7-8.3L108.8,331z"/>
<path id="divi-68077" class="st0" d="M176.5,331.1c0.1,0.1,0.2,0.2,0.3,0.2l0.8,0.2l-0.6,4.4l-0.5,2.9c0,0,0,0.1,0,0.1c0,0,0,0,0,0
	l-1.5,1.7c0,0,0,0,0,0.1l-1.1,1.7c-0.2,0-0.3,0-0.4,0.1c-0.1,0.1-0.2,0.2-0.2,0.4l-2.8-0.5l-3.1-1.5v-1.6l1.7-0.8
	c0.1,0,0.2-0.1,0.2-0.2l3.9-5.2L176.5,331.1z"/>
<path id="divi-68324" class="st0" d="M160.4,334l5.9,5c0,0.1,0,0.1,0,0.2c0,0,0,0,0,0.1v1.8l-3.8,3l-5.8-0.3l-2.8-2.9l1.1-3.9h0
	c0.1,0,0.3,0,0.4,0l4.2-1.3c0.2-0.1,0.3-0.2,0.4-0.3L160.4,334z"/>
<path id="divi-68572" class="st0" d="M166.9,342l3.1,1.5c0.1,0,0.1,0,0.2,0l3.6,0.7c0.2,0,0.4,0,0.6-0.2l2.1,1.4l0.3,3.9v0l-1.3,5.4
	l-0.8,3.4c0,0.2,0,0.4,0.1,0.5L173,364l-1.6,1.8l-3-3.4c0,0,0,0,0,0l-3.1-3.3c-0.1-0.1-0.3-0.2-0.5-0.2l-7.8,1.2
	c-0.1-0.1-0.2-0.1-0.2-0.2l-0.2-3.4l2.7-4.8c0.2-0.3,0.1-0.6-0.2-0.8l-3.2-1.9l1.4-0.3c0.3-0.1,0.5-0.4,0.4-0.7l-0.5-3.2l5.5,0.3
	c0.1,0,0.3,0,0.4-0.1L166.9,342z"/>
<path id="divi-68368" class="st0" d="M150,345.2l4.7,0.6c0.1,0,0.3,0,0.4-0.1l0.9-0.5l0.4,2.5l-2.9,0.7c-0.1,0-0.2,0.1-0.2,0.2
	l-3.1,2.8c-0.1,0-0.1,0.1-0.1,0.2l-1.4,3l-1.7,2.3l-1.1-2.2c-0.1-0.2-0.4-0.4-0.6-0.3l-4.2,0.6l-0.9-2.2c-0.1-0.1-0.2-0.2-0.3-0.3
	l-2-1c-0.1,0-0.2-0.1-0.3-0.1l-2.8,0.3l-2-0.6l1-1.3l0-0.1l2.2-1.3l0.3,0.7c0.1,0.2,0.3,0.4,0.5,0.4h5.9c0.2,0,0.3-0.1,0.4-0.2
	l3.2-2.8L150,345.2z"/>
<path id="divi-68020" class="st0" d="M154.2,349.4C154.2,349.5,154.3,349.5,154.2,349.4l3.7,2.2l-2.5,4.4c-0.1,0.1-0.1,0.2-0.1,0.3
	l0.3,4l-1.5,1.2l-0.1,0l-2.5,1.5l-5.7,0.2c-0.2,0-0.3,0.1-0.4,0.2l-2.3,2.8l-2.8-1.4l-2.5-1.8c-0.1-0.1-0.2-0.1-0.3-0.1l-5.3,0.2
	l0.9-1.2l0.1,0l0-0.1l3.1-2.3l5.6,1.2c0.1,0,0.1,0,0.2,0l3.3-0.3c0.2,0,0.4-0.2,0.5-0.4l0.5-1.4c0.3,0.1,0.6,0,0.7-0.2l2.3-3.1
	c0,0,0-0.1,0.1-0.1l1.4-3l2.9-2.6L154.2,349.4z"/>
<path id="divi-68271" class="st0" d="M131.7,351.9c0.1,0,0.1,0.1,0.2,0.1l2.6,0.8c0.1,0,0.1,0,0.2,0l2.8-0.3l1.6,0.8l1.1,2.4
	c0.1,0.2,0.3,0.4,0.6,0.3l4.2-0.6l0.8,1.6v0l-0.7,2.1l-2.8,0.3l-5.8-1.3c-0.2,0-0.3,0-0.5,0.1l-3.4,2.6c0,0-0.1,0.1-0.1,0.1
	l-1.3,1.7l-3-0.6l-1.2-3.6c0-0.1-0.1-0.2-0.2-0.2l-2.6-2.3c0,0-0.1,0-0.1-0.1l-2.9-1.8c-0.1-0.1-0.2-0.1-0.3-0.1l-5.5-0.2l-0.1-1.9
	l5.7,0.6l2.5,2.2c0.2,0.2,0.5,0.2,0.7,0l4.1-2.7L131.7,351.9z"/>
<path id="divi-68444" class="st0" d="M248.8,151.1l2.1,3.2c0,0,0,0.1,0.1,0.1l3.7,3.9l-0.7,4.4l2.2,4.2v3.6l-8.5,5.1
	c-0.2,0.1-0.3,0.2-0.3,0.4l-0.8,7l-1,1l-2-1.8l0.5-4.7c0-0.1,0-0.2,0-0.3l0.4-0.5c0.1-0.1,0.2-0.3,0.2-0.5l-0.6-3.9
	c0-0.2-0.1-0.3-0.2-0.4l-2.8-1.9l2.7-4.2l3.5-15.7"/>
</svg>
