<?xml version="1.0" encoding="utf-8"?>
<!-- Generator: Adobe Illustrator 20.1.0, SVG Export Plug-In . SVG Version: 6.00 Build 0)  -->
<svg version="1.1"
	 id="asaysc" inkscape:output_extension="org.inkscape.output.svg.inkscape" inkscape:version="0.46" sodipodi:docname="departamentos_colombia_plain.svg" sodipodi:version="0.32" xmlns:cc="http://creativecommons.org/ns#" xmlns:dc="http://purl.org/dc/elements/1.1/" xmlns:inkscape="http://www.inkscape.org/namespaces/inkscape" xmlns:rdf="http://www.w3.org/1999/02/22-rdf-syntax-ns#" xmlns:sodipodi="http://sodipodi.sourceforge.net/DTD/sodipodi-0.dtd" xmlns:svg="http://www.w3.org/2000/svg"
	 xmlns="http://www.w3.org/2000/svg" xmlns:xlink="http://www.w3.org/1999/xlink" x="0px" y="0px" viewBox="0 0 165 226"
	 style="enable-background:new 0 0 165 226;" xml:space="preserve">
<style type="text/css">
	.st0{fill:none;stroke:#000000;stroke-miterlimit:10;}
</style>
<path id="divi-88564" class="st0" d="M94.4,37.1l-4.2,4.4l0.9,5l6,2.1l4.9-2l1.5-2.4l-2-3.8l0-5.6L94.4,37.1z M107.9,44.9l-5.3,5.5
	l3,10.2l-4.3,4.1l-5.8-1.4l-4.6,4.1l-0.6,3.9l-4.1,14.9l4,8.8l-2.1,6l1.6,4.7l5.4,1.6l2.3,5.6l-0.5,5.4l5.8,4.8l6.1-4.3l3.9-3.9
	l5.3-4.4l1-3.7l8.9-6l5.3-10l-4.4-8.7l-0.6-6.2l4.9-6.9l-1.5-5.5l-3.9,2.8l-5.2-5.4l-1-3.1l0.8-6.7l-6.2-0.5l-6.3-4.3L107.9,44.9z"
	/>
<path id="divi-88001" class="st0" d="M52.5,35.8l-5.3,10.6l-6.9,5.1l-2.9,8.3l2.4,9.3l-0.6,4.1L33,83.4l-3.3,5.1l1.1,5.2l5.3,4.3
	l-2.1,5.2l-0.8,8.2l-0.5,4.5l-2,4.1l6.4,2.6l5.8-0.2l-1,5.3l2,7.6l-1.3,3.9l3.1,5.9l-2.2,11.8l-1.6,9.5l3.6,6.5l3.2,4.8l6-0.9
	l4.9-14.2l2.2-8.1l-0.3-3.2l2.1-15.4l-0.8-13.7l4.8-9.8l-1.8-9.8L63.7,99l4.3-5.3l-2.6-15.5L60.2,76L60,71.7l7,0.3l-5-4.4l3.6-0.1
	l-1.3-4.4l-6-2.3l1.6-4.4l5.8-0.2l1-5.7l8.3-0.4l2.7,0.9l-0.5-3.9l1.1,0.1l-6.7-2.2l-8.6-2.5L52.5,35.8z"/>
</svg>
