<?xml version="1.0" encoding="utf-8"?>
<!-- Generator: Adobe Illustrator 20.1.0, SVG Export Plug-In . SVG Version: 6.00 Build 0)  -->
<svg version="1.1"
	 id="nortedesantander" inkscape:output_extension="org.inkscape.output.svg.inkscape" inkscape:version="0.46" sodipodi:docname="departamentos_colombia_plain.svg" sodipodi:version="0.32" xmlns:cc="http://creativecommons.org/ns#" xmlns:dc="http://purl.org/dc/elements/1.1/" xmlns:inkscape="http://www.inkscape.org/namespaces/inkscape" xmlns:rdf="http://www.w3.org/1999/02/22-rdf-syntax-ns#" xmlns:sodipodi="http://sodipodi.sourceforge.net/DTD/sodipodi-0.dtd" xmlns:svg="http://www.w3.org/2000/svg"
	 xmlns="http://www.w3.org/2000/svg" xmlns:xlink="http://www.w3.org/1999/xlink" x="0px" y="0px" viewBox="0 0 292 408"
	 style="enable-background:new 0 0 292 408;" xml:space="preserve">
<path id="divi-54498" class="st0" d="M71.9,164.7v8.6l-4,2.3l-2.6-2.6c0,0,0,0,0-0.1l-0.1-0.1c0,0,0,0-0.1,0l-0.2-0.2
	c0,0-0.1-0.1-0.1-0.1l-0.1,0l-3.8-3.3l2-1.8l0,0l2.6-1c0.2-0.1,0.4-0.3,0.4-0.6L69,167c0.2,0.1,0.4,0,0.6-0.1L71.9,164.7z"/>
<path id="divi-54206" class="st0" d="M124.2,62.2l5.6,9.9l-1,0.8l-2.2,1c0,0-0.1,0.1-0.1,0.1l-2.5,1.9c-0.2,0.1-0.3,0.4-0.2,0.6
	l2.1,6.6l-2,2.8l-2.5-2.1c-0.2-0.1-0.4-0.2-0.6-0.1l-4,1.9l-5.8,1.4c-0.2,0.1-0.4,0.2-0.4,0.5l-1.3,7.6l-3.8,6
	c-0.2,0.2-0.1,0.6,0.1,0.8l3.4,3.2l-1.5,1.5c-0.1,0.1-0.1,0.1-0.1,0.2l-1.3,3.4l-4.1,4.1c0,0-0.1,0.1-0.1,0.1l-5.5,9.1
	c0,0.1-0.1,0.2-0.1,0.2l-0.8,9.8l-3.4,4c0,0,0,0,0,0l-4.7,6.1c-0.1,0.1-0.1,0.2-0.1,0.3l-0.8,5.8c0,0.1,0,0.2,0.1,0.3l2.3,6
	l-2.5,2.8c0,0,0,0,0,0.1l-3.5,5.2c-0.1-0.1-0.2-0.2-0.3-0.2h0l-2.3-3.6c-0.1-0.2-0.3-0.3-0.5-0.3c-0.2,0-0.4,0.1-0.5,0.3l-4.5,0.2
	c0,0,0,0-0.1,0l0.1-0.4c0,0,0,0,0,0l1.3-8.6l4.6-4.3c0.2-0.1,0.2-0.4,0.2-0.6l-2.3-9.3l7.2-1.5c0.2,0,0.3-0.2,0.4-0.3l3-6.5l2.7-2.2
	c0.1-0.1,0.2-0.2,0.2-0.4s0-0.3-0.1-0.4l-3.1-3.4l1.1-7.9l6.8-2.3c0.3-0.1,0.4-0.4,0.4-0.7l-1.7-8.3v-4.8v-0.1l0.6-6.8l6.2-8
	l16.3-6.8c0.2-0.1,0.3-0.2,0.3-0.4l0.8-4.1c0-0.1,0-0.2,0-0.3l-1.2-3.8l5.2-3.9c0.1-0.1,0.1-0.1,0.2-0.2L124.2,62.2z"/>
<path id="divi-54680" class="st0" d="M165.6,221.5l-2.1,2.5c-0.1,0.1-0.2,0.3-0.1,0.5c0,0.2,0.2,0.3,0.3,0.4l3.3,1.4l3.3,2.1
	l0.8,1.8l-3.5,3.5c-0.2,0.2-0.2,0.4-0.1,0.7l1.6,3.5l-2.8,2.1c0,0,0,0.1-0.1,0.1l-3,3.2l-3-1.8l-1.5-4.6c0.3,0,0.6-0.2,0.6-0.6
	c0-0.3-0.2-0.6-0.6-0.6l0.2-4.6c0-0.1,0-0.2-0.1-0.3l-3.1-5.4l3.2-3.2h0c0.1,0,0.2,0.1,0.3,0.1L165.6,221.5z"/>
<path id="divi-54874" class="st0" d="M195.7,233.2l-1.3,26.3c0,0.1,0,0.1,0,0.2l0.2,0.8l-3.9-1c-0.1,0-0.2,0-0.3,0l2.2-17.8l1.6-3.5
	c0-0.1,0.1-0.2,0.1-0.3l-0.5-3.9L195.7,233.2z"/>
<path id="divi-54405" class="st0" d="M192.7,234.6l0.4,3.5l-1.6,3.4c0,0.1-0.1,0.1-0.1,0.2l-2.2,18.2l-2.7,1.6l-6.5-6.5l1-4.2
	l2.4-1.3c0.1-0.1,0.2-0.1,0.2-0.2l5.2-8c0,0,0-0.1,0.1-0.2l1.8-5.8L192.7,234.6z"/>
<path id="divi-54099" class="st0" d="M178.4,248.1l1.2,2.7c0,0.1,0.1,0.2,0.2,0.2l-0.7,3.1c-0.2,0-0.5,0.1-0.6,0.3
	c-0.1,0.2,0,0.5,0.1,0.7l0.1,0.1l-1.5,0.7c-0.1,0-0.2,0.1-0.2,0.2l-3.9,4.7c-0.1,0.1-0.1,0.3-0.1,0.4l0.8,9.2l-3.7,1
	c-0.1,0-0.2,0.1-0.3,0.2l-3.7,5l-4.2-4.4l1.8-3.2c0.1-0.2,0.1-0.4-0.1-0.6l-3-3.7l1.8,0.4c0.1,0,0.2,0,0.3,0l3.6-1.1
	c0.1,0,0.1-0.1,0.2-0.1l2.2-1.7c0.2-0.1,0.3-0.3,0.2-0.6l6.2-7c0.1-0.1,0.1-0.2,0.1-0.3l0.5-5.4L178.4,248.1z"/>
<path id="divi-54871" class="st0" d="M126.8,207.5l1,3l2.5,7.4c0.1,0.2,0.3,0.4,0.5,0.4l8.3,1l1.1,3.6c0,0,0,0.1,0,0.1l1.9,3.8
	c0.1,0.1,0.2,0.2,0.3,0.3l-4.9,2.2c-0.3,0.1-0.4,0.4-0.3,0.7l-2.4,3.1c-0.1,0.1-0.1,0.2-0.1,0.3l-0.2,4.5l-6.2,6.2l-2.4-1.3
	l-1.8-6.3v0l-0.1-1.2l0.2-0.2c0.2-0.1,0.2-0.4,0.2-0.6l-2.2-7.7c0-0.1-0.1-0.2-0.2-0.2l-6.9-6.6l2.7-5.3l3.5,0.2
	c0.2,0,0.4-0.1,0.5-0.3l2.6-4.8l0,0L126.8,207.5z"/>
<path id="divi-54518" class="st0" d="M161.9,283.9h5.1c0.1,0.1,0.1,0.2,0.2,0.2l4.4,2.3l0.2,4.7c0,0.3,0.3,0.5,0.6,0.5h3
	c0.2,0,0.3-0.1,0.4-0.2l2.5-2.5l3.2,1.4l0.8,1.9l-1.8,5.8c-0.1,0.2,0,0.4,0.1,0.5l5.5,7.8l-3.3,1.9l-3.2-2.7l-2.1-6.2
	c-0.1-0.2-0.2-0.3-0.3-0.3c-0.1-0.1-0.3-0.1-0.5,0l-3.3,1.4c0,0-0.1,0-0.1,0.1l-4.4,2.9l-2.7-0.8c0-0.2-0.1-0.3-0.2-0.4l0.2-4.5
	c0-0.1,0-0.3-0.1-0.4l-3.6-4.4c-0.1-0.1-0.2-0.2-0.4-0.2c-0.2,0-0.3,0-0.4,0.1l-5.5,4.4l-3.5-2.3c-0.1-0.1-0.2-0.1-0.3-0.1l-0.2-3.6
	l5-4.7L161.9,283.9z"/>
<path id="divi-54245" class="st0" d="M119.5,60.9l3.6,0.8l-0.9,1.8l-5.4,4.1c-0.2,0.1-0.3,0.4-0.2,0.7l1.3,4l-0.8,3.7l-16.2,6.8
	c-0.1,0-0.2,0.1-0.2,0.2L94,91.4c-0.1,0.1-0.2,0.3-0.1,0.4c0,0.2,0.1,0.3,0.2,0.4l-0.5,6.1c0,0,0,0,0,0v5c0,0,0,0.1,0,0.1l1.6,7.8
	l-6.7,2.3c-0.2,0.1-0.3,0.3-0.4,0.5l-1.1,8.5c0,0.2,0,0.3,0.2,0.5l2.9,3.1l-2.3,1.8c-0.1,0.1-0.1,0.1-0.2,0.2l-2.9,6.3l-7.4,1.6
	c-0.2,0-0.3,0.1-0.4,0.3c-0.1,0.1-0.1,0.3-0.1,0.5l2.4,9.6l-4.4,4.2c-0.1,0.1-0.2,0.2-0.2,0.3l-1.4,8.8v0l-0.7,3.4
	c-0.2,0.1-0.4,0.3-0.4,0.5v0l-2.8,2.6l-3.2-1.1l-0.2-9c0-0.3-0.2-0.5-0.4-0.6l-4.1-1l-1.2-3c0-0.1-0.1-0.1-0.2-0.2
	c0.2-0.1,0.2-0.4,0.2-0.6l-2.1-8.3l3.2-7.5l6.5-6.5c0.1-0.1,0.1-0.2,0.2-0.3l0.5-4.4l5.3-3.4c0.1-0.1,0.2-0.3,0.2-0.4l0.5-4.7
	c0-0.2,0-0.4-0.2-0.5c-0.1-0.1-0.3-0.2-0.5-0.2l-0.5-3.4c0,0,0-0.1,0-0.1l-0.9-2.3c0.2-0.2,0.2-0.4,0.2-0.6l-1.8-7
	c0-0.2-0.1-0.3-0.3-0.4c-0.1-0.1-0.3-0.1-0.4-0.1v-4.2l3.6-7.5c0-0.1,0-0.2,0-0.3l-0.7-11.6l3.4-3.7L83,72l1.9,1.9
	c0.1,0.2,0.4,0.2,0.6,0.2l17.3-4.7c0,0,0.1,0,0.1,0L119.5,60.9z"/>
<path id="divi-54800" class="st0" d="M125.9,75.8l4.8,8.3c0.2,0.3,0.5,0.4,0.8,0.2l0.4-0.2l1.6,1.6l0.2,4.6L126,89
	c-0.2,0-0.4,0-0.5,0.2l-3.5,3.5l-3.8,1.3c-0.2,0.1-0.3,0.3-0.4,0.5l-1.4,7.7c0,0.1,0,0.2,0,0.3l2.4,5l-1,1.9h0
	c-0.2,0.1-0.4,0.4-0.3,0.6c0,0,0,0,0,0.1l-0.2,0.4c-0.1,0.1-0.1,0.3,0,0.5l1.3,3.2l0.5,8.4l-5,0.5c-0.2,0-0.3,0.1-0.4,0.2
	c-0.1,0.1-0.1,0.3-0.1,0.4l0.2,5.1l-4.3,2c-0.1,0-0.2,0.1-0.3,0.2l-4.4,7.7c0,0.1-0.1,0.2-0.1,0.3v9l-6.8,2.9
	c-0.2,0.1-0.4,0.3-0.3,0.6l0.5,5.3l-5.1,5.8c0,0-0.1,0.1-0.1,0.1l-3,6.5l-1,0.7c-0.1-0.2-0.3-0.3-0.6-0.3c-0.2,0-0.4,0.2-0.5,0.4
	l-0.2,0.7l-0.4,0.3l-1.7-3.8c-0.1-0.2-0.3-0.3-0.5-0.3c-0.2,0-0.4,0.1-0.5,0.3l-1,1.6c-0.1-0.1-0.3-0.2-0.5-0.2l-0.6-3.2l4.1-6
	l0.1-0.1l2.7-3c0.1-0.2,0.2-0.4,0.1-0.6l-2.4-6.2l0.8-5.4l4.6-6h0l3.6-4.1c0.1-0.1,0.1-0.2,0.1-0.3l0.8-9.8l5.4-8.9l4.1-4.2
	c0.1-0.1,0.1-0.1,0.1-0.2l1.3-3.4l1.9-1.9c0.1-0.1,0.2-0.3,0.2-0.4s-0.1-0.3-0.2-0.4l-3.5-3.2l3.6-5.7c0-0.1,0.1-0.1,0.1-0.2
	l1.3-7.4l5.4-1.3c0,0,0.1,0,0.1,0l3.8-1.8l2.8,2.2c0.1,0.1,0.3,0.1,0.4,0.1c0.2,0,0.3-0.1,0.4-0.2l2.5-3.6c0.1-0.1,0.1-0.3,0.1-0.5
	l-2.1-6.5L125.9,75.8z"/>
<path id="divi-54810" class="st0" d="M144.9,78l8.3,4.6l17,57.2c0,0.1,0.1,0.2,0.2,0.2l23.7,23.8l-3.7,2.7c-0.1,0.1-0.2,0.2-0.2,0.4
	l-0.8,4.2l-2.9,5.9l-5.2-5.7c-0.1-0.1-0.3-0.2-0.4-0.2c-0.2,0-0.3,0.1-0.4,0.2l-4.6,5.4l-6.8,2.4c0,0-0.1,0-0.1,0l-4.4,2.5
	c0,0,0,0,0,0l-3.6,2.4l-1.8-3.3l2.1-0.9c0.2,0.2,0.5,0.2,0.8,0l1.9-1.7c0.2-0.1,0.2-0.3,0.2-0.5c0-0.2-0.2-0.4-0.3-0.4l-2.3-1.1
	l5.3-2l0.1,0l8.5-2.2c0.1,0,0.3-0.1,0.3-0.2l3.3-5.5c0.1-0.2,0.1-0.5-0.1-0.7l-3.6-3.6c-0.1-0.1-0.3-0.2-0.5-0.2
	c-0.2,0-0.3,0.1-0.4,0.2l-3.8,4.8l-4.5-3.5c-0.2-0.2-0.5-0.2-0.7,0l-3.7,2.7l-3.5-3.8c-0.2-0.2-0.4-0.2-0.6-0.2l-9.4,2.9l-6.9-4.6
	l1.3-5.1c0.1-0.2-0.1-0.5-0.3-0.6l-4.4-2.2c-0.1-0.1-0.3-0.1-0.5,0c-0.2,0.1-0.3,0.2-0.3,0.3l-1.8,4.1h-2.7c-0.2,0-0.3,0.1-0.5,0.2
	c-0.1,0.1-0.2,0.3-0.1,0.5l-5.2-4.2v-4l5.1-4.4l4.4,1.5c0.1,0.1,0.3,0,0.5,0s0.2-0.2,0.3-0.3l1.7-6.3c0-0.1,0-0.2,0-0.2l-1.7-10.5
	c0-0.1-0.1-0.2-0.1-0.3l-5.5-6.3l1.9-2.7c0.1-0.2,0.2-0.3,0.1-0.5l-1.6-4.6l0.5-4c0-0.3-0.1-0.5-0.4-0.6l-3.7-1.1l-1-1.5
	c-0.1-0.2-0.4-0.3-0.6-0.2l-7.2,1.8l0.7-1.3c0.1-0.2,0.1-0.4,0-0.5l-2.4-5L119,95l3.5-1.2c0.1,0,0.2-0.1,0.2-0.1l3.4-3.4l8.2,1.3
	c0.2,0,0.4,0,0.5-0.1s0.2-0.3,0.2-0.5l-0.3-5.5c0-0.1-0.1-0.3-0.2-0.4l-1.5-1.5L144.9,78z"/>
<path id="divi-54250" class="st0" d="M126.5,108.4l0.9,1.3c0.1,0.1,0.2,0.2,0.3,0.2l3.4,1l-0.5,3.6c0,0.1,0,0.2,0,0.3l1.6,4.4
	l-2,2.8c-0.2,0.2-0.1,0.5,0,0.7l5.7,6.5l1.6,10.2L136,145l-4.1-1.4c-0.2-0.1-0.4,0-0.6,0.1l-4.9,4.3c-0.2-0.1-0.4-0.1-0.6,0
	c-0.2,0.1-0.3,0.3-0.3,0.5v0.2l-0.7,0.6l-4.4-0.3c-0.2,0-0.3,0-0.4,0.1c-0.1,0.1-0.2,0.2-0.2,0.4l-0.5,4.9l-4.8-0.9l-8.5-4.8
	c0-0.1,0.1-0.1,0.1-0.2v-9.2l4.2-7.4l4.5-2.1c0.2-0.1,0.4-0.3,0.3-0.6l-0.2-5l5-0.5c0.3,0,0.5-0.3,0.5-0.6l-0.5-9.1
	c0-0.1,0-0.1-0.1-0.2l-1.3-3.1l0.2-0.4L126.5,108.4z"/>
<path id="divi-54670" class="st0" d="M104.9,149.5l9.2,5.1c0,0,0.1,0,0.2,0.1l5.5,1.1c0.2,0,0.3,0,0.5-0.1c0.1-0.1,0.2-0.2,0.2-0.4
	l0.5-5l4.1,0.2c0.2,0,0.3,0,0.4-0.2l0.1-0.1v3.3c0,0.2,0.1,0.3,0.2,0.4l5.9,4.8l0.4,5.8l-3.3-1.9l-6.1-5.8c-0.2-0.2-0.4-0.2-0.7-0.1
	l-5.5,2.8c-0.1,0.1-0.3,0.2-0.3,0.3l-1.5,4.7l-6.9-2.3c-0.2,0-0.3,0-0.5,0.1l-3.9,2.2c-0.2,0.1-0.3,0.3-0.3,0.5l-0.3,6.5l-2,4.2
	l-5.1-0.2c-0.1,0-0.2,0-0.3,0.1l-3.3,2l-4.2-2.4l1-3.7l2-1.3c0.1-0.1,0.2-0.1,0.2-0.2l2.9-6.5l0.1-0.1l5.2-6
	c0.1-0.1,0.1-0.3,0.1-0.4l-0.5-5.1L104.9,149.5z"/>
<path id="divi-54720" class="st0" d="M137.7,153.8l3.5,1.7l-1.3,5.1c-0.1,0.2,0,0.5,0.2,0.6l7.4,4.9c0.1,0.1,0.3,0.1,0.5,0.1
	l9.3-2.9l3.6,3.9c0.2,0.2,0.5,0.2,0.8,0.1l3.8-2.8l4.6,3.6c0.1,0.1,0.3,0.1,0.4,0.1c0.2,0,0.3-0.1,0.4-0.2l3.8-4.7l2.8,2.8l-3,4.9
	l-8.3,2.2c0,0,0,0-0.1,0l-6.6,2.5c-0.2,0.1-0.4,0.3-0.4,0.5c0,0.2,0.1,0.4,0.3,0.5l2.8,1.3l-0.4,0.4c0,0-0.1,0-0.1,0l-3.9,1.7
	c-0.1,0.1-0.3,0.2-0.3,0.4s0,0.3,0.1,0.5l2.5,4.4c0.1,0.1,0.2,0.2,0.4,0.3s0.3,0,0.5-0.1l4.2-2.8l0,0l4.3-2.4l0.1,0l6.8-2.4
	c0,0,0.1,0,0.1-0.1l-0.6,3.3c0,0.1,0,0.2,0,0.3l1.1,2.5c0.1,0.2,0.3,0.4,0.6,0.3l1.1-0.1l-1,4.7l-4.5-0.5c-0.2,0-0.4,0.1-0.5,0.2
	l-2.8,4.1c-0.1,0.2-0.1,0.4,0,0.6l2.7,4.2l-6.4,3.8c-0.1,0.1-0.2,0.2-0.2,0.3l-2.9,9.5l-3.8,0.2c-0.3,0-0.5,0.2-0.5,0.5l-0.2,3
	l-2.4,1.7h-6.2l-4.9-3.7l3.2-4.2c0.2-0.2,0.1-0.6-0.1-0.8l-2.7-2.2l0,0l0,0l-4.3-4.9c0,0,0-0.1-0.1-0.1l-9.3-7.1l-1.5-5.5
	c0,0,0,0,0,0l-2-6l1.5-3.2c0-0.1,0-0.1,0-0.2l0.3-6.3c0-0.1,0-0.1,0-0.2l-1.2-4.4l4.4-1.2c0.3-0.1,0.5-0.4,0.4-0.7c0,0,0,0,0,0
	c0-0.1,0-0.1,0-0.2l-0.6-7.2c0-0.1-0.1-0.3-0.2-0.4l-0.1-0.1c0,0,0,0,0.1,0h3c0.2,0,0.4-0.1,0.5-0.3L137.7,153.8z"/>
<path id="divi-54344" class="st0" d="M122.2,158.1l5.8,5.5c0,0,0.1,0.1,0.1,0.1l3.5,2l-3.9,1.1c-0.2,0-0.3,0.1-0.4,0.3
	c-0.1,0.1-0.1,0.3-0.1,0.4l1.3,4.8l-0.2,6.1l-1.2,2.6h0c-0.3,0.1-0.5,0.4-0.4,0.7l-6.6,1.5c0-0.2-0.2-0.4-0.5-0.5l-5-0.8
	c-0.3,0-0.5,0.1-0.6,0.4l-1,3.3l-5.4-0.9l-0.8-4.8c0-0.2-0.1-0.4-0.3-0.4l-3-1.5l-0.2-3.8c0-0.1-0.1-0.2-0.1-0.3l0.9-1.9
	c0-0.1,0.1-0.1,0.1-0.2l0.3-6.3l3.3-1.9l7.2,2.4c0.1,0.1,0.3,0,0.5,0c0.1-0.1,0.2-0.2,0.3-0.3l1.6-5L122.2,158.1z"/>
<path id="divi-54553" class="st0" d="M207.5,192.1l0.4-0.1v-0.1l-4-8.6c0-0.1,0-0.1,0-0.2l-1.4-11.8l-0.6-0.6c0,0.1-0.1,0.2-0.2,0.2
	l-4.3,3.2l-2,4l2.3,3.9c0,0,0,0.1,0,0.1l1.7,4.1c0,0.1,0.1,0.1,0.1,0.2v6h2.4l4.8-1.1c0.2-0.1,0.5-0.1,0.6,0.1
	C207.5,191.8,207.5,192,207.5,192.1z"/>
<path id="divi-54001" class="st0" d="M194.8,164.6l-3.6,2.7l-0.8,4.2c0,0.1,0,0.1-0.1,0.2l-3.3,6.6c-0.1,0.2-0.3,0.3-0.4,0.3
	c-0.2,0-0.4,0-0.5-0.2l-5.4-5.8l-3.1,3.6c0,0.1,0.1,0.2,0,0.3l-0.8,4.5l0.9,2l1-0.1c0.1-0.2,0.3-0.4,0.5-0.4s0.5,0.1,0.6,0.3
	l3.8-0.3c0.2,0,0.3,0,0.4,0.2c0.1,0.1,0.2,0.3,0.2,0.4v8.7l1.6,4.3c0,0.1,0.1,0.2,0,0.3l-1.1,5c0,0.2-0.2,0.3-0.3,0.4l-4.7,2.4
	l-0.8,6.5v0.1v14.2v1.4c0.2,0.1,0.2,0.3,0.2,0.5s-0.1,0.4-0.2,0.5v0.5l0.7,2l5.2,0.5c0.2,0,0.3,0.1,0.4,0.3c0.1,0.2,0.1,0.4,0,0.5
	l-1.9,3.3c0,0.1-0.1,0.1-0.1,0.2l-2.5,2l0.2,4.4l2.1,2.3c0.2,0.2,0.2,0.6,0,0.8l-3.1,2.9c0,0.2-0.2,0.4-0.4,0.5l0.7,1.6
	c0.1-0.1,0.3-0.2,0.4-0.2c0.2,0,0.4,0.1,0.5,0.2l1.7-0.9l5.1-7.7l0-0.1l1.9-6c0.1-0.2,0.2-0.3,0.3-0.4l2.5-0.9
	c0.1-0.2,0.3-0.3,0.6-0.2h0l2.5-1.2v-0.1l-2.3-6.3c-0.1-0.2,0-0.4,0.1-0.6l6-7.5c0.1-0.1,0.1-0.1,0.2-0.2l6.2-2.6l1.6-22.4l-0.4,0.1
	c0,0.1,0.1,0.1,0,0.2c-0.1,0.2-0.3,0.4-0.5,0.4l-5,1.1c0,0-0.1,0-0.1,0h-3c-0.3,0-0.6-0.3-0.6-0.6V187l-1.6-4l0,0v0l-2.4-4.1
	c-0.1-0.2-0.1-0.4,0-0.6l2.2-4.4c0-0.1,0.1-0.1,0.2-0.2l4.4-3.3c0,0,0.1,0,0.1-0.1L194.8,164.6z"/>
<path id="divi-54498_1_" class="st0" d="M85.3,168.8l1.5,3.4c0.1,0.3,0.5,0.4,0.8,0.3l-0.8,2.9c-0.1,0.3,0,0.5,0.3,0.7l4,2.2
	c-0.2,0.1-0.4,0.3-0.4,0.5c0,0.3,0.1,0.5,0.4,0.6l2.3,1l-0.5,4.2l-2.5,1.5c-0.2,0.1-0.3,0.3-0.3,0.5l0.8,8.1v0.1l-0.5,3.4l-2.3,3.9
	l-4.2,1.6c-0.3,0.1-0.4,0.4-0.3,0.7l1.3,4.3v3.2c-0.2,0-0.5,0.2-0.5,0.4l-6.7-2.2l-1.8-4.5c0.1-0.1,0.1-0.3,0-0.5l-1.6-4l0.8-11.3
	l5.1-7c0,0,0.1-0.1,0.1-0.2l1.4-4.1c0.1-0.2,0-0.3,0-0.5c0,0,0,0,0-0.1l1.9-4.7c0,0,0-0.1,0-0.1l0.3-2.2L85.3,168.8z"/>
<path id="divi-54398" class="st0" d="M102.3,175.8l0.2,2.6c0,0.2,0.1,0.4,0.3,0.5l3,1.5l0.8,4.9c0,0.2,0.2,0.4,0.5,0.5l6.3,1.1
	c0.3,0.1,0.6-0.1,0.7-0.4l1-3.4l4,0.7l0.5,4.1l-2.4,1.2c-0.1,0.1-0.2,0.2-0.3,0.3l-1.4,3.5l-4.3-3.2c-0.1-0.1-0.3-0.1-0.5-0.1
	l-4.1,0.8c-0.1,0-0.1,0-0.2,0.1l-8.1,4.3l-6.4-1.6l-0.7-6.3l2.5-1.5c0.2-0.1,0.3-0.3,0.3-0.4l0.5-4.9c0-0.3-0.1-0.5-0.3-0.6
	l-1.6-0.7l3.4-2.1l5.3,0.2c0.2,0,0.5-0.1,0.6-0.3L102.3,175.8z"/>
<path id="divi-54003" class="st0" d="M127.1,182.8l1.8,5.6v0l1.5,5.4l-3,0.5c-0.2,0-0.4,0.1-0.4,0.3l-2.5,4.9
	c-0.1,0.1-0.1,0.3,0,0.5l1.9,4.8c-0.2,0.1-0.3,0.4-0.2,0.7l0.3,0.8l-2.9,2.4c-0.1,0.1-0.1,0.1-0.1,0.2l-2.6,4.6l-3.5-0.2
	c-0.2,0-0.5,0.1-0.6,0.3l-3,6.1c-0.1,0.2-0.1,0.5,0.1,0.7l7,6.8l1.7,6c-0.1,0.1-0.1,0.3-0.1,0.4l0.1,1.2l-5.1,4.1
	c-0.1,0.1-0.2,0.3-0.2,0.4l-0.2,4.2l-4.5,0.9l-5.6-4.2c-0.2-0.1-0.4-0.2-0.6-0.1l-5.2,2.5c0,0-0.1,0.1-0.1,0.1l-2.3,2.1l-4-5.6
	c-0.1-0.1-0.2-0.2-0.4-0.2l-10.3-1c-0.1-0.2-0.3-0.3-0.5-0.3h0l-1.9-2.1l0.8-6.6l6.9-3.4c0.1-0.1,0.2-0.2,0.3-0.3l1.7-3.6
	c0.1-0.1,0.1-0.3,0-0.4l-1.1-3c0-0.1-0.1-0.1-0.1-0.2l-4-4.9v-4.2c0-0.1,0-0.1,0-0.2v-0.5c0-0.2-0.1-0.4-0.3-0.5l-0.9-3l3.9-1.5
	c0.1,0,0.2-0.1,0.3-0.2l2.5-4.1c0-0.1,0.1-0.1,0.1-0.2L92,195c0-0.1,0-0.1,0-0.2l0-0.4l6.2,1.6c0.1,0,0.3,0,0.4,0l8.2-4.4l3.7-0.7
	l4.8,3.4c0.1,0.1,0.3,0.1,0.5,0.1s0.3-0.2,0.4-0.4l1.6-3.9l2.6-1.3c0.2-0.1,0.3-0.3,0.3-0.6l-0.4-3.8L127.1,182.8z"/>
<path id="divi-54261" class="st0" d="M183.2,183.6v8.2c0,0.1,0,0.1,0,0.2l1.6,4.2l-1,4.5l-4.7,2.4c-0.2,0.1-0.3,0.2-0.3,0.4
	l-0.8,6.9c0,0,0,0.1,0,0.1v14.3v1.8l-5.4,2.8c-0.1-0.1-0.3-0.2-0.5-0.1l-0.7-1.6c0-0.1-0.1-0.2-0.2-0.3l-3.6-2.2c0,0,0,0-0.1,0
	l-2.6-1.1l2.5-3c0.1-0.2,0.2-0.4,0.1-0.6c-0.1-0.2-0.3-0.3-0.6-0.3l-7.2,0.8l-0.5-4.9c0-0.1,0-0.2-0.1-0.2l0.1-0.1
	c0.1-0.1,0.2-0.3,0.2-0.4l0.2-2.8l3.7-0.2c0.2,0,0.4-0.2,0.5-0.4l3-9.7l6.7-4c0.1-0.1,0.2-0.2,0.3-0.4s0-0.3-0.1-0.4l-2.8-4.4
	l2.3-3.5l4.6,0.5c0.3,0,0.6-0.2,0.6-0.5l1.2-5.5L183.2,183.6z"/>
<path id="divi-54109" class="st0" d="M131.2,194.9C131.2,194.9,131.3,194.9,131.2,194.9l8.9,6.7l0.1,0.1l4.3,4.9c0,0,0,0,0.1,0.1
	l2.3,1.8l-3.2,4.2c0,0,0,0.1-0.1,0.1c-0.1,0-0.2,0.1-0.2,0.2l-3.7,5.2l-8.3-1l-2.3-7.1l-1.1-3.4l0.1-0.1c0.2-0.2,0.3-0.4,0.2-0.7
	l-2.4-6.1l2.2-4.4L131.2,194.9z"/>
<path id="divi-54418" class="st0" d="M144.2,213.8l5.1,3.8c0.1,0.1,0.2,0.1,0.3,0.1h3.3c0,0,0,0.1,0,0.1l-1.3,6l-8,2.7c0,0,0,0,0,0
	l-0.3,0.2c0-0.1,0-0.3-0.1-0.4l-1.9-3.8l0-0.1l-1-3c0.2,0,0.3-0.1,0.4-0.3c0.1-0.2,0.1-0.3,0-0.5c0,0,0,0,0,0L144.2,213.8z"/>
<path id="divi-54313" class="st0" d="M158.2,216.5l0.4,4.4c0,0,0,0,0,0l-3.8,3.8c-0.2,0.2-0.2,0.5-0.1,0.7l3.2,5.6l-0.2,4.7
	l-3.9,0.4c-0.1,0-0.1,0-0.2,0l-4.3,1.8l0.4-2.8c0-0.2-0.1-0.5-0.3-0.6l-6.6-3.6c0,0-0.1,0-0.1-0.1l-3.3-1.2l4.7-2.2l0.1,0l8.2-2.7
	c0.2-0.1,0.3-0.2,0.4-0.4l1.4-6.3c0-0.1,0-0.3-0.1-0.4h2.2c0.1,0,0.2,0,0.3-0.1L158.2,216.5z"/>
<path id="divi-54673" class="st0" d="M178,227.9c0,0.1,0,0.1,0,0.2l0.8,2.5c0.1,0.2,0.3,0.4,0.5,0.4l4.6,0.4l-1.4,2.5l-2.7,2.1
	c-0.2,0.1-0.2,0.3-0.2,0.5l0.3,4.9c0,0.1,0,0.3,0.1,0.4l1.8,2l-2.4,2.2l-3.8-1.9l0.6-1.4c0-0.1,0.1-0.1,0.1-0.2v-3
	c0-0.3-0.2-0.5-0.5-0.6l-5.2-1c0.2-0.2,0.2-0.5,0-0.7c-0.2-0.2-0.5-0.3-0.7-0.2l-1.3-2.9l3.2-3.1c0.1,0,0.2,0,0.3-0.1L178,227.9z"/>
<path id="divi-54660" class="st0" d="M138.2,230.6l4,1.4l0.1,0l6.2,3.4l-0.5,3.4c0,0.2,0,0.4,0.2,0.5c0.2,0.1,0.4,0.2,0.6,0.1
	l5.1-2.2l3.8-0.4c0,0,0,0,0,0l1.7,5c0,0.1,0.1,0.2,0.2,0.3l2.5,1.5c0,0,0,0.1,0,0.1l-1.4,8.5c0,0.1,0,0.1,0,0.2l-6.3-0.7
	c-0.1,0-0.1,0-0.2,0l-6.6,1.9l-7.1,1.1c-0.1,0-0.1,0-0.2,0.1l-7.3,3.7l-5.3-6.3l0.8-4.2c0-0.3-0.1-0.5-0.3-0.6l-2.9-1.2l0.6-2.4
	l2.3,1.3c0.2,0.1,0.5,0.1,0.7-0.1l6.6-6.6c0.1-0.1,0.1-0.2,0.2-0.3l0.3-4.5L138.2,230.6z"/>
<path id="divi-54128" class="st0" d="M122.8,236l0,0.5c0,0,0,0.1,0,0.1l1.9,6.4l-0.8,3.5c-0.1,0.3,0.1,0.6,0.3,0.7l2.9,1.2l-0.8,4
	c0,0.2,0,0.3,0.1,0.5l5.8,6.9c0,0,0,0,0.1,0c0,0,0,0,0,0l-4,4l-2.6-3.1c-0.2-0.2-0.4-0.3-0.7-0.2l-3.4,1.6l-3.2-0.1
	c-0.1-0.2-0.3-0.4-0.5-0.4s-0.5,0.1-0.6,0.4l-9.6-0.4c0,0,0,0,0,0H97.5c-0.2,0-0.3,0.1-0.4,0.2l-3.6,3.9c-0.1,0.1-0.1,0.3-0.1,0.4
	l0.5,4.9l-3.5,2.8c-0.1-0.1-0.2-0.1-0.3-0.1H90l-5.3-3.3l12.2-17.9l4.8-2.1c0.1-0.1,0.2-0.1,0.2-0.2l4.4-8c0.1-0.2,0.1-0.4,0-0.6
	l0.2-0.1l5.5,4.2c0.1,0.1,0.3,0.1,0.5,0.1l5.2-1.1c0.3,0,0.5-0.3,0.5-0.5l0.3-4.4L122.8,236z"/>
<path id="divi-54239" class="st0" d="M169.6,238.8c0.1,0.1,0.2,0.1,0.3,0.1l5.3,1v2.4l-0.8,1.9c-0.1,0.3,0,0.6,0.2,0.8l3.8,1.9
	l-3.4,0.9c-0.2,0.1-0.4,0.3-0.4,0.5l-0.5,5.6l-5.8,6.4l-0.6-3.5c0-0.1-0.1-0.3-0.2-0.4l-5.8-4.2l1.2-7.8l0,0
	c0.2,0.1,0.5,0.1,0.7-0.1l3.2-3.5l0,0l0.1-0.1L169.6,238.8z"/>
<path id="divi-54385" class="st0" d="M83.4,239L83.4,239l10.5,1.1l4.2,5.8c0.1,0.1,0.2,0.2,0.4,0.2c0.2,0,0.3,0,0.4-0.1l2.6-2.4l0,0
	l3.3-1.6l-4,7.2l-4.8,2.1c-0.1,0-0.2,0.1-0.2,0.2l-12.3,18.2c-0.2,0-0.4,0.2-0.4,0.4l-6.7-2.6c-0.1,0-0.2-0.1-0.3-0.1l-6.7,0.8
	l-7.2-4l-3.8-5.9c0-0.1-0.1-0.1-0.2-0.2l-6.8-4.9l-0.1-0.1l-5.2-5.2l8.8,2.6l4.9,3.8c0.1,0.1,0.3,0.1,0.4,0.1l10.5-1.1
	c0.1,0,0.2-0.1,0.3-0.2l5.2-4.7c0,0,0.1-0.1,0.1-0.1l4.3-7.1l0.1-0.1L83.4,239z"/>
<path id="divi-54051" class="st0" d="M154.4,253l7.3,0.8c0.1,0,0.3,0,0.4-0.1l4.7,3.4l0.8,4.3l-1.6,1.2l-3.3,1l-3.1-0.7l-0.6-0.7
	c-0.1-0.2-0.4-0.3-0.6-0.2c-0.2,0.1-0.4,0.3-0.4,0.5l-5.6-1.6c-0.3-0.1-0.6,0.1-0.7,0.4l-1,2.8l-3.4,2.7c-0.2,0.1-0.3,0.3-0.2,0.6
	l0.8,4l-1.3,5.6l-5.6,8l-1.3-4.9c0-0.1-0.1-0.2-0.2-0.3l-9.4-8.1l-0.3-7.4c0,0,0,0,0-0.1l3.7-3.7c0.2-0.2,0.2-0.6,0-0.8l7.6-3.8
	l7-1.1c0,0,0.1,0,0.1,0L154.4,253z"/>
<path id="divi-54172" class="st0" d="M179.6,256L179.6,256l6.4,6.4c0,0,0,0,0,0c-0.2,0.1-0.3,0.2-0.3,0.4l-1.9,8.4c0,0,0,0,0,0.1
	l0,0c0,0,0,0,0,0v0c0,0,0,0,0,0c0,0,0,0,0,0c0,0,0,0,0,0.1c0,0,0,0.1,0,0.1l-0.3,5.7c0,0.1,0,0.2,0.1,0.3l2.7,4.2l-4.4,2.8l-0.2-5.6
	c0-0.1,0-0.2-0.1-0.3l-3-3.8l-3.3-4.2c0-0.1-0.1-0.1-0.2-0.1c0,0,0,0,0,0l-0.8-9.2l3.6-4.4L179.6,256z"/>
<path id="divi-54599" class="st0" d="M190.2,260.6c0.1,0.1,0.2,0.1,0.3,0.2l4.5,1.2l2.6,9.5l-0.3,1.2c0-0.3-0.2-0.6-0.5-0.6
	l-7.7-1.1c0,0-0.1,0-0.1,0h-4l1.8-7.8c0-0.1,0-0.3,0-0.4c0,0,0,0,0,0l3.3-1.9C190.2,260.6,190.2,260.6,190.2,260.6z"/>
<path id="divi-54223" class="st0" d="M152.4,262.3l5.3,1.5c0,0,0,0,0,0l1,0.2l3.6,4.5l-1.7,3.2c-0.1,0.2-0.1,0.5,0.1,0.7l4.6,4.8
	l1.4,5.5h-5c-0.1,0-0.2,0-0.3,0.1l-4.7,2.8c0,0-0.1,0.1-0.1,0.1l-5.2,4.9c-0.1,0.1-0.2,0.3-0.2,0.5l0.2,4.6l-2.9,2.1l-1.4-5
	c-0.1-0.2-0.2-0.3-0.3-0.3l-5.4-2.3v-4l5.9-8.5c0-0.1,0.1-0.1,0.1-0.2l1.4-5.8c0-0.1,0-0.2,0-0.2l-0.8-3.8l3.3-2.5
	c0.1-0.1,0.2-0.2,0.2-0.3L152.4,262.3z"/>
<path id="divi-54520" class="st0" d="M174.2,271.3l3.3,4.1l2.9,3.7l0.3,6.2c-0.2,0.1-0.2,0.3-0.2,0.5c0,0.2,0.1,0.4,0.2,0.5l2.2,1.5
	l-0.1,2.3l-0.1-0.3c-0.1-0.1-0.2-0.2-0.3-0.3l-3.8-1.7c-0.2-0.1-0.5-0.1-0.6,0.1l-2.6,2.6H173l-0.2-4.4c0-0.2-0.1-0.4-0.3-0.5
	l-4.1-2.2c0-0.3-0.2-0.6-0.5-0.6l-1.3-5.2l4-5.3L174.2,271.3z"/>
<path id="divi-54347" class="st0" d="M184.9,272h4.1h0.1l7.7,1.1c0.3,0,0.5-0.1,0.6-0.4l-2.4,9.5c-0.1,0.2,0,0.5,0.2,0.6l7.9,6.1
	l-1.9,2.1l-3.8,0.5l-0.9-3.1c0-0.1-0.1-0.2-0.2-0.3l-8-6.9c-0.1-0.1-0.3-0.2-0.5-0.1c-0.2,0-0.3,0.1-0.4,0.3l-2.8-4.3L184.9,272z"/>
<path id="divi-54820" class="st0" d="M187.6,282.2l7.8,6.7l1.1,3.4c0.1,0.3,0.3,0.4,0.6,0.4l4.4-0.5c0.1,0,0.3-0.1,0.3-0.2l2.1-2.4
	l0.2,0.2c0,0,0.1,0,0.1,0.1l6.8,3.5c0.1,0,0.2,0.1,0.3,0.1l13.4-1.1l6.2,5.2l0.4,11.8c0,0.1,0,0.2,0.1,0.3l15.2,23
	c0,0.1,0.1,0.1,0.2,0.2l-2.2,1.5h-7.4l-2-1.8c-0.1-0.1-0.3-0.1-0.4-0.1h-4.1c-0.3,0-0.5,0.2-0.6,0.5l-1,6.5l-3.7,1.2l-1.8,0.2
	l-1.5-4.2c-0.1-0.2-0.2-0.3-0.4-0.4c-0.2,0-0.4,0-0.5,0.1l-3.5,3l0-0.3c0-0.1,0-0.2,0-0.3l-3.9-8.2c0-0.1-0.1-0.1-0.1-0.2l-5.5-5
	c-0.1-0.1-0.2-0.1-0.3-0.1l-7.1-1.1l-4.1-3.1l0.5-0.2c0.2-0.1,0.3-0.2,0.3-0.3l1.9-5.2c0-0.1,0-0.3,0-0.4l-2.8-6.9
	c0,0,0-0.1-0.1-0.1l-4.9-7.3l-0.5-9.2c0-0.2-0.1-0.3-0.3-0.4c-0.1-0.1-0.3-0.1-0.5-0.1l-3.2,1.1l-3.2-0.5v0l0-0.1v-0.1
	c0-0.2,0-0.4-0.2-0.5l0.2-3.1c0-0.2-0.1-0.4-0.2-0.5l-1.8-1.2l5.4-3.3C187.5,282.4,187.6,282.3,187.6,282.2z"/>
<path id="divi-54377" class="st0" d="M190.1,292.1l0.5,8.6c0,0.1,0,0.2,0.1,0.3l4.9,7.4l2.7,6.6l-1.8,4.8l-2.1,0.7l-2.3-0.5
	c-0.2,0-0.4,0-0.5,0.2l-1.2-0.2c-0.1,0-0.1,0-0.2,0l-4.5,1.1l-4.5-1.7l2.3-1.3c0.1-0.1,0.2-0.1,0.2-0.2l1.9-3.9
	c0.1-0.2,0.1-0.4,0-0.6l-1.6-2.4l-0.7-1.6l4-2.4c0.1-0.1,0.2-0.2,0.3-0.4c0-0.2,0-0.3-0.1-0.4l-5.6-8.1l1.6-5.2l0,0c0,0,0,0,0,0
	c0,0,0.1-0.1,0.1-0.1c0,0,0,0,0-0.1c0,0,0,0,0,0c0,0,0,0,0,0c0,0,0,0,0,0c0,0,0,0,0-0.1c0,0,0,0,0,0c0,0,0,0,0,0l3.5,0.5
	c0.1,0,0.2,0,0.2,0L190.1,292.1z"/>
<path id="divi-54480" class="st0" d="M162.2,294l3.1,3.8l-0.3,4.9l-2.9,3.4c0,0,0,0-0.1,0.1l-1.6,2.8c-0.2,0-0.4,0.1-0.5,0.2
	l-4.8-0.5l-4.5-5.1c0-0.1-0.1-0.1-0.2-0.1l-4.1-2.3l0.2-1.2l1.5-0.7h0c0.2,0,0.3,0,0.5-0.1l3.8-2.8c0.1-0.1,0.2-0.2,0.2-0.3l3.5,2.3
	c0.2,0.1,0.5,0.1,0.7-0.1L162.2,294z"/>
<path id="divi-54125" class="st0" d="M176.8,300.3l2,5.8c0,0.1,0.1,0.2,0.2,0.2l2,1.7l-1.2,1c0,0,0,0,0,0.1l-3.6,3.6
	c0,0,0,0-0.1,0.1l-2.5,3.2l-2.3-1.3l-0.8-4.7c0-0.2-0.1-0.3-0.3-0.4c-0.1-0.1-0.3-0.1-0.5,0l-3,1c-0.1-0.1-0.2-0.2-0.3-0.2l-4.9-1.1
	l1.4-2.3l0,0l0-0.1l2.8-3.2l3.2,1c0.2,0.1,0.4,0,0.5-0.1l4.6-3l0.1,0L176.8,300.3z"/>
<path id="divi.54743" class="st0" d="M146.2,302.4l3.6,2l4.6,5.2c0.1,0.1,0.2,0.2,0.4,0.2l5.8,0.6c0.1,0,0.3,0,0.4-0.1l4.3,1
	c-0.1,0.2,0,0.4,0.1,0.6c0.1,0.2,0.4,0.2,0.6,0.2l0.4,4.2l-4.8,7c0,0,0,0.1-0.1,0.2l-1.7,5.8c0,0.1,0,0.2,0,0.3l1.6,6.1l0.2,2.2
	l-3.2-0.3l-0.2-1.6c0-0.2-0.1-0.4-0.3-0.5c-0.2-0.1-0.4,0-0.6,0.1c-0.2,0.1-0.2,0.4-0.2,0.6l0.2,1.1l-7.8-4.7c0,0-0.1,0-0.1,0
	l-2.4-0.8v0c0-0.2-0.2-0.5-0.4-0.5c-0.2-0.1-0.5,0-0.6,0.2l-3.1-1.1l0.2-1.1l4.1-5.2c0.1-0.1,0.1-0.2,0.1-0.3l1.1-8.3
	c0-0.1,0-0.3-0.1-0.4l-4.4-6.1c-0.1-0.1-0.1-0.2-0.2-0.2l2.5-5.2c0-0.1,0-0.1,0-0.2L146.2,302.4z"/>
<path id="divi-54174" class="st0" d="M181.9,308.8l0.2,0.2c0,0.1,0,0.3,0,0.4l0.8,1.9c0,0,0,0.1,0.1,0.1l1.5,2.2l-1.7,3.4l-3.2,1.9
	c-0.2,0.1-0.3,0.3-0.3,0.5c0,0.2,0.2,0.4,0.4,0.5l5.8,2.2c0.1,0,0.2,0.1,0.3,0l4.5-1.1l5.6,0.8l4.2,3.2c0.1,0.1,0.2,0.1,0.2,0.1
	l7,1.1l5.3,4.8l3.7,8l-1.3,9.2l-3.6,2.6l-0.1,0l-5,2.6l-6.8-1.3l-4.3-4c-0.2-0.2-0.5-0.2-0.7,0l-3.5,2.4l-5.7,1.4
	c0-0.1,0-0.2-0.1-0.3v-4.9c0-0.1,0-0.2-0.1-0.2l-3-7.4c-0.1-0.2-0.4-0.4-0.6-0.3l-9.2,1.3l-9.9-4l-0.1-0.7c0,0,0-0.1,0-0.1l-1.6-5.9
	l1.6-5.6l4.9-7.1c0.1-0.1,0.1-0.3,0.1-0.4l-0.4-4.7l2.5-0.8l0.7,4.3c0,0.2,0.2,0.3,0.3,0.4l3,1.7c0.2,0.1,0.5,0.1,0.7-0.2l2.7-3.5
	l0-0.1l3.5-3.5l0,0L181.9,308.8z"/>
</svg>
