<?xml version="1.0" encoding="utf-8"?>
<!-- Generator: Adobe Illustrator 20.1.0, SVG Export Plug-In . SVG Version: 6.00 Build 0)  -->
<svg version="1.1"
     id="atlantico" inkscape:output_extension="org.inkscape.output.svg.inkscape" inkscape:version="0.46" sodipodi:docname="departamentos_colombia_plain.svg" sodipodi:version="0.32" xmlns:cc="http://creativecommons.org/ns#" xmlns:dc="http://purl.org/dc/elements/1.1/" xmlns:inkscape="http://www.inkscape.org/namespaces/inkscape" xmlns:rdf="http://www.w3.org/1999/02/22-rdf-syntax-ns#" xmlns:sodipodi="http://sodipodi.sourceforge.net/DTD/sodipodi-0.dtd" xmlns:svg="http://www.w3.org/2000/svg"
     xmlns="http://www.w3.org/2000/svg" xmlns:xlink="http://www.w3.org/1999/xlink" x="0px" y="0px" viewBox="0 0 153 173.4"
     style="enable-background:new 0 0 153 173.4;" xml:space="preserve">
  <path id="divi-08573" class="st0" d="M86.7,32.9l1.3,0.4l7,6.1L92.2,42l-5.8,1.4c-0.1,0-0.2,0.1-0.3,0.2l-5.2,6.5l-0.7-2.2v-0.2
				       c0-0.3-0.2-0.5-0.4-0.6c-0.3-0.1-0.5,0.1-0.7,0.3l-9.1-0.2l4.8-4.9L86.7,32.9z"/>
  <path id="divi-08001" class="st0" d="M96,40.1l1.5,1.3l1.8,5.7c0,0,0,0.1,0,0.1l2.6,4.3h-5c-0.1,0-0.3,0-0.4,0.1l-5,4.3
				       c-0.2,0-0.3,0-0.5,0.1l-9.3-5.1l5.1-6.4l5.7-1.4c0.1,0,0.2-0.1,0.2-0.1L96,40.1z"/>
  <path id="divi-08832" class="st0" d="M68.9,48.3l10.1,0.3l-0.7,9.2l-3.2,4.4h0c-0.2,0-0.4,0.1-0.4,0.3l-3.1,6.2h-0.2l-0.2-0.2
				       c-0.2-0.2-0.6-0.2-0.8,0l-0.8-0.1v-3.2c0-0.2-0.1-0.4-0.3-0.5l-6.5-3.6L60,58l5.1-1c0.2,0,0.4-0.2,0.4-0.4l2.4-7.3L68.9,48.3z"/>
  <path id="divi-08296" class="st0" d="M79.9,50.9l0.2,0.6c0.1,0.2,0.2,0.3,0.4,0.4s0.4,0,0.5-0.1l7.6,4.2l-1.4,4.5L82.6,63
				       c-0.1,0-0.2,0.1-0.2,0.2l-6.2-0.5l3.1-4.3c0.1-0.1,0.1-0.2,0.1-0.3L79.9,50.9z"/>
  <path id="divi-08758" class="st0" d="M97,52.7h5.5l0,0.1l2.8,4.9l-0.6,1.8l-7.5-1.3c-0.2,0-0.3,0-0.5,0.1l-2.8,2.5l-1.9-3.8L97,52.7
				       z"/>
  <path id="divi-08433" class="st0" d="M89.6,56.6l1.5,0.8c0,0,0.1,0,0.1,0.1l2.2,4.5c0.1,0.2,0.2,0.3,0.4,0.3c0.2,0,0.3,0,0.5-0.1
				       l3.1-2.8l7,1.2l-1.8,5.3c0,0.1-0.1,0.2,0,0.3l0.7,3.1L99,67c-0.1-0.1-0.3-0.1-0.4-0.1L92,68.4h0l-7.8-0.3v-0.6
				       c0-0.2-0.1-0.3-0.2-0.4l-0.4-2.8c0.2-0.1,0.3-0.4,0.2-0.7l4.1-2.2c0.1-0.1,0.2-0.2,0.3-0.3L89.6,56.6z"/>
  <path id="divi-08372" class="st0" d="M58.7,58.2l3.2,3.8c0,0.1,0.1,0.1,0.2,0.1l6.3,3.5V69c0,0.3,0.2,0.5,0.5,0.6l2,0.2l0.5,0.4
				       l-3.5,1c-0.1,0-0.1,0.1-0.2,0.1l-3.1,2.3L57.3,72l-3.6-0.8l-1.5-2.8c-0.1-0.2-0.3-0.3-0.5-0.3L44,68.4l6-2.6c0.1,0,0.1-0.1,0.2-0.1
				       l7.8-7.3L58.7,58.2z"/>
  <path id="divi-08078" class="st0" d="M75.3,63.7l7.1,0.7l0.6,4.1v4L80.2,76c-0.1,0.2-0.2,0.4-0.1,0.6l1.1,2.9
				       c0.1,0.1,0.2,0.2,0.3,0.3L82,80l-3.5,3.2L76.2,80l2.4-4.4c0.1-0.2,0.1-0.5-0.2-0.7l-6.1-5.2L75.3,63.7z"/>
  <path id="divi-08634" class="st0" d="M98.6,68.1l5,2.7l0.4,1.9l-4.3,0.9L98,73.9L93.7,72c0-0.1,0-0.1,0-0.2l-0.6-2.5L98.6,68.1z"/>
  <path id="divi-08558" class="st0" d="M84.2,69.2l7.8,0.3l0.5,1.9l-0.2-0.1c-0.2-0.1-0.5,0-0.7,0.1c-0.2,0.2-0.2,0.4-0.1,0.7l-2,1.1
				       c-0.2,0.1-0.3,0.3-0.3,0.5v4.9l-2.1,2.4l-4.9-2.3l-0.9-2.4l2.7-3.4c0.1-0.1,0.1-0.2,0.1-0.3V69.2z"/>
  <path id="divi-08549" class="st0" d="M51.4,69.3l1.5,2.7c0.1,0.1,0.2,0.2,0.4,0.3l3.8,0.8l4.2,0.9c0,0.1,0.1,0.1,0.1,0.2l2.5,3.7
				       l-3.8,3.5c-0.2,0.2-0.2,0.6,0,0.8l0.4,0.5l-8.3,0.8c-0.1,0-0.2,0.1-0.3,0.1l-1.4,1.2l-1.8-0.4l0,0l-1.6-1.1
				       c-0.1-0.1-0.2-0.1-0.3-0.1h-3.3c-0.2,0-0.4,0.1-0.5,0.2l-1.4,2l-2.1-3.8c-0.1-0.3-0.5-0.4-0.8-0.2l-2.2,1c0-0.1-0.1-0.3-0.2-0.3
				       l-2.8-2.8l2.3-5.2l2.7-3.1l1.6,0.7c0.2,0.1,0.4,0.1,0.6-0.1l2.9-2.1L51.4,69.3z"/>
  <path id="divi-08849" class="st0" d="M72.4,71.2l5,4.2L75,79.7c-0.1,0.2-0.1,0.4,0,0.6l1.3,1.8l-3.8,1.6l-1.4-2.1
				       c-0.1-0.1-0.2-0.2-0.4-0.2l-5.5-0.8c-0.1,0-0.3,0-0.4,0.1l-3.1,1.9L61.3,82l3.8-3.5c0.2-0.2,0.3-0.5,0.1-0.8l-2.2-3.3l1.6,0.4
				       c0.2,0,0.3,0,0.5-0.1l3.2-2.4l4-1.1C72.3,71.2,72.4,71.2,72.4,71.2z"/>
  <path id="divi-08685" class="st0" d="M92.7,72.8l5,2.2c0.1,0.1,0.2,0.1,0.3,0.1l1-0.2l-0.2,1.2l-2.4,2.4l-0.1,0.1l-7.2,5.1l-1.3-1.6
				       l2.4-2.8c0.1-0.1,0.1-0.2,0.1-0.4v-4.8L92.7,72.8z"/>
  <path id="divi-08520" class="st0" d="M104.2,73.8L105,77c-0.1,0.1-0.2,0.3-0.2,0.4l-0.4,10.8l-6.8,0.3v0l-3.4-0.3l-4.1-3.8l7.1-5.1
				       c0,0,0,0,0.1-0.1l2.6-2.6c0.1-0.1,0.2-0.2,0.2-0.3l0.3-1.8L104.2,73.8z"/>
  <path id="divi-08638" class="st0" d="M83.2,80.6l1,0.5l1.4,10.5c0,0.1,0.1,0.2,0.2,0.3l2,2l-0.3,3.3c-0.1,0-0.2,0.1-0.2,0.2
				       l-4.2,3.8l-2.9-1.3c-0.2-0.1-0.5-0.1-0.6,0.1l-2.3,2h-3.5c-0.2,0-0.4,0.1-0.5,0.2l-2.1,3l-1.4-1.7c-0.2-0.2-0.4-0.2-0.7-0.1
				       l-2.5,1.1c-0.1,0-0.2,0.1-0.3,0.2l-0.6-5.8c0-0.1,0-0.2-0.1-0.3l-3.3-4.8l-1-4.3l0.5-5.5c0,0,0,0,0,0l3.4-2.1l5,0.8l1.5,2.2
				       c0.1,0.2,0.4,0.3,0.7,0.2l4.5-1.8l0.9,1.3c0.1,0.1,0.2,0.2,0.4,0.3c0.2,0,0.3,0,0.5-0.2L83.2,80.6z"/>
  <path id="divi-08560" class="st0" d="M85.4,81.6l1,0.5c0,0.1,0.1,0.1,0.1,0.2l2.1,2.5h0c0,0,0,0,0,0v0c0,0,0,0,0,0c0,0,0,0,0,0
				       c0,0,0,0,0.1,0.1l4.7,4.3c0.1,0.1,0.2,0.1,0.3,0.1l3.7,0.4c0,0,0.1,0,0.1,0l6.7-0.3l-0.2,5.8c0,0.1-0.1,0.2-0.1,0.2l-0.3,6.5
				       l-2.9-1.2c-0.2-0.1-0.5,0-0.6,0.1l-4.3,4.3l-3.2,1l-0.4-0.3c-0.1-0.1-0.2-0.2-0.3-0.3l-1.9-2l-1.4-6l0.4-3.9c0-0.2,0-0.3-0.2-0.5
				       l-2.1-2.1L85.4,81.6z"/>
  <path id="divi-08421" class="st0" d="M38.8,82.7l2.2,4.2c0.1,0.2,0.3,0.3,0.5,0.3c0.2,0,0.4-0.1,0.5-0.3l1.7-2.5h2.9l1.5,1
				       c0,0,0.1,0.1,0.2,0.1l2.2,0.5c0.2,0,0.4,0,0.5-0.1l1.5-1.2l8.2-0.8l-0.5,5.4c0,0.1,0,0.1,0,0.2l0.8,3.6L59,94.3l-5.9-0.3
				       c-0.2,0-0.3,0-0.4,0.2l-2.9,2.6l-6.7,0.3c-0.3,0-0.6,0.3-0.6,0.6v3.9l-2.9-2.9c-0.1-0.1-0.3-0.2-0.5-0.2l-5.1,0.8v-2.3v-0.1l1-3.4
				       l3-0.7c0.3-0.1,0.5-0.3,0.4-0.6L38.2,88c0-0.1,0-0.1,0-0.2l-1.5-4.2L38.8,82.7z"/>
  <path id="divi-08606" class="st0" d="M61.4,94.3c0.1,0.1,0.2,0.2,0.3,0.3h0l3,4.3l0.8,8.3l-0.2,0.6l-3.2,2.9
				       c-0.1,0.1-0.2,0.3-0.2,0.4v4.1l-3.1,2.3c-0.1,0-0.1,0.1-0.1,0.2l-6.9-0.2c0-0.2-0.1-0.4-0.3-0.5l-0.8-2.4c0-0.1-0.1-0.1-0.1-0.2
				       l-4.1-4.4c-0.1-0.1-0.1-0.1-0.2-0.1l-6.8-2.4l-2.8-3.4l0-0.1l0,0l-2-3.6l4.7-0.7l3.7,3.7c0.2,0.2,0.4,0.2,0.6,0.1
				       c0.2-0.1,0.4-0.3,0.4-0.6v-4.7l6.3-0.2c0.1,0,0.2-0.1,0.3-0.2l2.8-2.6l5.8,0.3c0.1,0,0.2,0,0.3-0.1L61.4,94.3z"/>
  <path id="divi-08141" class="st0" d="M87.6,98.5l1.3,5.5c0,0.1,0.1,0.2,0.2,0.3l1.9,1.9l-2.4,5.8l-2.4,3.1l-5.8,2.1l-1.8-0.9
				       l-0.9-1.8l1.3-3v0l0,0l1.8-2.9c0.1-0.2,0.1-0.4,0-0.6l-2.7-5.5l2-1.7l3,1.3c0.2,0.1,0.4,0,0.6-0.1L87.6,98.5z"/>
  <path id="divi-08436" class="st0" d="M74,102.9H77l2.7,5.4L78,111c0,0,0,0-0.1,0.1l-1.5,3.3c-0.1,0.2,0,0.3,0,0.5l0.9,1.8l-4.2,1.4
				       c-0.2,0-0.3,0.2-0.4,0.3c-0.1,0.2-0.1,0.4,0,0.5h-0.1l-0.1,0.7l-3.5-0.5c-0.2,0-0.4,0-0.5,0.2l-2.7,3.2l-5.8-4.5l2.7-2
				       c0.1-0.1,0.2-0.3,0.2-0.4v-4.2l3.1-2.9c0.1-0.1,0.1-0.2,0.2-0.2l0.2-0.6c0,0,0.1-0.1,0.1-0.2l0-0.1c0,0,0-0.1,0-0.1l0.7-2l1.9-0.8
				       l1.7,1.9c0.1,0.1,0.3,0.2,0.5,0.2c0.2,0,0.3-0.1,0.4-0.3L74,102.9z"/>
  <path id="divi-08137" class="st0" d="M91.9,107.1l0.1,0.1c0.1,0.2,0.4,0.2,0.6,0.2l0.3-0.1l-0.6,5.6c-0.2,0.1-0.3,0.2-0.4,0.3
				       l-3.4,8.9c-0.2,0.1-0.3,0.2-0.3,0.4l-0.1,0.6l-0.6,1.5c0,0.1-0.1,0.2,0,0.3c0,0,0,0,0,0l-2.3,2.6h0c0,0-0.1,0-0.1,0h0l-2.1-2.4
				       c-0.2-0.2-0.5-0.2-0.7-0.1l-3.2,1.8H79c0,0-0.1,0-0.1,0h0l-0.5-2.2c0-0.1-0.1-0.2-0.2-0.3l-4.4-3.4l0.2-1.9h-0.1l4.1-1.4
				       c0.1,0,0.2-0.1,0.3-0.2l1.8,0.9c0.1,0.1,0.3,0.1,0.4,0l6.2-2.2c0.1,0,0.2-0.1,0.2-0.2l2.6-3.3c0,0,0-0.1,0.1-0.1L91.9,107.1z"/>
  <path id="divi-08675" class="st0" d="M69.3,120.3l3.2,0.5v0.1c-0.1,0.2-0.1,0.4-0.1,0.6c0,0,0,0,0,0l-0.1,0.4l0.7,0.1l4.2,3.3
				       l0.7,2.7c0,0,0,0,0,0.1l-1.7,2.8l-1.4-2c0,0-0.1-0.1-0.1-0.1l-7.4-5.8L69.3,120.3z"/>
  <path id="divi-08770" class="st0" d="M82.4,126.3l2,2.2l-3,7.7l-4.8-3.9c0.1-0.1,0.1-0.1,0.2-0.2l2.6-4.2L82.4,126.3z"/>
</svg>
