<?xml version="1.0" encoding="utf-8"?>
<!-- Generator: Adobe Illustrator 20.1.0, SVG Export Plug-In . SVG Version: 6.00 Build 0)  -->
<svg version="1.1"
	 id="nariño" inkscape:output_extension="org.inkscape.output.svg.inkscape" inkscape:version="0.46" sodipodi:docname="departamentos_colombia_plain.svg" sodipodi:version="0.32" xmlns:cc="http://creativecommons.org/ns#" xmlns:dc="http://purl.org/dc/elements/1.1/" xmlns:inkscape="http://www.inkscape.org/namespaces/inkscape" xmlns:rdf="http://www.w3.org/1999/02/22-rdf-syntax-ns#" xmlns:sodipodi="http://sodipodi.sourceforge.net/DTD/sodipodi-0.dtd" xmlns:svg="http://www.w3.org/2000/svg"
	 xmlns="http://www.w3.org/2000/svg" xmlns:xlink="http://www.w3.org/1999/xlink" x="0px" y="0px" viewBox="0 0 350 384"
	 style="enable-background:new 0 0 350 384;" xml:space="preserve">
<path id="divi-52696" class="st0" d="M156,54.7l0.4,0.2l5.9,11.8l0.1,0.1L185,95.1l0,0l7.7,9.5l1.4,4.9c0,0.1,0.1,0.3,0.3,0.3
	l8.9,4.8l2.3,1.8l-1.1,4.1v0.1l-0.3,5.7c0,0.1,0,0.2,0.1,0.3l1.3,2l-2.7,3.2c0,0-0.1,0.1-0.1,0.2l-2.4,6.3c0,0.1,0,0.2,0,0.2
	l0.6,6.2c0,0,0,0,0,0.1l0.6,3.2l-6.2-5c-0.1,0-0.1-0.1-0.2-0.1l-9.1-3l-4.1-4.6l-7.9-8.2l-1.5-5.8c0,0,0-0.1-0.1-0.1l-5.7-10.1l0,0
	l-5.1-8.6c0-0.1-0.1-0.1-0.1-0.2L150.5,93l0.8-5l0,0l0.6-4.2c0-0.3-0.1-0.5-0.4-0.6l-4.6-1.8l1.5-1.8c0.1-0.1,0.1-0.3,0.1-0.4
	s-0.1-0.3-0.2-0.4l-2.6-2.1l2.2-4.3c0.1-0.2,0.1-0.3,0-0.5l-1.1-2.3l0,0L156,54.7z"/>
<path id="divi-52490" class="st0" d="M106.8,65.6l11.9,4.6c0.1,0,0.1,0,0.2,0l0,0l2.7,3.8c0,0,0,0,0.1,0.1l3.5,3.8l0.1,0.1l2.4,4
	l-5.3,5.6c-0.1,0.1-0.1,0.2-0.2,0.3l-0.6,4.5c0,0.1,0,0.3,0.1,0.4l3.5,6.1v11.2l-0.9,3.8c0,0.1,0,0.2,0,0.2l1.5,6.2l0.9,8.3v0.1v9
	l-3.8-0.4c-0.2,0-0.5,0.1-0.6,0.3l-1.1,2l-3.9-4.2l0,0l-2.9-7L112,123c0,0,0,0,0-0.1l-3.6-6.2c0-0.1-0.1-0.2-0.2-0.2l-3.8-2.1
	l1.3-3.1c0.1-0.1,0.1-0.3,0-0.4l-1.2-3.3c0.1-0.2,0.1-0.3,0.1-0.5c-0.1-0.2-0.2-0.3-0.4-0.4l0,0l-0.1-0.3l7-10.8
	c0.1-0.1,0.1-0.2,0.1-0.2l0.3-4.1l2.3-6.5c0.1-0.1,0.1-0.3,0-0.4L109.3,74l0,0l-2.8-7.8L106.8,65.6z"/>
<path id="divi-52473" class="st0" d="M105.3,66.7l2.7,7.4l0,0l4.4,10.2l-2.3,6.3c0,0,0,0.1-0.1,0.2l-0.3,4l-7.1,10.9
	c-0.1,0.1-0.1,0.2-0.1,0.3l-5.9-1.7l-0.3-0.2c-0.2-0.1-0.3-0.2-0.5-0.1l-2.3-1.2c-0.2-0.1-0.4-0.1-0.5,0l-3.2,1.8l-1-3.8
	c0-0.1-0.1-0.2-0.2-0.2l-3.3-3.4l-0.6-5.4l0,0l-0.4-8.1L105.3,66.7z"/>
<path id="divi-52390" class="st0" d="M128.9,68.5L128.9,68.5l0.8,0.1l1.6,6v13.1c0,0.1,0,0.1,0,0.2l1.2,4.8c0,0.1,0,0.2,0.1,0.2
	l2.8,3.6l-3.1,5.6c-0.1,0.1-0.1,0.3-0.1,0.4l2.1,9.2l0,0l-0.3,9.9v0.1l-0.7,4l-1.3,3.2c0,0.1-0.1,0.1-0.1,0.2v3.5v0.1l-0.2,4
	l-3.5,1.2c-0.1-0.1-0.2-0.2-0.4-0.2h-0.1v-9.2c0,0,0,0,0-0.1l-0.9-8.3c0,0,0,0,0-0.1l-1.4-6.1l0.8-3.8V110V98.7c0-0.1,0-0.2-0.1-0.3
	l-3.5-6.1l0.5-4.1l5.6-5.8c0.2-0.2,0.2-0.5,0.1-0.7l-2.7-4.5c0,0,0-0.1-0.1-0.1l-3.5-3.8v-0.1l-2.3-3.2L128.9,68.5z"/>
<path id="divi-52250" class="st0" d="M130.9,68.7l15,1.1l1.1,2.4l-2.2,4.5c-0.1,0.2,0,0.5,0.2,0.7l2.5,2l-1.7,1.9
	c-0.1,0.1-0.2,0.3-0.1,0.5c0.1,0.2,0.2,0.3,0.4,0.4l5,1.9l-0.6,3.7l-0.9,5.3c0,0.2,0,0.4,0.2,0.5L161,103l0,0l5,8.6l5.7,10.1
	l1.4,5.8c0,0.1,0.1,0.2,0.2,0.2l8,8.3l4.2,4.8c0.1,0.1,0.2,0.1,0.2,0.2l9.1,3l7.4,5.9c0.2,0.2,0.5,0.2,0.7,0.1
	c0.2-0.1,0.3-0.4,0.3-0.6l-0.9-4.7v-0.1l-0.6-6.1l2.3-6l2.9-3.5c0.1-0.2,0.2-0.5,0-0.7l-1.4-2.2l0.3-5.4l0,0l1-3.5l2.8,2.2
	c0.1,0.1,0.3,0.1,0.4,0.1l14.6-2.1c0,0,0.1,0,0.1-0.1l7.3-2.9l7.1,1.4l0,0c0,0.1,0,0.2,0.1,0.3l3.2,6.7l-1,3.8
	c-0.2-0.2-0.5-0.3-0.7-0.1c-0.2,0.1-0.3,0.4-0.2,0.7l1.9,4.1l0,0c-0.1,0.1-0.2,0.2-0.2,0.4l-0.6,5.1c0,0.3,0.1,0.5,0.3,0.6l3.6,1.7
	l1.2,4l-3.9,1l-4.9,1.2l-3-0.8c0,0,0,0,0-0.1l-1.8-3.6c-0.1-0.2-0.3-0.3-0.5-0.3h-4.1h-0.2l-3.7-1.2c-0.2-0.1-0.5,0-0.6,0.2
	l-2.6,3.5l-6.2,3.5c-0.2,0.1-0.3,0.3-0.3,0.6l0.5,4.8l-6.5,0.3h-0.1l-3.8,0.9l-5.7,0.6c-0.2,0-0.3,0.1-0.4,0.3
	c-0.1,0.1-0.1,0.3-0.1,0.5l-1.5,0.7c-0.2,0-0.4,0.1-0.5,0.2l0,0l-2,0.9l-8.2-1.8c-0.1,0-0.1,0-0.2,0l-6.7,1.4l-2.2-5.2
	c0,0,0-0.1-0.1-0.1l-2.8-4l-0.3-8.2c0-0.3-0.2-0.5-0.5-0.6l-7.2-1.1v-4.2c0-0.2-0.2-0.4-0.4-0.5s-0.5,0-0.6,0.2l-4.7,5.2l-3.7-2.9
	c-0.1,0-0.1-0.1-0.2-0.1l-7.2-2.4c-0.1,0-0.2,0-0.3,0l-4.7,0.9l0,0l-2.7,0.3l-7.9-6.5l0.1-0.5l0.1-0.2c0.1-0.1,0.1-0.3,0-0.4l0,0
	l0.6-3.6v-0.1l0.3-10.1v-0.1l-2-9l3.2-5.8c0.1-0.2,0.1-0.4,0-0.6l-2.9-3.8l-1.2-4.5V74.5c0-0.1,0-0.1,0-0.2L130.9,68.7z"/>
<path id="divi-52520" class="st0" d="M91.2,105.2l-0.7,4.5l-5.9,3.4l2.4,2.8l-7.4,1.6l-1.5-1.1l-1.5,0.8l2.1,3.2l-3.2,0.1l-3.1,11.8
	v0.1l-1,8.1l6-3.8c0.1-0.1,0.3-0.1,0.5-0.1s0.3,0.2,0.3,0.3l4.1,8.3c0.1,0.1,0.1,0.3,0,0.4l-1.8,7.2l2.9,0.8c0-0.3,0.2-0.5,0.5-0.5
	l1.7-0.2l1.7-1v-6.5c0-0.1,0-0.1,0-0.2l1.4-4.3v-0.1c0-0.1,0-0.2,0.1-0.2l0,0L89,140v-0.1l0.9-5.6l0,0l1.5-8v-0.1l2.7-6.5
	c0-0.1,0.1-0.1,0.1-0.2l5.2-6.1l-0.3-5.2l-3.2-2.7c0,0-0.1,0-0.1-0.1l-2.7-1.3L91.2,105.2z"/>
<path id="divi-52835" class="st0" d="M81.6,85.3L73,103.4l0,0l-7.2,12.2l7.9,3.5c0.3,0.1,0.4,0.4,0.3,0.7v0.1l3.2-0.1l-2.1-3.2
	l1.5-0.8l1.5,1.1l7.4-1.6l-2.4-2.8l5.9-3.4l0.7-4.5l-1.4,0.8c-0.2,0.1-0.3,0.1-0.5,0s-0.3-0.2-0.3-0.4l-1.2-4.3l-3.4-3.4
	c-0.1-0.1-0.2-0.2-0.2-0.3l-0.6-5.7l0,0L81.6,85.3z"/>
<path id="divi-52621" class="st0" d="M98.9,106.2l4.2,1.2l1.3,3.5l-1.4,3.3c-0.1,0.3,0,0.6,0.2,0.7l4.1,2.3l3.4,6.1v0.1l2.3,5.3
	l3,7.1c0,0.1,0.1,0.1,0.1,0.2l3.8,4l1.2,5.1l-1.2,4.7c0,0.1,0,0.1,0,0.2l1.2,9.7v0.1l-0.3,10c0,0.2,0.1,0.4,0.2,0.5l4.8,3.6
	c0.2,0.1,0.4,0.2,0.6,0.1l0.1,0.9l-0.9,4.1c0,0.1,0,0.2,0,0.3l1.1,3l-4.3,5.1c-0.2-0.2-0.4-0.2-0.6-0.1s-0.4,0.3-0.4,0.5l-0.1,0.5
	l-3.2,1.8c-0.2,0.1-0.3,0.2-0.3,0.4l-0.6,3.3l-2.1,1.9l-2-2c-0.1-0.1-0.2-0.1-0.3-0.2l-3.9-0.6c-0.1,0-0.2,0-0.3,0.1l-1.9,1.1
	l-3.3-0.6h-0.1l-4.1-2.1l2.4-5.1v-0.1l1.5-5.1c0-0.1,0-0.3,0-0.4l-2.3-5.5v-6.8c0-0.2-0.1-0.3-0.2-0.4c-0.1-0.1-0.3-0.2-0.4-0.1
	l-4.6,0.3l-3.6-1.8l0.6-1.3l4.8-1.1c0.1,0,0.2-0.1,0.3-0.2l1.8-1.8c0.1-0.1,0.2-0.3,0.2-0.5l-0.9-6.6v-0.1l-3.6-8.9
	c0-0.1-0.1-0.2-0.1-0.2l-4.8-4.8l0.2-0.5v-0.1l0.9-5.7l1.5-7.9v-0.1l0,0l2.6-6.3l5.3-6.2c0.1-0.1,0.2-0.3,0.2-0.4l-0.3-5.7
	c0-0.2-0.1-0.3-0.2-0.4L98.9,106.2z"/>
<path id="divi-52427" class="st0" d="M133.7,127.5l7.9,6.5c0.1,0.1,0.3,0.1,0.4,0.1l3-0.3l0,0l4.7-0.9l6.9,2.3l4.1,3.2
	c0.2,0.2,0.6,0.1,0.8-0.1l4.1-4.5v3.2c0,0.3,0.2,0.6,0.5,0.6l7.3,1.1l0.3,7.8c0,0.1,0,0.2,0.1,0.3l3,4.2l0,0l2.3,5.5
	c0.1,0.2,0.4,0.4,0.6,0.3l7-1.5l8.2,1.8c0.1,0,0.2,0,0.3-0.1l1.6-0.7v1.6l-1.4,2.2l0,0l-1.3,2.4l0,0c-0.2,0-0.3,0.1-0.4,0.2
	c-0.1,0.1-0.1,0.3-0.1,0.5l-3.7,0.8l0,0l-8.8-0.3c-0.1,0-0.2,0-0.3,0.1l-3.4,1.7l0,0l-5.9,0.9h-0.1l-4.8,1.8c-0.1,0-0.1,0.1-0.2,0.1
	l-4.7,4.4l-4.3,1.5h-0.1l-2.8,1.4l-7.2,0.3h-0.1l-7.9-1.2l0,0l-6.7-1.5l-2.9-2.3c-0.2-0.2-0.4-0.2-0.7-0.1l-1.7,1
	c-0.2-0.2-0.4-0.2-0.7-0.1s-0.4,0.3-0.3,0.6v0.1l-4.2-3.2l0.3-9.8c0,0,0,0,0-0.1l-1.2-9.8l1.2-4.6c0-0.1,0-0.2,0-0.2l-0.9-4.1
	c0.1,0,0.2-0.1,0.3-0.2l1.3-2.3l3.6,0.4v0.2c0,0.2,0.1,0.3,0.2,0.5c0.1,0.1,0.3,0.1,0.5,0.1l5.1-1.8c0.2-0.1,0.4-0.3,0.4-0.5
	l0.3-4.5l0,0v-3.3L133.7,127.5z"/>
<path id="divi-52405" class="st0" d="M243.1,132.9l0.5,1.1c0,0.1,0.1,0.2,0.2,0.2l7.1,4.5l0,0l7.1,5.1c0,0,0.1,0,0.2,0.1l2.8,0.9
	l-0.2,0.3c-0.1,0.1-0.1,0.3-0.1,0.5l-2.3,3.7l0,0l-5,6.5l0,0l-3.9,5.2c-0.1-0.1-0.3-0.2-0.5-0.1l0,0l-4-1.4l-5.3-5.3
	c-0.1-0.1-0.2-0.2-0.4-0.2l-5.8-0.3l-3.3-2.2l-1.2-2.2l5.3-4l3.3,0.8c0.1,0,0.2,0,0.2,0l5.1-1.2l0,0l4.5-1.2c0.2,0,0.3-0.1,0.4-0.3
	c0.1-0.1,0.1-0.3,0.1-0.4l-1.5-4.8c0-0.2-0.2-0.3-0.3-0.4l-3.5-1.6L243.1,132.9z"/>
<path id="divi-52256" class="st0" d="M224.7,140.4l3.5,1.1c0.1,0,0.1,0,0.2,0h3.8l1.5,3.1l-5.7,4.2c-0.2,0.2-0.3,0.5-0.2,0.7
	l1.5,2.7c0,0.1,0.1,0.1,0.2,0.2l3.6,2.4c0.1,0.1,0.2,0.1,0.3,0.1l5.8,0.3l5.2,5.2c0.1,0.1,0.1,0.1,0.2,0.2l4.1,1.4l0.2,7.7l-2,4l0,0
	l-2.2,4.7l-1-0.2c-0.3-0.1-0.5,0-0.7,0.3l-1.7-0.6c-0.1,0-0.3,0-0.4,0l-2.6,0.9h-2.8l0.5-3.5v-0.1l-0.3-6.2c0-0.1,0-0.2-0.1-0.2
	l-2.3-4.6l0,0l-2.1-4.7c-0.1-0.2-0.2-0.3-0.3-0.3c-0.2-0.1-0.3,0-0.5,0l-6.1,3.8h-4.6l-2.2-3.3c-0.1-0.1-0.2-0.2-0.4-0.2l-2.8-0.3
	l-2.8-3.7c-0.2-0.3-0.5-0.3-0.8-0.2l-3,1.9l-6.2-2.9l3.6-0.4h0.1l3.8-0.9l7.2-0.3c0.2,0,0.3-0.1,0.4-0.2c0.1-0.1,0.1-0.3,0.1-0.4
	l-0.6-5l5.9-3.4c0.1,0,0.1-0.1,0.2-0.2L224.7,140.4z"/>
<path id="divi-52835_1_" class="st0" d="M89.8,142l4.3,4.3l3.5,8.7v0.1l0.8,6.1l-1.5,1.5l-4.9,1.2c-0.2,0-0.3,0.2-0.4,0.3l-0.9,2.1
	c-0.1,0.3,0,0.6,0.3,0.8l4.2,2.1c0.1,0,0.2,0.1,0.3,0.1l4.2-0.2v6.2c0,0.1,0,0.1,0,0.2l2.3,5.4l-1.4,4.8v0.1l-2.7,5.6
	c-0.1,0.3,0,0.6,0.3,0.8l4.8,2.4c0.1,0,0.1,0,0.2,0l3.6,0.6c0.1,0,0.3,0,0.4-0.1l1.9-1.1l3.5,0.5l2.2,2.2c0.2,0.2,0.6,0.2,0.8,0
	l2.7-2.4c0.1-0.1,0.2-0.2,0.2-0.3l0.6-3.3l2.3-1.2l-0.4,3.6v0.1l-2.3,6.2c0,0.1-0.1,0.1-0.1,0.2l-0.3,19.7l-6.8-5.3
	c-0.1-0.1-0.2-0.1-0.3-0.1l-7.4-0.6c-0.1,0-0.2,0-0.2,0l-10.1,3.6c-0.1,0-0.2,0.1-0.2,0.2l-3,3.3l-2.1,2.4c-0.1,0.1-0.1,0.2-0.1,0.4
	L87.8,239l-17.4-9.6l0,0h-0.1l-40.9-34.2l-3.8-8.8L47,164.9l24.9,1.1l0,0l10,2.9c0.2,0.1,0.4,0,0.5-0.1l4.7-4.1
	c0.1-0.1,0.2-0.3,0.2-0.5l-1.2-9.3c0-0.2-0.2-0.4-0.4-0.5l-0.3-0.1l0.8-0.1c0.1,0,0.1,0,0.2-0.1l2.1-1.2c0.2-0.1,0.3-0.3,0.3-0.5
	v-6.8L89.8,142z"/>
<path id="divi-52233" class="st0" d="M200.1,155l6.8,3.1c-0.1,0.1-0.2,0.3-0.2,0.4v5.7c0,0.1,0,0.1,0,0.2l2.4,5.4
	c0.1,0.2,0.2,0.3,0.4,0.3l10.1,2.6l1.4,5.3c0,0.1,0.1,0.3,0.3,0.3l5,2.8l-0.8,5.6c0,0.1,0,0.1,0,0.2l0.4,2.2l-0.2-0.1
	c-0.1,0-0.2-0.1-0.2-0.1h-6c-0.1,0-0.3,0-0.4,0.1l-3.2,2.7l-1-0.6l-2-4.9c0-0.1-0.1-0.1-0.1-0.2l-5.6-5.9l-3.2-4.8l1.4-5.1
	c0-0.2,0-0.4-0.1-0.5l-3.2-4.2c-0.1-0.1-0.2-0.2-0.3-0.2l-6.5-2.4l1.2-2.2l0,0l1.5-2.3c0.1-0.1,0.1-0.2,0.1-0.3v-2.2L200.1,155z"/>
<path id="divi-52540" class="st0" d="M210.9,156.6l2.7,3.4c0.1,0.1,0.2,0.2,0.4,0.2l2.7,0.3l2.2,3.3c0.1,0.2,0.3,0.2,0.5,0.2h5.1
	c0.1,0,0.2,0,0.3-0.1l5.7-3.5l1.8,4.2l0,0l2.3,4.4l0.3,6.1l-0.6,4.1c0,0.2,0,0.3,0.1,0.5c0.1,0.1,0.3,0.2,0.5,0.2h3.6
	c0.1,0,0.1,0,0.2,0l2.5-0.8l2.8,0.9l-6.8,8.1l-7.3,3l-2.8-1.4l-0.6-2.9l0.9-5.9c0-0.2-0.1-0.5-0.3-0.6l-5.1-2.9l-1.4-5.4
	c0-0.2-0.2-0.4-0.4-0.4L210,169l-2.2-5v-5.6l0,0c0.1,0,0.2,0,0.3-0.1L210.9,156.6z"/>
<path id="divi-52418" class="st0" d="M194.6,164.1l6.6,2.3l3,3.8l-1.4,5.1c0,0.2,0,0.3,0.1,0.5l3.3,5.1c0,0,0,0.1,0.1,0.1l5.5,5.8
	l0,0l2.1,5c0,0.1,0.1,0.2,0.2,0.3l1.5,0.9c0.2,0.1,0.5,0.1,0.7,0l3.4-2.8h5.6l0.9,0.4l0.2,0.9c0.1,0.3,0.4,0.5,0.7,0.5
	c0.3-0.1,0.5-0.4,0.5-0.7l1.5,0.7l0,0c0,0.3,0.3,0.5,0.6,0.5l-0.2,5.9l-0.7,1l-3.7,0.9c-0.2,0-0.3,0.2-0.4,0.3l-3.3,6.3l-3.3-1.8
	H218l-4.7-4.8l0.5-1.8c0-0.1,0-0.1,0-0.2l-0.6-4.8c0-0.2-0.2-0.4-0.5-0.5l-7.8-1.5c-0.2,0-0.4,0-0.5,0.2l-1.5,1.8
	c0,0-0.1,0.1-0.1,0.2l-0.9,2.1l-3.3-1.8l0,0l-3.8-2.4c0,0-0.1,0-0.1-0.1l-5.3-1.7l-0.5-2.7l2-3.1c0.1-0.2,0.1-0.4,0.1-0.5
	c-0.1-0.2-0.2-0.3-0.4-0.3l-5.4-1.2c-0.2,0-0.4,0-0.5,0.1l-3.6,3.3c0,0-0.1,0.1-0.1,0.2l-1.8,3.3l0,0c-0.2,0-0.5,0.1-0.6,0.3
	c-0.1,0.2-0.1,0.5,0.1,0.6l0,0l-0.9,1.5l-3.2,1.6c-0.1-0.3-0.5-0.4-0.8-0.3c-0.3,0.1-0.4,0.5-0.3,0.8l0,0h-0.1l-3.4-1.6l-1.7-3.4
	c-0.1-0.2-0.2-0.3-0.4-0.3l-4.6-1.1l-2.7-3.5l0.8-2.1l0,0l1.4,1.4c0.2,0.2,0.6,0.2,0.8,0l2.6-2.6l2.2-0.6c0.2-0.1,0.4-0.3,0.4-0.5
	l0.2-2.7l2.8-2.2c0.2-0.2,0.3-0.5,0.2-0.7l-1.5-2.7l4.3-1.8l4.6,1.2c0.3,0.1,0.5,0,0.7-0.3l1-1.8l4.5-0.6c0.1,0,0.3-0.1,0.3-0.2
	l1.8-2.1c0,0,0.1-0.1,0.1-0.2l2.1,0.1h0.1l4.2-0.9C194.4,164.4,194.5,164.3,194.6,164.1L194.6,164.1z"/>
<path id="divi-52079" class="st0" d="M181.1,165.1l5.2,0.2l-1.2,1.4l-4.5,0.6c-0.2,0-0.3,0.1-0.4,0.3l-1,1.7l-4.3-1.1
	c-0.1,0-0.3,0-0.4,0l-5.1,2.1c-0.1,0.1-0.3,0.2-0.3,0.3c-0.1,0.1,0,0.3,0,0.5l1.6,2.9l-2.6,2.1c-0.1,0.1-0.2,0.2-0.2,0.4l-0.3,2.6
	l-0.7,0.2c-0.1-0.2-0.2-0.3-0.4-0.3s-0.4,0-0.5,0.2l-0.4,0.5c-0.1,0.1-0.2,0.2-0.3,0.3l-2.2,2.1l-1.7-1.7c-0.2-0.2-0.6-0.3-0.8-0.1
	c-0.2,0.2-0.3,0.6-0.1,0.8c-0.2,0.1-0.3,0.2-0.4,0.3l-0.9,2.4c-0.1,0.2,0,0.4,0.1,0.5l3,3.9c0.1,0.1,0.2,0.2,0.3,0.2l4.5,1.1
	l1.7,3.3c0.1,0.1,0.2,0.2,0.3,0.2l3.9,1.8c0.2,0.1,0.3,0.1,0.5,0l0.2-0.1l0.8,2.3l-0.6,8.2l-0.2,1.1l-4.2,2.3
	c-0.1,0.1-0.2,0.1-0.2,0.2l-3.3,5.7c-0.1,0.2-0.1,0.4,0,0.6l1.8,2.8l-2.2,2l-3,1.1l-8.8-2.9c-0.2-0.1-0.4,0-0.5,0.1l-5.1,4.2
	c-0.1,0.1-0.2,0.3-0.2,0.4v5.2l-1.8,4.7c0,0.1,0,0.1,0,0.2l-0.3,6.7l-7,1.1c-0.3,0.1-0.5,0.3-0.5,0.6l0.5,5.6l-36.3,0.9l-1.3-1.1
	c0,0-0.1,0-0.1-0.1l-12.1-6.8l0,0c-0.1-0.1-0.3-0.2-0.4-0.2l0,0l0.2-16.2l2-2.2l2.9-3.2l9.8-3.5l7.2,0.6l7.6,5.8
	c0.2,0.1,0.4,0.2,0.6,0.1c0.2-0.1,0.3-0.3,0.3-0.5l0.3-20.7l2.3-6.2c0-0.1,0-0.1,0-0.2l0.5-4.6l0.1-0.1c0.1,0,0.1-0.1,0.2-0.1l5.1-6
	c0.1-0.2,0.2-0.4,0.1-0.6l-1.2-3.2l0.9-4c0-0.1,0-0.1,0-0.2l-0.2-1.5l1.7-1l2.7,2.1c0.1,0,0.1,0.1,0.2,0.1l6.8,1.5c0,0,0,0,0.1,0
	l8,1.2h0.1l7.5-0.3c0.1,0,0.2,0,0.2-0.1l2.9-1.4h0.1l4.4-1.5c0.1,0,0.2-0.1,0.2-0.1l4.7-4.4l4.6-1.8h0.1l5.8-0.8
	c0.1,0,0.1,0,0.2-0.1L181.1,165.1z"/>
<path id="divi-52693" class="st0" d="M289.6,175.8l6.9,5.8l0,0l3.3,2.3l-2,1.1l-3.9,0.3l-5.1-3.1c-0.1,0-0.1-0.1-0.2-0.1l-5.1-1.1
	l-2-2.7l1.1-0.8c0.2-0.1,0.3-0.3,0.2-0.5L289.6,175.8z"/>
<path id="divi-52399" class="st0" d="M280.6,178.9l0.4,0.6l-4.5,3.3c-0.1,0-0.1,0.1-0.2,0.2l-1.8,2.7c-0.1,0.2-0.1,0.5,0,0.7
	l2.7,3.6c0,0.1,0.1,0.1,0.2,0.2l0.6,0.3c0,0.1,0,0.1,0,0.2l1.1,3.6l-1.7,0.1l-1.6-2.9c-0.1-0.2-0.3-0.3-0.5-0.3s-0.4,0.1-0.5,0.2
	l-1.8,2.4c0,0,0,0.1-0.1,0.1l-0.8,1.8c-0.3-0.1-0.5,0-0.7,0.2l-1.2-0.4l-2.6-5.2c0-0.1-0.1-0.1-0.1-0.2l-6.2-5.3l-1.4-3l0.9-1.7
	l4.7,0.6c0.1,0,0.2,0,0.3,0l1.8-0.9c0.1,0,0.2,0.1,0.3,0.1l10.7,0.3c0.1,0,0.2,0,0.3-0.1L280.6,178.9z"/>
<path id="divi-52786" class="st0" d="M245.6,179.9l5,1.2l3.6,0.9h0.1h1l0.6,14l-6.2,3.7l-0.2-0.2c-0.2-0.2-0.5-0.2-0.7-0.1
	c-0.2,0.1-0.3,0.4-0.3,0.6l-1.2,0.3l-0.1-0.1c-0.1-0.3-0.5-0.4-0.8-0.3c-0.3,0.1-0.4,0.5-0.3,0.8l-1.2,0.3l-4.7-3.3l0.1-0.7
	c0.1-0.2,0-0.5-0.2-0.6c-0.2-0.1-0.4-0.2-0.6-0.1c-0.2,0.1-0.3,0.3-0.3,0.5v0.1l-0.9-0.7l-0.5-7.1l0.2-0.1c0.1,0,0.2-0.1,0.2-0.2
	L245.6,179.9C245.5,180,245.5,179.9,245.6,179.9L245.6,179.9z"/>
<path id="divi-52203" class="st0" d="M281.7,180.4L281.7,180.4l1,1.4c0.1,0.1,0.2,0.2,0.3,0.2l5.3,1.2l2.8,1.7l-1.7,2l-4.1,0.6
	l-3.4-1.2c-0.2-0.1-0.4,0-0.6,0.1c-0.2,0.2-0.2,0.4-0.1,0.6l1,3.1l-1.1,0.6l-2.9-1.6l-2.4-3.1l1.4-2.2l0,0L281.7,180.4z"/>
<path id="divi-52687" class="st0" d="M256.3,182h2.8l1.5,3.2c0,0.1,0.1,0.1,0.2,0.2l6.1,5.3l2.7,5.3c0.1,0.1,0.2,0.2,0.3,0.3
	l1.9,0.7l0.4,1.9l-2.3,0.8c-0.2,0.1-0.3,0.2-0.4,0.4l-0.9,3.8v0.1l-1.3,3.8l-4.6,0.5l-2.2-0.8c-0.1-0.2-0.2-0.3-0.3-0.3
	s-0.3,0-0.5,0l-2.4-0.8l-6.8-5.8l6.2-3.7c0.2-0.1,0.3-0.3,0.3-0.5L256.3,182z"/>
<path id="divi-52385" class="st0" d="M185,183.3l4.3,0.9l-1.6,2.6c-0.1,0.1-0.1,0.3-0.1,0.4l0.6,3.3c0,0.2,0.2,0.4,0.4,0.4l5.5,1.8
	l3.9,2.4l0,0l3.8,2.1c0.1,0.1,0.3,0.1,0.5,0c0.2-0.1,0.3-0.2,0.3-0.3l1.2-2.6l0,0l1.2-1.4l7,1.4l0.5,4.2l-0.6,2
	c-0.1,0.2,0,0.4,0.2,0.6l5.1,5.1l0.1,0.1l1.4,0.8l-1,2.6l-1.7,1.6c-0.1-0.2-0.3-0.4-0.5-0.4c-0.2,0-0.5,0.1-0.6,0.3l-4.2-4.7v-4.3
	c0-0.2-0.2-0.4-0.4-0.5l-5.7-2.1c-0.1,0-0.3,0-0.4,0l-4.8,2l-11.6-4.3l-4.7-6.4c-0.1-0.1-0.2-0.1-0.2-0.2l-2.9-1.1l1.7-3.1l0,0
	L185,183.3z"/>
<path id="divi-52378" class="st0" d="M300.9,184.7l1.6,1.1c0.3,0.2,0.6,0.1,0.8-0.1l0.6-0.8l1.2,0.8h0.1l5.4,4.2l-0.3,6.9l-5.7,4.1
	l-3.8-2.2c-0.1-0.1-0.2-0.1-0.2-0.1l-6.8-0.4l-5.7-4.3l1.5-2.2c0.1-0.1,0.1-0.2,0.1-0.4l-0.3-3.2l0.4-0.1c0.1,0,0.3-0.1,0.3-0.2
	l2-2.3l1.4,0.9c0.1,0.1,0.2,0.1,0.3,0.1l4.2-0.3c0.1,0,0.2,0,0.2-0.1L300.9,184.7z"/>
<path id="divi-52083" class="st0" d="M282.6,187.7l2.5,0.8c0.1,0,0.2,0,0.2,0l3-0.4l0.2,2.9l-1.3,2l0,0c-0.2-0.1-0.4,0-0.6,0.1
	c-0.2,0.1-0.2,0.3-0.2,0.5l-2.7,1.3l-2.2-0.8l0,0c-0.1-0.2-0.3-0.3-0.6-0.3h-0.2l-0.5-0.2l-0.8-2.7l1.3,0.7c0.2,0.1,0.4,0.1,0.5,0
	l1.8-0.9c0.2-0.1,0.4-0.4,0.3-0.7L282.6,187.7z"/>
<path id="divi-52254" class="st0" d="M236.5,189.7l0.5,7c0,0.2,0.1,0.3,0.2,0.4l1.6,1.2l-0.9,5.8l-2.5,2.8l-3.3,1.4l-5.4-0.7l0,0
	c0-0.1-0.1-0.2-0.2-0.2l0.7-4.1l1.9-2.8l0.7-0.2c0.2-0.1,0.4-0.3,0.4-0.5v-1l0.2-0.2c0.2-0.2,0.1-0.6-0.1-0.8l0.2-5.7L236.5,189.7z"
	/>
<path id="divi-52678" class="st0" d="M179.5,190.3l2.9,1.1l4.7,6.4c0.1,0.1,0.2,0.2,0.3,0.2l11.9,4.5c0.1,0,0.3,0,0.4,0l4.9-2
	l5.1,1.9v4c0,0.2,0.1,0.3,0.2,0.4l5.2,5.7l-0.2,5.5c0,0.2,0,0.3,0.2,0.4l3.2,3.5l-1.4,1.4c-0.2,0.2-0.2,0.6,0,0.8l2.7,3.2l-2.7,2.9
	c-0.1,0.1-0.2,0.2-0.2,0.4l-0.3,7.7v0.1l-1.1,3.6l-2-3.7l-0.3-7.9c0-0.2-0.1-0.3-0.2-0.4l-6.2-5.1c0,0-0.1-0.1-0.2-0.1l-7.3-3.2l0,0
	l-5.9-4.4c0,0-0.1,0-0.2-0.1l-5.7-1.8c-0.2-0.1-0.4,0-0.5,0.1s-0.2,0.3-0.2,0.5l-0.2,5.7l-6-5.2c-0.1-0.1-0.2-0.1-0.3-0.2l-5-0.6
	l-1.3-3.4l1.1-5l0.7-0.4c0.2-0.1,0.3-0.4,0.2-0.7s-0.3-0.4-0.6-0.4v-0.2c0,0,0,0,0-0.1l0.6-8.3c0-0.1,0-0.1,0-0.2l-0.9-2.6l3.6-1.8
	c0.1-0.1,0.2-0.1,0.2-0.2L179.5,190.3z"/>
<path id="divi-52694" class="st0" d="M275.3,192.7l1.3,2.5c0.1,0.2,0.3,0.3,0.6,0.3l3.4-0.2l1.8,0.7l-2.1,2.2
	c-0.1,0.1-0.2,0.2-0.2,0.3l-0.4,4c-0.3-0.1-0.5,0-0.7,0.2l-0.1,0.2l-1.8-0.6H277h-0.1l-3.5-2.4l1.1-0.4c0.2,0,0.4-0.2,0.4-0.4
	c0.1-0.2,0-0.4-0.2-0.6c-0.2-0.1-0.4-0.2-0.6-0.1l-1.1,0.3l-0.3-1.6l0,0c0,0,0,0,0-0.1l1.1-2.6l0.1-0.1l0,0L275.3,192.7z"/>
<path id="divi-52685" class="st0" d="M287.3,194.6l5.9,4.6c0.1,0.1,0.2,0.1,0.3,0.1l6.7,0.6l3.7,2.1l-0.1,0.1c-0.2,0-0.3,0-0.5,0.1
	c-0.1,0.1-0.2,0.2-0.3,0.4l-0.1,0.1l-6.7-1.2h-0.1h-7.6c-0.2,0-0.3,0.1-0.4,0.2l-1.5,1.5l-2.5-1.6l-2.8-2l0.1-0.8l2.4-2.4
	c0.1,0,0.2,0,0.3,0L287.3,194.6z"/>
<path id="divi-52260" class="st0" d="M239.9,199l4.5,3.2c0.1,0.1,0.3,0.1,0.5,0.1l1.6-0.5l1.2,2.4v0.1l1.4,5.8v3.8l-2.1,1.9h-0.1
	l-4.1,2.6l-0.1,0.1l-2.3,2.2l-4,0.5l-0.8-4.2c0-0.2-0.1-0.3-0.3-0.4l-3.3-1.8c-0.2-0.1-0.5-0.1-0.7,0.1l-3.6,3.1l-0.5-1.3v-1.3
	c0-0.2-0.1-0.4-0.3-0.5l-0.2-6.2l5.2,0.8c0.1,0,0.2,0,0.3,0l3.6-1.5c0.1,0,0.2-0.1,0.2-0.2l2.7-3c0.1-0.1,0.1-0.2,0.1-0.3L239.9,199
	z"/>
<path id="divi-52051" class="st0" d="M272.5,200L272.5,200c0,0.2,0.1,0.3,0.2,0.4l3.9,2.7c0,0,0.1,0,0.1,0.1l1.7,0.6l-1.3,2.1
	c-0.1,0.1-0.1,0.2-0.1,0.3v3.8c0,0,0,0,0,0.1l-4.2-2c0,0-0.1,0-0.2-0.1l-3.9-0.8l1-3c0,0,0,0,0-0.1l0.8-3.5L272.5,200z"/>
<path id="divi-52411" class="st0" d="M227.6,200.8l-1.2,1.8c0,0.1-0.1,0.1-0.1,0.2l-0.9,5.1c0,0.3,0.1,0.5,0.3,0.6l0.2,7.5
	c0,0.1,0,0.1,0.1,0.2l0.2,0.6v0.5l-2.3,5.8l-3.9,3.4l-2.3-2.7l1.4-1.4c0.2-0.2,0.2-0.6,0-0.8l-3.4-3.7l0.2-5.2l2.6-2.6
	c0.1-0.1,0.1-0.1,0.1-0.2l1-2.6l1.4,0.8c0.1,0.1,0.3,0.1,0.4,0c0.1,0,0.3-0.2,0.3-0.3l3.4-6.6L227.6,200.8z"/>
<path id="divi-52240" class="st0" d="M249.2,201l7.3,6.2c0.1,0,0.1,0.1,0.2,0.1l2,0.8l-1.9,1.9c-0.1,0.1-0.2,0.3-0.2,0.5l0.3,2.7
	c0,0.1,0,0.2,0.1,0.2l2.7,4.2l1.3,3.5l-2.8,4.8c0,0.1-0.1,0.2-0.1,0.3v2.7l-2.9-2.3c-0.1-0.1-0.1-0.1-0.2-0.1l-4.5-1.1l-0.2-0.7l0,0
	c0.1-0.1,0.1-0.3,0.1-0.5s-0.2-0.3-0.3-0.4l-0.7-2.1c0,0,0.1-0.1,0.1-0.2l0.6-1.5c0-0.1,0-0.2,0-0.2l-0.3-4.9l0.4-0.3
	c0.1-0.1,0.2-0.3,0.2-0.4V210c0-0.1,0-0.1,0-0.2l-1.5-5.9v-0.1l-1.2-2.4L249.2,201z"/>
<path id="divi-52019" class="st0" d="M281,201.3c0.2,0.1,0.5,0.1,0.7,0l0,0l1.7,1.2l0,0l2.3,1.5l0,0c-0.2,0.2-0.2,0.5,0,0.8l0,0
	l-3.2,3.6l-4.3,1.6l-0.1-0.2v-3.5l1.4-2.2l0.5,0.2c0.2,0.1,0.4,0,0.5,0c0.2-0.1,0.3-0.2,0.3-0.4L281,201.3z"/>
<path id="divi-52258" class="st0" d="M288.7,202.6h7.4h0.1l6.7,1.2c0.1,0,0.3,0,0.4-0.1l2.1,8.3c0,0,0,0,0,0.1l3.8,9.8l-4.1,4.7
	l-0.5-0.1c-0.2,0-0.4,0-0.5,0.2c-0.1,0.2-0.2,0.4-0.1,0.5l-6.2,3.8l-4.3,0.8l-0.5-0.4c-0.1-0.1-0.2-0.1-0.4-0.1l0,0l-5.3-5.7
	l0.2-1.8c0-0.1,0-0.2,0-0.3l-1.5-4.4c0-0.1-0.1-0.2-0.2-0.2l-3.9-3.6l-3.2-4.3l4.2-1.6c0.1,0,0.2-0.1,0.2-0.2l4.2-4.8
	c0.2-0.2,0.2-0.4,0.1-0.7L288.7,202.6z"/>
<path id="divi-52612" class="st0" d="M173.3,207.8l-0.9,4.2c0,0.1,0,0.2,0,0.3l1.5,3.9c0.1,0.2,0.3,0.3,0.5,0.4l2.3,0.2
	c-0.1,0.1-0.1,0.3-0.1,0.5l1.4,6.2l-1.3,3.8l-3.4,3.7l-4.6,3.8l-2.6,0.6c-0.2,0-0.3,0.1-0.4,0.3c-0.1,0.1-0.1,0.3-0.1,0.5l0.6,2.4
	c0,0.1,0,0.1,0.1,0.2l2.2,3.5l-2.4,2.7l0,0l-4.5,5.7c-0.1,0.1-0.2,0.3-0.1,0.5l0.9,5.3l0.5,4.2l-4.8,0.8H158l-9.8,0.6l-9.8,0.3
	c0,0,0,0-0.1,0l-8.4,1.1l-0.1-0.2c-0.1-0.2-0.3-0.3-0.4-0.3l-10.4-1.2l-15-12.7l35.6-0.8c0.2,0,0.3-0.1,0.4-0.2s0.2-0.3,0.1-0.4
	l-0.5-5.7l6.9-1.1c0.3-0.1,0.5-0.3,0.5-0.6l0.3-7.1l1.8-4.6c0-0.1,0-0.1,0-0.2v-5.1l4.6-3.8l8.7,2.9c0.1,0,0.3,0,0.4,0l3.3-1.2
	c0.1,0,0.1-0.1,0.2-0.1l2.7-2.4c0.2-0.2,0.3-0.5,0.1-0.8l-1.9-3l3-5.2L173.3,207.8z"/>
<path id="divi-52110" class="st0" d="M268.3,208.3l3.9,0.8l0,0l3.9,1.8c-0.1,0.2-0.1,0.5,0,0.7c0.1,0.2,0.4,0.3,0.6,0.2l0.7-0.2
	c0.1,0,0.2,0,0.3-0.1l0,0l3.4,4.6c0,0,0.1,0,0.1,0.1l3.8,3.5l1.4,4.2l-0.3,1.9c0,0.2,0,0.4,0.2,0.5l6,6.2l-5.4,2.3l0,0l-7.7,2.7l0,0
	c-0.1,0-0.2,0-0.3,0c0,0,0,0-0.1,0l-5.2,0.5l-7-4.1c0,0-0.1,0-0.2-0.1l-4.8-1.2l-1.3-3.3c-0.1-0.2-0.2-0.3-0.4-0.3
	c-0.2,0-0.3,0-0.5,0.1v-3l2.9-4.9c0.1-0.1,0.1-0.3,0.1-0.5l-1.5-3.9c0,0,0-0.1-0.1-0.1l-2.6-4.1l-0.2-2.2l2.1-2.1l2.5,0.9
	c0.1,0,0.2,0,0.2,0l5.1-0.6c0.2,0,0.4-0.2,0.5-0.4L268.3,208.3z"/>
<path id="divi-52381" class="st0" d="M248.7,215.9l0.2,3.9l-0.4,1l0,0c-0.1,0-0.1,0-0.2,0.1c0,0,0,0-0.1,0l-3.3,0.5
	c-0.1,0-0.2,0-0.2,0.1l-3.6,2.4c-0.1,0.1-0.2,0.2-0.2,0.4l-0.3,1.8c0,0.1,0,0.1,0,0.2l0.8,3.6l-1.8,2.5l-2.5-4.2l-0.1-0.1l-5.8-4.9
	l-1.5-5.2l2.2-1.9l2.7,1.5l0.8,4.5c0.1,0.3,0.3,0.5,0.6,0.4l4.8-0.6c0.1,0,0.2-0.1,0.3-0.2l2.3-2.3l0.1-0.1l4.1-2.6c0,0,0,0,0.1,0
	L248.7,215.9z"/>
<path id="divi-52699" class="st0" d="M187.5,216.5l4.9,1.6l5.9,4.4c0,0,0.1,0,0.1,0.1l7.4,3.3l0,0l2.6,2.1l-0.2,1.1l-3.5,2.9
	c-0.1,0.1-0.2,0.2-0.2,0.3l-1.2,4.2c0,0.1,0,0.1,0,0.2v8.7l-1.9,1.6l-0.1,0.1l-2.6,4l-2.3,0.6l0.2-4c0-0.2-0.1-0.5-0.3-0.6l-2.7-1.3
	l-0.6-4.5c0-0.1-0.1-0.3-0.2-0.4l-4.8-3.8l0,0l-5.4-4.8l0.2-4.5c0-0.2,0-0.3-0.2-0.4l-3.7-3.7l0.3-0.8c0.1-0.2,0-0.4-0.1-0.6
	c-0.1-0.2-0.3-0.2-0.5-0.2l-1.1-4.9v-0.1l1.9,0.2l6.7,5.8c0.2,0.2,0.4,0.2,0.6,0.1c0.2-0.1,0.3-0.3,0.4-0.5L187.5,216.5z"/>
<path id="divi-52683" class="st0" d="M227,218.7l0.2,0.6c0.1,0.2,0.2,0.3,0.4,0.3s0.4,0,0.5-0.1l0.7-0.6l1.3,4.8
	c0,0.1,0.1,0.2,0.2,0.3l5.9,5l2.6,4.2l-7.2-1l-7.2-0.7V231c0-0.2-0.1-0.5-0.3-0.6s-0.5-0.1-0.6,0c-0.2,0.1-0.3,0.4-0.2,0.6v0.4h-0.4
	l-0.5-5.2l0,0l2.5-2.2c0.1-0.1,0.1-0.1,0.2-0.2L227,218.7z"/>
<path id="divi-52480" class="st0" d="M248.2,222.1l0.8,2.3l-2,2.2c0,0.1-0.1,0.1-0.1,0.2l-1.4,3.5l-3.3,0.4l0.3-0.5
	c0.1-0.1,0.1-0.3,0.1-0.5l-0.8-3.8l0.2-1.4l3.2-2.2L248.2,222.1z"/>
<path id="divi-52435" class="st0" d="M178.7,224.7l3.1,3.1l-0.3,4.5c0,0.2,0.1,0.3,0.2,0.4l5.7,5.1l0,0l4.6,3.7l0.6,4.5
	c0,0.2,0.1,0.4,0.3,0.5l2.6,1.3l-0.2,3.9c-0.1,0-0.1,0.1-0.2,0.1l-5.1,5.1c-0.1,0.1-0.1,0.2-0.2,0.3l-0.6,3l0,0l-1.6,1.1l-0.1,0.1
	l-1.4,1.9c-0.1-0.1-0.3-0.1-0.4,0l-3.4-1.5c-0.2-0.1-0.5-0.1-0.6,0.1l-2.7,2.7l-0.1,0.1l-2.6,4.2L171,270l-5.5-1.6l1.1-3.9
	c0-0.2,0-0.3-0.1-0.5l-2.4-3.6c-0.1-0.1-0.2-0.2-0.3-0.2l-0.5-4.3l0,0l-0.9-5.1l4.3-5.4l0,0l2.7-2.9c0.2-0.2,0.2-0.5,0.1-0.7
	l-2.3-3.8l-0.4-1.7l2.1-0.5c0.1,0,0.2-0.1,0.2-0.1l4.8-3.9c0,0,0,0,0.1,0l3.6-3.9c0.1-0.1,0.1-0.1,0.1-0.2L178.7,224.7z"/>
<path id="divi-52001" class="st0" d="M249.4,225.7l0.1,0.4c0.1,0.2,0.2,0.3,0.4,0.4l4.6,1.2l3.8,2.9c0.1,0.1,0.3,0.2,0.5,0.1
	c0.2,0,0.3-0.1,0.4-0.3l1.3,3.2c0.1,0.2,0.2,0.3,0.4,0.3l5,1.2l7.1,4.2c0.1,0.1,0.2,0.1,0.3,0.1l4.6-0.5l-1.8,3.5
	c-0.1,0.2-0.1,0.3,0,0.5s0.2,0.3,0.4,0.3l0.3,0.1l-1,3.7c-0.1,0.2,0,0.4,0.1,0.5l1.3,1.6l0.3,9.3c0,0.2,0.1,0.4,0.3,0.5l4.7,2.5
	l-0.6,4.5c-0.3,0-0.5,0.2-0.5,0.5s0.1,0.5,0.4,0.6l-0.7,5.3c0,0.2,0,0.3,0.2,0.5l1.9,1.9l-0.2,2.8l-10.6,9.5l-0.3-0.4l-0.1-0.1
	l-5.9-4.5l-4.3-4.6v-0.1l0,0l-4.1-6.8c-0.1-0.2-0.2-0.3-0.4-0.3l-8.5-1.3l0.9-2.1l2.6-4.4c0-0.1,0.1-0.1,0.1-0.2l0.6-5.7
	c0-0.3-0.2-0.6-0.4-0.6l-3.2-0.8l0.9-2V253l0.9-4.5c0-0.2,0-0.4-0.2-0.5l-3.2-3.2c-0.1-0.2-0.4-0.2-0.6-0.2l-1.2-1.8
	c0,0,0,0-0.1-0.1l-2.3-2.7c0.1-0.1,0.1-0.3,0-0.4l-1.5-3l0,0l-1.4-3.4l0.8-1.1l4.7-0.6c0.2,0,0.4-0.2,0.5-0.3l1.4-3.8L249.4,225.7z"
	/>
<path id="divi-52036" class="st0" d="M221.3,227l0.5,4.9c0,0.3,0.3,0.5,0.5,0.5l1.1,0.1l0.2,2.5l-0.8,1.7c-0.3,0.1-0.4,0.4-0.3,0.7
	l-0.2,0.5l0,0l-1.7,4.2l-2.7-3.2c-0.1-0.2-0.3-0.2-0.5-0.2v-0.1c0-0.1,0-0.1,0-0.2l0.3-7.5l2.8-3.1l0,0l0,0l0,0L221.3,227z"/>
<path id="divi-52565" class="st0" d="M209.4,228.7l2.2,1.8l0.3,7.8c0,0.1,0,0.2,0.1,0.2l2,3.8l-3.1,0.6l-3.2-4l0.9-5.4L209.4,228.7z
	"/>
<path id="divi-52838" class="st0" d="M207.9,230.8l-0.4,2.7l-0.9,5.7c0,0.2,0,0.3,0.1,0.4l3.6,4.5c0.1,0.2,0.3,0.3,0.6,0.2l3.3-0.7
	l-2.2,4.3c-0.1,0.2-0.1,0.3,0,0.5l1.8,3.9c0,0.1,0.1,0.1,0.2,0.2l2.1,1.8c0.1,0.1,0.2,0.1,0.2,0.1l-2.8,3.6l-2.9-0.5
	c-0.1,0-0.2,0-0.2,0l-4.3,1.1l-4.9-1.6l-1.9-4.9h0.1c0.1,0,0.2-0.1,0.3-0.2l2.6-4.1l0,0l2-1.8c0.1-0.1,0.2-0.3,0.2-0.4v-8.9v-0.1
	l1.1-3.8L207.9,230.8z"/>
<path id="divi-52207" class="st0" d="M224.6,232.6l7,0.7l0,0l8.3,1.2l1.1,2.6l0,0l1,2c-0.1,0.1-0.2,0.3-0.2,0.4l-2.8,0.7
	c-0.1,0-0.2,0-0.2,0.1l-3.8,2.9h-0.1l-2.4,1.3l-7.1-1.1l0.2-3.9c0-0.2,0-0.3-0.1-0.4l-1.8-2l0.9-1.8c0-0.1,0.1-0.2,0.1-0.3
	L224.6,232.6z"/>
<path id="divi-52320" class="st0" d="M223.2,238.3l1.2,1.5l-0.3,4.2c0,0.3,0.2,0.6,0.5,0.6l2.4,0.4l-0.8,4.8h-0.1l0,0l0,0
	c-0.2-0.1-0.3,0-0.5,0l-6,0.5c-0.1,0-0.3,0.1-0.3,0.2l-2.9,2.6l-1.6-1.3l-1.7-3.5l2.1-4.2c0.2,0,0.4-0.2,0.5-0.4l1.2-3.9l3.2,3.8
	c0.1,0.2,0.3,0.2,0.5,0.2c0.2,0,0.4-0.2,0.4-0.3L223.2,238.3L223.2,238.3z"/>
<path id="divi-52885" class="st0" d="M242.4,240.6l2.4,2.9v0.1l1.2,1.9l-2.6,2.3l-4.3,2.3c0,0-0.1,0-0.1,0.1l-4.2,3.3
	c-0.1,0.1-0.2,0.3-0.2,0.4v2.8l-2.8,0.8c-0.1,0-0.2,0.1-0.2,0.1l-0.5-3c0-0.1-0.1-0.2-0.2-0.3l-3.6-3.6c0.1-0.1,0.2-0.2,0.2-0.3
	l0.8-5.2l4.2,0.7c0.1,0,0.2,0,0.3-0.1l2.7-1.5c0,0,0,0,0.1,0l3.8-2.9L242.4,240.6z"/>
<path id="divi-52788" class="st0" d="M247.1,246l2.7,2.6l-0.8,4.1l0,0l-1.2,2.7c-0.1,0.2-0.1,0.3,0,0.5c0.1,0.1,0.2,0.3,0.4,0.3
	l3.4,0.8l-0.5,5l-2.6,4.3v0.1l-1,2.3c-0.2,0-0.4,0.1-0.5,0.2l-4.6-4.4v-3c0-0.3-0.2-0.5-0.5-0.6l-4.8-0.8l-1.3-2.7c0,0,0,0,0-0.1
	c0.1-0.1,0.1-0.2,0.1-0.3v-3l3.9-3.1l4.4-2.3c0,0,0.1,0,0.1-0.1L247.1,246z"/>
<path id="divi-52354" class="st0" d="M225.7,250.9l0.7,0.9c0.1,0.2,0.3,0.2,0.5,0.2l0,0l3,3l0.5,2.9l-1.5,2.8h-4.4
	c-0.1,0-0.2,0-0.3,0.1l-0.6-1.1l0.9-4.2c0-0.2,0-0.4-0.2-0.6c-0.2-0.1-0.4-0.2-0.6-0.1l-3.7,1.7l-3.2-0.8l0.7-0.9
	c0.1-0.1,0.1-0.3,0.1-0.5s-0.2-0.3-0.3-0.4l2.7-2.5L225.7,250.9z"/>
<path id="divi-52720" class="st0" d="M198.1,252.4l2,5.2c0.1,0.2,0.2,0.3,0.4,0.3l5.3,1.8c0.1,0,0.2,0,0.3,0l4.3-1.2l2.4,0.4v4.6
	l-7-0.2l-4.4-1.8c-0.2-0.1-0.4,0-0.6,0.1l-2.8,2.8l-1.8-0.2l-2-4.4c-0.1-0.2-0.3-0.4-0.6-0.3l-3.1,0.2l0.4-2.1l4.8-4.8l0,0
	c0.1,0,0.1,0,0.2,0L198.1,252.4z"/>
<path id="divi-52506" class="st0" d="M223.1,256.3l-0.7,3.3c0,0.1,0,0.3,0.1,0.4l0.9,1.8l-4,1.2l0,0l-5.3,0.3v-4.2
	c0.1,0,0.1-0.1,0.2-0.2l1.8-2.3l0,0c0.1,0.1,0.2,0.1,0.2,0.2l3.6,0.9c0.1,0,0.3,0,0.4,0L223.1,256.3z"/>
<path id="divi-52287" class="st0" d="M234.6,257.9C234.7,257.9,234.7,257.9,234.6,257.9l1.5,3.1c0.1,0.2,0.3,0.3,0.4,0.3l4.6,0.8
	v2.8c0,0.2,0.1,0.3,0.2,0.4l5.7,5.4c0.1,0.1,0.3,0.2,0.5,0.1c0.2,0,0.3-0.2,0.4-0.4l0.2-0.4l8.5,1.3l4,6.6c0,0,0,0.1,0.1,0.1
	l4.5,4.8c0,0,0,0,0.1,0.1l5.9,4.4l0.3,0.4c-0.2,0.2-0.2,0.6,0,0.8l-1.1,1.5l-4.7-3.2h-0.1l-4-4.9l0,0l-3.9-3.9
	c-0.1-0.1-0.2-0.1-0.2-0.2l-1.9-0.6l-3.5-2.9c-0.2-0.2-0.5-0.2-0.7,0l-3.9,2.7l-4,2.7l-1.2-1.4c-0.1-0.1-0.2-0.2-0.3-0.2l-5.4-0.9
	c-0.1,0-0.1,0-0.2,0l-5.2,0.8l-2.2-4.4c-0.1-0.2-0.3-0.3-0.6-0.3l-0.6-1.7c0-0.1-0.1-0.2-0.1-0.2l-1.1-1.1l1.4-1.8
	c0.2-0.2,0.1-0.6-0.1-0.8l-1.8-1.8l1.3-3.5c0.1-0.2,0-0.4-0.1-0.5h1.9c0.2,0,0.4-0.1,0.5-0.3l1.7-3.2c0.1,0.2,0.4,0.2,0.6,0.2
	L234.6,257.9z"/>
<path id="divi-52317" class="st0" d="M193.4,260.7l1.9,4.4c0.1,0.2,0.3,0.3,0.5,0.3l2.4,0.3c0.2,0,0.3-0.1,0.5-0.2l2.7-2.7l4.1,1.6
	c0.1,0,0.1,0.1,0.2,0.1l4.6,0.2l-1.2,1.6l-3.8-0.2c-0.1,0-0.3,0-0.4,0.1l-1.8,1.6l-2.4-0.8c-0.3-0.1-0.6,0-0.7,0.3l-1.5,2.6v0.1
	l-1.7,1.3c-0.1,0.1-0.1,0.2-0.2,0.2l-1,2.9h-2.2h-0.1l-2.3-0.2c-0.2-0.1-0.4-0.2-0.6-0.1H190l-3.4-2.8l-1.8-3l1.7-1.2
	c0.2-0.1,0.2-0.3,0.2-0.5v-1.9c0.1,0,0.1-0.1,0.2-0.2l1.7-2.3l1.9-1.3L193.4,260.7z"/>
<path id="divi-52227" class="st0" d="M163.4,261.6l2.1,3.1l-1.1,4.2c0,0.1,0,0.3,0.1,0.4s0.2,0.2,0.4,0.3l6.2,1.8c0.1,0,0.2,0,0.3,0
	l5.7-1.2c0.2,0,0.3-0.1,0.4-0.2l2.7-4.5l2.3-2.3l3.2,1.4v1.8l-1.8,1.3c-0.2,0.2-0.3,0.5-0.2,0.8l2.1,3.6c0,0.1,0.1,0.1,0.1,0.2
	l3.6,3c0.1,0.1,0.2,0.1,0.3,0.2h0.2l-1,3.7c0,0.1,0,0.3,0.1,0.4l2.3,3.4v3.4l0,0l-2.5,3l-15.5,3.1l-16.8-4.9l0,0l-21-14.3l-4.8-8.8
	l7.9-1.1h0.1l9.8-0.3l0,0l9.8-0.6l0,0L163.4,261.6z"/>
<path id="divi-52352" class="st0" d="M224.6,261.9h1.7c0,0,0,0.1-0.1,0.1l-1.5,3.9c-0.1,0.2,0,0.5,0.2,0.6l1.7,1.7l-1.8,2.3
	l-4.7-0.8l-6.2-1.7l-0.9-3.1h0.4c0.2,0,0.4-0.1,0.5-0.3l5.5-0.3c0.1,0,0.1,0,0.2,0l4.7-1.5c0.2-0.1,0.3-0.2,0.3-0.3
	C224.7,262.3,224.7,262.1,224.6,261.9L224.6,261.9z"/>
<path id="divi-52585" class="st0" d="M211.7,264.8h0.1l0.5,1.7l-3.2,7.1c-0.1,0.2-0.1,0.5,0.1,0.7l4.6,4.6l-2,3.5l-4-2.4
	c-0.2-0.1-0.5-0.1-0.7,0l-3,2.4l-2.1-1.2l0,0c0.1-0.3-0.1-0.6-0.3-0.7l-0.2-4.1l0,0l1.5-7.1v-0.1c0.2,0,0.3-0.1,0.4-0.2l1.9-1.6
	l3.9,0.3c0.2,0,0.4-0.1,0.5-0.2L211.7,264.8z"/>
<path id="divi-52323" class="st0" d="M212.8,268.2l0.1,0.4c0.1,0.2,0.2,0.4,0.4,0.4l1.3,0.4l0,0l0.6,5.3c0,0.2,0.1,0.3,0.3,0.4
	l1.8,1.2l-2.6,1.8l-4.5-4.4L212.8,268.2z"/>
<path id="divi-52022" class="st0" d="M200.6,268.2l1.4,0.4c0,0.1-0.1,0.1-0.1,0.2l-1.5,7.2c0,0.1,0,0.1,0,0.2l0.2,3.8l-1.7-0.5
	l-2.6-4.2c0-0.1,0.1-0.1,0.1-0.2l1.1-3.1l1.7-1.4c0.1,0,0.1-0.1,0.1-0.2L200.6,268.2z"/>
<path id="divi-52210" class="st0" d="M215.8,269.7l4,1.1c0,0,0,0,0.1,0l5.1,0.9c0.2,0,0.4-0.1,0.5-0.2l0.3-0.3l0.8,0.8l0.6,1.9
	l-5.2,0.6c-0.1,0-0.3,0.1-0.4,0.2l-1.8,2l-0.8-0.5c0-0.2-0.1-0.3-0.3-0.4c-0.1-0.1-0.3-0.1-0.5-0.1l-2-1.2L215.8,269.7z"/>
<path id="divi-52573" class="st0" d="M228.2,274.9L228.2,274.9l2,3.9c0.1,0.2,0.3,0.3,0.6,0.3l5.6-0.9l5.1,0.8l1.3,1.6
	c0.2,0.2,0.5,0.3,0.8,0.1l4.5-3l3.5-2.4l3.2,2.7c0.1,0,0.1,0.1,0.2,0.1l1.9,0.5l3.8,3.8v0.1l4.2,5l0.1,0.1l4.7,3.2l-0.1,0.1
	c-0.1,0.1-0.1,0.3-0.1,0.5l-1.9,1.5c0,0,0,0.1-0.1,0.1l-3.8,4.3l-5.8-5.5c-0.1-0.1-0.2-0.1-0.2-0.1l-6.8-2.1c-0.1,0-0.1,0-0.2,0
	l-6.7,0.6l-1.9-4.4c0-0.1-0.1-0.1-0.1-0.2l-3.2-3.2c-0.1-0.1-0.3-0.2-0.5-0.2l-5.1,0.6l-6.6,0.6l-5.4-6.3l1.3-1.5l5.7-0.6
	C228.1,275,228.2,274.9,228.2,274.9L228.2,274.9z"/>
<path id="divi-52224" class="st0" d="M190.9,275.4l2.2,0.2l0,0h1.9l0,0l3,4.8c0.1,0.1,0.2,0.2,0.3,0.2l2.3,0.7
	c0,0.2,0.1,0.4,0.3,0.5l3,1.8c0.1,0.1,0.3,0.1,0.5,0.1c-0.1,0.1-0.1,0.1-0.1,0.2l-0.4,1.8h-11.6v-2.9c0-0.1,0-0.2-0.1-0.3l-2.2-3.4
	L190.9,275.4z"/>
<path id="divi-52356" class="st0" d="M218.3,277l1.2,0.8l-2.9,3.4c-0.1,0.1-0.2,0.2-0.2,0.4v3.5l-3,1.9l-3.6,2.1
	c-0.2,0.1-0.3,0.2-0.3,0.4l-0.2,1.7l0,0l-2,4c-0.1,0.1-0.1,0.3-0.1,0.4l0.9,3.6c0.1,0.3,0.3,0.5,0.6,0.4l7.2-0.6
	c0.1,0,0.2,0,0.3-0.1l4.3-2.9l5.1-0.6l1.9,4.7c0.1,0.1,0.2,0.3,0.3,0.3l6.4,2.3l5,4.4c0.1,0.1,0.2,0.1,0.3,0.1l7.8,1.5
	c0.2,0,0.3,0,0.5-0.1l4-3.5l5.2-0.6c0.1,0,0.2,0,0.2-0.1l2.3-1.3l6.5,7l5.9,10.3v0.1l2.9,7v0.1l0.8,4.8l-0.5,8.1l-2.3,0.8
	c0,0,0,0-0.1,0l-8.9,4.3l-19.2-5.5c-0.2-0.1-0.4,0-0.5,0.1l-5.9,5.1l-6.2-5.9l-2.9-8.1c0,0,0,0,0-0.1l-4.8-10l5.5-4.8
	c0.1-0.1,0.2-0.3,0.2-0.5s-0.1-0.3-0.3-0.4l-8.8-5.8c-0.1-0.1-0.2-0.1-0.2-0.1l-6.9-0.8l-8.6-9l-0.1-14.1c0-0.1,0-0.1,0-0.2l0,0
	l0.4-1.9c0-0.2,0-0.4-0.1-0.5c-0.1-0.1-0.3-0.2-0.5-0.2l2.8-2.3l4.1,2.5c0.1,0.1,0.3,0.1,0.5,0.1c0.2,0,0.3-0.1,0.4-0.3l2.2-3.9
	c0.1,0,0.2,0,0.3-0.1L218.3,277z"/>
<path id="divi-52215" class="st0" d="M220.6,278.2l5.2,6.1c0.1,0.1,0.3,0.2,0.5,0.2l6.8-0.6l0,0l4.8-0.6l3,3.1l0,0l2,4.6
	c0.1,0.2,0.3,0.4,0.6,0.3l6.9-0.6l0,0l6.6,2l5.7,5.4l-0.2,1.2l-1.6,1.3l-1.1,1l-0.9-2.8c-0.1-0.2-0.2-0.3-0.3-0.4l-4.5-1.5
	c-0.1,0-0.2,0-0.3,0l-4.8,0.8l-1.3-1.5c-0.1-0.1-0.1-0.1-0.2-0.2l-9.5-3.9c-0.1,0-0.1-0.1-0.2-0.1l-3.9-0.2l-1.6-2.2
	c-0.1-0.2-0.3-0.3-0.6-0.2l-2.8,0.5l-0.8-3.1c-0.1-0.2-0.2-0.4-0.4-0.4l-4.8-1.5c-0.1,0-0.1,0-0.2,0l-4.5-0.2c0-0.2-0.1-0.5-0.3-0.6
	c-0.2-0.1-0.5-0.1-0.6,0v-2.6L220.6,278.2z"/>
<path id="divi-52560" class="st0" d="M217.1,286l5.7,0.3l4.5,1.4l0.8,3.2c0.1,0.3,0.4,0.5,0.7,0.4l2.9-0.5l1.6,2.1
	c0.1,0.1,0.2,0.2,0.4,0.2l4.1,0.3l9.4,3.8l1.4,1.7c0.1,0.2,0.3,0.2,0.5,0.2l4.9-0.9l4.1,1.3l0.9,2.9l-2.2,1.2l-5.2,0.6
	c-0.1,0-0.2,0.1-0.3,0.1l-4,3.4l-7.3-1.4l-4.9-4.4c-0.1-0.1-0.1-0.1-0.2-0.1l-6.3-2.3l-2-4.8c-0.1-0.2-0.3-0.4-0.6-0.3l-5.7,0.6
	c-0.1,0-0.2,0-0.3,0.1l-4.3,2.9l-6.5,0.6l-0.7-2.9l2-4c0,0,0-0.1,0.1-0.2l0.2-1.5l3.3-2l0,0L217.1,286z"/>
</svg>
