<?xml version="1.0" encoding="utf-8"?>
<!-- Generator: Adobe Illustrator 20.1.0, SVG Export Plug-In . SVG Version: 6.00 Build 0)  -->
<svg version="1.1"
	 id="vichada" inkscape:output_extension="org.inkscape.output.svg.inkscape" inkscape:version="0.46" sodipodi:docname="departamentos_colombia_plain.svg" sodipodi:version="0.32" xmlns:cc="http://creativecommons.org/ns#" xmlns:dc="http://purl.org/dc/elements/1.1/" xmlns:inkscape="http://www.inkscape.org/namespaces/inkscape" xmlns:rdf="http://www.w3.org/1999/02/22-rdf-syntax-ns#" xmlns:sodipodi="http://sodipodi.sourceforge.net/DTD/sodipodi-0.dtd" xmlns:svg="http://www.w3.org/2000/svg"
	 xmlns="http://www.w3.org/2000/svg" xmlns:xlink="http://www.w3.org/1999/xlink" x="0px" y="0px" viewBox="0 0 669.7 587.9"
	 style="enable-background:new 0 0 669.7 587.9;" xml:space="preserve">
<style type="text/css">
	.st0{fill:none;stroke:#000000;stroke-miterlimit:10;}
</style>
<path id="divi-99001" class="st0" d="M511.3,84.6l17.8,1.1h0.1l18.2,4h0.1l11.3,6.2l-3.9,3.5c-0.2,0.1-0.2,0.4-0.2,0.6l3.2,11.8
	c0,0.1,0,0.1,0.1,0.2l6,8.2l-3.9,3.1c0,0,0,0-0.1,0.1l-18.7,18.7c-0.1,0.1-0.2,0.2-0.2,0.4l-1.2,25.3l-1,13.5l-23.1,20.3
	c0,0-0.1,0.1-0.1,0.1l0,0l-5.4-6.2c-0.1-0.1-0.2-0.2-0.4-0.2s-0.3,0-0.4,0.1l-6.1,6.1c0,0,0,0,0,0l-3.5,4.4l-4.6-7.4
	c-0.2-0.2-0.5-0.3-0.7-0.2l-3.7,1.8l-8.8-8.8c-0.1-0.1-0.2-0.2-0.4-0.2l-10.1-1l-10-3c-0.1,0-0.2,0-0.2,0l-7.8,1l-9.9-7.9
	c-0.1,0-0.1-0.1-0.2-0.1l-14.1-5c-0.2-0.1-0.5,0-0.7,0.2l-3.8,4.8l-6.7-1c-0.2,0-0.3,0-0.4,0.1l-6.9,4.9l0,0l-6,2
	c-0.1,0-0.2,0.1-0.2,0.2l-6.9,7.8l-11.3-0.8v-88.2h0.1l12.8,2.3c0,0,0,0,0,0l9,0.9c0.2,0,0.3,0,0.5-0.1l4.9-4.6l7.4,1.2
	c0.1,0,0.1,0,0.2,0l16.3-4h0l18.9,1.3c0.2,0,0.3,0,0.4-0.2l4.8-4.2l10.7-3.2l8.7,2.7c0,0,0.1,0,0.1,0l12.2,1.2c0.1,0,0.3,0,0.4-0.1
	L511.3,84.6z"/>
<path id="divi-99524" class="st0" d="M344.7,99.5l39.3,5.7c0,0,0,0,0.1,0h1.2v88.1l-0.4,0c-0.2,0-0.5,0.1-0.6,0.4
	c-0.1,0.2,0,0.5,0.1,0.6l-8,7.1l-13,4l-14.1,4c-0.2,0.1-0.3,0.2-0.4,0.4l-3.9,11.8l-12.8,1.9c0,0,0,0-0.1,0l-11.9,3l-8.9-3
	c-0.2-0.1-0.4,0-0.6,0.1l-4,4c-0.1,0.1-0.2,0.2-0.2,0.3l-2,12.9l-9.9,9.9c0,0,0,0,0,0l-6.8,7.8l-11.5-3.8l-3.9-8.9
	c-0.1-0.2-0.4-0.4-0.6-0.3c-0.3,0-0.5,0.2-0.5,0.5l-1.9,10.6l-11.5,1H258l-10.6-2l-1-8.6c0-0.2-0.2-0.5-0.4-0.5
	c-0.2-0.1-0.5,0-0.6,0.3l-4,5.9l-9.7,3.9l-8-1c-0.1,0-0.2,0-0.3,0.1l-8.9,4l-8.3-0.9v-0.4c0-0.3-0.1-0.5-0.4-0.6
	c-0.2-0.1-0.5,0-0.7,0.2L156,198l5.8-3.4c0.1,0,0.1-0.1,0.2-0.2l3.2-4.6h0.1c0.1,0,0.3-0.1,0.4-0.3c0.1-0.1,0.1-0.3,0.1-0.4l0.7-0.5
	h1.7c0.3,0,0.6-0.3,0.6-0.6s-0.3-0.6-0.6-0.6h-0.1l5.1-3.7l0.1,0l0,0l10.5-4.1l10.7-1.2c0,0,0.1,0,0.1,0l13.7-3.6c0,0,0.1,0,0.1-0.1
	l11.3-5.3c0.1,0,0.1-0.1,0.2-0.2l6.6-8.3c0,0,0,0,0,0l6-8.3c0,0,0,0,0,0l7.1-11.2l0.1-0.1l6.5-7.1c0,0,0.1-0.1,0.1-0.1l3.5-7.1
	l0-0.1l5.1-7.1l0.8,0.2c0.1,0,0.3,0,0.4,0l6.3-2.9l8.1,3.5c0.1,0.1,0.3,0.1,0.4,0l5.8-1.8l11.2,1.8c0.1,0,0.2,0,0.3,0l14.3-6
	c0.1,0,0.1-0.1,0.2-0.1l5.4-6c0.1-0.2,0.2-0.4,0.1-0.6l6.8-1.6l8.8,8.8c0.2,0.2,0.4,0.2,0.6,0.1l6.5-2.4c0.1,0,0.1-0.1,0.2-0.1
	L344.7,99.5z"/>
<path id="divi-99773" class="st0" d="M429.4,176.4l13.7,4.9l10,8c0.1,0.1,0.3,0.1,0.4,0.1l8-1l9.9,3c0,0,0.1,0,0.1,0l9.9,1l8.9,8.9
	c0.2,0.2,0.4,0.2,0.7,0.1l3.6-1.8l4.8,7.6c0.1,0.2,0.3,0.3,0.5,0.3c0.2,0,0.4-0.1,0.5-0.2l4-5l5.6-5.6l5.1,6l-3.2,4.2
	c-0.1,0.1-0.1,0.2-0.1,0.3l-0.2,13.9c0,0,0,0,0,0l1.6,27.4v0v0l-1,20v0.1l-4.6,30.2c0,0.1,0,0.2,0,0.3l4.7,10.6c0,0,0,0,0,0.1
	l8.8,15.9l-3.3,14c0,0.1,0,0.2,0,0.2l3.7,14.2c0,0.1,0,0.2,0.1,0.2l9.4,11.4v0.1l-11.2,6.1c-0.1,0-0.1,0.1-0.2,0.1l-6.8,7.3l0,0
	l-6.7,3.6l-3.7-8.3c-0.1-0.2-0.3-0.3-0.5-0.3l-11-0.5l-2.3-5.1c-0.1-0.2-0.3-0.3-0.5-0.3c-0.2,0-0.4,0.2-0.5,0.4l-3.4,9.4l-1.9-4.9
	c-0.1-0.2-0.3-0.4-0.5-0.4c-0.2,0-0.4,0.1-0.5,0.3l-1.8,3.2l-1.1-3.6c-0.1-0.2-0.3-0.4-0.5-0.4l-13.3-1.5c-0.2,0-0.4,0-0.5,0.2
	c-0.1,0.1-0.2,0.3-0.2,0.5l0.4,4.6l-8.5-2.7l-5.9-2c-0.2,0-0.3,0-0.5,0.1c-0.1,0.1-0.2,0.2-0.3,0.4l-1.9,8.1l-3.6,2.2h-7.2
	c-0.2,0-0.4,0.1-0.5,0.4s0,0.5,0.1,0.6l5.6,5.6l-4.8,1.9c-0.3,0.1-0.4,0.4-0.4,0.7l-5.2-1.2c-0.1,0-0.3,0-0.4,0.1l-4.4,2.5
	c-0.2,0.1-0.3,0.4-0.3,0.6l0.7,3.2l-6.2-3.3c-0.2-0.1-0.4-0.1-0.6,0c-0.2,0.1-0.3,0.3-0.3,0.5l0.4,5.8H414l-6.8-3.9
	c-0.2-0.1-0.3-0.1-0.5,0s-0.3,0.2-0.3,0.4l-0.5,2c0,0.1,0,0.2,0,0.3l1.2,3.5l-6.9-1.3c0,0,0,0-0.1,0l-5.4-0.5
	c-0.3,0-0.6,0.2-0.6,0.4l-0.9,4.5l-4.3,0.4l-6.2-3.3c-0.2-0.1-0.5-0.1-0.6,0.1s-0.2,0.4-0.2,0.6l2.5,7.9l-3.6-2.2
	c-0.1-0.1-0.2-0.1-0.3-0.1l-0.2,0H380c-0.1,0-0.3,0-0.4,0l-4.9,0.4l-3.8-5.6c-0.2-0.2-0.4-0.3-0.7-0.2c-0.2,0.1-0.4,0.4-0.3,0.6
	l1.8,8.4l-8-2.2c-0.2,0-0.4,0-0.5,0.1l-5.3,4.3l-5.4,0.9l-1.8-2.7c-0.1-0.2-0.4-0.3-0.7-0.2l-8.5,3l2.4-5.1c0.1-0.2,0.1-0.5-0.1-0.7
	c-0.2-0.2-0.5-0.2-0.7-0.1l-6.7,3.2l-0.9-4.7c0-0.2-0.2-0.4-0.4-0.4s-0.4,0-0.6,0.1l-3,2.6l-4-5c-0.2-0.2-0.5-0.3-0.7-0.2
	c-0.2,0.1-0.4,0.4-0.3,0.7l2.3,6.8l-2.8,1.1l-1.3-6.7c0-0.2-0.2-0.3-0.3-0.4c-0.2-0.1-0.4-0.1-0.5,0l-8.7,4.8l-5.6-0.9h0l-5.9-2.9
	c-0.1-0.1-0.3-0.1-0.5,0c-0.2,0.1-0.3,0.2-0.3,0.3l-2.1,6.4l-2.8-3.2c-0.1-0.1-0.2-0.2-0.4-0.2l-10.8-1.5c-0.2,0-0.3,0-0.5,0.1
	c-0.1,0.1-0.2,0.3-0.2,0.4l-0.5,14.5l-7.2-2.2c-0.2,0-0.3,0-0.5,0.1c-0.1,0.1-0.2,0.2-0.3,0.4l-0.8,6.2l-8.5-8.1
	c-0.2-0.2-0.5-0.2-0.7-0.1c-0.2,0.1-0.3,0.4-0.3,0.6l1.1,5.7l-4-4.7c-0.1-0.2-0.3-0.2-0.5-0.2c-0.2,0-0.4,0.2-0.4,0.3l-1.9,5.3
	l-3.8,3.8l-3.1-5.3c-0.1-0.2-0.4-0.3-0.7-0.2c-0.3,0.1-0.4,0.3-0.4,0.6l0.5,4.4c0,0,0,0,0,0.1l1.1,5.1l-7.4-7l-0.1-0.1
	c-0.2-0.3-0.6-0.3-0.8-0.1s-0.3,0.6-0.1,0.8l3.8,6.2l-0.4,6.1l-5.2-0.4l-5.9-1.5c-0.2-0.1-0.4,0-0.6,0.2c-0.1,0.2-0.2,0.4-0.1,0.6
	l2.3,5.4l-4.2,2.5l-5.1-2.8c-0.1-0.1-0.3-0.1-0.5,0l-3.8,1.4h-5.3c0,0,0,0,0,0l-4.9,0.5c-0.2,0-0.3,0.1-0.4,0.2l-3,4.4
	c-0.1,0.2-0.1,0.5,0,0.7l4.6,5.5l-2.7,3.1c-0.1,0.2-0.2,0.4-0.1,0.6l3.3,9.1l-6.9-4.8c-0.2-0.1-0.4-0.1-0.5,0
	c-0.2,0.1-0.3,0.2-0.3,0.4l-0.8,5.3l-2.7-2.7c-0.1-0.1-0.3-0.2-0.5-0.2c-0.2,0-0.3,0.1-0.4,0.2l-2.9,3.9l0,0.1l-5.8,6.2h0l-4.9,3.4
	c-0.2,0.1-0.3,0.3-0.3,0.5c0,0.2,0.1,0.4,0.3,0.5l6.8,4.7l-5.1,1.2c-0.2,0-0.3,0.2-0.4,0.3c-0.1,0.2-0.1,0.3,0,0.5l5.6,10.8
	l-10.8,4.7c-0.2,0.1-0.3,0.2-0.3,0.4l-1.9,9.4l-7.9,0.9c0,0-0.1,0-0.1,0l-9.4,3.3l-0.2-0.5c-0.1-0.3-0.5-0.4-0.8-0.2
	s-0.4,0.5-0.2,0.8l0.2,0.4l-0.6,0.2l-10.1-5.3c-0.2-0.1-0.4-0.1-0.5,0c-0.2,0.1-0.3,0.3-0.3,0.4l-0.4,5.3l-5.8-0.5
	c-0.2,0-0.3,0-0.4,0.2l-6.7,5.8l-1.7-6c0-0.2-0.2-0.3-0.4-0.4c-0.2-0.1-0.4,0-0.5,0.1l-4.3,3.4l-6.8,1.2l1.2-4.5
	c0-0.2,0-0.4-0.1-0.5c-0.1-0.1-0.3-0.2-0.5-0.2h-6.9h-5.6l-4.2-5.7c-0.1-0.2-0.4-0.3-0.6-0.2c-0.2,0.1-0.4,0.2-0.4,0.5l-1.2,7.6
	l-3.7-4.4c0,0,0,0,0-0.1l-5.4-4.9c-0.2-0.2-0.5-0.2-0.7,0l-4.5,3.2l-3.7-4.2c0.2-0.1,0.3-0.3,0.3-0.5v-65.4c0-0.3-0.2-0.5-0.5-0.6
	l0.5-163.9l6.8-3.2l6.6,3.3c0.2,0.1,0.4,0.1,0.6-0.1c0.2-0.1,0.3-0.3,0.2-0.6l-0.9-5.9l11.2-4.2l10.6,3.4c0.2,0,0.3,0,0.5-0.1
	l3.3-1.9l9.3-0.9l2.3,5c0.1,0.2,0.2,0.3,0.4,0.3l10.7,1.4l0.1,0l12.2,5.4c0.1,0,0.2,0.1,0.2,0.1h9.8c0.2,0,0.4-0.1,0.5-0.3
	s0.1-0.5-0.1-0.6l-2.5-2.9l4.6-2.5l5.7,1.4c0.2,0,0.3,0,0.4-0.1l9.8-6.4c0,0,0.1,0,0.1-0.1l5.3-5.3l0.1,0l0.1-0.1l4.3-2.4
	c0.2-0.1,0.3-0.3,0.3-0.5V260l8.3,0.9c0.1,0,0.2,0,0.3-0.1l8.9-4l7.9,1c0.1,0,0.2,0,0.3,0l10.1-4c0.1,0,0.2-0.1,0.3-0.2l3.2-4.7
	l0.8,7.5c0,0.3,0.2,0.5,0.5,0.5l11.1,2c0.1,0,0.1,0,0.2,0l12.1-1c0.3,0,0.5-0.2,0.5-0.5l1.7-9.2l3.3,7.4c0.1,0.1,0.2,0.3,0.3,0.3
	l12.1,4c0.2,0.1,0.5,0,0.6-0.2l7-8v0l10.1-10c0.1-0.1,0.1-0.2,0.2-0.3l2-12.9l3.6-3.6l8.8,2.9c0.1,0,0.2,0,0.3,0l12.1-3v0l13.1-2
	c0.2,0,0.4-0.2,0.4-0.4l3.9-11.8l13.8-3.9l13.1-4c0.1,0,0.2-0.1,0.2-0.1l8.8-7.8l11.9,0.9c0.2,0,0.4-0.1,0.5-0.2l6.9-7.9l5.9-2
	c0.1,0,0.1,0,0.2-0.1l6.8-4.9l6.8,1c0.2,0,0.4-0.1,0.5-0.2L429.4,176.4z"/>
<path id="divi-99624" class="st0" d="M155,198.6l50.1,61.1c0,0,0,0,0,0v4.3l-4.1,2.3c0,0-0.1,0.1-0.1,0.1l-5.3,5.3l-0.1,0.1
	l-9.6,6.2l-5.6-1.4c-0.1,0-0.3,0-0.4,0l-5.4,3c-0.2,0.1-0.3,0.2-0.3,0.4c0,0.2,0,0.3,0.1,0.5l2.1,2.5H168l-12.2-5.4
	c-0.1,0-0.1,0-0.2,0l-10.5-1.5l-2.3-5.1c-0.1-0.2-0.3-0.4-0.6-0.3l-9.8,1c-0.1,0-0.2,0-0.2,0.1l-3.2,1.8l-10.6-3.4
	c-0.1,0-0.3,0-0.4,0l-11.8,4.4c-0.3,0.1-0.4,0.4-0.4,0.6l0.8,5.3l-5.9-3c-0.2-0.1-0.3-0.1-0.5,0l-5.3,2.5c0,0-0.1,0-0.1-0.1
	l-1.1-0.4v-19.2l1.2-1l4.8-1.5c0.2-0.1,0.3-0.2,0.3-0.3l4.7-11.1l0.5-0.2c0.2-0.1,0.3-0.2,0.3-0.3l2.4-5.4c0,0,0,0,0-0.1l1.2-3.9
	l8.1-4.1c0.2,0.1,0.4,0.1,0.6,0l10.8-6.6c0,0,0,0,0,0l13.7-10.1c0.1,0,0.1-0.1,0.2-0.2l4.8-7.1c0-0.1,0.1-0.1,0.1-0.2l1.7-6.3
	L155,198.6z"/>
</svg>
