<?xml version="1.0" encoding="utf-8"?>
<!-- Generator: Adobe Illustrator 20.1.0, SVG Export Plug-In . SVG Version: 6.00 Build 0)  -->
<svg version="1.1"
	 id="cundinamarca" inkscape:output_extension="org.inkscape.output.svg.inkscape" inkscape:version="0.46" sodipodi:docname="departamentos_colombia_plain.svg" sodipodi:version="0.32" xmlns:cc="http://creativecommons.org/ns#" xmlns:dc="http://purl.org/dc/elements/1.1/" xmlns:inkscape="http://www.inkscape.org/namespaces/inkscape" xmlns:rdf="http://www.w3.org/1999/02/22-rdf-syntax-ns#" xmlns:sodipodi="http://sodipodi.sourceforge.net/DTD/sodipodi-0.dtd" xmlns:svg="http://www.w3.org/2000/svg"
	 xmlns="http://www.w3.org/2000/svg" xmlns:xlink="http://www.w3.org/1999/xlink" x="0px" y="0px" viewBox="0 0 300 348"
	 style="enable-background:new 0 0 300 348;" xml:space="preserve">
<path id="divi-25885" class="st0" d="M116,60.6c-0.1-2.1-0.4-6.8-0.7-9.3c-0.2-1.6-0.8-3.4-1.3-4.9c-0.3-0.9-0.4-1.1-0.6-1.6
	l-0.9,3.1c-0.1,0.2-0.3,0.4-0.5,0.4s-0.5-0.1-0.6-0.4l-1-2.6l0,0l-1.1-3.9l-2.4-2.2l-2.1,2.1c0,0-0.1,0-0.1,0.1l-4.9,3.3L96.5,48
	c-0.2,0.2-0.4,0.2-0.7,0.1l-2.6-1.2l0,0l-5.8-1c0,0,0,0-0.1,0l-0.4-0.1l1.4,2c0,0,0,0.1,0.1,0.1l1.3,3.3c0,0.1,0.1,0.2,0.1,0.2
	l-0.5,5.1c0,0.1,0,0.2-0.1,0.2l-2.8,4.9c0,0,0,0,0,0.1l-4.2,5.6l0,0l-0.1,0.1l-2.4,5.4l3.1,0.3l1.9-1.5c0.1-0.1,0.2-0.1,0.3-0.1
	l3.2-0.2c0.1,0,0.2,0,0.3,0.1l4.4,2.8c0.2,0.1,0.3,0.3,0.3,0.4l0.3,5.3l2.1,2c0.1,0.1,0.2,0.3,0.2,0.5l-0.5,3.2
	c0.1,0.1,0.2,0.1,0.2,0.2l3.2,0.3c0.1,0,0.2,0,0.3,0.1l3.1,2.3l4.9,3.7l6-0.5l0,0l5.2-0.1c0.1-0.2,0.2-0.3,0.4-0.3
	c0.2,0,0.4,0,0.5,0.2L124,88l2.9-4.5l-1.8-0.3c-0.1,0-0.2,0-0.2-0.1l-3.8-2.5l-5.1-0.2c-0.3,0-0.5-0.3-0.5-0.6v-7.2l-2.1-3.2
	l-0.1-0.1l-5.3-5.5c-0.2-0.2-0.2-0.4-0.1-0.6c0.1-0.2,0.3-0.3,0.5-0.4c0.1-0.3,0.3-0.5,0.6-0.5l4.8,0.3L116,60.6z"/>
<path id="divi-25572" class="st0" d="M67.6,43.3l1.3,3.2c0.1,0.2,0.2,0.3,0.4,0.4L75,48c0.1,0,0.2,0,0.3,0l5.6-2.1
	c0.1,0,0.1-0.1,0.2-0.1l2.3-2.1l2.5,0.7l2.1,3.1l1.3,3.1l-0.5,4.8l-2.7,4.7v0.1l-4.2,5.7c0,0,0,0.1-0.1,0.1l-2.4,5.4l0,0
	c-0.2,0.1-0.3,0.2-0.4,0.4l-1,5.5l-5.3,7.2c0,0,0,0.1-0.1,0.1l-2.5,6.6c-0.2,0-0.4,0-0.5,0.1s-0.2,0.3-0.2,0.5l-0.7,0.3L65,90.8
	L64.8,90l0.1-0.2c0.1-0.2,0.1-0.3,0-0.5S64.7,89,64.5,89l-0.1-1l1.4-3.9c0-0.1,0-0.3,0-0.4l-1.7-4.3l3.6-4.8
	c0.1-0.1,0.1-0.2,0.1-0.4l-0.3-5.7l1-4.6l0,0l0.8-5.2l1.1-1.9c0.1-0.2,0.1-0.4,0-0.6l-2.7-3.6l-1.1-4.7l0.8-3.2
	c0.2-0.1,0.3-0.2,0.4-0.4s0-0.4-0.2-0.5L67.6,43.3z"/>
<path id="divi-25745" class="st0" d="M176.9,68.2l1,0.7l0,0V69l-0.7,4.9l-0.7,3.7c0,0.2,0,0.4,0.2,0.6l0.7,0.5l-3.2,1.6h-0.1l0,0
	l-2.7,0.6c-0.2,0-0.4,0.2-0.4,0.4l-0.4,2.2H164c-0.2,0-0.3,0.1-0.4,0.2c-0.1,0.1-0.2,0.3-0.1,0.5l0.1,0.7l-2.1,0.4l0.9-3.2
	c0-0.1,0-0.2,0-0.3l-0.8-2.7l0.7-0.5l0,0l0,0c0.2,0,0.3-0.1,0.4-0.2l2.6-1.6l0,0l3.6-2.5l0.1-0.1l2.2-2.5c0.2,0.1,0.4,0.2,0.6,0.1
	l2.6-1.1c0.1,0,0.1-0.1,0.2-0.1L176.9,68.2z"/>
<path id="divi-25148" class="st0" d="M88.8,71.7l4,2.5l0.3,5.2c0,0.1,0.1,0.3,0.2,0.4l2.1,1.9l-0.6,3.8c0,0.1,0,0.1,0,0.2l-1.9,2.5
	l-2.1,2.7c-0.1,0.1-0.1,0.2-0.1,0.3l-0.2,2.1c0,0.2,0.1,0.4,0.2,0.5l1.9,1.5l-1,2l0,0l-1.6,2.8c0,0.1-0.1,0.2-0.1,0.2l-0.2,2.8
	l-3.9,4.6c-0.1,0.1-0.1,0.2-0.1,0.3l0,0l-1.7,1.2c-0.1,0.1-0.2,0.3-0.2,0.4l-0.4,5l-1.2,1.9l-4.2-0.4l0,0l-4.8-0.2l-1.9-1.5l0.5-3.6
	l1.3-1.5c0.1-0.1,0.1-0.3,0.1-0.4s-0.1-0.3-0.2-0.4l-1.4-0.9l-0.4-1.5l0.9-0.5c0.2-0.1,0.3-0.3,0.3-0.5l0.2-3.2l0,0l1.2-2.8
	c0-0.1,0.1-0.2,0-0.3l-0.9-3.7c0-0.1-0.1-0.1-0.1-0.2L71,92l2.7-7.1l0,0l5.3-7.3c0.1-0.1,0.1-0.2,0.1-0.2l0.8-4.5l3.6,0.4
	c0.2,0,0.3,0,0.4-0.1l2-1.5L88.8,71.7z"/>
<path id="divi-25779" class="st0" d="M178.5,79.6L178.5,79.6l1.8,1.4c0.1,0,0.1,0.1,0.2,0.1l1.8,0.5l-0.7,0.2c0,0,0,0-0.1,0
	l-3.3,1.1c-0.1,0.1-0.2,0.2-0.3,0.3l-1.9,3.6l0,0l-2.6,4l0,0l-2,3.2l-0.6,0.3c-0.1-0.1-0.3-0.1-0.4-0.1c-0.2,0-0.3,0.1-0.4,0.2
	l-0.9-0.2l-1.7-2.3l-0.5-2.9c0-0.1-0.1-0.2-0.1-0.3l-1.8-2l-0.2-2.1h6.6c0.3,0,0.5-0.2,0.6-0.5l0.4-2.2l2.4-0.6h0.1L178.5,79.6
	C178.4,79.6,178.5,79.6,178.5,79.6z"/>
<path id="divi-25288" class="st0" d="M184.3,82.1l3.7,0.5l-4.3,4.6l-0.1,0.1l-3,6.1l-2.1,4.5l-2.7-0.5l-2.7-2.7c0,0,0-0.1-0.1-0.1
	l-0.5-0.3l1.7-2.8l2.6-4.1c0,0,0,0,0-0.1l1.8-3.4l3-1.1h0.1l2.1-0.5c0.1,0,0.2-0.1,0.3-0.2H184.3z"/>
<path id="divi-25317" class="st0" d="M189.4,82.8l2.2,0.3l5.5,5.1l0,0l3.2,2.8l0.2,0.2c0.1,0.1,0.2,0.1,0.4,0.1l0.2,3.3l-1,0.4
	l-3.5,1.4c0,0,0,0-0.1,0l-4.3,2.2l-3.8,1l-2.6-2c-0.2-0.1-0.4-0.2-0.6-0.1l-3.5,1.7l-2.1-0.9l2.1-4.5l2.8-5.9l0,0L189.4,82.8z"/>
<path id="divi-25518" class="st0" d="M128.8,82.9l0.7,0.1c0.1,0.2,0.3,0.3,0.5,0.3l6.9-0.2l1.3,3.9l-1.3,0.4c-0.1,0-0.2,0.1-0.3,0.2
	l-1.8,2.5c0,0,0,0.1-0.1,0.1l-0.9,2.3c-0.1,0.2-0.1,0.5,0.1,0.6l1.5,1.6l-1.2,0.9l-0.1,0.1l-2.5,3.2h-0.1l-3.8,2.7l0,0l-2,0.6
	l-1.1-1.9l-0.2-2.6c0-0.2-0.2-0.4-0.4-0.5l-1.8-0.5l-2.1-2.4v-2.6l0.1-0.1l5.2-3.8c0.1,0,0.1-0.1,0.2-0.2L128.8,82.9z"/>
<path id="divi-25154" class="st0" d="M163.6,86.1l0.1,1.1c0,0.1,0.1,0.2,0.2,0.3l1.8,2l0.5,2.9c0,0.1,0,0.2,0.1,0.2l2,2.6
	c0.1,0.1,0.2,0.2,0.3,0.2l0.8,0.2l-0.7,1.9l-2.3,2.7l-4.5,2.1c-0.2,0.1-0.3,0.2-0.3,0.4c0,0.2,0,0.4,0.2,0.5l2.5,2.4
	c-0.1,0.1-0.1,0.3,0,0.4l0,0l-3.2,3.1l0,0l-2.7,2.8l-3.4,3.4l-1.7-2.2l-2.6-4.5c-0.1-0.1-0.1-0.2-0.2-0.2l0.8-1.1c0,0,0-0.1,0.1-0.2
	l1.4-3.9c0.1-0.3,0-0.5-0.2-0.7l-3.4-2.3l-0.6-1.9l2-1.7c0.1-0.1,0.2-0.3,0.2-0.4V95c0-0.1-0.1-0.3-0.2-0.4l1.2-0.8l0.1-0.1l2.6-2.8
	h2.4c0.2,0,0.4-0.1,0.5-0.3c0.1-0.2,0.1-0.4,0-0.6l3.2-3.6c0.1,0,0.1,0,0.2,0L163.6,86.1z"/>
<path id="divi-25394" class="st0" d="M95.9,86.3l2.7,0.2l0.3,5.5c0,0.3,0.2,0.5,0.5,0.5l2.4,0.2l0.5,3.4l0.3,2.8l-0.3,2.8
	c0,0.2,0,0.3,0.2,0.5l2.1,2.1l-0.2,4.1l-0.5,0.3l-1.5-2.1l-0.1-0.1l-3-2.7c-0.2-0.2-0.5-0.2-0.8,0l-2.1,1.8
	c-0.1,0.1-0.1,0.1-0.2,0.2l-1.2,2.6l-5.7,0.3c-0.2,0-0.3,0.1-0.4,0.2s-0.1,0.3-0.1,0.5l-1.9-0.4l-0.1-0.4l3.9-4.6
	c0.1-0.1,0.1-0.2,0.1-0.3l0.2-2.8l1.5-2.8l0,0l1.2-2.5c0.1-0.3,0-0.6-0.2-0.7l-2-1.6l0.1-1.6l2.1-2.6l0,0l1.9-2.5l0,0
	C95.8,86.4,95.8,86.3,95.9,86.3L95.9,86.3z"/>
<path id="divi-25823" class="st0" d="M99.8,86.9l2.4,1.8l5.1,3.8c0.1,0.1,0.3,0.1,0.4,0.1l6.2-0.5l0,0L119,92v2.8
	c0,0.1,0.1,0.3,0.2,0.4l2.3,2.7l-1.5,2.2c-0.1,0.1-0.1,0.3-0.1,0.5l0.9,3.5l0,0l0,0h-3.1h-0.1h-0.1l0,0l-0.8-2.9
	c0-0.2-0.2-0.3-0.3-0.4c-0.1-0.1-0.3-0.1-0.5,0l-2.8,1.3l-3.2-0.9l-2.3-2.9c-0.1-0.2-0.3-0.2-0.5-0.2l-3.1,0.4l-0.3-2.4l-0.5-3.9
	c0-0.3-0.3-0.5-0.5-0.5l-2.3-0.2L99.8,86.9z"/>
<path id="divi-25653" class="st0" d="M138.9,88l5.5,5.1c0,0,0.1,0,0.1,0.1l4.1,2.5c0.2,0.1,0.4,0.1,0.6,0l0.3-0.2v0.7l-2.1,1.8
	c-0.2,0.1-0.2,0.4-0.2,0.6l0.7,2.5c0,0.1,0.1,0.2,0.2,0.3l3.2,2.2l-1.2,3.3l0,0l-2,2.8l-4.8,1.2c-0.1,0-0.3,0.1-0.3,0.3l-1.3,2.1
	l-2.7-1.8c-0.1,0-0.1-0.1-0.2-0.1l-4.2-1.1c-0.1,0-0.2,0-0.2,0l-1.5,0.3h-0.2h-0.1h-0.1l-1.1,0.2l-1.5-2l-0.1-0.1l-2.6-1.8l-0.7-3.7
	l1.5-0.4c0.1,0,0.1-0.1,0.2-0.1l4.1-2.8l0.1-0.1l2.5-3.2h0.1l1.7-1.2c0.1-0.1,0.2-0.2,0.2-0.4c0-0.2,0-0.3-0.1-0.4l-1.7-1.8l0.7-1.9
	l0,0l1.6-2.3L138.9,88z"/>
<path id="divi-25320" class="st0" d="M64,91.5c0.1,0.1,0.2,0.2,0.3,0.2l4.2,1.5c0.1,0,0.3,0,0.4,0l0.9-0.4l1.8,2.9v0.1l0.8,3.4
	l-1.2,2.8c0,0.1,0,0.1,0,0.2l-0.2,2.9l-1,0.6c-0.2,0.1-0.4,0.4-0.3,0.7l0.5,2.1c0,0.1,0.1,0.2,0.2,0.3l1,0.7l-1,1.1
	c-0.1,0.1-0.1,0.2-0.1,0.3l-0.5,4.1c0,0.2,0.1,0.4,0.2,0.5l2.3,1.8c0.1,0.1,0.2,0.1,0.3,0.1l4.9,0.2l0,0l3.6,0.4l-0.2,0.3
	c-0.1,0.1-0.1,0.2-0.1,0.3l0.2,2.3c0,0.1,0,0.2,0.1,0.2l1,1.8l-0.1,1l-3-0.2c-0.2,0-0.3,0.1-0.4,0.2s-0.2,0.3-0.2,0.4l0.2,7.6
	c-0.3,0-0.5,0.3-0.5,0.6l0.5,11.5l-2.8-1.4l0,0l-4.2-2.3c-0.1,0-0.1-0.1-0.2-0.1l-4.9-0.9c-0.1,0-0.2,0-0.3,0l-4.4,1.5l-2.1-2.2
	c-0.1-0.1-0.3-0.2-0.5-0.2l-2.1,0.4c-0.2-0.2-0.4-0.3-0.7-0.2l-1.2-1.7c0.1-0.1,0.1-0.3,0-0.4s-0.2-0.3-0.3-0.3h-0.1l3.9-10.9
	c0-0.1,0-0.2,0-0.3l-0.9-8.6c0.3-0.1,0.4-0.4,0.4-0.7l-1.5-9.3c0.2-0.1,0.4-0.3,0.4-0.5s-0.1-0.5-0.4-0.6l0.8-2.2V103L64,91.5z"/>
<path id="divi-25843" class="st0" d="M171.8,95.2l0.5,0.3l0.1,0.1l2.7,2.7c0.1,0.1,0.2,0.1,0.3,0.2l2.7,0.5l0,0
	c0.1,0.1,0.1,0.1,0.2,0.2l2.4,1l-0.8,3.7l-2.4,2.2l-0.1,0.1l-2.5,1.6h-0.1c0,0-0.1,0-0.1,0.1c0,0-0.1,0-0.1,0.1l-0.1,0.1h-0.1
	l-4.5-2.5c-0.1,0-0.2-0.1-0.2-0.1l-4.2-0.2l-2.4-2.3l3.8-1.8c0.1,0,0.1-0.1,0.2-0.2l2.5-2.8c0-0.1,0.1-0.1,0.1-0.2l0.8-2.3
	c0.1,0,0.1,0,0.2-0.1L171.8,95.2z"/>
<path id="divi-25407" class="st0" d="M201.4,95.7l1.3,2.5c0,0-0.1,0-0.1,0.1l-1.4,1.1c-0.1,0.1-0.1,0.1-0.2,0.2l-1.2,2.4v0.1
	l-2.3,2.3l-1.3,0.6l-1.9,0.4c-0.2,0-0.3,0.1-0.4,0.2l-1.4,2.3c-0.1,0.1-0.1,0.3-0.1,0.4l0.6,3.3c-0.2,0.1-0.2,0.3-0.2,0.5l0,0
	l-0.3,0.2l-2.3-1.4l0,0l-3.2-1.5l0,0l-2.6-2.6c0,0-0.1,0-0.1-0.1l-2.8-1.9l0.9-4.2l3.3-1.6l2.5,1.9c0.1,0.1,0.3,0.1,0.5,0.1l4.1-1.1
	c0,0,0.1,0,0.1-0.1l4.4-2.2h0.1l3.5-1.4L201.4,95.7z"/>
<path id="divi-25871" class="st0" d="M122.4,98.2l0.8,0.2l0.2,2.3c0,0.1,0,0.2,0.1,0.2l1.4,2.5c0.1,0.2,0.3,0.3,0.5,0.3l0.6,3.8
	c0,0.2,0.1,0.3,0.2,0.4l2.8,1.9l1.5,1.9l-0.6,0.3l0,0l-3.8,1.2c-0.2,0.1-0.3,0.2-0.4,0.4l-0.8,2.5l-1.1-0.7l-0.8-3.2l0.9-5.4
	c0-0.2,0-0.3-0.2-0.5l-1.6-1.8v-0.1l-1-4L122.4,98.2z"/>
<path id="divi-25258" class="st0" d="M106.7,99.1l2.3,2.8c0.1,0.1,0.2,0.2,0.3,0.2l3.5,1.1c0.1,0,0.3,0,0.4,0l2.4-1.1l0.7,2.7
	c0,0.2,0.2,0.3,0.4,0.4l-0.4,1.6c0,0.1,0,0.1,0,0.2l0.6,3.2l-1.4,1.4l-3.4,0.8c-0.3,0.1-0.4,0.3-0.4,0.6v2.3l-2.9,0.4l-1.8-0.4l0,0
	c-0.2-0.3-0.5-0.3-0.8-0.2l-1-0.2c-0.1,0-0.1,0-0.2,0l-3.9,0.4l0.4-3l1.8-2.1l0.7-0.4l0,0l0,0l0.1-0.1l0,0l1.1-0.6
	c0.2-0.1,0.3-0.3,0.3-0.5l0.2-4.6c0-0.2,0-0.3-0.2-0.4l-2.1-2.1l0.2-1.9L106.7,99.1z"/>
<path id="divi-25873" class="st0" d="M202.8,99.5l0.1,1.3c0,0.2,0.1,0.3,0.2,0.4l1,0.8c0,0.1,0.1,0.2,0.1,0.2l4,4l2.5,4.1l0.5,1.5
	c0.1,0.2,0.3,0.4,0.5,0.4l0,0l0.7,5.2l0,0l1.1,4.8c0,0.1,0,0.1,0.1,0.2l1.4,2.3c0.1,0.1,0.2,0.2,0.3,0.2l-0.5,0.8h-2.3l-2.5-1.8
	c-0.1-0.2-0.2-0.3-0.4-0.3c0,0,0,0-0.1,0l-0.8-0.6c0,0,0,0-0.1-0.1l-4.8-2.4l0,0l-6.6-4.2l-3.2-4.1l0,0c0-0.1,0-0.1,0-0.2l-0.7-3.9
	l1.2-1.8l1.7-0.3c0,0,0.1,0,0.1-0.1l1.6-0.7c0.1,0,0.1-0.1,0.2-0.1l2.5-2.5l0.1-0.1l1.2-2.3L202.8,99.5z"/>
<path id="divi-25398" class="st0" d="M98.9,104.9l2.7,2.3l1.3,1.9l-0.3,0.2c-0.1,0-0.1,0.1-0.2,0.1l-1.9,2.3
	c-0.1,0.1-0.1,0.2-0.1,0.3l-0.4,3.2c-0.1,0.1-0.1,0.2-0.1,0.2l-0.9,4v0.1l-2,3.9l-3.8,1.3l-1.4,0.1l0,0c-0.2-0.1-0.4-0.1-0.6,0
	l-1,0.1V122l1.4-1.6c0.1-0.1,0.1-0.2,0.1-0.3l0.5-3.7l1.3-0.4c0.3-0.1,0.4-0.4,0.4-0.6l-0.3-3.3c0-0.2-0.1-0.3-0.2-0.4l-1.4-1l0,0
	l-1.1-1l4.7-0.3c0.2,0,0.4-0.1,0.5-0.3l1.3-2.7L98.9,104.9z"/>
<path id="divi-25513" class="st0" d="M117.8,105.1h3.1l1.6,1.8l-0.8,5.2c0,0.1,0,0.1,0,0.2l0.9,3.6c0,0.1,0.1,0.3,0.2,0.3l1.9,1.2
	c0.1,0.1,0.3,0.1,0.5,0.1s0.3-0.2,0.4-0.4l1-2.9l3.6-1.1h0.1l2.5-1.2l1.7-0.3l4.1,1l2.1,1.4c0,0.1,0.1,0.2,0.2,0.2l2.3,2.1v2.3
	c-0.1,0.1-0.2,0.2-0.2,0.4l-0.2,2.4l-1.7,0.3c-0.2,0-0.4,0.2-0.4,0.3l-1.1,2.4l0,0l-1.8,3.5c0,0.1-0.1,0.2-0.1,0.3l0.3,3.4h-0.4
	h-0.1c-0.1-0.1-0.2-0.1-0.4-0.1h-0.2h-0.5c-0.2,0-0.4,0-0.5,0.2l-0.4,0.1c-0.1-0.1-0.3-0.1-0.4-0.1c-0.2,0-0.3,0.1-0.4,0.2l0,0
	l-2.1,0.3c-0.2,0-0.4,0.1-0.4,0.3l-1.1,2.3l-1.6,0.9l0,0l-1.3-1.6l-2.3-2.8l-1.3-3.2c-0.1-0.2-0.2-0.3-0.4-0.3l-5-1.4l0.2-1.2
	c0-0.1,0-0.1,0-0.2l-0.2-2.8c0-0.2-0.2-0.5-0.4-0.5l-2.5-0.9l0,0l-4.7-1.4l-1.1-2.7l0,0l1.7-0.2c0.3,0,0.5-0.3,0.5-0.6v-2.4l3.1-0.8
	c0.1,0,0.2-0.1,0.3-0.2l1.8-1.8c0.2-0.1,0.2-0.3,0.2-0.5l-0.7-3.4L117.8,105.1z"/>
<path id="divi-25224" class="st0" d="M180.1,105.4l3.2,2.1l2.6,2.6c0,0.1,0.1,0.1,0.2,0.1l3.3,1.6h0.1l1.9,1.2l-0.5-0.1
	c-0.1-0.1-0.3-0.1-0.4,0h-0.1l-2-0.2c-0.1,0-0.1,0-0.2,0l-5.1,1.2c-0.1,0-0.1,0-0.2,0l-3.2,1.8c-0.1,0-0.1,0.1-0.2,0.2l-1.8,2.5
	l-3.5,0.7l-3.6-0.8c0-0.1-0.1-0.1-0.2-0.2l0.3-2.2l2-0.9c0.1-0.1,0.3-0.2,0.3-0.3l0.7-2l1.5-1.5c0,0,0,0,0.1,0l0,0c0,0,0,0,0.1,0
	v-0.1l0.1-0.1h0.1c0.2-0.2,0.2-0.6,0-0.8l0.1-1.2l2.6-1.7c0,0,0,0,0.1-0.1L180.1,105.4z"/>
<path id="divi-25781" class="st0" d="M165.6,106.5l4,0.1l4.7,2.6c0,0,0.1,0,0.2,0.1l-0.1,0.9l-1.6,1.6c-0.1,0.1-0.1,0.2-0.2,0.2
	l-0.6,2l-2.1,1c-0.2,0.1-0.3,0.2-0.3,0.4l-0.4,2.6l-2.8-0.8l-4.2-7.3L165.6,106.5z"/>
<path id="divi-25851" class="st0" d="M85.8,109.4c0.1,0.2,0.2,0.4,0.4,0.4l3.9,0.9c0.1,0,0.1,0,0.2,0l0,0l0.8,0.7l0,0l1.2,0.9
	l0.3,2.7l-1.2,0.4c-0.2,0.1-0.3,0.3-0.4,0.5l-0.5,3.9l-1.3,1.4l-2.7-0.2c-0.2,0-0.4,0.1-0.5,0.2l-1.8,2.6l-0.8,0.1l0.1-1.3
	c0-0.1,0-0.2-0.1-0.3l-1-1.8l-0.2-2l0.4-0.7l0,0c0.2,0,0.4-0.1,0.6-0.3c0.1-0.2,0.1-0.4,0-0.6l1.1-1.8c0-0.1,0.1-0.2,0.1-0.2
	l0.3-4.9L85.8,109.4z"/>
<path id="divi-25793" class="st0" d="M149.7,109.5l2.6,4.5c0,0,0,0,0.1,0.1l2.1,2.7c0.1,0.1,0.2,0.2,0.4,0.2s0.3,0,0.4-0.2l3.9-3.9
	l2.1-2.2l4.1,7.2c0.1,0.1,0.2,0.2,0.3,0.2l3.6,1l-0.1,1.9l-1,1.2l-3.3,0.3c-0.1,0-0.3,0.1-0.3,0.2l-2,1.9c-0.1,0-0.2,0-0.3,0
	l-4.1-1.4h-0.1l-5.2-0.8l-4.2-2.3c0,0,0,0-0.1,0l-4.4-1.8V116c0-0.2-0.1-0.3-0.2-0.4l-1.6-1.4l1.3-2.2l4.8-1.2
	c0.1,0,0.2-0.1,0.3-0.2L149.7,109.5z"/>
<path id="divi-25183" class="st0" d="M193.2,112.9l3.2,4.1c0,0.1,0.1,0.1,0.1,0.2l6.8,4.2l0,0l4.8,2.5l0.8,0.5l-0.2,3.2
	c-0.2,0.1-0.4,0.3-0.4,0.5l0,0l-1,0.3l-0.3-3.2c0-0.1-0.1-0.2-0.2-0.3l-2.8-2.8c-0.2-0.2-0.4-0.2-0.7-0.1l-2.3,1.2
	c-0.1,0-0.1,0.1-0.2,0.2l-2.8,3.7v0.1l-3.9,4c0,0-0.1,0.1-0.1,0.2l-2.8,6l0,0L189,140c-0.2,0-0.4,0.1-0.6,0.3l-4.1-0.6l-3.1-1
	l-0.6-1.9l2.7-2.5c0.1-0.1,0.2-0.2,0.2-0.4l0.3-4.6c0-0.1,0-0.2,0-0.3l-2.3-5.3l0,0l-0.4-1.8h3.4c0.1,0,0.2,0,0.3-0.1l3.7-2
	c0.1,0,0.2-0.1,0.2-0.2l1.8-3.2c0-0.1,0.1-0.1,0.1-0.2l0.4-2.3l0.9,0.1c0.2,0,0.3,0,0.4-0.2l0.7-0.7
	C193.1,113.2,193.2,113.1,193.2,112.9L193.2,112.9z"/>
<path id="divi-25772" class="st0" d="M188.3,113.8l1.5,0.2l-0.4,2.1l-1.7,3l-3.4,1.8h-3.9c-0.2,0-0.3,0.1-0.4,0.2s-0.2,0.3-0.1,0.5
	l0.5,2.7v0.1l2.2,5.2l-0.3,4.2l-2.1,2v-1.2c0-0.1,0-0.2-0.1-0.3l-1.1-1.9c-0.1-0.2-0.3-0.3-0.5-0.3l-3.9-0.3c-0.1,0-0.2,0-0.2,0
	l-2.7,1.1c-0.1,0-0.1,0.1-0.2,0.1l-2.8,2.7c0-0.2-0.1-0.4-0.3-0.5l0,0v-0.1l0.5-1.9l1.7-2.1c0.1-0.1,0.1-0.1,0.1-0.2l0.7-2.1
	c0.1-0.2,0-0.5-0.2-0.6l-1.1-1l0.8-2.3c0.1-0.2,0-0.4-0.1-0.6l-1.4-1.5l0.7-0.9c0.1-0.1,0.1-0.2,0.1-0.3l0.1-2l3.4,0.7
	c0.1,0,0.1,0,0.2,0l3.9-0.7c0.1,0,0.3-0.1,0.4-0.2l1.9-2.6l3.1-1.7L188.3,113.8z"/>
<path id="divi-25489" class="st0" d="M105,116.1L105,116.1l0.3,0.1l-2.8,3.9c0,0,0,0,0,0.1l-2.7,4.4c-0.1,0.1-0.1,0.2-0.1,0.4
	l0.2,1.6l-4.6-0.2c-0.3,0-0.5,0.2-0.6,0.4l-1.7,4.6l-1.6,0.2l-0.6-1.9l0.9-3.8l1.4-0.1c0.1,0,0.1,0,0.2,0l4.1-1.4
	c0.1-0.1,0.2-0.2,0.3-0.3l2.1-4.2c0-0.1,0-0.1,0-0.2l0.7-3.3L105,116.1z"/>
<path id="divi-25862" class="st0" d="M106.6,116.4l2,0.5c0.1,0,0.1,0,0.2,0l0.8-0.1c0,0.1,0,0.2,0,0.3l1.2,3
	c0.1,0.2,0.2,0.3,0.4,0.3l4.9,1.4l0,0l2.1,0.8l0.1,2.5l-0.3,1.3l-4.8,0.2c-0.2,0-0.3,0.1-0.4,0.2l-2.5,2.5l-0.1,0.1l-0.6,1.2l0,0
	c-0.2,0.1-0.3,0.3-0.3,0.6l-1.8,3.3l-2,0.3l0.3-3c0-0.2-0.1-0.4-0.3-0.5l-2.2-1.2l-2-2.6c0.1-0.1,0.1-0.3,0.1-0.5s-0.1-0.3-0.3-0.4
	L101,125l2.5-4.2l0,0L106.6,116.4z"/>
<path id="divi-25200" class="st0" d="M144.1,119.6l4.1,1.7l0,0l4.2,2.3c0.1,0,0.1,0.1,0.2,0.1l5.2,0.9h0.1l3.7,1.3l-3.7,6.9
	l-2.1,3.8l-4.5-1.3l0,0l-4.2-0.8l-0.1-0.9l2-2.3c0.1-0.1,0.2-0.3,0.2-0.4l-0.4-5.8c0-0.3-0.2-0.5-0.5-0.5l-4.4-0.8L144.1,119.6z"/>
<path id="divi-25592" class="st0" d="M86.8,122.3l2.2,0.1v3.2c0,0.2,0.1,0.3,0.2,0.4s0.3,0.2,0.4,0.2l1.2-0.1l-0.9,3.6
	c0,0.1,0,0.2,0,0.3l0.5,1.8l-10.3,0.3l-0.2-7.1l2.6,0.2c0.1,0.1,0.3,0.2,0.5,0.2l1.8-0.2c0.2,0,0.3-0.1,0.4-0.2L86.8,122.3z"/>
<path id="divi-25899" class="st0" d="M142.7,122.5l-0.1,1.6c0,0.3,0.2,0.5,0.5,0.6l4.5,0.8l0.3,5.1l-2,2.3c-0.1,0.1-0.1,0.3-0.1,0.4
	l0.2,1.6c0,0.2,0.2,0.4,0.4,0.5l4.6,0.9h0.1l4.9,1.4c0.3,0.1,0.5,0,0.7-0.3l0.8-1.5l2.8,1.2l-1,1.2l-2.8,0.8c-0.2,0-0.3,0.2-0.4,0.3
	c-0.1,0.2-0.1,0.3,0,0.5l0.9,1.9l-0.5,1.3l-1.5-1.2c-0.1-0.1-0.2-0.1-0.3-0.1l-3.2-0.5c-0.3-0.1-0.6,0.1-0.7,0.4l-0.6,1.6l-1.9-0.6
	c-0.1,0-0.3,0-0.4,0l-3.9,1.8l0,0l-1-1.6c0-0.1-0.1-0.1-0.2-0.2l-4.4-3.2c0,0-0.1-0.1-0.2-0.1l-0.8-0.3l1.1-1
	c0.1-0.1,0.2-0.2,0.2-0.4l0.3-3c0-0.2-0.1-0.4-0.2-0.5l-2.2-1.7h0.3l1.6,0.1c0.2,0,0.3,0,0.5-0.2c0.1-0.1,0.2-0.3,0.2-0.5l-0.3-3.8
	l1.7-3.5l0,0l0.9-2.2L142.7,122.5z"/>
<path id="divi-25426" class="st0" d="M203.5,123.3l2.4,2.4l0.3,3.7c0,0.2,0.1,0.3,0.3,0.4s0.3,0.1,0.5,0.1l1.5-0.4l0.8,4.2
	c0,0,0,0,0,0.1l0.3,0.8l-1.5,1.7l0,0l-2.5,1.5l-0.1,0.1l-4.8,5.2l0,0l-2.2,3.1l-2.2,1.6l-6.6,0.7h-0.1l-0.1-0.1l-1.3-1l1.6-2.5
	c0.1-0.1,0.1-0.2,0.1-0.3l0.2-2.3c0-0.1,0-0.1,0-0.2l-0.2-1l2.6-3.1c0,0,0-0.1,0.1-0.1l2.8-5.9l0,0l3.8-4.1c0,0,0,0,0.1,0l2.7-3.6
	L203.5,123.3z"/>
<path id="divi-25486" class="st0" d="M168.8,123.4l1.1,1.2l-0.8,2.3c-0.1,0.2,0,0.4,0.2,0.6l1.1,1l-0.5,1.6l-1.7,2.1
	c-0.1,0.1-0.1,0.2-0.1,0.2l-0.5,2.3v0.1l-1.8,0.1c-0.1,0-0.2,0-0.2,0.1l-3.5,1.7l-4-1.8l1-1.8l3.8-7.1c0.1,0,0.3-0.1,0.3-0.2
	l2.2-2.2L168.8,123.4C168.7,123.5,168.7,123.5,168.8,123.4z"/>
<path id="divi-25807" class="st0" d="M210,125.3l2,1.4c0.1,0.1,0.2,0.1,0.3,0.1h2.8c0.2,0,0.4-0.1,0.5-0.3l0.3-0.6l0.8,1.6l0.6,3.8
	l-0.6,2.1v0.1l0,0v0.1l-0.1,0.2c-0.2-0.1-0.4-0.1-0.6,0.1c-0.2,0.1-0.2,0.4-0.2,0.6l-0.6,0.2c-0.1-0.1-0.3-0.1-0.5,0
	s-0.3,0.2-0.3,0.3l0,0l-2.4,1l-1.2-2.1c-0.1-0.1-0.2-0.2-0.4-0.3l0,0l-0.1-0.2l-0.8-4.4c0.2-0.1,0.3-0.3,0.3-0.5L210,125.3z"/>
<path id="divi-25491" class="st0" d="M95.8,127.6l4.4,0.2c0,0.1,0.1,0.1,0.1,0.2l2.3,3c0.1,0.1,0.1,0.1,0.2,0.2l2,1.1l-0.3,3
	l-2.2,1.2L99,136c-0.3,0-0.5,0.1-0.6,0.4l-0.3,1c-0.2-0.2-0.5-0.2-0.7,0s-0.3,0.4-0.2,0.7l0.1,0.2l-1.6,0.5L94,137l-1.2-4.3l1-0.1
	c0.2,0,0.4-0.2,0.5-0.4L95.8,127.6z"/>
<path id="divi-25777" class="st0" d="M119,127.6L119,127.6L119,127.6l4.7,1.3l1.3,3.1c0,0,0,0.1,0.1,0.1l2.3,2.8l1.2,1.4l-2.5,2.3
	l-3,0.3c-0.2,0-0.3,0-0.5,0.1l0,0l-0.6,0.1l-9.2-2.4l-2.1-5.5l0.6-1.2l0,0l2.2-2.3L119,127.6z"/>
<path id="divi-25402" class="st0" d="M109.9,132.6l1.6,4.1c-0.1,0.1-0.2,0.3-0.2,0.4l-1.6,1.3l-2.1,1.6l-1.8,1.2
	c-0.2,0.2-0.3,0.5-0.2,0.7l0.8,1.7l0.2,3.6c0,0.2,0.1,0.3,0.2,0.4l2.5,2l1.5,1.9l-2.8,2.6l0,0l-1.7,0.8l-3-1.1l-0.6-1.8
	c0-0.1-0.1-0.1-0.1-0.2l-2.8-3.4l0.3-6.5c0-0.1,0-0.2-0.1-0.3l-1.2-2.9c0,0,0,0,0-0.1l0.6-1.5l2.9,0.3c0.1,0,0.2,0,0.3-0.1l2.4-1.3
	c0,0,0,0,0.1,0l3-0.5c0.2,0,0.3-0.2,0.4-0.3L109.9,132.6z"/>
<path id="divi-25736" class="st0" d="M174.8,132.7l3.4,0.3l0.8,1.6v2.3c0,0.3,0.2,0.5,0.4,0.6l0,0l0.6,1.9c0.1,0.2,0.2,0.3,0.4,0.3
	l3.4,1.1c0,0,0,0,0.1,0l4.5,0.7l0.2,0.7l0,0l-0.2,2.1l-1.7,2.6l-3.4-0.2l-1.1-1.7c-0.1-0.2-0.3-0.3-0.5-0.2l-5.1,0.3l-2.9-1.5
	c-0.1,0-0.1-0.1-0.2-0.1l-4.3-0.4l1.2-1.5c0.1-0.1,0.1-0.3,0.1-0.4l-0.2-1.9v-0.1l-0.9-2.6l2.9-2.9L174.8,132.7z"/>
<path id="divi-25875" class="st0" d="M91.2,132.9L91.2,132.9h0.5l1.3,4.5c0,0.1,0.1,0.2,0.2,0.2l1.7,1.8l-3.2,1.6
	c-0.1,0-0.2,0.1-0.2,0.2L87,147l-3.1-0.2h-0.1l0,0h-0.3c-0.3,0-0.6,0.2-0.6,0.5l-0.7,0.7l-1.1-0.9l0,0l-0.9-1.6
	c0.1-0.1,0.2-0.3,0.1-0.5c0-0.2-0.2-0.3-0.3-0.4l0,0l-0.5-11.3L91.2,132.9z"/>
<path id="divi-25769" class="st0" d="M135.2,133l2.8,2.2l-0.3,2.5l-1.4,1.3c-0.2-0.1-0.4,0-0.6,0.1c-0.2,0.1-0.2,0.4-0.2,0.6l0,0
	l-0.2,0.1c-0.1,0.1-0.1,0.1-0.2,0.2l-1.1,2.3c0,0.1,0,0.1,0,0.2v6.4l-1.6,3.1l-2.5,1.7l0,0c-0.1,0-0.3,0.1-0.3,0.2l-1.1,0.7
	c-0.1,0-0.1,0.1-0.2,0.2l-0.9,1.5l-2.4,0.1l-1.9-2.8c-0.1-0.1-0.2-0.2-0.3-0.2l-3.8-0.9h-0.1l-3-0.9l0.3-1.5l4.2-2.2
	c0.2-0.1,0.3-0.3,0.3-0.5l-0.2-3.1l2.7-3c0.1-0.1,0.2-0.3,0.2-0.4v-0.8l2.8-0.3c0.1,0,0.2-0.1,0.3-0.1l2.8-2.5l0,0
	c0.1,0,0.2,0,0.2-0.1l2.1-1.2c0.1-0.1,0.2-0.1,0.2-0.2l1.1-2.2L135.2,133z"/>
<path id="divi-25436" class="st0" d="M210.3,135.3l0.9,1.5l-0.3,3.7c0,0.2,0,0.3,0.2,0.4l2.2,2.7l-1.1,0.5l-0.1,0.1l-2.3,2.1
	c-0.1,0.1-0.1,0.2-0.2,0.3l-1.1,4.6c0,0.1,0,0.1,0,0.2l-4.6,0.4l-3.2-2.8l-1.1-2.8l1.9-2.7v-0.1l4.6-5l0,0l2.6-1.6l0.1-0.1
	L210.3,135.3z"/>
<path id="divi-25295" class="st0" d="M167.9,136.1l0.3,0.7c0,0.1,0.1,0.2,0.2,0.2l0,0l0.8,2.4l0,0l0.1,1.7l-1.5,1.9
	c-0.2,0.1-0.3,0.2-0.4,0.3l-2.7,1.3c0,0-0.1,0-0.1,0.1l-0.9-0.9l0.6-1.8c0.1-0.2,0-0.3,0-0.5l-2-3.6l3.6-1.7L167.9,136.1z"/>
<path id="divi-25658" class="st0" d="M112.3,137.8l9.5,2.5c0.1,0,0.1,0,0.2,0h0.2v0.5l-2.7,3c-0.1,0.1-0.2,0.3-0.2,0.4l0.2,3
	l-4.1,2.1c-0.2,0.1-0.3,0.2-0.3,0.4l-0.7,2.9l-2.4,3.2l-2.3-1.3c-0.1,0-0.1-0.1-0.2-0.1h-0.2l2.7-2.3c0.2-0.2,0.2-0.5,0.1-0.8
	l-1.9-2.5l-0.1-0.1l-2.3-1.8l-0.2-3.4c0-0.1,0-0.2-0.1-0.2l-0.7-1.3l1.4-1l0,0l2.1-1.6L112.3,137.8z"/>
<path id="divi-25817" class="st0" d="M161,138.1l2.1,3.8l-0.6,1.9c-0.1,0.2,0,0.4,0.2,0.6l1.5,1.5l-1.7,3.6l0,0l-2.4,2.6l-3.3-2.8
	l0,0l-3.2-2.4l-0.8-2.2c-0.1-0.2-0.2-0.3-0.4-0.3l-0.9-0.2l0.5-1.4l2.6,0.4l2,1.7c0.1,0.1,0.3,0.2,0.5,0.1c0.2,0,0.3-0.2,0.4-0.3
	l0.9-2.3c0.1-0.1,0.1-0.3,0-0.5l-0.8-1.5l2.3-0.7c0.1,0,0.2-0.1,0.3-0.2L161,138.1z"/>
<path id="divi-25718" class="st0" d="M97.7,139.3l1.2,2.7l-0.3,6.6c0,0.1,0,0.3,0.1,0.4l2.9,3.5l0.7,1.9l-1.9,1.9l-2.8-0.9
	c0-0.1,0-0.2-0.1-0.3l-1.6-3.2c0-0.1-0.1-0.2-0.2-0.2l-3.9-2.7c-0.1-0.1-0.3-0.1-0.4-0.1l-3.5,0.7c-0.1,0-0.1,0-0.2,0l-0.4-1.6
	c0.2,0,0.3-0.1,0.4-0.2l4.5-5.9L96,140c0.2-0.1,0.3-0.3,0.3-0.5L97.7,139.3z"/>
<path id="divi-25168" class="st0" d="M59.2,139.7l2.1,2.2c0.2,0.2,0.4,0.2,0.6,0.2l4.6-1.5l4.8,0.8l4.2,2.3l0,0l3.1,1.5l-1.1,0.5
	c-0.1,0-0.1,0.1-0.2,0.1l-1.9,1.9c-0.1,0.1-0.2,0.3-0.2,0.4l0.2,3.1l-1.2,3.1l-5.2,0.5l-2.9-1.1l-3.3-4.1l0.4-1.1
	c0.1-0.1,0.1-0.3,0-0.4c-0.1-0.1-0.2-0.3-0.3-0.3l-5.1-1.9l-1-1.7l1.3-0.5c0.2-0.1,0.4-0.3,0.4-0.6v-1.8c0-0.1,0-0.2-0.1-0.2l-0.5-1
	c0-0.1,0-0.1,0-0.2L59.2,139.7z"/>
<path id="divi-25785" class="st0" d="M136.6,140.3l1.2,0.4l4.3,3.1l1.4,2.1l-1.7,1.3l-0.1,0.1L139,151c-0.1,0.1-0.1,0.3-0.1,0.5
	l-2,2.3l-4.4-0.4l0.7-0.5c0.1-0.1,0.1-0.1,0.2-0.2l1.8-3.3c0.1-0.1,0.1-0.2,0.1-0.3v-6.4l0.9-2.1L136.6,140.3z"/>
<path id="divi-25126" class="st0" d="M148.2,144.1l1.7,0.5l0,0c0,0.1,0,0.1,0,0.2l0,0l-0.6,2.7l0,0l-1.5,5.6l-0.6,0.2L144,154
	l-3.5-1.2l-0.3-1.3l0,0c0,0,0,0,0-0.1l2.3-3.3l2.1-1.5c0.2-0.2,0.3-0.5,0.1-0.8l-0.1-0.1L148.2,144.1z"/>
<path id="divi-25326" class="st0" d="M168.4,144.3L168.4,144.3l5,0.5l2.9,1.5c0.1,0,0.2,0.1,0.3,0.1l5-0.3l1.1,1.7
	c0.1,0.2,0.3,0.3,0.4,0.3l4.1,0.2l0,0l1.4,1.1l0,0l2.2,1.5l-1.1,3.5l-4.1,2.7c-0.1,0.1-0.1,0.1-0.2,0.2l-1.9,3.6l-2.2,1.5
	c-0.2-0.2-0.5-0.2-0.8,0l-1.5-1l-0.1-0.1l-6.1-5.8c-0.1-0.1-0.1-0.1-0.2-0.1l-10.1-4.3l0.8-0.8l0.1-0.1l1.9-4.1
	c0-0.1,0.1-0.2,0.1-0.3l2.8-1.3C168.3,144.3,168.3,144.3,168.4,144.3z"/>
<path id="divi-25662" class="st0" d="M55.7,144.6l1.2,2c0.1,0.1,0.2,0.2,0.3,0.2l4.8,1.8l-0.3,0.9c-0.1,0.2-0.1,0.4,0.1,0.6l3.6,4.4
	c0.1,0.1,0.1,0.1,0.2,0.2l3.2,1.2c0.1,0,0.2,0,0.3,0l4.2-0.4l-1.1,1.8c-0.1,0.1-0.1,0.2-0.1,0.3l0.3,3.4c0,0.1,0,0.1,0.1,0.2
	l1.2,2.3l0.5,2.5c0,0.2,0.2,0.4,0.4,0.4l1.8,0.6l-0.5,1.7l-5,4.1l-4.3,1.3l-4-1.7l-3-2.4l-0.2-4.7l2.9-1.8c0.1-0.1,0.2-0.2,0.3-0.4
	c0-0.2,0-0.3-0.2-0.5l-2.1-2.1c-0.1-0.1-0.2-0.1-0.2-0.2l-2.8-0.7c-0.2,0-0.3,0-0.5,0.1l-2.7,2l-1.3-2.9l2-4.7c0-0.1,0-0.1,0-0.2
	l0.3-4.8l0.1-1c0.2-0.1,0.3-0.3,0.3-0.5l-0.2-3L55.7,144.6z"/>
<path id="divi-25758" class="st0" d="M151,145.3l0.7,0.1l0.8,2c0,0.1,0.1,0.2,0.2,0.3l3.3,2.4l0,0l3.5,3l-0.8,2.2c0,0.1,0,0.1,0,0.2
	v3.8L156,161c-0.1,0.1-0.1,0.1-0.2,0.2l-2.1,3.7l-0.1,0.1l-3-0.2l-1.3-2c0.2,0,0.4-0.2,0.5-0.4l0.7-2.2l1.5-1.5
	c0.2-0.1,0.2-0.4,0.2-0.6l-0.9-3.7c0-0.1-0.1-0.1-0.1-0.2l-1.1-1.4c-0.1-0.2-0.4-0.2-0.6-0.2l-0.3,0.1l1.3-5l0,0L151,145.3z"/>
<path id="divi-25867" class="st0" d="M79.2,146l1,1.6l0.1,0.1l1.6,1.4c0.2,0.2,0.6,0.2,0.8,0l0.3-0.4l-0.3,1.1l-0.1,0.1l-2.1,3.1
	l-2.1,2.9l-0.1,0.1l-2.1,2.2c-0.1,0.1-0.2,0.3-0.2,0.4l0.5,7.2c0,0,0,0,0,0.1l-1.5-0.5l-0.5-2.2v-0.1l-1.2-2.4l-0.3-3.1l1.5-2.4
	c0.2,0,0.4-0.2,0.4-0.3l1.4-3.5c0-0.1,0-0.2,0-0.2l-0.2-2.9l1.6-1.6h0.1L79.2,146z"/>
<path id="divi-25297" class="st0" d="M198.6,147.3l1,2.4c0,0.1,0.1,0.2,0.2,0.2l3.6,3c0.1,0.1,0.3,0.1,0.4,0.1l5.5-0.5l1.7,0.9
	l0.2,4.1l-2.5,2.7c-0.1,0.1-0.1,0.2-0.2,0.3l-0.6,5.4l-4.4,0.7h-0.1l-2.3,0.9l-3.3-2.5l-2.4-3.1c-0.1-0.2-0.3-0.3-0.6-0.2l-3.8,0.7
	l-5.9-2.2l1.3-2.5l4.1-2.8c0.1-0.1,0.2-0.2,0.2-0.3l1.2-4.1c0.1-0.2,0-0.5-0.2-0.7l-0.9-0.7l5.4-0.6c0.1,0,0.2,0,0.3-0.1
	L198.6,147.3z"/>
<path id="divi-25328" class="st0" d="M84.6,148l1.5,0.1l1,3.6c0,0.1,0.1,0.2,0.2,0.3l2.2,1.8l0.8,3.4c0,0,0,0,0,0.1l1.1,2.7l-1.4,1
	l-2.9,1l-2.3-1.3v-4.3v-2.7c0-0.2-0.1-0.3-0.2-0.4l-1.9-1.4l0.9-1.4c0,0,0-0.1,0.1-0.1L84.6,148z"/>
<path id="divi-25019" class="st0" d="M91.3,150.1l3.6,2.4l1.4,2.7l-1.8,2.2c-0.1,0.2-0.2,0.4-0.1,0.6l1.1,2.1l-2.9-0.7
	c-0.1,0-0.1,0-0.2,0l0,0l-1.1-2.8l0,0v-0.1l-0.9-3.4c0-0.1-0.1-0.2-0.2-0.3l-2.1-1.8l-0.1-0.4c0,0,0,0,0.1,0L91.3,150.1z"/>
<path id="divi-25322" class="st0" d="M161.7,151.9l10.4,4.4l6.1,5.8c0,0,0,0,0.1,0.1l2.2,1.6l0.5,2.3v0.1l1.8,5.2l-2.1,2.2l-5.5,0.7
	c-0.2,0-0.3,0.1-0.4,0.2c-0.1,0.1-0.1,0.3-0.1,0.4l0.4,3.1l0,0l-0.1,2.1l0,0c-0.2,0-0.4,0.1-0.5,0.2l-2.8-0.3l-2-2.2
	c0,0,0,0-0.1-0.1l-4.8-3.9v-0.1l-2.5-3.8c-0.1-0.1-0.1-0.2-0.2-0.2l-4.6-1.9l0,0l-2.8-2.4l1.9-3.4l2.9-1.8c0.2-0.1,0.3-0.3,0.2-0.5
	v-4l0.9-2.6V153l0,0L161.7,151.9z"/>
<path id="divi-25260" class="st0" d="M115.7,152.8l3,0.9l0,0l3.7,0.8l1.6,2.3c-0.1,0.3,0,0.5,0.2,0.7l-1.7,2l-6.6,2.6l0,0l-1.7-1.4
	l-1-4.2c0,0,0-0.1-0.1-0.1l2.4-3.3c0-0.1,0.1-0.1,0.1-0.2L115.7,152.8z"/>
<path id="divi-25175" class="st0" d="M139.4,152.8l0.1,0.5c0,0.2,0.2,0.4,0.4,0.4l3.9,1.4c0.1,0,0.2,0.1,0.3,0l3.6-0.9l0.6-0.2h0.1
	c0.2,0,0.3,0,0.4-0.1l0.6-0.2l0.8,1l0.8,3.3l-1.4,1.4c-0.1,0.1-0.1,0.1-0.1,0.2l-0.6,1.8l-2.4-0.6l-3.4-1.2c-0.1-0.1-0.3-0.1-0.4,0
	l-2.1,0.9c-0.1,0-0.1-0.1-0.2-0.1L138,160l1.5-2.8c0.1-0.1,0.1-0.2,0.1-0.4l-0.3-2.5c0-0.3-0.2-0.5-0.5-0.5h-0.3L139.4,152.8z"/>
<path id="divi-25095" class="st0" d="M82.1,152.9l1.6,1.2v2.3v4.4c0,0.1,0,0.2,0,0.3v0.1l-2.1,1.8c-0.2,0.2-0.3,0.5-0.2,0.7l1,1.9
	l-0.5,0.4c-0.1,0.1-0.1,0.1-0.2,0.2l-0.6,1.5c-0.2-0.1-0.5-0.1-0.7,0.1l-2.6-1.8l-0.5-7.2l1.9-2.1c0,0,0,0,0-0.1l2.1-3l0,0
	L82.1,152.9z"/>
<path id="divi-25839_1_" class="st0" d="M212,153.8l6.6,0.5c0.2,0,0.5-0.1,0.6-0.4l7.6,0.7l1.4,2.4l2.1,3.5l1.2,4.3l0,0v1.3
	l-3.4,2.1l-0.1,0.1l-3.6,3.6l-5.2,1.9c0,0-0.1,0-0.1,0.1l-5.1,3.4l-4.2-1.2l0,0l-4.6-3.2l-2.5-4.8l0.8-0.3h0.1l4.7-0.7
	c0.2,0,0.4-0.2,0.5-0.5l0.7-5.7l2.5-2.7c0.1-0.1,0.2-0.3,0.2-0.4L212,153.8z"/>
<path id="divi-25799" class="st0" d="M131.6,154.5l5.5,0.6l1,0.1l0.2,1.8l-1.7,3.1l0,0c-0.2,0-0.3,0.1-0.4,0.3
	c-0.1,0.1-0.1,0.3,0,0.5l-0.1,0.2l-3.9,2.9l0,0l-3.7,2.4c-0.2,0.1-0.2,0.3-0.2,0.5l-0.2,2.8l-0.7-1.9c-0.1-0.2-0.2-0.3-0.4-0.4
	c-0.2,0-0.4,0-0.5,0.2l-1.3,1.5l-0.4-1.2c-0.1-0.2-0.2-0.3-0.4-0.4l-2.2-0.6l1.7-0.8c0.2-0.1,0.3-0.2,0.3-0.4l0.7-2.7l2.2-2.4
	c0.1-0.1,0.2-0.3,0.1-0.5l-0.3-2.7h0.8c0.2,0,0.4-0.1,0.5-0.3l1-1.7l1.2-0.8L131.6,154.5z"/>
<path id="divi-25269" class="st0" d="M103.2,155l2.9,1c0.1,0.1,0.3,0.1,0.4,0l1.5-0.7l1.3,0.2l2.7,1.6l1,4.2c0,0.1,0.1,0.2,0.2,0.3
	l1.8,1.5l-0.4,1.8l-1.2,2.3l-2.2-0.9c-0.1,0-0.2,0-0.2,0l-2.8,0.2c-0.2,0-0.4,0.2-0.5,0.4l-1.1,2.9l-1.5-0.2l-2.2-1.8l-0.1-0.1
	L99,166l0,0c0-0.2-0.2-0.4-0.4-0.4l0,0l-0.8-2.2l0,0v-0.1l-0.3-2.2c0-0.2-0.1-0.3-0.3-0.4l0,0l-1.4-2.8l1.2-1.5h0.1l3.4,1.1
	c0.2,0.1,0.4,0,0.6-0.2L103.2,155z"/>
<path id="divi-25430" class="st0" d="M125.5,157.6h0.3l0.3,2.5l-2.1,2.3c-0.1,0.1-0.1,0.2-0.1,0.2l-0.7,2.6l-2.6,1.2h-0.1
	c-0.3,0-0.6,0.2-0.6,0.5l0,0l-2.5,2.3c-0.1,0.1-0.1,0.2-0.2,0.2l-0.7,2.1c-0.1,0.2,0,0.4,0.1,0.6l1.3,1.3c0,0.1,0,0.2,0,0.3
	l-1.6,1.2c-0.1,0.1-0.2,0.2-0.2,0.3l-0.8,3.6l-4.9-2.9c-0.1-0.1-0.2-0.1-0.2-0.1v-0.5c0-0.2-0.1-0.3-0.2-0.4l-2.1-2.1l-0.8-1.9
	c0.1-0.1,0.3-0.2,0.3-0.3l1.1-3l2.3-0.1l2.6,1c0.3,0.1,0.6,0,0.7-0.3l1.4-2.8c0,0,0-0.1,0.1-0.1l0.5-2.1c0,0,0,0,0.1,0l6.7-2.7
	c0.1,0,0.2-0.1,0.2-0.2l2.1-2.7C125.5,157.7,125.5,157.7,125.5,157.6z"/>
<path id="divi-25040" class="st0" d="M92.2,160.6L92.2,160.6c0.1,0.1,0.2,0.1,0.3,0.1l3.8,0.8l0.3,2.1v0.1l1,2.7l-0.8,1.7l-1.1,0.9
	l0,0c-0.2,0-0.5,0.2-0.5,0.4l-0.9,0.7l0,0l-0.1,0.1l-3.6,1.7c-0.1,0-0.1,0.1-0.2,0.1l-2.4,2.8l-5.3-0.4v-0.1c0-0.1,0-0.2,0-0.2
	l-1-4.8c0.1-0.1,0.2-0.2,0.3-0.3l0.8-2l0.8-0.6c0.2-0.2,0.3-0.5,0.1-0.7l-1-1.9l1.9-1.6c0,0,0,0,0.1-0.1l2.1,1.2
	c0.1,0.1,0.3,0.1,0.5,0l3.2-1.1c0.1,0,0.1-0.1,0.2-0.1L92.2,160.6z"/>
<path id="divi-25086" class="st0" d="M57.1,160.9l2.4,0.6L61,163l-2.5,1.6c-0.2,0.1-0.3,0.3-0.3,0.5l0.2,5.3c0,0.2,0.1,0.3,0.2,0.4
	l0.1,0.1l-4.1,1.8c-0.1,0-0.1,0.1-0.2,0.1l-2.7,2.7c-0.1,0.1-0.1,0.1-0.1,0.2l-1.2,3.7c0,0.1,0,0.2,0,0.2l0.5,4.2
	c0,0.1,0,0.2,0.1,0.2l1.7,2.3v0.1l0.5,1.3l-1.3,2.5l-0.1,0.1l-0.8,0.9l-5.4-0.5v-2.3l2.2-3.4c0.1-0.1,0.1-0.3,0.1-0.4l-0.7-3.7
	c0-0.1,0-0.1-0.1-0.2l-2.4-4.4l0.8-2.8l5.8-3.6c0.1,0,0.1-0.1,0.2-0.2l3-4.1c0.1-0.1,0.1-0.3,0.1-0.5l-0.5-2.5L57.1,160.9z"/>
<path id="divi-25214" class="st0" d="M137.3,161.3l2.1,0.3c0,0.1,0.1,0.2,0.2,0.3l0.1,2.2l-2.6,1.1c-0.1,0-0.2,0.1-0.2,0.2l-2.8,3.9
	l-0.1,0.1l-1.5,4.4l-2.1,1.4l-1.2-3.5c0-0.1-0.1-0.1-0.1-0.2l0.3-4.5l3.5-2.3l0,0l4.1-3c0.1,0,0.1-0.1,0.2-0.2L137.3,161.3z"/>
<path id="divi-25372" class="st0" d="M184.5,161.3l6.2,2.3c0.1,0,0.2,0.1,0.3,0l3.6-0.7l2.2,2.9c0,0,0,0,0,0.1l-0.5,5.4l-2.2,2.5
	c-0.1,0.1-0.2,0.3-0.2,0.4l0.4,3c0,0.1,0,0.2,0.1,0.3l2.8,3.6l0.1,0.1l1,2l-2.4,3.4c0,0,0,0.1-0.1,0.1l-1.9,4.4
	c0,0.1-0.1,0.2-0.1,0.3l0.6,7.1l-2.8-1.5c-0.1,0-0.1-0.1-0.2-0.1l-2.2-2.7l-1.6-9.2c0-0.1-0.1-0.3-0.2-0.3l-5-4.1
	c-0.1-0.1-0.2-0.1-0.3-0.2l-6-0.4l0.1-2.1v-0.1l-0.3-2.6l5.1-0.7c0.1,0,0.3-0.1,0.3-0.2l2.5-2.7c0.1-0.2,0.2-0.4,0.1-0.6l-1.9-5.4
	v-0.1l-0.5-2.3l2.6-1.8C184.4,161.6,184.4,161.5,184.5,161.3L184.5,161.3z"/>
<path id="divi-25377" class="st0" d="M150.5,166l3.5,0.2l0,0l3,2.5l0.1,0.1l4.4,1.8l2.4,3.8l0.1,0.1l4.9,4l0.1,0.1l2.1,2.2
	c0.1,0.1,0.2,0.1,0.3,0.2l3.5,0.4l0.4,4.2h-0.2l0,0c-0.2-0.1-0.4-0.1-0.6,0l-2.9-0.2h-0.1l-4.2,0.7l0,0l-3.7,0.7
	c-0.2,0-0.3,0.2-0.4,0.3l-1.3,2.7l-1.5,0.8l-2.8-1.7l-0.2-2.7c0-0.3-0.3-0.5-0.6-0.5l-4.8-0.2l-2.8-5.6l-0.4-10L150.5,166z"/>
<path id="divi-25299" class="st0" d="M197.9,166.8l2.6,1.9c0.2,0.1,0.4,0.1,0.6,0.1l0.6-0.2l2.6,4.9c0,0.1,0.1,0.2,0.2,0.2l4.3,3.1
	l-0.4,0.5l-3,0.5c-0.3,0-0.5,0.3-0.5,0.5l-0.2,3.6l-1.2,0.7h-3.3c0-0.3-0.2-0.5-0.4-0.6s-0.5,0-0.6,0.2l0,0l-0.8-1.5
	c0,0,0-0.1-0.1-0.1l-2.8-3.6l-0.3-2.7l2.1-2.4c0.1-0.1,0.1-0.2,0.1-0.3L197.9,166.8z"/>
<path id="divi-25293" class="st0" d="M234.6,166.9l1.2,1.3l-1.8,1.6l-5.2,0.8c-0.1,0-0.3,0.1-0.4,0.2l-3.5,4.4
	c-0.1,0.1-0.1,0.3-0.1,0.4l1.1,6c0,0.2,0.1,0.3,0.3,0.4l1.5,0.9h-0.5h-0.1l-3.9,0.7c-0.1,0-0.1,0-0.2,0.1l-5.3,3.2
	c-0.1,0.1-0.2,0.2-0.2,0.3l-1.3,3.7l-2.3,0.3c-0.1,0-0.3,0.1-0.3,0.2l-2.7,2.8l-5.3,5.3c-0.1,0.1-0.1,0.2-0.2,0.2l-1,3.4l-2.8,0.6
	l-4-2.3l-2-2.4l-0.7-7.7l1.8-4.2l0,0l2.6-3.7h4.1c0.1,0,0.2,0,0.3-0.1l1.6-0.9c0.2-0.1,0.3-0.3,0.3-0.5l0.2-3.5l2.7-0.4
	c0.1,0,0.3-0.1,0.3-0.2l0.8-0.9l4.1,1.2c0.2,0.1,0.4,0,0.5-0.1l5.2-3.5h0.1h0.1l5.2-1.9c0.1,0,0.2-0.1,0.2-0.1l3.6-3.6l0.1-0.1l0,0
	l3.2-2c0.1,0,0.1,0,0.2,0L234.6,166.9z"/>
<path id="divi_x5F_25898" class="st0" d="M98.6,167.1l3.8,1.7l0,0l1.6,1.3l-1.1,2.3l-3.7,2.4l0,0l-1.1,0.8l0,0
	c-0.2,0-0.4,0.1-0.5,0.3c0,0,0,0,0,0.1l-1.7,1.2l-1.6-0.3l2.3-2.4c0.1-0.1,0.2-0.3,0.2-0.4l-0.3-4.2l1.3-1c0.1-0.1,0.1-0.1,0.2-0.2
	L98.6,167.1z"/>
<path id="divi-25596" class="st0" d="M77.7,167.3l2.6,1.8c0.1,0.1,0.2,0.1,0.2,0.1l0,0l1,4.9v0.2c-0.1,0.1-0.2,0.2-0.3,0.4
	c0,0.2,0,0.3,0.1,0.5l-0.4,2c0,0.1,0,0.3,0,0.4l1.5,3.1v1l-0.7,0.2l-1.8-1.6c-0.2-0.2-0.6-0.2-0.8,0l-2,1.9
	c-0.1,0.1-0.1,0.2-0.2,0.3l-0.5,2.6l-1.1,1.5l-1.1-0.3c0-0.3-0.3-0.5-0.6-0.5l-0.7-1.5c-0.1-0.1-0.2-0.2-0.3-0.3l-0.8-0.3
	c-0.1-0.2-0.2-0.4-0.5-0.4l0.9-1.6l1.4-2.3c0.1-0.2,0.1-0.5-0.1-0.7l-1.4-1.6l-0.2-3c0-0.2-0.1-0.3-0.3-0.4l4.8-4
	c0.1-0.1,0.2-0.2,0.2-0.3l0.6-1.9C77.5,167.4,77.6,167.4,77.7,167.3z"/>
<path id="divi-25286" class="st0" d="M120.8,167.7l3,0.8l0.6,1.8c0.1,0.2,0.2,0.4,0.4,0.4c0.2,0,0.4,0,0.6-0.2l1.3-1.5l1.2,3.6
	c0.1,0.2,0.3,0.3,0.5,0.4l0,0l1,3l-2.1,1.6l-0.2,0.1l0,0c-0.1,0-0.1,0-0.2,0.1c0,0-0.1,0-0.1,0.1l0,0l-0.5,0.3l-3.6-0.8l-2.2-0.8
	l-1-2.4l0.1-0.1c0.1-0.1,0.2-0.3,0.2-0.4s-0.1-0.3-0.2-0.4l-1.7-1.7l0.5-1.7L120.8,167.7z"/>
<path id="divi-25839" class="st0" d="M236.7,169.1l2.3,2.4l0,0l2.2,4.4c0.1,0.3,0.4,0.4,0.7,0.3l2.5-0.7c0.1,0,0.2-0.1,0.2-0.2
	l1.6-1.6l3.6,0.3l0.8,1.7l-2.5,3.8c-0.1,0.1-0.1,0.3-0.1,0.5c0.1,0.2,0.2,0.3,0.3,0.4l1.4,0.6v1l-3,1.1c-0.2,0.1-0.3,0.2-0.3,0.4
	l-0.6,3.2c-0.2,0-0.3,0.1-0.4,0.3l-1.8-0.4c-0.1,0-0.1,0-0.2,0h-4.7l-7.4-2.8h-0.1l-4.3-2.5l-1-5.5l3.2-4l5.1-0.9
	c0.1,0,0.2-0.1,0.3-0.1L236.7,169.1z"/>
<path id="divi-25123" class="st0" d="M95.3,170.7l0.2,3.2l-2.5,2.7c-0.1,0-0.1,0-0.2,0l-3,0.7c-0.1,0-0.2,0.1-0.2,0.2l-2.8,2.7h-3.2
	l-1.4-2.9l0.4-1.8l5.7,0.5c0.2,0,0.4,0,0.5-0.2l2.6-2.9l3.6-1.7c0,0,0.1,0,0.1-0.1L95.3,170.7z"/>
<path id="divi-25099" class="st0" d="M105,170.8l1.1,0.2l1.1,2.6c0,0.1,0.1,0.1,0.1,0.2l2,2v2.6c0,0.1,0,0.2,0.1,0.3l1.5,2.1
	l-0.3,3.3c0,0.1,0,0.3,0.1,0.4l1.8,2.6l-0.3,1.2l-2.2-0.5l-0.6-1.8c-0.1-0.2-0.2-0.3-0.3-0.4l-3.5-1.5l0,0c0-0.2-0.1-0.3-0.3-0.4
	c-0.2-0.1-0.3-0.1-0.5,0l0,0l-0.8-4c0-0.2-0.2-0.4-0.5-0.5l-3.8-0.6l0,0c0-0.1-0.1-0.2-0.2-0.3l0,0l-0.5-1.7l1-0.7l3.9-2.5
	c0.1-0.1,0.2-0.1,0.2-0.2L105,170.8z"/>
<path id="divi-25580" class="st0" d="M59.7,171.8L59.7,171.8l2.2,1.7c0,0,0.1,0,0.1,0.1l4.3,1.8c0.1,0,0.3,0,0.4,0l4.2-1.3
	c0,0,0,0,0,0.1l0.2,3.2c0,0.1,0.1,0.3,0.2,0.3l1.3,1.5l-1.2,1.9l-1.1,2l-1.5-0.3c-0.2,0-0.4,0-0.5,0.1l-2.2,2l-2.7,0.4l-1.9-2.2
	c-0.1-0.2-0.3-0.2-0.5-0.2s-0.4,0.2-0.4,0.3l-0.7,1.6h-3.5c-0.2,0-0.3,0.1-0.4,0.2l-1.4,1.8l0,0c-0.1,0-0.2-0.1-0.3,0l-0.2-0.7
	c0-0.1-0.1-0.1-0.1-0.2l-1.7-2.4l-0.5-4L53,176l2.4-2.4h0.1L59.7,171.8z"/>
<path id="divi-25530" class="st0" d="M272.3,172.5l0.3,0.9l-0.4,2.5c-0.2,0.1-0.3,0.2-0.3,0.4s0,0.4,0.2,0.5l0,0
	c0,0.1,0,0.3,0.1,0.4l0.1,0.1l-9.2,55.8v0.1c0,0.1,0,0.1,0,0.2l-0.6,3.2l-4.9-2.8l-5.6-4.9c-0.1-0.1-0.3-0.1-0.4-0.1l-2.6,0.3
	l-6.5-2.1h-0.1l-6.1-3c-0.1,0-0.2-0.1-0.3-0.1h-6.5c-0.1,0-0.1,0-0.2,0l-5,1.6l0.4-1.1l4.3-3.7l5.5-1.2c0.1,0,0.2,0,0.2-0.1l4.8-3.2
	l0,0l6.5-3.9l0.1-0.1l5.3-6.4c0.1-0.1,0.1-0.1,0.1-0.2l1.4-4.6c0,0,0,0,0-0.1l1.1-4.4c0.1-0.2,0-0.5-0.2-0.6l-3.4-2.5l0.2-2l1.4-1.4
	c0.1-0.1,0.2-0.3,0.2-0.5s-0.2-0.3-0.3-0.4l-4.9-2.3l0.5-3.2l3.1-1.1c0.2-0.1,0.4-0.3,0.4-0.6v-1.6l0.1-0.1c0.1,0.1,0.1,0.1,0.2,0.1
	l4.8,2h0.1l8.8,1.2c0.1,0,0.2,0,0.2,0l3.4-1.1c0.2-0.1,0.4-0.3,0.4-0.5l0.2-5l2-3.3v-0.1L272.3,172.5z"/>
<path id="divi-25473" class="st0" d="M118.5,175l1,2.4c0.1,0.1,0.2,0.3,0.3,0.3l2.5,0.9c0,0,0,0,0.1,0l3.9,0.9c0.1,0,0.3,0,0.4-0.1
	l0.2-0.1l0.7,2.9l-2.8,0.8c-0.1,0-0.1,0-0.2,0.1l-4.2,2.5l-4.2,2.4l-3.1,0.4l0.3-1.1c0-0.2,0-0.4-0.1-0.5l-1.8-2.7l0.3-3.3
	c0-0.1,0-0.3-0.1-0.4l-1.5-2.1v-0.9l5.3,3.2c0.2,0.1,0.4,0.1,0.5,0c0.2-0.1,0.3-0.2,0.3-0.4l0.8-4.2L118.5,175z"/>
<path id="divi-25386" class="st0" d="M97.8,177.2l0.5,1.5l-0.7,1.2l-2.2,1.7c-0.1,0-0.1,0.1-0.1,0.2l-2.1,3.7l0,0l-2.5,3.7
	c0,0,0,0,0,0.1l-1.2,2.3l-2.3,0.9h-0.3c-0.1-0.1-0.3-0.1-0.5-0.1h-0.1l-1.1-0.2l-2.5-2.5l0,0l-4.8-4.4c0,0-0.1,0-0.1-0.1l0.4-2.3
	l1.4-1.4l1.5,1.4c0.1,0.1,0.3,0.2,0.5,0.1l1.4-0.3c0.3-0.1,0.5-0.3,0.4-0.6l0,0V182v-0.7h3.3c0.2,0,0.3-0.1,0.4-0.2l2.9-2.7l2.6-0.6
	c0.1,0.1,0.2,0.1,0.2,0.1l2.8,0.5c0.2,0,0.3,0,0.4-0.1L97.8,177.2z"/>
<path id="divi-25797" class="st0" d="M99.1,179.7l3.7,0.6l0.8,4c0,0.1,0,0.1,0.1,0.2l-1.6,1.3l-3.2-1.4c-0.3-0.1-0.6,0-0.8,0.2
	l-2.2,3.5l-1.9,1.6l-2.7,0.7l0.3-0.6l2.4-3.7l0,0l2-3.5l0,0l2.2-1.8c0.1-0.1,0.1-0.1,0.2-0.2L99.1,179.7z"/>
<path id="divi-25279" class="st0" d="M176.1,181.3l5.8,0.4l4.7,3.8l1.6,9.2c0,0.1,0.1,0.2,0.1,0.2l2.3,2.8l-3.2,0.7
	c-0.1,0-0.3,0.1-0.3,0.2l-3.1,4l-0.1,0.1l-3.4,3.2c-0.2-0.1-0.5-0.1-0.7,0.1c-0.2,0.2-0.2,0.4-0.1,0.7l-3.4,3.2
	c-0.1,0.1-0.1,0.1-0.1,0.2l-1.7,4l-6.9,1c-0.1,0-0.2,0-0.2,0.1l-3.2,2.3c-0.1-0.1-0.2-0.2-0.3-0.3l-0.9-2.1l0.5-4.4
	c0-0.2-0.1-0.4-0.2-0.5l-0.5-3.5v-0.1l-1.6-4.2l1.2-2l5.1-3.2l0,0l4.8-3.3l0.1-0.1l2.5-3.4c0.1-0.1,0.1-0.2,0.1-0.3l0.3-3.3l0.7,0.1
	c0.2,0,0.3,0,0.5-0.2c0.1-0.1,0.2-0.3,0.2-0.5L176.1,181.3L176.1,181.3z"/>
<path id="divi-25368" class="st0" d="M68.8,183.9l1.1,0.2c0.1,0.1,0.2,0.2,0.3,0.2l1.9,0.7l0.7,1.4l-1.5,1.4
	c-0.2,0.1-0.3,0.2-0.4,0.3l0,0l-2.2,2.1c0,0,0,0-0.1,0.1l-4.1,5.2l-4.9,6l0,0l-4.6,4.6l-2.5-1.4h-0.1l-1.7-5.2v-0.1l-0.2-3.5
	l2.2-3.9c0.1-0.1,0.1-0.3,0.1-0.5s-0.1-0.3-0.3-0.4l0.2-0.2c0,0,0-0.1,0.1-0.1l1.2-2.2c0.1,0,0.3-0.1,0.4-0.2l2.1-2.6h3.6
	c0.2,0,0.4-0.1,0.5-0.3l0.5-1.1l1.5,1.8c0.1,0.2,0.3,0.2,0.5,0.2l3.2-0.5c0.1,0,0.2-0.1,0.3-0.2L68.8,183.9z"/>
<path id="divi-25438" class="st0" d="M227.2,184.2L227.2,184.2h2.3c0.1,0,0.1,0,0.2,0l1.2,0.7c0,0,0,0,0.1,0l7.6,2.8
	c0.1,0,0.1,0,0.2,0h4.8l2.7,0.7c0.2,0,0.4,0,0.5-0.1l3.9,1.9l-1,1c-0.1,0.1-0.2,0.2-0.2,0.4l-0.2,2.5c0,0.2,0.1,0.4,0.2,0.5l3.4,2.4
	l-1,4l0,0l-1.4,4.4l-5.2,6.2l-6.5,3.8l0,0l-4.7,3.1l-5.6,1.2c-0.1,0-0.2,0.1-0.2,0.1l-4.6,3.9c-0.1,0.1-0.1,0.2-0.2,0.2l-0.7,2
	l-0.3,0.1c-0.2,0-0.3,0.2-0.4,0.3c-0.1,0.2-0.1,0.4,0,0.5l-3.9,1.8l-3.9-1.3h-0.1l-4.5-2.6l0.1-0.2c0.1-0.3,0-0.6-0.3-0.8
	c-0.3-0.1-0.6,0-0.8,0.3l-0.7-5.3v-0.1l-2.5-8.2c0-0.1-0.1-0.2-0.2-0.2l-3.2-2.8l0,0l-0.2-2.6l0,0l2.9-0.6c0.2,0,0.4-0.2,0.4-0.4
	l1-3.6l5.2-5.2l0,0l2.5-2.7l2.5-0.3c0.2,0,0.4-0.2,0.5-0.4l1.3-3.8l5.1-3.1L227.2,184.2z"/>
<path id="divi-25645" class="st0" d="M104.7,185.1l3.6,1.5l0.6,1.9c0.1,0.2,0.2,0.3,0.4,0.4l1.3,0.3l-0.5,3.3v0.1l-0.5,1.2
	c0,0,0,0.1-0.1,0.2l-0.3,0.8l-1.9,2.5l-2.2-1c-0.1,0-0.1-0.1-0.2-0.1l-3.6-0.2l-0.1-1.2c0-0.1-0.1-0.2-0.1-0.3l-2.3-3.2l-1.5-3.1
	l1.6-2.6l3.1,1.4c0.2,0.1,0.5,0.1,0.6-0.1L104.7,185.1z"/>
<path id="divi-25035" class="st0" d="M77.2,186.1l4.7,4.3l2.7,2.6c0.1,0.1,0.2,0.1,0.3,0.2l0.8,0.1l-0.7,1.6c0,0.1-0.1,0.2-0.1,0.2
	l0.2,3.4c0,0.2,0.1,0.3,0.2,0.4l2.7,2.3l-1,2l-2.4,1.8l-3.1-1.6c-0.2-0.1-0.4-0.1-0.6,0l-0.2-0.3V203l-2.1-3.6v-0.1l-1.7-5.4
	l-1.4-4.1c0-0.1-0.1-0.2-0.1-0.2l-2.1-2.1l0.5-0.5l2,0.5c0.2,0.1,0.5,0,0.6-0.2L77.2,186.1z"/>
<path id="divi-25181" class="st0" d="M171.6,186.5L171.6,186.5l2.5,0.2l-0.3,3.1l-2.3,3.2l0,0l-4.6,3.2l-5.1,3.2
	c-0.1,0-0.1,0.1-0.2,0.2l-1.2,1.9l-6.3-1.4l-2.2-3.7c-0.1-0.2-0.3-0.3-0.4-0.3l-5-0.6l1.9-3.5l0,0l3.3-5.4l4.5,0.1l0.2,2.5
	c0,0.2,0.1,0.3,0.3,0.4l3.4,2c0.2,0.1,0.4,0.1,0.6,0l1.9-1.1c0.1-0.1,0.2-0.1,0.2-0.2l1.3-2.6l3.4-0.7L171.6,186.5z"/>
<path id="divi-25754" class="st0" d="M120.5,186.8l0.2,1c-0.2,0.1-0.3,0.3-0.3,0.5s0.1,0.4,0.3,0.5l2.2,1.1l2.5,4v0.1l1.4,6.4
	l-1,6.8l-3.3,5.1c0,0,0,0.1-0.1,0.1L121,216l0,0l-2-0.7c0.1-0.1,0.1-0.3,0.1-0.5s-0.1-0.3-0.3-0.4l-0.2-2.3l0.8-2.7l1.1-3.4v-0.1
	l0.5-4.1c0-0.1,0-0.2-0.1-0.3l-1.6-2.7c-0.1-0.2-0.3-0.3-0.6-0.3l-3.4,0.3c-0.1,0-0.2,0.1-0.3,0.2l-1.7,1.5l-0.2-4.3
	c0-0.2-0.1-0.3-0.2-0.4l-2.3-1.9l0.4-1v-0.1l0.5-3.4l0.4,0.1h0.1c0,0,0,0,0.1,0c0,0,0,0,0.1,0l0,0c0,0,0,0,0.1,0h0.1l0,0h0.1
	l3.9-0.5c0.1,0,0.2,0,0.2-0.1L120.5,186.8z"/>
<path id="divi_x5F_25599" class="st0" d="M72.3,188.5l2,2l1.4,4l1.8,5.5c0,0,0,0.1,0.1,0.1l2.1,3.7c0,0,0,0,0,0.1l1.8,2.4l-1.4,1.3
	l-3.2-2.2c-0.2-0.1-0.4-0.1-0.6-0.1c-0.2,0.1-0.3,0.2-0.3,0.4l-0.5,3.1c-0.1,0-0.3,0-0.4,0.1s-0.2,0.2-0.3,0.4l-1.5,0.1l-1.9-2.3
	c-0.2-0.2-0.4-0.2-0.6-0.2l-0.1-1.6c0-0.1,0-0.1,0-0.2l-1.2-3.2l0.8-7.9v-0.1v-0.1l1.7-4.9L72.3,188.5z"/>
<path id="divi-25245" class="st0" d="M96.4,189.2l1.3,2.7c0,0,0,0.1,0.1,0.1l2.2,3l0.1,1.2c-0.1,0.2-0.1,0.5,0,0.7v1l-1.9,1.7
	l-4.6,0.7c-0.1,0-0.2,0-0.2,0.1l-1.7,1l-2.7,0.5l0.2-0.4c0.1-0.2,0.1-0.5-0.1-0.7l-2.8-2.5l-0.2-2.9l0.8-1.8l0.3,0.1
	c0.1,0,0.2,0,0.3,0l2.7-1.1c0.1-0.1,0.2-0.2,0.3-0.3l0.3-0.6c0.1,0,0.1,0,0.2,0l3.6-0.9c0.1,0,0.2-0.1,0.2-0.1L96.4,189.2z"/>
<path id="divi-25324" class="st0" d="M45.6,192.1l5.7,0.5l-1.7,3c0,0.1-0.1,0.2-0.1,0.3l0.2,3.7c0,0.1,0,0.1,0,0.2l1.7,5l-2.8,4
	l-4.8,3.9v-1.4l3.2-4.1c0-0.1,0.1-0.1,0.1-0.2l1.1-4.4c0-0.1,0-0.2,0-0.3l0,0c0-0.1,0-0.2,0-0.3l-0.9-5.5c0-0.1,0-0.2-0.1-0.2
	l-1.5-2.4L45.6,192.1z"/>
<path id="divi-25312" class="st0" d="M110.3,195l1.8,1.5l0.2,5.2v0.1l-0.7,0.3H110c-0.1-0.1-0.3-0.2-0.4-0.2s-0.3,0.1-0.4,0.2H109h0
	l-4-0.4c-0.1,0-0.2,0-0.3,0.1l-3.1,1.5l-3.3,0.3l1-3.7l0,0l1.8-1.4c0.1-0.1,0.2-0.3,0.2-0.5l-0.1-1l3.4,0.2l2.5,1.2
	c0.2,0.1,0.5,0,0.7-0.2l2.3-3c0,0,0-0.1,0.1-0.2L110.3,195z"/>
<path id="divi-25841" class="st0" d="M146.2,196.7l4.8,0.6l2.2,3.6c0.1,0.1,0.2,0.2,0.3,0.3l6.5,1.5v0.1l1.6,4.1v0.1l0.4,3.1l-3.5-1
	h-0.1l-3.3-1.6c-0.1-0.1-0.2-0.1-0.4,0l-3.4,0.8l-0.5-1.9c-0.1-0.2-0.2-0.3-0.4-0.4l-3.8-1.2l-3-2.3L146.2,196.7z"/>
<path id="divi-25740" class="st0" d="M118.7,199.7l1.3,2.2l-0.5,3.8l-1.1,3.4l-0.9,2.8c0,0.1,0,0.2,0,0.2l0.2,2.4l-2.9,1
	c-0.1,0-0.2,0.1-0.2,0.2l-2.1,2.4l-0.4-0.8v-3.4c0-0.2-0.1-0.3-0.2-0.4l-1.7-1.4l0,0c0-0.1-0.1-0.2-0.2-0.3l-1.2-1.4l1.2-1.4
	c0.1-0.1,0.1-0.2,0.2-0.3l0.2-5.3h1.6c0.1,0,0.2,0,0.2,0l1.4-0.7c0.2-0.1,0.3-0.2,0.3-0.4s0-0.3-0.1-0.5l2-1.8L118.7,199.7z"/>
<path id="divi-25878" class="st0" d="M97.9,200.8l-1,3.4c0,0.1,0,0.2,0,0.3l-2.1,3.2l0,0l-3.9,5.1c-0.1,0.1-0.1,0.2-0.1,0.3
	l-0.7,5.2l-5.2,1.8l-0.3-0.6c-0.1-0.2-0.3-0.3-0.5-0.3l-4.9-0.4h-0.1l-1-2.6c0,0,0-0.1-0.1-0.1l-1.7-2.5l-0.4-3.3
	c0.2-0.1,0.4-0.2,0.4-0.5l0.6-3l2.8,2c0.2,0.2,0.5,0.1,0.7-0.1l2.1-1.9c0.2-0.2,0.3-0.5,0.1-0.8l-0.6-0.8l2.2,1.2
	c0.2,0.1,0.4,0.1,0.6-0.1l2.8-2.1c0.1,0,0.1-0.1,0.2-0.2l0.4-0.8h0.1l3.5-0.7c0.1,0,0.1,0,0.2-0.1l1.7-1L97.9,200.8z"/>
<path id="divi-25743" class="st0" d="M105.1,203l3.9,0.3l0,0h0.1l-0.2,5.1l-1.4,1.6c-0.2,0.2-0.2,0.6,0,0.8l1.3,1.5l-1.6,2.7
	l-3.7,0.2h-0.1l-4.3-0.5c-0.2,0-0.4,0.1-0.6,0.3l-2.4,3.9l-2.2,0.9l-2.2-2.1c-0.1-0.1-0.2-0.1-0.3-0.2l0.5-4l3.8-5l0,0l2.2-3.5
	l3.7-0.3c0.1,0,0.1,0,0.2-0.1L105.1,203z"/>
<path id="divi-25178" class="st0" d="M142.9,203.2l3.2,2.5c0.1,0,0.1,0.1,0.2,0.1l3.6,1.2l0.6,2.2c0,0.1,0,0.2,0.1,0.2l-0.8,2.5
	c0,0,0,0-0.1,0l-3.2-0.7c-0.1,0-0.2,0-0.3,0l-4.2,1.4c-0.2,0.1-0.3,0.2-0.4,0.4l-0.5,2.5l-2.2,4.5l-1.9,0.8l-0.1-3.1
	c0-0.1,0-0.1-0.1-0.2l-1.2-3.2l1.8-5.3L142.9,203.2z"/>
<path id="divi-25483" class="st0" d="M52.1,205.8l2.1,1.2l-3.3,3.2h-0.1l-4.7,3.9c-0.1,0.1-0.1,0.1-0.2,0.2l-2.4,4.8l-4.5,2.7
	l1.6-3.5v-0.1l0.8-3l0,0l1-1.6v0.4c0,0.2,0.1,0.4,0.3,0.5s0.4,0.1,0.6-0.1l5.8-4.8l0.1-0.1L52.1,205.8z"/>
<path id="divi-25815" class="st0" d="M69.7,207.5l-0.2-2.2l-1.2-3.2c0,0,0-0.1,0-0.2l0.9-8.2v-0.1l1-3l-0.4,0.4l-0.1,0.1l-4,5.1
	l-4.9,6c-0.1,0.1-0.1,0.1-0.1,0.1L56,207l-0.1,0.1l-0.2,0.2c-0.1,0.1-0.1,0.1-0.1,0.1h-0.1l-3.8,3.6l-0.3,0.3l2.2,3.2
	c0.1,0.2,0.1,0.4,0,0.6l-1.2,1.9l0.8,0.3c0.1,0,0.3,0,0.4,0l2.6-1.5l7-3.9l0.3,0.8l0.2,0.5l1,1.5l2,1l3.2,1.6c0,0.1,0.1,0.1,0.1,0.1
	l2.1,1.8l2.9-0.6c0.1,0,0.1,0,0.2,0l3,0.2l-0.9-2.2l-0.1-0.1l-1.7-2.5c-0.1,0-0.1-0.1-0.1-0.2l-0.4-3.5l-1.8,0.1
	c-0.2,0-0.4-0.1-0.5-0.2L69.7,207.5z"/>
<path id="divi-25151" class="st0" d="M154.8,208.7l3.2,1.5h0.1l4.1,1.1l-0.4,3.9c0,0.1,0,0.2,0,0.3l1.2,2.6l-0.1,1.9v0.1l-0.3,2
	l-1.9-1.7c-0.1-0.1-0.2-0.1-0.3-0.1l-6-0.5c-0.1,0-0.1,0-0.2,0l-3.8,0.8l-1.4-2.8l1.7-4.3l0,0l1.2-4L154.8,208.7z"/>
<path id="divi-25307" class="st0" d="M50.4,212.1l1.9,2.8l-1.7,2.7v0.1l-1.9,2.4c-0.1,0.2-0.2,0.4-0.1,0.6l1.5,2.8l-0.2,1.7
	l-3.3,1.8l-0.1,0.1l-0.2,0.2l0,0c-0.2,0-0.4,0.2-0.5,0.5l-1.6,1.5l-4.9,1.2l0,0l-3.3,0.9l-0.6-1.6l0.5-3.3l1.9-2.8
	c0.2,0.1,0.4,0,0.5-0.1l5.8-3.6c0.1-0.1,0.2-0.1,0.2-0.2l2.4-4.9L50.4,212.1z"/>
<path id="divi-25845" class="st0" d="M146.5,212.2l3,0.7l-0.1,0.1l0,0l-1.8,4.6c-0.1,0.2,0,0.3,0,0.5l1.6,3.2l-1.2,1.3
	c0,0,0,0.1-0.1,0.1l-1.2,2.4v0.1l-1.8,2L140,227c-0.3,0-0.6,0.2-0.6,0.5l-0.3,2.5c0,0.2,0.1,0.5,0.3,0.6l1.9,1l-2.7,2.3
	c-0.1,0.1-0.2,0.2-0.2,0.3l-0.7,2.8c-0.1,0.2,0,0.5,0.2,0.6l2.4,1.6l0.4,1.6l-4.9,0.3h-0.1l-1.6-0.4l-0.8-8.8l1.9-7.1l1.7-2.8
	c0,0,0,0,0.1-0.1l0,0l2.5-1.1c0.1-0.1,0.2-0.2,0.3-0.3l2.3-4.8v-0.1l0.5-2.2L146.5,212.2z"/>
<path id="divi-25290" class="st0" d="M109.7,213.2l1.3,1v3.3c0,0.1,0,0.2,0.1,0.3l0.4,0.7l-4,0.6c-0.3,0-0.5,0.2-0.5,0.5l-0.3,2.1
	l-1.8,1.6c-0.2,0.2-0.2,0.5-0.1,0.8l1.7,2.5l-1.6,2.3c-0.1,0.2-0.1,0.5,0,0.7l2.3,3.3c0,0,0,0.1,0.1,0.1l3.9,4.1l-3.3,0.4l-2.7-1.5
	l-3.5-3.8c-0.1-0.1-0.1-0.1-0.2-0.2l-3.8-1.7h-0.1l-2.9-1.9c-0.2-0.1-0.4-0.1-0.6,0l-3.7,2.3l0,0l-5.6,1.3l-2.4-0.4l2.8-0.8
	c0,0,0.1,0,0.1-0.1l4.2-2.5c0,0,0,0,0.1,0l4.1-3.2c0.1-0.1,0.2-0.2,0.2-0.3l1.2-4.2l1.8-0.7c0.1,0,0.2-0.1,0.3-0.2l2.3-3.8l4.1,0.5
	h0.1l4.1-0.2c0.2,0,0.4-0.1,0.5-0.3L109.7,213.2z"/>
<path id="divi-25001" class="st0" d="M62.1,213.8l1.8,2.1c0.1,0.1,0.1,0.1,0.2,0.2l2.1,1.1l3.2,1.6l0,0l1.4,1.2l-2.4,1.6l-2.5-0.2
	c-0.1,0-0.2,0-0.2,0l-3.3,1.2l0,0l-3.4,0.6l-4.6-1.2l-0.3-3.7l2.7-1.6L62.1,213.8z"/>
<path id="divi-25594" class="st0" d="M174.3,215.3l1.6,1.5l0.1,0.1l1.8,2.1l-1.9,2.7l-0.1,0.1l-3.3,2.9c-0.1,0.1-0.1,0.2-0.2,0.2
	l-1.2,3.5l-3.7,1.7c-0.1,0-0.2,0.1-0.2,0.2l-1.5,2.3l-3.5-1c0,0,0,0-0.1,0l-0.6-2l0.2-3.3l0.5-0.8c0.2-0.1,0.3-0.2,0.3-0.3l0.2-0.5
	v-0.1l0.3-0.8c0.2-0.1,0.3-0.2,0.4-0.4l0.5-3c0,0,0,0,0-0.1l0.1-1.2l0,0l3.8-2.8L174.3,215.3z"/>
<path id="divi-25535" class="st0" d="M117.9,215.7c0.1,0.2,0.2,0.3,0.4,0.4l3,1.1c0.1,0.1,0.3,0.1,0.4,0l1.7,0.6l-0.2,4.7l-2,2.2
	c-0.1,0.1-0.1,0.2-0.1,0.3l-0.7,5.3c0,0.1,0,0.3,0.1,0.4l1.7,2.5v5.6l-2.2,0.7c-0.2-0.2-0.4-0.2-0.6-0.2c-0.2,0.1-0.4,0.3-0.4,0.5
	l0,0l-1,0.3h-0.1l-6,0.2l-3.3-1.8l3.9-0.5c0.2,0,0.4-0.2,0.5-0.4s0-0.4-0.1-0.6l-4.7-4.9l-0.1-0.1l-2-3l1.5-2.3
	c0.1-0.2,0.1-0.5,0-0.7l-1.7-2.4l1.6-1.4c0.1-0.1,0.1-0.2,0.2-0.3l0.3-1.9l4-0.6l0,0c0.2,0.2,0.6,0.2,0.8,0l2.6-2.9L117.9,215.7z"/>
<path id="divi-25612" class="st0" d="M51.7,218l1.2,0.4l0.3,4.1c0,0.2,0.2,0.4,0.4,0.5l5.1,1.4c0.1,0,0.2,0,0.2,0l3.6-0.7h0.1
	l0.4-0.2l-0.3,3.4l-2.5,2.5c0,0,0,0,0,0.1l-2.7,3.6l-1-0.2v-0.2c0.1-0.2,0-0.5-0.2-0.6s-0.4-0.2-0.6-0.1c-0.2,0.1-0.3,0.3-0.3,0.6
	v0.2l-0.6-0.1l0,0l-4.4-2.2l-3-2.7l3.4-1.9c0.2-0.1,0.3-0.3,0.3-0.5l0.2-2.1c0-0.1,0-0.2-0.1-0.3l-1.4-2.7l1.7-2.2l0,0L51.7,218z"/>
<path id="divi-25805" class="st0" d="M91.4,218.7l2.2,2.1c0,0,0.1,0.1,0.2,0.1l-1,3.4l-3.8,3l-0.1,0.1l-4,2.4l0,0L80,231l-3.4-1
	l2.7-2l4.1-2.8c0.1,0,0.1-0.1,0.2-0.2l2.1-3.9l5.3-1.9C91.2,219.2,91.3,219,91.4,218.7L91.4,218.7z"/>
<path id="divi-25488" class="st0" d="M75.1,220L75.1,220l3.8,0.2c0.2,0,0.3-0.1,0.5-0.2l4.5,0.3l0.4,0.8c0,0,0,0,0,0.1l-1.8,3.2
	l-3.9,2.7l0,0l-3.5,2.6l0,0l-0.5,0.3l0,0l-4.1,2.6c-0.1,0.1-0.1,0.1-0.2,0.2l-2.5,4.2l-4.3,1.6l-3.7-2.2l-1.2-2.7l2.6-3.6l0.1-0.1
	l2.6-2.6c0.1-0.1,0.2-0.2,0.2-0.3l0.3-4.1v-0.1l1.7-0.6l2.5,0.2c0.1,0,0.2,0,0.3-0.1l2.8-1.9l0,0c0.1,0,0.2,0,0.3,0L75.1,220z"/>
<path id="divi-25335" class="st0" d="M178,220.5l0.6,8.2c0,0.2,0.1,0.3,0.2,0.4l3,2.3c0.1,0.1,0.2,0.1,0.2,0.1l0.4,0.1l1.2,3.2
	l-1,3.3l-1.2,1.7l-5.2,1.9l0,0l-4.5,0.7c-0.1,0-0.2,0.1-0.3,0.1l-3.3,2.8H168l-5.2,3.4l-1-0.2l0,0c-0.1-0.3-0.4-0.4-0.7-0.3
	l-0.3,0.1l-2.7-0.5l-1.2-1.9l1.6-2l0,0l2.5-1.7c0.1-0.1,0.2-0.1,0.2-0.2l1.1-2.5c0.1-0.1,0.1-0.3,0-0.5l-0.8-1.8l0.2-4.1
	c0.2,0,0.4-0.2,0.5-0.4l3.4,0.9c0.2,0.1,0.5,0,0.6-0.2l1.6-2.5l3.8-1.7c0.1-0.1,0.3-0.2,0.3-0.3l1.2-3.6l3.2-2.9c0,0,0.1,0,0.1-0.1
	L178,220.5z"/>
<path id="divi-25281" class="st0" d="M154.3,220.9L154.3,220.9l5.7,0.5l2.1,1.8l-0.3,0.8v0.1l-1.1,1.8c-0.1,0.1-0.1,0.2-0.1,0.2
	l-0.2,3.6c0,0.1,0,0.1,0,0.2l0.6,2.2l0,0l-3.7-0.4l-4.5-1l-0.9-1.6c-0.1-0.2-0.3-0.3-0.4-0.3l-5.8-0.7l2.1-2.2l0.1-0.1l1.2-2.5l0,0
	l0.8-0.9l0,0c0.2,0,0.3,0,0.4-0.2c0.1-0.1,0.2-0.3,0.2-0.4v-0.1L154.3,220.9z"/>
<path id="divi_x5F_25339" class="st0" d="M140.5,228.2l2.7,0.1c-0.1,0.2,0,0.4,0,0.5c0.1,0.2,0.2,0.3,0.4,0.3l7.3,0.8l0.9,1.5
	c0.1,0.1,0.2,0.2,0.4,0.3l4.8,1.1c0,0,0,0,0.1,0l3.5,0.4l-0.2,4.3c0,0.1,0,0.2,0.1,0.2l0.8,1.8l-0.9,2.1l-2.5,1.7l-0.1,0.1l-2,2.3
	c-0.2,0.2-0.2,0.5,0,0.7l1.6,2.5c0.1,0.1,0.2,0.2,0.4,0.2l1,0.2l-0.3,0.1l-7.7,0.3c-0.1,0-0.2,0-0.3,0.1l-3.7,2.5l-0.1,0.1l-4.5,5
	l-4.3,2.2h-0.1l-8.1,1.4c0,0,0,0-0.1,0l-4.6,1.4v-0.2c0-0.1,0-0.1,0-0.2v-0.4l3.2-2c0.1-0.1,0.2-0.1,0.2-0.2l1.4-3v-0.1l1.2-3.7
	l5.8-3.6c0.1-0.1,0.2-0.2,0.2-0.3l0.9-2.8c0.1-0.3,0-0.5-0.2-0.7l-3.3-1.8l-0.2-1.4l1.3,0.3c0.1,0,0.1,0,0.2,0l5.7-0.3
	c0.2,0,0.3-0.1,0.4-0.2c0.1-0.1,0.1-0.3,0.1-0.5l-0.5-2.5c0-0.1-0.1-0.3-0.2-0.3l-2.3-1.6l0.6-2.2l3.2-2.7c0.1-0.1,0.2-0.3,0.2-0.5
	s-0.1-0.4-0.3-0.4l-2.3-1.2L140.5,228.2z"/>
<path id="divi-25053" class="st0" d="M94.3,229.5l2.7,1.8h0.1l3.8,1.8l3.4,3.8c0,0.1,0.1,0.1,0.2,0.1l1.4,0.8
	c-0.1,0.1-0.1,0.3-0.1,0.5s0.1,0.3,0.3,0.4l5.3,2.8c0.1,0,0.2,0.1,0.3,0.1l6.2-0.2c0.1,0,0.1,0,0.2,0l1.2-0.4l1.3,3.3l-12.9-1.2
	h-0.1l-7.8-2.8h-0.1l-5.3-0.5l-4.3-3.3c-0.2-0.2-0.6-0.1-0.8,0.1l-0.2,0.2l-2.3-2.5c-0.1-0.1-0.3-0.2-0.5-0.2l-3,0.1
	c-0.2-0.2-0.5-0.2-0.8,0l0,0h-0.7l-0.2-1.4l2.9,0.5c0.1,0,0.1,0,0.2,0l5.8-1.4c0.1,0,0.1-0.1,0.2-0.1L94.3,229.5z"/>
<path id="divi-25524" class="st0" d="M86.2,235.1l2.2,2.4c-0.2,0.2-0.2,0.5,0,0.7L92,243l0.2,8.8c0,0.2,0.1,0.4,0.3,0.5l0.9,0.4
	l-1.6,0.6l0,0l-3.7,0.5l-0.9-0.8c0.1-0.3,0-0.6-0.2-0.7l1.3-3.3c0-0.1,0-0.2,0-0.2l-0.5-5.2c0-0.1-0.1-0.3-0.2-0.3l-4.1-4.1v-4.1
	L86.2,235.1z"/>
<path id="divi-25649" class="st0" d="M90,237.7l3.8,2.9c0.1,0.1,0.2,0.1,0.3,0.1l5.4,0.5h0.1l7.8,2.8c0.1,0,0.1,0,0.2,0l12.6,1.1
	l-2.1,1.4c-0.1,0-0.1,0.1-0.2,0.2l-1.9,2.9l-0.1,0.1l-3.1,3.6l-6.7-2.5c-0.1-0.1-0.3-0.1-0.5,0l-4.2,1.9c-0.1,0.1-0.2,0.2-0.3,0.3
	l-2.1,5.5v0.1l-0.6,3l-2.2,0.2c-0.1,0-0.1-0.1-0.2-0.1h-0.1l-0.1-0.4l1.3-3.2l0,0l1.2-3c0.1-0.2,0-0.5-0.2-0.7l-2.5-1.8h-0.1l0,0
	l0,0c-0.1-0.1-0.2-0.3-0.3-0.3c-0.1-0.1-0.3-0.1-0.4,0l0,0l-1.5-0.7l-0.2-8.7c0-0.1-0.1-0.2-0.1-0.3l-3.2-4.4
	C89.9,238,90,237.8,90,237.7z"/>
<path id="divi-25506" class="st0" d="M94.8,253.4l0.2,0.1l0.1,0.1l2,1.4l-1.1,2.6l-1.4,3.4c-0.1,0.1-0.1,0.2,0,0.4l-3.8-0.9h-0.1
	h-4.6c-0.1,0-0.2,0-0.3,0.1l-2.2,1.6l-0.2-1.5l0.5-3.7l2.7-3.1l1,0.9c0.1,0.1,0.3,0.2,0.5,0.2l4.1-0.5h0.1L94.8,253.4z"/>
<path id="divi-25120" class="st0" d="M86.3,261.6h4.4l0,0l4.2,1c0.1,0.2,0.3,0.4,0.6,0.4l2.6-0.2l0.1,0.1l0.2,5.1
	c0,0.1,0,0.2,0.1,0.3l1.6,2.6l-1.7,6.4l-1.5,2.4c-0.1,0.2-0.1,0.5,0.1,0.7l1.7,1.6l-1,5l-5.9,5.4c0,0,0,0.1-0.1,0.1l-4.8,6.2
	l0.3-5.6c0-0.1,0-0.2-0.1-0.2l-1.8-3.9c-0.1-0.1-0.1-0.2-0.2-0.2l-2.9-1.6l0,0c0.1-0.2,0.1-0.4,0-0.6s-0.3-0.3-0.5-0.3
	s-0.4,0.1-0.5,0.3v0.1l-0.3-0.2l0.5-5.5l2.1-5.8c0-0.1,0.1-0.1,0.1-0.2v-11.2L86.3,261.6z"/>
</svg>
