<?xml version="1.0" encoding="utf-8"?>
<!-- Generator: Adobe Illustrator 20.1.0, SVG Export Plug-In . SVG Version: 6.00 Build 0)  -->
<svg version="1.1"
	 id="vaupes" inkscape:output_extension="org.inkscape.output.svg.inkscape" inkscape:version="0.46" sodipodi:docname="departamentos_colombia_plain.svg" sodipodi:version="0.32" xmlns:cc="http://creativecommons.org/ns#" xmlns:dc="http://purl.org/dc/elements/1.1/" xmlns:inkscape="http://www.inkscape.org/namespaces/inkscape" xmlns:rdf="http://www.w3.org/1999/02/22-rdf-syntax-ns#" xmlns:sodipodi="http://sodipodi.sourceforge.net/DTD/sodipodi-0.dtd" xmlns:svg="http://www.w3.org/2000/svg"
	 xmlns="http://www.w3.org/2000/svg" xmlns:xlink="http://www.w3.org/1999/xlink" x="0px" y="0px" viewBox="0 0 408 483"
	 style="enable-background:new 0 0 408 483;" xml:space="preserve">
<path id="divi-97777" class="st0" d="M257.1,39.9l3.4,1.2l0.3,4.8l-1.3,3.1l-7.7,3.9c-0.2,0.1-0.3,0.3-0.3,0.5
	c0,0.2,0.1,0.4,0.3,0.5l0.7,0.3v9c0,0.3,0.2,0.5,0.5,0.6l6.2,0.9l6.8,8.7c0,0.1,0.1,0.1,0.2,0.2l9.8,5.4c0.1,0,0.2,0.1,0.2,0.1
	l10.2,0.5l5.5,3.2l-2.2,1.8c0,0,0,0,0,0c-0.1,0-0.1,0-0.1,0c-0.1,0-0.1,0-0.2,0c-0.1,0-0.1,0-0.2,0c-0.1,0-0.2,0.1-0.3,0.2
	c-0.5,0.3-1.2,0.8-1.2,0.8c-0.1,0.1-0.2,0.2-0.2,0.4c0,0,0,0,0,0l-4,2.4h-9.7c-0.1,0-0.1,0-0.2,0l-4.4,2h0l-4.1,0.4l-8.2-3.8
	l-0.1-0.1l-6.8-4.8c-0.1-0.1-0.2-0.1-0.3-0.1h-5.6l-2.8-3.7c-0.1-0.1-0.2-0.2-0.4-0.2l-8.2-0.9l-0.1,0l-8.2-2.9c0,0,0,0,0,0
	l-8.8-2.5c-0.1,0-0.3,0-0.4,0l-4.9,2c-0.1,0-0.2,0.1-0.2,0.2l-59.9,78l-32.6-65.1c-0.1-0.1-0.1-0.2-0.2-0.2l-13.9-7.4l2.8-5.6
	c0-0.1,0.1-0.1,0.1-0.2l0.4-6.1l17.4-9.7l0.1,0l5.6-1.9l6.3,1.9c0.2,0,0.3,0,0.5-0.1l4.6-2.8l8.1,4.8c0.2,0.1,0.5,0.1,0.7-0.1
	l3.2-3.7l8,1.9h0l12.8,3.9c0.2,0.1,0.4,0,0.5-0.1l5.1-4.2l4.6,2.3c0,0,0.1,0,0.1,0.1l7.9,2c0.1,0,0.3,0,0.4-0.1l7.2-3.9h7.2
	c0.2,0,0.5-0.1,0.6-0.4l1.8-4.8l3.9,1.7c0.2,0.1,0.4,0.1,0.6-0.1l4.9-3.4c0,0,0,0,0,0l2.6-2.1l3.1,3.1c0.2,0.2,0.6,0.2,0.8,0
	l2.2-2.2l3.1,0.9c0.2,0.1,0.4,0,0.6-0.2l2.6-3.1l1.8,1c0,0,0,0,0,0c-0.1,0.3,0,0.6,0.3,0.7c0.2,0.1,0.6,0.1,0.7-0.2l0.2,0.2
	c0.2,0.1,0.4,0.1,0.6,0c0.2-0.1,0.3-0.3,0.3-0.5c0-0.2-0.1-0.4-0.3-0.5l-0.4-0.2l0.1-0.2c0,0,0.1,0,0.1,0l8.4-1.5
	c0.1,0,0.2-0.1,0.3-0.2l7.1-1.3c0.1,0,0.2-0.1,0.3-0.2L257.1,39.9z"/>
<path id="divi-97001" class="st0" d="M215.1,72.9l8.6,2.4h0l8.3,3c0,0,0.1,0,0.1,0l8.1,1l2.8,3.8c0.1,0.1,0.3,0.2,0.5,0.2h5.7
	l6.8,4.8c0,0,0.1,0,0.1,0.1l8.3,3.9c0.1,0,0.2,0.1,0.3,0l4.4-0.5c0.1,0,0.1,0,0.2-0.1l4.3-1.9h9.8c0.1,0,0.2,0,0.3-0.1l4.8-2.9
	c0,0,0,0,0.1,0c0,0,0,0,0,0c0,0,0,0,0,0c0,0,0,0,0,0c0,0,0.1,0,0.1-0.1c0.1-0.1,0.2-0.2,0.3-0.3c0,0,0,0,0,0c0.2,0,0.4,0,0.5-0.1
	l3.2-2.5l0.1,0.1c0,0,0.1,0,0.2,0.1l4.8,1.1c0,0.7-0.9,19.2-1.6,38.5c-0.3,9.8-0.6,19.6-0.7,27.1c0,3.7,0,6.8,0.1,9.1
	c0,1.1,0.1,2,0.2,2.6c0,0.3,0.1,0.6,0.2,0.8c0,0.1,0.1,0.2,0.1,0.3l-6.2,6.6l-7.7,2.9c-0.2,0.1-0.3,0.2-0.3,0.3l-3.4,9.8
	c0,0.1,0,0.1,0,0.2v4.9l-3.8,0.9l-9.2-2.4c-0.1,0-0.2,0-0.3,0l-5.4,1.5c-0.2,0-0.4,0.2-0.4,0.4l-0.5,3c0,0.1,0,0.2,0,0.2l4.9,15.8
	c0,0,0,0,0,0l4.9,14.7v0.1l2.5,10.3c0,0,0,0,0,0.1l-1.8,32.9c0,0,0,0,0,0.1v0.2l-2.9,0.4l-4.8-2.8c-0.2-0.1-0.3-0.1-0.5,0l-4.8,1.9
	l-14,0.5l-8-2.8l-3.4-9.1c-0.1-0.2-0.2-0.3-0.4-0.4l-6.4-1c0,0-0.1,0-0.1,0l-16.1,0.5h0l-7.6-1.4l-4.7-7.4l1.4-8.2l1.5-8.4
	c0-0.2,0-0.4-0.2-0.5l-5.9-5.9c-0.2-0.2-0.6-0.2-0.8,0l-24.3,20.5l-1.3-7.8c0-0.1-0.1-0.2-0.1-0.3l-5.4-6.4
	c-0.1-0.2-0.3-0.2-0.5-0.2l-6.7,0.9l-4.8-2.8c0,0-0.1,0-0.1,0l-4.8-1.5c0.2-0.2,0.3-0.5,0.1-0.8c-0.2-0.2-0.5-0.3-0.8-0.2l-0.7,0.5
	h0l-1.9-3.2c0,0,0,0,0-0.1l-4.8-6.7l1.8-7.2h7.9c0.2,0,0.4-0.1,0.5-0.2s0.1-0.4,0.1-0.5l-1.9-4.9l0-0.1l-0.5-4.6l3.4-7.2
	c0-0.1,0-0.1,0-0.2v-11.8l0.5-18.1l3.3-5.2c0-0.1,0.1-0.1,0.1-0.2c0,0,0,0,0,0l59.8-77.8L215.1,72.9z"/>
<path id="divi-97161" class="st0" d="M102.6,80.2l13.7,7.3l32.8,65.6l-2.9,4.5c-0.1,0.1-0.1,0.2-0.1,0.3l-0.5,18.2c0,0,0,0,0,0v11.6
	l-3.4,7.3c0,0.1-0.1,0.2-0.1,0.3l0.5,4.9c0,0.1,0,0.1,0,0.2l1.7,4.1h-7.5c-0.3,0-0.5,0.2-0.6,0.4l-2,7.9c0,0.2,0,0.3,0.1,0.5
	l4.9,6.8l0,0.1l1.9,3.3l-3,2.1l-8.4-0.9l-5.3-5.3c-0.1-0.1-0.3-0.2-0.4-0.2l-7.4,0.5l-10.8,0.5h-0.1l-14.7-0.5c-0.1,0-0.2,0-0.2,0.1
	l-18.8,8.7l-29-41.6l0.9-3.8v-0.1l3.3-6.6l5.1-3.3l7.7,0.5c0.2,0,0.4-0.1,0.5-0.3l3.4-5.3l5.3-3.4c0.1-0.1,0.2-0.2,0.2-0.3l2.3-5.6
	l3.1-0.4l5.9-1c0.2,0,0.4-0.2,0.4-0.3c0.1-0.2,0.1-0.4-0.1-0.6l-6.3-8.2l-0.5-8.5l6.3-11.2c0,0,0-0.1,0.1-0.1l2.9-9.7l5.9-10.3
	c0-0.1,0.1-0.2,0.1-0.2l0.5-10.1l6.7-7.2c0.1-0.1,0.1-0.2,0.2-0.2l1.1-4.6l0.2,0.1c0.2,0.1,0.5,0,0.7-0.2l3-4.4c0,0,0,0,0-0.1
	L102.6,80.2z"/>
<path id="divi-97889" class="st0" d="M311.5,158.5l1.9,4.2c0.1,0.2,0.4,0.4,0.6,0.3l5.4-0.9l8.6,2.4c0.1,0,0.1,0,0.2,0l11.2-1
	l9.8,3.4c0.2,0.1,0.3,0,0.5,0l10.1-5.3l15.2,12.8l5.7,15.7l0,0.1l2.2,12.2l-3.6,5.6c-0.2,0.3-0.1,0.6,0.2,0.8l9,6.2l-7.1,0.9
	c-0.2,0-0.3,0.1-0.4,0.2l-4.7,6.6l-6.7-1.1l-1.8-5.4c0-0.2-0.2-0.3-0.3-0.4s-0.3-0.1-0.5,0l-7.5,3.8l-9.3-11.5
	c-0.1-0.1-0.2-0.2-0.3-0.2l-9.2-1.8c-0.2,0-0.3,0-0.5,0.1l-15.2,11.5l-9.2-1.8c-0.2,0-0.4,0-0.5,0.2l-7.2,7.1l-12.8-1.1
	c-0.1,0-0.2,0-0.2,0l-23.2,7.7l-1.9-8.2c0,0,0,0,0-0.1l-4.9-14.8l-4.9-15.6l0.4-2.5l4.9-1.3l9.2,2.4c0.1,0,0.2,0,0.3,0l4.4-1
	c0.3-0.1,0.4-0.3,0.4-0.6V183l3.3-9.5l7.6-2.9c0.1,0,0.2-0.1,0.2-0.2l6.4-6.8c0.3,0.2,0.7,0.4,0.8,0.4c0,0.3,0.2,0.5,0.4,0.6
	c0,0,0.2-0.1,0.3-0.2l0.1,0.2l3.3-1.4c0,0,0,0,0,0L311.5,158.5z"/>
<path id="divi-97511" class="st0" d="M42.5,188.1l28.9,41.5c0.2,0.2,0.4,0.3,0.7,0.2l19-8.8l14.7,0.5c0,0,0,0,0.1,0l10.8-0.5
	c0,0,0,0,0,0l7.1-0.5l5.2,5.2c0.1,0.1,0.2,0.1,0.3,0.2l8.8,1c0.1,0,0.3,0,0.4-0.1l3.8-2.6l5.5,1.7h0l4.8,2.9
	c0.1,0.1,0.2,0.1,0.4,0.1l6.6-1l5.1,6.1l1.4,8.7c0,0.2,0.2,0.4,0.4,0.4s0.4,0,0.6-0.1l24.7-20.8l5.3,5.3l-1.4,8.1l-1.5,8.3
	c0,0.1,0,0.3,0.1,0.4l4.9,7.9c0.1,0.1,0.2,0.2,0.4,0.2l7.8,1.5c0,0,0.1,0,0.1,0l16.2-0.5h0.1l6,0.9l3.3,9c0.1,0.2,0.2,0.3,0.3,0.3
	l8.4,2.9c0.1,0,0.1,0,0.2,0l14.3-0.5c0.1,0,0.1,0,0.2-0.1l4.7-1.8l4.7,2.8c0.1,0.1,0.2,0.1,0.4,0.1l3-0.5l1.6,42.1l-7.6,8.1
	c0,0,0,0-0.1,0.1l-2.8,4.2l-7.6-0.5c-0.2,0-0.5,0.1-0.6,0.4c-0.1,0.2,0,0.5,0.1,0.6l8.3,6.9l-8,4.9h-5.8c-0.3,0-0.5,0.2-0.6,0.5
	l-1,6.4c0,0.3,0.2,0.6,0.5,0.7l5.5,0.8l-4.3,3.1c-0.2,0.2-0.3,0.5-0.2,0.7l1.3,2.6l-4.5-1.9c-0.1-0.1-0.3-0.1-0.4,0l-4.4,1.5
	c0,0,0,0-0.1,0l-7.4,3.5c-0.2,0.1-0.3,0.3-0.3,0.5c0,0.2,0.1,0.4,0.3,0.5l3.7,2.2l-5.2,1.1l-3.2-3.7c-0.1-0.2-0.4-0.2-0.6-0.2
	l-7.3,1.8l-2.3-7.3c0-0.1,0-0.1-0.1-0.2l-3.8-5.7v-0.9c0-0.2-0.1-0.4-0.3-0.5c-0.2-0.1-0.4-0.1-0.6,0l-0.2-0.3
	c-0.1-0.2-0.3-0.3-0.5-0.2l-4.9,0.5c-0.2,0-0.3,0.1-0.4,0.3l-2.5,4.2l-6.9-8.7c-0.2-0.2-0.4-0.3-0.7-0.2l-6.4,3.2l-4.6-7.9
	c-0.1-0.2-0.4-0.3-0.7-0.2l-8.8,2.5c-0.2,0.1-0.3,0.2-0.4,0.4c-0.1,0.2,0,0.4,0.1,0.5l2.5,3.3l-9.2,3l-0.3-0.4
	c0.1-0.2,0.1-0.4,0-0.6c-0.1-0.2-0.3-0.3-0.5-0.3h-0.1l-5.3-9l-0.5-7.7c0-0.2-0.1-0.3-0.2-0.4l-10.5-7.3l6-3
	c0.2-0.1,0.4-0.4,0.3-0.7l-1.5-5.9c0-0.1-0.1-0.2-0.1-0.2l-4.9-5.4c-0.1-0.1-0.1-0.1-0.2-0.2l-5.4-2.5c-0.2-0.1-0.3-0.1-0.5,0
	c-0.2,0.1-0.3,0.2-0.3,0.4l-0.9,3.6l-2.9,0.3v-4.2c0-0.3-0.2-0.5-0.4-0.6l-6.4-2c0,0-0.1,0-0.1,0l-5-0.5l-1.4-6
	c0-0.1-0.1-0.3-0.2-0.3l-5.4-3.9c-0.2-0.2-0.6-0.1-0.8,0.1l-5.1,5.6l-5.9-2.3l-3.8-4.2l0,0l-1.9-3.9c0-0.1-0.1-0.2-0.2-0.2l-7.4-4.4
	c-0.2-0.1-0.5-0.1-0.7,0.1l-5.6,5.2l-5.5-2.6l1.8-4.4c0.1-0.3,0-0.6-0.3-0.7c-0.3-0.1-0.6,0-0.7,0.2l-0.1,0.1l-4.7,7.5l-5.2,0.4
	l1.7-5.6c0.1-0.2,0-0.4-0.1-0.5c-0.1-0.2-0.3-0.2-0.5-0.2l-4.8,0.4l2.4-4c0.1-0.2,0.1-0.5,0-0.7c-0.2-0.2-0.4-0.3-0.6-0.2l-8.6,3
	l2-4.7c0.1-0.2,0-0.4-0.1-0.5c-0.1-0.2-0.3-0.2-0.5-0.2l-8.6,0.5l-4.9-5.4l2.2-4.6c0.1-0.2,0.1-0.5-0.1-0.7s-0.5-0.2-0.7-0.1l-4.7,3
	l-0.9-5.5c-0.1-0.3-0.3-0.5-0.6-0.5l-2.4,0.3l2.9-3.3c0.2-0.2,0.2-0.4,0.1-0.7c-0.1-0.2-0.4-0.3-0.6-0.3l-6.3,1h0l-3.8,0.4l2.5-5
	c0.1-0.2,0.1-0.5-0.2-0.7l-3.8-2.9l-3.4-4.8c-0.2-0.3-0.5-0.3-0.8-0.2l-5.1,3l-0.4-3.8l1.9-4.3c0.1-0.2,0-0.5-0.1-0.6l-4.4-4.9
	c-0.1-0.1-0.2-0.2-0.3-0.2l-4.8-0.9l0.9-5.8c0-0.2,0-0.3-0.1-0.4l-3.4-4.5h0c0.3,0,0.6-0.2,0.6-0.5c0-0.3-0.2-0.6-0.5-0.6
	L42.5,188.1z"/>
<path id="divi-97666" class="st0" d="M247,344.7l5,5.9l-3.7,2.8l-6.5,1.9l-7.8,8.4l5,3.1l2.2-3.7l3.4,5.9l-2.2,10.9l1.6,5.9
	l-5.6,2.5l1.9,7.5l5.9,5l1.2,5.3l-8.4,5.3l-0.9,5l6.5,4.1l5-3.7l2.5,2.8l-4.4,3.4l6.5,3.7l2.8,4.7l4.4-1.2l5.3-7.5l-7.2-4.1l2.5-4.7
	l5.6-1.9l3.4,4.7l3.1-4.7l2.2,2.5l8.7-2.5l3.7,2.5l-5.6,2.5l1.6,4.4l-4.7,6.5l5,2.2l6.2-2.8l3.7-4.4l6.5,0.6l8.1,5.6l2.5-1.9
	l-4.4-6.5l10.9,6.2l0.3,16.8l4.1,3.4v-7.2l5-4.1l14.7,8.7l4.1-3.1l-2.8-6.9l2.8-0.9l-2.2-7.8l6.5,0.3l-28.7-39.9l8.7-10.9L319.1,351
	l-14.7-3.7l-25.6-17.8l-6.2-9.7l-3.1-8.7l-7.2,7.5l-1.9,2.8l-6.5,0.3l7.8,7.2l-9,5.6h-6.5l-0.6,4.4l7.5,1.9L247,344.7z"/>
</svg>
