<?xml version="1.0" encoding="utf-8"?>
<!-- Generator: Adobe Illustrator 20.1.0, SVG Export Plug-In . SVG Version: 6.00 Build 0)  -->
<svg version="1.1"
	 id="putumayo" inkscape:output_extension="org.inkscape.output.svg.inkscape" inkscape:version="0.46" sodipodi:docname="departamentos_colombia_plain.svg" sodipodi:version="0.32" xmlns:cc="http://creativecommons.org/ns#" xmlns:dc="http://purl.org/dc/elements/1.1/" xmlns:inkscape="http://www.inkscape.org/namespaces/inkscape" xmlns:rdf="http://www.w3.org/1999/02/22-rdf-syntax-ns#" xmlns:sodipodi="http://sodipodi.sourceforge.net/DTD/sodipodi-0.dtd" xmlns:svg="http://www.w3.org/2000/svg"
	 xmlns="http://www.w3.org/2000/svg" xmlns:xlink="http://www.w3.org/1999/xlink" x="0px" y="0px" viewBox="0 0 514 336"
	 style="enable-background:new 0 0 514 336;" xml:space="preserve">
<style type="text/css">
	.st0{fill:none;stroke:#000000;stroke-miterlimit:10;}
</style>
<path id="divi-86001" class="st0" d="M118.3,40.1l2.2,1.8c0.1,0,0.1,0.1,0.2,0.1l5.9,2.1l0.1,0l3.6,2.8l0.1,0.1l3.3,4.5l0.6,6.4v0
	v5.6v0l-2.1,8.2c0,0,0,0,0,0.1l-1.5,8.3c0,0.1,0,0.1,0,0.2l0.6,4.5c0,0.1,0.1,0.2,0.1,0.3l2.7,3.6c0.1,0.1,0.1,0.1,0.2,0.2l6.2,2.5
	c-0.1,0.1-0.1,0.3,0,0.5c0.1,0.2,0.2,0.3,0.3,0.3l-0.9,1.6c-0.1,0.2-0.1,0.5,0.1,0.7l3.6,3.9c0,0,0.1,0.1,0.1,0.1l8.2,5.2l0,0
	l5.1,5.6c0,0,0,0,0,0l5,4.7l0.1,0.1l2.2,2.9h-4.2c-0.3,0-0.5,0.2-0.6,0.5l-4.6-4.2l-5.7-7.7c-0.1-0.1-0.1-0.1-0.2-0.2l-6.1-3.8l0,0
	l-0.1-0.1l-7.6-7.6l-0.1-0.1l-3.5-5c-0.1-0.1-0.2-0.2-0.4-0.2l-5.7-0.6l-2.8-4.8c-0.1-0.2-0.3-0.3-0.5-0.3c-0.2,0-0.4,0.1-0.5,0.2
	l-4,4.9l-7,2c-0.1,0-0.1,0-0.2,0.1l-2.1,1.3l-0.9-2.8l-1.2-3.5v0l-2.1-7.3l0.2-4.7l3.9-2.8l0.1-0.1l4.7-2c0.2-0.1,0.4-0.3,0.4-0.5
	s-0.1-0.4-0.4-0.5L108,65c-0.1,0-0.1,0-0.2,0h-7.4c-0.1,0-0.2,0-0.2,0.1l-2.2,1.1l-2.5-1L94,62c0,0,0,0-0.1-0.1l-2.7-4l1.6-1
	l7.4,0.8c0,0,0.1,0,0.1,0l6.8-0.6c0.2,0,0.3-0.1,0.4-0.2l3.6-5.1c0,0,0-0.1,0-0.1l3.2-7L118.3,40.1z"/>
<path id="divi-86755" class="st0" d="M90.3,58.5l2.7,4l0.1,0.1l1.4,3.2c0.1,0.1,0.2,0.3,0.3,0.3l3,1.2c0.2,0.1,0.3,0,0.5,0l2.2-1.1
	h7.2l4,1.6l-3.5,1.5c0,0-0.1,0-0.1,0.1l-4.2,3c-0.1,0.1-0.2,0.3-0.2,0.4l-0.3,5.1c0,0.1,0,0.1,0,0.2l2.1,7.5c0,0,0,0,0,0l1.2,3.6
	l1,2.8c-0.2,0.1-0.3,0.2-0.4,0.4c-0.1,0.2,0,0.4,0.1,0.5l-4.5,0.2l-3.4-2.6c-0.1-0.1-0.2-0.1-0.3-0.1l-6-0.6l-6.1-0.6l-5.7-4.5
	l-1-5.1c0.2,0,0.3,0,0.5-0.1l4.8-3.3c0.1-0.1,0.2-0.2,0.2-0.3l2.1-6c0-0.2,0-0.3-0.1-0.5l-2.7-4.8c0-0.1-0.1-0.1-0.1-0.2l-3.1-2.5
	l3.5-0.6c0.1,0,0.1,0,0.2-0.1L90.3,58.5z"/>
<path id="divi-86749" class="st0" d="M80.9,62.5l3.5,2.8l2.5,4.5L85,75.3l-4.3,3l-2.4-1.2l1.4-2.6l1.8-3c0.1-0.1,0.1-0.2,0.1-0.2
	l0.3-3.2c0-0.1,0-0.3-0.1-0.4l-2-2.9L79,63.3L80.9,62.5z"/>
<path id="divi-86571" class="st0" d="M195.3,88.2l-0.3,0.1l-0.8,3.2c0,0.2-0.2,0.3-0.3,0.4l-3.9,1.5c-0.1,0.1-0.3,0.1-0.4,0
	l-6.1-2.1l-3.7,0.8l-1.4,3.6c-0.1,0.2-0.3,0.4-0.6,0.4l-7-0.3l-4.7,1.8c-0.1,0.1-0.3,0.1-0.4,0l-6.4-2.6l-8.2,1.5
	c-0.1,0-0.2,0-0.3-0.1l-8.8-3.7l-0.8,1.3l3.3,3.5l0,0l8.2,5.2c0,0,0.1,0.1,0.1,0.1l5,5.6l5.1,4.8c0,0,0,0,0.1,0.1l3,3.9
	c0.1,0.1,0.1,0.3,0.1,0.5c0,0.2-0.1,0.3-0.2,0.4l3.4,3.9c0.2,0.2,0.2,0.4,0.1,0.7l-1.6,2.7l3.4,5.1c0,0,0,0.1,0.1,0.2l1.5,4.5
	c0.1,0.3,0,0.6-0.3,0.7l-1.6,0.8l8.7,4.8l0.8-4.6c0-0.2,0.2-0.4,0.5-0.5l8.3-1.5c0.2,0,0.4,0,0.5,0.2l4.9,5.4l3.7,4.1l5-2.3
	c0.2-0.1,0.5-0.1,0.6,0.1l5.5,5.1l5-4.1c0.2-0.2,0.6-0.1,0.8,0.1l4.3,5.2l4.2,0.5c0.1,0,0.3,0.1,0.4,0.2l5.9,6.9
	c0.1,0.1,0.1,0.3,0.1,0.5l-0.8,3.5l3.5,1.8c0.2,0.1,0.3,0.3,0.3,0.5l40.4-5.4l24.2-30.8l-0.4-0.1c-0.1,0-0.2,0-0.2-0.1l-5.3-3.8
	l-7.7,0.5c-0.2,0-0.2-0.2-0.3-0.3l-0.5,0l0.7,0.8c0.1,0.2,0.2,0.5,0.1,0.7c-0.1,0.2-0.3,0.3-0.6,0.3l-3.9-0.5c-0.1,0-0.1,0-0.2-0.1
	l-6.3-2.9l-6.7,0.5c-0.2,0-0.3,0-0.5-0.2l-2.9-3c-0.1-0.1-0.1-0.2-0.2-0.3l-0.9-4h-7.4c-0.2,0-0.3,0-0.4-0.2
	c-0.1-0.1-0.2-0.3-0.2-0.4v-2.8h-5.8h-0.1l-6.2,1.9c-0.1,0-0.1,0-0.2,0h-5.4c-0.2,0-0.3-0.1-0.4-0.2l-5.4-5l-1.8,2.5
	c-0.1,0.2-0.3,0.3-0.6,0.2l-4.5-0.6c-0.2,0-0.3-0.2-0.4-0.3l-2.4-4.4l0-0.1l-2.8-3.1l0,0l-3.6-3.2l-2.4-2.4
	c-0.1-0.1-0.2-0.3-0.2-0.5c0-0.2,0.1-0.3,0.3-0.4l3.1-1.5l-2-3.5l-5.6-4.1v3.3c0,0.2-0.1,0.4-0.2,0.5c-0.1,0.1-0.4,0.1-0.5,0.1
	l-4.7-1.7l-6.7,0.9C195.5,88.6,195.4,88.3,195.3,88.2z"/>
<path id="divi-86219" class="st0" d="M77.9,63.8l0.8,1.4c0,0,0,0,0,0.1l2,2.8L80.4,71l-1.7,2.9c0,0,0,0,0,0l-1.4,2.6l-4.2-4.2
	c-0.1-0.1-0.3-0.2-0.4-0.2h-5.6l-1.6-0.5l0.2-0.9c0.1-0.2,0-0.5-0.2-0.6l1.2-2.2c0,0,0.1,0,0.1,0l7.8-2.7c0,0,0,0,0,0L77.9,63.8z"/>
<path id="divi-86760" class="st0" d="M65.2,72.7l1.6,0.5c0.1,0,0.1,0,0.2,0h5.5l4.2,4.2c0,0,0,0,0,0l0,0.1c0,0,0.1,0.1,0.1,0.1l0,0
	l0.2,0.2c0.1,0.1,0.3,0.2,0.5,0.2l1.7,0.8l1.2,6.2c0,0.1,0.1,0.3,0.2,0.3l6,4.8c0.1,0.1,0.2,0.1,0.3,0.1l6.3,0.6l5.8,0.6l3.5,2.6
	c0.1,0.1,0.2,0.1,0.4,0.1l6-0.3c0.2,0,0.3-0.1,0.4-0.3c0.1-0.2,0.1-0.3,0.1-0.5l0-0.1h1l5.1,5.1l1.6,8.7l-1.7-0.5l0.2-2.5
	c0-0.2-0.1-0.4-0.2-0.5l-2.5-1.9l-0.3-2.8c0-0.2-0.1-0.3-0.3-0.4l-3.3-1.8c-0.1-0.1-0.3-0.1-0.4,0l-3,0.9l-3.7,0.3h-0.1l-5-0.3
	c0,0,0,0,0,0l-10.7-0.3l-5.2-1.5c-0.1,0-0.1,0-0.2,0l-10.2-0.3l0.6-4.8c0-0.2-0.1-0.5-0.3-0.6l-4.8-2.5L65.8,78
	c0-0.1-0.1-0.3-0.2-0.3l-1.3-1.6L65.2,72.7z"/>
<path id="divi-86885" class="st0" d="M122.3,84.4l2.6,4.4c0.1,0.2,0.3,0.3,0.4,0.3l5.7,0.6l3.4,4.8c0,0,0,0.1,0.1,0.1l7.8,7.8
	c0,0,0.1,0,0.1,0.1l6.2,3.8l5.6,7.7c0,0,0.1,0.1,0.1,0.1l4.5,4l-5.2-0.2c0,0-0.1,0-0.1,0l-8.3,0.9c-0.1,0-0.1,0-0.2,0.1l-4.9,2.3
	l-10.6-1.2c0,0,0,0-0.1,0l-16.7-0.3h-4.5l-0.2-0.2c-0.1-0.1-0.3-0.2-0.5-0.1c-0.2,0-0.3,0.1-0.4,0.3h-6.9h-6.5h-0.1l-7.4-0.9
	l-4.6-6.6l-6-8.7c0,0-0.1-0.1-0.1-0.1l-5.3-5l0.2-2l10.2,0.2l5.4,1.5c0,0,0.1,0,0.1,0l10.7,0.3l5.1,0.3c0,0,0,0,0.1,0l3.9-0.3
	c0,0,0.1,0,0.1,0l2.7-0.8l2.8,1.6l0.2,2.7c0,0.2,0.1,0.3,0.2,0.4l2.4,1.9l-0.3,2.7c0,0.3,0.1,0.5,0.4,0.6l3,0.9
	c0.2,0.1,0.4,0,0.5-0.1c0.1-0.1,0.2-0.3,0.2-0.5l-1.8-9.8c0-0.1-0.1-0.2-0.2-0.3l-5.4-5.3c-0.1-0.1-0.3-0.2-0.4-0.2h-0.2l1.1-0.7
	l0.1,0l7-2c0.1,0,0.2-0.1,0.3-0.2L122.3,84.4z"/>
<path id="divi-86320" class="st0" d="M69.9,99.6l4.7,4.5l5.9,8.6l4.8,6.8c0.1,0.1,0.2,0.2,0.4,0.2l7.8,0.9c0,0,0,0,0.1,0h6.6h7.6
	l5.3,4.2l0.8,3.4c0,0.2,0.1,0.3,0.3,0.4l6,3.3l-2.3,3.9l0,0l-8.9,12.1l0,0.1l-3.8,4.4l-2.2,1.1c0,0,0,0,0,0l-7.1,3.8l-9,0.3h-0.1
	l-9.2-1.5l-4.6-7.2c-0.1-0.2-0.3-0.3-0.5-0.3s-0.4,0.2-0.5,0.4l-3.2,8.2l-4.3,4.6l-0.9-4.9c0,0,0-0.1,0-0.1l-3-7.2c0,0,0,0,0-0.1
	l-6-10.4c0,0,0-0.1-0.1-0.1l-6.5-7l1.3-1.1l1.8-1.5c0.1-0.1,0.2-0.2,0.2-0.3l0.2-1c0.1,0,0.2-0.1,0.3-0.2l4.2-4.8l2.6-2
	c0.1-0.1,0.2-0.3,0.2-0.4c0-0.2-0.1-0.3-0.2-0.5l1.8-2.5c0.1-0.2,0.1-0.4,0-0.6l10.9-9.8c0.1-0.1,0.2-0.2,0.2-0.4l0.3-3.3
	c0-0.2,0-0.3-0.2-0.4l-1.9-1.9L69.9,99.6z"/>
<path id="divi-86569" class="st0" d="M160.4,117.9h4.1l3.7,4.2l-1.6,2.6c-0.1,0.2-0.1,0.4,0,0.6l3.5,5.3l0,0l1.3,3.8l-3,1.5l-0.1,0
	l-9.7,2.7l-19.1,4.2l-9.5,0.3l-5.8-5.2c-0.1-0.1-0.2-0.1-0.2-0.1l-5.5-1.2l0.2-0.3c0,0,0,0,0-0.1l2.7-4.5c0.2-0.3,0.1-0.6-0.2-0.8
	l-6.3-3.5l-0.8-3.3c0-0.1-0.1-0.2-0.2-0.3l-4.3-3.5h3.1l16.6,0.3h0l10.7,1.2c0.1,0,0.2,0,0.3-0.1l4.9-2.3l8.2-0.9h0.1l6.8,0.3
	c0.2,0,0.5-0.1,0.6-0.4c0.1-0.2,0-0.5-0.1-0.6L160.4,117.9z"/>
<path id="divi-86573" class="st0" d="M299,126.2l0.4,0.1c0.2,0,0.3,0,0.5-0.1l1.7,0.8l-4,5.8c-0.1,0.1-0.1,0.3-0.1,0.5
	c0,0.2,0.2,0.3,0.3,0.4l3.8,1.4l5.5,6l-4.1,5c-0.2,0.2-0.2,0.5,0,0.8l5.7,6.2l-0.5,5.1c0,0.2,0.1,0.4,0.2,0.5
	c0.2,0.1,0.4,0.1,0.6,0.1l12-5.6l-1.4,2.3c-0.1,0.2-0.1,0.4-0.1,0.5c0.1,0.2,0.2,0.3,0.4,0.3l5.8,1.4l3.3,1.9l0.1,0.1l6.9,6
	l-3.2,5.5c-0.1,0.2-0.1,0.4,0,0.6l4.1,5.9l-3.5,2.6c-0.1,0.1-0.2,0.2-0.2,0.4c0,0.2,0,0.3,0.1,0.4l3.9,4.9c0.1,0.2,0.3,0.2,0.5,0.2
	l11.2-1.5l8.8,2.9c0,0,0,0,0,0l14.9,3.8l3.7,11.9l-5.2,0.9c-0.2,0-0.4,0.1-0.4,0.3c-0.1,0.2-0.1,0.4,0,0.5l1.5,2.9
	c0.1,0.2,0.2,0.3,0.4,0.3l5.2,1l-5.7,1.3c-0.2,0-0.4,0.2-0.4,0.4c-0.1,0.2,0,0.4,0.1,0.6l7.6,8l-4.1,6.9l-0.1,0.1
	c-0.2,0.2-0.2,0.6,0.1,0.8c0.2,0.2,0.6,0.2,0.8-0.1l4.7-4.2l2.7,1.2l-0.4,3.5c0,0.2,0.1,0.5,0.3,0.6l12.8,6.4
	c0.3,0.1,0.6,0.1,0.8-0.2c0.1,0.2,0.3,0.2,0.5,0.2l5.9,0.5c0.2,0,0.3,0,0.4-0.1c0.1-0.1,0.2-0.3,0.2-0.4v-8.2l4.5,1.2l-3.2,6.8
	c-0.1,0.2-0.1,0.6,0.2,0.7c0.2,0.2,0.5,0.2,0.7,0l4.3-3.8l8.5,0.5h0.1l6.2,1.9h0l4.2,1.7l-3,4.3c-0.1,0.2-0.2,0.4-0.1,0.6l2,3.9
	c0.1,0.2,0.2,0.3,0.4,0.3l5.4,1.5c0.2,0.1,0.4,0,0.6-0.2l1.9-2.3l3.5,7.1c0.1,0.2,0.2,0.3,0.4,0.3s0.3,0,0.5-0.1l5.5-3.7l6.5,6.1
	c0.2,0.1,0.4,0.2,0.6,0.1l3.5-1.3l4.7,8c0.1,0.1,0.2,0.2,0.4,0.3l12.2,2.9l0.1,0l6.6,2.9l-66,20.3c0,0-0.1-0.1-0.1-0.1l-14.2-6.3
	L390,264.5c-0.1-0.1-0.2-0.2-0.4-0.2l-17.4-1.9l-2.1-12.1c0-0.1-0.1-0.2-0.2-0.3L359.2,239c-0.1-0.1-0.3-0.2-0.5-0.2
	s-0.3,0.1-0.4,0.3l-5.4,9l-34.5-22.9c-0.1,0-0.1-0.1-0.2-0.1l-9.9-2.8c-0.2-0.1-0.5,0-0.6,0.2l-6.1,9l-11.6-3.4c-0.1,0-0.1,0-0.2,0
	l-10.3-0.4l-16.8-8.7l-6.7-12.3c-0.1-0.2-0.3-0.3-0.6-0.3c-0.2,0-0.4,0.2-0.5,0.4l-2.1,5.6l-8.4,1.2l-12.1-2.7l-11.2-9l-9.7-10.4
	c0,0,0,0,0,0l-20.2-17.8l0,0l-2.9-4.7l85.6-11.4c0.1,0,0.3-0.1,0.4-0.2L299,126.2z"/>
<path id="divi-86568" class="st0" d="M189.1,135.7l4.7,5.2l3.9,4.4c0.2,0.2,0.5,0.2,0.7,0.1l5.1-2.3l5.6,5.2c0.2,0.2,0.5,0.2,0.8,0
	l5-4.1l4.1,5c0.1,0.1,0.2,0.2,0.4,0.2l4.2,0.5l5.6,6.5l-0.9,3.6c-0.1,0.3,0.1,0.5,0.3,0.7l3.2,1.6l-43.9,5.9c0,0,0,0,0,0
	c-0.1-0.1-0.2-0.1-0.2-0.1l-13.5-2.7l-9.8-2.8c-0.2-0.1-0.5,0-0.6,0.2l-4.5,6.1l-8.5-0.1c-0.3,0-0.5,0.2-0.6,0.5l-1.8,17.2l-17.3,2
	l-13.5-7.6c-0.2-0.1-0.5-0.1-0.7,0.1l-0.9,0.8l-1.3-4.1c0.2-0.1,0.3-0.3,0.3-0.6c0-0.2-0.2-0.4-0.4-0.5l-0.2-0.1l-3.3-11.8
	c0,0,0,0,0,0l-4.4-12.5l3.2-3.6c0,0,0,0,0-0.1l8-11c0.1,0.1,0.2,0.2,0.3,0.2l5.5,1.2l5.8,5.2c0.1,0.1,0.3,0.2,0.4,0.2l9.8-0.3
	c0,0,0.1,0,0.1,0l19.1-4.2c0,0,0,0,0,0l9.8-2.7c0,0,0.1,0,0.1-0.1l0.8-0.4c0.1,0.1,0.1,0.1,0.2,0.2l9.8,5.4c0.2,0.1,0.3,0.1,0.5,0
	c0.2-0.1,0.3-0.2,0.3-0.4l0.9-5L189.1,135.7z"/>
<path id="divi-86865" class="st0" d="M72.5,150.5l4.2,6.5c0.1,0.2,0.2,0.3,0.4,0.3l9.5,1.5c0,0,0.1,0,0.1,0l9.2-0.3
	c0.1,0,0.2,0,0.2-0.1l7.2-3.9l1.6-0.8h0.1c0.2,0,0.4,0,0.5-0.2l0.2-0.2l4.2,11.9l0,0.1l3.1,11l-6.5-2.2c-0.1,0-0.1,0-0.2,0h-6.9
	c-0.1,0-0.2,0-0.2,0.1l-6.2,2.8l-7.5-4.9c-0.1-0.1-0.2-0.1-0.3-0.1l-8.9,0.3c-0.2,0-0.3,0.1-0.4,0.2l-4.7,5.4l-6.7-8
	c-0.2-0.2-0.4-0.2-0.6-0.2l0.4-6.2c0.1,0,0.2-0.1,0.2-0.2l5.1-5.3c0-0.1,0.1-0.1,0.1-0.2L72.5,150.5z"/>
<path id="divi-86757" class="st0" d="M85,173l7.6,5c0.2,0.1,0.4,0.1,0.5,0l6.4-2.9h6.7l7.2,2.4l0.1,0.4c0,0,0,0,0,0l1.5,4.7
	l-0.4,0.4l-9-1.2c-0.2,0-0.4,0.1-0.5,0.2c-0.1,0.2-0.2,0.4-0.1,0.6l2.2,5.9l-8.3-3.2c-0.1-0.1-0.3-0.1-0.4,0l-5.8,2.4l-9-7.7
	c-0.1-0.1-0.2-0.1-0.3-0.2L72,178.9l-0.2-0.2l4.6-5.4L85,173z"/>
</svg>
