<?xml version="1.0" encoding="utf-8"?>
<!-- Generator: Adobe Illustrator 20.1.0, SVG Export Plug-In . SVG Version: 6.00 Build 0)  -->
<svg version="1.1"
	 id="casanare" inkscape:output_extension="org.inkscape.output.svg.inkscape" inkscape:version="0.46" sodipodi:docname="departamentos_colombia_plain.svg" sodipodi:version="0.32" xmlns:cc="http://creativecommons.org/ns#" xmlns:dc="http://purl.org/dc/elements/1.1/" xmlns:inkscape="http://www.inkscape.org/namespaces/inkscape" xmlns:rdf="http://www.w3.org/1999/02/22-rdf-syntax-ns#" xmlns:sodipodi="http://sodipodi.sourceforge.net/DTD/sodipodi-0.dtd" xmlns:svg="http://www.w3.org/2000/svg"
	 xmlns="http://www.w3.org/2000/svg" xmlns:xlink="http://www.w3.org/1999/xlink" x="0px" y="0px" viewBox="0 0 465 336"
	 style="enable-background:new 0 0 465 336;" xml:space="preserve">
<style type="text/css">
	.st0{fill:none;stroke:#686868;stroke-miterlimit:10;}
</style>
<path id="divi-85125" class="st0" d="M370.1,44.8l14.1,1.8c0.1,0,0.1,0,0.2,0l8.8-1.2h0.1h6.3l14.6,11.7l1.2,5.2
	c0.1,0.3,0.4,0.5,0.7,0.4l7-1.2l7.4,4.6l2.6,4.7l-2.9,2.1l-6.3-1.2c-0.1,0-0.3,0-0.4,0.1l-2.7,1.6l-5-2.2l-8.3-5.3
	c-0.1-0.1-0.2-0.1-0.3-0.1l-8.2,0.6l0,0l-4.7-1.2c-0.1,0-0.2,0-0.3,0l-8.8,2.3l-7-2.9c-0.2-0.1-0.5-0.1-0.6,0.1l-8.2,7.6l-6.2-1.2
	h-0.1l-10.6,0.6l-5.8-2.9c-0.1,0-0.2-0.1-0.3-0.1l-13.5,0.6l-5.2-4.6c-0.2-0.1-0.4-0.2-0.6-0.1L317,69.9c0,0-0.1,0-0.1,0.1l-4.1,3.5
	l-10,2.9l0,0l-13.4-0.6l-14.3-4.2c-0.1,0-0.2,0-0.3,0l-9.5,2.4L254,76.4c-0.1,0-0.2,0.1-0.3,0.2l-10.6,10H243l-11.1,5.8h-5.3
	c-0.1,0-0.2,0-0.3,0.1l-5.2,4.1l-10.6,1.8c-0.1,0-0.2,0-0.2,0.1l-6.5,4.1l-6.7,0.6l-7.6-8.7c-0.1-0.1-0.1-0.1-0.2-0.2l-8.3-3
	c-0.1,0-0.1,0-0.2,0l-9.1-0.6l-1.1-6.1c0-0.1-0.1-0.2-0.2-0.3l-7.2-6.5c-0.1-0.1-0.2-0.1-0.2-0.2l-6-1.5l0.6-1
	c0.1-0.2,0.1-0.5,0-0.7l-1.7-1.9c-0.1-0.1-0.2-0.2-0.3-0.2l-3.9-0.7l0.6-5.2c0-0.2,0-0.3-0.1-0.4s-0.3-0.2-0.4-0.2h-0.4l6.3-2
	c0.1,0,0.1,0,0.2-0.1l8-5.2l7.4,4.6c0.2,0.1,0.5,0.1,0.7,0l5.8-4.7l7.6-1.8h0.1l15.8-5.8l9.3,5.2c0.1,0.1,0.3,0.1,0.4,0.1l5-1.1
	l4.7,1.2c0.1,0,0.2,0,0.3,0l6-1.8c0.1,0,0.2-0.1,0.2-0.1l2.8-2.8l10.5,1.2c0.1,0,0.2,0,0.3-0.1l7.2-3l0,0l6-2.7l3,1.5
	c0.2,0.1,0.4,0.1,0.6-0.1l2.8-2.2l5,1.1h0.1l6.5,2.3c0.2,0.1,0.3,0.1,0.5,0l3.9-2.2l6.9,2.3l10.1,3.6c0.1,0,0.1,0,0.2,0l8.9-0.6l0,0
	l8.9-1.2h0.1l4.5-1.7l8.5,4.8l-0.1,0.4c-0.1,0.2,0,0.4,0.1,0.6c0.1,0.1,0.4,0.2,0.6,0.2l19.7-3.6l13.1-1.8c0.1,0,0.1,0,0.2-0.1
	L370.1,44.8z"/>
<path id="divi-85250" class="st0" d="M377.8,65.8l6.8,2.8c0.1,0.1,0.2,0.1,0.4,0l8.8-2.3l4.6,1.2c0.1,0,0.1,0,0.2,0l8.2-0.6l8.2,5.3
	c0,0,0,0,0.1,0l5.4,2.4c0.2,0.1,0.4,0.1,0.5,0l2.8-1.7L430,74c0.2,0,0.3,0,0.4-0.1l2.9-2.1l0.4,0.7c0.1,0.1,0.2,0.2,0.3,0.3l6.5,2.3
	l-5,6.9c0,0,0,0,0,0.1l-3.6,7.1v0.1l-6.5,7c0,0,0,0-0.1,0.1l-7.1,11.3l0,0l-5.9,8.3l0,0l-6.5,8.2l-11.1,5.2h-0.1l-13.6,3.5
	l-10.6,1.2c-0.1,0-0.1,0-0.2,0l-10.7,4.2c0,0-0.1,0-0.1,0.1l-6.5,4.7h-0.3c-0.2,0-0.4,0.1-0.5,0.2l-0.4,0.6l-0.7,0.5l-0.1,0.1
	l-12.1,2.8h-0.1l-12.4,1.8h-0.1l-17.7,0.6h-0.1l-11.8-1.8c-0.2,0-0.3,0-0.5,0.1l-6.2,5.1l-5-3.3l0,0l-6.6-3.6
	c-0.1-0.1-0.3-0.1-0.5,0l-6.5,2.4l-11.2-0.6l0,0h-8.8l-9.4-4.7c-0.1,0-0.1-0.1-0.2-0.1l-14.8-1.2l-7.1-4.1c-0.1,0-0.1-0.1-0.2-0.1
	l-10.7-1.2h-0.1l-6.7-2.5c0-0.2-0.1-0.3-0.2-0.4c-0.1-0.1-0.3-0.1-0.4-0.1l-0.4,0.1l-1.6-0.6l-13-10.7c0,0,0,0-0.1-0.1l-13-7.7l0,0
	h-0.1l-10-8.9c0,0-0.1-0.1-0.2-0.1l-8.2-3.6l1.6-0.9c0.2-0.1,0.3-0.3,0.3-0.5l0.2-6.8l2.8-3.1c0,0,0-0.1,0.1-0.1l1.2-2
	c0.1-0.2,0.1-0.4,0-0.6l-2.9-4.9l-1.9-6l5.8,1.5l6.9,6.3l1.2,6.3c0,0.3,0.3,0.5,0.5,0.5l9.4,0.6l8.2,2.9l7.6,8.8
	c0.1,0.1,0.3,0.2,0.5,0.2l7.2-0.6c0.1,0,0.2,0,0.2-0.1l6.4-4.1l10.6-1.8c0.1,0,0.2,0,0.2-0.1l5.2-4.1h5.2c0.1,0,0.2,0,0.3-0.1
	l11.3-5.9l0.1-0.1l10.6-10l11.1-2.3l0,0l9.4-2.4l14.2,4.2h0.1l13.7,0.6c0.1,0,0.1,0,0.2,0l10.1-3c0.1,0,0.2,0,0.2-0.1l4.1-3.5
	l9.8-5.2l5.1,4.5c0.1,0.1,0.3,0.2,0.4,0.2l13.5-0.6l5.8,2.9c0.1,0,0.2,0.1,0.3,0.1l10.6-0.6l0,0l6.5,1.2c0.2,0,0.3,0,0.5-0.2
	L377.8,65.8z"/>
<path id="divi-85263" class="st0" d="M154,102.8l8.9,3.9l10.1,8.9c0,0,0,0,0.1,0.1l13.1,7.8l13,10.7c0,0,0.1,0.1,0.2,0.1l-3.5,0.7
	c-0.1,0-0.1,0-0.2,0.1l-5.8,2.9H183l-6.3-2.9l-7.8-5.3c-0.2-0.1-0.5-0.1-0.7,0l-3.1,2.2l-0.2-0.7c-0.1-0.2-0.2-0.4-0.5-0.4
	c-0.2,0-0.5,0.1-0.6,0.3l-1.4-2.4c-0.1-0.1-0.1-0.2-0.2-0.2l-14.6-7.6l-0.4-3.4h0.2c0.2,0,0.4-0.2,0.5-0.4l0.8-2.9
	c0-0.1,0-0.2,0-0.3l-1.5-5.4l2.7-1.6l0.1-0.1l3-3.2l0.1-0.1L154,102.8z"/>
<path id="divi-85430" class="st0" d="M169.4,130.8l7.4,5.1c0,0,0,0,0.1,0l6.5,2.9c0.1,0,0.2,0.1,0.2,0.1h7.1c0.1,0,0.2,0,0.2-0.1
	l5.9-2.9l0,0l5.1-1l7.5,2.8c0.1,0,0.1,0,0.2,0l10.5,1.1l7.1,4c0.1,0,0.2,0.1,0.2,0.1l14.7,1.2l9.4,4.6c0.1,0,0.2,0.1,0.2,0.1h8.9
	l0,0l11.2,0.6c0.1,0,0.2,0,0.2,0l6.3-2.2l6.3,3.3l0,0l5.3,3.5c0.2,0.1,0.5,0.1,0.7,0l6.3-5.1l11.6,1.7h0.1l17.8-0.6c0,0,0,0,0.1,0
	l12.4-1.7c0,0,0,0,0.1,0l11.3-2.5l-2.4,3.3l-12.9,7.5c-0.1,0.1-0.2,0.2-0.3,0.3l-1.7,6.3l-4.6,6.8l-13.5,9.9l0,0l-9.6,5.7
	c-0.1,0-0.3,0-0.4,0.1l-0.4,0.2l-4.3-4.7c-0.1-0.1-0.1-0.1-0.2-0.2l-8.3-2.9c-0.1,0-0.1,0-0.2,0l-17.1-1.2L264,174l-4.8-2.3
	c-0.1,0-0.2-0.1-0.2-0.1h-14.1l-10.5-5.8c-0.1,0-0.1-0.1-0.2-0.1l-9.9-1.7l-7-5.7c-0.1,0-0.1-0.1-0.2-0.1l-14.1-4.7h-0.1l-10.6-5.8
	c-0.1-0.1-0.3-0.1-0.4-0.1l-5,1.1l-5.7-5.6l0,0l-7.7-5.9c-0.1-0.1-0.3-0.1-0.4-0.1l-5.4,0.5l-1.2-4.7L169.4,130.8z"/>
<path id="divi-85325" class="st0" d="M172,137.4l7.5,5.8l0.1,0.1l5.9,5.9c0.1,0.1,0.3,0.2,0.5,0.2l5.2-1.2l10.5,5.9h0.1l14.2,4.7
	l7.1,5.9c0.1,0.1,0.2,0.1,0.3,0.1l10,1.8l10.7,5.9c0.1,0,0.2,0.1,0.3,0.1h14.2l4.6,2.3h0.1l10.8,3h0.1l17.3,1.2l8.1,2.9l4,4.5
	l-8.1,4c-0.1,0.1-0.3,0.2-0.3,0.3l-1.2,4.1l0,0v0.1l-1.7,3.8c-0.1-0.1-0.3-0.1-0.5,0c-0.1,0.1-0.3,0.2-0.3,0.3l-0.5,1.2l-4.2,1.4
	l-8.8-1.8h-0.1h-7.8c-0.1,0-0.2,0-0.2,0.1l-6.2,2.8l-2.6-3.1l-1.2-4.7c-0.1-0.3-0.3-0.4-0.6-0.4l-5,0.6l-5-6.1l1.1-3.2
	c0.1-0.2,0-0.3,0-0.5c-0.1-0.1-0.2-0.2-0.4-0.3l-5.4-1.2l0,0l-6.9-1.2l-4.1-5.8c-0.1-0.1-0.2-0.2-0.4-0.2l-9.5-1.2
	c-0.2,0-0.4,0.1-0.5,0.2l-2.8,4l-5,1.7l-7-2.3c-0.2-0.1-0.4,0-0.5,0.1s-0.2,0.3-0.2,0.5l0.6,10.6l-8.8-1.7c-0.2,0-0.4,0-0.5,0.2
	s-0.2,0.4-0.1,0.6l1.5,5.1l-5.6-1h-0.1l-7.7-2.4c0,0,0,0-0.1,0l-5.9-1.2h-0.1l-10.7-3.5c-0.2-0.1-0.5,0-0.6,0.2l-4,5.1l-1.3-0.3
	l-0.9-1.2c-0.2-0.2-0.5-0.3-0.7-0.2l-1.2,0.6l-5.2-9.7v-0.1l-1.2-6.5c-0.1-0.3-0.3-0.5-0.6-0.5H150l-1.1-6.1v-0.1l-2.2-6.4
	c0.1,0,0.1-0.1,0.2-0.1l4.6-4.1l12.9-1.8l8.2,2.4c0.1,0,0.3,0,0.4-0.1l8.3-4.2c0.3-0.1,0.4-0.4,0.3-0.7l-2.4-6.6
	c-0.1-0.2-0.2-0.3-0.3-0.3s-0.3,0-0.5,0l-3.2,1.6l-8.9-9.4L172,137.4z"/>
<path id="divi-85230" class="st0" d="M223.7,176.7l8.9,1.1l4.1,5.8c0.1,0.1,0.2,0.2,0.4,0.2l7.1,1.2l0,0l4.7,1l-1,3
	c-0.1,0.2,0,0.4,0.1,0.6l5.3,6.6c0.1,0.1,0.3,0.2,0.5,0.2l4.9-0.5l1.1,4.3c0,0.1,0.1,0.2,0.1,0.2l3,3.6c0.2,0.2,0.4,0.3,0.7,0.2
	l6.4-2.9h7.5l8.9,1.8c0.1,0,0.2,0,0.3,0l3.4-1.1l-4.2,9.9l-4.7,1.4c-0.1,0-0.2,0.1-0.2,0.1l-1,0.8c-0.2,0-0.3,0-0.5,0.1
	c-0.1,0.1-0.2,0.3-0.2,0.4l-10,8.3l-8.7,1.9l0,0l-8.9,2.5h-0.1l-9.3,4.4l0,0l-11.8,6.9l0,0l0,0l-13.2,5.4c-0.1,0-0.1,0.1-0.2,0.1
	l-6.7,5.8l0,0l-15.5,5.8l-1.5-0.7c-0.1-0.2-0.3-0.3-0.5-0.2h-0.1l-7.5-3.4l-8.7-5.8l-4.4-8.8c0-0.1-0.1-0.1-0.1-0.2l-7.3-5.8
	l-0.1-0.1l-6.3-6.3l-0.1-0.1l-7.9-4.4c0,0-0.1,0-0.2-0.1l-7.1-1.4l-1.2-1.9c0.1,0,0.2-0.1,0.2-0.2l1.7-1.7l0.1-0.1l0,0l6.4-4.1
	l8.2-5.3l11.3-4.2c0.2-0.1,0.3-0.2,0.3-0.4s0-0.3-0.1-0.5l-2.4-4.2c0,0,0,0-0.1-0.1l-2.7-3.3l0.3,0.1c0.2,0.1,0.4,0,0.6-0.2l3.9-5
	l10.3,3.4c0,0,0,0,0.1,0l5.9,1.2h0.1l7.7,2.3c0,0,0,0,0.1,0l6.5,1.2c0.2,0,0.4,0,0.5-0.2c0.1-0.1,0.2-0.4,0.1-0.5l-1.5-5.1l8.6,1.6
	c0.2,0,0.4,0,0.5-0.1s0.2-0.3,0.2-0.5l-0.6-10.5l6.3,2.1c0.1,0,0.3,0,0.4,0l5.4-1.8c0.1,0,0.2-0.1,0.3-0.2L223.7,176.7z"/>
<path id="divi-85139" class="st0" d="M116,195.8l5.1,3.9l4.1,10c0.1,0.2,0.2,0.3,0.4,0.3l7.6,1.8l4.7,4.1c0.1,0.1,0.2,0.1,0.3,0.1
	l2.3,0.4l1.8,2.9c0.1,0.1,0.2,0.2,0.4,0.2l7.2,1.4l7.7,4.3l0.1,0.1l6.3,6.3l0,0l7.3,5.8l4.3,8.8c0.1,0.1,0.1,0.2,0.2,0.2l8.8,5.9
	c0,0,0.1,0,0.1,0.1l6.6,3l-5.1,2.4h-0.1l-6.9,4.4c-0.1,0-0.1,0.1-0.2,0.2l-2.9,4.8v0.1l-8.7,10.6l-9.2,1.9l0,0l-4.6,1.4l-3.2-4.1
	c-0.1-0.1-0.2-0.2-0.3-0.2l-0.2-0.1c0.1-0.2,0.1-0.5-0.1-0.7c-0.2-0.2-0.5-0.2-0.7-0.1l-0.4,0.4l-5.4-1.5l0,0l-9.3-2
	c-0.1,0-0.2,0-0.2,0l-9.4,2c-0.1-0.2-0.4-0.3-0.6-0.2l-5.3,1.3l-2.5-2.2l0,0l-2.8-4.9c-0.1-0.2-0.2-0.3-0.4-0.3l-4.1-0.7h-0.1
	l-4-1.7l-5.1-4.9l-3.5-6.8l-3-5.8l-0.1-0.1l-1-1.1l1.9-3.7c0.1-0.2,0.1-0.4,0-0.5l-3.9-8.1c0,0,0,0-0.1-0.1l-3.2-4.8c0,0,0,0,0-0.1
	L83,226l8.5-0.9h0.1l5-1.4l0,0l3.7-1.2l2.7-0.2c0.2,0,0.3-0.1,0.4-0.2l4.6,2.1l0,0l5.3,2.3c0.2,0.1,0.5,0,0.7-0.1s0.2-0.5,0-0.7
	l-3-4.4l-0.1-0.1l-7-6.3l-1.5-5c0-0.1,0-0.1-0.1-0.2l-2.9-4.4l0.3-1.7l3,1.3l3.4,3.8c0.2,0.2,0.4,0.2,0.6,0.2l3.2-1.2c0,0,0,0,0.1,0
	l2.2-1.2h3.6c0.3,0,0.5-0.2,0.6-0.4l0.5-1.8c0-0.1,0-0.2,0-0.3l-0.7-2.9l0,0l0.2-3.7v-0.1L116,195.8z"/>
<path id="divi-85136" class="st0" d="M107,50.9l4.3,4.4l5.9,6.2c0.1,0.1,0.1,0.1,0.2,0.1l6.9,2.4l1.1,1.3l-2.2,1.4l-4.6,1.6
	c-0.1,0.1-0.2,0.2-0.3,0.3l-0.9,1.6l-4.3-2.4l-4.9-4.5l-2.1-8.3L107,50.9z"/>
<path id="divi-85315" class="st0" d="M126.4,66.2l-0.1,0.5l5.7,0.7v-0.3l4,4l0,0l2.6,2.9c0.1,0.2,0.4,0.2,0.6,0.2L144,73
	c0.1,0,0.2-0.1,0.2-0.2l3.3-2.9l0.1-0.1l1.6-2.8h1.2l-0.6,5.1c0,0.3,0.2,0.6,0.5,0.6l4.2,0.8l1.2,1.5l-0.5,0.8l-5.6-2.2
	c-0.2-0.1-0.5-0.1-0.6,0.1l-2.1,2c-0.1,0.1-0.2,0.3-0.2,0.5l0.7,4.5l-2.2-0.2l-1.5-1.2c-0.1-0.1-0.3-0.2-0.5-0.1s-0.3,0.2-0.4,0.4
	l-1.5,4.9c-0.1,0.2,0,0.4,0.1,0.6c0,0-0.9,0.1-2,0.9c-0.6,0.4-1.2,0.7-1.7,0.8c-0.6,0.1-1,0.1-1.4-0.2c-2.2-1.4-6.2-4-6.4-4.1l0,0
	l-2.6-3.7c-0.1-0.1-0.3-0.2-0.4-0.2c-0.2,0-0.3,0.1-0.5,0.2l-3.5,4.5l-3.6,1.3l-2.4-2.9l-1.8-4.3c-0.1-0.3-0.4-0.4-0.7-0.4l-1.7,0.4
	l0.2-1.8l3.8-0.8c0.2,0,0.3-0.2,0.4-0.4l1.2-3.1c0-0.1,0-0.3,0-0.4l0.7-1.3l4.3-1.6c0,0,0.1,0,0.1-0.1L126.4,66.2z"/>
<path id="divi-85400" class="st0" d="M149.5,74.7l5,2l0,0c0.1,0.1,0.1,0.1,0.2,0.2l2.2,6.8c0,0,0,0.1,0.1,0.1l2.8,4.6l-0.9,1.6
	l-0.1,0.1l-2.9,3.2c-0.1,0.1-0.2,0.2-0.2,0.4l-0.2,6.7l-2.1,1.2h-0.1c-0.2-0.1-0.4-0.1-0.5,0s-0.3,0.3-0.3,0.5l0,0l-0.5,0.3
	c-0.1,0-0.1,0.1-0.2,0.1l-3.1,3.2v0.1l-3,1.7c-0.2,0.1-0.4,0.4-0.3,0.7l1.6,5.7l-0.6,2.1v-0.2c0-0.2-0.1-0.4-0.3-0.6
	c-0.2-0.1-0.5-0.1-0.6,0.1c-0.2,0.1-0.2,0.4-0.2,0.6l0.1,0.4l-7,0.6c-0.1,0-0.2,0.1-0.3,0.1l-3.6,2.6l-5.3-0.6l-5.2-5.1l0,0l-3-6.4
	c0-0.1-0.1-0.1-0.1-0.2l-2.1-1.9c-0.1-0.1-0.1-0.1-0.2-0.1l-9.7-2.9c0-0.2-0.1-0.4-0.3-0.5l-7.8-3.7l0.2-0.5l4.4-3.3
	c0.2-0.1,0.2-0.3,0.2-0.5h0.1l4.1-1.3c0.2-0.1,0.3-0.2,0.4-0.4l2.1-6.7c0-0.1,0-0.1,0-0.2l0.2-5.8l0,0l0.1-0.4
	c0.2,0,0.3-0.1,0.4-0.2s0.2-0.3,0.1-0.5l1.1-0.2l1.6,4c0,0.1,0.1,0.1,0.1,0.2l2.8,3.2c0.2,0.2,0.4,0.3,0.7,0.2l4.1-1.5
	c0.1,0,0.2-0.1,0.3-0.2l3.1-4l2.2,3.1c0,0.1,0.1,0.1,0.2,0.1c0,0,4.2,2.8,6.5,4.2c0.7,0.5,1.6,0.5,2.3,0.3c0.8-0.2,1.5-0.5,2.1-1
	c1.3-0.8,2.2-1.9,2.2-1.9l-0.4-0.4l0.6,0.2l1.2-4.1l1,0.8c0.1,0.1,0.2,0.1,0.3,0.1l3.1,0.3c0.2,0,0.4,0,0.5-0.2s0.2-0.3,0.2-0.5
	l-0.8-4.9L149.5,74.7z"/>
<path id="divi-85225" class="st0" d="M145.7,117.4l0.4,3.8c0,0.2,0.1,0.3,0.3,0.4l14.8,7.7l2.3,4c0.1,0.2,0.3,0.3,0.5,0.3l1.1,4.5
	L165,138c-0.1-0.2-0.3-0.2-0.6-0.2c-0.2,0-0.4,0.2-0.4,0.4c-0.1,0.2,0,0.4,0.1,0.6l10.2,10.8c0.2,0.2,0.4,0.2,0.7,0.1l3-1.5l2,5.5
	l-7.7,3.8l-8.1-2.3c-0.1,0-0.2,0-0.2,0l-13.1,1.8c-0.1,0-0.2,0.1-0.3,0.1l-4.3,3.8l-8.6-8.6c-0.1-0.1-0.1-0.1-0.2-0.1l-3.4-1.1
	l-3.4-3.9l-2.4-7.7c-0.1-0.2-0.2-0.3-0.3-0.4l-6-2l-0.3-5l2.6-4.9l1.6-3l3.4-2c0.1-0.1,0.2-0.2,0.3-0.3l0.4-1.6l5.2,0.6
	c0.1,0,0.3,0,0.4-0.1l3.6-2.7L145.7,117.4z"/>
<path id="divi-85001" class="st0" d="M108.4,134.2l3.9,6.9c0.1,0.1,0.2,0.2,0.3,0.3l7.4,2.6c0.2,0.1,0.3,0,0.5,0
	c0.1-0.1,0.2-0.2,0.3-0.4l0.8-5.4l5.6,1.8l2.3,7.5c0,0.1,0,0.2,0.1,0.2l3.6,4.2c0.1,0.1,0.2,0.1,0.2,0.2l3.5,1.2l8.1,8.1
	c-0.1,0.1-0.1,0.3-0.1,0.5l2.4,7.1v0.1l1.2,6.5c0.1,0.3,0.3,0.5,0.6,0.5h4.3l1.1,6.1c0,0.1,0,0.1,0.1,0.2l5.3,10.1
	c0.1,0.1,0.2,0.2,0.4,0.3l0.5,0.1l1,1.4c0.2,0.3,0.5,0.3,0.8,0.2s0.3-0.5,0.2-0.8l-0.2-0.4l0.5,0.1l3.6,4.4l0.1,0.1l2,3.5l-10.7,3.9
	H158l-8.3,5.4l-6.5,4.2l-0.1,0.1l-1.6,1.6l-0.4-0.1l-0.4-0.6c-0.1-0.2-0.4-0.3-0.7-0.2s-0.4,0.3-0.4,0.6l-1.2-0.2l-4.6-4.1
	c-0.1-0.1-0.2-0.1-0.2-0.1l-7.4-1.7l-4.1-9.9c0-0.1-0.1-0.2-0.2-0.2l-7.5-5.8V189c0-0.1,0-0.1-0.1-0.2l-4.2-10.8
	c-0.1-0.1-0.2-0.3-0.3-0.3l-8.2-3l-5.2-5.2l0,0l-12.2-10.1l2.4-3.1l0,0l5.2-2.8c0,0,0,0,0.1,0l3.9-2.8c0.1-0.1,0.2-0.2,0.2-0.3
	l1.1-4.9l2.1-2.1l3.1-1.2h0.1c0.1,0,0.2,0,0.2-0.1c0,0,0,0,0.1-0.1h0.1c0.1-0.1,0.3-0.2,0.3-0.3c0.1-0.1,0.1-0.3,0-0.5l2.1-3.9
	L108.4,134.2z"/>
<path id="divi-85279" class="st0" d="M54.6,159.8l7.8,4.8l0,0l4.1,5l0.1,0.1l2.1,3.5c0,0.1,0.1,0.1,0.2,0.2l-0.3,1.8l-2.2,1.1l0,0
	l-4.4,2.3c-0.2,0.1-0.3,0.3-0.3,0.5v3.7l-1.6,0.5l-2.7-0.3l0,0l-2.8-1.3l-1.3-2.4l1.2-1.8c0-0.1,0.1-0.1,0.1-0.2l0.7-4.1l1.2-4.4
	v-0.1l0.2-5.1c0-0.2-0.1-0.4-0.2-0.5l-2.6-2L54.6,159.8z"/>
<path id="divi-85010" class="st0" d="M84.3,160.6l11.8,9.7h0.1l5.3,5.3c0.1,0.1,0.1,0.1,0.2,0.1l8.1,2.9l4,10.4v5.2
	c0,0.2,0.1,0.3,0.2,0.4l1.2,0.9l0.5,2.6l0,0l-0.2,3.6c0,0.1,0,0.1,0,0.2l0.7,2.9l-0.3,1.2h-3.3c-0.1,0-0.2,0-0.3,0.1l-2.2,1.2l0,0
	l0,0l-2.8,1.1l-3.3-3.6c-0.1-0.1-0.1-0.1-0.2-0.2l-3.7-1.6c-0.2-0.1-0.3-0.1-0.5,0s-0.3,0.2-0.3,0.4l-0.5,2.7c0,0.2,0,0.3,0.1,0.4
	l2.9,4.5v0.1l1.6,5.1c0,0.1,0.1,0.2,0.2,0.2l7,6.3l0,0l1.9,2.8L109,224l-6.8-3.1l-4.2-5.2c0,0-0.1,0-0.1-0.1l-3.3-2.8l0,0l-3.5-3.7
	c-0.1-0.1-0.2-0.1-0.2-0.1l-6.4-2.1c0,0,0,0-0.1,0l-8-1.4l-4.6-2.4l-4.6-8.8l0.5-8.3c0-0.2-0.1-0.4-0.2-0.5l-3.7-2.3
	c0-0.1,0.1-0.1,0.1-0.2v-3.7l4.1-2.2l2.5-1.2c0.2-0.1,0.3-0.2,0.3-0.4l0.5-2.7c0,0,0,0,0-0.1l3.5-2.6c0.1-0.1,0.1-0.1,0.2-0.2
	l2.8-5.8l1.1-2.3l4,0.2c0.2,0,0.3-0.1,0.5-0.2L84.3,160.6z"/>
<path id="divi-85015" class="st0" d="M52.8,161.8l2.5,1.9l-0.2,4.7l-1.2,4.4c0,0,0,0,0,0.1l-0.7,4l-1.4,2c-0.1,0.2-0.1,0.4,0,0.6
	l1.6,2.8c0.1,0.1,0.2,0.2,0.3,0.2l3.2,1.4c0,0,0.1,0,0.2,0.1l2.6,0.3l0.3,1.5l-2.6,1.8l-0.1,0.1l-4.2,1.6l-3.3-3.1
	c-0.1-0.1-0.2-0.1-0.3-0.2l-7.4-0.5c-0.3,0-0.5,0.2-0.6,0.4l-1.2,4.7l-2.5-2.3c0,0-0.1,0-0.1-0.1l-3.2-1.9l3.5-3
	c0.1-0.1,0.2-0.2,0.2-0.3l0.4-2c0-0.1,0-0.1,0-0.2l0.2-0.1c0.2-0.1,0.3-0.3,0.3-0.5l-0.2-6.2l4.4-2c0.1,0,0.2-0.1,0.2-0.2l4.9-5.7
	L52.8,161.8z"/>
<path id="divi-85410" class="st0" d="M62.6,183.8c0,0.1,0.1,0.2,0.2,0.2l3.6,2.3l-0.5,8.2c0,0.1,0,0.2,0.1,0.3l4.8,9
	c0,0.1,0.1,0.2,0.2,0.2l4.8,2.5c0.1,0,0.1,0.1,0.2,0.1l8,1.4h0.1l6.2,2.1l3.4,3.6c0,0,0,0,0.1,0l3.3,2.8l0.1,0.1l4.2,5.2
	c0.1,0.1,0.1,0.1,0.2,0.2l0.5,0.2l-1.6,0.1c-0.1,0-0.1,0-0.2,0l-3.7,1.2l-4.9,1.4l-9.5,1.1c-0.2,0-0.4,0.2-0.5,0.4s0,0.4,0.1,0.6
	l4.2,4.9v0.1l3.1,4.7v0.1l3.7,7.8l-2,3.8c-0.1,0.2-0.1,0.5,0.1,0.7l1.2,1.3l3,5.8l3.6,6.9c0,0.1,0.1,0.1,0.1,0.2l5.3,5.2
	c0.1,0,0.1,0.1,0.2,0.1l4.2,1.8h0.1l4,0.7l2.7,4.7l0.1,0.1l2.8,2.5c0.1,0.1,0.3,0.2,0.5,0.1l3.8-1c0,0,0,0,0,0.1l-2.1,2.4l0,0
	l-4.3,4.3l-0.1,0.1l-5.5,4.2l-2.3-2.6c-0.1-0.1-0.2-0.2-0.4-0.2L103,285c-0.2,0-0.4,0-0.5,0.2l-2.7,2.7l-4-2.6
	c-0.1-0.1-0.2-0.1-0.4-0.1l-5.8,0.7c-0.1,0-0.3,0.1-0.4,0.2l-3.2,4l-4.9-0.6c-0.1-0.2-0.2-0.3-0.4-0.4l-5.9-2.2l1.2-8.4
	c0-0.1,0-0.3-0.1-0.4l-2.7-4.2c-0.1-0.1-0.1-0.2-0.2-0.2l-4.8-2.4l-3.9-5.3l-2-10.9c0.1,0,0.2-0.1,0.2-0.1l2.7-2.3
	c0.1-0.1,0.2-0.2,0.2-0.4l0.5-5.2l5.2-2.9c0.1-0.1,0.2-0.1,0.2-0.2l2.7-4.6c0.1-0.2,0.1-0.4,0-0.6l-4.2-8.5l0,0L64,217.2
	c-0.1-0.1-0.2-0.3-0.3-0.3l-3.9-1.3l-3.5-4.8l0.3-5.7c0-0.2-0.1-0.5-0.3-0.6s-0.5-0.1-0.6,0.1l-2.9,2.2l-2.6-1.5l0,0h-0.1l-1.4-1.3
	l0,0l0,0l-3.7-4.2l0.2-4.2c0-0.1,0-0.1,0-0.2l-0.5-1.9c0-0.1-0.1-0.3-0.3-0.4S44.1,193,44,193l0,0l-1.5-1.4l1.2-4.8l6.8,0.5l3.4,3.2
	c0.2,0.2,0.4,0.2,0.6,0.1l4.6-1.8l0.1-0.1l3-2.1c0.2-0.1,0.3-0.4,0.2-0.6l-0.4-1.8L62.6,183.8z"/>
<path id="divi-85162" class="st0" d="M43.8,195.2l0.1,0.4l0,0l-0.2,4.2c0,0.2,0.1,0.3,0.2,0.4l3.9,4.4c0,0,0,0,0.1,0.1l1.6,1.4
	c0,0,0.1,0,0.1,0.1l3,1.8c0.2,0.1,0.5,0.1,0.7,0l2.2-1.7l-0.3,4.6c0,0.1,0,0.3,0.1,0.4l3.7,5.1c0.1,0.1,0.2,0.2,0.3,0.2l3.8,1.4
	l5.8,13l0,0l4.1,8.2l-2.4,4.2l-5.4,2.9c-0.2,0.1-0.3,0.3-0.3,0.4l-0.5,5.3l-1.7,1.4l-0.2-2.8c0-0.1,0-0.1-0.1-0.2l-1.6-3.5
	c0,0,0-0.1-0.1-0.1l-4.4-5.3c-0.1-0.2-0.4-0.2-0.6-0.2l-3.2,0.9h-0.1l0,0l-1.5-2.2c-0.1-0.1-0.2-0.2-0.3-0.2l-5.7-1.2l-5.1-4.5
	l-0.7-4.9c0-0.1-0.1-0.2-0.2-0.3l-3-3.3l0.5-4.8l3.8-5.5c0,0,0-0.1,0.1-0.1l1.4-3.9c0.1-0.1,0-0.3,0-0.5c-0.1-0.1-0.2-0.2-0.3-0.3
	l-5.6-1.9c0.1,0,0.2-0.1,0.2-0.2l4.4-6c0,0,0,0,0-0.1l2.8-4.6c0,0,0-0.1,0.1-0.2L43.8,195.2z"/>
<path id="divi-85300" class="st0" d="M28.4,207.3l3.8,1.2c0.1,0,0.1,0,0.2,0l1.9-0.1c-0.1,0.1-0.1,0.3,0,0.5
	c0.1,0.1,0.2,0.3,0.3,0.3l5.7,1.9l-1.2,3.2l-0.1,0.1l-3.8,5.5c-0.1,0.1-0.1,0.2-0.1,0.3l-0.5,5.1c0,0.2,0,0.3,0.2,0.4l3.1,3.4l0.7,5
	c0,0.1,0.1,0.3,0.2,0.3l5.3,4.8c0.1,0.1,0.2,0.1,0.2,0.2l5.6,1.2l1.4,2.1l-0.3,0.4l0,0h-5.2c0,0,0,0-0.1,0l-4.4,0.7
	c-0.1,0-0.2,0.1-0.3,0.1l-3.2,2.8l-4.5,0.8l-3-0.6c-0.1-0.1-0.3-0.1-0.5-0.1h-0.1l-0.7-0.1l-3.6-5l0.1-0.5c0-0.2-0.1-0.4-0.2-0.5
	l0.4-2.7c0-0.1,0-0.2,0-0.2l-0.6-1.8l0.3-0.5c0.2-0.2,0.3-0.6,0.1-0.8c-0.2-0.2-0.6-0.3-0.8-0.1l-0.2-0.7v-0.1L22,229l2.5-3.2
	c0-0.1,0.1-0.1,0.1-0.2l1.6-5.5V220l0.9-7.8l1.4-4.8C28.4,207.4,28.4,207.4,28.4,207.3z"/>
<path id="divi-85440" class="st0" d="M55.7,242.5l4.2,5l0,0l1.5,3.2v0.1l0.3,3.4c-0.3,0.1-0.5,0.3-0.5,0.7l2.1,11.5
	c0,0.1,0,0.2,0.1,0.2l4.1,5.5c0.1,0.1,0.1,0.1,0.2,0.2l4.8,2.4l2.5,4l-1.2,8.6c0,0.3,0.1,0.5,0.4,0.6l6,2.2l-0.1,1.3l-4.7-1.2
	c-0.1,0-0.1,0-0.2,0l-3.4,0.3c-0.3,0-0.5,0.2-0.5,0.5l-0.4,2.5l-3.5-0.2l-2.2-2.5c-0.1-0.1-0.3-0.2-0.4-0.2l-4.7-7.2
	c-0.1-0.2-0.3-0.2-0.5-0.2l-2.3-4.5c0-0.1-0.1-0.1-0.1-0.2l-10.3-9.1l0,0l-0.1-0.1l-8.6-11.4l-6.7-9.6l1.9,0.4c0.1,0,0.1,0,0.2,0
	l4.8-0.9c0.1,0,0.2-0.1,0.2-0.1l3.2-2.7l4.2-0.7h0h4.8c0.1,0.1,0.3,0.2,0.5,0.2s0.3-0.1,0.4-0.2l0.6-0.8l0,0L55.7,242.5z"/>
</svg>
