<?xml version="1.0" encoding="utf-8"?>
<!-- Generator: Adobe Illustrator 20.1.0, SVG Export Plug-In . SVG Version: 6.00 Build 0)  -->
<svg version="1.1"
	 id="valledelcauca" inkscape:output_extension="org.inkscape.output.svg.inkscape" inkscape:version="0.46" sodipodi:docname="departamentos_colombia_plain.svg" sodipodi:version="0.32" xmlns:cc="http://creativecommons.org/ns#" xmlns:dc="http://purl.org/dc/elements/1.1/" xmlns:inkscape="http://www.inkscape.org/namespaces/inkscape" xmlns:rdf="http://www.w3.org/1999/02/22-rdf-syntax-ns#" xmlns:sodipodi="http://sodipodi.sourceforge.net/DTD/sodipodi-0.dtd" xmlns:svg="http://www.w3.org/2000/svg"
	 xmlns="http://www.w3.org/2000/svg" xmlns:xlink="http://www.w3.org/1999/xlink" x="0px" y="0px" viewBox="0 0 288 327"
	 style="enable-background:new 0 0 288 327;" xml:space="preserve">
<style type="text/css">
	.st0{fill:none;stroke:#10E886;stroke-miterlimit:10;}
</style>
<path id="divi-76243" class="st0" d="M216.5,36.6l1.3,2.6v0.1l1.6,4c0,0.1,0.1,0.2,0.2,0.2l3.5,2.7c-0.2,0.2-0.2,0.5-0.1,0.7
	l1.4,2.9l-2.3,3.6l-4.7,0.3l0,0l-4.6,0.5h-0.1l-3.8-0.5l-3.2-2.6l-2.6-3.6c0-0.1-0.1-0.1-0.2-0.2l0.8-1.8v-0.1l3.5-5.8l1.4-1.3
	L216.5,36.6z"/>
<path id="divi-76041" class="st0" d="M202.4,48.5l2.4,3.4l0.1,0.1l3.4,2.7c0.1,0.1,0.2,0.1,0.3,0.1l4.1,0.5h0.1l4.8-0.5l4.9-0.4
	c0.2,0,0.4-0.1,0.5-0.2l2.1-3.2c0,0,0.1,0.1,0.2,0.1l3.9,1.8c0.1,0,0.1,0,0.2,0l4.6,0.3c0,0.2,0.2,0.5,0.4,0.5l1.9,0.6V56l-1.8,1.1
	l-4.9,1.7c-0.2,0.1-0.4,0.3-0.4,0.6v2.1l-2.3,2.1c-0.1,0.1-0.2,0.2-0.2,0.3l-0.8,3.8l-2.5,1.7c-0.1,0.1-0.2,0.2-0.2,0.3l-1,3.2h-0.9
	l-4-1.6l0,0l-4.4-1.3v-1.9c0-0.2-0.1-0.3-0.2-0.4l-3-2.6l0,0l-3-3.2v-1.3l0,0l0.4-4.4c0-0.1,0-0.3-0.1-0.4l-2.7-3.6
	c-0.1-0.1-0.1-0.1-0.2-0.2l-2.5-1.2L202.4,48.5z"/>
<path id="divi-76246" class="st0" d="M200.8,51.9l2.6,1.1l2.4,3.2l-0.3,4.2l0,0v1.4c0,0.1,0.1,0.3,0.2,0.4l0.2,0.2
	c-0.1,0.1-0.2,0.1-0.2,0.2l-3,4.8l-2,2c-0.1,0.1-0.1,0.2-0.2,0.2l-1.1,4.1c0,0.1,0,0.2,0,0.2V74l-3.2,0.6h-0.1l-6-0.5H190l-7.2,0.5
	l-8.9,0.6l0.1-0.1l0,0l2.7-4.4l3.5-4.2l0,0l3.1-4.3l8.3-3.5c0.3-0.1,0.4-0.4,0.4-0.6l4.4-1.5c0.1,0,0.2-0.1,0.2-0.2L200.8,51.9z"/>
<path id="divi-76147" class="st0" d="M233,58.8l-0.6,2c0,0.1-0.1,0.2,0,0.3l0.9,4.1c0.1,0.3,0.3,0.5,0.6,0.4l2.5-0.2
	c0.1,0,0.2,0,0.3-0.1l2.7-2.2l3-0.6l0.8,1.3l-0.6,2.2v0.1l-0.9,1.8c-0.1,0.2,0,0.5,0.2,0.7c-0.1,0.1-0.1,0.2-0.2,0.3L241,71
	c0,0.2,0,0.4,0.1,0.5l1.4,2c0.1,0.1,0.3,0.2,0.5,0.2s0.4-0.1,0.5-0.3l2.6,1.2l0.4,1.4l-2.1,2.6c0,0.1-0.1,0.1-0.1,0.2c0,0,0,0,0,0.1
	l-2.2,1.9c-0.2-0.1-0.4-0.1-0.5,0c-0.2,0.1-0.3,0.3-0.3,0.4l-7.6-2.8l0,0l-7.5-2.1l-2.5-2.1l0.1-0.3c0.1-0.1,0.1-0.3,0-0.4l0,0
	c0.1-0.3,0-0.5-0.2-0.7l0.9-2.7l2.5-1.7c0.1-0.1,0.2-0.2,0.2-0.4l0.8-3.8l2.3-2.2c0.1-0.1,0.2-0.3,0.2-0.4v-1.9L233,58.8z"/>
<path id="divi-76054" class="st0" d="M206.5,63.4l2.3,2.4l0,0l2.8,2.5v2c0,0.1,0,0.1,0,0.2l-0.6,1.1l0,0l-2.8,4.1l-1.8,0.9l-5.6-0.2
	l-0.4-2.4l1-3.8l2-2c0,0,0-0.1,0.1-0.1L206.5,63.4L206.5,63.4z"/>
<path id="divi-76823" class="st0" d="M212.6,71.1l4.2,1.2l0,0l4,1.6c0.1,0,0.1,0,0.2,0h0.7c0,0.2,0,0.4,0.2,0.6l0,0l-1,2l-2.2,2.1
	c-0.2,0.2-0.3,0.5-0.1,0.8l1.6,2.4l0.5,2l-0.8,3.1l-1.3-0.9c-0.1,0-0.1-0.1-0.2-0.1l-3.2-0.7c-0.2,0-0.3,0-0.5,0.1l-2.6,1.9l0,0
	l-0.1,0.1l-4,2l-1.8-0.3l0.1-0.1c0.2-0.2,0.2-0.5,0.1-0.7l-1.3-1.9l0.2-2.7h2c0.3,0,0.6-0.2,0.6-0.5l0.1-2l1.5-0.7
	c0.1-0.1,0.3-0.2,0.3-0.4s0-0.3-0.1-0.5l-1.4-2.5l0.4-0.2c0.1-0.1,0.2-0.1,0.2-0.2l2.8-4.2l0,0L212.6,71.1z"/>
<path id="divi-76497" class="st0" d="M222.9,75.3l2.4,2.1c0.1,0,0.1,0.1,0.2,0.1l7.6,2.1l0,0l8.2,3c0,0,0,0,0.1,0l0.6,2.9v0.1
	l0.5,4.2c0,0.1,0,0.2,0.1,0.2l1.5,2.2l-0.6,1.9l0,0c0,0,0,0-0.1,0l-1.2-0.9c-0.1-0.1-0.3-0.1-0.4-0.1l-3.6,0.5l-3.1-1.2
	c-0.1,0-0.1,0-0.2,0l-4.1-0.2l0,0l-4.8-0.5l-3.6-1.7c-0.1,0-0.2,0-0.2,0h-2.4l0.6-1.5c0.2-0.1,0.4-0.2,0.4-0.4l1.1-4.1
	c0-0.1,0-0.2,0-0.2l-0.5-2.3c0-0.1,0-0.1-0.1-0.2l-1.3-2.1l2-1.8c0.1,0,0.1-0.1,0.1-0.2L222.9,75.3z"/>
<path id="divi-76863" class="st0" d="M199.5,75.4l0.3,1.8c0,0.3,0.3,0.5,0.5,0.5l6.2,0.2c0.1,0,0.2,0,0.2,0l0.7-0.3l1.2,2l-1.2,0.6
	c-0.2,0.1-0.3,0.3-0.3,0.5l-0.2,1.8H205c-0.3,0-0.5,0.2-0.6,0.5l-0.3,3.4c0,0.1,0,0.3,0.1,0.4l1.2,1.7l-0.4,0.4l0,0c0,0,0,0-0.1,0
	c-0.2,0.1-0.4,0.2-0.4,0.5l-0.2,0.3c-0.1,0-0.1,0.1-0.2,0.2l-0.8,0.7l-2.3,0.6c-0.1,0-0.2,0.1-0.2,0.2l-2.4,2.2l-1.6-1.9l0,0
	l-1.5-3.2l2.6-3.2c0.1-0.1,0.2-0.3,0.1-0.5c0-0.2-0.2-0.3-0.4-0.4l-2.7-1.1c-0.2-0.1-0.4-0.1-0.6,0.1l-8.2,6.2l-3.4-3.7
	c-0.1-0.1-0.2-0.2-0.3-0.2l-5.4-0.8h-0.1l-6.8-2.8c-0.1,0-0.1,0-0.2,0l1-2.2l1.9-2.9l9.8-0.7l7.2-0.5h0.1l6.1,0.5c0.1,0,0.1,0,0.2,0
	L199.5,75.4z"/>
<path id="divi-76250" class="st0" d="M169.5,82.8c0.1,0,0.1,0.1,0.2,0.1l6.9,2.8h0.1l5.3,0.9l3.6,3.9c0.2,0.2,0.5,0.2,0.8,0.1
	l8.4-6.3l1.6,0.7l-2.4,2.9c-0.1,0.2-0.2,0.4-0.1,0.6l1.6,3.5c0,0.1,0.1,0.1,0.1,0.2l2.1,2.5c0.1,0.1,0.2,0.2,0.4,0.2s0.3,0,0.4-0.1
	l2.8-2.6l2.3-0.7c0.1,0,0.1,0,0.2-0.1v1.1l-1.3,1.4c-0.1,0.1-0.1,0.2-0.2,0.3l-0.2,2.2l-0.3-0.5c-0.1-0.2-0.3-0.2-0.5-0.2h-3.2
	c-0.3,0-0.6,0.2-0.6,0.5l-0.2,2.8l-1.1,1.5l-5.4-0.9l-1.5-2.6c-0.1-0.2-0.3-0.3-0.6-0.3s-0.4,0.2-0.5,0.4l-0.2,1.1l-9.4-0.5
	l-2.8-1.5c0,0,0,0-0.1,0l-4.7-1.7l-4.9-2.9l0,0l1.6-5.2c0-0.1,0-0.2,0-0.3l1-2.1l0,0L169.5,82.8z"/>
<path id="divi-76400" class="st0" d="M215.2,86.4L218,87l1.3,0.9l-0.8,2.1c-0.2,0-0.4,0.2-0.4,0.3s-0.1,0.4,0.1,0.6l-2.6,6.2
	l-0.4,0.2h-0.1l0,0c-0.1,0-0.1,0-0.2,0.1c0,0,0,0-0.1,0.1l-0.6,0.2c-0.2-0.1-0.4-0.1-0.5,0c-0.2,0.1-0.3,0.3-0.3,0.4l-0.1,0.1h-0.1
	L210,99h-0.1l-4.1,0.7l-2.6-2.4l0.2-2.7l1.3-1.5c0.1-0.1,0.2-0.2,0.2-0.4v-2.4c0.2,0,0.3-0.1,0.4-0.2l2.6,0.4c0.1,0,0.2,0,0.3-0.1
	l4.2-2.1c0,0,0.1,0,0.1-0.1L215.2,86.4z"/>
<path id="divi-76403" class="st0" d="M219.3,91.1h2.7l3.7,1.7c0.1,0,0.1,0.1,0.2,0.1l5,0.5l0,0l3.9,0.2l3.1,1.2c0.1,0,0.2,0,0.3,0
	l3.5-0.5l1.4,1l-0.6,2.7l-0.9,1.2c-0.1,0.1-0.1,0.2-0.1,0.3l-0.5,5.3l-9.9,2.6c0,0,0,0-0.1,0l-4.3,1.7l-2.7-1.8l-2.6-3.6
	c0,0,0,0-0.1-0.1l-3.3-3.5l-1.8-2.1l0,0c0.1-0.1,0.2-0.2,0.2-0.3L219.3,91.1z"/>
<path id="divi-76100" class="st0" d="M166.2,92.7l4.4,2.7c0,0,0.1,0,0.1,0.1l4.8,1.8l2.8,1.5c0.1,0.1,0.2,0.1,0.2,0.1l10.1,0.5
	c0.3,0,0.5-0.2,0.6-0.5v-0.1l0.8,1.5c0.1,0.2,0.2,0.3,0.4,0.3h0.1v0.1l-0.4,6.4c0,0.2,0.1,0.4,0.2,0.5l3.9,3.3
	c0.1,0.1,0.1,0.1,0.2,0.1l4.8,1.6h0.1l4.5,0.7l0.6,1.6l-2.4,2.8c-0.2,0.2-0.2,0.4-0.1,0.7l0.1,0.1l-3.9,4.2c0,0,0,0-0.1,0.1
	l-1.3,1.8l-1.5-1.4l-1.8-1.8c-0.2-0.2-0.5-0.2-0.7-0.1l-1.5,0.9l-2-1.1c-0.1,0-0.1-0.1-0.2-0.1l-4.1-0.5c-0.2,0-0.3,0-0.4,0.1
	l-1.8,1.5l-1.6-1.3c-0.1-0.1-0.2-0.1-0.3-0.1l-5.8-0.4c-0.1,0-0.2,0-0.3,0.1l-3.3,1.4c-0.2,0.1-0.3,0.2-0.3,0.3l-1.1,3.3h-3.7
	c-0.3,0-0.6,0.2-0.6,0.5l-0.3,4.7l-5.2-0.4l-2.9-2.4l0.2-7c0-0.1,0-0.2-0.1-0.2l-1.1-2.5l0,0c0.1-0.1,0.1-0.3,0.1-0.4l-1.2-4.2
	c0,0,0,0,0-0.1l-1.9-4.4l0.8-3.1l5-0.2c0.2,0,0.4-0.1,0.5-0.3l1.7-3.8l0,0l4.4-6c0.1-0.1,0.1-0.2,0.1-0.2L166.2,92.7z"/>
<path id="divi-76622" class="st0" d="M198.8,96.8h2.3l1.1,1.5c0.2,0.2,0.5,0.3,0.8,0.2l2.3,2.2c0.1,0.1,0.3,0.2,0.5,0.2l4.4-0.7
	c0,0,0,0,0.1,0l3.4-0.9l0.3,1.7l0,0l0.8,2.8l-1.8,0.6c-0.1,0-0.2,0.1-0.3,0.2l-2.4,3.2l-3,1.2c0,0-0.1,0-0.1,0.1l-2.3,1.4
	c-0.2,0.1-0.3,0.3-0.3,0.5v1.1c-0.1-0.2-0.4-0.3-0.6-0.2c-0.2,0-0.4,0.2-0.5,0.4l-3.9-0.6h-0.1l-4.6-1.5l-3.5-3.1l0.3-6.1l4.8,0.8
	c0.2,0,0.4,0,0.6-0.2l1.4-1.9c0.1-0.1,0.1-0.2,0.1-0.3L198.8,96.8z"/>
<path id="divi-76895" class="st0" d="M215.1,98.5l2,2.3l0,0l3.3,3.5l0.1,0.1l2.6,3.7c0,0.1,0.1,0.1,0.2,0.2l3,2
	c0.2,0.1,0.4,0.1,0.5,0l4.6-1.8l10.2-2.7h0.1l0,0c-0.1,0-0.1,0.1-0.2,0.1l-3.7,3.2h-3.9c-0.1,0-0.2,0-0.3,0.1l-3.7,2.7l0,0l-3,2.3
	l-0.1,0.1l-1.8,2.1c-0.1,0.1-0.1,0.2-0.1,0.3l-0.5,4.6l-2.1-0.2c-0.2,0-0.3,0-0.4,0.2l-3,2.8c-0.1,0.1-0.2,0.3-0.2,0.5l0.3,1.8
	l-1.8,0.2l-2.7-1.1l-0.6-1.8c-0.1-0.2-0.2-0.3-0.4-0.4l-2.8-0.7l-3-1.1l-3.5-1.3l-1.1-1.9l2.4-2.7c0.1-0.2,0.2-0.4,0.1-0.6l-0.5-1.3
	c0.3,0,0.5-0.3,0.5-0.6v-1.8l1.9-1.2l3.2-1.2c0.1,0,0.2-0.1,0.2-0.2l2.4-3.2l2.1-0.7c0.3-0.1,0.4-0.4,0.4-0.7l-0.9-3.3l0,0l-0.4-1.9
	L215.1,98.5z"/>
<path id="divi-76736" class="st0" d="M242.5,106.4l0.5,0.4l-0.9,2.5c0,0.1-0.1,0.2,0,0.3l0.9,3.2l-0.3,2.1l-2.6,4.5
	c0,0,0,0.1-0.1,0.1l-1.4,5.3c0,0,0,0,0,0.1l-0.7,3.9c-0.1,0.2,0,0.5,0.2,0.6l2.6,1.8l0.1,0.1l2.9,3.4c0.2,0.2,0.5,0.3,0.7,0.2l3-1.6
	l4.1-1.9c0.1-0.1,0.2-0.1,0.2-0.2l0.8-1.3c0.1,0.1,0.1,0.1,0.2,0.2l1.4,0.8l1.2,5.8v0.1l0.3,6.1c0,0.1,0.1,0.3,0.2,0.4l3.6,3.2
	l0.1,0.1l3.9,2.2l-0.1,1.2l-3.4,4.1c0,0,0,0.1-0.1,0.1l0,0l-3.2,1.3c-0.1,0-0.2,0.1-0.2,0.2l-7.2,8.6l-0.1,0.1l-2.5,1.9l-2.1-3.9
	l-0.2-4.7v-0.1l-1.8-6.2c0-0.1-0.1-0.3-0.3-0.3l-4-2l-1.3-3.6l0.2-6.1c0-0.2-0.1-0.4-0.3-0.5l-4.6-2.2c0-0.2-0.1-0.4-0.3-0.5
	s-0.4-0.1-0.6,0l-2.7-1.7l-1.7-3.2c-0.1-0.1-0.2-0.2-0.3-0.3l-2.7-1h-0.1h-0.1l-3.2-2.3l-0.1-0.7c0-0.1,0-0.1,0-0.2v-0.1l-0.3-1.9
	l2.6-2.5l2.4,0.2c0.3,0,0.6-0.2,0.6-0.5l0.5-4.9l1.7-2l2.9-2.2l3.6-2.6h3.9c0.1,0,0.3,0,0.4-0.1l3.9-3.4
	C242.4,106.6,242.5,106.5,242.5,106.4z"/>
<path id="divi-76122" class="st0" d="M247.8,107l2.7,2.3l0,0l-0.8,4.6c0,0.1,0,0.1,0,0.2l0.3,1.9c0,0.2,0.1,0.3,0.2,0.4
	c0.1,0.1,0.3,0.1,0.4,0.1v4.9c0,0.3,0.2,0.5,0.4,0.6l0.2,0.1l0.9,5.6l-1.6,2.7l-3.9,1.9l0,0l-2.6,1.4l-2.7-3.2l-0.1-0.1l-2.4-1.7
	l0.7-3.5v-0.1l1.4-5.2l0,0l2.6-4.5c0-0.1,0.1-0.1,0.1-0.2l0.4-2.3c0-0.1,0-0.2,0-0.2l-0.8-3.2l0.8-2.3L247.8,107z"/>
<path id="divi-76113" class="st0" d="M202.6,119.6l0.8,1.3c0.1,0.1,0.2,0.2,0.3,0.2l3.7,1.4l3,1.1c0,0,0,0,0.1,0l2.5,0.6l0.6,1.8
	c0.1,0.2,0.2,0.3,0.3,0.3l3,1.2c0.1,0,0.2,0,0.3,0l1.9-0.3l0.1,0.5c0,0.2,0.1,0.3,0.2,0.4l3.5,2.5c0,0,0.1,0,0.1,0.1l2.6,1l1.7,3.2
	c0,0.1,0.1,0.2,0.2,0.2l2.8,1.8l-1,2.5l-2.7,1.7c-0.2,0.1-0.3,0.2-0.3,0.4l-0.4,3.3l-3.3-0.6c-0.1,0-0.2,0-0.3,0l-1.8,0.7
	c-0.1-0.1-0.3-0.1-0.5,0s-0.3,0.2-0.3,0.3l-0.4,0.2l-3.5-0.6h-0.1l-6.3-2.4l-3.1-3.4l0,0l-3.3-4.2c-0.1-0.2-0.4-0.3-0.6-0.2l-4.1,1
	l-1.2-2.6c0-0.1-0.1-0.2-0.2-0.2l-2.9-1.6l0,0c0-0.2-0.1-0.4-0.3-0.5l0.1-3l2.1-0.2c0.2,0,0.3-0.1,0.4-0.2l0.7-1l0,0
	c0.3-0.1,0.5-0.3,0.4-0.6l0,0l1.5-2v-0.1L202.6,119.6z"/>
<path id="divi-76828" class="st0" d="M175.2,121.5l5.5,0.3l1.8,1.5c0.2,0.2,0.5,0.2,0.8,0l1.9-1.6l3.7,0.5l2.2,1.2
	c0.2,0.1,0.4,0.1,0.6,0l1.4-0.8l1.5,1.5l0,0l1.6,1.5l-0.5,0.7l-2.4,0.2c-0.3,0-0.5,0.3-0.5,0.6l-0.2,4.2c0,0.1,0,0.2,0.1,0.3
	l-1.9,4.2l-1.5-0.5l-0.8-1.9c-0.1-0.2-0.2-0.3-0.4-0.3c-0.2-0.1-0.3,0-0.5,0.1l-2.8,1.8l0,0l-3.2,1.6c0,0-0.1,0-0.1,0.1l-2.3,1.9
	l-4.3,1.7l-0.4-1.3c0-0.2-0.2-0.3-0.3-0.4c-0.2-0.1-0.3-0.1-0.5,0l-3.9,2.1l-1.1-1v-0.2c0.1-0.1,0.2-0.3,0.2-0.4
	c0-0.2-0.1-0.3-0.2-0.4l-0.1-3.1c0-0.2-0.1-0.3-0.2-0.4l-3.2-3l0.8,0.1c0.2,0,0.3,0,0.4-0.1c0.1-0.1,0.2-0.2,0.2-0.4l0.3-4.8h3.5
	c0.2,0,0.5-0.1,0.6-0.4l1.1-3.5L175.2,121.5z"/>
<path id="divi-76109" class="st0" d="M61.4,130.8l1.8,2l0.8,4.3c0,0.2,0.2,0.4,0.4,0.4l4.2,1.2c0.1,0,0.2,0,0.3,0l5.2-1.2l5.2,0.5
	l3.2,2.9c0,0,0,0,0.1,0.1l6.7,4.2c0.1,0,0.2,0.1,0.3,0.1l5.3,0.2c0.1,0,0.1,0,0.2,0l4.7-2l6.4,3.6l0,0l5.1,3.2l0.6,4.6l-1.2,3.2
	c0,0.1,0,0.1,0,0.2l-0.5,5.1c0,0.1,0,0.3,0.1,0.4l4.2,6.7c0,0.1,0.1,0.1,0.1,0.2l3.4,2.9c0,0.1,0,0.1,0,0.2l3,7.2
	c0,0.1,0,0.1,0.1,0.2l3.8,4.5l-4.5,3l-0.1,0.1l-4.6,5.1c-0.1,0.2-0.2,0.4-0.1,0.6l1.2,3.8c0,0.1,0.1,0.2,0.2,0.3l6.4,4.1l-4.2,2.4
	h-6.8l-3.8-1.7c-0.2-0.1-0.5,0-0.7,0.1c-0.2,0.2-0.2,0.5,0,0.7l5.1,7.6l0.1,0.1l6.2,5l2.1,6.6c0,0.1,0.1,0.1,0.1,0.2l3.4,4.2
	c0.1,0.1,0.2,0.2,0.3,0.2l4.5,1.2l4.2,2.3l-2.3,5.5v0.1l-1.4,6.8c-0.1,0-0.2,0.1-0.2,0.2l-2.7,3.6c-0.1,0.2-0.2,0.4-0.1,0.6l2.3,4.9
	l0.6,5.4l-1.8,2.9l-5.1,0.8c-0.2,0-0.3,0.1-0.4,0.3l-1.5,2.4c-0.1,0.1-0.1,0.3-0.1,0.4l0.9,5.3v0.1l1,2.4l-3.4,1.9
	c-0.2,0.1-0.4,0.4-0.3,0.7l0,0l-1.7,2.2c-0.1,0.1-0.1,0.1-0.1,0.2l-0.5,2.3l-1.6-0.6l-3.9-2.4c-0.2-0.1-0.4-0.1-0.6,0
	c-0.2,0.1-0.3,0.3-0.3,0.5v0.1l-7.4-5.9c-0.1-0.1-0.2-0.1-0.3-0.1l-9.2-1.2c-0.2,0-0.3,0-0.4,0.1l-2.5,2.2l-7.8-1.7l0,0L73,269.8
	h-0.1l-5.9-0.3l-4-6.6c-0.1-0.1-0.2-0.1-0.2-0.2l-5.7-3c-0.2-0.1-0.3-0.1-0.5,0l-4.8,2.4l-3.3-6.7c0,0,0-0.1-0.1-0.1l-5.1-6.2
	c-0.1-0.1-0.2-0.2-0.3-0.2l-5.4-1.5c-0.1,0-0.3,0-0.4,0l-7.3,2.9h-0.2l14.5-12.2l0.1-0.1l8.9-12.4c0,0,0,0,0.1-0.1l5.2-10.7
	l12.8-4.8c0.2-0.1,0.3-0.2,0.3-0.3l7.3-17.6l0,0l7.5-9.8c0.1-0.1,0.1-0.3,0.1-0.4l-1.1-11.4c0-0.2-0.1-0.3-0.3-0.4
	c-0.1-0.1-0.3-0.1-0.5-0.1l-11.4,3.7L59.6,174l-3.4-5.7l11.5-10.8c0.2-0.2,0.2-0.5,0.1-0.8l-6.8-8.5c-0.1-0.2-0.3-0.2-0.5-0.2
	s-0.4,0.1-0.5,0.3L48.6,168l-6.2-8.9l-4.6-11.6c0.3,0.1,0.6-0.1,0.7-0.4l1.5-5.2l5.2-1.5c0.1,0,0.2-0.1,0.3-0.2l2.4-3.9l3-1.4
	l4.7,2.5c0,0,0.1,0,0.2,0.1l2.5,0.5c0.3,0.1,0.6-0.1,0.7-0.3l1.4-3.5l0,0L61.4,130.8z"/>
<path id="divi-76036" class="st0" d="M193.6,132.2l2.6,1.4l1.3,2.8c0.1,0.2,0.4,0.4,0.7,0.3l4.2-1l3.2,4l3.2,3.6
	c0.1,0.1,0.2,0.1,0.2,0.2l6.5,2.5h0.1l3.7,0.7c0.1,0,0.2,0,0.3,0l0.6-0.2l1.6,2.2l-1.9,1.4c-0.1,0.1-0.1,0.1-0.2,0.2l-1,2l-4.4-2.2
	c-0.1,0-0.1-0.1-0.2-0.1l-3.7-0.5l-4.3-5c0-0.1-0.1-0.1-0.2-0.2l-4.8-2.5H201l-5.4-1.4l-3-2.2l-1-2.1L193.6,132.2z"/>
<path id="divi-76616" class="st0" d="M187.7,134.4l0.6,1.5c0.1,0.2,0.2,0.3,0.4,0.3l2.1,0.7h0.1l1,2l0.1,0.1l-1.6,2l-0.1,0.1
	L188,143l-4.1,1c-0.2,0-0.3,0.2-0.4,0.4l-1.1,2.8c-0.1,0.2,0,0.4,0.1,0.5l1.9,2.9l-1.8,0.6l0,0l-4.2,1.2c-0.1,0-0.3,0.1-0.3,0.2
	l-1.8,3l-4.1,0.6l-0.3-3.8c0-0.2-0.2-0.4-0.3-0.5l-4.4-2.1c-0.1-0.1-0.2-0.1-0.3-0.1l-6.6,0.9l-6.7-1c0-0.1-0.1-0.3-0.2-0.3
	l-0.1-1.6l5.5-4.5l5.1-1c0.1,0,0.2,0,0.2-0.1l3.6-2.4c0,0.1,0.1,0.1,0.1,0.2l1.6,1.4c0.2,0.2,0.4,0.2,0.7,0.1l3.6-2l0.3,1.2
	c0,0.2,0.1,0.3,0.3,0.4c0.1,0.1,0.3,0.1,0.5,0l5-2c0.1,0,0.1,0,0.2-0.1l2.4-1.9l0,0h0.1l3.1-1.5l0,0L187.7,134.4z"/>
<path id="divi-76834" class="st0" d="M231.5,137.6l4.2,2l-0.2,5.8c0,0.1,0,0.1,0,0.2l1.4,3.9c0.1,0.1,0.2,0.2,0.3,0.3l4,2l1.7,5.8
	v0.1l0.2,4.7c0,0.1,0,0.2,0.1,0.2l2.2,4.1l-6,0.9h-0.1l-2.5,1.1c-0.1,0-0.1,0.1-0.2,0.1l-2.1,2l-8.2,0.7l-3.1-0.9c0,0,0,0-0.1,0
	l-9-1.2l0,0l-3.4-1.5l0,0c0-0.1,0-0.2-0.1-0.2l0,0l1.7-2.2c0.1-0.1,0.1-0.3,0.1-0.5s-0.2-0.3-0.3-0.4l-2.5-1l-3.3-3.8l0,0l-5.8-5.7
	c-0.1-0.1-0.3-0.2-0.4-0.2l-13.8,0.7l-0.3-4.2c0-0.2-0.1-0.3-0.2-0.4c-0.1-0.1-0.3-0.1-0.5-0.1l-1.5-2.3l0.9-2.3l3.9-1
	c0.1,0,0.2-0.1,0.2-0.1l2.5-2.1c0,0,0-0.1,0.1-0.1l1.7-2.1l2.3,1.7c0.1,0,0.1,0.1,0.2,0.1l5.4,1.4l4.7,2.4l4.3,5
	c0.1,0.1,0.2,0.2,0.4,0.2l3.7,0.5l0,0l4.9,2.5c0.1,0.1,0.3,0.1,0.4,0c0.1,0,0.3-0.2,0.3-0.3l1.2-2.4l2.2-1.7
	c0.2-0.2,0.3-0.5,0.1-0.8l-1.8-2.4l1.3-0.5l3.8,0.7c0.2,0,0.3,0,0.5-0.1s0.2-0.2,0.2-0.4l0.5-3.7l2.6-1.6c0.1-0.1,0.2-0.2,0.2-0.3
	L231.5,137.6z"/>
<path id="divi-76126" class="st0" d="M112.7,150.9l6.2,3.5l0,0l3.4,3.8c0.1,0.1,0.2,0.2,0.3,0.2l9.4,1.4c0.2,0,0.4,0,0.5-0.2l3.2-3
	l3.7-2.2l7.6-0.5c0.1,0,0.2,0,0.2-0.1l4.6-2.1c0.1,0,0.1-0.1,0.2-0.1l0.7-0.7l7.3,1.1c0.1,0,0.1,0,0.2,0l6.5-0.9l4,1.9l0.3,4.1
	c0,0.3,0.3,0.5,0.6,0.5l-0.8,1c-0.1,0.1-0.1,0.3-0.1,0.4c0,0.2,0.1,0.3,0.2,0.4l2.9,2.1l-0.9,3.5l-2.9,2.1l-2.5,0.9
	c-0.1,0-0.2,0.1-0.3,0.2l-1.6,3c0,0.1-0.1,0.1-0.1,0.2l-0.3,2.5l-3.5,1.2c-0.1,0-0.1-0.1-0.2-0.1h-4.6c-0.1,0-0.2,0-0.2,0.1l-3,1.3
	l-4.5-0.8l-2-1.5c-0.2-0.1-0.5-0.2-0.7,0l-2.7,1.7l-2.4-0.2l-1.1-1.4c-0.1-0.1-0.2-0.2-0.4-0.2s-0.3,0-0.4,0.2l-1.7,1.5l-3.9,1
	c-0.2,0-0.3,0.1-0.4,0.3l-0.7,1.2l-2.2-0.4l-2.4-1.4h-0.1l-4.1-1.2l-3.2-1l-5.3-4.5l-4.1-6.5l0.5-4.8v-0.1l1.2-3.2
	c0-0.1,0-0.2,0-0.2L112.7,150.9z"/>
<path id="divi-76890" class="st0" d="M184.8,151.9l0.2,3.3v0.1c-0.2,0-0.3,0.1-0.4,0.2l-2.8,3.7c-0.1,0.1-0.1,0.3-0.1,0.4
	c0,0.2,0.1,0.3,0.3,0.4l0,0l-1.2,3.6v0.1l-0.5,5.5l-3.1,5.6c0,0.1-0.1,0.1-0.1,0.2l-0.7,5.5l-3.8,5.4c-0.1,0.1-0.1,0.2-0.1,0.3
	l-0.2,2.6c-0.2,0.2-0.2,0.5-0.1,0.7l0.1,0.1l-0.1,1.4l-2.3,0.3l-2-3.3l0.5-6.8c0-0.3-0.2-0.6-0.5-0.6l-2.9-0.5
	c0-0.2-0.2-0.5-0.4-0.5c-0.2-0.1-0.5,0-0.6,0.2l-1-1.8l0,0l-0.8-1.7l3.8-1.2c0.2-0.1,0.4-0.3,0.4-0.5l0.3-2.7l1.4-2.7l2.3-0.8
	c0,0,0.1,0,0.1-0.1l3.2-2.3c0.1-0.1,0.2-0.2,0.2-0.3l1.1-4.1c0.1-0.2,0-0.5-0.2-0.6l-2.7-2l0.9-1.1c0.1-0.1,0.1-0.2,0.1-0.3l0,0
	l3.6-0.5c0.2,0,0.3-0.1,0.4-0.2l1.8-3l4-1.2l0,0L184.8,151.9z"/>
<path id="divi-76318" class="st0" d="M199.8,155l5.6,5.5l0,0l3.3,3.9c0.1,0.1,0.1,0.1,0.2,0.2l2,0.8l-1.8,2.4
	c-0.2,0.2-0.2,0.5,0,0.8l-0.5,1.1l-2.6,0.8l-4.1-1.7l-5.7-2.3l-7.6-3.2l-5.3-3.5l0,0c0-0.1,0-0.3,0-0.4l2.2-2.9
	c0.1-0.1,0.2-0.3,0.1-0.5L199.8,155z"/>
<path id="divi-76111" class="st0" d="M183,160.7l5.2,3.4h0.1l7.6,3.2l5.7,2.3l4.2,1.8c0.1,0,0.3,0,0.4,0l3-0.9
	c0.1,0,0.3-0.1,0.3-0.3l0.7-1.3l3.6,1.6c0,0,0.1,0,0.2,0.1l8.9,1.2l3.2,0.9c0.1,0,0.1,0,0.2,0l8.5-0.7c0.1,0,0.2-0.1,0.3-0.2l2.1-2
	l0,0l2.4-1l0,0l5.5-0.8l-3.1,3.1c0,0-0.1,0.1-0.1,0.2l-3.5,7.1v0.1l-2.6,8.6v0.1l-0.9,1.8c-0.3-0.1-0.5,0.1-0.6,0.3
	s-0.1,0.5,0.1,0.7l-2.2,4.5h-0.1c-0.1-0.2-0.2-0.3-0.4-0.4s-0.4,0-0.5,0.1l0,0l-0.5-0.2l-1.8-2.3l-0.1-0.1l-3.2-2.3
	c-0.2-0.1-0.5-0.1-0.7,0l-2.8,1.9l-5-2.2l-1.3-1.4l0,0c0.1-0.2,0-0.4-0.1-0.6c-0.1-0.1-0.4-0.2-0.6-0.2l0,0l-0.4-0.4l-0.3-2.8
	c0-0.1-0.1-0.3-0.2-0.3l-2.5-2.5c-0.1-0.1-0.2-0.1-0.2-0.2l-5.1-1.4c-0.2-0.1-0.4,0-0.6,0.2l-2.6,2.8c-0.2,0-0.5,0.1-0.6,0.2
	l-0.5,0.7l-1.8-2.2l-0.1-0.1l-3.5-2.8c-0.1-0.1-0.3-0.1-0.4-0.1l-6.9,0.7c-0.2,0-0.4,0.2-0.5,0.3l-1.4,3l-2.8,1.6l-4.6,1l-3.1-2.7
	l0.4-0.6c0.1-0.1,0.1-0.2,0.1-0.3l0.7-5.5l3.2-5.6c0-0.1,0.1-0.1,0.1-0.2l0.5-5.6l0,0L183,160.7z"/>
<path id="divi-76233" class="st0" d="M120,174.9l0.2,0.2c0.1,0,0.1,0.1,0.2,0.1l3.4,1.1l4.1,1.2l2.4,1.4c0.1,0,0.1,0.1,0.2,0.1
	l2.7,0.5c0.2,0,0.5-0.1,0.6-0.3l0.8-1.4l3.8-1c0.1,0,0.2-0.1,0.2-0.2l1.3-1.2l0.9,1.1c0.1,0.1,0.2,0.2,0.4,0.2l2.8,0.2
	c0.1,0,0.2,0,0.3-0.1l2.5-1.6l1.4,1c0,0,0,0-0.1,0.1l-3.8,5.2v0.1l-4.8,5.2c-0.1,0.1-0.2,0.3-0.2,0.4l0.3,5.1c0,0,0,0,0,0.1l0.7,3.8
	l-0.5,4.3c0,0.1,0,0.2,0,0.3l1.2,3c0.1,0.1,0.2,0.3,0.3,0.3l2.5,1l0.9,1.4l-1.5,0.8c-0.3,0.1-0.4,0.5-0.2,0.8l1.1,2.3
	c0,0.1,0.1,0.1,0.1,0.2l2.7,3l0,0l0.1,0.1l-1.9,3.4l-2.9,4.9l-7.1,5c-0.1,0.1-0.2,0.2-0.2,0.3l-0.7,2.7l-4-2.2h-0.1l-4.5-1.2
	l-3.1-3.8v-0.1l-2.1-6.7c0-0.1-0.1-0.2-0.2-0.3l-6.3-5l0,0l-3.8-5.8l2,0.9c0.1,0,0.1,0.1,0.2,0.1h7.2c0.1,0,0.2,0,0.3-0.1l5.1-2.9
	c0.2-0.1,0.3-0.3,0.3-0.5s-0.1-0.4-0.3-0.5l-7-4.5l-1.1-3.2l4.3-4.7l0,0l5-3.4c0.1-0.1,0.2-0.2,0.2-0.4s0-0.3-0.1-0.4l-4.2-5
	L120,174.9z"/>
<path id="divi-76606" class="st0" d="M157.1,176.3h3.8l1,2.2l0,0l1.2,2.3c0.1,0.2,0.2,0.3,0.4,0.3l-0.1,0.5l-2.7,2
	c-0.1,0.1-0.2,0.2-0.2,0.4l-0.6,3.7l-2.2,0.6c-0.1,0-0.1,0.1-0.2,0.1l-3.3,2.1L151,189c-0.1,0-0.2-0.1-0.2-0.1l-4,0.2l0.9-2
	c0,0,0,0,0-0.1l1.6-4.8l2-3.4l2.6-1.1c0.2,0,0.4-0.1,0.5-0.2L157.1,176.3z"/>
<path id="divi-76377" class="st0" d="M149.2,176.9l2.7,0.5l-1.2,0.5c-0.1,0-0.2,0.1-0.2,0.2l-2.1,3.6c0,0,0,0.1-0.1,0.1l-1.6,4.9
	v0.1l-1.2,2.8c-0.1,0.2-0.1,0.4,0.1,0.6c0.1,0.2,0.3,0.3,0.5,0.2l4.8-0.2l3.5,1.6c0.2,0.1,0.4,0,0.5-0.1l0.9-0.6l0.7,1.8l0.1,0.1
	l2.2,2.8l0,0l0,0c0,0.1,0,0.1,0,0.2l-1.1,2.3l-3.8,3.5c-0.1,0.1-0.1,0.2-0.2,0.3l-0.9,4.2l-2.9,3.6c-0.1,0.1-0.1,0.1-0.1,0.2l-0.8,4
	l-0.2-0.2l-0.3-0.3c0,0-0.1,0-0.1-0.1l-0.1-0.1c0,0,0,0-0.1,0l-0.2-0.2l-2.6-2.9v-0.1l-0.8-1.7l1.7-0.8c0.1-0.1,0.2-0.2,0.3-0.4
	c0-0.2,0-0.3-0.1-0.5l-1.4-2.1c-0.1-0.1-0.1-0.2-0.2-0.2l-2.4-1l-1.1-2.6l0.5-4.3c0-0.1,0-0.1,0-0.2l-0.7-3.8v-0.1l-0.3-4.8l4.6-5.1
	l0,0l3.9-5.3C149.2,177,149.2,176.9,149.2,176.9z"/>
<path id="divi-76318_1_" class="st0" d="M196.1,178.9l3.3,2.7l1.9,2.4l-0.8,1.1l-4.8,2.8h-5.3c-0.1,0-0.2,0-0.2,0l-5.1,2.5
	c-0.1,0-0.2,0.1-0.2,0.2l-1.4,1.9l0,0c-0.2-0.1-0.5,0-0.7,0.2s-0.1,0.5,0,0.7l-0.1,0.2l-4.2-1.5h-0.1h-0.1l-4.9-3l0.2-2.6l2.7-3.8
	l3.3,2.8c0.1,0.1,0.3,0.2,0.5,0.1l5-1.1c0.1,0,0.1,0,0.2-0.1l3-1.8c0.1-0.1,0.2-0.1,0.2-0.2l1.3-2.9L196.1,178.9z"/>
<path id="divi-76306" class="st0" d="M206.4,180.2l4.6,1.2l2.3,2.3l0.3,2.8c0,0.1,0.1,0.2,0.1,0.3l0.3,0.3c-0.1,0.1-0.2,0.2-0.2,0.3
	l-0.4,1.6l-3.3,4.5c0,0.1-0.1,0.1-0.1,0.2l-1.1,3.7l-6.2-1.2c-0.2,0-0.4,0-0.5,0.2l-3.1,3.5l-5.1-2c0,0,0,0-0.1,0l-6.2-1.7l-3.4-3.1
	l1.4-1.9l4.8-2.4h5.3c0.1,0,0.2,0,0.3-0.1l5.1-3c0.1,0,0.1-0.1,0.2-0.2l0.9-1.3l0,0l0,0l0.1-0.1L206.4,180.2z"/>
<path id="divi-76869" class="st0" d="M164.8,181.3l2.4,0.4l-0.5,6.6c0,0.1,0,0.2,0.1,0.3l2.3,3.7c0.1,0.2,0.3,0.3,0.6,0.2l2.7-0.3
	l-0.9,1.8l0,0l-4,3.3c-0.1,0-0.3,0.1-0.3,0.2h-2.1l-5-2.3l-0.1-0.1l-2.4-3.1l0,0l-0.8-1.8l1.5-1h0.1l2.4-0.7
	c0.2-0.1,0.4-0.2,0.4-0.4l0.7-3.8l2.6-2c0.1-0.1,0.2-0.2,0.2-0.3L164.8,181.3z"/>
<path id="divi-76248" class="st0" d="M214.9,188.1l1.5,1.6c0.1,0.1,0.1,0.1,0.2,0.1l5.3,2.3c0.2,0.1,0.4,0.1,0.6-0.1l2.7-1.9
	l2.8,1.9l0.1,0.1l1.8,2.4c0,0,0,0,0,0.1l-0.6,0.3h-6.4c-0.2,0-0.3,0.1-0.4,0.2l-3.9,4.2l-4.6,4.6l-4.4,2.3l-8,0.6l-2.6-1.4
	c-0.1-0.1-0.2-0.1-0.4-0.1l-5.7,0.9c-0.1,0-0.1,0-0.2,0l-3.1,1.4l-5.5-1.7H184l-5.4-0.6l-5.5-5.5c-0.1-0.1-0.1-0.1-0.2-0.1l-3.9-1.8
	c0-0.2-0.1-0.3-0.2-0.4l3.4-2.9c0.1-0.1,0.1-0.1,0.1-0.2l1.7-3.4c0.1-0.1,0.1-0.2,0.1-0.4l3.8,2.3c0,0,0.1,0,0.1,0.1l4.6,1.7
	c0.2,0.1,0.5,0,0.7-0.2l0.3-0.5l3.4,3.1c0.1,0.1,0.2,0.1,0.2,0.1l6.2,1.7l5.5,2.1c0.2,0.1,0.5,0,0.7-0.2l3.2-3.5l6.4,1.2
	c0.3,0.1,0.6-0.1,0.7-0.4l1.2-4.1l3.3-4.5c0-0.1,0.1-0.1,0.1-0.2L214.9,188.1z"/>
<path id="divi-76520" class="st0" d="M231.3,195.2l0.6,0.2l-4.2,9.8c0,0.1-0.1,0.1-0.1,0.2l-1.2,14.6l0,0l-1.1,7.6l-4.7-1.6
	c-0.1,0-0.1,0-0.2,0l-3.6-0.3l-1.6-3c-0.1-0.2-0.3-0.3-0.5-0.3l-5.4,0.3l0,0l-5.9,0.6l-14.3,0.9c0,0,0,0-0.1,0l-1.2,0.2
	c-0.1-0.1-0.3-0.2-0.5-0.2s-0.4,0.1-0.5,0.3l-0.1,0.1l-4.6,0.8l0,0l-10.7,1.2c0,0,0,0-0.1,0l-6.4,1.1l-1.7-3.3l-1-5.1l1.2-4l0,0
	v-0.1l2.9-5.8c0-0.1,0-0.1,0-0.2l0.8-5.8v-0.1v-0.1l1.4-4.1l3.7,1.7h0.1l5.5,5.5c0.1,0.1,0.2,0.2,0.3,0.2l5.6,0.6l0,0l5.5,1.8
	c0.1,0,0.3,0,0.4,0l3.2-1.5l0,0l5.3-0.8l2.5,1.4c0.1,0,0.2,0.1,0.3,0.1l8.3-0.6c0.1,0,0.2,0,0.2-0.1l4.5-2.4c0.1,0,0.1-0.1,0.2-0.1
	l4.8-4.8l0,0l3.7-4h6.3c0.1,0,0.2,0,0.3-0.1L231.3,195.2z"/>
<path id="divi-76892" class="st0" d="M159.7,196.5l4.8,2.2c0.1,0,0.2,0,0.2,0h1.5c0,0.2,0.2,0.4,0.4,0.4c0.2,0.1,0.4,0,0.6-0.1
	l0.4-0.3h0.1l-1.4,4.3v0.1l-0.8,5.8l-2.9,5.8v0.1l-1.2,4.2c0,0.1,0,0.2,0,0.3l0.9,4.6v0.1c0,0.1-0.1,0.2,0,0.3l-4.2-2.6l-5-3.4l0,0
	l-3.1-3.4l1-4.7l2.9-3.6c0.1-0.1,0.1-0.2,0.1-0.2l0.9-4.1l3.8-3.4c0.1,0,0.1-0.1,0.1-0.2L159.7,196.5z"/>
<path id="divi-76001" class="st0" d="M148,214.8l4.1,4.5l0.1,0.1l5.1,3.4l0,0l5.5,3.4c0.1,0,0.1,0.1,0.2,0.1l0,0l0.8,1.5
	c-0.1,0.1-0.2,0.3-0.2,0.5l0.9,6.2l0,0v6c0,0.1,0.1,0.3,0.2,0.4l0.2,0.2l-1.8,1.4c-0.1,0.1-0.2,0.2-0.2,0.3l-0.8,3.4l-2.1,1.6
	l-5.6,0.3l-2.8-2c0,0-0.1,0-0.2-0.1l-5.1-1.5c-0.1,0-0.2,0-0.2,0l-3.4,0.6l-3.1-1.7c-0.1,0-0.2-0.1-0.3-0.1l-7.6,0.3l1.3-6v-0.1l0,0
	l2.5-5.8c0,0,0,0,0-0.1l0.1-0.2c0.1-0.1,0.1-0.3,0-0.4l0.6-2.6l7-4.9c0.1,0,0.1-0.1,0.2-0.2l2.9-5.1L148,214.8z"/>
<path id="divi-76563" class="st0" d="M214.5,223.6l1.6,2.9c0.1,0.2,0.3,0.3,0.5,0.3l3.7,0.3l5.1,1.7l-2.8,4.6c0,0,0,0.1-0.1,0.2
	l-1.1,4.3h-6.6l-1.9-3c-0.1-0.2-0.4-0.3-0.6-0.2l-6.8,1.8c-0.1,0-0.2,0-0.2,0.1l-4.2,3.1l-4.4-2.5c-0.2-0.1-0.4-0.1-0.5,0l-2.7,1.2
	l0,0l-4.2,0.5l-3.3-0.8l-2.9-4.3l4.6-8.1l1.6-0.3h0.1l14.2-0.9l6-0.6L214.5,223.6z"/>
<path id="divi-76130" class="st0" d="M186.1,225.9l-4.3,7.5c-0.1,0.2-0.1,0.4,0,0.6l2.9,4.3v0.1l-0.6,3.7l-1.9,3.1l-2.1,0.8H180
	c-0.3-0.1-0.5,0.1-0.7,0.3l-1.2,0.5c0-0.3-0.2-0.5-0.4-0.5c-0.2-0.1-0.5,0-0.6,0.3l-1.7-0.5h-0.1l-7.3-3.2l-1.8-2c0,0,0,0,0-0.1
	c0-0.1-0.1-0.2-0.2-0.3l0,0l-0.3-0.3v-5.7v-0.1l-0.8-5.3l0,0l6.8-1.2l0,0l10.7-1.2l0,0L186.1,225.9z"/>
<path id="divi-76275" class="st0" d="M212.1,235.9l1.9,2.9c0.1,0.2,0.3,0.3,0.5,0.3h6.7l-1.8,7.2v0.1l-2.6,7.1h-0.1l-2.9,1.7
	l-4.6,0.3l-5.8-0.8l-2.2-3.6c0-0.1-0.1-0.1-0.2-0.2l-5.7-3.9c-0.1-0.1-0.2-0.1-0.3-0.1l-8.3,0.3l-4.2-0.8l0.6-0.2
	c0.1,0,0.2-0.1,0.3-0.2l2.1-3.3c0-0.1,0.1-0.1,0.1-0.2l0.5-3.3l3.3,0.8c0.1,0,0.1,0,0.2,0l4.5-0.6c0.1,0,0.1,0,0.2,0l2.4-1.1
	l4.5,2.5c0.2,0.1,0.4,0.1,0.6-0.1l4.4-3.2l0,0L212.1,235.9z"/>
<path id="divi-76275_1_" class="st0" d="M139,244.2l3.2,1.7c0.1,0.1,0.2,0.1,0.3,0.1l3.5-0.6l4.8,1.4l2.9,2c0.1,0.1,0.2,0.1,0.3,0.1
	l6-0.3c0.1,0,0.2-0.1,0.3-0.1l1.2-0.9l1.7,2.7c-0.1,0.2,0,0.3,0,0.5l-2.1,3.3c0,0.1-0.1,0.2-0.1,0.3v6.1l-2.6,4l-2,2.8l-3.3,1.8
	l-1.5-2.2c-0.1-0.2-0.4-0.3-0.7-0.2l-3.3,1.2c-0.1,0-0.1,0.1-0.2,0.2l-2.3,2.3l-0.3-1.2l-0.6-2.4c0-0.2-0.2-0.3-0.3-0.3
	c-0.1-0.1-0.3-0.1-0.5,0l-4.2,1.5c0,0-0.1,0-0.1,0.1l-6.2,4.1l-0.1,0.1l-4.2,1.9l-3.6-0.8c0.2-0.2,0.2-0.5,0-0.7
	c-0.2-0.2-0.5-0.3-0.7-0.1l-0.3,0.2l-0.9-2.2v-0.1l0,0l-0.8-5l1.2-1.9l5.1-0.9c0.2,0,0.3-0.1,0.4-0.2l2.1-3.3
	c0.1-0.1,0.1-0.2,0.1-0.4l-0.6-5.7c0-0.1,0-0.1-0.1-0.2l-2.2-4.8l2.5-3.3c0,0,0,0,0.1-0.1L139,244.2z"/>
<path id="divi-76845" class="st0" d="M242.5,68.7h5.1l5.6,2.1c0.1,0,0.1,0,0.2,0l4.8,0.5c0.1,0,0.2,0,0.3,0l2.3-1l2.4,0.3l-0.4,2.7
	l-1.3,1.1l-3.4-1H258l-4.3-0.7h-0.1l-5.9-2.2c-0.1,0-0.1-0.1-0.2-0.1H244c-0.2,0-0.4,0.1-0.5,0.3l-0.6,1.2l-0.7-0.9l0.6-1.9
	C242.6,69,242.6,68.8,242.5,68.7L242.5,68.7z"/>
<path id="divi-76020" class="st0" d="M244.1,71.5h3.1l5.9,2.3h0.1l4.3,0.7l3.2,0.9l0,0l1.1,2.4l-3.2,0.9c0,0,0,0-0.1,0l-2.3,0.9
	c-0.1,0.1-0.2,0.1-0.2,0.2l-1.5-0.4h-0.1l-4.1-0.2c-0.1,0-0.2,0-0.3,0.1l-2.2,1.2l-2.1-1.2l-0.1-0.1h-0.1l-0.3-0.3
	c0-0.1,0-0.2,0-0.3l1.8-2.2c0.1-0.1,0.2-0.3,0.1-0.5l-0.5-1.9c0-0.2-0.2-0.3-0.3-0.4l-2.8-1.2L244.1,71.5z"/>
</svg>
