<?xml version="1.0" encoding="utf-8"?>
<!-- Generator: Adobe Illustrator 20.1.0, SVG Export Plug-In . SVG Version: 6.00 Build 0)  -->
<svg version="1.1"
	 id="cesar" inkscape:output_extension="org.inkscape.output.svg.inkscape" inkscape:version="0.46" sodipodi:docname="departamentos_colombia_plain.svg" sodipodi:version="0.32" xmlns:cc="http://creativecommons.org/ns#" xmlns:dc="http://purl.org/dc/elements/1.1/" xmlns:inkscape="http://www.inkscape.org/namespaces/inkscape" xmlns:rdf="http://www.w3.org/1999/02/22-rdf-syntax-ns#" xmlns:sodipodi="http://sodipodi.sourceforge.net/DTD/sodipodi-0.dtd" xmlns:svg="http://www.w3.org/2000/svg"
	 xmlns="http://www.w3.org/2000/svg" xmlns:xlink="http://www.w3.org/1999/xlink" x="0px" y="0px" viewBox="0 0 308 536"
	 style="enable-background:new 0 0 308 536;" xml:space="preserve">
<style type="text/css">
	.st0{fill:none;stroke:#050505;stroke-miterlimit:10;}
</style>
<path id="divi-20621" class="st0" d="M194.7,119.2l1.9,0.4v6.9c0,0.2,0.1,0.3,0.2,0.5c0.1,0.1,0.3,0.1,0.5,0.1h0l5,3.2
	c0.1,0.1,0.3,0.1,0.4,0.1l2.3-0.3l6.1,4.7c0.1,0.1,0.3,0.1,0.5,0.1l3.7-0.7c0,0,0,0,0.1,0l6.1-1.8l4.9,0.4l2.8,2.1
	c0.1,0.1,0.2,0.1,0.3,0.1h5.8l-8.8,13.1l-10.8,9l-0.1,0.1l-5.8,3.2c0,0,0,0,0,0l-5.7,3.6l-4.9-0.7c-0.2,0-0.3,0-0.5,0.1l-2.6,2.2
	c-0.1,0.1-0.2,0.3-0.2,0.4v3.1l-3,3h-2.4l-2.8-2.8c-0.1-0.1-0.3-0.2-0.4-0.2h-4.8c-0.2,0-0.4,0.1-0.5,0.3l-0.8,1.4l-4-1.3
	c-0.1,0-0.1,0-0.2,0l-5.2-0.3c-0.1,0-0.3,0-0.4,0.1l-7.3,6.2c0,0,0,0,0,0L159,180c-0.1,0.1-0.2,0.3-0.2,0.4v2.9c0,0.1,0,0.2,0.1,0.3
	l1.9,2.8l-10.2,7.8c-0.1,0-0.1,0.1-0.2,0.1l-3.9,6.1l-3.1,0.7c-0.1,0-0.2,0-0.2,0.1l-5.4,4.4l-0.2-4.8c0.2,0,0.5-0.1,0.6-0.3
	l4.7-7.6l4.7-4c0.1-0.1,0.1-0.1,0.2-0.2l5-12.9l9.6-1.4c0.1,0,0.3-0.1,0.4-0.2l5.7-7.1l6.7,0.7c0.1,0,0.3,0,0.4-0.1l4.6-3.6
	l15.6-0.4c0.2,0,0.3-0.1,0.4-0.2c0.1-0.1,0.2-0.3,0.2-0.4l-0.3-10.8l6-0.3c0.2,0,0.3-0.1,0.4-0.2c0.1-0.1,0.2-0.3,0.2-0.4l-0.4-16.2
	c0-0.2-0.1-0.3-0.2-0.4s-0.3-0.2-0.5-0.1l-3.9,0.7l-7.4-2.1l-1.8-2.2L194.7,119.2z"/>
<path id="divi-20443" class="st0" d="M210.4,121.9l4.9,1.8l0,0l4.8,2.2c0.1,0,0.1,0,0.2,0l7,0.8c0,0,0.1,0,0.1,0l6.6-0.8
	c0.1,0,0.2,0,0.2-0.1l1.9-1l4.6,2.7l-4.8,6.3c-0.1-0.2-0.3-0.3-0.5-0.2h-5.7l-2.8-2.1c-0.1-0.1-0.2-0.1-0.3-0.1l-5.2-0.4
	c-0.1,0-0.1,0-0.2,0l-6.2,1.8v0l-3.4,0.7l-6.1-4.6c-0.1-0.1-0.3-0.1-0.4-0.1l-2.3,0.3l-4.1-2.6l4.1-1.4c0.1,0,0.1-0.1,0.2-0.1
	l2.8-2.5L210.4,121.9z"/>
<path id="divi-20001" class="st0" d="M166.7,69.7L166.7,69.7l11.2,1.1l4.1,4.8l-1.1,7.1l-0.7,3.6l-0.1,0.5c0,0.3,0.1,0.5,0.3,0.6
	c0,0,0,0,0.1,0h0c0.2,0.1,0.4,0,0.6-0.1l3-0.6l0-0.2l4.4-2.7l4.7,1.7l3.2,7.1c0.1,0.2,0.4,0.4,0.6,0.3l3.4-0.7l4.4,4.1l0.3,1.2
	l-2.5,7.8l0,0.1l-4.2,5.5h0c-0.1,0-0.3,0.1-0.4,0.2l-3.9,3.2c0,0,0,0,0,0h0c0,0,0,0,0,0c0,0,0,0-0.1,0.1c0,0,0,0,0,0c0,0,0,0,0,0
	c0,0,0,0,0,0c0,0-0.1,0.1-0.1,0.2l-2.5,3.2c-0.1,0.2-0.2,0.4-0.1,0.6c0.1,0.2,0.2,0.3,0.4,0.4l1.9,0.4l-6.3,12
	c-0.1,0.2-0.1,0.5,0.1,0.7l0.2,0.2c-0.1,0-0.2,0.1-0.2,0.2l-2.9,5.2c0,0,0,0,0,0.1l-5.5,12.7l-10.5,6.9c-0.1,0.1-0.1,0.1-0.2,0.2
	l-5.4,8.7l-7.2,3.2c0,0-0.1,0-0.1,0.1l-5.2,3.7c0,0-0.1,0.1-0.1,0.1l-3.7,5.5c0,0,0,0,0,0.1l-4,8.4c0,0,0,0.1,0,0.1l-1.8,5.5
	c0,0.1,0,0.1,0,0.2v1.5c0,0.2,0.1,0.3,0.2,0.4l-3.2,5.1c-0.1-0.2-0.3-0.3-0.5-0.3l-1.6-5.1c-0.1-0.2-0.3-0.4-0.5-0.4
	c-0.2,0-0.5,0.1-0.6,0.3l-1.7,3l-8.1,0.7l-1.9-4.1l0.1-0.1c0.1-0.1,0.2-0.3,0.2-0.5l1.4-2.2c0.1-0.1,0.1-0.3,0.1-0.4l-1.1-6.6
	c0-0.1,0-0.1-0.1-0.2l-6.2-11.4c-0.1-0.2-0.3-0.3-0.5-0.3h-5.6l0.5-3.4l2.7-1c0.1-0.1,0.3-0.2,0.3-0.3l2.2-5.9c0,0,0-0.1,0-0.1
	l0.7-3.3c0-0.3-0.1-0.5-0.3-0.6l-1.1-0.6l0.3-6.6c0-0.1,0-0.2,0-0.2l-2.1-4.7l5.6-4.5c0.1,0,0.1-0.1,0.1-0.2l2.5-4.2l0.9-0.3h0.1
	c0.2,0,0.4,0,0.5-0.2c0,0,0,0,0,0l1.7-0.5l5.3,2.8c0.1,0.1,0.3,0.1,0.5,0l3.3-1.1l5-1.8l8.7,1.1c0.1,0,0.1,0,0.2,0l4.6-1.1h0h7
	c0.2,0,0.3-0.1,0.4-0.2s0.2-0.3,0.2-0.4l-0.4-7.7c0-0.1,0-0.3-0.1-0.4l-2.9-3.2l-0.1-0.1l-4-6.3l3.5-1.6c0.2-0.1,0.3-0.2,0.3-0.4
	c0-0.2,0-0.4-0.1-0.5l-3.6-4.7l0-0.1l0,0l-2.8-4.9l0.7-17.1c0-0.3-0.2-0.5-0.4-0.6l-7.2-1.7l1-6.1c0-0.2,0-0.3-0.1-0.4
	c-0.1-0.1-0.2-0.2-0.4-0.2l-4-0.4c0,0-0.1,0-0.1,0l-4.9,0.6l4.2-5.7h0c0,0,0.1,0,0.1,0l18.2-3.5c0.1,0.1,0.3,0.2,0.4,0.2L166.7,69.7
	z"/>
<path id="divi-20570" class="st0" d="M142.5,86.5c0.1,0,0.1,0.1,0.2,0.1l7.2,1.8l-0.7,16.8c0,0.1,0,0.2,0.1,0.3l2.9,5.2
	c0,0,0,0,0,0.1l3.2,4.2l-3.4,1.5c-0.1,0.1-0.3,0.2-0.3,0.4c0,0.2,0,0.3,0.1,0.5l4.4,7c0,0,0,0,0.1,0.1l2.8,3.2l0.3,6.9h-6.4
	c0,0-0.1,0-0.1,0l-4.7,1.1l-8.7-1.1c-0.1,0-0.2,0-0.3,0l-5.1,1.8l-3.1,1l-5.3-2.8c-0.1-0.1-0.3-0.1-0.4,0l-2.2,0.7l-5-1.7l-3.6-5.6
	l0.2,0c0.2,0,0.4,0,0.5-0.2c0.1-0.1,0.2-0.3,0.1-0.5l4.1-3l4.3-0.7c0.2,0,0.3-0.2,0.4-0.3l2-4l3.9,1.3c0.3,0.1,0.6,0,0.7-0.3
	l3.6-6.8l6.4-3.2c0.2-0.1,0.4-0.4,0.3-0.7l-2.5-7.9v-0.1v-5.1c0,0,0,0,0-0.1l-0.3-4.6L142.5,86.5z"/>
<path id="divi-20238" class="st0" d="M104.1,127l9.2,0.6c0,0.1,0,0.2,0.1,0.2l4,6.2c0.1,0.1,0.2,0.2,0.3,0.2l3.8,1.3
	c0,0,0,0.1-0.1,0.1l-2.5,4.3l-5.8,4.7c-0.2,0.2-0.3,0.4-0.2,0.7l2.2,5.1l-0.4,6.8c0,0.2,0.1,0.4,0.3,0.5l1.1,0.5l-0.6,2.8l0,0.1
	l-2.1,5.6l-2.1,0.8c-0.2-0.2-0.4-0.2-0.7-0.1l-3.6,1.8l-6.9,0.8c-0.1,0-0.1,0-0.2,0.1l-6.1,3.2l-4.2-0.4c-0.1,0-0.3,0-0.4,0.1
	l-5.1,3.2l0-0.1c-0.1-0.1-0.2-0.2-0.4-0.2c-0.2,0-0.3,0-0.4,0.1l-4.9-4.9l0.2-1.6c0.2-0.2,0.2-0.4,0.1-0.7l1.2-9.5l4-8.3l0-0.1
	l4.2-6.7c0.1,0,0.3,0,0.4-0.1l5.1-3.7c0.1-0.1,0.2-0.2,0.2-0.4l0.7-4.3l1.8-3.1L104.1,127z"/>
<path id="divi-20750" class="st0" d="M188.1,132.7l1.3,1.5c0.1,0.1,0.2,0.2,0.3,0.2l7.7,2.2c0.1,0,0.2,0,0.3,0l3.3-0.6l0.4,14.9
	l-6.1,0.3c-0.2,0-0.3,0.1-0.4,0.2c-0.1,0.1-0.2,0.3-0.2,0.4l0.3,10.8l-15.2,0.3c-0.1,0-0.2,0.1-0.3,0.1l-4.6,3.5l-6.8-0.7
	c-0.2,0-0.4,0-0.5,0.2l-5.7,7.2l-9.7,1.4c-0.2,0-0.4,0.2-0.4,0.3l-5.1,13.1l-4.7,4c0,0-0.1,0.1-0.1,0.1l-0.4,0.7v-0.2l1.8-5.4l0-0.1
	l4-8.3l0-0.1l3.6-5.4l4.9-3.5l0.1-0.1l7.2-3.2c0.1,0,0.2-0.1,0.3-0.2l5.5-8.8l10.5-6.9c0.1-0.1,0.2-0.1,0.2-0.2l5.5-12.8l0,0v0
	L188.1,132.7z"/>
<path id="divi-20013" class="st0" d="M226,149.7l1.8,6.5l-2.3,8.6v0l-7.4,21.5c0,0.1,0,0.2,0,0.3l0,0.2l-2.3,0.5
	c-0.1,0-0.1,0.1-0.2,0.1l-10.3,7c0,0,0,0-0.1,0l-5.5,4.8c0,0,0,0,0,0l-3.2,2.9l-2.5-2.9c-0.1-0.1-0.3-0.2-0.4-0.2l-9.9-0.4
	c-0.2,0-0.3,0.1-0.4,0.2l-7.3,6.6l-2.9-2.6c-0.1-0.1-0.3-0.2-0.5-0.1l-16.2,3.7c-0.1,0-0.1,0.1-0.2,0.1l-2.1,1.4l-10.4-0.8
	c-0.1,0-0.3,0-0.4,0.1l-6,4.8l0.2-4.4h0c0.2-0.1,0.4-0.2,0.4-0.4c0.1,0,0.1-0.1,0.2-0.1l5.8-4.7l3.2-0.7c0.1,0,0.3-0.1,0.3-0.2
	l3.9-6.1l0.1,0l10.6-8.1c0.2-0.2,0.3-0.5,0.1-0.8l-2.1-3.1v-2.6l4.9-4.6l7.2-6.1l4.8,0.3h0l4.3,1.4c0.3,0.1,0.5,0,0.7-0.2l0.9-1.6
	h4.2l2.8,2.8c0.1,0.1,0.3,0.2,0.4,0.2h2.9c0.2,0,0.3-0.1,0.4-0.2l3.3-3.3c0.1-0.1,0.2-0.3,0.2-0.4v-3l2.2-1.9l4.9,0.7
	c0.1,0,0.3,0,0.4-0.1l5.8-3.7l0,0l5.8-3.3c0,0,0.1,0,0.1-0.1L226,149.7z"/>
<path id="divi-20060" class="st0" d="M110.2,168.9l-0.6,3.7c0,0.2,0,0.3,0.1,0.5c0.1,0.1,0.3,0.2,0.5,0.2h5.9l6.1,11l1.1,6.3
	l-1.7,2.6l-7.9,6.9c0,0,0,0,0,0l-0.1,0c0,0,0,0,0,0l0,0c0,0-0.1,0.1-0.1,0.1l-4.4,4.1v-3.1c0-0.2-0.1-0.3-0.2-0.4l-3.3-2.9l0,0
	l-8.7-9.3c0,0,0,0,0,0l0-0.1c0,0,0,0-0.1-0.1c0,0,0,0,0,0c0,0,0,0,0,0c0,0,0,0,0,0c0,0,0,0,0,0c0,0,0,0,0,0l-0.1-0.1l-8.1-5.6v0
	c0-0.1,0-0.3-0.1-0.4l-3.4-5.2l4.9-3.1l4.2,0.3c0.1,0,0.2,0,0.3-0.1l6.2-3.2l6.8-0.7c0.1,0,0.2,0,0.2-0.1L110.2,168.9z"/>
<path id="divi-20045" class="st0" d="M218.4,187.9l1,5.1c0,0.1,0.1,0.2,0.2,0.3l5.6,4.8l-10.4,10.8c-0.1,0.1-0.1,0.2-0.2,0.3
	l-0.8,7.3l-7,6.2l-4.2-1.3c-0.2-0.1-0.4,0-0.5,0.1l-2.7,2l-5.6-1.4c-0.1,0-0.2,0-0.3,0l-2.6,1.1c0,0,0,0-0.1,0.1l-4.6,2.8l-4.6-0.4
	c-0.2,0-0.4,0.1-0.5,0.3l-1.9,3.2l-6.8-3l-1.8-3.1c0-0.1-0.1-0.1-0.2-0.2l-2.8-2.1l-3.3-4c-0.1-0.1-0.2-0.2-0.3-0.2l-5.5-1.8
	c-0.2-0.1-0.4,0-0.5,0.1l-5,3.2l-9.8,1.1c0,0,0,0-0.1,0l-6.4,1.4l-2.3-1.8l2.9-5.5l6.4-5.1l10.4,0.7c0.1,0,0.3,0,0.4-0.1l2.2-1.4
	l15.8-3.6l3.1,2.8c0.2,0.2,0.6,0.2,0.8,0l7.5-6.8l9.5,0.4l2.8,3.1c0.1,0.1,0.2,0.2,0.4,0.2c0.2,0,0.3,0,0.4-0.1l3.7-3.3l5.4-4.7
	l0.1-0.1l10.2-6.9L218.4,187.9z"/>
<path id="divi-20250" class="st0" d="M121.7,194.6l1.9,4.1c0.1,0.2,0.3,0.3,0.6,0.3l8.8-0.7c0.2,0,0.4-0.1,0.5-0.3l1.2-2.1l1.8,5.7
	c0,0.1,0.1,0.1,0.1,0.2l0.2,3.6c-0.2,0.1-0.2,0.3-0.2,0.5l-0.4,7.3c0,0.1,0,0.1,0,0.2c0,0,0,0,0,0l-2.9,5.4
	c-0.1,0.2-0.1,0.5,0.2,0.7l2.9,2.2c0.1,0.1,0.3,0.1,0.5,0.1l6.6-1.5h0.1l9.3-1l0.3,2.7c0,0.3,0.3,0.5,0.6,0.5h6l-0.3,2.8l-4.9,2.9
	l0-0.1c0.2-0.3,0.1-0.6-0.2-0.8c-0.3-0.2-0.6-0.1-0.8,0.2v0l-1.7-1.3c-0.1-0.1-0.2-0.1-0.4-0.1l-8.8,0.4c0,0-0.1,0-0.1,0l-8.5,2.2
	c-0.2,0-0.3,0.1-0.4,0.3c-0.1,0.1-0.1,0.3-0.1,0.4l1.6,5.5l-18.2,0.7c-0.1-0.2-0.2-0.3-0.4-0.3l-0.3-5.9v0l1.1-5.5
	c0-0.1,0-0.2,0-0.3l-2.2-8.1c0-0.1-0.1-0.2-0.2-0.3l-5.3-4.6l-0.1-0.6c0.1-0.2,0.1-0.4,0-0.5l-0.2-3.8l4.8-4.6c0,0,0,0,0.1-0.1
	l0.1-0.1c0,0,0,0,0-0.1L121.7,194.6z"/>
<path id="divi-20400" class="st0" d="M158.3,216l5.1,1.7l3.2,3.9c0,0,0.1,0.1,0.1,0.1l2.8,2.1l1.8,3.2c0.1,0.1,0.2,0.2,0.3,0.2
	l7.3,3.3c0.3,0.1,0.6,0,0.7-0.2l2-3.4l4.4,0.3c0.1,0,0.2,0,0.3-0.1l4.7-2.9l0.1,0l2.3-1l5.7,1.4c0.2,0,0.3,0,0.5-0.1l2.7-2l3.3,1
	l-0.8,0.7c0,0,0,0,0,0l-6.9,7.2c-0.1,0.1-0.1,0.1-0.1,0.2l-3.1,8.6l-4.7,8l-1.5-4.5c-0.1-0.1-0.2-0.2-0.3-0.3l-4-2.2
	c-0.2-0.1-0.5-0.1-0.7,0.1l-2.4,2.8l-4.3,0.3l-2.8-2.1c-0.2-0.1-0.4-0.2-0.6-0.1l-4,2l-2.3-2.6c-0.1-0.1-0.2-0.2-0.4-0.2l-12.1-1.1
	h-0.1l-10.2-3.6l-0.4-1.3l6.3-1c0.2,0,0.3-0.1,0.4-0.3l3-5.1l0.2,0.2c0.2,0.1,0.4,0.1,0.6,0l5.5-3.3c0.1-0.1,0.2-0.3,0.2-0.4
	l0.4-3.7c0-0.2,0-0.3-0.1-0.4c-0.1-0.1-0.3-0.2-0.4-0.2H154l-0.2-2.4L158.3,216z"/>
<path id="divi-20032" class="st0" d="M83.9,225.9l4.6,0.3l0,0l5.8,2.9c0.1,0,0.2,0.1,0.3,0l8.1-0.7c0.1,0,0.2-0.1,0.3-0.1l1.7-1.3
	l6.5-0.3l3.8,4.9l0.2,4.8c0,0.2,0.1,0.4,0.3,0.5l-0.3,4.2c0,0.1,0,0.1,0,0.2l-0.9,2.7l-4.9-2c-0.1-0.1-0.3-0.1-0.4,0l-4.8,1.8
	c-0.1,0-0.2,0.1-0.3,0.2l-3.3,4.4c-0.1,0.1-0.1,0.2-0.1,0.3l-0.3,3.3l-5.3,1.3l-4.1-1l-10.2-9.2c0,0-0.1-0.1-0.1-0.1l-8.3-3.7
	l5.2-4.2c0,0,0.1-0.1,0.1-0.1L83.9,225.9z"/>
<path id="divi-20178" class="st0" d="M151.1,227.4l1.6,1.2l-2.9,5l-6.7,1.1c-0.2,0-0.3,0.1-0.4,0.3c-0.1,0.1-0.1,0.3-0.1,0.5
	l0.8,2.2c0.1,0.2,0.2,0.3,0.3,0.4l10.7,3.7c0.1,0,0.1,0,0.2,0l11.9,1.1l2.4,2.8c0.2,0.2,0.4,0.3,0.7,0.2l4.1-2.1l2.7,2
	c0.1,0.1,0.2,0.1,0.4,0.1l4.8-0.4c0.2,0,0.3-0.1,0.4-0.2l2.2-2.6l3.4,1.8l1.7,5.1l-3.2,2c-0.1,0.1-0.1,0.1-0.2,0.2l-4.2,7.9
	l-3.6-1.8c-0.1,0-0.1,0-0.2,0l-7-1.4l-1.4-4.8c-0.1-0.2-0.2-0.4-0.4-0.4l-5.2-1.1c-0.1,0-0.2,0-0.3,0l-5.1,1.8
	c-0.1,0-0.2,0.1-0.3,0.2l-4.3,6.5l-6.4,2.5c-0.2,0.1-0.3,0.2-0.3,0.4l-1,3.9l-12-0.7c-0.2,0-0.4,0.1-0.5,0.2l-3.3,5.3l-3.7-3.4
	l0.7-5.6c0-0.2,0-0.3-0.2-0.5l-5.7-6.1v-11.2c0-0.2-0.1-0.4-0.3-0.5l-4.4-2.4l0.3-3.9l19-0.7c0.2,0,0.3-0.1,0.5-0.2
	c0.1-0.1,0.1-0.3,0.1-0.5l-1.7-5.7l7.9-2L151.1,227.4z"/>
<path id="divi-20175" class="st0" d="M116.4,242l3.8,2v11.1c0,0.1,0.1,0.3,0.2,0.4l5.7,6.1l-0.7,5.6c0,0.2,0.1,0.3,0.2,0.5l4,3.7
	c-0.1,0.1-0.1,0.2-0.1,0.3v4.8c0,0.1,0.1,0.3,0.2,0.4l2.8,3.2l1,4.5l-1.1,3.9c-0.1,0.2,0,0.4,0.2,0.6l4,4c0.2,0.2,0.4,0.2,0.6,0.2
	c-0.1,0.3,0,0.5,0.3,0.7c0.2,0.1,0.5,0.1,0.7-0.1l4.2-4.6l8.2-1.1c0.1,0,0.2,0,0.3-0.1c0,0,0,0,0,0c0,0,0,0,0,0l0,0
	c0,0,0.1-0.1,0.1-0.1l5.2-3.4l7,0.7l0.7,11.1l-3.6,7.6c0,0,0,0,0,0.1l-0.1,0.2l-9.6-3.1l-3.2-4.2l0,0l0-0.1l-2.5-4.7
	c-0.1-0.1-0.2-0.2-0.4-0.3s-0.3,0-0.5,0.1l-4.8,3.3c0,0-0.1,0-0.1,0.1l-2.7,2.7l-6.9-1.8v-0.1c0-0.3-0.2-0.5-0.5-0.6
	s-0.5,0.1-0.6,0.4l-1.5-0.4c0,0,0,0-0.1,0l-7.2-0.7l-0.1,0l-5.8-2c0-0.2-0.2-0.4-0.4-0.5c-0.2-0.1-0.5,0-0.6,0.2l-0.3-0.1l-6.6-7.3
	l2.4-5.6c0.1-0.2,0-0.5-0.2-0.7l-2.2-1.8c-0.1-0.1-0.2-0.1-0.4-0.1h-7.1l-4-4.4l2.2-8.9c0-0.1,0-0.3-0.1-0.4l-2.9-5.9c0,0,0,0,0-0.1
	l-2-3.2c0,0,0.1,0,0.1-0.1l3.5,0.8c0.1,0,0.2,0,0.3,0l5.9-1.5c0.2-0.1,0.4-0.3,0.4-0.5l0.4-3.5l3.1-4.1l4.4-1.7l5.3,2.1
	c0.1,0.1,0.3,0,0.5,0c0.1-0.1,0.2-0.2,0.3-0.3L116.4,242z"/>
<path id="divi-20228" class="st0" d="M163.8,251.3l4.6,1l1.4,4.8c0.1,0.2,0.2,0.4,0.4,0.4l7.3,1.5h0.1l3.5,1.8l-3.3,7.2l-4.7,9.7
	c-0.1,0.2-0.1,0.5,0.1,0.7l0.2,0.2l-6.2,1.4c-0.1,0-0.2,0.1-0.3,0.2l-3.2,3.5c-0.2,0-0.5,0.1-0.6,0.3l-7.2-0.7c-0.1,0-0.3,0-0.4,0.1
	l-5.4,3.6l-8.3,1.1c-0.1,0-0.2,0.1-0.3,0.2l-4.1,4.5c0-0.2-0.1-0.3-0.2-0.4l-3.8-3.8l1-3.7c0-0.1,0-0.2,0-0.3l-1.1-4.8
	c0-0.1-0.1-0.2-0.2-0.2l-2.8-3.1v-4.4c0.1,0,0.2-0.1,0.3-0.2l3.5-5.6l12.1,0.7c0.3,0,0.5-0.2,0.6-0.4l1-4.1l6.3-2.5
	c0.1,0,0.2-0.1,0.3-0.2l4.3-6.4L163.8,251.3z"/>
<path id="divi-20517" class="st0" d="M144.1,293l2.2,4.2c0,0,0,0,0.1,0.1l3.3,4.4c0.1,0.1,0.2,0.2,0.3,0.2l10.2,3.3v3.5
	c0,0.2,0.1,0.4,0.3,0.5c0.2,0.1,0.4,0.1,0.6,0l1.6,6v0c0,0,0,0-0.1,0c0,0-0.1,0.1-0.1,0.1c0,0,0,0.1,0,0.1c0,0,0,0,0,0.1
	c0,0,0,0,0,0l-6.3,3.7l-6.9,1.7l-3.5-2.1l-5.1-4.3c-0.2-0.2-0.5-0.2-0.7-0.1l-8,5.6c0,0,0,0-0.1-0.1l-2.8-2.4l0.3-20.5l7,1.8
	c0.2,0,0.4,0,0.5-0.2l2.9-2.9l0.1-0.1L144.1,293z"/>
<path id="divi-20787" class="st0" d="M113.2,293.6l5.9,2.1c0,0,0.1,0,0.1,0l7.2,0.7l1.8,0.5l-0.3,21c0,0.2,0.1,0.3,0.2,0.4l2.7,2.4
	l-0.7,5.8v0l-2.4,5.2l-7.7,1.1l-3.4-1l0.7-7.6c0-0.2,0-0.3-0.2-0.4l-8.7-9.5l-1.4-10.9l3.8-4.6c0,0,0.1-0.1,0.1-0.1L113.2,293.6z"/>
<path id="divi-20550" class="st0" d="M140.2,315.7l4.8,4.1c0,0,0,0,0.1,0l3.7,2.2c0.1,0.1,0.3,0.1,0.4,0.1l7.3-1.8
	c0,0,0.1,0,0.1-0.1l6.1-3.5l0.8,2l0,0.1l0.7,4.6l-6.5,2.8h-0.1l0,0l-9.7,2.5l-5.7-1.4c-0.2-0.1-0.5,0-0.6,0.2l-4.8,6.6
	c-0.1,0.2-0.1,0.4-0.1,0.6l2,4.4l-6.5,5.1h-5.9l-4.2-2.8c-0.2-0.1-0.4-0.1-0.6,0l-4.1,2.2l-0.5-2.8l2.2-6.8c0-0.1,0-0.1,0-0.2
	l0.7,0.2c0.1,0,0.2,0,0.2,0l8.1-1.1c0.2,0,0.4-0.1,0.4-0.3l2.6-5.5c0-0.1,0-0.1,0-0.2l0.7-5.4c0.1,0,0.2,0,0.2-0.1L140.2,315.7z"/>
<path id="divi-20295" class="st0" d="M122.8,368.5l-0.5,10.4l0.5,2c0,0.1,0,0.1,0,0.2l-0.3,9.1c0,0.1,0,0.2-0.1,0.3l-3.5,6.5v3.9
	v0.1l0.7,3.9l1-2.7c0.1-0.2,0.3-0.4,0.6-0.4l4.5,0.2l3.4-3l-0.2-4.4c0,0,0-0.1,0-0.1l1.1-7.2c0-0.1,0.1-0.2,0.1-0.3l4.6-5.4v-4.2
	c0-0.2,0.1-0.4,0.2-0.5l4.1-2.8l-1.5-8.6l-0.2,0.1c-0.3,0.1-0.6,0-0.7-0.3l-2.1-0.5l-3.3,3.6c-0.1,0.1-0.2,0.2-0.4,0.2l-7.4,0.5
	c-0.2,0-0.4-0.1-0.5-0.2C122.8,368.8,122.8,368.7,122.8,368.5z"/>
<path id="divi-20383" class="st0" d="M164.5,324.6l-6.4,2.7c0,0,0,0-0.1,0l-9.9,2.6c-0.1,0-0.2,0-0.3,0l-5.5-1.4l-4.4,6.1l2.1,4.4
	c0.1,0.2,0,0.5-0.2,0.7l-7,5.5c-0.1,0.1-0.2,0.1-0.3,0.1h-6.2c-0.1,0-0.2,0-0.3-0.1l-4.1-2.8l-4.5,2.4c-0.1,0.1-0.2,0.1-0.4,0.1
	l-1.3,0.8c-0.2,0.1-0.4,0.1-0.5,0l-1.2-0.6l2.8,5.3c0,0,0,0.1,0.1,0.2l1.6,9l4.4,6.8c0.1,0.1,0.1,0.2,0.1,0.3l-0.1,1.5h0.4
	c0.1,0,0.1-0.1,0.2-0.1l7.2-0.5l3.4-3.7c0.1-0.2,0.4-0.2,0.6-0.2l3,0.7l7.7-2.3h0l5.2-3.2c-0.1-0.1-0.1-0.2-0.1-0.2l-2.2-8.5
	c0-0.1,0-0.3,0-0.4l3.3-7.7c0-0.1,0.1-0.1,0.1-0.2l6.5-6.4l0.5-4.5c0-0.2,0.1-0.3,0.2-0.4l5.3-3.4L164.5,324.6z"/>
<path id="divi-20011" class="st0" d="M150.7,360.1l1.1,2.7c0.1,0.2,0.2,0.3,0.4,0.3l4,1l0.3,9.3l-2.4,1c-0.1,0-0.1,0.1-0.2,0.1
	l-2.5,2.2c-0.1,0.1-0.2,0.3-0.2,0.4s0.1,0.3,0.2,0.4l4.3,3.8l-3.9,5.9l0,0l-4.9,6c-0.1,0.1-0.1,0.2-0.1,0.4v5.6l-3.2-0.7
	c-0.3-0.1-0.6,0.1-0.7,0.3l-2.5,6.1c-0.1,0.2,0,0.3,0,0.5l2.6,5l-8.4,0.2c-0.2,0-0.3,0.1-0.5,0.2c-0.1,0.1-0.1,0.3-0.1,0.5l1.9,5.8
	c0,0,0,0,0,0.1v0c-0.1,0.2-0.1,0.3,0,0.5c0.1,0.2,0.2,0.3,0.4,0.3l2.4,5.4l-5.9,2l-5.5-0.8l-5.6-7l-6.2-8.2l3.1-1.5
	c0.1,0.1,0.3,0.2,0.5,0.2c0.2,0,0.4-0.2,0.4-0.4l0.1-0.3h0c0.1-0.1,0.2-0.3,0.2-0.5c0,0,0,0,0,0l1.5-4.2l4.2,0.2
	c0.1,0,0.3,0,0.4-0.1l3.9-3.3c0.1-0.1,0.2-0.3,0.2-0.5l-0.3-4.6v0l1.1-7l4.6-5.4c0.1-0.1,0.1-0.2,0.1-0.4v-4.1l4.2-2.8
	c0.2-0.1,0.3-0.3,0.2-0.6l-1.6-9.1l7-2.1c0.1,0,0.1,0,0.2-0.1L150.7,360.1z"/>
<path id="divi-20310" class="st0" d="M170.7,368.6l2.5,3.8l1,5.9c0,0,0,0,0,0l-0.2,1.8v0l-1.6,3.7l-2.7-3.6
	c-0.1-0.2-0.3-0.3-0.6-0.2l-4.3,0.9v-9.5l0.1-0.1c0.1-0.1,0.2-0.2,0.2-0.3l0.5-2.4c0.1,0.1,0.2,0.1,0.3,0.1L170.7,368.6z"/>
<path id="divi-20614" class="st0" d="M168.9,381.4l3,4c0,0,0,0.1,0,0.1l-1.3,4.1l0,0.1l-5.2,7c-0.1,0.1-0.1,0.2-0.1,0.3l-0.8,11.6
	c0,0.1,0,0.2,0,0.3l1.1,2.8c-0.1,0.2-0.1,0.3,0,0.5l0.1,0.3l-4.4,1.6h-0.1l-0.1,0l-24,2.9l-0.1-0.1v0l-1.7-5l8.6-0.2
	c0.2,0,0.4-0.1,0.4-0.3c0.1-0.2,0.1-0.4,0-0.5l-2.9-5.6l2.2-5.4l3.4,0.7c0.2,0,0.3,0,0.5-0.1c0.1-0.1,0.2-0.3,0.2-0.4v-6.1l4.8-5.9
	c0,0,0,0,0,0l3.8-5.8l2.5,2.5c0.2,0.2,0.5,0.2,0.7,0.1l4.2-2.5h0c0.1,0,0.2,0.1,0.3,0L168.9,381.4z"/>
<path id="divi-20770" class="st0" d="M166.2,413.5l1.9,4.7c0.1,0.1,0.2,0.3,0.3,0.3l8.3,2.8l3.8,4.7l0.1,0.2v0
	c-0.1,0.1-0.2,0.2-0.2,0.4v0.2l-2.8,2.3l-10.9,4.5l-2.8-2.3c-0.2-0.2-0.6-0.2-0.8,0.1l-2.8,2.8c-0.1,0.1-0.1,0.1-0.1,0.2l-2.5,6.6
	l0,0.1l-2.6,5.4l-4.9,0.5c-0.1,0-0.3,0.1-0.4,0.2l-1.8,2l-9,0.3l-5.6-4c-0.2-0.2-0.5-0.2-0.7,0l-1.9,1.4c-0.3,0.2-0.3,0.5-0.2,0.8
	l4.2,7.1l-12.3-0.2l-0.2-0.6c0-0.1,0-0.1,0-0.2l-1.3-5.7l5.5-5c0,0,0.1-0.1,0.1-0.1l4.7-8.3c0.1-0.2,0.1-0.4,0-0.6l-4.1-6.3
	l-0.4-1.7c0,0,0.1,0,0.1,0l5.8,0.8c0.1,0,0.2,0,0.2,0l6.6-2.2c0.2-0.1,0.3-0.2,0.3-0.3c0.1-0.1,0.1-0.3,0-0.5l-2.5-5.7l23.8-2.9
	c0,0,0.1,0,0.1,0L166.2,413.5z"/>
<path id="divi-20710" class="st0" d="M180.4,428.2c0,0.2,0.2,0.4,0.4,0.5c0.2,0.1,0.5,0,0.6-0.2l0,0.1l-1.5,3.2l-6.9,3.5
	c-0.2,0.1-0.3,0.3-0.3,0.5l-0.8,7.2c0,0.2,0,0.3,0.2,0.4l2,2.2l-2.5,2.5c0,0-0.1,0.1-0.1,0.1l-4.3,7l0,0l-5,4.5l-10.1,1.1l-4.8-3.7
	c-0.1,0-0.1-0.1-0.2-0.1l-10.9-3.2c0,0,0,0-0.1,0h0c0,0,0,0-0.1,0c0,0,0,0-0.1,0l-3.8-6.4l1.2-0.8l5.5,3.9c0.1,0.1,0.2,0.1,0.3,0.1
	l9.4-0.3c0.2,0,0.3-0.1,0.4-0.2l1.8-2.1l5-0.5c0.2,0,0.4-0.2,0.5-0.3l2.8-5.8c0,0,0,0,0,0l2.4-6.5l2.3-2.3l2.6,2.2
	c0.2,0.1,0.4,0.2,0.6,0.1l11.3-4.7c0.1,0,0.1-0.1,0.2-0.1L180.4,428.2z"/>
</svg>
