<?xml version="1.0" encoding="utf-8"?>
<!-- Generator: Adobe Illustrator 20.1.0, SVG Export Plug-In . SVG Version: 6.00 Build 0)  -->
<svg version="1.1"
	 id="cordoba" inkscape:output_extension="org.inkscape.output.svg.inkscape" inkscape:version="0.46" sodipodi:docname="departamentos_colombia_plain.svg" sodipodi:version="0.32" xmlns:cc="http://creativecommons.org/ns#" xmlns:dc="http://purl.org/dc/elements/1.1/" xmlns:inkscape="http://www.inkscape.org/namespaces/inkscape" xmlns:rdf="http://www.w3.org/1999/02/22-rdf-syntax-ns#" xmlns:sodipodi="http://sodipodi.sourceforge.net/DTD/sodipodi-0.dtd" xmlns:svg="http://www.w3.org/2000/svg"
	 xmlns="http://www.w3.org/2000/svg" xmlns:xlink="http://www.w3.org/1999/xlink" x="0px" y="0px" viewBox="0 0 311.4 362.4"
	 style="enable-background:new 0 0 311.4 362.4;" xml:space="preserve">
<path id="divi-23672" class="st0" d="M129.4,51.6l17.6,2.4l-1.6,2.2c-0.2,0.2-0.2,0.5,0,0.7l2,2.6c-0.1,0.1-0.1,0.1-0.1,0.2
	l-1.5,4.4l-4.4-1.5c-0.3-0.1-0.6,0.1-0.7,0.3l-2,5l-3.3-4.9c-0.2-0.2-0.5-0.3-0.7-0.2l-4.1,1.9l-0.9-2.6c0.3-0.1,0.5-0.4,0.4-0.7
	c-0.1-0.3-0.4-0.5-0.7-0.4l-0.1-0.2l1-2.6c0-0.1,0-0.2,0-0.3L129.4,51.6z"/>
<path id="divi-23675" class="st0" d="M128.2,51.6l0.8,6.6l-1.1,2.6c0,0.1,0,0.3,0,0.4l0.2,0.5l-4.5,1.8c-0.2,0.1-0.3,0.2-0.3,0.3
	l-1,3.3l-4.2,2.4c-0.1,0.1-0.2,0.2-0.2,0.3l-2.3,6.3l-3-1.2c-0.1,0-0.1,0-0.2,0h-5.8l-2.2-5.2c0-0.1-0.1-0.1-0.1-0.2L98,63.8
	l12.7-7.3l0.1,0L128.2,51.6z"/>
<path id="divi-23586" class="st0" d="M148.2,60.5C148.2,60.5,148.3,60.5,148.2,60.5l4.6,0.7l-2.7,2.5c-0.2,0.1-0.2,0.4-0.2,0.6
	l1.1,5l-2.9,4.5c-0.1,0.1-0.1,0.3-0.1,0.4l0,0.3l-7.5-0.9l-1-4.7l1.9-4.9l4.5,1.5c0.3,0.1,0.6-0.1,0.7-0.4L148.2,60.5z"/>
<path id="divi-23464" class="st0" d="M153.8,61.9l7.5,2.4l3.7,3.9l-0.6,0.6c-0.1,0-0.1,0.1-0.2,0.2l-0.8,0.8c0,0,0,0,0,0l-1.7,1.9
	c-0.1,0.1-0.1,0.3-0.1,0.5l-0.2,0.7c0,0.1-0.1,0.1-0.1,0.2l-1.4,4.2l-1.9-0.6c-0.1,0-0.2,0-0.3,0l-3.9,1.3l-3.9-2.5
	c0.2-0.1,0.3-0.4,0.2-0.6s-0.3-0.4-0.5-0.4l-0.2,0l-0.1-0.3l2.9-4.5c0.1-0.1,0.1-0.3,0.1-0.4l-1-4.9L153.8,61.9z"/>
<path id="divi-23417" class="st0" d="M128.5,62.8l1.1,3.1c0.1,0.1,0.2,0.3,0.3,0.3c0.1,0.1,0.3,0.1,0.5,0l4.2-2l3.3,4.8
	c0.1,0.2,0.3,0.3,0.6,0.2l1,4.8c0,0.2,0.2,0.4,0.5,0.5l8.3,1l0,0.2c0,0.2,0.1,0.3,0.2,0.4l3.8,2.5l-4.4,5.7l-0.1,0.1l-5.2,4.9
	c-0.1,0.1-0.2,0.3-0.2,0.4v1.1c-0.3-0.1-0.6,0-0.8,0.2l-3.9,5.9l-5.3-2.3c-0.1-0.1-0.3,0-0.5,0c-0.1,0.1-0.2,0.2-0.3,0.3l-1.2,3.5
	l-6.9-2.5c-0.1,0-0.1,0-0.2,0l-4.7,0.3c-0.1,0-0.2,0-0.2,0.1l-5.8,3.2l-4.7-2.6c0,0,0,0,0,0l-4.9-2.5c-0.2-0.1-0.4-0.1-0.6,0.1
	l-3.8,2.8l-5.1-4.4c0.1-0.1,0.1-0.2,0.1-0.2l3.5-1.2c0.2-0.1,0.3-0.3,0.4-0.5l0.8-6.2l6.4-0.8c0.3,0,0.5-0.2,0.5-0.5l0.6-3
	c0.1-0.3-0.1-0.6-0.4-0.7l-3.2-0.8l2.5-2.7h7.4h0l3.4,1.3c0.3,0.1,0.6,0,0.8-0.3l2.4-6.7l4.2-2.4c0.1-0.1,0.2-0.2,0.3-0.3l1-3.3
	L128.5,62.8z"/>
<path id="divi-23500" class="st0" d="M97.4,64.8l5.8,5.7l1.9,4.6h-0.6c-0.2,0-0.3,0.1-0.4,0.2l-3.3,3.6c-0.1,0.1-0.2,0.4-0.1,0.6
	c0.1,0.2,0.2,0.4,0.4,0.4l3.6,1l-0.4,2.1l-6.5,0.8c-0.3,0-0.5,0.2-0.5,0.5l-0.8,6.3l-3.8,1.3l-8.9-2c0,0,0.1-0.1,0.1-0.1
	c0.3-0.1,0.5-0.2,0.7-0.2c0.1,0,0.1,0,0.2-0.2c0,0,0.1-0.1,0.1-0.2c0,0,0.1-0.1,0.1-0.1c0,0,0-0.2,0-0.2c0,0-0.1-0.3-0.1-0.3
	c0,0-0.1-0.1-0.1-0.1c0,0-0.1-0.1-0.1-0.1c-0.1,0-0.1,0-0.1,0c-0.1,0-0.1,0-0.2,0c-0.1,0-0.2,0-0.2,0c-0.1,0-0.1,0-0.2,0
	c-0.2,0-0.4,0.1-0.6,0.2c-0.5,0.1-0.8,0.2-1.2,0.3l1.9-11.2l8.2-2.8c0.1-0.1,0.2-0.2,0.3-0.3L97.4,64.8z"/>
<path id="divi-23168" class="st0" d="M162.1,74.4l4.5,5.6l0.3,5.3c0,0.1,0,0.2,0.1,0.3l-2,2.9c-0.1,0.1-0.1,0.2-0.1,0.3l-0.2,8.6
	c-0.1,0-0.1,0.1-0.2,0.1l-4.7,4.2l-5-1.1c-0.2-0.1-0.5,0.1-0.6,0.3l-1.8,3h-3l-0.2-0.2c-0.2-0.1-0.4-0.2-0.6-0.1l0.2-9.4
	c0-0.2-0.1-0.4-0.3-0.5l-3.8-1.8l0-0.2c0-0.2-0.2-0.4-0.4-0.5c-0.2-0.1-0.5,0-0.6,0.2l-0.1,0V90l5.1-4.8c0,0,0-0.1,0.1-0.1l4.5-5.9
	h0c0.1,0.1,0.3,0.1,0.4,0l4-1.3l2.3,0.7c0.3,0.1,0.6-0.1,0.7-0.4L162.1,74.4z"/>
<path id="divi-23182" class="st0" d="M188.5,85.4l5.5,3.2l3.3,4.4l-0.2,2.8c0,0.2,0,0.3,0.1,0.4c0.1,0.1,0.2,0.2,0.4,0.2l8.6,0.6
	l3,3.2v3.3c0,0.1,0,0.1,0,0.2l1.3,4v0.1l0.5,9.4l-2.7,0.6l-1.7-2.4c0,0-0.1-0.1-0.1-0.1l-7.7-6.1c-0.2-0.1-0.5-0.2-0.7,0l-3.5,2.3
	l-11.6-9.4c-0.1-0.1-0.3-0.1-0.4-0.1l-7.7,1.4c-0.1,0-0.3,0.1-0.4,0.2l-3.1,4.1l-5.1-0.8l-1.2-2.6l0.4-4l2.8,1.3
	c0.2,0.1,0.4,0.1,0.5,0l2.9-1.6l4.5-0.3c0.3,0,0.5-0.3,0.5-0.6v-3.7l1.3-4.3l4-0.5c0.2,0,0.3-0.2,0.4-0.3l2.1-3.9L188.5,85.4z"/>
<path id="divi-23574" class="st0" d="M82.5,90.6l9.4,2.1c0,0,0,0,0,0c0,0,0.1,0.1,0.1,0.1l6.3,5.5c0.2,0.2,0.5,0.2,0.7,0l0.1,0
	l2.5,4.5l-1.8,3c0,0.1-0.1,0.2-0.1,0.3l0.2,3.6l-2.1,1.9l-3.4,0.2c-0.1,0-0.3,0.1-0.4,0.2l-3.2,3.6l-0.2-0.1
	c-0.2-0.1-0.4-0.2-0.6-0.1c-0.2,0.1-0.3,0.3-0.3,0.5s0.1,0.4,0.4,0.5l-0.5,0.6l-4.4-0.5c0,0,0,0-0.1,0h-5.9l-9.7-8c0,0,0,0,0,0
	l3.2-2.3c0.1-0.1,0.2-0.2,0.2-0.3l2.6-9.9c0.1-0.1,1.4-1.3,3.2-2.8C80.1,92.2,81.4,91.4,82.5,90.6z"/>
<path id="divi-23300" class="st0" d="M142.6,92c0,0.2,0.2,0.3,0.3,0.4l0.9,0.4l0.7,4.1l-3.1,3.3l0,0l-3,2l-3.2-0.7l-3.5-2.2l1.1-3.3
	l5.2,2.2c0.3,0.1,0.6,0,0.7-0.2L142.6,92z"/>
<path id="divi-23686" class="st0" d="M145,93.5l2.8,1.3l-0.3,9.8c0,0.2,0.1,0.3,0.2,0.4c0.1,0.1,0.3,0.2,0.4,0.2h0.9l0.5,0.4
	l-1.8,1.1l-4.4-1.8c-0.1-0.1-0.3-0.1-0.5,0c-0.1,0.1-0.3,0.2-0.3,0.3l-1.7,5.2l-4.9-2.2c-0.2-0.1-0.4-0.1-0.5,0
	c-0.2,0.1-0.3,0.3-0.3,0.4l-0.2,4.5l-4.4,0.5l-6-1.4h0l-7.4-2.2c-0.1,0-0.3,0-0.4,0l-2.2,1l-5.2-3.2c-0.2-0.1-0.4-0.1-0.6,0
	l-3.2,1.6l-4.2,0.2v-0.5c0-0.1,0-0.2-0.1-0.3l-0.2-2.6l1.9-3.2c0.1-0.2,0.1-0.4,0-0.6l-2.8-4.9l2.8-2.1l4.7,2.3l4.9,2.8
	c0.2,0.1,0.4,0.1,0.6,0l5.9-3.2l4.4-0.3l7,2.6c0,0,0,0,0,0c0,0.1,0.1,0.3,0.2,0.3l3.8,2.5c0.1,0,0.1,0.1,0.2,0.1l3.6,0.8
	c0.1,0,0.3,0,0.4-0.1l3.3-2.2c0,0,0.1-0.1,0.1-0.1l3.3-3.6c0.1-0.1,0.2-0.3,0.2-0.5L145,93.5z"/>
<path id="divi-23189" class="st0" d="M164.6,99l0,0.2c0,0,0,0.1,0,0.1l-0.5,4.9c0,0.1,0,0.2,0,0.3l1.4,3c0.1,0.2,0.2,0.3,0.4,0.3
	l5,0.7c0,0.1,0,0.2,0,0.3l1.3,3.5l-2,2.2c-0.1,0.1-0.2,0.2-0.2,0.4l-0.2,15.7c0,0.1,0,0.2,0,0.2l1.4,3.1l-3.9,2.2
	c-0.2,0.1-0.3,0.3-0.3,0.4s0.1,0.4,0.2,0.5l3.3,2.8l4.8,4l0.3,7.7H171c0,0-0.1,0-0.1,0l-5.8,0.8c0,0-0.1,0-0.1,0l-3.8,1.3h-0.1
	c0,0-0.1,0-0.1,0l-0.2-5.3l4.3-7.3c0.1-0.1,0.1-0.3,0.1-0.4l-1.1-5.5c0,0,0-0.1-0.1-0.1l-2.2-5.2c-0.1-0.1-0.2-0.3-0.3-0.3l-6.2-2
	l2.3-3.2c0.1-0.2,0.1-0.4,0.1-0.6s-0.3-0.3-0.5-0.3l-5.5-0.8c-0.1,0-0.3,0-0.4,0.1l-3.6,2.4l-1.1-2.6l0.6-1.9c0.1-0.2,0-0.4-0.1-0.5
	l-2.8-3.4l0.4-1.3l3-0.8c0.3-0.1,0.5-0.4,0.4-0.7l-1.5-6.7l1,0.4c0.2,0.1,0.3,0.1,0.5,0l2.8-1.7c0.2-0.1,0.3-0.3,0.3-0.5
	c0-0.2-0.1-0.4-0.2-0.5l-0.1-0.1h1.9c0.2,0,0.4-0.1,0.5-0.3l1.8-2.9l4.8,1c0.2,0,0.4,0,0.5-0.2L164.6,99z"/>
<path id="divi-23660" class="st0" d="M182.7,103l11.6,9.5c0.2,0.2,0.5,0.2,0.7,0l3.5-2.3l7.3,5.7l0,0.1l0.3,0.4c0,0,0,0,0,0
	l-8.6,2.8l-10.5,3.8c-0.2,0.1-0.3,0.2-0.4,0.4l-0.8,3.8c-0.1,0.3,0.1,0.6,0.4,0.7l5.3,1.6l1.9,2.8l-2.3,3.8
	c-0.1,0.1-0.1,0.2-0.1,0.4l0.5,3.8c0,0.2,0.1,0.3,0.2,0.4c0.1,0.1,0.3,0.1,0.5,0.1l2.3,13.8c-0.2,0.1-0.3,0.4-0.2,0.6l0,0.2
	l-4.6-1.1c-0.2,0-0.3,0-0.5,0.1l-2.4,1.7l-3.3-2c-0.1-0.1-0.3-0.1-0.4-0.1l-3.8,1l-2.7-3.4l-0.3-8.1c0-0.2-0.1-0.3-0.2-0.4l-5-4.1
	l-2.7-2.2l3.7-2.1c0.3-0.1,0.4-0.5,0.2-0.8l-1.6-3.5l0.3-15.2l2.1-2.4c0.1-0.2,0.2-0.4,0.1-0.6l-1.3-3.8c0.1,0,0.1-0.1,0.2-0.1
	l3.2-4.2L182.7,103z"/>
<path id="divi-23162" class="st0" d="M143.5,106.2l1.8,0.8c0,0.1,0,0.2,0,0.3l1.5,6.6l-2.8,0.7c-0.2,0.1-0.4,0.2-0.4,0.4l-0.6,1.9
	c-0.1,0.2,0,0.4,0.1,0.5l2.8,3.3l-0.3,0.9c-0.2,0-0.3,0.1-0.4,0.3c-0.1,0.2-0.1,0.4,0,0.5l0.1,0.3l0,0.1l-4.7,1
	c-0.1,0-0.3,0.1-0.4,0.3s-0.1,0.3-0.1,0.4l0.8,3.2l-1.9,1.1c-0.1-0.2-0.3-0.3-0.5-0.3h0l-1.8-2c-0.1-0.1-0.2-0.1-0.2-0.2l-5-1.6
	l-1.3-4.7c-0.1-0.2-0.3-0.4-0.5-0.4l-5.7-0.2l-7.6-2.2h-0.1l-6-4.5l-0.8-3.2l4.3,2.6c0.2,0.1,0.4,0.1,0.5,0l2.3-1l7.2,2.1
	c0,0,0,0,0,0l6.1,1.4c0.1,0,0.1,0,0.2,0l5-0.6c0.3,0,0.5-0.3,0.5-0.5l0.2-4.1l4.8,2.2c0.1,0.1,0.3,0.1,0.5,0
	c0.1-0.1,0.3-0.2,0.3-0.3L143.5,106.2z"/>
<path id="divi-23419" class="st0" d="M68.6,109.2l10.2,8.5c0.1,0.1,0.2,0.1,0.4,0.1h6h0.1l4.6,0.6c0.2,0,0.4,0,0.5-0.2l0.8-0.9
	l3.7,2.2l0.3,5l-2.4,2.6l-0.2-0.2c-0.2-0.2-0.5-0.3-0.7-0.1c-0.2,0.1-0.3,0.4-0.2,0.7H80.6c-0.1,0-0.2,0-0.2,0.1l-6.9,3.6
	c0,0,0,0,0,0l-10.9,7c0,0-0.1-0.1-0.1-0.1l-3.3-12.3c0-0.1-0.1-0.1-0.1-0.2l-5.5-7.5l5.1-3.4l0,0l4.8-2.6L68.6,109.2z"/>
<path id="divi-23001" class="st0" d="M108.8,109.2c-0.1,0.1-0.1,0.3-0.1,0.5l0.8,3.6c0,0.1,0.1,0.2,0.2,0.3l6.3,4.7
	c0,0,0.1,0.1,0.2,0.1l7.7,2.2c0.1,0,0.1,0,0.2,0l5.3,0.2l1.3,4.6c0.1,0.2,0.2,0.3,0.4,0.4l5.1,1.6l1.8,2l-2,4.7
	c-0.1,0.2-0.1,0.4,0.1,0.6l4.8,6.7l-1.5,3.8c-0.1,0.2,0,0.5,0.2,0.7l4.4,3.6c0.1,0.1,0.1,0.1,0.2,0.1l4.7,1.2l-3.9,5.4
	c-0.1,0.1-0.1,0.3-0.1,0.5c0,0.2,0.2,0.3,0.3,0.4l5.8,2.5c0,0,0.1,0,0.2,0.1l1.1,2.2c-0.2,0.1-0.3,0.3-0.3,0.5
	c0,0.2,0.1,0.4,0.3,0.5l-0.8,7.2c0,0.1,0,0.2,0,0.2l1.4,4.3l-2.9,0.4c-0.2,0-0.3,0.1-0.4,0.3l-5,8.3c-0.1,0.1-0.1,0.2-0.1,0.3
	l0.3,8.7l-3.3,1.5l1.2-5.2c0-0.2,0-0.5-0.2-0.6c-0.2-0.1-0.4-0.2-0.6,0l-3.1,1.6l-0.8-1.7c-0.1-0.3-0.4-0.4-0.7-0.3l-3.6,1.4
	c-0.2,0.1-0.3,0.2-0.3,0.4L132,194l-4.1-0.9l-1.3-4.6c-0.1-0.2-0.2-0.4-0.4-0.4l-7.4-2.2c-0.1,0-0.1,0-0.2,0l-13.9-0.3l-1.4-1
	l-0.2-0.5c-0.1-0.2-0.2-0.3-0.4-0.4c-0.2-0.1-0.4,0-0.5,0.1l-1.4-1l-2.1-5.9c-0.1-0.3-0.4-0.4-0.7-0.3l-3.4,1.1h-0.1l-7.3,0.3
	l-3.1-5.4l-0.8-11.1c0,0,0-0.1,0-0.1l-1.4-7.2c0-0.2-0.2-0.3-0.3-0.4l-4.4-1.9l0.4-1.1h7.1c0.2,0,0.4-0.2,0.5-0.4l1.8-4.6l5.4-0.2
	c0.2,0,0.4-0.1,0.5-0.3l1.9-3.8c0.1-0.2,0.1-0.4,0-0.6l-2.8-4.6l3.8-4.1c0.2-0.2,0.2-0.5,0-0.8l-2.4-3.2l2.7-2.9
	c0.1-0.1,0.1-0.3,0.1-0.4l-0.2-5.5c0-0.2-0.1-0.4-0.3-0.5l-3.8-2.3l2.9-3.3l3.3-0.2c0.1,0,0.2,0,0.3-0.1l2-1.8c0,0,0.1,0,0.1,0
	l5-0.3c0.1,0,0.2,0,0.2-0.1L108.8,109.2z"/>
<path id="divi-23678" class="st0" d="M146,123.9l1,2.4c0.1,0.2,0.2,0.3,0.4,0.3c0.2,0,0.3,0,0.5-0.1l4-2.6l4.3,0.7l-2.2,3.1
	c-0.1,0.1-0.1,0.3-0.1,0.5s0.2,0.3,0.4,0.4l6.7,2.2l2.1,4.9h0l1.1,5.3l-4.3,7.2c-0.1,0.1-0.1,0.2-0.1,0.3l0.2,5.9l-3.5,1.5
	c-0.2,0.1-0.3,0.3-0.3,0.5v2.5c-0.3,0-0.5,0.3-0.5,0.5c0,0.3,0.2,0.5,0.4,0.6h0v1.6h-2.5l-0.1-0.1c0,0-0.1-0.1-0.1-0.1c0,0,0,0,0,0
	l-1.7-3.3l-0.4,0.2l-5-2.2l4-5.5c0.1-0.2,0.1-0.4,0.1-0.5s-0.2-0.3-0.4-0.4l-5.4-1.3l-4-3.2l1.5-3.7c0.1-0.2,0.1-0.4-0.1-0.6
	l-4.8-6.6l1.7-4c0.1,0,0.3,0,0.4-0.1l2.8-1.6c0.2-0.1,0.3-0.4,0.3-0.6l-0.7-3L146,123.9z"/>
<path id="divi-23090" class="st0" d="M80.7,128.6h11.8l2.2,3l-3.8,4.1c-0.2,0.2-0.2,0.5-0.1,0.7l2.9,4.7l-1.6,3.2l-5.5,0.3
	c-0.2,0-0.4,0.2-0.5,0.4l-1.8,4.6h-7.1c-0.2,0-0.4,0.1-0.5,0.3l-0.6,1.4l-1.4-0.6c-0.2-0.1-0.4-0.1-0.5,0l-9.9-7.3l-1.3-4.2l11-7.1
	l0.1,0L80.7,128.6z"/>
<path id="divi-23570" class="st0" d="M176,152.7C176,152.7,176,152.7,176,152.7l2.8,3.5c0.1,0.2,0.4,0.2,0.6,0.2l3.9-1l3.4,2.1
	c0.2,0.1,0.5,0.1,0.7,0l2.5-1.8l4.8,1.1l0.9,5.8c0,0.1,0,0.1,0.1,0.2l2.8,5c0.1,0.2,0.4,0.3,0.6,0.3l7.6-1.1l4.8,1.4l-1.4,3.8
	c-0.1,0.1-0.1,0.3,0,0.4l1.4,4.2c0.1,0.2,0.2,0.3,0.3,0.3l4.8,1.9l-0.2,0.1c0,0-0.1,0-0.1,0.1l-11.3,9.4c0,0,0,0-0.1,0.1v0l-0.4-1
	c0-0.2-0.2-0.4-0.4-0.4c-0.2,0-0.4,0-0.6,0.2c-0.1,0.2-0.1,0.4,0,0.6l0.1,0.1l-4-1.7c-0.1-0.1-0.3-0.1-0.4,0l-4.2,1.7l-0.6-1.3
	c0-0.1,0-0.1-0.1-0.2l-0.5-1.2v-0.1l0,0l-1.1-6.8c0-0.3-0.3-0.5-0.5-0.5l-6.6-0.3h0l-13.8-5.4l-0.1,0l-7.3-5.5l0.5-6.1c0,0,0,0,0,0
	c0.2-0.1,0.3-0.4,0.3-0.6c-0.1-0.2-0.3-0.4-0.5-0.4l-7.2-0.7v-2.2l3.3-1.4l0.1,0c0,0,0.1,0,0.1,0l4.6-1.6l0.1,0l5.6-0.8h0.1h4.6
	C175.8,152.8,175.9,152.8,176,152.7z"/>
<path id="divi-23555" class="st0" d="M157.2,160.1l6.3,0.6l-0.5,6.4c0,0.2,0.1,0.4,0.2,0.5l7.7,5.8c0,0,0.1,0,0.2,0.1l14.1,5.5
	c0.1,0,0.1,0,0.2,0l6.2,0.2l1,6.4c0,0,0,0.1,0,0.1l0.2,0.5l-4-0.5c-0.1,0-0.2,0-0.2,0l-5.4,1.9l-5.2,0.3c-0.1,0-0.3,0.1-0.4,0.2
	l-4.5,4.5l-5.3,0.3c-0.1,0-0.2,0-0.2,0.1L163,195c-0.2,0.1-0.4,0.4-0.3,0.6l1.3,7.2l-1.8,2.9c-0.1,0.2-0.1,0.5,0,0.7l1.8,2.3
	l0.5,6.3l-2.9-0.2c-0.1,0-0.3,0-0.4,0.1l-4.2,3.4l-3.9-0.5c-0.1,0-0.2,0-0.2,0l-5.8,1.8l-3.5-3.2l-0.8-8.3c0-0.2-0.2-0.4-0.4-0.5
	c-0.2-0.1-0.4,0-0.6,0.1l-4.2,3.9l-5.7-2l4.3-4.1c0,0,0,0,0,0l3-3.3c0.1-0.1,0.1-0.1,0.1-0.2l1.5-4.9c0.2,0.1,0.4,0,0.6-0.1
	c0.1-0.1,0.2-0.4,0.2-0.6l-0.2-0.8l0.2-0.5l3.9-1.8c0.2-0.1,0.3-0.3,0.3-0.5l-0.3-8.9l4.7-7.9l3.3-0.5c0.2,0,0.3-0.1,0.4-0.3
	s0.1-0.3,0.1-0.5l-1.6-4.9l0.8-6.8c0.1,0.1,0.2,0.1,0.4,0.1l3-0.2h0.1c0.2,0,0.3-0.1,0.4-0.3c0.1-0.2,0.1-0.4,0-0.5c0,0,0,0,0,0
	c0-0.1,0.1-0.2,0.1-0.3V160.1z"/>
<path id="divi-23068" class="st0" d="M234.3,167.5l4.4,0.8c0,0,0,0,0,0l3,0.3c0.1,0,0.1,0,0.2,0h0l7.2,1.4l1.2,1.8
	c-0.2,0.2-0.2,0.6,0.1,0.8l5.5,5.2c0.1,0.1,0.2,0.1,0.2,0.1l3.2,0.8c0,0.1,0.1,0.1,0.2,0.2l3.9,2.9l0.5,8c0,0.2,0.1,0.3,0.2,0.4
	l3.3,2.8l-1,3.2c-0.1,0.2,0,0.3,0,0.5l-1.1,1.9c-0.1,0.2-0.1,0.5,0,0.7l-5.3,3.6c0,0-0.1,0-0.1,0.1c-0.2-0.2-0.5-0.2-0.7-0.1
	l-5.8,3.3c-0.1,0.1-0.2,0.2-0.2,0.3l-2.7,8.9l-5.4,3.1l-12.5-0.6c-0.1,0-0.1,0-0.2,0l-6.9,2.5c-0.2,0.1-0.4,0.3-0.4,0.5l-11-0.5
	c0-0.2-0.1-0.4-0.2-0.5s-0.4-0.2-0.6-0.1l-0.9,0.3v-5.9c0-0.2-0.1-0.3-0.2-0.5c-0.1-0.1-0.3-0.1-0.5-0.1l-8.3,2.4l-6.6-3.2
	c0-0.2-0.1-0.4-0.3-0.5s-0.4-0.1-0.6,0l-0.3-10.6l2.9-4.7l0,0l0-0.1l6.8-7.6l0,0l0,0l11.2-9.2l0.1,0l0,0l6.5-3.5c0,0,0.1,0,0.1-0.1
	l5.6-5l3.8,1c0.2,0,0.3,0,0.5-0.1c0.1-0.1,0.2-0.2,0.3-0.4L234.3,167.5z"/>
<path id="divi-23855" class="st0" d="M84.4,175.3l2,3.5c0.1,0.2,0.3,0.3,0.5,0.3l7.7-0.3c0.1,0,0.1,0,0.2,0l3.1-0.9l2,5.6
	c0,0.1,0.1,0.2,0.2,0.2l2.3,1.7l2.2,6.7l-1.3,4.8c0,0.1,0,0.1,0,0.2l0.8,5.7l-0.5,2.5L97,206c-0.1,0-0.3,0.1-0.3,0.2l-2.6,2.8
	l-8.6,0.5c-0.1,0-0.3,0.1-0.4,0.2l-8.3,8.2l-4,3.8l-6.6,0.8l-6.5-1.1c-0.2,0-0.5,0.1-0.6,0.3l-2.4,4.5l0.2-8.1l0.2-3.9
	c0-0.1,0-0.1,0-0.2c0,0,0,0,0-0.1v0l1.2-1.3c0.2,0.1,0.5,0,0.6-0.2c0.2-0.2,0.2-0.4,0.1-0.6l3.2-3.5c0.1-0.1,0.1-0.2,0.1-0.2
	l2.5-9.6l5.7-8.1l0.1-0.1l9.3-9.3c0,0,0,0,0,0L84.4,175.3z"/>
<path id="divi-23807" class="st0" d="M103.9,186.4l0.3,0.2c0.1,0.1,0.2,0.1,0.3,0.1l14,0.3h0.1l7,2.1l1.3,4.7
	c0.1,0.2,0.2,0.4,0.4,0.4l5,1.1c0.3,0.1,0.6-0.1,0.7-0.4l1.3-4.7l2.8-1.1l0.9,1.8c0.1,0.1,0.2,0.2,0.3,0.3c0.1,0,0.3,0,0.4,0
	l2.5-1.3l-1.1,4.8c0,0.1,0,0.2,0,0.3l0.2,0.8v0c-0.2,0.2-0.3,0.4-0.2,0.7l-1.7,5.3l-2.9,3.2l0,0l-4.5,4.2c0,0-0.1,0-0.1,0.1
	c0,0-0.1,0.1-0.1,0.1c0,0-0.1,0.1-0.1,0.1l-0.2,0.1c-0.1,0.1-0.2,0.3-0.2,0.5c0,0,0,0,0,0.1c0,0,0,0,0,0c0,0.1,0,0.1,0,0.2
	c0,0,0,0,0,0.1l-1.1,3.5c0,0.1,0,0.1,0,0.2l0.2,4.1l-3.2,2.3l-1.6-1.6c-0.2-0.2-0.6-0.2-0.8,0l-4.5,4.8l-5.8,0.3
	c-0.3,0-0.5,0.3-0.5,0.6l-0.5,11.1l-5.1,1.3c-0.2,0-0.3,0.1-0.4,0.3c-0.1,0.1-0.1,0.3-0.1,0.4l5.2,18.6v0.1l0.3,11.2
	c0,0.1,0,0.2,0.1,0.2l1.9,3.2v0l2.1,8l-5,9.5l-6.7,2.7c-0.2,0.1-0.3,0.2-0.3,0.4l-1.7,8.5c0,0.1,0,0.2,0,0.3l1.6,5.7l0,0.1l0.1,0.3
	l-40.3-1.1l-6.4-7.7l0-0.1l0,0l-3-5.2c0,0-0.1-0.1-0.1-0.1l-5.7-5.4l-1.1-7.2c0.1-0.2,0.1-0.4,0-0.6l-0.1-0.2l-0.1-0.7
	c0-0.3-0.3-0.5-0.6-0.5l-0.8-1.3l-3-8.3l0.5-7.3l0.6,0c0.2,0,0.4-0.2,0.5-0.4l1.7-4.4c0,0,0-0.1,0-0.1l1.9-13.3l5.4-6.8
	c0.1-0.1,0.1-0.1,0.1-0.2l1.7-6.5h0c0.3,0.1,0.5,0,0.7-0.3l3.4-6.2l6.2,1c0.1,0,0.1,0,0.2,0l6.9-0.8c0.1,0,0.2-0.1,0.3-0.2l4.2-3.8
	c0,0,0,0,0,0l8.1-8.1l8.6-0.5c0.2,0,0.3-0.1,0.4-0.2l2.6-2.9l6.7-0.8c0.3,0,0.5-0.2,0.5-0.5l0.5-3c0-0.1,0-0.1,0-0.2l-0.8-5.6
	l1.3-4.9c0-0.1,0-0.2,0-0.3L103.9,186.4z"/>
<path id="divi-23079" class="st0" d="M188.7,187l4.5,0.5l0.7,1.6c0.1,0.3,0.5,0.4,0.8,0.3l4.5-1.8l4.7,2l-5.9,6.7c0,0,0,0.1-0.1,0.1
	l-3,5c-0.1,0.1-0.1,0.2-0.1,0.3l0.3,11.3c0,0,0,0.1,0,0.1l-1.4,0.8c-0.1,0.1-0.2,0.2-0.2,0.3l-1.4,3.3c-0.1,0.2-0.1,0.3,0,0.5
	c0.1,0.2,0.2,0.3,0.4,0.3l-4.4,0.8c-0.2,0-0.4,0.2-0.5,0.4l-1,4.6l-2.4,0.5l-3.9-2.6l-0.1,0l-6.8-5.8c-0.1-0.1-0.3-0.2-0.5-0.1
	L169,217l-3.3-1.2c0-0.1,0-0.1,0-0.2l-0.6-7.2c0-0.1-0.1-0.2-0.1-0.3l-1.7-2.2l1.7-2.7c0.1-0.1,0.1-0.3,0.1-0.4l-1.3-7l3.9-1.7
	l5.4-0.3c0.1,0,0.3-0.1,0.4-0.2l4.5-4.5l5-0.3c0.1,0,0.1,0,0.2,0L188.7,187z"/>
<path id="divi-23466" class="st0" d="M141.8,209.5l0.7,7.3c0,0.1,0.1,0.3,0.2,0.4l3.9,3.6c0.2,0.1,0.4,0.2,0.6,0.1l5.9-1.9l4,0.5
	c0.2,0,0.3,0,0.4-0.1l4.2-3.4l2.8,0.2c0,0.2,0.2,0.4,0.4,0.5l3.9,1.4c0.1,0,0.2,0.1,0.3,0l3.6-1l6.7,5.6c0,0,0,0,0.1,0l4.1,2.8
	c0.1,0.1,0.3,0.1,0.4,0.1l3-0.5c0.2,0,0.4-0.2,0.4-0.4l3.8,3.5c0,0,0,0,0,0l4.9,4.3l0,0l0.5,0.7l-1.3,0.3c-0.2,0-0.4,0.2-0.5,0.5
	l-0.8,5.9l-4.2,5.2l-10,1.8c-0.3,0.1-2-4.2-2-4.2l-1.6-3.3c0.1-0.2,0.2,0.2,0,0l-10.4,1.5l1-3.9l5.3-2.7c0.2-0.1,0.3-0.2,0.3-0.4
	c0-0.2,0-0.3-0.1-0.5l-1.9-3c0,0-0.1-0.1-0.1-0.1l-4.9-4.4c-0.1-0.1-0.2-0.1-0.2-0.1l-7.7-1.9c-0.1,0-0.2,0-0.3,0l-4.7,1.8l-4.7-2.9
	c-0.2-0.1-0.4-0.1-0.6,0l-4.7,3c-0.2,0.1-0.2,0.3-0.2,0.5v4.6l-4.3-0.5c-0.3,0-0.6,0.2-0.6,0.5l-0.5,2.8l-3.9,3.9l-0.1,0.1l-3.2,2.2
	c-0.1,0-0.1,0.1-0.2,0.2l-3.6,5.8c-0.2,0.3-0.1,0.6,0.2,0.8l3.5,2.5l-1.5,3.4c0,0.1-0.1,0.2-0.1,0.2v10.8l-3.5,4.8
	c0,0,0,0.1-0.1,0.2l-3.8,10.9l-0.1,0.1l-5.6,9.1l-4.3,2.7c-0.2,0.1-0.3,0.4-0.2,0.6l1.1,5c0,0.2,0.2,0.3,0.3,0.4
	c0,0.1-0.1,0.1-0.1,0.2l-1,6.4l-5.2,1.2l-1.4-5.2l1.6-8.1l6.6-2.6c0.1,0,0.2-0.1,0.3-0.2l5.2-9.9c0.1-0.1,0.1-0.3,0.1-0.4l-2.2-8.3
	c0,0,0-0.1-0.1-0.1l-1.8-3.2l-0.3-11.1c0,0,0-0.1,0-0.1l-5.1-18.2l4.9-1.2c0.2-0.1,0.4-0.3,0.4-0.5l0.5-11.1l5.5-0.2
	c0.2,0,0.3-0.1,0.4-0.2l4.2-4.5l1.5,1.5c0.2,0.2,0.5,0.2,0.8,0.1l3.8-2.8c0.2-0.1,0.3-0.3,0.2-0.5l-0.3-4.3l1.1-3.4l6.2,2.2
	c0.2,0.1,0.4,0,0.6-0.1L141.8,209.5z"/>
<path id="divi-23350" class="st0" d="M195.9,213.8l7.3,3.5c0.1,0.1,0.3,0.1,0.4,0l7.8-2.2v5.6l-3.5,1.4c-0.1,0-0.2,0.1-0.3,0.2
	l-1.9,3.8c-0.2,0-0.4,0-0.5,0.2c-0.1,0.1-0.2,0.3-0.1,0.5l-2.9,3.3l-3.9,3c-0.1-0.1-0.3-0.1-0.4-0.1l-0.8-1.1c0,0-0.1-0.1-0.1-0.1
	l-5-4.4l-4.2-4l0.7-3.3l4.3-0.8c0.3-0.1,0.4-0.3,0.4-0.6c0-0.3-0.3-0.5-0.5-0.5c0.1-0.1,0.2-0.2,0.3-0.3l1.3-3.1L195.9,213.8z"/>
<path id="divi-23580" class="st0" d="M147.5,224.1l4.7,2.8c0.2,0.1,0.3,0.1,0.5,0l4.8-1.8l7.3,1.8l4.8,4.3l0,0l1.5,2.4l-4.9,2.5
	c-0.1,0.1-0.2,0.2-0.3,0.4l-1.2,4.5c0.5-1.9-0.2-0.1,0,0l0,0h-3.6l-2.8,1.5c-5.8-15,0-0.1,0,0l-1.2,0.2c0,0.1,0-0.1,0,0l-3.6,3
	c0,0.1-1.1,3.3-1,3.3l0.2,8.5l-2.5,6c0,0-3.4,1.7-3.4,1.7l-3.5,2.3l-5,4.7c-0.2,0-4.4,9.2-4.5,9.3l-0.8,6.8l2.1,5.6
	c-0.2,0-0.3,0.1-0.4,0.2l-2.8,5.5c0,0,0,0,0,0l-3.7,5.8l-7.9,0.8l-8.5-2l1-6.4c0-0.3-0.1-0.5-0.3-0.6c0.1-0.1,0.1-0.3,0-0.4l-1-4.6
	l4.1-2.6c0.1,0,0.1-0.1,0.2-0.2l5.8-9.4c0,0,0-0.1,0.1-0.1l3.8-10.9l0,0l3.5-4.9c0.1-0.1,0.1-0.2,0.1-0.3v-11l1.6-3.7
	c0.1-0.3,0-0.6-0.2-0.7l-3.4-2.4l3.2-5.2l3.2-2.1c0,0,0-0.1,0.1-0.1l4.2-4.1c0.1-0.1,0.1-0.2,0.2-0.3l0.4-2.5l4.4,0.5
	c0.2,0,0.3,0,0.5-0.1c0.1-0.1,0.2-0.3,0.2-0.4v-4.9L147.5,224.1z"/>
<path id="divi-23815" class="st0" d="M177.7,79.1C177.6,79.1,177.7,79.2,177.7,79.1l-0.1-8.7l-3.3,1.5c-0.1,0.1-0.2,0.1-0.4,0
	l-2.9-0.8h-0.1c-0.1,0-0.1,0-0.2-0.1c-0.1,0-0.1-0.1,0.4,1.1l-5.8-2.7l-2.2,3.1l4.4,5.1c0.1,0.1,0.1,0.2,0.1,0.3l0.3,6.4L177.7,79.1
	z"/>
<path id="divi-23670" class="st0" d="M167.8,86.4l10.1-5.2v0l6.2,2.8l-0.2,1.6l-2.1,3.9l-4.1,0.5c-0.2,0-0.4,0.2-0.5,0.4l-1.4,4.7
	c0,0.1,0,0.1,0,0.2v3.3l-4.2,0.2c-0.1,0-0.2,0-0.2,0.1l-2.8,1.5l-2.9-1.4l0.2-10L167.8,86.4z"/>
<polyline id="divi-23682" class="st0" points="141.2,293.3 148.9,293.1 152.9,289.1 156.3,288.9 164.6,275.3 165.7,270.1 
	166.5,264.1 174.1,261.5 177.6,252.2 178,247.3 176.1,240.9 167.8,242.1 158.8,243.3 153.8,248.1 153.8,257.4 151.9,264.4 
	144.8,268.3 139.3,273.4 135.8,281.8 135.1,289.3 136.4,293.9 "/>
</svg>
