<?xml version="1.0" encoding="utf-8"?>
<!-- Generator: Adobe Illustrator 20.1.0, SVG Export Plug-In . SVG Version: 6.00 Build 0)  -->
<svg version="1.1"
     id="cauca" inkscape:output_extension="org.inkscape.output.svg.inkscape" inkscape:version="0.46" sodipodi:docname="departamentos_colombia_plain.svg" sodipodi:version="0.32" xmlns:cc="http://creativecommons.org/ns#" xmlns:dc="http://purl.org/dc/elements/1.1/" xmlns:inkscape="http://www.inkscape.org/namespaces/inkscape" xmlns:rdf="http://www.w3.org/1999/02/22-rdf-syntax-ns#" xmlns:sodipodi="http://sodipodi.sourceforge.net/DTD/sodipodi-0.dtd" xmlns:svg="http://www.w3.org/2000/svg"
     xmlns="http://www.w3.org/2000/svg" xmlns:xlink="http://www.w3.org/1999/xlink" x="0px" y="0px" viewBox="0 0 342.8 351"
     style="enable-background:new 0 0 342.8 351;" xml:space="preserve">
  <path id="divi-19573" class="st0" d="M217,32.4l1.8,2c0.1,0.1,0.1,0.1,0.2,0.2l7.5,3.3c0,0,0,0,0.1,0l1.9,0.6l-0.2,4
				       c-0.1,0.1-0.3,0.2-0.3,0.4s0,0.3,0.1,0.5l-1.4,1.4c-0.1,0.1-0.1,0.1-0.1,0.2l-0.6,2.1c-0.1-0.1-0.3-0.1-0.4-0.1
				       c-0.2,0-0.3,0.1-0.4,0.3l-0.2-0.1c-0.1-0.1-0.3-0.2-0.5-0.2h-0.1l-4-1.1l-4-4.5c0-0.1,0-0.3-0.1-0.4l-2.2-3.2l0.2-0.2
				       c0.1-0.1,0.2-0.2,0.2-0.3l0.8-3.4L217,32.4z"/>
  <path id="divi-19455" class="st0" d="M231.7,38l6.1,1.1h0.1l8.2-0.3l5.4,3.7l2.3,3.8c0.1,0.1,0.2,0.2,0.4,0.2l6.2,0.9h0.1l4.8-0.3
				       c0.1,0,0.2,0,0.3-0.1l1.8-1.1l-2.4,6.3c-0.1,0.1-0.1,0.3,0,0.4c0.1,0.1,0.2,0.3,0.3,0.3l0.7,6.5l-6.2-3.1c-0.1,0-0.1,0-0.2,0
				       l-5.2-0.8l0.3-3.3c0-0.3-0.1-0.5-0.3-0.6l-5.3-2.3l0,0l-3.7-3.5c-0.1-0.1-0.2-0.1-0.3-0.2l-5.4-0.5l0,0c-0.1-0.1-0.3-0.1-0.4,0h-0.1
				       H239l-1.7-1.1c-0.1,0-0.1-0.1-0.2-0.1l-7.8-1.3l0.2-3.8c0.1,0,0.2,0,0.3,0L231.7,38z"/>
  <path id="divi-19418" class="st0" d="M89,39.1l5,1.3l4.9,6l0.1,0.1l3.5,7.1c0.1,0.3,0.5,0.4,0.8,0.2l5.1-2.6l5.2,2.8l4.1,6.8
				       c0.1,0.2,0.3,0.3,0.4,0.3l6.2,0.3h0.1l10,1.8l8,1.8c0.2,0,0.4,0,0.5-0.1l2.5-2.2l8.8,1.1l7.3,5.9c0.2,0.2,0.5,0.2,0.7,0v0.4l0,0
				       c-0.2,0-0.4,0.1-0.5,0.3s-0.1,0.4,0.1,0.6l3.2,4.1l-1.5,9.2l-2,2.2c-0.1,0.1-0.1,0.1-0.1,0.2l-1.1,3.8l-3.8,0.2
				       c-0.3,0-0.5,0.2-0.5,0.5l-0.3,3.9c0,0.3,0.2,0.6,0.5,0.6h0.1l-2.2,3.7L150,101l-3.3-1.4c0,0-0.1,0-0.2-0.1l-4.8-0.6
				       c-0.1,0-0.1,0-0.2,0l-4.1,0.6l-6.2-0.9c-0.1,0-0.2,0-0.3,0l-4.9,2l-6.2,0.6l-1.9-3c-0.1-0.1-0.2-0.2-0.3-0.2l-5.3-1.5
				       c-0.2,0-0.3,0-0.5,0.1c-0.1,0.1-0.2,0.2-0.3,0.4l-1.5,6.6c0,0.2,0,0.3,0.1,0.5l3.3,4.4l-0.9,1.7c-0.1-0.1-0.2-0.2-0.4-0.3
				       c-0.2,0-0.3,0-0.5,0.2l-3.5-1.5l-0.6-5.8l0,0V99c0-0.1,0-0.2-0.1-0.3l-2.7-5.1c-0.1-0.1-0.2-0.2-0.4-0.3l-3.6-0.8l0.7-2.1
				       c0-0.1,0-0.3,0-0.4l-2.1-5.4c-0.1-0.2-0.4-0.4-0.6-0.3l-5,0.9h-0.1h-6.7L85,81.9c-0.1-0.2-0.4-0.3-0.6-0.3l-9.2,1.8
				       c-0.1,0-0.1,0-0.2,0.1L70.5,86l-2.6-1.3h-0.1l-6.1-5.9l-1.2-13.6l8.1-5.1c0.1,0,0.1-0.1,0.2-0.2l9.1-13l11-0.5
				       c0.3,0,0.5-0.2,0.6-0.5c0-0.3-0.1-0.5-0.4-0.6l-9.7-3.1l0.4-0.4l1.4,0.2c0.1,0,0.2,0,0.3,0L89,39.1z"/>
  <path id="divi-19845" class="st0" d="M215.6,42.3l3.8,4.3c0.1,0.1,0.2,0.1,0.3,0.2l3.1,0.9l-2.9,1.7c-0.2,0.1-0.3,0.3-0.3,0.6
				       l0.6,4.2l-2.7,2.2c-0.2,0.1-0.3,0.4-0.2,0.6l0.7,2.4l-7.4-2.6l0.6-0.8l0,0l2.7-4.2c0-0.1,0.1-0.2,0.1-0.3v-6.1L215.6,42.3z"/>
  <path id="divi-19513" class="st0" d="M229.1,43.7l7.7,1.3l1.5,1l-5,5.8c-0.1,0.1-0.2,0.2-0.2,0.4v3.9c0,0.1,0,0.2,0.1,0.3l0.5,0.8
				       L230,57l0.7-2.3c0.1-0.2,0-0.4-0.1-0.5l-4.1-6.1l0,0l0.8-2.8L229.1,43.7z"/>
  <path id="divi-19212" class="st0" d="M239.7,46.3l5.2,0.5l3.7,3.5c0,0,0.1,0.1,0.2,0.1l5,2.2l-0.2,3.5c0,0.3,0.2,0.5,0.5,0.6
				       l5.6,0.9l0,0l6.1,3.1l-2.5,0.6c-0.2,0-0.3,0.2-0.4,0.4l-1.1,2.9h-2.9c0,0,0,0-0.1,0l-5.3,0.6h-0.1h-5.8h-0.1l-4-0.6l-5.7-2.8l-2-3.4
				       c0.1-0.2,0.1-0.4,0-0.6c-0.1-0.2-0.3-0.3-0.5-0.3h-0.1l-0.8-1.4v-3.5L239.7,46.3z"/>
  <path id="divi-19142" class="st0" d="M225.4,68.9l-2-2.6l-2.1-6.9c0,0.2-1.2-4-1.3-3.9l-1.7,1.4l0.8,2.9l0,0
				       c0.2,0.2,0.3,0.5,0.2,0.8l0,0v0.1l0,0v0.1l1.2,2.5c-0.1,0.5-0.3,1.2-0.3,1.2l-2,4.8l1.4,5.4l0,0v0.1l3.7,7.4l3.8,0.8
				       c0-0.2,0.2-0.5,0.4-0.5l0,0l4.1-5.4c0,0,0,0,0.1-0.1l3.3-3.3l0.1-0.1l0.2-0.1l0.1-0.9c0-0.2,0.1-0.4,0.3-0.5
				       c0.2-0.1,0.5-0.1,0.6,0.1c0.2,0.1,0.3,0.4,0.2,0.6v0.1l2.7-1.6l0,0l0.9-0.5l0.8-6l-4.1-2.1c-0.1,0-0.2-0.1-0.2-0.2l-2.3-3.9
				       l-5.6-0.2v-0.2c-0.2-0.1-0.2,3.4-0.2,3.2l-0.3,3.8l-1.4,3.7H225.4z"/>
  <path id="divi-19698" class="st0" d="M209.8,57.6l8.4,3l0.1,0.4c0,0,0,0.1,0.1,0.1l1.2,2.5c-0.2,0.1-0.3,0.2-0.3,0.3l-2.1,5.1
				       c0,0.1-0.1,0.2,0,0.3l1.5,5.7v0.1l3.9,7.8c0.1,0.2,0.2,0.3,0.4,0.3l3.8,0.8l-1.7,2.4l-4.6,2c0,0,0,0-0.1,0l-5.2,3.2l-3.6,0.6l-6.4-4
				       c-0.2-0.1-0.4-0.1-0.6,0l-3.5,1.8H201l-4.2,1l-0.3-0.6c0.2-0.1,0.3-0.4,0.3-0.6c-0.1-0.2-0.3-0.4-0.5-0.4l3.9-2.8l0.1-0.1l2.4-3.6
				       c0.1-0.1,0.1-0.3,0.1-0.4c0-0.2-0.1-0.3-0.3-0.4l-3.3-1.9l0.6-6.7v-0.1l1.2-6.7l4.1-4.9c0.2-0.2,0.2-0.4,0.1-0.6l3.6-1.9
				       c0.1,0,0.2-0.1,0.2-0.2L209.8,57.6z"/>
  <path id="divi-19110" class="st0" d="M195,58.3l0.4,1.8l0.6,2.1c0.1,0.2,0.2,0.3,0.4,0.4c0.2,0.1,0.4,0,0.5-0.1l2.9-2.9l2.7-1
				       l1.5,2.3l-4.1,5c-0.1,0.1-0.1,0.2-0.1,0.2l-1.2,6.8c0,0,0,0,0,0.1l-0.6,7.2c0,0.2,0.1,0.4,0.3,0.5l3,1.8l-2,3l-4.4,3.2
				       c-0.2,0.1-0.2,0.3-0.2,0.5h-1.2l-1.6-2.2l-0.1-0.1l-0.1-0.1c0-0.2,0-0.4-0.2-0.5c-0.2-0.1-0.4-0.2-0.5-0.1l-2.5-2l0.8-3.5
				       c0-0.1,0-0.3-0.1-0.4c-0.1-0.1-0.2-0.2-0.4-0.3l-2.6-0.5l1.5-3.8c0-0.1,0-0.1,0-0.2l0.6-5.4c0-0.2-0.1-0.4-0.2-0.5l-3.2-2.7
				       c-0.1-0.1-0.3-0.2-0.5-0.1l-4.2,0.9c-0.1,0-0.2,0-0.2,0.1l-3,2l-0.8-2c-0.1-0.1-0.2-0.2-0.3-0.3l-3.1-1.3l2.5-1.4l5,1.2
				       c0.1,0,0.3,0,0.4-0.1l4.5-2.1c0,0,0.1,0,0.1-0.1l6.1-4.1h0.1h0.1L195,58.3z"/>
  <path id="divi-19821" class="st0" d="M267.3,61.4l1.5,3.6l-1.2,2.1l-2.6,4.7l-0.1,0.1l-5.3,5.5c-0.2,0.2-0.2,0.4-0.1,0.6l1.9,4.9
				       l-7.4,4.8l-7,4.2c-0.1-0.1-0.3-0.2-0.5-0.1c-0.2,0.1-0.3,0.2-0.4,0.4l-4.6,0.7l-3.9-4.7l-2-5.5l1-8.8l3.5-2l0,0l1.2-0.6
				       c0.2-0.1,0.3-0.2,0.3-0.4l0.8-5.9l0.8,0.4c0.1,0,0.1,0,0.2,0l4.2,0.6c0,0,0,0,0.1,0h6c0,0,0,0,0.1,0l5.3-0.6l0,0h3.3
				       c0.3,0,0.5-0.2,0.6-0.4l1.1-3L267.3,61.4L267.3,61.4z"/>
  <path id="divi-19517" class="st0" d="M269.3,66.3l0.9,2.2c0,0.1,0.1,0.1,0.1,0.2l6.6,6.3c0,0,0.1,0.1,0.2,0.1l1.9,0.8l0.8,4.8
				       c0,0.1,0,0.1,0,0.2l5.3,11.2l0.3,3.5c0,0.2,0.1,0.3,0.2,0.4l-1.9,3.1c-0.1,0.1-0.1,0.2-0.1,0.3l0.3,5.4c0,0.1,0,0.2,0.1,0.2l4.2,8.6
				       c0,0.1,0.1,0.1,0.2,0.2c-0.2,0.1-0.2,0.4-0.2,0.6l0.9,4.2c0,0.1,0.1,0.2,0.1,0.2l3.8,4.4l3.5,6.2l2.4,6.6l0,0l1.5,5v0.1l-3.9,1.5
				       l-0.2-0.3c-0.2-0.3-0.5-0.3-0.8-0.2c-0.3,0.2-0.3,0.5-0.2,0.8v0.1l-1.4,0.5l-3.3-0.5l-4-3.8c0,0,0,0-0.1-0.1l-6.1-4.3l-1.4-4.9
				       c0-0.1-0.1-0.2-0.2-0.3l-6.2-4.4l-2.5-4.2l0.8-6.1c0-0.3-0.1-0.5-0.4-0.6l-5.1-1.8c-0.2-0.1-0.4,0-0.6,0.1l-4.2,3.7l-4.5-0.8
				       c-0.2,0-0.3,0-0.5,0.1l-4,3.3c-0.1-0.1-0.1-0.1-0.2-0.2l-5.6-1.8l-2.9-2.9l1.6-3.4l0.1-0.1l0,0l2.9-3.8c0.1-0.1,0.1-0.1,0.1-0.2
				       l0.8-3.6l4.5-2c0.2-0.1,0.4-0.4,0.3-0.6c0-0.3-0.3-0.5-0.5-0.5l-6.4-0.2l1.9-1.7c0.2-0.1,0.2-0.4,0.2-0.6l-1.2-4.2l7.2-4.3l0,0
				       l7.7-5.1c0.2-0.1,0.3-0.4,0.2-0.7l-1.9-5l5.1-5.4l0.1-0.1l2.7-4.8L269.3,66.3z"/>
  <path id="divi-19780" class="st0" d="M172,67l3.3,1.4l1.1,2.5c0.1,0.2,0.2,0.3,0.4,0.3s0.3,0,0.5-0.1l3.5-2.3l3.8-0.8l2.9,2.3
				       l-0.6,5.1l-1.8,4.3c-0.1,0.2-0.1,0.3,0,0.5s0.2,0.3,0.4,0.3l2.7,0.5l-0.8,3.3c0,0.2,0,0.4,0.2,0.6l2.9,2.4l-0.1,0.2l0,0l-0.8,3.7
				       l-1.6,1.4l-5.1,4.2c-0.1,0.1-0.2,0.2-0.2,0.4l-3.2-0.2l-6.1-2.3l-3.6-3.1l-0.2-3.1l2.5-2.5c0.1-0.1,0.1-0.2,0.2-0.3l0.6-6
				       c0-0.2-0.1-0.4-0.3-0.6l-3.5-2l-2.6-2.3l0.1-0.7c0-0.3-0.1-0.5-0.4-0.6s-0.5,0-0.7,0.2l-2.4-3c0.3-0.1,0.5-0.3,0.5-0.6v-0.4l3,1.8
				       c0,0,0.1,0,0.1,0.1l2.4,0.9c0.2,0.1,0.3,0,0.5,0c0.1-0.1,0.2-0.2,0.3-0.4l0.6-2.8L172,67z"/>
  <path id="divi-19364" class="st0" d="M235.3,75l-0.9,7.8c0,0.1,0,0.2,0,0.2l2.1,5.7c0,0.1,0.1,0.1,0.1,0.2l4.2,5.1
				       c0.1,0.2,0.3,0.2,0.5,0.2l5-0.8l1.2,3.9l-2.4,2.2c-0.1,0.1-0.1,0.1-0.1,0.2l-0.8,1.8h-8c-0.1,0-0.1,0-0.2,0l-4.8,1.4l-1.8-1.6
				       l0.3-0.4c0.1-0.2,0.1-0.4,0.1-0.6c-0.1-0.2-0.2-0.3-0.4-0.3l0.2-2.7c0-0.1,0-0.1,0-0.2l-1.4-4.6l2-7c0.1-0.2,0-0.4-0.1-0.5l-1.3-1.8
				       L229,83c0.1-0.1,0.1-0.3,0.1-0.4l3.7-4.9l0.1-0.1L235.3,75z"/>
  <path id="divi-19473" class="st0" d="M166.1,76.1l2.1,1.9c0,0,0.1,0,0.1,0.1l3.2,1.9l-0.5,5.4l-2.5,2.5c-0.1,0.1-0.2,0.3-0.2,0.4
				       l0.3,3.6c0,0.1,0.1,0.3,0.2,0.4l3.9,3.3c0.1,0,0.1,0.1,0.2,0.1l6.2,2.4c0,0,0.1,0,0.2,0.1l3.3,0.2v4.3c0,0.1,0,0.2,0.1,0.3l0.1,0.2
				       l-4.3,3.8l-5.9,2l-4.7-3.8l-0.6-5.1c0-0.1-0.1-0.2-0.1-0.3l-3.3-3.6c-0.1-0.1-0.2-0.2-0.4-0.2l-5.4-0.7c0-0.2-0.2-0.4-0.5-0.5
				       c-0.2,0-0.5,0.1-0.6,0.3v0.1h-0.1l0.2-2.8l3.7-0.3c0.2,0,0.4-0.2,0.5-0.4l1.2-4l2-2.3c0.1-0.1,0.1-0.2,0.1-0.3L166.1,76.1z"/>
  <path id="divi-19809" class="st0" d="M61.9,80.4l5.6,5.3l0.1,0.1l3,1.5c0.2,0.1,0.4,0.1,0.6,0l4.7-2.6l8.8-1.7l1.9,3.2
				       c0.1,0.2,0.3,0.3,0.5,0.3h7.2h0.1l4.6-0.8l1.9,4.7l-0.8,2.5c-0.1,0.2,0,0.3,0,0.5c0.1,0.1,0.2,0.2,0.4,0.3l3.9,0.8l2.5,4.7v4
				       c0,0,0,0,0,0.1l0.6,6.2c0,0.2,0.2,0.4,0.4,0.5l4.2,1.8l0.5,3.2l-4.9,7c0,0.1-0.1,0.1-0.1,0.2l-1.5,8.6v0.1l-1.7,5.2
				       c-0.2,0-0.3,0-0.5,0.1c-0.1,0.1-0.2,0.2-0.2,0.4l-0.9,9.5l0,0l-1,3.1l-7.5-0.6l-2.9-8.3c0-0.1-0.1-0.2-0.2-0.2l-14.6-12.5l0,0
				       l-2.2-2.2l-0.3-3.3c0-0.2-0.2-0.4-0.3-0.5l-10.7-4.8c0,0,0,0-0.1,0l-10.3-2.9h-0.1l-5.2-3.2l-1.7-2.3l2.7-0.7c0.1,0,0.2-0.1,0.3-0.2
				       l10.4-14.8c0-0.1,0.1-0.1,0.1-0.2L61.9,80.4z"/>
  <path id="divi-19137" class="st0" d="M228,84.1l0.9,1.3l-2,6.9c0,0.1,0,0.2,0,0.3l1.5,4.6l-0.3,3.9l-4.2,6l0,0l-4.1,2.8l-1.6-4.3
				       c-0.1-0.2-0.3-0.4-0.5-0.4l-5.1-0.3c-0.2,0-0.5,0.1-0.6,0.4l-1.5,3.9c-0.1,0.2,0,0.4,0.1,0.5l0.2,0.3l-1-0.7c0-0.2-0.1-0.3-0.2-0.4
				       c-0.1-0.1-0.3-0.1-0.5-0.1l-0.6-0.4l-4.4-9.7l0,0l-2.4-4.2c0-0.1-0.1-0.1-0.2-0.2l-3.6-2.6l3.4-0.8h0.1l3.3-1.6l6.3,4
				       c0.1,0.1,0.3,0.1,0.4,0.1l3.9-0.6c0.1,0,0.1-0.1,0.2-0.1l5.3-3.2l4.8-2.1c0.1,0,0.2-0.1,0.2-0.2L228,84.1z"/>
  <path id="divi-19548" class="st0" d="M191.4,88.2l1.5,1.9c0.1,0.1,0.3,0.2,0.4,0.2h2.1l0.7,1.5c0.1,0.2,0.4,0.4,0.6,0.3l1.4,1
				       l-1.2,5.8c0,0.1,0,0.3,0.1,0.4l3.2,5.8v3.2l-7.1-0.3l0,0l-6.8-1.2l-2.2-3.9c0,0,0-0.1-0.1-0.1l-0.2-0.4v-4.1h0.3
				       c0.3,0,0.6-0.2,0.6-0.5s-0.2-0.6-0.5-0.6l4.5-3.8l1.8-1.5c0.1-0.1,0.2-0.2,0.2-0.3L191.4,88.2z"/>
  <path id="divi-19130" class="st0" d="M199,93.8l1.8,1.3l2.3,4v0.1l4.4,9.8c0,0.1,0.1,0.2,0.2,0.2l1,0.7l0.2,3.9
				       c0,0.1,0.1,0.2,0.2,0.3l3.6,4.1l-2.2,3.2c-0.1,0.1-0.1,0.2-0.1,0.3l0.2,3.6H207c-0.2,0-0.3,0.1-0.4,0.2l-2.5,3.3l-8.6-0.3h-0.1
				       l-4.1-0.6l-10.7-1.5l-6.1-1.2l-4.9-3.4l-4.9-5.2l-0.8-7.1l2.6-5.3l0.1,0.8c0,0.1,0.1,0.3,0.2,0.4l5.1,4.2c0.2,0.1,0.4,0.2,0.6,0.1
				       l6.2-2.1c0.1,0,0.1-0.1,0.2-0.1l4.3-3.8l2,3.6c0.1,0.2,0.2,0.3,0.4,0.3l7.2,1.2c0,0,0,0,0.1,0l7.8,0.3c0.2,0,0.3-0.1,0.4-0.2
				       c0.1-0.1,0.2-0.3,0.2-0.4v-3.9c0-0.1,0-0.2-0.1-0.2l-3.2-5.8L199,93.8z"/>
  <path id="divi-19256" class="st0" d="M157.6,96.1l-2.5,4.3c-0.1,0.1-0.2,0.2-0.3,0.2l-4.5,1.8c-0.1,0.1-0.3,0.1-0.4,0l-3.4-1.4
				       l-4.7-0.6l-4.1,0.6c-0.1,0-0.1,0-0.2,0l-6.1-0.9l-4.9,2c-0.1,0-0.1,0-0.2,0l-6.5,0.6c-0.2,0-0.4-0.1-0.6-0.2l-1.9-3.1l-4.6-1.3
				       l-1.3,5.7l3.4,4.5c0.1,0.2,0.1,0.4,0,0.6l-1.5,2.7c-0.1,0.1-0.2,0.2-0.3,0.3l0.4,2.9c0,0.1,0,0.3-0.1,0.4l-5,7.1l-1.5,8.5
				       c0,0,0,0,0,0.1l-1.7,5.2l2.5-2.5c0.2-0.2,0.5-0.2,0.7-0.1l5.4,3l0.1,0.1l5.2,5.8l4.8,0.3c0.2,0,0.3,0.1,0.4,0.2l3,4.8
				       c0.1,0.1,0.1,0.2,0.1,0.4l-0.6,4.2l2,3.4c0.1,0.1,0.1,0.3,0.1,0.4l-0.4,1.9l3.8-1.3c0.1,0,0.3,0,0.4,0l2.2,1.1l8.2,0.6
				       c0.2,0,0.4,0.1,0.5,0.3l2.1,3.8c0.1,0.2,0.1,0.4,0,0.5l-1.7,3.3l1,1.9c0,0,0.2,0.4,0.3,0.7c0.3,0.6,0.7,1.3,0.7,1.3l3.7-0.6l3.8-3.4
				       c-0.1-0.2,0-0.5,0.2-0.7c0.2-0.2,0.5-0.2,0.7,0l0.2-0.2c0.2-0.1,0.4-0.2,0.6-0.1l5.6,2.3h0.1l5.2,1.1l0.8-2.5
				       c0.1-0.2,0.2-0.3,0.3-0.3l4.7-2.2l-0.2-3.2c0-0.3,0.2-0.6,0.5-0.6l4.7-0.3l-0.6-0.9l-1.4-2.3l-2.7-1.9l-10.4-1.5l0.1-0.1
				       c0-0.2,0.1-0.3,0.2-0.4l3.6-2.4c0.1-0.1,0.2-0.1,0.3-0.1l7.5-0.3l4.5-0.8l2.2-2.7l0.8-7c0,0,0-0.1,0.1-0.1l-4.7-5.1
				       c-0.1-0.1-0.1-0.2-0.2-0.3l-1.5-7.2c0,0,0,0,0-0.1l-0.4-0.1c-0.1,0-0.2,0-0.2-0.1l-5.1-3.6c0,0-0.1,0-0.1-0.1l-5.1-5.4
				       c-0.1-0.1-0.1-0.2-0.1-0.3l-0.9-7.4c0-0.1,0-0.2,0.1-0.3l3.3-6.6c0-0.1,0.1-0.2,0.2-0.3l-0.3-2.5l-3-3.3L157.6,96.1z"/>
  <path id="divi-19743" class="st0" d="M245.6,100.7L245.6,100.7l4.7,0.2l-2.5,1.1c-0.2,0.1-0.3,0.2-0.3,0.4l-0.8,3.8l-2.9,3.8
				       c0,0,0,0.1-0.1,0.1l-1.8,3.9c-0.1,0.2-0.1,0.5,0.1,0.7l3.3,3.3c0.1,0.1,0.1,0.1,0.2,0.1l5.2,1.6l-0.1,0.2l-0.2,0.2
				       c-0.2,0.2-0.3,0.5-0.1,0.8l-0.3,1l-4.8,2c-0.2,0.1-0.3,0.3-0.3,0.5l-0.2,3.5l-1.4-0.3c0,0,0,0-0.1,0c-0.1-0.1-0.3-0.2-0.5-0.1l0,0
				       l0,0c-0.1,0-0.1,0-0.2,0l-6.3,0.6c-0.1,0-0.1,0-0.2,0.1l-5.9,2.7l0,0l-3.6,1.4l-7.3-4.8l-0.3-3.3c0-0.3-0.2-0.5-0.4-0.5l-6.3-1.2
				       c-0.1,0-0.3,0-0.4,0.1v-0.2l2.3-3.4c0.2-0.2,0.1-0.5-0.1-0.7l-3.7-4.3l-0.2-2.8l3.2,2.3c0.2,0.1,0.5,0.1,0.7-0.1
				       c0.2-0.2,0.2-0.5,0.1-0.7l-2.2-3l1.2-3.2l4.3,0.2l1.7,4.7c0.1,0.2,0.2,0.3,0.4,0.4c0.2,0.1,0.4,0,0.5-0.1l4.8-3.3
				       c0.1,0,0.1-0.1,0.2-0.1l4.1-5.8l1.9,1.7c0.2,0.1,0.3,0.2,0.5,0.1l4.9-1.4h-0.2h8.3c0.2,0,0.4-0.2,0.5-0.4L245.6,100.7z"/>
  <path id="divi-19318" class="st0" d="M44.2,108.4l2.1,2.8c0,0.1,0.1,0.1,0.2,0.2l5.4,3.3c0,0,0.1,0,0.1,0.1l10.3,2.9h0.1l10.3,4.6
				       l0.2,3.2c0,0.1,0.1,0.2,0.2,0.3l2.4,2.4l0,0l14.4,12.4l3,8.5c0.1,0.2,0.3,0.4,0.5,0.4l7.7,0.6l-0.4,1.3v0.1l-1.5,11.3l-1,8.1
				       l-7.2-1.4c-0.1,0-0.2,0-0.3,0l-7.3,2.9h-0.1l-14.2,2l-2.6-2c0-0.1,0-0.2,0-0.2l-0.3-1.1V171c-0.1-0.3-0.3-0.4-0.6-0.4
				       s-0.5,0.3-0.5,0.5v0.2v0.1l-2.1-1.6c0,0-0.1,0-0.1-0.1l-8.7-4.6l-1.4-4.8c0-0.1-0.1-0.2-0.1-0.2l-7.7-9.5l-22.6-28.2l0,0v-0.1
				       l-5-10.1l7.9,4.5c0.1,0.1,0.2,0.1,0.3,0.1l10.8-0.2c0.2,0,0.3-0.1,0.4-0.2l6.7-8H44.2z"/>
  <path id="divi-19824" class="st0" d="M236.4,141.4c0-0.1,6.1-1.3,6.1-1.3l4.7-3.9l-0.8-3.1l-3.9-4.7l-6.2,0.6h-0.1l-5.9,2.6
				       l-3.9,1.5c-0.1,0-0.3,0-0.5-0.1l-7.7-5.1c-0.2-0.1-0.3-0.2-0.3-0.4l-0.2-3.1l-5.9-1.1c0,0,0.1,0.1,0.1,0.1s0,0-0.1-0.1l0.7,2.7
				       c0.1,0.1,0,0.3-0.1,0.4c-0.1,0.1-0.2,0.2-0.4,0.2h-3.9l-2.5,3.3c-0.1,0.1-0.3,0.2-0.5,0.2h-0.2l2.3,2.5l6.8,4.5l5,3.8l7,2.1
				       L236.4,141.4z"/>
  <path id="divi-19001" class="st0" d="M176,126.9l4.6,0.9l0,0l10.7,1.5l4.2,0.6c0,0,0,0,0.1,0l7.2,0.2c0,0.1,0.1,0.1,0.1,0.2l3,3.2
				       l0.1,0.1l6.8,4.5l0,0l5,3.9l0,0l-1.4,3.2l-2.8-1.5c-0.1-0.1-0.3-0.1-0.4-0.1l-3,0.9c-0.2,0.1-0.4,0.2-0.4,0.5l-0.9,8.3l-2.7,5.6
				       c-0.1,0-0.1,0.1-0.2,0.1l-1.1-1.6l-0.6-4.3l-0.6-4.8c0-0.2-0.2-0.4-0.4-0.5l-7.6-1.9l0.4-0.4c0.2-0.1,0.2-0.3,0.2-0.6
				       c0-0.2-0.2-0.4-0.4-0.4c-0.2-0.1-0.4,0-0.6,0.1l-0.1,0.4l-0.5-1.6c-0.1-0.3-0.3-0.4-0.6-0.4l-6,0.6l-4.2-3.1l-0.1-0.1l-6.4-7
				       L176,126.9z"/>
  <path id="divi-19050" class="st0" d="M108.2,134.8l4.9,2.7l5.3,5.9c0.1,0.1,0.2,0.2,0.4,0.2l4.8,0.2l2.7,4.4l-0.6,4.2
				       c0,0.1,0,0.3,0.1,0.4l2,3.3l-0.6,2.5c0,0.1,0,0.2,0,0.3l-2.8,2.3c-0.1,0.1-0.2,0.2-0.2,0.3l-1.5,7.7l0,0l-0.6,3.9v0.1l-3.6,4.4h-8.7
				       c-0.1,0-0.2,0-0.2,0.1l-8.1,4.4l0.8-3.2c0-0.1,0-0.3,0-0.4l-3.2-6.7l1.2-9l1.5-11.2l1.8-5.7v-0.1l0.7-7.4c0,0,0,0,0.1,0L108.2,134.8
				       z"/>
  <path id="divi-19807" class="st0" d="M182.1,140.4l0.9,1l0.1,0.1l4.5,3.3c0.1,0.1,0.3,0.1,0.4,0.1l5.8-0.6l0.5,1.6l-2.6,2.4
				       c-0.1,0.1-0.2,0.2-0.2,0.3l-0.9,6.2l0,0l-0.5,4.9l-5.2,0.3c-0.2,0-0.3,0.1-0.4,0.2l-1,1l-4.5-0.5l-1.7-2.5l-1.5-2.4
				       c0-0.1-0.1-0.1-0.2-0.2l-3-2.1c-0.1-0.1-0.2-0.1-0.3-0.1l-8.2-0.8l2.1-1.4l7.3-0.3h0.1l4.8-0.9c0.1,0,0.3-0.1,0.3-0.2l2.4-3
				       c0.1-0.1,0.1-0.2,0.1-0.3L182.1,140.4z"/>
  <path id="divi-19760" class="st0" d="M194.9,146.9l8,2l0.5,4.4l0.6,4.5c0,0.1,0,0.2,0.1,0.2l1.4,2.1l-2.6,3.8
				       c-0.1,0.2-0.1,0.4,0,0.6l1.7,4l-1.4,4.9l-0.9,2.7c-0.1,0.2,0,0.4,0.1,0.5l1.7,2.3l-5.9,2.2c-0.1,0-0.2,0.1-0.3,0.2l-2.1,3.9
				       c-0.1,0.1-0.1,0.3-0.1,0.5l2.1,6l0,0l1.2,3l-1.4-0.5l-5.7-2.1l-4.6-1.9l0.5-4.6c0-0.1,0-0.3-0.1-0.4l-2.1-2.8l5.6-1
				       c0.2,0,0.4-0.2,0.5-0.5l1.1-5.7l0.6-0.2c0.2,0,0.4-0.2,0.5-0.4c0.1-0.2,0-0.5-0.2-0.6c-0.2-0.2-0.4-0.2-0.6-0.1l-0.3,0.1l-2-5.1
				       c0-0.1-0.1-0.1-0.1-0.2l-3-3c0,0,0,0-0.1-0.1l-3.9-2.9l0.3-0.3l0,0l0,0l0.1-0.1l0,0c0,0,0-0.1,0.1-0.1l0.9-0.9l5.5-0.3
				       c0.3,0,0.5-0.2,0.5-0.5l0.6-5.3l0.8-6L194.9,146.9z"/>
  <path id="divi-19532" class="st0" d="M132.5,158l2.2,1.1c0.1,0,0.1,0.1,0.2,0.1l8,0.6l1.8,3.3l-1.7,3.3c-0.1,0.2-0.1,0.4,0,0.5
				       l1.8,3.2L144,171c-0.2,0.2-0.2,0.4-0.1,0.7c0.1,0.2,0.4,0.3,0.6,0.3l5.7-0.9c0.1,0,0.2-0.1,0.3-0.2l3.9-3.5l3.5,4.8l0.7,4.2l-2,3.5
				       l-5.7,3.2h-0.1c0,0,0,0-0.1,0h-0.1l0,0l-0.1,0.1l0,0l0,0c0,0,0,0,0,0.1l0,0l0,0l0,0v0.1c0,0,0,0,0,0.1l-1.1,3.6l-6.4,7.2l-4.6,1.7
				       c-0.2,0.1-0.3,0.2-0.4,0.4l-0.5,3.2l-4.8,1.7l0,0l-5.2,2.3l-5.5-2.1c0.3,0,0.5-0.2,0.5-0.5s-0.2-0.5-0.4-0.6l-0.3-0.1l0.6-1.1l0,0
				       l4-5.7l5.6,0.3c0.2,0,0.4-0.1,0.5-0.3l2.1-4.5c0-0.1,0.1-0.2,0.1-0.2l-0.3-6.3c0-0.3-0.2-0.5-0.5-0.5l-5.4-0.6l-2.1-2.4l-0.6-5.2
				       c0-0.2-0.2-0.4-0.4-0.5L124,173l0.2-0.2c0.2-0.2,0.2-0.4,0.1-0.7c-0.1-0.2-0.4-0.3-0.6-0.3l0.4-2.3l1.4-7.5l3-2.5l0.2,0.1
				       c0.2,0.1,0.4,0,0.5-0.1c0.2-0.1,0.2-0.3,0.2-0.5L132.5,158z"/>
  <path id="divi-19622" class="st0" d="M178.6,160.8l0.3,0.6c0.1,0.1,0.2,0.2,0.4,0.2l3.8,0.9l-0.1,0.1c-0.1,0.1-0.2,0.3-0.3,0.5
				       c0,0.2,0.1,0.3,0.2,0.4l4,3.7l0.1,0l2.5,3.1l1.4,5l-3.3,0.4l-2.8-1.7l0,0l-6.1-4.3c-0.1-0.1-0.2-0.1-0.3-0.1l-8,0l-3.4-1.4l1.2-2.7
				       l5-1.7c0.2-0.1,0.3-0.3,0.4-0.6l0.1-3L178.6,160.8z"/>
  <path id="divi-19392" class="st0" d="M155.3,166.7l5.3,2.2h0.1l5.2,1.1c-0.1,0.3,0.1,0.6,0.4,0.7l4.2,1.2c0.1,0,0.1,0,0.2,0l7.9-0.8
				       l6.4,3.5l0,0l3.3,1.5c0.1,0.1,0.3,0.1,0.4,0l3-0.8l-0.9,4.8l-5.9,1.1l-2.8-2.5c-0.1-0.1-0.2-0.1-0.3-0.1l-11-1.8c-0.1,0-0.2,0-0.2,0
				       l-5.2,1.5l-3-0.8v-0.1c0-0.3-0.2-0.5-0.5-0.6c-0.3,0-0.5,0.1-0.6,0.4l-1.3-0.3v-0.2l0.6-1.1c0.1-0.3,0.1-0.6-0.2-0.8
				       c-0.2-0.2-0.6-0.1-0.8,0.1l-0.5-3c0-0.1,0-0.2-0.1-0.2L155.3,166.7z"/>
  <path id="divi-19075" class="st0" d="M123,174.1l1.5,0.4l0.6,5c0,0.1,0.1,0.2,0.2,0.3l2.4,2.7c0.1,0.1,0.2,0.2,0.4,0.2l5.2,0.5
				       l0.2,5.7l-1.9,3.9l-5.6-0.2c-0.2,0-0.4,0.1-0.5,0.2l-4.2,6c0,0,0,0,0,0.1l-0.8,1.3l-3-1l-7-5l0,0l-7-4.4l-2.7-5.6c0,0,0.1,0,0.1-0.1
				       l9.1-5h8.8c0.2,0,0.4-0.1,0.5-0.2L123,174.1z"/>
  <path id="divi-19785" class="st0" d="M159,177.8C159,177.8,159.1,177.8,159,177.8l2,0.6l-0.2,5.2l-0.6,6.8c0,0.1,0,0.1,0,0.2
				       l1.2,5.7c0,0.1,0.1,0.2,0.2,0.3l0.8,0.8l-0.5,0.6H160l-4-2.6c0,0-0.1,0-0.2-0.1l-3.6-0.9l0,0l-2.4-0.8l0.7-2l3.1-2.9l0.1-0.1
				       l2.1-3.3c0.1-0.1,0.1-0.3,0.1-0.5c-0.1-0.2-0.2-0.3-0.3-0.4l-3.2-1.1l4.8-2.6c0.1-0.1,0.2-0.1,0.2-0.2L159,177.8z"/>
  <path id="divi-19397" class="st0" d="M170.6,177.9l10.7,1.8l2.9,2.6l2.4,3.2l-0.6,4.8c0,0.3,0.1,0.5,0.4,0.6l5.1,2.1l5.7,2.1l0,0
				       l2.3,0.8l0.5,1.3l-0.1,2.2l-2.5-0.4c-0.1,0-0.2,0-0.3,0l-4.3,1.7l0,0l-5,0.3h-0.1l-5-0.3c-0.2,0-0.3,0.1-0.5,0.2l-3,3.3l-5.4-1.3
				       l-5.6-6.1c-0.1-0.1-0.3-0.2-0.4-0.2h-4.5l-0.9-0.9l-1.2-5.3l0,0l0.6-6.8l0,0l0.2-5l2.9,0.7c0.1,0,0.2,0,0.3,0L170.6,177.9z"/>
  <path id="divi-19100" class="st0" d="M151.4,184.3l3.2,1.1l-1.6,2.5l0,0l-3.2,2.9c-0.1,0.1-0.1,0.2-0.2,0.2l-0.9,2.7
				       c-0.1,0.3,0.1,0.6,0.4,0.7l3,0.9l0,0l3.5,0.9l4.1,2.6c0.1,0.1,0.2,0.1,0.3,0.1h1.1l-6.6,8c-0.2,0.2-0.2,0.6,0.1,0.8l4.6,4v4.2
				       c0,0.3,0.2,0.5,0.4,0.6l2.5,0.6l2.7,7.4c0,0,0,0,0,0.1l4.2,8.1l0,0l1.1,1.8l-4.4,1.5c-0.1,0-0.2,0.1-0.3,0.2l-2.9,3.5l-0.5-0.3
				       c-0.3-0.2-0.6-0.1-0.8,0.2c-0.2,0.3-0.1,0.6,0.2,0.8l0.4,0.3l-0.2,0.2l-5.5-3.8l0,0l-7.1-5.9c-0.1-0.1-0.3-0.1-0.4-0.1l-7,1.2
				       l-0.3-1.8v-2.6l3.6-2.6c0.2-0.2,0.3-0.4,0.2-0.7l-1.2-3v-0.1l-1.5-2.4c-0.1-0.2-0.3-0.3-0.5-0.3s-0.4,0.1-0.5,0.2l-1.3,1.6l-2.9-0.2
				       l-1-2.2v-0.1l-0.6-8.6c0-0.2-0.1-0.3-0.2-0.4l-6.3-4.6l4.1-1.8l0,0l5-1.8c0.2-0.1,0.3-0.2,0.4-0.4l0.5-3.2l4.4-1.7
				       c0.1,0,0.2-0.1,0.2-0.2l6.6-7.4c0-0.1,0.1-0.1,0.1-0.2L151.4,184.3z"/>
  <path id="divi-19022" class="st0" d="M164.6,197.8h3.1l5.5,6.1c0.1,0.1,0.2,0.1,0.3,0.2l5.9,1.5l-1,2.5c0,0,0,0,0,0.1l-1.4,4.6
				       l-5.4,4.5l-5.4-0.3l-3.3-0.8l-0.3-0.9c-0.1-0.3-0.4-0.5-0.7-0.4s-0.5,0.4-0.4,0.7l0.1,0.2l-1.3-0.3v-4c0-0.2-0.1-0.3-0.2-0.4
				       l-4.3-3.8l6.8-8.3h1.9c0.2,0,0.4-0.1,0.5-0.4c0.1-0.2,0-0.5-0.1-0.6L164.6,197.8z"/>
  <path id="divi-19693" class="st0" d="M197.5,200.3l2.5,0.4l-0.2,5.7l-2.1,5c-0.1,0.1-0.1,0.3,0,0.4c0.1,0.1,0.2,0.3,0.3,0.3l2.1,0.8
				       l-0.3,1.4l-2.2,3.1l-6.6,4.8l-6-1.7c-0.2-0.1-0.4,0-0.6,0.2l-5.1,5.1L177,225c-0.3-0.1-0.6,0.1-0.7,0.3l-1.7,4.1l-0.1,0.1l-3.2,4.7
				       h-0.1l-1.2-2.1l0,0l-4.1-8V224l-2.4-6.6l2.7,0.6h0.1l5.7,0.3c0.1,0,0.3,0,0.4-0.1l5.7-4.8c0.1-0.1,0.2-0.2,0.2-0.3l1.5-4.7l0,0
				       l1.5-3.8c0.1-0.1,0.1-0.2,0-0.4l2-2.2l4.8,0.3c0,0,0,0,0.1,0l5.1-0.3c0.1,0,0.1,0,0.2,0L197.5,200.3z"/>
  <path id="divi-19450" class="st0" d="M120.7,202.5l6.5,2.4c0.1,0.1,0.3,0.1,0.4,0h0.1l6.6,4.9l0.6,8.4c0,0.1,0,0.1,0,0.2l1.2,2.7
				       c0.1,0.2,0.3,0.3,0.5,0.3l3.6,0.3c0.2,0,0.4,0,0.5-0.2l1-1.2l1.1,1.7l1,2.4l-7.9,5.7h-0.1l-7.1,3.5l-4,2l-4.9-0.6
				       c-0.2,0-0.4,0.1-0.6,0.3l-0.8,1.5c-0.3-0.1-0.5,0-0.7,0.3h-2.4l0.2-0.3c0.1-0.3,0-0.6-0.3-0.8c-0.3-0.1-0.6,0-0.8,0.2l-0.3,0.6
				       c0,0.1,0,0.2,0,0.3h-0.9l0,0l-3.4-0.9l-5-1.2l2.1-4.5l2.1-4.2c0-0.1,0.1-0.2,0.1-0.3l-0.2-7.4c0.2,0,0.3-0.1,0.4-0.2l4.2-5.7l5-6.5
				       l0,0L120.7,202.5z"/>
  <path id="divi-19701" class="st0" d="M201,212.4l-0.3,1.3c0,0.1,0,0.2-0.1,0.2l-2.4,3.3l-0.1,0.1l-6.8,5.1c-0.1,0.1-0.3,0.1-0.5,0.1
				       l-6-1.7l-5.1,5.1c-0.2,0.2-0.4,0.2-0.6,0.1l-2.2-0.7l-1.6,3.7c0,0,0,0.1-0.1,0.1l-3.9,5.7c-0.1,0.2-0.3,0.3-0.5,0.2
				       c-0.2,0-0.4-0.1-0.5-0.3l-0.1-0.1l-4.4,1.5l-2.8,3.3l1.2,0.8l0,0l5.7,4.5c0.1,0.1,0.2,0.3,0.2,0.5l-0.3,7.5c0,0.2-0.1,0.3-0.2,0.4
				       l-5.7,4.1c0.1,0.2,0,0.5-0.2,0.7l-0.8,0.5l2.2,8.6v0.1l3.8,10.1c0.1,0.2,0,0.4-0.1,0.6l-3.6,4.2l6.3,0.7h0.1l6.5-0.6l3.4-4.8l0,0
				       l0.1-0.1l3.2-7.1c0,0,0-0.1,0.1-0.1l4.2-5.1c0.2-0.2,0.5-0.3,0.8-0.1l2.6,2l5.9,2.1c0.1,0,0.1,0.1,0.2,0.1l3.9,3l0.1,0.1l3.6,4.8
				       c0.1,0.1,0.1,0.2,0.1,0.3l0.6,6.6c0,0,0,0,0,0.1v5.7v0.1l-2.1,8.3l0,0l-1.5,8.2l0.6,4.3l2.1,2.8l3.8-1.9l1.4-3.1
				       c0-0.1,0.1-0.2,0.2-0.2l2.6-1.8l4.7-9.9c0,0,0-0.1,0.1-0.1l5.3-7.8l0.1-0.1l6.7-6.1l1.8-8.2c0-0.1,0.1-0.2,0.1-0.3l8.8-9.7l0.9-6.1
				       c0-0.2,0.2-0.4,0.4-0.4l3.9-1.4l0.8-1.8l-2,0.7c-0.2,0.1-0.5,0-0.6-0.2l-6.8-7.4c-0.1-0.1-0.2-0.4-0.1-0.6c0-0.1,0.1-0.2,0.2-0.2
				       l-0.1-0.2l-0.4,0.4c-0.1,0.1-0.3,0.2-0.5,0.2s-0.3-0.1-0.4-0.3L236,245l-10.2,0.3c-0.2,0-0.3-0.1-0.4-0.2l-6.3-7.2
				       c-0.1-0.1-0.1-0.2-0.1-0.3l-0.6-5.9c0-0.1,0-0.2,0.1-0.3l2.2-4.5l-4.6-10.1l-5.1-4.5l-7.2,0.9c-0.1,0-0.2,0-0.3,0L201,212.4z"/>
  <path id="divi-19533" class="st0" d="M253.5,254c0.1,0.3,0.3,0.5,0.7,0.5l1.2-0.2l-5.7,9.4c0,0,0,0,0,0.1l-3.5,7.9l-4.3,3.8
				       c-0.1,0-0.1,0.1-0.1,0.2l-3.3,5.7l-2.1,3.6c-0.1,0.3-0.1,0.6,0.2,0.8l5.8,4.4l2.6,5.9v0.1l0.3,3.8c0,0.2,0.1,0.4,0.3,0.5
				       c0.2,0.1,0.4,0.1,0.5,0l4.9-2.6h1.1l-0.9,2.8c0,0.1,0,0.1,0,0.2v5.4c0,0.3,0.2,0.5,0.4,0.5l5.3,1.5c0.2,0,0.3,0,0.5-0.1
				       c0.1-0.1,0.2-0.2,0.3-0.4l0.4-1.9l4,4.2c0.1,0.1,0.1,0.1,0.2,0.1l4,1.6l-1.6,6.1l-3.4,1.3l-6.1-2c-0.1,0-0.2,0-0.3,0l-4.2,0.9
				       c-0.2,0-0.3,0.2-0.4,0.3l-1.3,3.5l-6.8-0.2c-0.1,0-0.1,0-0.2,0l-4.5,1.7l-6.4-2.6c-0.1,0-0.2-0.1-0.3,0l-8.2,1.4l-8.5-3.6
				       c0.1-0.1,0.1-0.3,0-0.5c-0.1-0.2-0.2-0.3-0.3-0.3l-6.6-2.6l3.4-1.7c0.1-0.1,0.2-0.2,0.2-0.3l1.4-3.1l2.5-1.7
				       c0.1-0.1,0.2-0.1,0.2-0.2l4.7-10.1V298l5.2-7.6l6.8-6.2c0.1-0.1,0.1-0.2,0.2-0.3l1.8-8.2l8.8-9.7c0.1-0.1,0.1-0.2,0.2-0.3l0.8-5.9
				       l3.8-1.3c0.1-0.1,0.3-0.2,0.3-0.3l1.4-3L253.5,254z"/>
  <path id="divi-19290" class="st0" d="M140.1,228.2v1.8v0.1l0.5,2.6l-2.8,2.1l-8.8-0.2l0.3-0.2l7.1-3.6h0.1L140.1,228.2z"/>
  <path id="divi-19300" class="st0" d="M224.2,48.1l-3.5,2l0.5,4.1c0,0.2,1.2,2,1.2,2l0.2,2l0.5,1.7c0.2,0.2,0.4,2.4,0.4,2.4l1,2.7
				       l1.3,1.4l1.2-1.3l0.3-6.3c0,0,0.2-0.9,0.2-1.1l1.8-2.7l-4.1-6.2L224.2,48.1z"/>
  <path id="divi-19585" class="st0" d="M236.1,157.7l-1-0.4l-4.2,0.9l-1.9-0.8c-0.2-0.1-0.4,0-0.6,0.1c-0.2,0.1-0.2,0.3-0.2,0.5
				       l0.6,3.6c0,0.1,0,0.1,0,0.2l1.4,2.9l0.3,4.1c0,0.2,0.2,0.4,0.3,0.5l0.2,3.4c0,0,0,0,0,0.1l0.9,3.7l-1.8,4.6c0,0.1,0,0.3,0,0.4
				       l0.2,0.5h-0.1l-6.8-0.8l-6.2-2.7c0,0-0.1,0-0.1-0.1l-5.4-0.9c-0.1,0-0.2,0-0.2,0l-5.2,1.5c0-0.2-0.1-0.4-0.2-0.5
				       c-0.2-0.1-0.4-0.1-0.5-0.1l-0.3,0.1l-1.8-2.3l0.8-2.4l0,0l1.5-5.1c0-0.1,0-0.3,0-0.4l-1.7-3.9l2.3-3.4c0.2,0,0.4-0.1,0.5-0.3
				       l3.3-6.8c0-0.1,0.1-0.1,0.1-0.2l0.9-8l2.3-0.7l3.1,1.7c0.1,0.1,0.3,0.1,0.4,0c0.1,0,0.3-0.2,0.3-0.3l1.8-3.9l4.8,1.9l0,0l0,0
				       l11.3-1.5l10.4,1.8l-5.3,2.9l-2.9,3.9l-0.2,1.1l-1.3,3.6l0.3,1.8L236.1,157.7z"/>
  <path id="divi-19355" class="st0" d="M278.1,130.3L272,126c-0.1-0.1-0.2-0.1-0.2-0.2l-2.7-4.5c-0.1-0.1-0.1-0.3-0.1-0.4l0.8-5.8
				       l-4.3-1.5l-4.1,3.9c-0.2,0.1-0.3,0.1-0.5,0.1l-4.5-0.8l-4.7,3.9l-0.6,1.9c0,0.1-0.2,0.2-0.3,0.3l-4.8,1.9l-0.3,3.8
				       c0,0.2-0.1,0.3-0.2,0.4c-0.2,0.1-0.3,0.1-0.5,0.1l-0.7-0.2l3.1,3.7c0,0,0.1,0.1,0.1,0.2l0.9,3.6c0.1,0.2,0,0.5-0.2,0.6l-5.1,4.2
				       c-0.1,0-0.1,0.1-0.2,0.1l-3.3,0.9l0,0l7.1,1.3c0.2,0,0.3-0.1,0.5,0l13.1,5.8l3.6-4.2l0.1-0.1l5.8-4.7l2-3.8c0.1,0,0.1-0.1,0.1-0.1
				       l2.1-2.7c0.1-0.1,0.2-0.2,0.4-0.2h4.7L278.1,130.3z"/>
</svg>
