<?xml version="1.0" encoding="utf-8"?>
<!-- Generator: Adobe Illustrator 20.1.0, SVG Export Plug-In . SVG Version: 6.00 Build 0)  -->
<svg version="1.1"
	 id="bogota" inkscape:output_extension="org.inkscape.output.svg.inkscape" inkscape:version="0.46" sodipodi:docname="departamentos_colombia_plain.svg" sodipodi:version="0.32" xmlns:cc="http://creativecommons.org/ns#" xmlns:dc="http://purl.org/dc/elements/1.1/" xmlns:inkscape="http://www.inkscape.org/namespaces/inkscape" xmlns:rdf="http://www.w3.org/1999/02/22-rdf-syntax-ns#" xmlns:sodipodi="http://sodipodi.sourceforge.net/DTD/sodipodi-0.dtd" xmlns:svg="http://www.w3.org/2000/svg"
	 xmlns="http://www.w3.org/2000/svg" xmlns:xlink="http://www.w3.org/1999/xlink" x="0px" y="0px" viewBox="0 0 101.3 171.3"
	 style="enable-background:new 0 0 101.3 171.3;" xml:space="preserve">
<style type="text/css">
	.st0{fill:none;stroke:#000000;stroke-miterlimit:10;}
</style>
<path id="divi-11001" class="st0" d="M69.9,15l3.1,1.2c0,0,0,0,0.1,0l1.6,0.3c0,0,0,0.1,0.1,0.1l1.8,2.8l-1.9,4.3
	c0,0.1-0.1,0.2-0.1,0.2L75,34.1c0,0.1,0,0.2,0.1,0.2l2.7,5.5l-3.4,5.7l0,0l-2.3,4.2c-0.1,0.2-0.1,0.4,0.1,0.6l0,0l-2.5,5.8
	c-0.2,0-0.4,0-0.5,0.2l-5.5,5.8c-0.1,0.1-0.1,0.1-0.1,0.2L61.7,68c0,0.1,0,0.3,0,0.4l1.2,3.3l0.2,3.8l-1.7,2.7c0,0-0.1,0.1-0.1,0.2
	l-1.9,7.3c0,0.1,0,0.1,0,0.2l0.8,8.5c-0.1,0.1-0.1,0.3-0.1,0.4l0.5,3c0,0.2,0.2,0.3,0.3,0.4l3.1,1.7l-0.7,2.2l-5.8,3.6
	c-0.1,0.1-0.2,0.2-0.2,0.3l-1.2,3.8l0,0l-1.3,2.8l-3.4,2c-0.2,0.1-0.3,0.3-0.3,0.5v0.6l-6.3,5.1c-0.1,0.1-0.1,0.2-0.2,0.2l-2.6,6.6
	l-3.7,4.6c-0.1,0.1-0.1,0.2-0.1,0.3l-0.3,4.2l-3.9,4.8c-0.1,0.1-0.1,0.2-0.1,0.2l-1,4.7l-5.1,3.1l-0.1,0.1l-2.1,2.3
	c-0.1,0.1-0.1,0.2-0.2,0.2l0,0l-0.3,0.2c-0.2,0.1-0.2,0.3-0.2,0.5l-0.2,2.7l-4.5,0.6l0,0l-4.6,0.9c-0.1-0.2-0.2-0.3-0.4-0.3l0,0
	l-0.7-2.4l5.8-7.5h0.1l0,0l6-5.4c0.1-0.1,0.2-0.2,0.2-0.3l1.1-5.5c0-0.2,0-0.4-0.2-0.5l-1.6-1.4l1.3-2.1c0,0,0-0.1,0.1-0.2l1.8-6.7
	c0-0.2,0-0.3-0.1-0.5l-1.7-2.7l-0.2-5.2l0.1-0.1c0.2-0.1,0.3-0.3,0.3-0.5s-0.1-0.4-0.3-0.5l0.6-2.7v-0.1l2-5.2l3.8-1.8l6.8,2.6
	c0.2,0.1,0.5,0,0.7-0.2l3.3-3.9c0,0,0,0,0.1-0.1l1.9-2.9l2.8-2h0.1c0.1,0,0.2-0.1,0.3-0.2c0,0,0,0,0.1-0.1l0,0l0,0
	c0.2-0.1,0.2-0.4,0.2-0.6s-0.2-0.4-0.4-0.4L48,93.8l2.5-0.8c0.2-0.1,0.4-0.3,0.4-0.5v-6.2c0-0.1,0-0.2-0.1-0.3l-1.7-2.5l0.7-4.9
	l2-2.2c0.1-0.1,0.2-0.2,0.2-0.4l0.2-5.3c0-0.3-0.2-0.5-0.4-0.6l-1.9-0.6l1.3-3.3l3.3-5.1c0.1-0.1,0.1-0.2,0.1-0.2l1.1-7.1
	c0-0.1,0-0.1,0-0.2L54.3,47c0-0.1,0-0.1-0.1-0.2l-2.7-4.2c-0.1-0.1-0.1-0.1-0.2-0.2l-1.7-0.9l-0.5-1.9l3.7-2.2l3.3-0.8
	c0.3-0.1,0.5-0.4,0.4-0.7l-1-3.8c0,0,0,0,0.1,0l2.3-1.8l0.1-0.1c0,0,0,0,0.1-0.1l2.8-1.9c0.1-0.1,0.2-0.2,0.2-0.3l1.6-4.6v-0.1
	l2.7-3.6l2.8-1.2c0.2-0.1,0.4-0.3,0.4-0.6l-0.2-2.7L69.9,15z"/>
</svg>
