<?xml version="1.0" encoding="utf-8"?>
<!-- Generator: Adobe Illustrator 20.1.0, SVG Export Plug-In . SVG Version: 6.00 Build 0)  -->
<svg version="1.1"
	 id="sucre" inkscape:output_extension="org.inkscape.output.svg.inkscape" inkscape:version="0.46" sodipodi:docname="departamentos_colombia_plain.svg" sodipodi:version="0.32" xmlns:cc="http://creativecommons.org/ns#" xmlns:dc="http://purl.org/dc/elements/1.1/" xmlns:inkscape="http://www.inkscape.org/namespaces/inkscape" xmlns:rdf="http://www.w3.org/1999/02/22-rdf-syntax-ns#" xmlns:sodipodi="http://sodipodi.sourceforge.net/DTD/sodipodi-0.dtd" xmlns:svg="http://www.w3.org/2000/svg"
	 xmlns="http://www.w3.org/2000/svg" xmlns:xlink="http://www.w3.org/1999/xlink" x="0px" y="0px" viewBox="0 0 189 288"
	 style="enable-background:new 0 0 189 288;" xml:space="preserve">
<style type="text/css">
	.st0{fill:none;stroke:#2C5AA0;stroke-miterlimit:10;}
</style>
<path id="divi-70713" class="st0" d="M43.5,32.3l1.1,3.2l-2.7,5.3c-0.1,0.1-0.1,0.3,0,0.4c0,0.1,0.2,0.3,0.3,0.3l5,2.5
	c0.1,0,0.1,0.1,0.2,0.1l0.9,0.1l1.8,7.6L48.2,61c0,0.2,0,0.4,0.2,0.6c0.2,0.1,0.4,0.2,0.6,0.1l3.7-1.8l7.4,1.3h0.1l5.6,1.7l0.3,8.7
	l-4.4,9.8c0,0,0,0.1,0,0.1l-1.4,5.5l-0.9,3.5l-2.5,1h0l-0.1,0l-3.8,0.7l-6.2-4.5c-0.2-0.1-0.4-0.1-0.6,0l-7,4l-3.4-0.4l-5.6-7.1
	c-0.1-0.2-0.3-0.2-0.5-0.2l-9,1.2l8.2-9.3c0.1-0.1,0.1-0.2,0.2-0.3l1-14l8.2-12.1c0.1-0.1,0.1-0.3,0.1-0.5l-2.3-9.3L36,33.2l1.3,1.3
	c0.2,0.2,0.4,0.2,0.7,0.1l3.6-1.6v0L43.5,32.3z"/>
<path id="divi-70508" class="st0" d="M73,85.7l12.1,2.9l6,6.5c0,0,0,0,0,0l4.7,4.9c0.1,0.1,0.3,0.2,0.4,0.2h4.9l6.2,1.8c0,0,0,0,0,0
	c0,0,0,0.1,0,0.1l2,3.5l-1.9,0.6c-0.2,0.1-0.4,0.2-0.4,0.5l-0.5,3.3l-5.5,2.6c-0.2,0.1-0.3,0.3-0.3,0.5l-0.4,4l-1.7-1.1
	c0,0-0.1,0-0.1,0l-5.8-2.5h0l-3.4-2.9c-0.2-0.2-0.5-0.2-0.7-0.1l-4.3,2.6l-7.2-4.8c-0.1-0.1-0.2-0.1-0.4-0.1l-3.3,0.2c0,0,0,0,0,0
	c0,0,0,0,0,0l-0.4-2.5l2.1-2.8c0.1-0.1,0.1-0.2,0.1-0.3l0.2-3.3c0-0.2-0.1-0.4-0.2-0.5l-4.5-3.5l-1.6-4c0-0.1-0.1-0.1-0.1-0.2
	l-3.3-3.8L73,85.7z"/>
<path id="divi-70230" class="st0" d="M64.8,88.5l3,3.5l1.6,4c0,0.1,0.1,0.2,0.2,0.2l4.4,3.4l-0.2,2.8l-2.1,2.9
	c-0.1,0.1-0.1,0.3-0.1,0.4L72,108l-0.9-0.2c0-0.2-0.2-0.4-0.4-0.5c-0.2-0.1-0.5,0-0.6,0.2l-0.8-0.2l-4.2-7.1l-0.3-6.2
	c0-0.1,0-0.1,0-0.2L63.4,91L64.8,88.5z"/>
<path id="divi-70820" class="st0" d="M46,89.1l2.8,5.1c0,0,0,0,0,0l3.5,5.7l-4.8,1.4c-0.3,0.1-0.4,0.4-0.4,0.7l0.8,3.9l-2.9,4.5
	c0,0,0,0.1-0.1,0.1l-3,6.6c-0.1,0.1-0.1,0.3,0,0.4l0.2,0.6c-0.1,0-0.2,0.1-0.3,0.1l-2.8,2.3l-7.2-0.5l-1.7-4.1l6.5-8.8
	c0.1-0.1,0.1-0.2,0.1-0.4l-0.2-14.4l2.8,0.4c0.1,0,0.2,0,0.3-0.1L46,89.1z"/>
<path id="divi-70823" class="st0" d="M47.6,89.6l4.9,3.7c0.1,0.1,0.3,0.1,0.5,0.1l3.8-0.8l1,3.8l-0.2,2.7c0,0.2,0,0.3,0.1,0.4
	l3.6,4.1l-3.3,4.3c-0.1,0.1-0.1,0.3-0.1,0.5l0.8,2.6v0.1v6.8v0.1l-0.3,4.1c0,0,0,0,0,0.1c-0.1,0-0.2-0.1-0.3-0.1l-7,0.6h-0.1
	l-6.8-1.6l-1.2-3.6L46,111l0-0.1l3-4.6c0.1-0.1,0.1-0.3,0.1-0.4l-0.7-3.6l5-1.5c0.2,0,0.3-0.2,0.4-0.3c0.1-0.2,0.1-0.4,0-0.5
	l-3.9-6.3L47.6,89.6z"/>
<path id="divi-70204" class="st0" d="M62.4,91.5l1.2,2.8l0.3,6.2c0,0.1,0,0.2,0.1,0.2l4.4,7.5c0.1,0.1,0.2,0.2,0.4,0.2l1.1,0.2
	l-0.1,1.7l-6.1,3.3L60,114c-0.1,0-0.1,0-0.2,0.1V111c0-0.1,0-0.1,0-0.2l-0.8-2.5l3.4-4.5c0.2-0.2,0.1-0.5,0-0.7L58.8,99l0.2-2.5
	c0-0.1,0-0.1,0-0.2l-1.1-4l1.6-0.6c0.1,0.1,0.2,0.1,0.3,0.1L62.4,91.5z"/>
<path id="divi-70717" class="st0" d="M110,106.6l3.3,3.5l0.1,0.1l1.6,2.7c0,0,0,0,0.1,0.1l2.2,2.6l-0.1,0.2l-2.2,0.8
	c-0.2,0.1-0.4,0.3-0.4,0.6l0.3,8.3l-4.9,5.2h0h-0.3l-1.3-0.8c-0.1,0-0.1-0.1-0.2-0.1l-8-1.1c-0.1,0-0.3,0-0.4,0.1l-3.3,1.9l0.6-2.9
	c0-0.1,0-0.1,0-0.2l-1.6-8.6l1.9-1.9c0,0,0,0,0.1-0.1l0.3,0.1l2.5,1.7c0.2,0.1,0.4,0.1,0.5,0c0.2-0.1,0.3-0.2,0.3-0.4l0.5-4.7
	l5.5-2.6c0.2-0.1,0.3-0.2,0.3-0.4l0.5-3.2L110,106.6z"/>
<path id="divi-70418" class="st0" d="M71.1,109l1.2,0.2c0.1,0.2,0.3,0.4,0.6,0.4l3.7-0.3l7.3,4.9c0.2,0.1,0.4,0.1,0.6,0l4.3-2.6
	l3.3,2.8c0,0,0.1,0.1,0.1,0.1l4.2,1.8l-1.5,1.5c-0.2,0-0.3,0.1-0.4,0.2c-0.1,0.1-0.2,0.3-0.2,0.4c0,0,0,0,0,0l-0.9,0.9c0,0,0,0,0,0
	l-1.5,1.8h-4.7c-0.2,0-0.4,0.1-0.5,0.2l-3.1,4.9l-3.2-0.2c-0.2,0-0.3,0-0.4,0.1l-2.2,1.9l-3.2-1.7c-0.1,0-0.1-0.1-0.2-0.1l2.1-5.2
	c0.1-0.2,0.1-0.3,0-0.5l-2.5-4.9c0,0,0-0.1,0-0.1l-2.9-4v-0.4h0c0.1-0.1,0.2-0.3,0.3-0.4c0-0.2-0.1-0.4-0.2-0.5L71.1,109z"/>
<path id="divi-70473" class="st0" d="M69.7,111.8c0,0.1,0,0.2,0.1,0.3l3,4l0.1,0.1l2.3,4.6l-2.1,5.3c0,0,0,0,0,0l-1,2.8l-5.8,3.5
	l-1.6,0.4l-1.5-4.2c0,0,0,0,0-0.1l-3.5-6.7l0.3-4c0,0,0,0,0,0v-2.8c0.1,0,0.2,0,0.3,0l3.8-0.3c0.1,0,0.2,0,0.2-0.1L69.7,111.8z"/>
<path id="divi-70110" class="st0" d="M118.1,116.5l0.7,0.7l0.8,5.6l-1.9,7.5c0,0.1,0,0.1,0,0.2l1.1,8.5c0,0.1,0,0.2,0.1,0.2l4.1,6.2
	l-0.4,0l-0.6-0.6c-0.1-0.1-0.2-0.1-0.3-0.2l-5.7-5l0,0l0,0l-5.3-6.1v-2l5.4-5.6c0.1-0.1,0.2-0.3,0.2-0.4l-0.3-8.1l2.1-0.7
	C118,116.7,118.1,116.6,118.1,116.5z"/>
<path id="divi-70221" class="st0" d="M29.2,116.8l1,2.6l-4.5,5.6c-0.1,0.1-0.2,0.2-0.2,0.4v2.1l-4.6-0.7l-2.1-2.8l2-2.8L29.2,116.8z
	"/>
<path id="divi-70001" class="st0" d="M42.5,119.2l0.8,2.4c0.1,0.2,0.2,0.3,0.4,0.4l7.2,1.7c0.1,0,0.1,0,0.2,0l7.2-0.6
	c0.2,0,0.5-0.2,0.5-0.4l3.3,6.4l0,0.1l1.6,4.6c0.1,0.3,0.4,0.4,0.7,0.4l1.5-0.3c0,0,0,0,0,0c0.1,0.1,0.2,0.1,0.3,0.1v8.6l-1.3,1.8
	v-0.8c0-0.2-0.1-0.3-0.2-0.4l-3.6-3.8c-0.1-0.1-0.3-0.2-0.4-0.2c-0.2,0-0.3,0.1-0.4,0.2l-2.4,2.5l-3.5-1.7l0,0L51,138
	c-0.2-0.1-0.4-0.1-0.5,0l-4.2,1.8l-2.3-0.6l1.8-6.1c0-0.1,0-0.2,0-0.3l-1.7-7.4c0-0.1,0-0.2-0.1-0.2l-3.6-4.4L42.5,119.2z"/>
<path id="divi-70742" class="st0" d="M94.5,119.8l1.4,7.7l-0.8,4c0,0.2,0,0.5,0.2,0.6c0.2,0.1,0.4,0.2,0.6,0l4.2-2.4l7.7,1.1
	l1.1,0.6c0,0,0,0,0.1,0.1c0.1,0.1,0.1,0.1,0.2,0.1c0,0,0.1,0,0.1,0l0.1,0v2.2c0,0.1,0.1,0.3,0.2,0.4l5.5,6.3c0,0,0,0,0.1,0.1
	l5.5,4.9l-2.8-0.6c-0.1,0-0.3,0-0.4,0l-4.2,1.8l-5.3-1.8c-0.1,0-0.2,0-0.3,0l-7.7,1.6c-0.2,0-0.3,0.2-0.4,0.4l-2.2,5.5
	c-0.1,0.2-0.1,0.3,0,0.5l2.7,4.7c0,0.1-0.1,0.1-0.1,0.2h-1.4l-4.1-3.3l-0.8-5.3c0-0.2-0.2-0.4-0.4-0.5l-8.8-1.9l2.6-4.1
	c0.1-0.2,0.1-0.4,0-0.6l-2.2-4.2l2.1-1.7c0.1-0.1,0.2-0.2,0.2-0.4l0.8-6l3.6-2.1c0.1-0.1,0.2-0.2,0.3-0.3l1.9-6.6c0,0,0-0.1,0-0.1
	c0,0,0,0,0,0l0.4-0.4v0L94.5,119.8z"/>
<path id="divi-70523" class="st0" d="M30.8,120.6l0.1,0.3c0.1,0.2,0.3,0.3,0.5,0.3l7.7,0.6c0.1,0,0.3,0,0.4-0.1l0.1-0.1l3.5,4.3
	l1.6,7.2l-1.7,5.8l-5-2.4l0.5-0.5c0.2-0.2,0.2-0.6,0-0.8l-4.2-4.4c-0.1-0.1-0.2-0.1-0.2-0.2l-7.1-2.3c0.1-0.3,0-0.5-0.2-0.7v-2.1
	L30.8,120.6z"/>
<path id="divi-70702" class="st0" d="M87.4,122.3h4.7l-1.3,4.6l-3.6,2.1c-0.2,0.1-0.3,0.2-0.3,0.4l-0.8,6.1l-2.3,1.8
	c-0.2,0.2-0.3,0.5-0.2,0.7l2.3,4.4l-2.6,4.1h0c0,0,0,0-0.1,0l-1.1-1.7c-0.1-0.1-0.2-0.2-0.3-0.2l-5.2-2.1l-1.5-5.6l0.9-2.3l2.2-0.5
	c0.3-0.1,0.5-0.3,0.4-0.6l-0.3-4.4v0l2.2-1.8l3.3,0.2c0.2,0,0.4-0.1,0.5-0.2L87.4,122.3z"/>
<path id="divi-70215" class="st0" d="M73.8,127.5C73.8,127.5,73.9,127.5,73.8,127.5l3.3,1.8l0.2,3.9l-2,0.4c-0.2,0-0.3,0.2-0.4,0.3
	l-1.1,2.8c-0.1,0.1-0.1,0.3,0,0.4l1.7,6.1c0.1,0.2,0.2,0.3,0.3,0.4l5.3,2.2l1.6,2.3c0.1,0.2,0.3,0.3,0.5,0.3s0.4-0.1,0.5-0.3
	l0.1-0.2l8.8,2l0.4,2.7l-5.8-1.3c-0.1,0-0.3,0-0.4,0.1s-0.2,0.2-0.3,0.4l-0.8,3.3c0,0.2,0,0.4,0.1,0.5c0.1,0.1,0.3,0.2,0.5,0.2
	l3.6-0.5l3.3,2.3l-1.1,2.4l-2.9,1.7L89,160c0-0.2-0.2-0.4-0.3-0.5l-5.4-2.2l-2.9-3.2c-0.1-0.1-0.3-0.2-0.4-0.2h-4.7
	c-0.1,0-0.2,0-0.2,0.1h0l-0.6-0.6l-1.6-5.1c0-0.1-0.1-0.2-0.1-0.2l-4.4-4.4c-0.2-0.2-0.4-0.2-0.6-0.1c-0.2,0.1-0.4,0.3-0.4,0.6
	L67,150l-2.6-2.5l0.1-0.9c0.1,0,0.2-0.1,0.2-0.2l2.5-3.3c0.1-0.1,0.1-0.2,0.1-0.3v-9.3c0,0,0-0.1,0-0.1l5.5-3.3
	c0.1-0.1,0.2-0.2,0.2-0.3L73.8,127.5z"/>
<path id="divi-70670" class="st0" d="M51,139.4l2.7,1.6c0,0,0,0,0,0l3.9,1.9c0.2,0.1,0.5,0.1,0.7-0.1l2.3-2.3l3,3.2v1.2
	c-0.1,0.1-0.2,0.2-0.2,0.4l-0.3,3.6c0,0.3,0.2,0.6,0.5,0.6s0.6-0.2,0.6-0.5V149l2.9,2.7c0.2,0.2,0.4,0.2,0.6,0.1
	c0.2-0.1,0.3-0.3,0.4-0.5l0.2-5.8l3.4,3.4l1.6,5.1c0,0.1,0.1,0.2,0.2,0.2l8.4,8.1v3c-0.2,0-0.4,0.1-0.5,0.2l-2.1-2.3
	c-0.1-0.1-0.3-0.2-0.4-0.2l-8.2-0.5l0.2-2.4c0-0.1,0-0.3-0.1-0.4l-3.6-4.7c-0.1-0.1-0.1-0.1-0.2-0.2l-5.8-3.3
	c-0.1-0.1-0.3-0.1-0.4-0.1l-3.2,0.9c0-0.1-0.1-0.1-0.1-0.2l0.2-1.2c0-0.3-0.1-0.5-0.3-0.6l-6.1-2.8c0.3-0.1,0.5-0.4,0.4-0.7
	c-0.1-0.3-0.3-0.5-0.6-0.5V139.4z"/>
<path id="divi-70235" class="st0" d="M107.8,146l5.3,1.9c0.1,0,0.3,0,0.4,0l4.2-1.8l4.8,1.1h0l3.2,3.1l2.7,4.1l0,0.1l1.9,3.6v0
	c0,0,0,0,0,0c0,0.1,0,0.3,0,0.4l-2-1c-0.1,0-0.1-0.1-0.2-0.1l-7.5-0.3c-0.1,0-0.3,0.1-0.4,0.2L117,160l-3.6-1
	c-0.3-0.1-0.6,0.1-0.7,0.3l-1.4,3.6c-0.1,0.2,0,0.4,0.1,0.5l2.8,4.3h-2.6l-4.5-4.8c-0.1-0.1-0.2-0.2-0.3-0.2l0.7-2.3
	c0.1-0.2,0-0.3-0.1-0.5c-0.1-0.1-0.3-0.2-0.4-0.3l-4.9-0.2l-0.4-0.8c0.1-0.2,0.1-0.4,0-0.6l-3.2-5.5l2-5L107.8,146z"/>
<path id="divi-70233" class="st0" d="M87.5,152.5l5.7,1.2l0.2,1.2c0,0.1,0.1,0.3,0.2,0.4l4.4,3.6c0.1,0.1,0.2,0.1,0.3,0.1h2.1
	l0.7,1.3c0.1,0.2,0.3,0.3,0.5,0.3l4.5,0.2l-1.4,4.3l-5,3l-3-2c-0.1-0.1-0.3-0.1-0.4-0.1c-0.2,0-0.3,0.1-0.4,0.3l-3.8,5.8l-4.2-2.9
	c0,0,0,0,0,0l-5-3.3V162c0-0.2,0-0.3-0.2-0.4l-6.7-6.4h3.5l2.9,3.1c0.1,0.1,0.1,0.1,0.2,0.2l5.2,2.1l0.2,2.1c0,0.2,0.1,0.4,0.3,0.5
	s0.4,0.1,0.6,0l3.8-2.2c0.1-0.1,0.2-0.2,0.2-0.3l1.4-3c0.1-0.2,0-0.5-0.2-0.7l-3.8-2.8c-0.1-0.1-0.3-0.1-0.4-0.1l-3,0.4L87.5,152.5z
	"/>
<path id="divi-70678" class="st0" d="M120.9,158.1l7.1,0.3l3.1,1.6l2,4.4c0.1,0.1,0.1,0.2,0.2,0.2l3.3,1.9l-3.1,5.4l-4,1.9
	c-0.1,0.1-0.3,0.2-0.3,0.3l-3,9.9c0,0.1,0,0.2,0,0.3l1.9,5.3l-1.4,4.3l-2.4-1.5c-0.2-0.1-0.4-0.1-0.6,0c-0.2,0.1-0.3,0.3-0.3,0.5
	l0.3,12.9c0,0.2,0.1,0.3,0.2,0.4l4.4,3.9l-1.5,5.8l0,0l-1.9,2.7c-0.2,0.2-0.2,0.5,0,0.8l5.1,5.3l0.5,5.3l-2.8,2.3
	c0,0-0.1,0.1-0.1,0.1l-4.2,5.4l-1.2-1.8c-0.1-0.1-0.2-0.2-0.4-0.2l-11.3-2.1l0.8-8.3l1.1-2.6c0-0.1,0-0.3,0-0.4l-1.1-4.7
	c0-0.2-0.1-0.3-0.3-0.4l-2.2-1.2c0.2-0.1,0.4-0.4,0.3-0.7c-0.1-0.3-0.4-0.4-0.7-0.4l0.4-4.9c0-0.1,0-0.1,0-0.2l-0.8-3.6l1.6-2.9
	c0,0,0-0.1,0-0.1l1.4-4.4c0-0.1,0-0.3,0-0.4l-1.9-4.4c-0.1-0.1-0.2-0.2-0.3-0.3l-6.5-3.5l-2.7-4.2c-0.1-0.1-0.1-0.2-0.2-0.2l-7.2-3
	l-7.9-3.2l-0.3-5.1c0-0.1,0-0.1,0-0.2l-1.3-4V168c0.2-0.1,0.2-0.3,0.2-0.5v-0.2l4.3,2.9l4.7,3.3c0.1,0.1,0.3,0.1,0.4,0.1
	s0.3-0.1,0.4-0.2l3.8-5.8l2.8,1.8c0.2,0.1,0.4,0.1,0.6,0l5.5-3.3c0.1-0.1,0.2-0.2,0.2-0.3l0.6-1.8l4.5,4.8c0.1,0.1,0.3,0.2,0.4,0.2
	h3.8c0.2,0,0.4-0.1,0.5-0.3c0.1-0.2,0.1-0.4,0-0.6l-3.2-5l1.1-2.8l3.3,0.9c0.2,0.1,0.4,0,0.5-0.1L120.9,158.1z"/>
<path id="divi-70771" class="st0" d="M137.7,167.1l1.5,0.9c0,0,0.1,0,0.1,0.1l9.2,2.7l7,7l0.1,0.1l8.2,11.2c0,0,0.1,0.1,0.1,0.1
	l2.2,1.9l-0.2,7.2l-5.5,3.4c-0.1,0-0.1,0.1-0.2,0.2l-0.6,1l-0.1-0.1l-0.3-0.5c-0.1-0.2-0.4-0.4-0.7-0.3l-0.4-1
	c-0.1-0.1-0.2-0.2-0.3-0.3l-4.9-2.8c-0.2-0.1-0.5-0.1-0.7,0.1c-0.2,0.2-0.2,0.4-0.2,0.6l1.9,4.9l-4.9,1.4l-6.1-4.2
	c-0.2-0.1-0.4-0.1-0.6,0s-0.3,0.4-0.3,0.6l1.1,6.8v0.1l-0.8,7l-11.4,9.4c0,0,0,0,0-0.1l-4.9-5.2l1.6-2.4c0-0.1,0.1-0.1,0.1-0.2
	l1.7-6.3c0.1-0.2,0-0.4-0.2-0.6l-4.5-4l-0.2-11.6l2.1,1.3c0.1,0.1,0.3,0.1,0.5,0.1c0.2-0.1,0.3-0.2,0.4-0.3l1.7-5.2
	c0-0.1,0-0.3,0-0.4l-1.9-5.3l2.9-9.5l3.9-1.8c0.1,0,0.2-0.1,0.2-0.2L137.7,167.1z"/>
<path id="divi-70124" class="st0" d="M84.4,181.2l7.4,3l7,2.9l2.7,4.3c0.1,0.1,0.1,0.2,0.2,0.2l6.4,3.5l1.8,4l-1.3,4.1l0,0.1
	l-1.6,2.9c-0.1,0.1-0.1,0.2-0.1,0.4l0.8,3.8l-0.5,5.4l-3.1,1.3l-2.2-3.8l-0.6-5.2c0-0.2-0.2-0.4-0.4-0.5l-4.6-1.6l-0.1,0l-5.2-2.5
	c-0.1,0-0.2-0.1-0.3,0l-8.4,1c0-0.2-0.1-0.3-0.3-0.4c-0.2-0.1-0.3-0.1-0.5,0l-0.3,0.1l-5-2.4l-0.2-2.1l5.2-2.8
	c0.1-0.1,0.2-0.2,0.3-0.4l0.8-4.2c0-0.2,0-0.4-0.2-0.6l-4.6-3.2l2.8-2.4h0c0.1,0,0.1,0,0.2,0l3.6-0.8c0.3-0.1,0.5-0.3,0.4-0.6
	L84.4,181.2z"/>
<path id="divi-70400" class="st0" d="M79,184.6l0.6,0.8l-3.3,2.8c-0.1,0.1-0.2,0.3-0.2,0.5c0,0.2,0.1,0.3,0.2,0.4l4.9,3.4l-0.7,3.5
	l-5.3,2.9c-0.2,0.1-0.3,0.3-0.3,0.6l0.3,2.8c0,0.2,0.1,0.4,0.3,0.5l4.2,2l-1.3,0.4l-8.1-1.3c-0.1,0-0.3,0-0.4,0.1l-5.1,2.9l-0.4-2.8
	l2.4-4c0.1-0.2,0.1-0.4,0-0.6l-2.2-3.3c-0.1-0.1-0.2-0.2-0.3-0.2l-5-1.5l0.7-3.1l10.2-3.8l8.5-2.7C78.9,184.8,79,184.7,79,184.6z"/>
<path id="divi-70429" class="st0" d="M153.8,199.6l3.3,1.8l1.3,3.7c0.1,0.2,0.3,0.4,0.5,0.4c0.2,0,0.4-0.1,0.5-0.3v0l2.2,4.3
	l0.3,13.4c0,0.1,0,0.1,0,0.2l2.4,8.2l-4.6,4.3l-5.1,1.6c-0.2,0.1-0.3,0.2-0.4,0.3l-2.2,5.2c0,0.1-0.1,0.1-0.1,0.2l-0.2,4.5l-6.1,0.2
	c-0.2,0-0.4,0.1-0.5,0.2l-2.2,3.2l-1.1-1.8l-0.3-4.3c0-0.2-0.1-0.4-0.3-0.5l-5.2-3c-0.3-0.1-0.6-0.1-0.8,0.2l-2.5,3.6l-3.9-1l-5-4.8
	l4.5-5.9l3-2.5c0.1-0.1,0.2-0.3,0.2-0.5l-0.4-4.8l12.1-9.9c0.1-0.1,0.2-0.2,0.2-0.4l0.8-7.5c0,0,0-0.1,0-0.1l-0.9-5.6l5.2,3.7
	c0.1,0.1,0.3,0.1,0.5,0.1l5.8-1.7c0.2,0,0.3-0.2,0.4-0.3c0.1-0.1,0.1-0.3,0-0.5L153.8,199.6z"/>
<path id="divi-70708" class="st0" d="M90.8,204.7l5.1,2.4c0,0,0,0,0.1,0l4.3,1.5l0.5,4.9c0,0.1,0,0.2,0.1,0.2l2.5,4.4
	c0.1,0.3,0.5,0.4,0.7,0.2l3.4-1.4l2.8,1.5l1,4.2l-1,2.6c0,0.1,0,0.1,0,0.2l-0.8,8.6l-3.2-0.5c-0.3,0-0.6,0.2-0.7,0.5l-0.7,4.3
	l-3.5-0.9c-0.2-0.1-0.4,0-0.5,0.1l-5.7,5.2l-0.1,0l-5.1,2.8c0,0-0.1-0.1-0.1-0.1l-5.3-2.1l-1.2-3.7l1.6-4.2c0.1-0.1,0-0.3,0-0.5
	c-0.1-0.1-0.2-0.2-0.3-0.3l-5.5-1.7c-0.1,0-0.2,0-0.2,0l-7.3,1.1l-2.5-4.5l-0.8-5.3c0.2-0.1,0.4-0.4,0.3-0.6l-2.7-15.9l4.8-2.7
	l8,1.3c0.1,0,0.2,0,0.3,0l2.6-0.8l0.6,0.3c0.1,0,0.2,0.1,0.3,0.1L90.8,204.7z"/>
<path id="divi-70265" class="st0" d="M165.3,232l3.8,6.7l-1.6,6.4c0,0,0,0.1,0,0.1l-2.6,2.1l-4.9-2.3c-0.2-0.1-0.3-0.1-0.5,0
	c-0.2,0.1-0.3,0.2-0.3,0.4l-1.6,6.8l-3.4,3.1l0,0l-5.1,4l-5.4,1.1c-0.1,0-0.1,0-0.2,0.1l-3,1.9c0,0,0,0-0.1,0l0.6-2
	c0.1-0.2,0-0.5-0.2-0.6l-3.4-2.9l-0.5-8c0-0.2-0.1-0.3-0.2-0.4l-3.1-2.3l2.4-3.4l4.5,2.6l0.2,4.1c0,0.1,0,0.2,0.1,0.3l1.7,2.8
	c0.1,0.2,0.3,0.3,0.5,0.3c0.2,0,0.4-0.1,0.5-0.2l2.6-3.6l6.3-0.2c0.3,0,0.5-0.3,0.5-0.6l0.3-4.8l2.1-4.9l5-1.6
	c0.1,0,0.2-0.1,0.2-0.2L165.3,232z"/>
</svg>
