<?xml version="1.0" encoding="utf-8"?>
<!-- Generator: Adobe Illustrator 20.1.0, SVG Export Plug-In . SVG Version: 6.00 Build 0)  -->
<svg version="1.1"
	 id="quindio" inkscape:output_extension="org.inkscape.output.svg.inkscape" inkscape:version="0.46" sodipodi:docname="departamentos_colombia_plain.svg" sodipodi:version="0.32" xmlns:cc="http://creativecommons.org/ns#" xmlns:dc="http://purl.org/dc/elements/1.1/" xmlns:inkscape="http://www.inkscape.org/namespaces/inkscape" xmlns:rdf="http://www.w3.org/1999/02/22-rdf-syntax-ns#" xmlns:sodipodi="http://sodipodi.sourceforge.net/DTD/sodipodi-0.dtd" xmlns:svg="http://www.w3.org/2000/svg"
	 xmlns="http://www.w3.org/2000/svg" xmlns:xlink="http://www.w3.org/1999/xlink" x="0px" y="0px" viewBox="0 0 94 120.7"
	 style="enable-background:new 0 0 94 120.7;" xml:space="preserve">
<path id="divi-63272" class="st0" d="M39.8,24.2H40l0,0l3,1.2c0.1,0,0.1,0,0.2,0l8,0.3h0.1l2.7-0.3l0.9,0.4l-0.7,1.7L51.7,28
	c-0.1,0-0.2,0.1-0.3,0.1l-1.8,1.7c0,0-0.1,0-0.1,0.1L49.4,30l0,0l0,0c0,0,0,0,0,0.1l0,0l-3.5-0.3c-0.2,0-0.4,0.1-0.5,0.2L44,32.1
	l0,0l-2,1.7l-1.8,1.6l-1.7-0.6c-0.2-0.1-0.3-0.1-0.5,0l-2.5,1.5l-2.7-0.8v-0.8c0.1-0.1,0.3-0.2,0.3-0.3c0.1-0.1,0.1-0.3,0-0.5l0,0
	l1.6-0.6h0.1l3.8-1c0.2,0,0.3-0.2,0.4-0.3c0.1-0.2,0.1-0.3,0-0.5l-1.2-2.6l1.6-1.3c0.1-0.1,0.2-0.2,0.2-0.4L39.8,24.2z"/>
<path id="divi-63690" class="st0" d="M77.8,24.4l0.1,1.3c0,0.2,0.1,0.3,0.2,0.4s0.3,0.1,0.5,0.1l-0.2,9.3l-1.5,1.8l-6.3,2.5h-0.1
	l-6.2,3.7l-0.1,0.1l-4.8,4.8c0,0,0,0.1-0.1,0.1l-2,3.2l-2.8-1.9h-0.1l-1.8-2.4c0,0,0,0-0.1-0.1l-3-2.5l0.2-3.1
	c0-0.2-0.1-0.5-0.4-0.6l-1.8-0.7c-0.2-0.1-0.4,0-0.5,0.1L44.4,42l1.5-1.9c0,0,0,0,0.1-0.1l2.3-4.1c0,0,0,0,0-0.1l1.2-3.6l0,0
	l0.5-1.6l1.7-1.6l2.7-0.5c0.2,0,0.3-0.2,0.4-0.3l0.8-1.8l0.4,0.2c0.1,0,0.2,0.1,0.3,0.1l2.7-0.4h0.1l2.7,0.2h0.1l5.6,1.1
	c0.1,0,0.2,0,0.3,0l3.5-1.2l5-1.4c0,0,0,0,0.1,0L77.8,24.4z"/>
<path id="divi-63190" class="st0" d="M46,31l2.9,0.3L48.7,32l0,0l-1.2,3.5l-2.2,3.9l-0.1,0.1l-3.5,4.3l-4,0.5l0,0L35,44.8l0.6-0.3
	c0.3-0.2,0.4-0.5,0.2-0.8l-1.2-2.3c0,0,0-0.1-0.1-0.1L34,40.7l0.7-0.8l3-0.5c0.2,0,0.4-0.2,0.5-0.5l0.6-2.8l1.1,0.4
	c0.2,0.1,0.4,0,0.6-0.1l2.1-1.8l2.1-1.8l0.1-0.1L46,31z"/>
<path id="divi-63594" class="st0" d="M20.1,33.3l0.4,0.4l0.1,0.1l2.5,1.4c0.2,0.1,0.4,0.1,0.6,0l2.4-1.3l3.8,0.2l0,0l1.6,0.5V36
	c0,0.3,0.2,0.5,0.4,0.6l3.4,1.1c0.2,0,0.3,0,0.5-0.1l1.8-1.1l-0.4,2L34.4,39c-0.1,0-0.3,0.1-0.3,0.2l-0.8,1l0,0
	c-0.2,0-0.3,0.1-0.4,0.2c-0.1,0.1-0.1,0.3-0.1,0.4l-0.3,0.3l-2.1,1l0,0l-3.2,0.5L24,41.4c-0.1,0-0.1,0-0.2,0L19,41.1l-0.3-2.4l0,0
	L18,35.4L20.1,33.3z"/>
<path id="divi-63130" class="st0" d="M47.5,41.7l1.1,0.4l-0.2,3c0,0.2,0.1,0.4,0.2,0.5l3.1,2.6l0.1,0.1l1.9,2.4l0.1,0.1l3.1,2.2
	l-0.4,0.8v0.1L54.9,56c-0.1,0.1-0.1,0.2-0.1,0.2L54.2,60l-1.9-1c-0.1,0-0.2-0.1-0.3-0.1l-3.9,0.2H48l-3,0.5l-6.7-0.7
	c-0.2,0-0.3,0-0.4,0.2l-2.5,2.3l-2.7,0.5c-0.2,0-0.4,0.2-0.4,0.4l-1,2.8l-2.5,1.5c0,0,0,0-0.1,0.1l-2.2,1.8l-0.2-0.9l0.7-4
	c0.1,0,0.1,0,0.2,0h3.4c0.2,0,0.4-0.1,0.5-0.3l2.4-4.5l4-2.9c0.1,0,0.1-0.1,0.2-0.2l3.5-5.3l0,0l2.6-3.3c0.1-0.1,0.2-0.3,0.1-0.5
	l-0.4-2.2L47.5,41.7z"/>
<path id="divi-63470" class="st0" d="M33.2,41.7l0.3,0.3l0.1,0.1l0.9,1.7l-2.3,1.3h-0.1l-3.3,1.4c-0.2,0.1-0.3,0.2-0.3,0.4l-1,3.5
	c0,0,0,0.1-0.1,0.1c0,0.1-0.1,0.1-0.1,0.2v0.1l-0.1,0.4L25,54.4l-3.2,1.7l-0.6-0.8c-0.1-0.2-0.3-0.2-0.5-0.2l-3.1,0.3l0.2-2.2
	l0.9-1.2c0.1-0.1,0.1-0.2,0.1-0.2l0.5-2.7l0,0c0.1-0.1,0.1-0.2,0.2-0.3l0.9-3c0-0.2,0-0.3-0.1-0.5L18.8,43l-0.1-0.6l4.5,0.3l3.3,1.2
	c0.1,0,0.2,0,0.3,0l3.4-0.5c0.1,0,0.1,0,0.2-0.1l2.3-1.1c0.1,0,0.1-0.1,0.2-0.2L33.2,41.7z"/>
<path id="divi-63001" class="st0" d="M42.3,44.9l0.3,1.5l-2.5,3.2c0,0,0,0,0,0.1l-3.5,5.2l-4,2.9c-0.1,0.1-0.1,0.1-0.2,0.2l-2.3,4.3
	h-2.5l2.4-1.2c0.1-0.1,0.3-0.2,0.3-0.3l1.1-3.3c0-0.2,0-0.4-0.1-0.5l-0.9-1.3l0.4-1.2l2-0.8c0.2-0.1,0.3-0.2,0.4-0.4
	c0-0.2,0-0.4-0.1-0.5L31.3,51c-0.1-0.1-0.2-0.1-0.3-0.2l-2.1-0.2l0.8-2.8l3.1-1.3c0,0,0,0,0.1,0l0.1-0.1c0.1,0.2,0.4,0.3,0.6,0.3
	l4.4-0.9h0.1l4.2-0.5C42.1,45,42.2,44.9,42.3,44.9z"/>
<path id="divi-63401" class="st0" d="M28.4,51.4l2.1,0.3l1,1L30,53.3c-0.2,0.1-0.3,0.2-0.3,0.4l-0.5,1.8c0,0.2,0,0.3,0.1,0.5
	l0.9,1.4l-0.9,2.8l-2.8,1.4h-0.1c0,0,0,0-0.1,0.1l0,0l-2.5-2.2c-0.1-0.1-0.3-0.1-0.4-0.1l-3.5,0.1c0-0.2-0.2-0.4-0.4-0.4
	c-0.2-0.1-0.4,0-0.6,0.1l-1.2-0.9c-0.1-0.1-0.1-0.1-0.2-0.1l0.1-1.5l3-0.3l0.7,1c0.2,0.2,0.5,0.3,0.8,0.2l3.7-1.9
	c0.1,0,0.1-0.1,0.2-0.2l2.3-3.4c0,0,0.1-0.1,0.1-0.2V51.4z"/>
<path id="divi-63212" class="st0" d="M51.9,59.9l2.2,1.2l-0.2,5.8l-0.8,0.3c-0.2,0-0.3,0.1-0.4,0.2c0,0,0,0-0.1,0.1l-0.2,0.1
	l-3.5-1.8c0,0-0.1,0-0.1-0.1L47,65.2c-0.3-0.1-0.5,0-0.7,0.3L45.4,67L42,67.5l-4.2-1.2h-0.1l0,0c0-0.1-0.1-0.2-0.2-0.2l-2.3-1.8
	v-1.7l0.4-0.1c0.1,0,0.2-0.1,0.3-0.2l2.5-2.3l6.4,0.7h0.1l3.1-0.5h0.1L51.9,59.9z"/>
<path id="divi-63111" class="st0" d="M34.1,62.7v1.8c0,0.2,0.1,0.4,0.2,0.5l2.2,1.7L36,68l-1.9,2.4l-3.5-0.2l-3.1-1.1l1.8-1.5
	l0.1-0.1L32,66c0.1-0.1,0.2-0.2,0.2-0.3l0.9-2.7L34.1,62.7z"/>
<path id="divi-63548" class="st0" d="M47.2,66.4l1.3,0.4l3.6,1.9c0,0,0.1,0,0.1,0.1l-0.4,1.5l-1.6,4.1c0,0.1,0,0.3,0,0.4l-5.6,8.4
	c-0.3,0-0.5,0.1-0.6,0.4l0,0L37.6,82c-0.1,0-0.2,0-0.3,0l-3.8,1.5l-1.3-1.2L32,76.2c0-0.3-0.2-0.5-0.4-0.5l-3.8-1
	c-0.1-0.2-0.3-0.4-0.5-0.4v-4l3,1.1c0.1,0,0.1,0,0.2,0l3.9,0.2c0.2,0,0.4-0.1,0.5-0.2l2.1-2.7c0,0,0.1-0.1,0.1-0.2l0.4-1.1h0.1
	l4.2,1.2c0.1,0,0.2,0,0.2,0l3.9-0.5c0.2,0,0.3-0.1,0.4-0.3L47.2,66.4z"/>
<path id="divi-63302" class="st0" d="M28,75.8l2.9,0.8l0.2,5.9c0,0.2,0.1,0.3,0.2,0.4l1.8,1.6c0.2,0.2,0.4,0.2,0.6,0.1l3.9-1.5
	l6.1,1.6L43.5,85c0,0,0,0,0,0.1l-4.2,9.2c0,0.1-0.1,0.1-0.1,0.2l-0.4,6.3l-3.3-1.9l0,0h-0.1l-3.2-3l-0.3-6c0,0,0,0,0-0.1l-1.2-6.2
	c0-0.2-0.1-0.3-0.3-0.4l-1.6-0.9c-0.1,0-0.1-0.1-0.2-0.1l0.4-0.7c0.1-0.1,0.1-0.2,0.1-0.4L28,75.8z"/>
</svg>
