<?xml version="1.0" standalone="no"?>
<!-- Generator: Adobe Illustrator 20.1.0, SVG Export Plug-In . SVG Version: 6.00 Build 0)  -->
<!DOCTYPE svg PUBLIC "-//W3C//DTD SVG 1.1//EN" "http://www.w3.org/Graphics/SVG/1.1/DTD/svg11.dtd">
<svg width="561" height="600" version="1.1" id="antioquia" xmlns="http://www.w3.org/2000/svg" xmlns:xlink="http://www.w3.org/1999/xlink">
  <path id="divi-5001" class="st0" d="M253.4,428.4l0.8,2.1l1.5,1.7l0.1,2.4l2,2.1l2.6,1.6l2.3-0.2l2.3,1.3l6.5-0.9l3.5,2.2l1-0.1
				      l0.7,0.5l-0.3,0.6l0.6,0.8l0.7-0.2l0.7-1.7l2.1,0.5l1.5,2.2l-0.2,1.1l0.5-0.1l-0.5,1.1l3.7,5.5l-1.4,1l-1.6,0.3l-0.2,1.1l1.3,2.2
				      l-0.2,0.6l0.3,1.1l-2.2,0.7l-0.6,0.7l-2.5-1l-1.6,0.1l-1.8,4.1l-1.6-0.7l-3.1-0.3l-2.3-1.3l-0.5-0.8l0.4-1.3l-1.8,0.7l-0.1-0.6
				      l-1.4-0.6L258,458l-0.3,0.9l0.6,0.1l0.8,1.8l-2,1l-0.5-0.1l-3.6,0.8l-0.6-0.3l-0.8,0.6l-0.9-3.8l-1-1l-1.8-1.7l0.4-3l-0.5-2.7
				      l-1.1-0.7l0.4-2.5l-0.4-0.2l0.6-3.9l-0.7-5.2l-1.3-1.6l0.5-1.6l-0.6-1.3l0.9-0.9l-0.5-2.2l0.5-1.7l0.6-0.2l4.9,0.4l1.7-0.7
				      L253.4,428.4z"/>
  <path id="divi-5002" class="st0" d="M294.6,505.9l0.9,0l-0.1,0.6l0.6-0.6l1,0.3l3.3,2.8l3.8-0.6l0.5,0.6l1.2-0.6l1.1,1.1l2.8-0.2
				      l0.1,0.6l1,0.3l0.3-0.4l1.2,1.6l1.7-0.3l-0.1-0.9l0.5,0.6l1.7-0.4l0.8,0.7l0.5,2l1,0.2l-2.6,1.4l-1,2.7l-2.3,2l-0.4,2.4l-1,0.9
				      l0.4,0.9l-1.4,2.1l-3.8,1.8l-1.3,0l-7.2,3.9l-1.3-0.3l-1,0.5l-2.2,2.9l-0.1,5.2l-1.1,0l-1.3,0.7l-0.4,0.9l-2.2,0.6l-1.2,1.7
				      l-2.6,1.3l-1.3-1l-0.6-1.3l-2.3-1.2l-0.8,0.7l-2-2.5l-1.6,0.4l-0.3,0.6l-0.6-0.2l-1.4-2.9l0.6-0.6l-0.4-1.2l-2.3-0.8l0.9-3.8
				      l-0.4-1.4l1.1-2.3l-0.7-8l2.1-1.6l-0.2-1.4l1.1-2.3l0-1.5l1.3-1.4l3.4,1.1l3.4-1.6l0.4-1l-1.2-1.4l0.2-2.3l1.9-1.5l0.3-1.9
				      l-1.3-2.2l0.6-1.2l1.9-0.5l1.3,1.2l2.3,0.7l-0.5,0.9l0.3,1l0.8-0.1l-1.1,1.4l1.1-0.3l1.5,2.3l1.2-0.3L294.6,505.9z"/>
  <path id="divi-5004" class="st0" d="M197.4,383.3L197,384l0.5,3.3l0.3,0.8l-1,3.9l0.3,1.7l-1.5,3.3l-0.5,4.2l-0.6,0.2l-0.7,1.6
				      l-0.2,3.4l-0.5,0.6l-1.6-0.1l-1.4-0.3l-2.1-0.9l-1.1-4.8l-2.6,0.1l-0.8-1.8l-2.5-0.3l-1.4-1.8l-1.7-0.6l-0.5-1.4l-3.2-1.2
				      l-0.9-1.2l-0.6-0.8l1.2-5.5l-2.1-1l-0.4-2.7l0.4-0.7l-2.5-1.6l1.4-2.1l3.3-1l2.2,0.6l2.4-2l3.5-0.9l2.1-2.1l0.4-1.9l1.9-0.3
				      l0.5-0.8l-1.3-0.4l-0.2,0.7l-0.7-0.4l0.5-1.5l-0.6-0.9l0.5-1.2l0.5,0.5l1,0l1.8,2.1l2.1,0.9l0.4,1.7l2.1,3.5l1,2.7l-1.3,2.9
				      l0.1,1.6L197.4,383.3z"/>
  <path id="divi-5021" class="st0" d="M365.5,426.7l-0.6,1.3l-1.8-0.1l-0.6,0.7l-1.8,0.5l-1,1.2L357,430l-1.4,1l-0.4-0.4l-0.2,1.9
				      l-1.7-0.9l-0.6,1.1l-1,0.2l0.4,1.4l-2.2,0.5l-2.2,1.5l-2.3,0.1l-1,0.8l0.1,1.1l-0.8,1l-0.3,0l-2.4-4l-4.9,4.5l-1.3,0l0.1-1.2
				      l-2-1.4l1.2-1.2l2.1,0.9l0.6-0.7l-0.4-0.4l0.8-0.3l-0.6-1.7l1-2.5l-0.7-0.4l0.4-0.7l-0.7-1.5l0.9-1.1l2.8-1.1l-1.8-3l0.4-1.4
				      l3.4,0.7l1.5,1l4.2,1.3l5.8-2.5l1.3-1.2l2-0.3l0.3,0.3l2.1,1.9l-0.3,0.5l1.6,1.1l-0.1,1L365.5,426.7z"/>
  <path id="divi-5030" class="st0" d="M252.5,476.1l0.8,3.1l-0.5,1.6l-0.9,0.1l-1.1,1.2l2.1,1.4l1.9,3.2l-1.8,3.2l-1.5,0.4l-1.7,1.8
				      l-1.6,0.7l-1.5-0.1l-1.3-0.6l-3.1-3.3l-1.7,0.8l-3.3,0.1l1-2.9l1.8-2.6l1.1-0.4l1.6,0.6l0.4-0.5l-0.1-1.2l-1.1-1l-0.1-2.6
				      l-1.1-0.2l-0.2-0.6l3.1-1.4l1.1,0.8l2.3-0.2l1.5-2.4l1.7-0.4l1.6,1.2L252.5,476.1z"/>
  <path id="divi-5031" class="st0" d="M376.6,277.9l-0.9,2.1l1.5,6.9l4,0.5l0.6,0.8l0.9,0.1l1.8,2.9l-0.2,1.3l1.7,3.2l0,1.8l1.3,0.5
				      l-0.8,4.1l1.7,1l0.6,1.3l-0.1,4l0.6,1.4l-0.5,1l-1,0.2l0.3,0.8l-0.9,0.5l-0.3,1.2l0.6,0.1l0.2,0.9l-1.1,0l-0.9,3l0.6,0.8l-0.3,0.8
				      l0.7,0.4l-0.5,1.4l1.7,0.3l-0.2,0.7l0.5,0.4l0.9-0.7l-0.5,1.5l0.3,3.4l-1.5,3l-1.3,5.1l-0.8-0.2l-3,1.4l0.4,3.3l-0.5,2.3l2.3,2.9
				      l0.1,0.9l-1.8,3l-0.9,3.2l-2.4,1.9l-2.1,3.5l-0.6,1.6l1.6,0.8l-0.2,1.7l-0.4,0.8l-1.2,0.4l0.4,1.4l-1.9,0.2l0,3.2l-2.1-0.6
				      l-1.1-1.9l-2-0.7l-0.1-0.7l-1.4-0.5l0.1-0.9l-0.8-1l-2.5-1.1l-2.4-3l-2.5-0.5l-2.4-3.2l-0.8,0.7l-1.4,0l-0.4,2.7l-1,0.4l-0.3,1.5
				      l2.3,4l0.4,2.1l1.5,0.5l0.3,0.8l-0.4,1l-2.2-0.7l-0.8-1.2l-2-0.4l-0.6-1l-0.9,0.5l-0.4-0.6l-1.7-0.1l-1.2-1.2l-1.3,0.2l-0.5-1
				      l-1.2,0.7l-0.9-0.4l-1-0.7l-0.9,0.7l-1.8-0.5l-0.4-1.3l-1.1,0.1l-0.6-1.7l-4.6-3.7l-1.1-3.6l-0.4,0l0.7-2.8l-0.4-2.8l1.6-4
				      l-0.2-0.7l0.9-0.8l3.6-1.2l1.4-3.2l8.5-4.2l1.9-4l1.4-1.1l-0.1-1.6l1.2-2.2l-0.2-6.7l3.1-3.1l0.8-1.8l0-2.8l2.3-5.3l2.1-1.9
				      l2.1-4.8l5.1-4.4l0.7-2.2l1.5-1.6l0.7-1.9l2.1-1.9l-1.1-4.3l0.3-1.1l0.8-0.8l1.9,0.8L376.6,277.9z"/>
  <path id="divi-5034" class="st0" d="M226.1,533.1l0.3,2.3l1.3,2.1l-0.4,1.4l1.9,3.6l-0.4,1.5l0.9,0.5l0.2,1.7l-2.6,3.4l-1.7,1
				      l-5.1-1.6l-1.6,0.8l0.1,5.6l-0.5,1.4l1.5,2.4l0.3,7.3l-2,1l0.1,1.7l-0.5,0.7l0.5,1.5l-2,2.6l-1.3,0.5l-3.5-2.3l0.1-1.6l-4.6-0.3
				      l-1.3,0.5l-0.5-1.2l-3-0.9l-1.4-2l-0.8,0.3l-1.7-6.6l-3.7-3.4l-7.2-8l-2-3.5l-0.7-1.5l0.7-1.5l7.9,0.1l11.4-4.3l2.2,1l2.3-0.5
				      l0.6,1.2l1,0.5l0.6-0.9l2.7,0l1.4-2l2.6-0.4l0.9-0.9l-2.3-1.4l-0.2-2.2l0.4-0.5l-0.5-1.5l1.5-0.9l1.1,0.1l1.6-1.7l1.2,1.7l2.7,1.1
				      L226.1,533.1z"/>
  <path id="divi-5036" class="st0" d="M251.6,462.8l0.1,4.7l1,2.6l-1.1,1.9l1,2.4l-0.6,1l0.4,0.7l-0.7,0.1l-1.6-1.2l-1.7,0.4
				      l-1.5,2.4l-2.3,0.2l-1.1-0.8l-3.1,1.4l-0.6-3.7l-1.9-1.7l-0.1-3.3l-1-0.4l0.4-1.8l-0.1-0.1l1.8-1.6l1.3-0.1l0.5,0.2l1.7-2.2l2,1.5
				      l2.6-1l1.2-1.9l1.1-4.2l1,1L251.6,462.8z"/>
  <path id="divi-5038" class="st0" d="M322.8,334.9l0,6.4l-2,0.7l-0.7,2.4l0,6.4l-1.8,2.3l-2.1,1.4l-0.2,0l-0.6,0.5l-1.9-0.4l-0.9,1
				      l-0.8-0.2l-0.8,1.6l-3.4-1.7l-2.3,1.7l-1.3-0.9l-4.3,0.5l0.2,1.5l-1.9,1.4l-0.1,2.5l-0.6,0l-0.4,0.8l0-0.4l-1.8-0.3l-0.3-0.7
				      l-1.4,0l-0.3-0.8l-1.9,0.9l-1.8-0.6l-4.1,2.3l-2.1,0.1l0.8-2.3l-1.4-2.5l0-1.8l5.3-4.8l0.2-1.4l0.5-0.2l-0.2-1.8l1.1-0.3l0.6-2.9
				      l1.1-0.6l0.4-1.4l2.4,0.2l1.8-2.3l-0.1-1.5l0.8,0.8l1.8,0.4l0.5,0.9l2.7-0.2l2.7-2.3l0.4-2.6l2,0.1l0.6-0.8l-0.2-1.2l1.7-0.5
				      l3.1-1.5l1.4-1.8l1.5,0.4l3.2-1.4l2,2.5l1.6,0.2L322.8,334.9z"/>
  <path id="divi-5040" class="st0" d="M376.6,277.9l-1.1,0l-1.9-0.8l-0.8,0.8l-0.3,1.1l1.1,4.3l-2.1,1.9l-0.7,1.9l-1.5,1.6l-0.7,2.2
				      l-5.1,4.4l-2.1,4.8l-2.1,1.9l-2.3,5.3l0,2.8l-0.8,1.8l-3.1,3.1l0.2,6.7l-1.2,2.2l0.1,1.6l-1.4,1.1l-1.9,4l-8.5,4.2l-1.4,3.2
				      l-3.6,1.2l-0.9,0.8l0.2,0.7l-1.3-0.7l-0.8-1.6l-4.3-0.5l-2.4-1.7l0.3-3.3l-0.3-4.9l-0.7-1.2l0.6-1.3l-0.8-1.6l1.7-3.7l-0.9-1.4
				      l-3,0.6l-1.8-2l-0.6-3.8l0.9-4.3l-1-3.3l-0.7-0.9l-3.5-1.3l-1.2-0.6l-0.6-1.6l-2.9-2.8l-0.6-3.1l0.5-3.1l-0.4-2.5l2.5-2.4l1-0.3
				      l1.3-2.6l2.2-0.3l1.6,1.2l2-1.9l3.3-0.4l1.1-0.8l1.5,0.1l1.1,1.1l0.7-0.5l2.3-2.8l-0.2-2.2l0.7-1.2l0.1-2.7l0.7-1.8l1.7-1.2
				      l0.1-1.4l1.2-1.5l0-2.3l0.3-1.6l1.5-1.7l1.9,0.3l3.9-0.5l0.9-2l5.2-1.3l3-2.5l0.1-0.7l2.4-1l3.3,0.5l-0.3,2.6l3.3,3l1.9,0.5
				      l0.4-1.6l1.4,1l2.9-1.4l3.2-4l0.7,0.3l0.2,1.2l2.5-0.1l1.1-2.7l1.4-1.7l-0.1-1.5l0.7-0.4l0.9,2.1l-0.4,1.7l1.2,3.3l0.8,0.2
				      l0.3,2.3l-0.6,2.1l-2.2,3.3l0.4,0.9l1.3,0.2l0.5,3.6l-0.4,1.1l-1.6,1.5l0.4,1.7L378,277L376.6,277.9z"/>
  <path id="divi-5042" class="st0" d="M228.1,384.3l1.2,1l1.2,5.3l1,0.5l-0.3,1.2l1.1,1.1l0.3,2.2l-1.1,3.7l0.2,2.1l-0.6,3.3l-2.6,1
				      l0.2,2.6l-1,4.4l0.5,1.8l-0.4,2.2l1.2,1.8l-0.5,4.2l-1.4,0.5l-0.3,1.1l-2-0.7l-1.1,0.6l-0.5-1.3l-1.2-0.7l-3.8-0.4l-2.7,1.2
				      l-0.8,1.4l-0.8,0.4l-0.3-0.6l-1.9,0.6l-1.9-0.2l-0.1-1.7l-1-1.2l0-4l0.6-1.6l-0.6-1.8L208,414l-1.3,0.3l-1.8-1.1l-0.3-3.2
				      l-0.5-0.6l-1.8-0.3l-0.6,0.5l-1.2-1.2l-2.3-0.4l-1.5,1l-3.4-0.1l-0.5-2l0.5-0.6l0.2-3.4l0.7-1.6l0.6-0.2l0.5-4.2l1.5-3.3l-0.3-1.7
				      l1-3.9l-0.3-0.8l4.8,2.1l4.7,0.6l4-2.2l0.2-2.2l0.9-0.8l0.2-1.5l1.3-1.1l1.5,1l1.3,2.2l0.1,1.7l0.5,0.1l0.9-0.4l0.8-2.2l-0.7-3.1
				      l4.3-0.5l2.4-3.3l2,0.2l-0.6,1.9l0.2,1.5l0.4,1.8L228.1,384.3z"/>
  <path id="divi-5044" class="st0" d="M226.9,424.4l-2,2.2l0.1,1.8l-1.2,0.8l0.1,1.9l0.7,0.7l-0.9,1.3l-0.1,1.3l-0.9,0.8l2.5,2.4
				      l-0.9,3.4l2,2l-1.2,1.9l0.3,3.2l-2,0.5l-0.4,0.4l-2.3-0.8l-1.1,1.2l-4.4,1.2l-1.5,1.6l-0.1,1.3l-3.3,0.5l-2.8-2l-1.5-0.3l-1.1-1.5
				      l-2.1,0.5l-0.2-1.9l-1.8-1.4l-1.2-3l-0.6-1.1l0-1.2l1-1.8l-0.2-1.1l1.2-1.6l0.3-4.4l3.1-0.4l1.8-1.1l2.6,1.3l1.9-0.7l1.3-2.5
				      l2.1-1.8l-0.3-1.1l1-2.2l0.8-1.4l2.7-1.2l3.8,0.4l1.2,0.7l0.5,1.3l1.1-0.6L226.9,424.4z"/>
  <path id="divi-5045" class="st0" d="M123.5,182.4l-3.1-1.2l-1.9,0.2l-3-1.2l-0.1,3.6l-1.1,2.3l1,2.3l0.1,1.6l-1,2.6l-2.8,1.1
				      l-1,1.4l-0.6,3l-3.9,2.1l-0.6-1.3l-0.9,0.2l-0.4-2l-1.4-1.3l-0.8,0.5l-2.4-0.9l-1.4,0.2l-1.3-2.8l-2.1,1l-0.9-0.4l-1.6,2.2
				      l-7.7-4.3l-0.7,0.2l-1-0.9l-1.2-2.9l0.5-0.8l-0.9-2l-3.5-3.9l-1.2-0.4l1-4.1l1.1,0.1l0.5-0.8l-0.5-1.3l3.5,0.2l4.4-1.3l1.6-1.2
				      l3.6,2.5l1.1-0.1l1.2-1l3-0.3l0.6-1.1l1,0.5l0.5-1.7l1.2,0.3l1.9-1.9l0.3,0.8l0.5-0.4l0.7,0.8l1-0.3l0.7-1.6l1-0.5l2.7,0.8
				      l1.2-1.6l2.2-0.8l4.4-3.9l14.1-15.1l0.2,1.3l-1,5.7l0.5,3l0.9,3.6l0.1,5.4l0.3,4l-0.6,2.2l-4.5,5l-0.8,2.7l-2.1,0.6L123.5,182.4z"
	/>
  <path id="divi-5051" class="st0" d="M160.1,62.9l-3.4,1.2l-1.2,1.1l-1.7-0.6l-1.4,1.7l-3,1.4l-2.1,3l-0.3,2.9l0.6-0.2l0,0.6
				      l1.4,0.2l0.5,0.7l-1.3,1.9l-0.5,4.9l-0.9,1.7l-0.1,2.3l-0.9,1.6l-2.8,0.1l-1.8-1.7l-5.8,5.9l-1.9,0l-0.4-0.8l-2.7,0.6l-0.1-1.7
				      l0.8-1.1l1.8-0.5l0.3-3.2l1.3-1.5l-0.4-0.9l0.6-1.3l-0.6,0.2l-3.1,2.7l-1.1,1.5l-0.9,0.2l-2.2-2.2l-1.6,1.2l-1.9-0.8l-0.1-0.9
				      l-0.6-0.3l0.2-1.8l-1.5-3.2l-1.3,0.4l-0.5-0.9l-1.9-0.8l0.3-0.5l-2.6-2.6l-0.2-1l-0.9,0.2l-1.1-0.9l-0.9-2.4l-0.6,0.3l-2.5-1.3
				      l-0.4-3l-2.4,0.2l0.6-4l1.3-0.8l0.7,0.5l1.6-0.2l0.5-1.3l1.4-0.8l1.5-2.3l0.6,0.2l1.4-0.9l-0.2-0.5l0.6-0.2l-0.5-0.1l-0.1-1
				      l0.7-1.5l0.5,0.3l0.2-0.7l3-1.5l0.8-1.7l2.7-0.7l0.8-1.4l1.3-0.4l-0.1-1.6l0.8-2.4l0.3-0.5l1,0.3l0.9-0.8l1-2.3l-1.9-1.6l-0.2-0.8
				      l-1.1-0.6l-0.9,0.5l-2.9-2.1l-0.3-1.7l-0.8,0.1L122,32l2,0.2l0.4,2.8l1.2-0.5l-0.3-1l0.5-0.7l1.8,0l0.3-0.8l-2-0.7l-2.6-2.7
				      l-1.6-0.3l-0.7-1.5l-1.1-1.2l1.4-1.4l9-5l1.2-1.9l-0.1-2.4l2,4.7l3.6,10.5l-2.2,2.4l-0.9-0.4l-1,1.9l-1.6,1.3l1.2,2.4l2.7,0.3
				      l0.9,2.4l2.8,2l-0.7,3.1l1.4,1.4l3.5,6.7l0,2l1,0.1l2.1-2.2l1,0.8l1.1-1.3l2,0.1l0.1,0.5l3.1,0.4l0.1,0.9l2.4,0.7l-0.3,2.6l3.1,2
				      L160.1,62.9z"/>
  <path id="divi-5055" class="st0" d="M382.1,531.2l-0.2,0.3l-0.9,0.9l-7.1,0.9l-3.5,2.3l-3,0.8l-2-0.5l-1.7,0.4l0.2,1.6l-1.4,0.6
				      l-0.4,1.7l-1.2,1.5l-2.7,0.9l-0.7,1l-2.7,1.5l-1-0.7l-1.7-0.1l-0.8,0.6l-4-1.6l-0.9,0.6l-0.2,0.9l-0.8-0.3l-0.6,0.6l-3.4-0.9
				      l-0.9,1.1l-0.1,1l-1.8-0.4l-1.6,0.6l-0.7,1.1l-1.3-0.6l-1.7,0.5l-0.2-0.7l-2-0.6l0-0.6l-1.1,0.1l-5.1-3.1l7.9-5.3l-2.3-0.8
				      l-0.9,1.5l-1.1-0.1l-5.5-4.4l9.5-0.6l4.5-1.7l1.5,0.3l1-0.6l1.3-2.7l0.5,0.5l3.6,0.8l1.6-0.5l0.8,1.3l2,0.7l4-0.2l0.8,0.9l3.7-0.1
				      l3.3,0.7l1.6-0.9l3.6,2.6l2.5-0.7l2-1.7l1.2-0.1l2.2-1.9l1.9,0.5l2.5-0.9l0.4,1.4l1.6-0.1L382.1,531.2z"/>
  <path id="divi-5059" class="st0" d="M229.3,452.7l1.7,2.8l2.3,1.2l1.8,2.9l3.2,0.8l1.7-0.6l1.8,0.6l-0.4,2l-1,1.4l0.2,1.9
				      l-1.3,0.1l-1.8,1.6l-4.6,2.5l-1.6,2.6l-2.8-0.2l-1.5,0.8l-4.1,0.1l0-2.8l1.8-2.9l-0.4-1.7l0.5-0.4l-0.1-2l0.2-2.7l-1.2-2.6
				      l0.9-4.6l-0.5-0.7L223,453l-0.4-0.6l-0.2-1.9l0.5-1.4l0.4-0.4l2.5,2.6L229.3,452.7z"/>
  <path id="divi-5079" class="st0" d="M319.6,406.2l2.5,0.2l0.9,1.2l2.5,0.6l0.6,1l1.2,0.4l-0.4,1.3l-2,0.6l0.6,0.9l-1.4,1.2
				      l0.2,1.2l-1.2,2.2l-0.1,0.8l-1.6,1.3l-2.9,0.9l-2.5,2.3l-2.6,0.7l-1.3,1.6l0.8,0.8l-1.1-0.1l-1.1,0.8l-1.9-1.6l-0.6-0.4l-2.2,0.5
				      l-4.7,3.8l-1.2-0.2l-3,1.4l-0.1-2.1l-1.2-2.7l-1.6,0.1l0.1-1.8l-5.3-5.2l2-0.2l0.9-1l1.1-0.2l3.7,0.7l2-0.3l0.8-0.7l0.1-1.4l3-0.8
				      l1.3-4l2.8-2.3l2.6-0.4l0.8-1.2l1.1,0.7l4.7-0.4l1.4,2.5l0.6,0.1l2-0.3l-0.3-0.8L319.6,406.2z"/>
  <path id="divi-5086" class="st0" d="M260.4,362.3l0.9-0.9l1.6-0.3l0,1.7l1.9,2.8l0,1.2l-1,1l-0.1,2l0.6,1.1l-1.6,3.3l1.5,0.8
				      l0.2,2.7l2.5,1.1L266,380l-5.2-0.2l-0.4,0.8l-1.2-0.8l-3.4,2.2l-1.6,3.1l2.4,1l1.7,2.4l4.6,4.1l1,3.4l1.8,1.8l0.1,2l1.7,1.1
				      l0.9-0.3l2.9,2.8l-3.2,0.3l-0.7,0.6l-0.2,1.4l-2.4,1.5l-2.7-2.2l-3.5,2.9l-1.6-1l-0.4-1.1l0.4-2.3l-0.8-0.5l-0.5-1.8l-1.1-0.5
				      l-0.8-1.4l-1.1-0.1l-0.3-3.2l-2.1-0.8l-1.4-1.4l0.6-3.3l-2.2-2.5l-1.7-2.6l0-2.2l-0.6-0.9l1.4-2.5l-0.5-4.5l0.3-3.4l-2.2-13.2
				      l6.8,6.7l1.2,0.5l0.3,1.3l1.4-1l-0.2-2.1l0.5-0.8l1.3-0.5l1.6-1.9l0.7,0.2l0.9-0.7l0.8-1.4l1,1.1l-0.5,1.8L260.4,362.3z"/>
  <path id="divi-5088" class="st0" d="M275.6,425l-0.5,1.9l3.2,3.3l-0.3,2.6l-1.1,1.3l-1.9,0.3l-0.1,0.7l1.3,3.4l1.8,2l-0.7,1.7
				      l-0.7,0.2l-0.6-0.8l0.3-0.6l-0.7-0.5l-1,0.1l-3.5-2.2l-6.5,0.9l-2.3-1.3l-2.3,0.2l-2.6-1.6l-2-2.1l-0.1-2.4l-1.5-1.7l-0.8-2.1
				      l0.6-0.9l1.9-0.4l2.1-1.6l3.1,1.4l1.5-4.6l1.9-0.6l1.3-2.6l1-0.1l0.7,1.1l0.7-0.1l1.6,1.1l0.4,2.4l2,3.5l1.3,0L275.6,425z"/>
  <path id="divi-5091" class="st0" d="M216.5,530.5l0.5,1.5l-0.4,0.5l0.2,2.2l2.3,1.4l-0.9,0.9l-2.6,0.4l-1.4,2l-2.7,0l-0.6,0.9
				      l-1-0.5l-0.6-1.2l-2.3,0.5l-2.2-1l-11.4,4.3l-7.9-0.1l-2,0.1l-2,1.3l-0.1-1.9l3.7-1.2l1.1-3.3l2.7-3l-1.2-2.8l9.3-2.5l4.2-2.3
				      l4.2-3.6l1-0.5l0.5,0.3l1.2,0.8l1.2,2.7l3.5,1.7l0.7,0.9l0.8-1.1l0.6,0l0.9,1.7l1.1,0.3L216.5,530.5z"/>
  <path id="divi-5093" class="st0" d="M222.9,449.1l-0.5,1.4l0.2,1.9l0.4,0.6l1.3-0.1l0.5,0.7l-0.9,4.6l1.2,2.6l-0.2,2.7l-0.6-0.3
				      l-7.2,0.7L216,465l-1.1-0.3l-1,1.9l-1.3,0.7l-0.3,2.2l-1.2-0.1l-1.3,1.4l-1.4-0.8l-1.4,0.1l-0.7,1.4l-1.6,0.9l0,2.4l-1.4,1.2
				      l-2.2,0.3l-0.7,0.7l-0.9-0.4l-1.7-2l-0.5-2.4l0.3-2.6l-0.9-0.3l-0.4-0.9l-1.4-0.3l-1-2.4l0.1-6.7l-1.6-2l0.3-4.1l-1.5-0.8l0.4-2.7
				      l-0.8-1.3l0.4-1.5l3-0.6l1.4-1.7l3-1.2l0.6,1.1l1.2,3l1.8,1.4l0.2,1.9l2.1-0.5l1.1,1.5l1.5,0.3l2.8,2l3.3-0.5l0.1-1.3l1.5-1.6
				      l4.4-1.2l1.1-1.2L222.9,449.1z"/>
  <path id="divi-5101" class="st0" d="M213.3,512.1l-0.1,2.5l1.3-0.2l0.4,0.6l-0.5,0.7l1.1,1.3l-0.4,0.9l-1.1-0.1l-0.7,1.5l-5.4,2
				      l-0.8,1.7l-0.5-0.3l-1,0.5l-4.2,3.6l-4.2,2.3l-9.3,2.5l1.5-2.3l-0.8-1.2l-1.3,0.7l-1.2-0.9l1.6-2.2l-2.3-1.9l0.7-1.3l0-2.5
				      l-2.6-2.1l-0.5-1.5l0.3-2l1.7-2.2l1.2-3.2l1.2-0.8l2.2,0.2l0.7-1.5l0-2.8l-0.8-2l1.2-1.2l1.6,0.6l1,0l1.3,1.6l1.1,0.2l1.4,2.1
				      l1.5-1l2-0.3l3.6,1.9l3.5-2.3l1.4-0.1l-0.4,1.3l0.9,5.4l2,2L213.3,512.1z"/>
  <path id="divi-5107" class="st0" d="M284.7,316.7l0.9,0.5l-4.7,0.4l0.8,2.3l-2.2,5.2l-1.6,0l-1.1,0.7l-1.4-0.3l-3.4,1.8l0.5-1.7
				      l-0.7-1.1l-0.8-0.2l0.5-1.7l-4.8-1.2l-1.1-2.4l-0.2-3.2l-1-0.9l-3.6,4.7l-2.4,2.1l-1-0.2l-1,1.7l-0.8-2l-0.6-0.5l-2.3-3.1l0.2-1.7
				      l-2-1.1l-0.8-3.4l2.1-1.5l1.6-3.8l0.6-3.4l0.9-0.5l3.4-0.1l0.7-1.2l3-2l1.3-3l1.4-1.1l5.1-2.6l5.4-0.8l2-2.9l1.5-1.1l5.3,1.1
				      l5.3-4.3l1.1-0.4l0.1,1.3l-1.7,2l-2.6,2.4l-0.6,1.4l0.2,4.4l-1.1,1l-1.2,4.5l-2.3,1.8l-0.8,1.6l-0.2,2.6l1.4,3.2l0.1,4.7
				      L284.7,316.7z"/>
  <path id="divi-5113" class="st0" d="M224.6,346.5l0.6,1.8l-0.2,1.5l-3.5,3.1l-0.2,1.6l1.7,2.2l-2.6,4.2l1.6,1.9l0.7,2.5l1.7,1.8
				      l-2.7,2l0.3,2.5l0.9,1.4l1.2-0.1l2.4,5l-2-0.2l-2.4,3.3l-4.3,0.5l-0.4-3l-3.4-0.2l-1.5-1.6l-0.2-1.4l-2.2-0.4l-1.1-2l-2.5-0.7
				      l-0.6-1.8l-0.9-0.5l-1.1-3.9l-2-1.4l0.4-3.4l-1-3.8l1.5-2.6l1.8-0.8l1.7-2l0-1.1l-1.8-3.5l-0.1-8.2l1.2-0.4l1.3-3.1l-0.8-2
				      l0.6-2.7l1-0.4l1.7,1.2l1-0.4l1.7,0.6l1-2.1l1.1-0.1l0.7,0.6l-0.8,4l1.3,3.4l1.7,1.3l2,0.1l1,2.5l0.1,2L224.6,346.5z"/>
  <path id="divi-5120" class="st0" d="M354.5,233l-0.7,0.6l-0.4-0.7l-0.2,0.5l-1-0.2l0.3,0.8l-0.7-0.1l0.2,2.9l2.1,3.1l-0.3,2
				      l0.7,1.1l-2.2,1.8l0.1,1.9l1.4,1.4l1.1,0.2l2.9,4.5l2.2-1.4l1,2.9l-0.4,1l2.8,1.3l0.3,1.6l-0.6,0.7l0.6,1.4l-0.4,1.6l-1.9-0.5
				      l-3.3-3l0.3-2.6l-3.3-0.5l-2.4,1l-0.1,0.7l-3,2.5l-5.2,1.3l-0.9,2l-3.9,0.5l-1.9-0.3l-1.5,1.7l-0.3,1.6l-0.8,0.5l-0.9-0.2l0-0.8
				      l-1.2,0.5l-0.4-3.5l-2.4-2.2l-0.9,0.5l-0.4-0.4l-0.9,0.8l-0.9-0.9l1.5-2.4l0.4-3.5l-1.7-3.1l-1.3,0.4l-0.3-1l-1.7,0.1l-0.4-0.7
				      l-1.7-0.4l-0.4-0.9l0.5-0.9l-1.6-1.8l0.1-0.9l0.8-0.1l-0.7-0.9l0.7-0.5l-0.3-1.5l-1-0.4l0.9-1.9l-2.5-2.1l-0.1-1.3l-10.3,0
				      l-1.1-2.6l-1.1-0.3l-1.7-2.6l0.1-1.8l-0.7-0.3l-0.1-5.8l-1.3-0.5l0.2-0.7l-0.6-0.9l-1.3,0l0.7-1.3l-0.7-0.9l-1.9-0.8l-2.9,0.2
				      l-0.5-0.6l-1,2.7l-2-0.5l-1,0.3l-0.8-1.8l0.4-5.1l-1.2-2.8l1.3-3l-0.6-1l0.3-1.8l-0.8-0.8l0.4-0.8l-0.7-0.7l-0.6-0.5l-1.9,1.1
				      l-1.5-0.4l-1.6,0.7l0.9-1.9l0.3-3.8l2.6-2l1.1-1.9l-0.2-1.9l-1.9-1.9l0.1-0.9l1.3-1.3l-0.6-1.2l1.1-0.6l2.6,1.5l2.9-0.5l4.5-3
				      l6.8-2.8l1.6-2.1l0.1-4.8l2-1.7l0.6,3.6l1.1,0.2l4.7-2.5l3.8-5.2l2.2,0.6l0.7-0.3l0.8,0.9l1.1-0.4l1.3,0.8l0.4-2.2l2.7,1.4
				      l0.5-0.8l-0.4-1.3l0.5,0.1l1.2-0.1l-0.1,1.2l0.6,0.7l2.8,0.8l1.4,3.5l0.1,0.7l-1.5,0.8l-0.4,1l0.3,0.6l1.9,0.3l0.7,2.3l-1.7,2.3
				      l0.2,0.7l-0.5,0.1l0.7,1l-2,3.4l0.5,0.8l1.2,0.3l-0.3,2.8l1,1.9l3.6,2.2l5.4-0.6l4.6,2.6l2.5,2.7l5.2,1.5l0.2,2l1.5,2.4l0.2,1.6
				      l1.6,2.1l0.4,1.7l0.8,0.1l0.2,1.9l-1.3,1l0.4,1l-1,0.9l-1.4,4.1l-2.7,0.8l-0.9-0.7l-0.4,0.4l0.2,3.7l-2.3,4l0.5,1.6l1.1,0.8
				      l0.5,1.9L354.5,233z"/>
  <path id="divi-5125" class="st0" d="M193,406.9l0.5,2l3.4,0.1l1.5-1l2.3,0.4l1.2,1.2l0.6-0.5l1.8,0.3l0.5,0.6l0.3,3.2l1.8,1.1
				      l1.3-0.3l0.6,0.4l0.6,1.8l-0.6,1.6l0,4l1,1.2l0.1,1.7l1.9,0.2l1.9-0.6l0.3,0.6l0.8-0.4l-1,2.2l0.3,1.1l-2.1,1.8l-1.3,2.5l-1.9,0.7
				      l-2.6-1.3l-1.8,1.1l-3.1,0.4l-2.8-2l-0.8-1.8l-0.9,0.5l-2.9-2l-1.6-0.2l-0.2-1.7l0.7-0.5l0.3-2.1l-0.9-5.2l-2.5-2.1l-0.5-1.6
				      l-0.9,0.8l-1.3,0l-1.8-1.5l0.7-2.9l3.2-2.9l0.8-1.5l1.4,0.3L193,406.9z"/>
  <path id="divi-5129" class="st0" d="M263.4,470.4l2.7,0.6l2.1,0.9l0.8,1.5l-1.8,2.6l-0.4,2.1l2,4.4l0.4,3.6l-0.1,0l-1.3,0.6
				      l-1.9,2l-1.4,0.2l-0.7,1.8l0.7,1.4l-2.1,1l-1.8-0.4l-2.9-2.4l-2,0.9l-2-1.5l-0.6,0.1l1.8-3.2l-1.9-3.2l-2.1-1.4l1.1-1.2l0.9-0.1
				      l0.5-1.6l-0.8-3.1l-0.4-0.7l0.6-1l-1-2.4l1.1-1.9l1.6-0.4l0.5,0.6l0.7-0.3l0.2,1.3l1.8,0.3l1.5-0.6l1,0.9L263.4,470.4z"/>
  <path id="divi-5134" class="st0" d="M326.2,333.2l-0.6,0l-1.9,0.6l-1,1.1l-1.1-2.2l-1.6-0.2l-2-2.5l-3.2,1.4l-1.5-0.4l-1.4,1.8
				      l-3.1,1.5l-4.6-0.1l-0.8-1.8l0.7-3.6l1-2.1l3.3,0.2l3-3l0.4-6.1l-1.5-2.1l-2.6-1.5l-0.3-0.7l1.5-1.7l-0.3-3.3l0.8-1.4l-0.9-9.1
				      l2.3-7.7l0.4,2.5l-0.5,3.1l0.6,3.1l2.9,2.8l0.6,1.6l1.2,0.6l3.5,1.3l0.7,0.9l1,3.3l-0.9,4.3l0.6,3.8l1.8,2l3-0.6l0.9,1.4l-1.7,3.7
				      l0.8,1.6l-0.6,1.3l0.7,1.2L326.2,333.2z"/>
  <path id="divi-5138" class="st0" d="M205.9,370.3l-1,2.1l-1,0.6l-0.9,2.3l-1.6,1l-1.7,3.8l0.3,2.8l-2.6,0.6l-4.7-1.6l-0.1-1.6
				      l1.3-2.9l-1-2.7l-2.1-3.5l-0.4-1.7l-2.1-0.9l-1.8-2.1l-1,0l-0.5-0.5l0.9-0.5l-1.4-1.1l0.9-0.3l-1-2.1l1.2-1.2l-0.6-0.8l-0.7,0.2
				      l-0.7-1.3l-1.2-0.8l0-1.5l-1.4-0.8l-0.4,0.3l-0.1-1l-1.2-0.6l-0.7-1.3l0.1-1.7l-0.6-0.4l0.5-1.2l0.6,0.3l0.3-0.4l0.9-0.4l2.3,0.3
				      l1.3-1.4l0-1.2l-0.7-0.7l-0.7-2.6l0.9-1.9l2,0.2l2.1-1.4l1.6,0.5l3-2.5l1.3-0.1l0.5-0.8l2.4-0.9l0.8-0.9l2.1,0.7l1-1.2l1,0
				      l1.9-5.1l1.5-1.8l2,2.2l-0.6,2.7l0.8,2l-1.3,3.1l-1.2,0.4l0.1,8.2l1.8,3.5l0,1.1l-1.7,2l-1.8,0.8l-1.5,2.6l1,3.8l-0.4,3.4l2,1.4
				      l1.1,3.9L205.9,370.3z"/>
  <path id="divi-5142" class="st0" d="M408.7,424.6l0.7-0.3l0.4,1l0.8-0.4l1,0.6l0.7,3.8l2.1,0.4l0.7,1.1l-0.6,2.1l0.1,0.6l0.8,0
				      l0.3,1.2l2.4,1.5l1.5-0.7l1.6,0.4l2.5,2.1l0.4,0.7l-1.2,0.9l-0.5,4.7l-0.4,7.2l-1.2-0.4l-5.9-8.6l-1.7-1.2l-1.1,0.6l-2.8,8.2
				      l-3.1-0.6l-1.4,0.6l-1-0.3l-1.3-3.7l-1.5,0.2l-0.7-0.7l-1.7-5.8l-2.7-1.9l0.8-0.3l-0.7-1.6l0.7-0.9l-0.5-1.5l1.3-1.4l-2.4-2.5
				      l1.4-2.4l-1.4-2.4l-1-0.2l-0.3-1.9l-1.9,0.8l-2-1.4l0.3-0.8l-0.8-2.1l0.5-0.3l-1.3-1.3l0.8-1.2l2.3-0.6l1.5-2.4l0.1,0.1l0.8,1.2
				      l1-0.6l1.4,0.5l1.9,4.5l3.1,0.5l0.6,2l2.6-0.1l0.8,0.7l0.7,2.5l1.9,0.2L408.7,424.6z"/>
  <path id="divi-5145" class="st0" d="M267.9,554.4l-0.1,2.1l0.9,2.8l-0.2,4.1l0.8,1.1l0.3,3.4l-1.5,1.2l-0.7-0.5l-2.2,0.1l-3.2-2.3
				      l-2.2,1l-2.6-0.8l-1.3,0.2l-0.7,0.8l-2.5-0.6l-2.3,1.6l-1.1,0.1l-1.1-0.9l-0.8-2.4l-0.8-0.3l-0.7-1.4l2.7-0.1l1.3-3.8l1.2-0.9
				      l3.3,2.1l5.7-2.8l1.4,0l3.7-3.5l2.1-0.6L267.9,554.4z"/>
  <path id="divi-5147" class="st0" d="M76.4,180.6l1.2,0.4l3.5,3.9l0.9,2l-0.5,0.8l1.2,2.9l1,0.9l0.7-0.2l7.7,4.3l1.6-2.2l0.9,0.4
				      l2.1-1l1.3,2.8l1.4-0.2l2.4,0.9l0.8-0.5l1.4,1.3l0.4,2l0.9-0.2l0.6,1.3l3.9-2.1l0.6-3l1-1.4l2.8-1.1l1-2.6l-0.1-1.6l-1-2.3
				      l1.1-2.3l0.1-3.6l3,1.2l1.9-0.2l3.1,1.2l-0.3,3.7l-1.3,1.3l-1.1,2.6l0.4,1.7l-0.5,1l0.2,5l-0.5,2.4l-2.5,2.6l-0.6,2.9l-1.8-0.8
				      l-6.3-0.1l-2.8,1l-7.6-1.4l-1.6,0.7l-2.2,2.5l-4.8-0.2l-0.7,0.5l-3.1-1.9l-1.4,0.9l-3-1.1l-1,0.4l-1.4-2.4l-1.1-0.9l-4.1-0.3
				      l-2.5-1.3l-2.9-0.6l-1.3-2.3l-0.5-0.6l-1.1-1.5l0.2-1.6l-1-2.1l-0.2-3.2l0.6-0.4l-0.6-1l0.7-0.5l-0.5-0.9l2.6-1.3l0.3-0.6
				      l-0.7-0.9l0.7-1.7l0.4,0.5l1.6-0.9l2.2-2.2l2.5,1.5L76.4,180.6z"/>
  <path id="divi-5148" class="st0" d="M312.3,466l0.8,0.4l0.8,1.8l-0.6,1.8l0.4,1.6l0.8,0.2l1.4,2l-1.5,2.2l1.9,1.3l0.7,0.8
				      l-0.3,0.6l1.3,0.7l0.8,1.3l2.2,0.2l0.7,0.8l0.8-0.1l0.6-0.9l2.4,0.7l1.2,2l-0.5,1.8l2.3,3.2l6,3.9l0.1,2l-1.5,0.4l-0.5,0.7l1,1.1
				      l3.1-0.3l0.4,2.5l1.3,0.9l2,0.1l-0.7,4.2l-1.2-0.1l-1.7,0.9l0.4,1.4l-1,3.8l-0.6,0.8l-1.6,0.3l-0.9,0.9l-4.5-0.6l-0.8,2.5
				      l-3.1,1.2l-1.8,4.9l-3.7,1.2l0.1-2.3l-0.8-1.4l0.7-0.8l0-2l-0.7-0.9l-1-0.2l-0.5-2l-0.8-0.7l-0.1-3l-1-0.4l0.1-2l-0.6-1.1l1.3-2.7
				      l-0.1-3.6l-1.4-2l-0.8,2l-2.3,0.5l-0.8-0.7l-0.1-1.7l-0.6,0l-1.6-4.2l-1.8-2.1l0.5-0.9l1.3-0.5l-0.8-2.2l-0.3-0.9l-1.1-0.5l-2,0.4
				      l-0.7-0.2l-1.2-2.1l0.2-2.1l-2.4-1.3l0.7-3.6l-1-1.3l-0.5-1.9l2.1-1.9l2.6,1.4l1.4-2.3l-0.2-1.6l0.6-1.8l0.4,0l0.6,0.7l-0.1,2.9
				      l4.4,1.9l2,0.1l0.4-0.6l-0.8-1L312.3,466z"/>
  <path id="divi-5150" class="st0" d="M316.1,354.5l0.2,2.3l0.8,0.8l5,0.4l2.9,1.2l-0.5,1.1l-4.1,1.6l1.5,2.9l-0.3,1.5l-1.2,0.7
				      l0.4,2.6l-1.2,0.2l0.8,4.8l-0.9,0.9l-0.2,1.4l-3.6,1.5l-1.6-0.5l-0.2-0.7l-2.1-0.2l0.3-2l-2.2-1l-0.6-1.3l-1.6-0.2l-2.4-2.7
				      l-1.5,0.2l-1-1.1l-0.7,0.8l-1.5,0.3l-0.3-2.1l-2.3,0.6l0.3-1.5l-1.6-4.4l0.4-0.8l0.6,0l0.1-2.5l1.9-1.4l-0.2-1.5l4.3-0.5l1.3,0.9
				      l2.3-1.7l3.4,1.7l0.8-1.6l0.8,0.2l0.9-1l1.9,0.4l0.6-0.5L316.1,354.5z"/>
  <path id="divi-5154" class="st0" d="M375.8,145.5l-0.2,11.1l-3.1-0.7l-2.5,1.5l1.5,5.6l0.8-0.3l1,1l1.2,3.3l1.4,0.1l1.5,4l1.9,0.8
				      l0.4,1.9l-1.3,1.3l0.3,0.6l0.8-0.3l-0.9,0.7l-1.2-0.8l0,1l-0.8-0.5l-1.3,1.3l-1,0l0.5,0.4l-0.9,0.8l-0.1,1.1l-1.1,0.2l0.4,1.2
				      l-2,3l0.5,0.9l1.4,0.6l-0.2,1l0.7-0.9l1,0.3l-0.5,0.5l0.9,0.8l-0.7,0.1l0.5,0.6l-0.4,0.3l1.1,0.5l-0.4,1.4l0.6,0.2l-0.7,1.8
				      l-0.6-0.2l0.3,0.3l16.3,7l1.6-0.5l0.5-1.6l0.8-0.6l3.9,9.3l-1.8,2.6l0.1,3l-1.8,1.7l-1.4,0.1l-0.7,1l-0.5-0.8l-0.8-0.1l-3.2,2.4
				      l-1.8-0.9l0.4-1.3l-1-0.8l-0.4,0.3l-0.6-0.7l-1.9,0l-0.3-0.9l-2.2,2.4l-0.7-0.1l0-1l-1.1,0.9l-0.4-0.5l0.7,2.1l-0.9,0.3l-0.3,0.8
				      l-0.9,0.1l-0.3,1.2l1.1,0.3l-1.9,1.4l-0.1,1.1l-0.6-0.3l-0.2,1.4l-1.1-0.6l-1.1,2.7l-0.4-0.4l-0.6,0.4l-0.4,0.9l-0.6-0.8l-0.9,0.7
				      l0-0.9l-1.3,0.9l-0.4-0.9l-0.4,0.4l-0.7-0.5l-0.1,1l-0.9,0.4l0.9,1l-1.2,0.5l-1.2-0.4l-0.4,2.4l-1,1l-1.1-0.3l-0.2,1.7l-3.3-0.4
				      l0.1,0.8l-3,0.2l-0.8,1.1l0.4,1l-0.6,0l-0.7-0.3l-0.5-1.9l-1.1-0.8l-0.5-1.6l2.3-4l-0.2-3.7l0.4-0.4l0.9,0.7l2.7-0.8l1.4-4.1
				      l1-0.9l-0.4-1l1.3-1l-0.2-1.9l-0.8-0.1l-0.4-1.7l-1.6-2.1l-0.2-1.6l-1.5-2.4l-0.2-2l-5.2-1.5l-2.5-2.7l-4.6-2.6l-5.4,0.6l-3.6-2.2
				      l-1-1.9l0.3-2.8l-1.2-0.3l-0.5-0.8l2-3.4l-0.7-1l0.5-0.1l-0.2-0.7l1.7-2.3l-0.7-2.3l-1.9-0.3l-0.3-0.6l0.4-1l1.5-0.8l-0.1-0.7
				      l-1.4-3.5l-2.8-0.8l-0.6-0.7l0.1-1.2l-1.2,0.1l-0.5-0.1l0.4,1.3l-0.5,0.8l-2.7-1.4l-0.4,2.2l-1.3-0.8l-1.1,0.4l-0.8-0.9l-0.7,0.3
				      l-2.2-0.6l-3.8,5.2l-4.7,2.5l-1.1-0.2l-0.6-3.6l0.5-1.9l-1.5-0.3l-0.3-0.5l0.4-1.1l2.9,0.9l2-1.8l2.3-0.6l0.5-2.9l6.1-4.9l0.6-3
				      l0.9-1.4l-0.2-1.5l2-1.4l0.9-1.9l2.9-1.3l3.6,3.1l3.6-0.6l1.2-1.1l2.6,1.5l3.1,0.3l2.6-0.7l1.1-1.1l1.1-2.7l3.1,4l2.1,0.3l4.3-1.2
				      l2.6-1.8l0.8,0.3l1.6-1.2l2.5,0l0.7-0.6l3.4-0.4l1.5,0.7l0.7-0.4l3.1,0.7l1.2-1L375.8,145.5z"/>
  <path id="divi-5172" class="st0" d="M117.3,205.7l0.3,11.4l-1.4,4.8l0.7,2.6l-1.6,4.3l2,5.3l-2.2,1.2l-1.9,0.2l-1.8,2.3l-3.4,0.5
				      l-3,5.5l0.5,0.5l-0.1,1.2l-2.2,1.3l-1.9,2.3l-1.4,0.3l-1.1,1.3l-2.1-0.7l-0.5-1l-2-0.4l-0.7-0.4l0.2-0.9l-0.8-0.3l0.6-0.3
				      l-0.5-0.5l1.1-0.5l-0.6,0l-0.3-0.9l-0.5,0.4l0.2-1.6l-1.5-0.9l0.5-0.4l-0.5-0.7l0.5-1l-0.9,0.2l0.3-1l-1,0l0.3-0.5l-4.4-2.2
				      l-0.8-2.5l-1.1-1.1l0.5-0.5l-0.8-0.3l-1.4-2l0.8-1.8l-0.2-1l-1.5-1.2l-0.5,0.5l-1.4-0.1l-1.4-1.3l-0.4,0.2l0.1-0.5l-1.3,0.8
				      l-0.6-1.2l-0.8,0.7l-0.1-0.8l-0.6,0.9l-0.2-1.4l0.7-0.5l-0.1-0.7l-1.2,0.4l-1.4-1.4l-0.9,1l-0.7-0.6l-0.2-1.3l-1.1-0.2l0.1-1.1
				      l0.7-0.1l-1.6-3.6l-1.9-0.8l-0.3,1.6l0.1-0.9l-1.1-0.2l0.9-0.3l0.3-0.8l-1.6-0.9l1-0.1l0.2-0.5l-0.5-0.5l0.6-0.1l-0.9-0.3l0.7-0.7
				      l-0.9-0.5l0.9-0.2l0.5-2l1.1-0.4l-0.8-0.3l0.6-0.4l-1.9-2.1L66,205l-0.5-1.8l0.7-2.3l-0.7-1.7l1.6-0.8l-0.1-0.4l0.5,0.6l1.3,2.3
				      l2.9,0.6l2.5,1.3l4.1,0.3l1.1,0.9l1.4,2.4l1-0.4l3,1.1l1.4-0.9l3.1,1.9l0.7-0.5l4.8,0.2l2.2-2.5l1.6-0.7l7.6,1.4l2.8-1l6.3,0.1
				      L117.3,205.7z"/>
  <path id="divi-5190" class="st0" d="M356.9,401.2l-1.1,0l-0.2,0.6l-3.6-0.2l-0.8,3.9l-1.8,0.8l-2-2.3l-0.2-2.2l0.7-0.6l-1.6-0.2
				      l-3.7,0.9l-0.9-1.8l-1.4-0.1l0.1-0.5l2.1-1.9l0.7-1.4l4-0.2l0.1-2.1l0.8-0.4l1.9,0.8l1.2-0.3l1.3,0.9l0.6-0.4l0,0.6l1.1,0.7
				      l-0.3,1.1l3.2,3.2L356.9,401.2z"/>
  <path id="divi-5197" class="st0" d="M335.5,473.6l1.6,2.5l0,2.8l1.9,0.4l1.3,1.9l2.8,1.8l1.9-0.2l0.1,0.9l2.2,1.3l0.6,1.5l0.8-0.3
				      l1.2,0.9l-0.1,0.9l1.5,1.6l-4.5,0.8l0.7,0.7L347,492l-1.7,1.5l-1.9,0.2l-0.4,1.5l1.4,3.1l0,1.6l4,1.7l0.4,2.4l1.1,0.1l3.5-1.1
				      l-1.6,1.5l-1.1,2.8l-3.3,0.7l-1.4-0.9l-1.5,1.6l-4-0.1l-1.8,3.1l-2.1,0.6l-0.7-0.7l0-2.1l1-3.8l-0.4-1.4l1.7-0.9l1.2,0.1l0.7-4.2
				      l-2-0.1l-1.3-0.9l-0.4-2.5l-3.1,0.3l-1-1.1l0.5-0.7l1.5-0.4l-0.1-2l-6-3.9l-2.3-3.2l0.5-1.8l-1.2-2l-2.4-0.7l-0.6,0.9l-0.8,0.1
				      l-0.7-0.8l-2.2-0.2l-0.8-1.3l-1.3-0.7l0.3-0.6l-0.7-0.8l0.9-0.2l0.3-1.6l1.4-0.2l1-1.5l1.6,0.1l2.1-1.1l0.9-1.5l0.8-0.2l0.2-1.7
				      l2.8,3.2l3.8-0.6l1.8,1.3L335.5,473.6z"/>
  <path id="divi-5206" class="st0" d="M338.9,422l-0.4,1.4l1.8,3l-2.8,1.1l-0.9,1.1l0.7,1.5l-0.4,0.7l0.7,0.4l-1,2.5l0.6,1.7
				      l-0.8,0.3l0.4,0.4l-0.6,0.7l-2.1-0.9l-1.2,1.2l2,1.4l-0.1,1.2l-4.6-2.2l-4.4-5.1l-2.2,0l-1.3,1.2l-0.1,1.5l-2.4-0.2l0.3-2.9
				      l-1-0.1l0,0.7l-1.5,0.8l-1.9-1.9l-1.9-0.9l-0.6-1.5l-0.6-0.1l0.5-3.3l-0.4-0.2l-0.8-0.8l1.3-1.6l2.6-0.7l2.5-2.3l2.9-0.9l1.6-1.3
				      l0.1-0.8l1.2-0.9l3.5-0.8l2.9,0.6l0.4,1.2l1,0.6l0.9-0.2l1.6,3.3l2.4,0L338.9,422z"/>
  <path id="divi-5209" class="st0" d="M224.9,463.6l0.1,2l-0.5,0.4l0.4,1.7l-1.8,2.9l0,2.8l-0.8,5.3l-0.9,2.2l0.3,1.5l2.4,2.3
				      l1.4,3.7l1.3,1.5l-0.3,2.9l-2.4,4l-1.5-0.2l-2.1,1.3l-2.8-1.2l-1.4,0l-2.4-2.4l-2.9,1l-2.5-2.2l-0.4-2.2l0.1-0.7l1.2-0.3l-0.6-3.3
				      l0.4-3.5l-0.5-0.7l-3.1-0.3l-0.5-0.8l-1.7,0.6l-0.4-0.4l-3.5-3.5l0.3-1.4l0.9,0.4l0.7-0.7l2.2-0.3l1.4-1.2l0-2.4l1.6-0.9l0.7-1.4
				      l1.4-0.1l1.4,0.8l1.3-1.4l1.2,0.1l0.3-2.2l1.3-0.7l1-1.9l1.1,0.3l1.1-0.9l7.2-0.7L224.9,463.6z"/>
  <path id="divi-5212" class="st0" d="M288.5,434.5l0.1,1.1l-1.8,0.9l-0.4,0.8l-1.4,0.2l-1.3-0.5l0,1.4l-1.3,0.9l0.6,1.1l-0.5,1
				      l-0.4-0.7l-1.8,0.2l-2.1-0.5l-1.8-2l-1.3-3.4l0.1-0.7l1.9-0.3l1.1-1.3l0.3-2.6l-3.2-3.3l0.5-1.9l-0.3-1.5l2.3-0.3l1.7-1.9l2.1-0.5
				      l0.8-2.3l1,1l-0.9,1l0.4,3.1l0,1.6l1.1,2.3l1.3,0.6l-1.5,0l0.6,3.9l2.5,1.6l0.5,0.9L288.5,434.5z"/>
  <path id="divi-5234" class="st0" d="M166.4,299.4l6,2.8l3.5-0.2l1.2-1.3l2.2-0.4l2.9,1.7l1.4-0.9l1.5-2.7l2.7-0.4l1.6-1.3l1.8-0.2
				      l3.4,1.1l4.4,4l1.3-0.3l1.2,1.4l-0.1,0.8l3,0.4l0.6-0.6l-0.5,1.5l0.5,1.8l-0.5,2.6l1,0.3l-1.7,9.1l0.2,3.6l-0.7,2.5l-1,0.4
				      l-2.7,0.3l-1.3,1l-1.8,4.4l-4.5,3.7l-1.4,0.4l-1.5-0.6l-3,0.5l-2.5-2.1l-3.2-0.6l-1.7-1.4l-4.5-1.4l-2.2,2.3l-1.1,0.4l-4.7,0.3
				      l-5.1-0.8l-1,2.3l0.2,1.6l1.2,2.1l1.6,1.4l-1.7,0.4l-2.8,1.7l-2.7-1.1l-2.5,1.8l-1.3,1.9l-1.4,2.7l1.9,2.5l0,2.5l0.9,1l-0.9,1.5
				      l2,3.3l-2.2,1.8l-1.3,2.4l-3,0.9l-2.2-1.3l-0.4-2l-3.2-1.9l-2.2,0l-4-3.5l-4.8-1.8l-3.3,0l-0.4,1.4l1,7.3l-2.3,2.2l0.2,1.4
				      l1.3,1.2l-1.1,2.3l-4.4-0.6l0.1-0.9l-0.8-0.8l-2.2-1l-2.1,0.1l-0.5,1l-1.2-0.7l-1.3,0.1l-4.1,5.6l-1.9,1.6l-0.9,2.7l-1.9,1.1
				      l-1.2-0.7l-0.6-2.6l-2.7-0.7l-2.3-4.8l3-1l2.5-2l1.4-3.1l0-0.8l-0.7-0.5l0.1-1.8l1.5-3.2l-0.3-3.7l0.3-1.3l1.5-1.3l-0.4-1.3
				      l0.5-2.5l1.7,0.3l1.5-1l3.7-5.1l0.8-0.4l-1.7-6.9l-2.1,1.5l-1.4-1.2l0.2-4l-0.8-2.2l0.4-1.5l1-0.1l-0.1,0.7l1,0l1.1-0.9l-1.6-4.9
				      l0.7-3.1l-1.1-1.2l1.2-1.8l0.3-2.3l1.5-0.7l-0.2-1.6l1.3-0.6l0.8-1.7l0.3-3l1.9,0.3l0.6,0.9l1.3,0l0.4-2.1l1.5,1.4l2.7,0.5
				      l2.3-3.7l0.1-3.4l1.9,0.3l-0.6-4l0.5-1.9l1.2,0l7.2,3.7l3.2-0.4l1.4,0.4l3.4,1.6l0.7,1.6l1.1,0.4l6.3-0.6l1.4,0.3l0.2,0.8l1.2,0.4
				      l3.9-1.8l4.9,1.3L166.4,299.4z"/>
  <path id="divi-5237" class="st0" d="M327.8,397.3l-1.2,1.3l-2.3,0l-0.7,2.1l-2.3,1.3l0,1.1l-1.9,2.2l-0.4,1.8l0.4,0.8l-1.9,0.4
				      l-0.6,0l-1.6-2.4l-4.6,0.7l-1.1-0.7l-0.7,1.2l-2.5,0.6l-2.7,2.5l-1.1,4l-3,1l0,1.4l-0.7,0.7l-2,0.5l-3.7-0.4l-1.1,0.2l-0.8,1
				      l-1.9,0.3l-1.4,0.4l-1.1-0.3l-0.6,1.1l-0.8-0.2l-1.4,0.8l-1-0.9l-0.9-1.1l0.8-1.4l0.4-3l3.9,0.3l1.5,0.7l0.4-0.5l-0.8-1.4
				      l-1.2-0.6l-0.6-1.9l0.7-2.7l-0.4-1.7l0.8-0.7l1.6,0.3l0-1.3l0.6-0.3l-0.5-1l2.9-2.5l1.1,0.5l0.7,1.5l2.3,0.8l1.1,1.5l-0.3-3.8
				      l0.5-0.4l2.4,0l1.2-1.1l1.7,0.5l1-0.4l2.6,0.2l3.4-0.9l4.9-2.3l0.4-0.8l2.3-1.3l2.8,0l1-0.4l1.5,1.1l0.7-0.3l0.1,0.8l1,0.7
				      l1.7-0.3L327.8,397.3z"/>
  <path id="divi-5240" class="st0" d="M245.5,430.4l0.5,2.2l-0.9,0.9l0.6,1.3l-0.5,1.6l1.3,1.6l0.7,5.2l-0.6,3.9l-1.4-1.1l-0.6,1.2
				      l-2-1.7l-3.8,3l-2.5,0l-0.6,0.7l-1.5-1.9l-0.4-1.5l-2.8,0.9l-2.1,1.6l0.5,0.6l-0.8,0.6l0.6,1.1l0,2.1l-3.5-1.4l-2.5-2.6l2-0.5
				      l-0.3-3.2l1.2-1.9l-2-2l0.9-3.4l-2.5-2.4l0.9-0.8l0.1-1.3l0.9-1.3l-0.7-0.7l-0.1-1.9l1.2-0.8l-0.1-1.8l2-2.2l0.3-1.1l1.4-0.5
				      l0.2,0.7l1.2-0.2l1.9,0.9l0.2-1l2.5-0.6l-0.1-2l0.5,0.2l3.2,0.9l1.2,0.9l0.7,1.8l2.2,0.7l0.1,1.5l1.6,0.6l0.8,2.8L245.5,430.4z"/>
  <path id="divi-5250" class="st0" d="M434,166.1l0.8,1.4l1.8,0.3l0.9,1.1l0.6,5.3l2.6,2.1l-0.1,5.9l-0.8,3.1l1,3.9l-0.6,7.3
				      l0.5,0.5l1-0.2l0.4,1.1l0.4,1.6l-0.4,3.4l0.8,2.7l1.8,2.4l1.4,0.2l2,1.7l-1.6,2.1l-9.7,4.7l-2.6,1.9l1,20.6l-4.5,3.3l-1.9,2.3
				      l-0.1,2l-1,0.3l0.9,3.6l2.1,1.4l-0.4,1.2l3.5,0.8l0.4,0.9l-3,1.9l-1.8,2.4l-0.1,1l-2.5,1.6l-0.7-0.8l-1,0.8l-0.8-0.6l-1.5,0.4
				      l-0.9-1.1l-0.2-1.5l-0.7-0.3l-0.4-1.8l-1.3-0.6l-2.5,0.1l-1.5-3.4l-0.7-0.1l-0.4,1.3l-2.1-0.8l-0.3,0.5l-1.6-1.7l-0.9,0.7
				      l-0.8-0.4l-0.2,0.7l-1.6-0.4l0.1-1.1l-2.4-1.1l0.1-0.6l-1.5,0.5l-1.2-1.1l0.4-1.1l-1.2-0.6l1-0.1l-0.4-2.4l-1.6-0.2l-0.3-0.8
				      l-1.2,0.2l-0.2-3l0.5-2.4l-0.5-2l-3.4-2.8l-0.7-2.5l-1.9-1.5l-0.3-1.5l-1.2-0.3l1.8-0.6l0.3-1.4l1.5-1.8l1.7-0.3l0.8-0.8l2-8.2
				      l0.9-1.4l-0.4-3.8l2.7-2.5l-0.8-1.4l-2.4,0.1l-1-0.5l-3.9-9.3l0.1-0.8l2.5-2.6l-1.4-2.1l-0.1-1.6l0.9-0.5l1.4,0.8l0.7-1l-0.7-0.9
				      l-1.8-0.5l-1.6-2.7l0.5-1.9l-0.9-2.2l1.3-2.1l-1.9-1.3l0.8-2.8l-2.2-3.1l1-2.7l-0.5-2.7l2.2-1.7l-1.1-2.2l1.1-1l1.5,1l-0.2,1.2
				      l0.7,0l0.6,1.5l-0.2,0.9l1.7,0.5l0.1,0.7l0.6-0.5l2.5,0.7l0.4,1.9l1.1,1.1l1.9,0.2l0.7,1.2l1.2,0.4l-0.3,0.7l4.1-0.3l0.7,0.5
				      l-0.1,1.5l0.6,0.3l2-0.6l0.6-1.1l2.1,1.1l0,0.8l1.8,1.9l0.3-0.8l0.8-0.1l0,1.1l0.6,0.3l0.3-0.5l0.8,1l0.8-0.1l0.1-1l1.2-1.3
				      l1.7-0.2l0.2-2.3l1.3-0.3l0.8,0.5l0-1.5l3-2l1.6-0.1l0.6-1.6L434,166.1z"/>
  <path id="divi-5264" class="st0" d="M287.9,404.9l-0.9,0.7l-1.4,0.6l-1.3-0.8l-1.3,0.6l-6.6,0.2l-1.9,0.8l-1.1-1.9l-1.8-1.3
				      l-0.2-0.2l-2.9-2.8l-0.9,0.3l-1.7-1.1l-0.1-2L264,396l-1-3.4l-4.6-4.1l-1.7-2.4l-2.4-1l1.6-3.1l3.4-2.2l1.2,0.8l0.4-0.8l5.2,0.2
				      l0.9-1.2l0.5-0.2l1.6,1.3l0.9-0.1l0.4,0.7l3.3-2.1l1,0.1l1.5,0.4l1.2,1.2l-0.1,1.6l-0.5-0.4l-0.7,0.9l-0.7-0.2l-0.2,1.3l0.9,0.7
				      l0.1,1.2l1,0.5l0.2,0.9l1.3-0.7l3.1,3.4l-0.7,1.1l-1.9,0.7l-0.6,1.1l0.6,0.3l-0.4,0.8l0.6,0l0,1.1l0.9,0.6l-0.5,0.5l0,1.6l1.6,0.2
				      l0.6,0.8l-0.4,0.5l1.1,0.1l0.8,1.3l2.4,0.9L287.9,404.9z"/>
  <path id="divi-5266" class="st0" d="M284.8,463.7l-1.6-0.2l-2.1,1l-2.5-0.6l0.2,0.8l-1.4,1.3l0.2,1.8L275,468l-1.1,1.4l0.3,3.2
				      l-1.2-0.7l-1.2,0.5l-1.4-0.2l-0.6,1l-0.8,0.1l-0.8-1.5l-2.1-0.9l0-4.9l-2.1-1.9l0-1.1l-0.2-0.2l0.5-1.3l3-3l0.5,0.8l2.3,1.3
				      l3.1,0.3l1.6,0.7l1.8-4.1l1.6-0.1l2.5,1l0.6-0.7l2.2-0.7l-0.3,1.4l0.6,0.8l-0.5,0.5l0.2,0.7l1.5,1.2L284.8,463.7z"/>
  <path id="divi-5282" class="st0" d="M262.4,493.1l-1.6,0.2l-1.9,1.6l-2.5,2.6l-0.2,1.2l1.3,1.5l0.8,3.3l2.7,3.8l0.7,3.3l-1,0.8
				      l0.1,1.9l1.7,4.5l-1.5,3l0.7,2.2l-0.4,1.7l0.4,3.5l-1.1,1.9l-2.5-1.5l-0.8-1.8l0.5-1.7l-1.3-1.3l-0.3-1.4l-1.4,0.3l-0.8-0.5l0,0
				      l-1.8-2.3l-3.8-2.3l-4.2-0.7l-1.1-0.8l-1.2-2.5l-2.4-2.2l-0.3-1.1l-0.7-0.1l-2.6-1.3l1.4-3l-1.7-0.9l-0.3-0.7l0.8-1.8l2.2-0.9
				      l1.8-2.1l3.3,1.4l4.6-1.2l-1.2-7.2l1.5,0.1l1.6-0.7l1.7-1.8l1.5-0.4l0.6-0.1l2,1.5l2-0.9l2.9,2.4L262.4,493.1z"/>
  <path id="divi-5284" class="st0" d="M163,338.7l-0.6,0.4l-0.8,2.8l-1.3,0.8l-1.1,2.1l0.1,0.9l1.5,1l0.9,1.5l1.6-0.7l0.9-1.3
				      l1.7,3.2l1.8,0.7l4.1,0.2l1.4,1.9l0.7,2.6l1-1.9l1.3-0.7l1.4-2.1l0.9-0.6l1.3,0.2l-0.3,0.4l-0.6-0.3l-0.5,1.2l0.6,0.4l-0.1,1.7
				      l0.7,1.3l1.2,0.6l0.1,1l0.4-0.3l1.4,0.8l0,1.5l1.2,0.8l0.7,1.3l0.7-0.2l0.6,0.8l-1.2,1.2l1,2.1l-0.9,0.3l1.4,1.1l-0.9,0.5
				      l-0.5,1.2l0.6,0.9l-0.5,1.5l0.7,0.4l0.2-0.7l1.3,0.4l-0.5,0.8l-1.9,0.3l-0.4,1.9l-2.1,2.1l-3.5,0.9l-2.4,2l-2.2-0.6l-3.3,1
				      l-1.4,2.1l2.5,1.6l-0.4,0.7l0.4,2.7l2.1,1l-1.2,5.5l0.6,0.8l-4,1.2l-1.4-0.2l-1.9,2.2l-3.4,0.1l-3.5,5.3l-2.5,0.4l-1.4-0.9
				      l-2.6,1.5l-1.2,1.4l0,1.3l-1.2,1.2l-2.2,0.5l-1.6-0.4l-2.5-1.9l-0.3-1.8l0.6-0.6l-1-0.8l0.5-1.4l-1.3-0.5l0.1-0.8l-1,0.4l-0.1-1.2
				      l-1.2-0.7l0.5-0.9l-0.6-0.6l0.4-1.2l-2.2-1.4l-0.5-0.5l-2,1.1l-2.1-0.1l-0.1,1.3l-1.5,0.2l0.2,0.8l-1.1,0.3l0.1,0.6l-1.4,1.2l-1,0
				      l0,1l-2.5,2.7l0.3,1.2l-0.8,0.7l-0.7,4.5l-2.2,1.4l-3-1.4l0.6-2.7l-1.6-1.3l-1.2,0.2l-1.3-0.8l-2-2.9l1.5-1.8l-0.7-1.5l0.2-1.5
				      l-1.1-2l-2.8-0.3l-1,0.6l-0.7,1.6l-1-0.4l-0.5-1.3l0.2-1.8l-1.5-4.1l-0.3-3l0-3.4l-0.7-1.3l-0.4-4.3l1.9-1.1l0.9-2.7l1.9-1.6
				      l4.1-5.6l1.3-0.1l1.2,0.7l0.5-1l2.1-0.1l2.2,1l0.8,0.8l-0.1,0.9l4.4,0.6l1.1-2.3l-1.3-1.2l-0.2-1.4l2.3-2.2l-1-7.3l0.4-1.4l3.3,0
				      l4.8,1.8l4,3.5l2.2,0l3.2,1.9l0.4,2l2.2,1.3l3-0.9l1.3-2.4l2.2-1.8l-2-3.3l0.9-1.5l-0.9-1l0-2.5l-1.9-2.5l1.4-2.7l1.3-1.9l2.5-1.8
				      l2.7,1.1l2.8-1.7L163,338.7z"/>
  <path id="divi-5306" class="st0" d="M217.9,381.4l0.7,3.1l-0.8,2.2l-0.9,0.4l-0.5-0.1l-0.1-1.7L215,383l-1.5-1l-1.3,1.1l-0.2,1.5
				      l-0.9,0.8l-0.2,2.2l-4,2.2l-4.7-0.6l-4.8-2.1L197,384l0.4-0.7l2.6-0.6l-0.3-2.8l1.7-3.8l1.6-1l0.9-2.3l1-0.6l1-2.1l0.6,1.8
				      l2.5,0.7l1.1,2l2.2,0.4l0.2,1.4l1.5,1.6l3.4,0.2L217.9,381.4z"/>
  <path id="divi-5308" class="st0" d="M289.9,418l4.5,5.6l-0.1,1.9l1.4-0.1l1,2.9l0.1,2.3l-0.4,0.4l0.8,0.7l-0.3,1.1l-0.6,0.8
				      l-1.3-0.1l0,1.9l-1,1.3l0.3,1.2l-0.4,1l-1-1l-0.1-1.8l-2.9-0.2l-1-0.2l-0.5-1l-2.2-1.7l-0.5-4.1l1.3,0l-1.1-0.7l-1-2.4l0-1.7
				      l-0.4-3.3l0.7-1l1.2-0.7l0.7,0.3l0.5-1.1l1,0.4L289.9,418z"/>
  <path id="divi-5310" class="st0" d="M344.6,361.1l0,0.7l-1.4,1.5l0.6,1l-1.1,1.2l0.2,0.8l-0.6,0l-0.6,1.7l1.9,2.9l1.4,1l-3.2,3.9
				      l-0.1,1l0.8,0.9l-1.1,1.8l1,0.5l0.1,1.6l-3.8,1l-1.8,2.1l0.4,3.9l-1.6,2.2l0.7,1.5l-0.3,1.3l-3.3,0l-2.5,1.6l-0.4-0.9l0.5-0.4
				      l-0.2-1.3l-2.1-1.9l0-0.9l-2.9-1.4l-1.6-2.4l0.5-1.8l-0.6-0.2l-1,0.8l-0.6-0.7l-2.1,0.2l-4-1.4l-1.3-2.9l1.1-1.8l3.6-1.5l0.2-1.4
				      l0.9-0.9l-0.8-4.8l1.2-0.2l-0.4-2.6l1.2-0.7l0.3-1.5l-1.5-2.9l4.1-1.6l0.5-1.1l0.8,0.1l0.9-1l2.7-3.9l0.2-1.3l1.2-0.4l2-2.2l0.4,0
				      l1.1,3.6l4.6,3.7l0.6,1.7l1.1-0.1l0.4,1.3l1.8,0.5l0.9-0.7L344.6,361.1z"/>
  <path id="divi-5313" class="st0" d="M352.7,469.2l-1,1.9l0.2,0.9l-1.1,1.2l0.2,3.7l-0.9,2l0.4,1.9l-1.1-0.3l-0.7,1.2l0.2,2
				      l-0.6,0.1l0.4,2.5l-0.8,0.3l-0.6-1.5l-2.2-1.3l-0.1-0.9l-1.9,0.2l-2.8-1.8l-1.3-1.9l-1.9-0.4l0-2.8l-1.6-2.5l-0.6-1.8l-2-1.9
				      l-1.8-0.2l-0.9-0.7l-0.9-2.8l-2.7-0.7l-2.5-2.9l4.1,1.1l1.1-2.1l3.2-0.7l0.6,1.7l1,0.7l1.8-1.8l-2.2-2.9l2-0.3l0-0.8l1.4-0.6
				      l0.5,1.8l1.9-0.3l-0.2-1.4l1-1.6l1.4-0.4l1.8-3.9l-0.5,2.4l0.9,1.5l6.4,8.9l-0.8,0.4l-0.2,1.5l2.4,0.9l0.7-0.3L352.7,469.2z"/>
  <path id="divi-5315" class="st0" d="M326.2,333.2l-0.3,3.3l2.4,1.7l4.3,0.5l0.8,1.6l1.3,0.7l-1.6,4l0.4,2.8l-0.7,2.8l-2,2.2
				      l-1.2,0.4l-0.2,1.3l-2.7,3.9l-0.9,1l-0.8-0.1l-2.9-1.2l-5-0.4l-0.8-0.8l-0.2-2.3l2.1-1.4l1.8-2.3l0-6.4l0.7-2.4l2-0.7l0-6.4l1-1.1
				      l1.9-0.6L326.2,333.2z"/>
  <path id="divi-5318" class="st0" d="M300.4,452.8l0.2,1l-1.3,1l-3.6-0.4l-1.1,2l-0.5-0.5l-0.7,1.2l-1.4-0.4l-0.8-1.4l-4.6,1.7
				      l-0.4,1.4l0-0.6l-1.3-0.3l-1.8-1.6l0.2-0.6L282,453l0.2-1.1l1.6-0.3l1.4-1l-3.6-5.6l0.5-1.1l-0.5,0.1l0.2-1.1l-1.5-2.3l1.8-0.1
				      l0.4,0.7l0.6-1l-0.6-1.1l1.3-0.9l0-1.4l1.3,0.5l1.4-0.2l0.4-0.8l1.8-0.9l-0.1-1.1l3.4,0.2l0.1,1.7l1.2,1l0.5-0.9l-0.4-1.1l1.2-1.2
				      l0-1.8l1.5,0.2l0.7-0.7l1.3-0.1l2,0.5l-0.8,1.5l0.1,2.1l-0.9,1.3l0.7,2.4l-0.7,1.9l1.2-0.1l0.3,0.7l-0.7,1.5l1.1,3.7l-1.4,0.8
				      l0.4,2.8l0.5,0l0.4,1.1L300.4,452.8z"/>
  <path id="divi-5321" class="st0" d="M343.6,439.2l-0.1,1.9l-1,0.6l-1.7-0.3l-1.5,0.8l-0.7,0.8l-0.1,1.7l0.8,3.5l0.8,0.1l1.7,2
				      l1.4,0.7l-1.8,3.9l-1.4,0.4l-1,1.6l0.2,1.4l-1.9,0.3l-0.5-1.8l-1.4,0.6l0,0.8l-2,0.3l-1.8-2l0.5-2.4l-0.7-0.5l-1.2-3.7l0.9-0.2
				      l0.5-0.9l-0.9-1.4l0.7-0.5l-0.4-0.6l0.5-1l-0.8-0.3l0.5-1.5l2.4-1.3l1-2.6l1.3,0l4.9-4.5l2.4,4L343.6,439.2z"/>
  <path id="divi-5347" class="st0" d="M246.7,447.1l0.4,0.2l-0.4,2.5l1.1,0.7l0.5,2.7l-0.4,3l1.8,1.7l-1.1,4.2l-1.2,1.9l-2.6,1
				      l-2-1.5l-1.7,2.2l-0.5-0.2l-0.2-1.9l1-1.4l0.4-2l-1.8-0.6l-1.7,0.6l-3.2-0.8l-1.8-2.9l-2.3-1.2l-1.7-2.8l0-2.1l-0.6-1.1l0.8-0.6
				      l-0.5-0.6l2.1-1.6l2.8-0.9l0.4,1.5l1.5,1.9l0.6-0.7l2.5,0l3.8-3l2,1.7l0.6-1.2L246.7,447.1z"/>
  <path id="divi-5353" class="st0" d="M220.8,528l-1.6,1.7l-1.1-0.1l-1.5,0.9l0.4-0.5l-1.1-0.3L215,528l-0.6,0l-0.8,1.1l-0.7-0.9
				      l-3.5-1.7l-1.2-2.7l-1.2-0.8l0.8-1.7l5.4-2l0.7-1.5l1.1,0.1l0.4-0.9l-1.1-1.3l1.2-0.1l2.5,0.2l2.4,1.7l-1,6l0.1,2.2L220.8,528z"/>
  <path id="divi-5360" class="st0" d="M267.4,458.6l-3,3l-0.5,1.3l-3.3,1.5l0-1.2l-2.9-0.6l-0.4-0.8l2-1l-0.8-1.8l-0.6-0.1l0.3-0.9
				      l6.5-1.2l1.4,0.6l0.1,0.6l1.8-0.7L267.4,458.6z"/>
  <path id="divi-5361" class="st0" d="M275.6,270.9l1.8,1.2l-0.8,1.8l-0.3,2.9l3.4,0l1.3-1.1l0.8,0.3l1-0.6l0.6,0.8l-0.3,1l1.7,1
				      l0.7,2l1.6,0.7l0.4,1.3l1.8,0.8l0.5,1.3l-5.3,4.3l-5.3-1.1l-1.5,1.1l-2,2.9l-5.4,0.8l-5.1,2.6l-1.4,1.1l-1.3,3l-3,2l-0.7,1.2
				      l-3.4,0.1l-0.9,0.5l-0.6,3.4l-1.6,3.8l-2.1,1.5l-0.4,0l-1.1-0.7l-4.1,1.3l-1.2-0.3l-1.3,1.3l-1.2-0.2l-1.7,2.2l-1.7,0.2l-0.6,1
				      l-0.9,0.3l-0.1,1.3l-3.3-2l0-3.5l-1.4-0.2l-0.8-1l-2.2-0.7l-1.8-1.6l-3.5,0.1l-1.5,1.6l-0.8-1.2l0.3-0.9l-1.5-0.2l-0.6-1.1
				      l0.1-2.1l0.9-2.4l-0.2-1.3l0.5-0.5l-1.8-0.6l-0.7-1.3l2.2-3l-1.3-2.9l-0.6-3.9l-0.4-0.4l-2,0.6l-1.1-0.3l-0.3,1.7l-2.2,1.9
				      l0.7,1.2l-2.1,1.1l-2-0.2l-0.8,4.9l-2.8,3.3l-0.6,0.6l-3-0.4l0.1-0.8l-1.2-1.4l-1.3,0.3l-4.4-4l-3.4-1.1l-1.8,0.2l-1.6,1.3
				      l-2.7,0.4l-1.5,2.7l-1.4,0.9l-2.9-1.7l-2.2,0.4l-1.2,1.3l-3.5,0.2l-6-2.8l-1.1-2.6l-2.3-1l-3.2-4.4l-1.4,0l-1.8,1.5l-3.4-0.2
				      l1.4-2.8l-0.4-2.6l0.8-3.7l-2.1-5.8l-1.6-1.9l-2.9,0.6l-1.5-0.3l-5.1-7.3l-3.2-0.9l-2.3-1.9l-1.2-4l-0.7-0.7l57.8,3l12.8,0.7
				      l20.1,1.3l1.4-2.4l-0.4-2.7l0.9-3.1l2-1.5l1-0.3l1.4,0.6l0.4,0.9l17.2,1.7l8.5,0.7l11.6-0.2L275.6,270.9z"/>
  <path id="divi-5364" class="st0" d="M230.5,546.3l3.3,0.1l2,2.8l1.1-0.2l0.9-1l1.1,0.8l0.9,1.5l0.1,1.5l-0.3,1.4l-1,1.2l-0.1,1.6
				      l1.6,0.2l1.4,1.1l1.8,4l-2.5,1.9l-3.4,0.5l-0.6,2.1l-2-0.9l-2.5,2.4l-1-0.1l-0.5,2.1l-1.5,0.3l-2,1.6l-0.2,2l-2.5,0.3l-1.5-1.1
				      l-0.2-1l-1.2-0.8l-0.8,2.9l-0.9-0.5l-2.3,1.5l-2.9,0l1.3-0.5l2-2.6l-0.5-1.5l0.5-0.7l-0.1-1.7l2-1l-0.3-7.3l-1.5-2.4l0.5-1.4
				      l-0.1-5.6l1.6-0.8l5.1,1.6l1.7-1l2.6-3.4L230.5,546.3z"/>
  <path id="divi-5368" class="st0" d="M253.9,522.4l-1.1,0.4l-2.4,3.7l-3.9,1.2l-0.1,2l-4.7,3.5l-1.1,0.3l-0.7,3.4l-0.6,0.8
				      l-1.1,0.2l-1.5,2.8l-4.6,1.7l-0.6,0.8l0.5,2l-1.5,1.4l-0.5,0.1l-0.2-1.7l-0.9-0.5l0.4-1.5l-1.9-3.6l0.4-1.4l-1.3-2.1l-0.3-2.3
				      l-0.4-1.2l2.5-2l1.4-6.3l-1-2.6l0.5-1.1l-0.3-1l0.7-1l0.4,2.7l0.7,0.8l0.4-1l1.5-0.2l1-1.1l1.2-0.2l1.6-2.9l1.1-0.9l1.2-4.7
				      l0.7,0.1l0.3,1.1l2.4,2.2l1.2,2.5l1.1,0.8l4.2,0.7l3.8,2.3L253.9,522.4z"/>
  <path id="divi-5376" class="st0" d="M299.7,478.9l2.4,1.3l-0.2,2.1l1.2,2.1l0.7,0.2l-1,1.5l0,1l-1.3,0.3l-0.9,1.9l-1.4,1.1
				      l-2.2-0.7l-2.7,3.7l1.4,3.9l0.2,2.2l-1.4,5l0.2,1.4l-1.3-0.5l-1.2,0.3l-1.5-2.3l-1.1,0.3l1.1-1.4l-0.8,0.1l-0.3-1l0.5-0.9
				      l-2.3-0.7l-1.3-1.2l-1.9,0.5l-0.6,1.2l-2.8-1l-1.3-3.1l0-1l1.1-0.4l1.3-1.6l1.7-0.2l1.6-2.4l1.7-0.7l0.4-2.4l0.8-0.5l0-1.7
				      l0.7-1.7l1-0.8l-0.2-2.4l1.1-1.5l0.9,0.4l1.4-1l1.8,1l1,0.3l1.2-0.9L299.7,478.9z"/>
  <path id="divi-5380" class="st0" d="M257.1,461.8l0.4,0.8l2.9,0.6l0,1.2l-1,0.2l0.5,1.2l-0.5,1l1.9,1.9l1.1,0.2l1,1.4l-3.3,1.6
				      l-1-0.9l-1.5,0.6l-1.8-0.3l-0.2-1.3l-0.7,0.3l-0.5-0.6l-1.6,0.4l-1-2.6l-0.1-4.7l0.8-0.6l0.6,0.3l3.6-0.8L257.1,461.8z"/>
  <path id="divi-5390" class="st0" d="M270,534.9l-1,0.1l-1-1.1l-2.1-0.9l-1.3-0.3l0,3.4l0.6,0.9l-0.6,4.9l-2.5,1.9l-1.1-1l-0.2-0.4
				      l1.7-2.5l-1.8-3.9l0.2-0.7l-1.1-0.5l1.1-1.7l0.1-1.6l-2.5-2l-0.3-0.4l-0.6,0.4l0.3-0.8l2.5,1.5l1.1-1.9l-0.4-3.5l0.4-1.7l-0.7-2.2
				      l1.5-3l3.8-2l0.9,0.7l-1,0.4l0.1,4l-0.6,1.1l1.9,2.3l0.4,3l1.9,4.4L270,534.9z"/>
  <path id="divi-5400" class="st0" d="M316.1,510.3l-1.7,0.4l-0.5-0.6l0.1,0.9l-1.7,0.3l-1.2-1.6l-0.3,0.4l-1-0.3l-0.1-0.6l-2.8,0.2
				      l-1.1-1.1l-1.2,0.6l-0.5-0.6l-3.8,0.6l-3.3-2.8l-1-0.3l-0.6,0.6l0.1-0.6l-0.9,0l-0.2-1.4l1.4-5l-0.2-2.2l-1.4-3.9l2.7-3.7l2.2,0.7
				      l1.4-1.1l0.9-1.9l1.3-0.3l0-1l1-1.5l2-0.4l1.1,0.5l0.3,0.9l0.8,2.2l-1.3,0.5l-0.5,0.9l1.8,2.1l1.6,4.2l0.6,0l0.1,1.7l0.8,0.7
				      l2.3-0.5l0.8-2l1.4,2l0.1,3.6l-1.3,2.7l0.6,1.1l-0.1,2l1,0.4L316.1,510.3z"/>
  <path id="divi-5411" class="st0" d="M243,357.5l0.9,1.1l2.2,13.2l-0.3,3.4l0.5,4.5l-1.4,2.5l-1.7,0.3l-0.6,1l-1.1-0.7l-1.6,0.5
				      l-3.3-3l-1.8,0.1l-0.5,0.9l-3.4,0.9l-2-0.6l-0.7,2.7l-1.5-1.3l-0.4-1.8l-0.2-1.5l0.6-1.9l-2.4-5l-1.2,0.1l-0.9-1.4l-0.3-2.5l2.7-2
				      l-1.7-1.8l-0.7-2.5l-1.6-1.9l3-0.7l1.7,1.4l2.3-1l1.6,0.5l1.7-0.9l2,0.5l5.1-0.3l2.3-1.4l0.2-0.9l1.9-0.6L243,357.5z"/>
  <path id="divi-5425" class="st0" d="M434.1,384.7l-0.9,1.9l-2.1,0.3l0.4,0.7l-0.6,0.4l0.1,0.6l-0.6-0.5l-1.1,0.9l-0.4,2.6
				      l-0.6-0.1l-0.6,1.4l-0.8,0.2l-0.5,1.4l-3.5,1.7l0.1,1.5l1.3,1l0,2.3l-1.1,2.1l-0.3,2.3l-1.3,1.9l-0.1,2.7l-1,2l-0.8,4l-1.5-0.2
				      l-0.5,0.5l-0.2-1l-2.4-0.3l0.4-0.8l-0.5-0.5l0.1-1.2l-1,0.1l-5.3-2.1l-2.9,1.1l-2.1-1.6l-1.3,0l1.4,5.5l-0.3,1.4l1-0.1l0.2-0.8
				      l0.7,0.7l0.7-0.5l2.3,1.3l-0.8,0.9l-0.2,2.5l0.8,1.4l-0.2,2.1l0.8,0.4l-0.6,0.5l-1.9-0.2l-0.7-2.5l-0.8-0.7l-2.6,0.1l-0.6-2
				      l-3.1-0.5l-1.9-4.5l-1.4-0.5l-1,0.6l-0.8-1.2l-0.1-0.1l-1-1.3l0.1-1l-0.6-0.1l0.7-1l-0.5-1.1l-0.7-1.1l-1.1-0.3l-0.8-1.9l-0.4,0.1
				      l-0.6-1.7l-1.8-1.7l-2.9-0.6l4.4-8.5l1.5-1.8l6.6,0.2l9.7-1.5l0.6,1l1.3-1.5l0.7,0.4l2.6-1.5l0.8,0.5l0.4-0.3l1.4,1.7l0.9,0
				      l1.6-1.2l0.6-1.4l-0.4-0.3l0.8,0.2l0.3-0.8l1.8,0.1l0.6,0.7l2.6-0.9l0.7-2.2l0.6-0.1l0.1-2.3l1.4,0.2l2-0.8l0.5,0.6l2.4,0.6
				      l1.7,1.7l0.2-1L434.1,384.7z"/>
  <path id="divi-5440" class="st0" d="M316.2,447.2l5.8,8.3l0.6,2.1l-1,0.3L321,461l0.4,0.4l-2.6,0.5l-0.4,0.8l-0.8-0.2l-0.7,1.3
				      l-1.4-0.1l-0.9,1.2l-2.7-0.4l-0.3,0.6l0.6,0.9l-0.2,4.1l0.8,1l-0.4,0.6l-2-0.1l-4.4-1.9l0.1-2.9l-0.6-0.7l-0.4,0l-1.1-4.6l-1-0.4
				      l0.7-1.8l2.1-1.2l0.4-1.3l2.6,0.3l0.6-0.4l-0.4-0.8l0.9,0l-1.4-1.2l0.6-0.6l-0.6-0.3l0.5-0.9l1-0.6l-1.1-0.1l0-0.7l3.4-1.4
				      l1.3-3.6l0.5,0.1L316.2,447.2z"/>
  <path id="divi-5467" class="st0" d="M269.2,486l-0.2,2.7l-0.9,2.3l0.4,1.5l1.4-0.1l0.8,1.4l1.5,0.8l1.7-0.6l0.7,0.7l0.6-0.6l1,1.8
				      l1.8-0.4l1.5,0.6l1.3,3.1l2.8,1l1.3,2.2l-0.3,1.9l-1.9,1.5l-0.2,2.3l1.2,1.4l-0.4,1l-3.4,1.6l-3.4-1.1l-1.3,1.4l-2.5-5.6l0.5-0.7
				      l-0.6-0.7l0.5-1l-0.8-0.7l-0.7-3.6l-4.2-5.1l-0.3-1.4l-0.9,0.2l-0.9-0.8l-1-1l-0.7-1.4l0.7-1.8l1.4-0.2l1.9-2l1.3-0.6L269.2,486z"
	/>
  <path id="divi-5475" class="st0" d="M109.9,325.2l0.8,2.2l-0.2,4l1.4,1.2l2.1-1.5l1.7,6.9l-0.8,0.4l-3.7,5.1l-1.5,1l-1.7-0.3
				      l-0.5,2.5l0.4,1.3l-1.5,1.3l-0.3,1.3l0.3,3.7l-1.5,3.2l-0.1,1.8l0.7,0.5l0,0.8l-1.4,3.1l-2.5,2l-3,1l2.3,4.8l2.7,0.7l0.6,2.6
				      l1.2,0.7l0.4,4.3l0.7,1.3l0,3.4l-3.5-1.2l-4.5-0.1l0.1-1.1l-1.7-0.3l-0.2,1.5l-0.7,0.1l-3.8-0.8l-4.2,0.4l-1.7-1.8l-1.5-0.4
				      l-2.6,1.9l-2.9,1l-7.5-0.7l-1.2-0.8l-4.3-0.8l-2.3,0.2l-0.5-0.5l-0.8,0.5l-1.7-0.4l-2.5-2l-1-1.7l0.7-2.6l0.7-0.5l-0.7-1.9
				      l1.1-1.5l-1.8-0.4l0-1.6l-2.8-4l-1.5,0l-0.8-2.3l0.3-1.1l-2,0.2l-1.4-1.1l1.1-0.3l0.5-2l1-1.2l-1-1.8l0.9-1.8l1,0l-0.2-0.9
				      l1.7-0.9l2.3-2.3l1.8,1.2l1.8-0.3l1.1,2l2.2,0.9l0.1-1.6l2.3,0.5l0.3-0.5l-0.2-1.2l-2-1.4l0.1-0.6l5.3-0.6l1.1-1l-0.6-1.1l1.1-0.5
				      l0.1-2l-1.3-2.5l-0.7-7.1l-1.4-0.4l-0.8-2.1l-2.5,1.3l1.6-3.1l-1.9,0.3l0.3-1.1l-0.5-1.7l20.1-5.9l4.4,0.3l1-0.7l0.7,0.7l2.3,0.8
				      l2,1.6l2.5-1.3l1.3,0.4l1.1-0.4l2,2.6l1-1.7l0.6-0.1l1.4,4.8l2,0.6L109.9,325.2z"/>
  <path id="divi-5480" class="st0" d="M134.4,261.7l0.7,0.7l1.2,4l2.3,1.9l3.2,0.9l5.1,7.3l1.5,0.3l2.9-0.6l1.6,1.9l2.1,5.8
				      l-0.8,3.7l0.4,2.6l-1.4,2.8l3.4,0.2l1.8-1.5l1.4,0l3.2,4.4l2.3,1l1.1,2.6l-1.3-0.9l-4.9-1.3l-3.9,1.8l-1.2-0.4l-0.2-0.8l-1.4-0.3
				      l-6.3,0.6l-1.1-0.4l-0.7-1.6l-3.4-1.6l-1.4-0.4l-3.2,0.4l-7.2-3.7l-1.2,0l-0.5,1.9l0.6,4l-1.9-0.3l-0.1,3.4l-2.3,3.7l-2.7-0.5
				      l-1.5-1.4l-2.4-2.2l-1.3-2.5l-0.5-1.7l0.6-1.7l-1.5-1.8l-0.7-3.1l-1-0.8l-0.3-2.4l-1.6-3l-0.2,1.2l-0.7-0.8l-0.9,0.1l-2.2-2.1
				      l-3.1-5.4l-1.1,1l-0.7-1l0,0.5l-1-0.1l-1.2-1.1l-0.1-0.9l-5-1.1l-0.2-0.7l-0.9-0.1l-10.6-7.7l-1.6-2.1l-1.5-3.2l-3.8-10.4
				      l17.2-0.1l2,0.4l0.5,1l2.1,0.7l1.1-1.3l1.4-0.3l1.9-2.3l2.2-1.3l0.1-1.2l-0.5-0.5l3-5.5l3.4-0.5l1.8-2.3l1.9-0.2l2.2-1.2l1.7,1.1
				      l0,1.7l1.8,0.3l1.1,2.9l1.5,0.4l0.3,1.2l1.6,1l-0.4,3.1l1.6,1l1.3,2l-0.1,1.2l1.7,1.9l0.2,4.5l0.9,1.3l0.5,3.4l2.5,0.2
				      L134.4,261.7z"/>
  <path id="divi-5483" class="st0" d="M324.8,542.7l5.1,3.1l1.1-0.1l0,0.6l2,0.6l0.2,0.7l1.7-0.5l1.3,0.6l0.7-1.1l1.6-0.6l1.8,0.4
				      l0.1-1l0.9-1.1l3.4,0.9l0.6-0.6l0.8,0.3l0.2-0.9l0.9-0.6l4,1.6l-1.3,0.9l-1.5-0.7l-1.2,1.1l-0.8,2.1l1.6,4.3l-1.1,1.3l0.1,0.9
				      l0.9-0.1l0.4,0.8l-0.6,2l-3.3,2.4l-0.5,1l-0.8,0.2l-0.2,0.8l-1.3,0.9l-0.5,1.5l0.1,1.1l-1.3,1.8l-2.8-0.3l-6.7,1.8l-1.9,2.1
				      l-2,0.5l-9,13.8l-0.5-0.1l-0.1-3.2l-0.7-0.7l-0.4-2.4l0.6-2.9l-0.2-2.3l1.4-2.6l3.7-3.9l-0.2-2.5l1.1-5.9l-2.9-2.8l-0.7-1.4
				      l0.1-1.5l1.7-3.7l-0.6-1.6l0.4-2.8l-0.5-2.7l1.3-1.3l2,1.4L324.8,542.7z"/>
  <path id="divi-5490" class="st0" d="M107.8,60.9l-1.3,0.8l-0.6,4l2.4-0.2l0.4,3l2.5,1.3l0.6-0.3l0.9,2.4l1.1,0.9l0.9-0.2l0.2,1
				      l2.6,2.6l-0.3,0.5l1.9,0.8l0.5,0.9l1.3-0.4l1.5,3.2l-0.2,1.8l0.6,0.3l0.1,0.9l1.9,0.8l1.6-1.2l2.2,2.2l0.9-0.2l1.1-1.5l3.1-2.7
				      l0.6-0.2l-0.6,1.3l-0.6-0.1l-0.5,0.4l-1.3,2.1l-2,4.7l-1-0.5l-1,0.7l0.3,1.3l-0.6,0.8l0.3,1.4l-0.7,1l0.4,0.9l-0.5,1.1l2.8,1.7
				      l0.2,1.7l-0.9,1.2l-1,0l-1-1.7l-1.7-0.4l-2.7,0.5l0.4,0.7l-1.2,0.1l-0.4,0.7l-1-0.7l0.5-0.9l-0.7-0.7l-0.8-0.4l-0.9,1l-0.2-1.2
				      l-0.9,0.1l1.2-0.4l-0.9-0.4l0.1-0.8l-1.8,0.4l-0.9-0.9l-0.8,0.4l-0.2-0.5l-2.7,0l0-0.6l-1.5,0.1l-0.5-1.1l-0.5,0.5l-1.9-0.2
				      l-2.6,1.1l-0.6-0.8l0.1,1.8l-1.1,0.6l0.7,1.1l-1.7,0.1l0.9,0.8l-1-0.2l-1,1.2l-0.6-0.4l0.2-0.7l-0.5,0.3l0.4,1.2l-1,0.2l0.5,1.8
				      l-0.7,0l-0.8,3.3l-1.5,0.5l-0.6,1.2l-2.5-0.1l-0.7,1.7l-2.3,1.1l-2.7-0.1l0.7,2.7l-0.8,2.4l-0.8,0.3l-0.5-1.4l-1.3,0l-0.3-0.7
				      l-0.5,0.7l-1.4-0.5l-1.3,1.1l-0.6-0.5l-1.8,3.2l-0.9,0l0-0.6l-0.8,0.5l-0.1-1l-0.6,0.5l0.1-0.7l-0.7,0.5l0.2-0.4l-1.5,0l-0.6-0.6
				      l-0.7,0.8l-0.1-1.4l2.1-4.3l1.1-5.3l-1.3-3l0.4-6.2l-1.8-4.1l-1.1-0.7l-2.2-0.1L69.4,89l-1-5.1L64,78.6l-3.2-2l-8.4-2.5l-2.8-2
				      l0.2-1.3l-2,0.7l-1.1-1.1l-0.1,0.7l1.7,2.5l1.3-0.6l-1,1.1l-2-2.1l-0.5-2.4l7.5-6.3l0.9-1.9l-0.4-0.7l0.3-2.8l15.9-1.8l21.5-4.8
				      l0.2-1.2l1.9-1.3l1.5-2.4l0.2-1.1l-1.2-2.1l1.9-1.5l0.6,1.5l0.1,1.4l0.6,0.3l-0.5,1.1l3.1,0.6l-0.3,1.2l1,1.1l-0.8,4.9L105,56
				      l1.2-0.2l-0.9,3.2l0.9,0.9l1.1,0.1L107.8,60.9z"/>
  <path id="divi-5495" class="st0" d="M434,166.1l-1.3,1.1l-0.6,1.6l-1.6,0.1l-3,2l0,1.5l-0.8-0.5l-1.3,0.3l-0.2,2.3l-1.7,0.2
				      l-1.2,1.3l-0.1,1l-0.8,0.1l-0.8-1l-0.3,0.5l-0.6-0.3l0-1.1l-0.8,0.1l-0.3,0.8l-1.8-1.9l0-0.8l-2.1-1.1l-0.6,1.1l-2,0.6l-0.6-0.3
				      l0.1-1.5l-0.7-0.5l-4.1,0.3l0.3-0.7l-1.2-0.4l-0.7-1.2l-1.9-0.2l-1.1-1.1l-0.4-1.9l-2.5-0.7l-0.6,0.5l-0.1-0.7l-1.7-0.5l0.2-0.9
				      l-0.6-1.5l-0.7,0l0.2-1.2l-1.5-1l-1.1,1l1.1,2.2l-2.2,1.7l0.5,2.7l-1,2.7l2.2,3.1l-0.8,2.8l1.9,1.3l-1.3,2.1l0.9,2.2l-0.5,1.9
				      l1.6,2.7l1.8,0.5l0.7,0.9l-0.7,1l-1.4-0.8l-0.9,0.5l0.1,1.6l1.4,2.1l-2.5,2.6l-0.1,0.8l-0.8,0.6l-0.5,1.6l-1.6,0.5l-16.3-7
				      l-0.3-0.3l0.6,0.2l0.7-1.8l-0.6-0.2l0.4-1.4l-1.1-0.5l0.4-0.3l-0.5-0.6l0.7-0.1l-0.9-0.8l0.5-0.5l-1-0.3l-0.7,0.9l0.2-1l-1.4-0.6
				      l-0.5-0.9l2-3l-0.4-1.2l1.1-0.2l0.1-1.1l0.9-0.8l-0.5-0.4l1,0l1.3-1.3l0.8,0.5l0-1l1.2,0.8l0.9-0.7l-0.8,0.3l-0.3-0.6l1.3-1.3
				      l-0.4-1.9l-1.9-0.8l-1.5-4l-1.4-0.1l-1.2-3.3l-1-1l-0.8,0.3l-1.5-5.6l2.5-1.5l3.1,0.7l0.2-11.1l4-4l2.7-4.4l0.3-1.8l1.2-1l0.1-1
				      l-0.5-0.1l-0.8-2l-0.1-3.3l7.3-0.2l0.3,0l0.8,0.2l2,2.5l0.9,3l2.7,1.5l0.7,1.5l-0.4,3.5l1.8,0.5l2.1-0.4l0.5-1l1.8,0.8l1.7-1.6
				      l-0.5,2.6l2.6,0.4l0.1,1.7l1.4,1.5l1.3-0.5l1.8,1.9l1.3-0.2l2.7,2.3l0.9,2.5l2.8,1.5l1.2-0.9l1.9,0.3l0.9,3.3l2,0.7l1.8-1.1
				      l-0.2,0.9l2.2,4.7l1.5,1l1.3,3.2L434,166.1z"/>
  <path id="divi-5501" class="st0" d="M244.8,382.2l0.6,0.9l0,2.2l-0.6,1.8l-4.2,1.4l-2.7,3.1l-0.3,3l1,0.9l0.8,4.2l-2.3,1.3
				      l-2.3-0.4l-1.7,0.8l-0.8-0.4l-0.5,0.6l-0.2-2.1l1.1-3.7l-0.3-2.2l-1.1-1.1l0.3-1.2l-1-0.5l-1.2-5.3l-1.2-1l0.7-2.7l2,0.6l3.4-0.9
				      l0.5-0.9l1.8-0.1l3.3,3l1.6-0.5l1.1,0.7l0.6-1L244.8,382.2z"/>
  <path id="divi-5541" class="st0" d="M334.9,439.7l-1,2.6l-2.4,1.3l-0.5,1.5l0.8,0.3l-0.5,1l0.4,0.6l-0.7,0.5l0.9,1.4l-0.5,0.9
				      l-0.9,0.2l1.2,3.7l0.7,0.5l-0.5,2.4l1.8,2l2.2,2.9l-1.8,1.8l-1-0.7l-0.6-1.7l-3.2,0.7l-1.1,2.1l-4.1-1.1l-1-1.1l-1.3-0.2l-0.3,0.1
				      L321,461l0.6-3.2l1-0.3l-0.6-2.1l-5.8-8.3l0.4-1.8l1.1,0.6l1.8-0.4l1.5-0.8l0.5-1.1l3.5-1.1l0.3-1.5l-0.5-1.5l-1.6-2.4l-1.4-0.9
				      l0.6-1.2l0.1-1.5l1.3-1.2l2.2,0l4.4,5.1L334.9,439.7z"/>
  <path id="divi-5543" class="st0" d="M236,317.9l-0.5,0.5l-1.6,0l-0.2,2.1l-0.8,0l-0.7,1.4l-2.3,1l0.9,1.3l-0.9,1.7l-0.1,1.7
				      l-1.8,1.5l-0.3,4.5l-1.1,2.2l0.8,1.6l-1.1,4.1l0.5,2l-0.9,2l-1.5,1.1l-4-2.9l-0.1-2l-1-2.5l-2-0.1l-1.7-1.3l-1.3-3.4l0.8-4
				      l-0.7-0.6l-1.1,0.1l-1,2.1l-1.7-0.6l-1,0.4l-1.7-1.2l-1,0.4l-2-2.2l-2.2-1.5l-0.5-2l1-0.4l0.7-2.5l-0.2-3.6l1.7-9.1l-1-0.3
				      l0.5-2.6l-0.5-1.8l0.5-1.5l2.8-3.3l0.8-4.9l2,0.2l2.1-1.1l-0.7-1.2l2.2-1.9l0.3-1.7l1.1,0.3l2-0.6l0.4,0.4l0.6,3.9l1.3,2.9l-2.2,3
				      l0.7,1.3l1.8,0.6l-0.5,0.5l0.2,1.3l-0.9,2.4l-0.1,2.1l0.6,1.1l1.5,0.2l-0.3,0.9l0.8,1.2l1.5-1.6l3.5-0.1l1.8,1.6l2.2,0.7l0.8,1
				      l1.4,0.2l0,3.5L236,317.9z"/>
  <path id="divi-5576" class="st0" d="M218.1,504.8l-0.3,1.5l0.7,1.8l-0.2,4.7l1.5,0.9l0.9,2l1.2-0.4l0.5,0.5l2.1,3.6l3.2-0.7
				      l1.2,0.3l0.3,1l-0.5,1.1l1,2.6l-1.4,6.3l-2.5,2l0.4,1.2l-1.4-2.3l-2.7-1.1l-1.2-1.7l-1.2-2.2l-0.1-2.2l1-6l-2.4-1.7l-2.5-0.2
				      l-1.2,0.1l0.5-0.7l-0.4-0.6l-1.3,0.2l0.1-2.5l0-1l2.2-4.4l1.6-0.6l-0.3-1l0.6-0.7l0.5,0.4L218.1,504.8z"/>
  <path id="divi-5579" class="st0" d="M466.4,385.7l-1.6,4l-2.9,1.1l-2.5,1.8l-0.5,3l-1.5,3.5l0.5,1.9l1.7,1.3l2.1,3l-1.2,2.4
				      l0.2,1.4l-1.2,3.6l5,6.9l0,3.5l-1.4,1.3l-4.4,0.7l-4.9,2.6l-1.5,3.3l-0.5,5.1l-1.6,1.8l-4.1,1.8l-2.3,2.4l-4.2,2.6l-1,0.6
				      l-1.3-0.5l-1,0.9l-1.8-0.5l-4.4,2l-2.8,0.6l-0.8-0.5l0.6-1.6l-0.9-1.4l-1.2-0.1l-1.5-1.1l-1,1.2l0.5-4.7l1.2-0.9l-0.4-0.7
				      l-2.5-2.1l-1.6-0.4l-1.5,0.7l-2.4-1.5l-0.3-1.2l-0.8,0l-0.1-0.6l0.6-2.1l-0.7-1.1l-2.1-0.4l-0.7-3.8l-1-0.6l-0.8,0.4l-0.4-1
				      l-0.7,0.3l-0.8-0.4l0.2-2.1l-0.8-1.4l0.2-2.5l0.8-0.9l-2.3-1.3l-0.7,0.5l-0.7-0.7l-0.2,0.8l-1,0.1l0.3-1.4l-1.4-5.5l1.3,0l2.1,1.6
				      l2.9-1.1l5.3,2.1l1-0.1l-0.1,1.2l0.5,0.5l-0.4,0.8l2.4,0.3l0.2,1l0.5-0.5l1.5,0.2l0.8-4l1-2l0.1-2.7l1.3-1.9l0.3-2.3l1.1-2.1
				      l0-2.3l-1.3-1l-0.1-1.5l3.5-1.7l0.5-1.4l0.8-0.2l0.6-1.4l0.6,0.1l0.4-2.6l1.1-0.9l0.6,0.5l-0.1-0.6l0.6-0.4l-0.4-0.7l2.1-0.3
				      l0.9-1.9l0.6,0l-0.2-0.5l0.9-0.3l1.4-1.9l1.3,0l2.1-2l4.4-5.4l7.3-9l1.6,2.4l1.5,0.5l1.3-0.4l1.2,0.8l1,2.4l3.3,4.6l-0.2,0.6
				      l-0.9,0l0.9,0.9l-0.8,1.5l1.2,0.6l-0.1,1.8l-0.5,0.5l1.3-0.2l-0.8,1.3l1.5-0.5l0.2,0.9L466.4,385.7z"/>
  <path id="divi-5585" class="st0" d="M422.4,444.4l1-1.2l1.5,1.1l1.2,0.1l0.9,1.4l-0.6,1.6l0.8,0.5l2.8-0.6l4.4-2l1.8,0.5l1-0.9
				      l1.3,0.5l-3.1,5.1l-2.6,2.9l-1.3,3.5l-0.9,5.7l-0.9,2.1l-2.1,1.7L427,468l-0.2,1.1l1,1.5l0.4,3.1l3,2.1l2.9,1l-2.2,4.4l-0.8,1.3
				      l-1.1,0.3l0.1-0.7l-0.6-0.2l-0.8,1.1l-1.1-0.1l-0.3,0.8l-0.5-0.6l-0.1,0.9l-0.5-0.8l-0.6,0.3l0-0.6l-1.9,1.2l-1.1-0.4l-0.1-0.9
				      l-0.1,0.7L421,484l-0.1-1l-1.5,0.2l0.3-1.2l-0.5,0.4l-0.7-1l-0.7,0.1l-0.6-0.6l-0.6,1.7l-1.7,0.1l0.4,0.7l-0.8,1l-1.8-0.3l-0.5,1
				      l-1.3-0.6l-0.7,0.5l-0.5,1.6l0.8,0.7l-1.4,2l-1.1,0.3l0.6,1.1l-0.4,1l-5-1.7l-3,0.7l-1.1-4.9l0.5-0.2l1-4.2l-0.6-1.3l-2,0l0.1-0.6
				      l-0.8-0.3l-0.7-1.8l-0.7,0l-0.3-1.2l-0.9-0.5l0-2.3l-2.6-1l-0.1-4.9l1.5-3l1.9-1.3l0.4-1.9l1.9-3.2l1.6-1.3l5.5-0.9l2.2-1.6
				      l2.1-3.9l2.8-8.2l1.1-0.6l1.7,1.2l5.9,8.6l1.2,0.4L422.4,444.4z"/>
  <path id="divi-5591" class="st0" d="M431.9,481.3l0.7-0.2l0.6,1.5l-0.1,4.1l1.4,3l-0.5,1.7l-2.4,1L428,492l-2.1,1l-0.2,1l0.4,4
				      l6.5,6.3l-2.5,0.7l-2.1,2.7l-5.3,1.5l-2,3.5l-2.1,0.1l0-0.5l-14.2-4.2l-16.8-6.1l-0.1-1.4l1.7-1.6l1.4-0.3l0.8-1.8l1.3-0.6
				      l0.1-1.6l1.6-0.3l0.5-2l1.5-0.7l3.2,0.2l0.6-1.1l3-0.7l5,1.7l0.4-1l-0.6-1.1l1.1-0.3l1.4-2l-0.8-0.7l0.5-1.6l0.7-0.5l1.3,0.6
				      l0.5-1l1.8,0.3l0.8-1l-0.4-0.7l1.7-0.1l0.6-1.7l0.6,0.6l0.7-0.1l0.7,1l0.5-0.4l-0.3,1.2l1.5-0.2l0.1,1l1.3-0.4l0.1-0.7l0.1,0.9
				      l1.1,0.4l1.9-1.2l0,0.6l0.6-0.3l0.5,0.8l0.1-0.9l0.5,0.6l0.3-0.8l1.1,0.1l0.8-1.1l0.6,0.2l-0.1,0.7l1.1-0.3L431.9,481.3z"/>
  <path id="divi-5604" class="st0" d="M485.8,324.7l0.3,1.2l-1.1,0.2l-0.4,1.1l-1.4,0.5l0.6,1.1l-0.4,1.5l-1.1,0l0,0.4l-1.8-0.3
				      l-3.6,1.3l-0.2,0.9l-1.7,0.1l-0.1,1.2l-0.6,0.1l0.3,0.7l-0.8,0.2l0.9,0.7l-0.5,0.7l0.6,0.1l-1.7,2.4l-0.7,0.1l0.1-0.9l-1-0.6
				      l-1.1-0.1l-0.7,0.7l-0.2-0.7l-0.8,0.5l0,0.7l-0.6-0.1l-0.1,0.8l-3,0.3l-0.3-0.7l-1.2,0.7l-0.4,0.9l0.3,1.3l-2.4,1.5l-0.1,0.9
				      l1,1.4l-0.2,1.3l-0.6,1.3l-1.7,0.8l1.1,0.6l0,0.7l-2,1.6l-1.6,5.1l-2.7,2.7l-1.3,0.2l-3-4l-1.5-1.1l-1.8,1.3l-1.2,2.9l1.6,1.1
				      l1.6,0.2l0.8-0.5l1.6,1.6l1-1.3l0.7,0.5l-0.9,4.5l-7.3,9l-0.8-0.6l-2.3,0.2l-1.1-1.2l-1.5,0.1l-3.4-1.2l-2.9,0.6l-1.5,1.1
				      l-0.5-1.8l0.6-0.6l-0.5-1l0.5-0.8l-0.6-1.1l0.6-1.8l0.2-5.5l0.1-1.7l-0.7,0l-1.5-2.6l0-1.2l0.7-0.2l0.2-0.7l0.7,0.2l-0.4-0.9
				      l1.5-1.9l0.5-4.1l-0.6-1.2l-1.5-0.3l0.4-1.6l-0.6,0.1L429,344l0.7-2.2l-0.9-2.1l-1.2,0.2l-0.1-1l-1.9,0.6l-0.6-0.7l-1,0.4
				      l-0.1-0.7l-1.2,0.2l0.3-0.9l-1,0l-1.3,1.8l-1.2,0.4l-1.7-1.2l-2.9,0.6l-1.9-0.5l-0.9,0.3l-0.5,2l-0.9,1.1l-1.6-0.7l-2.3,0.9
				      l-0.5,0.9l-14.8,3.6l0-2.9l0.8-0.2l0.2-0.9l-1.2-1.6l-0.7-4.1l-1.9-2.5l0.4-0.6l-1.2-1.7l0.9-1l-0.3-2.4l0.7-2.1l-0.2-0.4
				      l-0.3-3.4l0.5-1.5l-0.9,0.7l-0.5-0.4l0.2-0.7l-1.7-0.3l0.5-1.4l-0.7-0.4l0.3-0.8l-0.6-0.8l0.9-3l1.1,0l-0.2-0.9l-0.6-0.1l0.3-1.2
				      l0.9-0.5l-0.3-0.8l1-0.2l0.5-1l-0.6-1.4l0.1-4l-0.6-1.3l14,0.4l7.1,9.6l1.2-0.2l-0.3,0.7l0.6,0.1l1.1-0.8l0,1.1l0.6-1.5l0.8,0.1
				      l0.7-1.2l0.7,0.3l0.5-2l1.9-2.2l1.3-8.2l3.3,0l0.7-0.7l39.8-17.5l0.1,0.2l-1.5,2.9l-0.2,2.4l-1,1l0.3,1.2l-0.9,0.4l0.8,1.5l-1,1.3
				      l0.1,1.4l0.6,0.8l0.9-0.1l0.5,2.8l0.8-0.2l0.4,2l0.5-0.2l0.6,2.2l0.9,0.9l0.1,1.9l1.1,1.2L465,306l0.5,2l-0.6,0.2l0.1,1l0.9,1.4
				      l0.5-0.3l0.1,1.1l1.3-0.7l0.5,1.2l-0.3,2.8l0.5,1.6l-0.8,7.4l1-0.5l3.2,0.3l1.4-1.3l1.1,2.1l0.9,0l-0.3,0.5l0.7,0.6l2.2-1l0.9,0.7
				      l0.6-1.2l1.6-0.6l2.1,0.6l0.4,0.8L485.8,324.7z"/>
  <path id="divi-5607" class="st0" d="M284.8,463.7l0.2,5.7l2.6,2.3l-1.4,1.1l1.8,0.9l1.7,2.5l0.2,1.9l1.1,0.7l-1.1,1.5l0.2,2.4
				      l-1,0.8l-0.7,1.7l0,1.7l-0.8,0.5l-0.4,2.4l-1.7,0.7l-1.6,2.4l-1.7,0.2l-1.3,1.6l-1.1,0.4l0,1l-1.5-0.6l-1.8,0.4l-1-1.8l-0.6,0.6
				      l-0.7-0.7l-1.7,0.6l-1.5-0.8l-0.8-1.4l-1.4,0.1l-0.4-1.5l0.9-2.3l0.2-2.7l-0.4-3.6l-2-4.4l0.4-2.1l1.8-2.6l0.8-0.1l0.6-1l1.4,0.2
				      l1.2-0.5l1.2,0.7l-0.3-3.2l1.1-1.4l2.6-0.2l-0.2-1.8l1.4-1.3l-0.2-0.8l2.5,0.6l2.1-1L284.8,463.7z"/>
  <path id="divi-5615" class="st0" d="M309.1,452.8l-0.5,0.9l0.6,0.3l-0.6,0.6l1.4,1.2l-0.9,0l0.4,0.8l-0.6,0.4l-2.6-0.3l-0.4,1.3
				      l-2.1,1.2l-0.7,1.8l1,0.4l1.1,4.6l-0.6,1.8l0.2,1.6l-1.4,2.3l-2.6-1.4l-2.1,1.9l0.5,1.9l1,1.3l-0.7,3.6l-2.4-0.3l-1.2,0.9l-1-0.3
				      l-1.8-1l-1.4,1l-0.9-0.4l-1.1-0.7l-0.2-1.9l-1.7-2.5l-1.8-0.9l1.4-1.1l-2.6-2.3l-0.2-5.7l0.3-1.9l-1.5-1.2l-0.2-0.7l0.5-0.5
				      l-0.6-0.8l0.3-1.4l-0.3-1.1l1.8,1.6l1.3,0.3l0.1,0.6l0.3-1.4l4.6-1.7l0.8,1.3l1.4,0.4l0.7-1.2l0.5,0.5l1.1-2l3.6,0.3l1.3-1l-0.2-1
				      l1.8-1.9l0.6,0.3l0.8,0.6l2.5-0.2l0.4,1.5l1-0.7L309.1,452.8z"/>
  <path id="divi-5628" class="st0" d="M242.4,337.4l0.2,1l-0.8,0.4l0.6,2.9l-2.5,4.1l-0.2,2.8l-0.5-0.1l-0.5,0.8l0.5,2.7l-1,1.9
				      l0.6,0.8l-0.6,0.5l1.3,2.1l-1.8,3.1l-5.1,0.3l-2-0.5l-1.7,0.9l-1.6-0.5l-2.3,1l-1.7-1.4l-3,0.7l2.6-4.2l-1.7-2.2l0.2-1.6l3.5-3.1
				      l0.2-1.5l-0.6-1.8l1.5-1.1l0.9-2l-0.5-2l1.1-4.1l-0.8-1.6l1.1-2.2l0.3-4.5l1.8-1.5l0.1-1.7l0.9-1.7l-0.9-1.3l2.3-1l0.7-1.4l0.8,0
				      l0.2-2.1l1.6,0l0.5-0.5l0.1-1.3l0.9-0.3l0.6-1l0.6,1.2l1.1,1.6l-0.5,3.3l0.7,0.4l1.9,4.9l0.1,3l0.8,2.2l-0.3,2.3l0.6,0.5l-0.6,1.8
				      L242.4,337.4z"/>
  <path id="divi-5631" class="st0" d="M266.1,470.9l-2.7-0.6l-1-1.4l-1.1-0.2l-1.9-1.9l0.5-1l-0.5-1.2l1-0.2l3.3-1.5l0.2,0.2l0,1.1
				      l2.1,1.9L266.1,470.9z"/>
  <path id="divi-5642" class="st0" d="M224,496.7l-1.2,2.9l-0.4,1.1l-0.9,0.4l-0.1,1.7l-2,0.2l-1.3,1.8l-0.2,0.1l-0.5-0.4l-0.6,0.7
				      l0.3,1l-1.6,0.6l-2.2,4.4l0,1l-2,0l-2-2l-0.9-5.4l0.4-1.3l-1.4,0.1l-3.5,2.3l-3.6-1.9l-2,0.3l-1.5,1l-1.4-2.1l-1.1-0.2l-1.3-1.6
				      l-1,0l-1.6-0.6l-0.3-2.2l0.8-1.1l-2.6-1.6l0.1-2.7l-0.7-1l-1.4-0.7l-1,0.2l-0.5-2.1l-0.9-0.4l2.2-7.2l-0.4-1.2l5,1l3.8-0.1
				      l4.9-3.6l3.5,3.5l0.4,0.4l1.7-0.6l0.5,0.8l3.1,0.3l0.5,0.7l-0.4,3.5l0.6,3.3l-1.2,0.3l-0.1,0.7l0.4,2.2l2.5,2.2l2.9-1l2.4,2.4
				      l1.4,0l2.8,1.2l2.1-1.3L224,496.7z"/>
  <path id="divi-5647" class="st0" d="M256.6,323.3l0.8,0.8l2.2-0.3l2.7,2.9l0.2,1.1l1.1,0.4l0.9,2.8l-0.5,1.2l0.3,1.5l1.8,1.2
				      l0.6,3.1l0.5,1l0.9,0.4l-0.2,0.7l0.6,0.3l0.4,1.4l-0.6,3l-2.6,2.3L265,347l-0.8,0.8L263,347l-1.7,0.4l-2.9-0.8l-0.5,0.4l-0.9-2.1
				      l-1.4-0.9l-2.7,1.1l-5.7-1.5l-0.7,2l-0.5-0.1l-1.3,2.2l-0.8,5.5l-1.3,3l0.3,1.4l-0.7-0.2l-1.9,0.6l-0.2,0.9l-2.3,1.4l1.8-3.1
				      l-1.3-2.1l0.6-0.5l-0.6-0.8l1-1.9l-0.5-2.7l0.5-0.8l0.5,0.1l0.2-2.8l2.5-4.1l-0.6-2.9l0.8-0.4l-0.2-1l2.9-1l1.7,0.1l0.7-0.6
				      l2.3-4.6l0.2-3l1.3-3.1l3.5-4.3l0.6,0.5L256.6,323.3z"/>
  <path id="divi-5649" class="st0" d="M395.9,438.1l2.7,1.9l1.7,5.8l0.7,0.7l1.5-0.2l1.3,3.7l1,0.3l1.4-0.6l3.1,0.6l-2.1,3.9
				      l-2.2,1.6l-5.5,0.9l-1.6,1.3l-1.9,3.2l-0.4,1.9l-1.9,1.3l-1.5,3l0.1,4.9l-0.5,3.4l-4.1,3.3l-3.3,0.1l-1.5,0.7l-1.9-0.9l-1.1,2.1
				      l-1.5,0l-2.6,1.6l-1.2-3.6l-0.9,0.1l-0.2-0.9l-1.4-0.4l-0.5-2.5l-1.7-2.2l-8.6-4l-1.2-0.2l-1.4,1.2l-1.8-0.6l-1.1,1l-2.6-2.2
				      l-0.5,0.7l-0.5-2.8l-0.7,0.3l-2.4-0.9l0.2-1.5l0.8-0.4l-6.4-8.9l-0.9-1.5l0.5-2.4l2-0.3l1.9,3.8l2.3,0.4l1.2-0.4l2.4,0.7l3.1-2.6
				      l0.6-3.7l1.6-2.9l2.3,2.5l0.8-0.5l2,0.2l0.8-1.4l1.4-0.7l0.6-1.3l2.7-0.5l0.1-0.8l-1.5-1.5l-0.3-2.2l-1.2-0.8l0.9-1.4l2.2,0.6
				      l0.5-0.6l1.7-0.2l0.9-1.3l1.3-0.4l1.1,2.6l3.9,0.3l1-1l1.4-0.2l0.8,0.7l1.6-0.6l1.8,1.9l0-1l0.8-0.5l0.8-2l1.1-0.2l2.9-2l1,0.8
				      L395.9,438.1z"/>
  <path id="divi-5652" class="st0" d="M387.7,502l-1.3,2.1l0.6,0.6l-1.2,1.9l1,2.5l-1.3,1.3l-0.5-0.8l-0.8,2.5l0.6,1.2l-2.9,1.5
				      l-0.9,2.3l-1,0.6l-3.7-2.3l-0.9,1.3l-1,0.3l-0.2,1.9l-0.7,0.9l0.2,1.5l-2.7,4.1l-3.3,0.8l-0.4,1l-1.7,0.9l-0.7-0.4l-0.7,0.7
				      l-2.6,0.7l-3.3,0l-2.6,1.7l-1.5,0l-0.1-1.5l3.4-5.8l0.2-2.9l1.7-2.4l-0.2-3.2l-1.1-1.2l0.8-1.1l0.1-1.2l-1.3-2.6l-1-0.7l0.2-2.8
				      l-3.1-2.4L350,504l-1.1-0.1l-0.4-2.4l-4-1.7l0-1.6l-1.4-3.1l0.4-1.5l1.9-0.2l1.7-1.5l0.5-0.8l-0.7-0.7l4.5-0.8l0.1,0.5l-0.3,2.1
				      l1.2,0.5l1,1.6l2,0.9l0.4,1.8l1.5,1.7l2.4,0.8l1.4,2.3l1.1,0l3.2,2l1.3-0.7l2.2-2.6l1.3-3.2l1.2-0.7L387.7,502z"/>
  <path id="divi-5656" class="st0" d="M257,406.9l1.6,1l-0.8,0.8l0.1,3l-1.7,0.5l0.4,1.6l-2.4,1.1l0.4,0.7l0.8,0l0,0.5l1.2,0.2
				      l0.6,1.1l1.1,0.3l0,2.6l0.8,0.8l-0.7,1.4l-0.9-0.7l-1.4,1.8l-1.8-0.4l0.4,0.9l-0.7,3.4l-0.6,0.9l-0.1-0.1l-1.7,0.7l-4.9-0.4
				      l-0.6,0.2l-0.5,1.7l-0.8-0.5l-0.8-2.8l-1.6-0.6l-0.1-1.5l-2.2-0.7l-0.7-1.8l-1.2-0.9l-3.2-0.9l-0.5-0.2l0.2-3.9l1-0.1l0.4,1.3
				      l1.4,0.1l-2.1-4.6l2-1.1l0.9,1.1l0.9,0.1l0.9-1.6l2.2-0.7l0.9-2l2.2,0l1-1l5.9-1.8l1.3,0.8l2-0.3l1,0.6L257,406.9z"/>
  <path id="divi-5658" class="st0" d="M257.9,346.9l-0.1,0.9l0.6,0l0.3,1.1l-0.9,1.2l1.4,0.6l1.5,3.3l-0.2,1l1.1,0.2l0,1.4l0.7,0.4
				      l-1.9,2.6l0,2.7l-0.9-0.4l0.5-1.8l-1-1.1l-0.8,1.4l-0.9,0.7l-0.7-0.2l-1.6,1.9l-1.3,0.5l-0.5,0.8l0.2,2.1l-1.4,1l-0.3-1.3
				      l-1.2-0.5l-6.8-6.7l-0.9-1.1l-0.3-1.4l1.3-3l0.8-5.5l1.3-2.2l0.5,0.1l0.7-2l5.7,1.5l2.7-1.1l1.4,0.9L257.9,346.9z"/>
  <path id="divi-5659" class="st0" d="M107.8,60.9l-0.6-0.9l-1.1-0.1l-0.9-0.9l0.9-3.2L105,56l-4.5-1.8l0.8-4.9l-1-1.1l0.3-1.2
				      l-3.1-0.6l0.5-1.1l-0.6-0.3l-0.1-1.4l-0.6-1.5l0.2-1.2l-0.6-0.6l11.2-3.8l6.5-3.2l1.6-1.2l0.5-3.8l3.8-2.4l1.1,1.2l0.7,1.5
				      l1.6,0.3l2.6,2.7l2,0.7l-0.3,0.8l-1.8,0l-0.5,0.7l0.3,1l-1.2,0.5l-0.4-2.8l-2-0.2l-0.7,1.3l0.8-0.1l0.3,1.7l2.9,2.1l0.9-0.5
				      l1.1,0.6l0.2,0.8l1.9,1.6l-1,2.3l-0.9,0.8l-1-0.3l-0.3,0.5l-0.8,2.4l0.1,1.6l-1.3,0.4l-0.8,1.4l-2.7,0.7l-0.8,1.7l-3,1.5l-0.2,0.7
				      l-0.5-0.3l-0.7,1.5l0.1,1l0.5,0.1l-0.6,0.2l0.2,0.5l-1.4,0.9l-0.6-0.2l-1.5,2.3l-1.4,0.8l-0.5,1.3l-1.6,0.2L107.8,60.9z"/>
  <path id="divi-5660" class="st0" d="M392.3,472.3l2.6,1l0,2.3l0.9,0.5l0.3,1.2l0.7,0l0.7,1.8l0.8,0.3l-0.1,0.6l2,0l0.6,1.3l-1,4.2
				      l-0.5,0.2l1.1,4.9l-0.6,1.1l-3.2-0.2l-1.5,0.7l-0.5,2l-1.6,0.3l-0.1,1.6l-1.3,0.6l-0.8,1.8l-1.4,0.3l-1.7,1.6l0.1,1.4l-16.4-5.4
				      l-1.2,0.7l-1.3,3.2l-2.2,2.6l-1.3,0.7l-3.2-2l-1.1,0l-1.4-2.3l-2.4-0.8l-1.5-1.7l-0.4-1.8l-2-0.9l-1-1.6l-1.2-0.5l0.3-2.1
				      l-0.1-0.5l-1.5-1.6l0.1-0.9l-1.2-0.9l-0.4-2.5l0.6-0.1l-0.2-2l0.7-1.2l1.1,0.3l-0.4-1.9l0.9-2l-0.2-3.7l1.1-1.2l-0.2-0.9l1-1.9
				      l0.5-0.7l2.6,2.2l1.1-1l1.8,0.6l1.4-1.2l1.2,0.2l8.6,4l1.7,2.2l0.5,2.5l1.4,0.4l0.2,0.9l0.9-0.1l1.2,3.6l2.6-1.6l1.5,0l1.1-2.1
				      l1.9,0.9l1.5-0.7l3.3-0.1l4.1-3.3L392.3,472.3z"/>
  <path id="divi-5664" class="st0" d="M287,405.5l0.4,1.7l-0.9,2.7l0.4,1.9l1.1,0.7l0.7,1.4l-0.5,0.5l-1.5-0.8L283,413l-0.6,3
				      l-0.9,1.3l0.8,1.1l-0.8,2.3l-2.1,0.5l-1.7,1.9l-2.3,0.3l0.3,1.5l-2.2,1.7l-1.3,0l-2-3.5l-0.4-2.4l-1.6-1.1l-0.7,0.1l-0.7-1.1
				      l-1,0.1l-1.3,2.6l-1.9,0.6l-1.5,4.6l-3.1-1.4l-2.1,1.6l-1.9,0.4l0.7-3.4l-0.4-0.9l1.8,0.4l1.4-1.8l0.9,0.7l0.7-1.4l-0.8-0.8l0-2.6
				      l-1.1-0.3l-0.6-1.1l-1.2-0.2l0-0.5l-0.8,0l-0.4-0.7l2.4-1.1l-0.4-1.6l1.7-0.5l-0.1-3l0.8-0.8l3.5-2.9l2.7,2.2l2.4-1.5l0.2-1.4
				      l0.7-0.6l3.2-0.3l0.2,0.2l1.8,1.3l1.1,1.9l1.9-0.8l6.6-0.2l1.3-0.6l1.3,0.8L287,405.5z"/>
  <path id="divi-5665" class="st0" d="M132.5,145.2l-0.4-1.6l1.8-0.9l0.1-7.4l-1.6-1.2l-0.4-1.8l0.4-1.9l1.8-1.3l0.3-2.2l-1-2.3
				      l-1.3-8l1.9-9.1l-0.8-8.4l1.7-1.2l-1.3-3.4l-3-1.7l-0.6-1.1l2.7-0.6l0.4,0.8l1.9,0l5.8-5.9l1.8,1.7l2.8-0.1l0.9-1.6l0.1-2.3
				      l0.9-1.7l0.5-4.9l1.3-1.9l-0.5-0.7l-1.4-0.2l0-0.6l-0.6,0.2l0.3-2.9l2.1-3l3-1.4l1.4-1.7l1.7,0.6l1.2-1.1l3.4-1.2l0.7,2.2l2.1,2.5
				      l-1.6,1.7l-0.7,2.9l-2.7,1.5l0,2.5l1.5,1.7l3.9,1.4l1.4,1.1l0.3,10l1.9,2.4l1.2,0.3l1.2-0.5l-0.7,0.8l0.6,0.6l-0.8,1.2l0.7,0.5
				      l-4.3,1.7l-2.1,1.8l-6.3,2.7l-2.3,2.7l-1.4,0.8l-1.3,3l-1.7,1.4l1.4,3.3l-0.6,0.9l-1.6-0.1l-1.6,2.9l-1.6,8.6l-1.3,2l-0.6,2.6
				      l-3.1,1.4l-1.8,3.8l-0.5,3.9l-1.3,2.9l-1.5,1.7L132.5,145.2z"/>
  <path id="divi-5667" class="st0" d="M390.6,434l-2.9,2l-1.1,0.2l-0.8,2l-0.8,0.5l0,1l-1.8-1.9l-1.6,0.6l-0.8-0.7l-1.4,0.2l-1,1
				      l-3.9-0.3l-1.1-2.6l-1.3,0.4l-0.9,1.3l-1.7,0.2l-0.5,0.6l-2.2-0.6l-0.9,1.4l1.2,0.8l0.3,2.2l1.5,1.5l-0.1,0.8l-2.7,0.5l-0.6,1.3
				      l-1.4,0.7l-0.8,1.4l-2-0.2l-0.8,0.5l-2.3-2.5l-1.6,2.9l-0.6,3.7l-3.1,2.6l-2.4-0.7l-1.2,0.4l-2.3-0.4l-1.9-3.8l-2,0.3l-1.4-0.7
				      l-1.7-2l-0.8-0.1l-0.8-3.5l0.1-1.7l0.7-0.8l1.5-0.8l1.7,0.3l1-0.6l0.1-1.9l0.8-1l-0.1-1.1l1-0.8l2.3-0.1l2.2-1.5l2.2-0.5l-0.4-1.4
				      l1-0.2l0.6-1.1l1.7,0.9l0.2-1.9l0.4,0.4l1.4-1l2.6,0.3l1-1.2l1.8-0.5l0.6-0.7l1.8,0.1l0.6-1.3l2.3-1.9l2.4-0.3l0.4-1l2.4,0.2
				      l0.7-0.6l1.6-0.1l9.6,7.6L390.6,434z"/>
  <path id="divi-5670" class="st0" d="M388.8,405.9l0.4-0.1l0.8,1.9l1.1,0.3l0.7,1.1l0.5,1.1l-0.7,1l0.6,0.1l-0.1,1l1,1.3l-1.5,2.4
				      l-2.3,0.6l-0.8,1.2l1.3,1.3l-0.5,0.3l0.8,2.1l-0.3,0.8l2,1.4l1.9-0.8l0.3,1.9l1,0.2l1.4,2.4l-1.4,2.4l2.4,2.5l-1.3,1.4l0.5,1.5
				      l-0.7,0.9l0.7,1.6l-0.8,0.3l-4.4-3.3l-1-0.8l-5.6-3.3l-9.6-7.6l-1.6,0.1l-0.7,0.6l-2.4-0.2l-0.4,1l-2.4,0.3l-2.3,1.9l-4.7-0.9
				      l0.1-1l-1.6-1.1l0.3-0.5l-2.1-1.9l-0.3-0.3l-1.2-1.9l-3.6-3l-5.6-2.6l-0.4-0.6l0.5-0.4l-1.4-0.6l0.2-1.5l0.5-0.4l2,0.7l1.9-2.2
				      l1.4,0.2l1.3-1.7l6-2.3l0.7-1.3l0.2-1.1l-0.6-0.9l0.4-0.4l2.1-1l1.1,0.9l1.7-1.5l1.2,1.5l0.7,0.9l1.6-0.7l2.4,0.9l0.8,0.9l1-0.7
				      l1,0.1l0.4,0.7l3.1,0.6l0.4,1.2l1.9-0.3l2.1,1.1l3.9,0.6l0.6,0.7l1,0.2l0.8-1L388.8,405.9z"/>
  <path id="divi-5674" class="st0" d="M312.7,425.4l0.4,0.2l-0.5,3.3l0.6,0.1l0.6,1.5l1.9,0.9l1.9,1.9l1.5-0.8l0-0.7l1,0.1l-0.3,2.9
				      l2.4,0.2l-0.6,1.2l1.4,0.9l1.6,2.4l0.5,1.5l-0.3,1.5l-3.5,1.1l-0.5,1.1l-1.5,0.8l-1.8,0.4l-1.1-0.6l-0.4,1.8l-2-0.5l-0.5-0.1
				      l-1.3,3.6l-3.4,1.4l0,0.7l1.1,0.1l-1,0.6l-1.5-0.4l-1,0.7l-0.4-1.5l-2.5,0.2l-0.8-0.6l-0.6-0.3l-1.8,1.9l0.3-1l-0.4-1.1l-0.5,0
				      l-0.5-2.8l1.4-0.8l-1.2-3.7l0.7-1.5l-0.4-0.7l-1.2,0.1l0.7-1.9l-0.8-2.4l0.8-1.3l-0.2-2.1l0.8-1.5l-2-0.4l-1.3,0.1l0.4-1l-0.9-0.7
				      l0.5-0.3l3-1.4l1.2,0.2l4.7-3.8l2.2-0.5l0.6,0.4l1.9,1.6l1.1-0.8L312.7,425.4z"/>
  <path id="divi-5679" class="st0" d="M275.5,512.4l0,1.5l-1.1,2.3l0.2,1.4l-2.1,1.6l0.7,8l-1.1,2.3l0.4,1.4l-0.9,3.8l-1.7,0.2
				      l-0.2-3l-1.9-4.4l-0.4-3l-1.9-2.3l0.6-1.1l-0.1-4l1-0.4l-0.9-0.7l-3.8,2l-1.7-4.5l-0.1-1.9l1-0.8l-0.7-3.3l-2.7-3.8l-0.8-3.3
				      l-1.3-1.5l0.2-1.2l2.5-2.6l1.9-1.6l1.6-0.2l2.1-1l1,1l0.9,0.8l0.9-0.2l0.3,1.4l4.2,5.1l0.7,3.6l0.8,0.7l-0.5,1l0.6,0.7l-0.5,0.7
				      L275.5,512.4z"/>
  <path id="divi-5686" class="st0" d="M282.5,356.7l0,1.8l1.4,2.5l-0.8,2.3l2.1-0.1l4.1-2.3l1.8,0.6l1.9-0.9l0.3,0.8l1.4,0l0.3,0.7
				      l1.8,0.3l0,0.4l1.6,4.4l-0.3,1.5l2.3-0.6l0.3,2.1l1.5-0.3l0.7-0.8l1,1.1l1.5-0.2l2.4,2.7l1.6,0.2l0.6,1.3l2.2,1l-0.3,2l2.1,0.2
				      l0.2,0.7l1.6,0.5l-1.1,1.8l1.3,2.9l4,1.4l2.1-0.2l0.6,0.7l1-0.8l0.6,0.2l-0.5,1.8l1.6,2.4l2.9,1.4l0,0.9l2.1,1.9l0.2,1.3l-0.5,0.4
				      l0.4,0.9l-0.9,0.8l-0.8,2.4l-0.3,0.3l-1.3-1l-1.7,0.2l-1-0.8l-0.1-0.8l-0.7,0.3l-1.4-1.1l-1,0.3l-2.8-0.2l-2.4,1.2l-0.5,0.8
				      l-5,2.1l-3.5,0.7l-2.5-0.4l-1,0.4l-1.7-0.6l-1.3,1l-2.4-0.1l-0.5,0.3l0.1,3.9l-1-1.5l-2.3-1l-0.6-1.5l-1.1-0.6l-3,2.3l0.4,1
				      l-0.6,0.3l0,1.3l-1.6-0.4l-2.2-4l-2.4-0.9l-0.8-1.3l-1.1-0.1l0.4-0.5l-0.6-0.8l-1.6-0.2l0-1.6l0.5-0.5l-0.9-0.6l0-1.1l-0.6,0
				      l0.4-0.8l-0.6-0.3l0.6-1.1l1.9-0.7l0.7-1.1l-3.1-3.4l-1.3,0.7l-0.2-0.9l-1-0.5l-0.1-1.2l-0.9-0.7l0.2-1.3l0.7,0.2l0.7-0.9l0.5,0.4
				      l0.1-1.6l-1.2-1.2l-1.5-0.4l-1-0.1l-3.3,2.1l-0.4-0.7l-0.9,0.1l-1.6-1.3l-0.5,0.2l-2.5-1.1l-0.2-2.7l-1.5-0.8l1.6-3.3l-0.6-1.1
				      l0.1-2l1-1l0-1.2l-1.9-2.8l0-1.7l-1.6,0.3l-0.9,0.9l0-2.7l1.9-2.6l-0.7-0.4l0-1.4l-1.1-0.2l0.2-1l-1.5-3.3l-1.4-0.6l0.9-1.2
				      l-0.3-1.1l-0.6,0l0.1-0.9l0.5-0.4l2.9,0.8l1.7-0.4l1.2,0.8l0.8-0.8l0.8,0.2l2.6-2.3l-0.1,1.2l0.8,0.9l0.5,2.9l0.7,0.1l0.7,1.6
				      l1.5,0.7l0.4,1.1l3.8,1.9l3.3,0.2L282.5,356.7z"/>
  <path id="divi-5690" class="st0" d="M340.4,399.5l-0.1,0.5l1.4,0.1l0.9,1.8l3.7-0.9l1.6,0.2l-0.7,0.6l0.2,2.2l2,2.3l1.8-0.8
				      l0.8-3.9l3.6,0.2l0.2-0.6l1.1,0l2.4-0.2l-0.4,0.4l0.6,0.9l-0.2,1.1l-0.7,1.3l-6,2.3l-1.3,1.7l-1.4-0.2l-1.9,2.2l-2-0.7l-0.5,0.4
				      l-0.2,1.5l1.4,0.6l-0.5,0.4l0.4,0.6l5.6,2.6l3.6,3l1.2,1.9l-2,0.3l-1.3,1.2l-5.8,2.5l-4.2-1.3l-1.5-1l-3.4-0.7l-2.2-1.1l-2.4,0
				      l-1.6-3.3l-0.9,0.2l-1-0.6l-0.4-1.2l-2.9-0.6l-3.5,0.8l-1.2,0.9l1.2-2.2l-0.2-1.2l1.4-1.2l-0.6-0.9l2-0.6l0.4-1.3l-1.2-0.4l-0.6-1
				      l-2.5-0.6l-0.9-1.2l-2.5-0.2l2-2.1l0.1-1.1l2.4-1.2l0.8-2l2.3,0.1l1.3-1.2l0.3-0.3l0.6,0.4l2.9-0.1l4.1,1.6l1.7-0.8L340.4,399.5z"
	/>
  <path id="divi-5697" class="st0" d="M323.9,462.6l2.5,2.9l2.7,0.7l0.9,2.8l0.9,0.7l1.8,0.2l2,1.9l0.6,1.8l-1.8-0.4l-1.8-1.3
				      l-3.8,0.6l-2.8-3.2l-0.2,1.7l-0.8,0.2l-0.9,1.5l-2.1,1.1l-1.6-0.1l-1,1.5l-1.4,0.2l-0.3,1.6l-0.9,0.2l-1.9-1.3l1.5-2.2l-1.4-2
				      l-0.8-0.2l-0.4-1.6l0.6-1.8l-0.8-1.8l-0.8-0.4l-0.6-0.9l0.3-0.6l2.7,0.4l0.9-1.2l1.4,0.1l0.7-1.3l0.8,0.2l0.4-0.8l2.6-0.5l0.3-0.1
				      l1.3,0.2L323.9,462.6z"/>
  <path id="divi-5736" class="st0" d="M462.1,281.3l-39.8,17.5l-0.7,0.7l-3.3,0l-1.3,8.2l-1.9,2.2l-0.5,2l-0.7-0.3l-0.7,1.2
				      l-0.8-0.1l-0.6,1.5l0-1.1l-1.1,0.8l-0.6-0.1l0.3-0.7l-1.2,0.2l-7.1-9.6l-14-0.4l-1.7-1l0.8-4.1l-1.3-0.5l0-1.8l-1.7-3.2l0.2-1.3
				      l-1.8-2.9l-0.9-0.1l-0.6-0.8l-4-0.5l-1.5-6.9l0.9-2.1l50.1-16.1l2.5-1.6l0.1-1l1.8-2.4l3-1.9l0.5,2.3l1.2-0.1l1.4,1.8l1.7,0.6
				      l0.7,1.8l2.5,1.3l1.2,3.4l1.8,0.7l0.7,2l3.2-0.2l0.5-2.5l2.6-0.7l0.6-2.1l3.8-0.2l1.9-1.4l0.4-0.9l-0.8-3.1l0.6-4.1l-0.2-0.6
				      l-1.3-0.3l1.3-2.4l5.4-1.5l1.4-2.1l0.6,0.4l0.7,1l0,4.1l2.1,2.4l0.7-0.1l0.8,0.9l0.4,1.7l-1.8,2.5l-1.9,1l0.1,1l-2.1,2.3l-0.1,1.6
				      l-2.1,0.6l-1.7,2.1l-0.9,4.7l0.7,1.5l0.7,0.2l0,0.8l1.4,0.9L462.1,281.3z"/>
  <path id="divi-5756" class="st0" d="M420.8,512.6l-1.4,4.6l0.2,6.4l-2.1,3.1l-0.1,1.1l-1.2-0.7l-1.8-1.4l-2.4,1.4l-2.8-0.2
				      l0.1,2.8l-1.1-0.4L407,532l0.4,2.8l-1.3,1.7l0.6,1.2l-1.4,0L405,539l-4.4,0.8l-1.2,0.9l-3.9-2.2l-1.3,0.6l-0.9-1.8l-1.5,0.2
				      l-1.5-0.8l-1.8-4.1l-4.9-1.5l-1.6,0.1l-1.6-0.7l-1.6,0.1l-0.4-1.4l-2.5,0.9l-1.9-0.5l-2.2,1.9l-1.2,0.1l-2,1.7l-2.5,0.7l-3.6-2.6
				      l-1.6,0.9l-3.3-0.7l-3.7,0.1l-0.8-0.9l-4,0.2l-2-0.7l-0.8-1.3l-1.6,0.5l-3.6-0.8l-0.5-0.5l-1.3,2.7l-1,0.6l-1.5-0.3l-4.5,1.7
				      l-9.5,0.6l5.5,4.4l1.1,0.1l0.9-1.5l2.3,0.8l-7.9,5.3l-2.1-0.5l-2-1.4l-1.3,1.3l0.5,2.7l-0.4,2.8l0.6,1.6l-1.7,3.7l-0.1,1.5
				      l0.7,1.4l2.9,2.8l-1.1,5.9l0.2,2.5l-3.7,3.9l-1.4,2.6l0.2,2.3l-2.6,0.5l-0.9-0.7l-1.6,0l0.2-1.1l-0.7-0.6l1-3.6l-0.8-1.4l-1-0.1
				      l-1.1-1.1l-0.3-1.3l0.6-1.5l-1-0.4l-0.2-0.9l1-1.2l-1.8-1.9l-0.4-2.4l-0.8-0.6l0.2-1.5l-2.6-0.2l-1-0.6l-0.3-3l-2.4-1l2.4-2.4
				      l-0.2-3.5l-1.2-2.2l-4.8-1.1l-0.9-2.1l-1.9-0.4l0.1-5.2l2.2-2.9l1-0.5l1.3,0.3l7.2-3.9l1.3,0l3.8-1.8l1.4-2.1l-0.4-0.9l1-0.9
				      l0.4-2.4l2.3-2l1-2.7l2.6-1.4l0.7,0.9l0,2l-0.7,0.8l0.8,1.4l-0.1,2.3l3.7-1.2l1.8-4.9l3.1-1.2l0.8-2.5l4.5,0.6l0.9-0.9l1.6-0.3
				      l0.6-0.8l0,2.1l0.7,0.7l2.1-0.6l1.8-3.1l4,0.1l1.5-1.6l1.4,0.9l3.3-0.7l1.1-2.8l1.6-1.5l3.1,2.4l-0.2,2.8l1,0.7l1.3,2.6l-0.1,1.2
				      l-0.8,1.1l1.1,1.2l0.2,3.2l-1.7,2.4l-0.2,2.9l-3.4,5.8l0.1,1.5l1.5,0l2.6-1.7l3.3,0l2.6-0.7l0.7-0.7l0.7,0.4l1.7-0.9l0.4-1
				      l3.3-0.8l2.7-4.1l-0.2-1.5l0.7-0.9l0.2-1.9l1-0.3l0.9-1.3l3.7,2.3l1-0.6l0.9-2.3l2.9-1.5l-0.6-1.2l0.8-2.5l0.5,0.8l1.3-1.3l-1-2.5
				      l1.2-1.9l-0.6-0.6l1.3-2.1l16.8,6.1l14.2,4.2l0,0.5L420.8,512.6z"/>
  <path id="divi-5761" class="st0" d="M257,406.9l-0.5,0.4l-1-0.6l-2,0.3l-1.3-0.8l-5.9,1.8l-1,1l-2.2,0l-0.9,2l-2.2,0.7l-0.9,1.6
				      l-0.9-0.1l-0.9-1.1l-2,1.1l2.1,4.6l-1.4-0.1l-0.4-1.3l-1,0.1l-0.2,3.9l0.1,2l-2.5,0.6l-0.2,1l-1.9-0.9l-1.2,0.2l-0.2-0.7l0.5-4.2
				      l-1.2-1.8l0.4-2.2l-0.5-1.8l1-4.4l-0.2-2.6l2.6-1l0.6-3.3l0.5-0.6l0.8,0.4l1.7-0.8l2.3,0.4l2.3-1.3l-0.8-4.2l-1-0.9l0.3-3l2.7-3.1
				      l4.2-1.4l0.6-1.8l1.7,2.6l2.2,2.5l-0.6,3.3l1.4,1.4l2.1,0.8l0.3,3.2l1.1,0.1l0.8,1.4l1.1,0.5l0.5,1.8l0.8,0.5l-0.4,2.3L257,406.9z
				      "/>
  <path id="divi-5789" class="st0" d="M258,528.7l-0.3,0.8l-1.3,2.6l-1.3,1l-0.6,1.9l0.4,2.6l-0.5,1.4l0.4,1.6l-0.4,4.2l0.7,3.9
				      l-2.2,3.7l-1.8,6.4l-1.2,0.9l-1.3,3.8l-2.7,0.1l-0.6-0.4l-1.4-0.9l-0.6-1.1l-1.8-4l-1.4-1.1l-1.6-0.2l0.1-1.6l1-1.2l0.3-1.4
				      l-0.1-1.5l-0.9-1.5l-1.1-0.8l-0.9,1l-1.1,0.2l-2-2.8l-3.3-0.1l1.5-1.4l-0.5-2l0.6-0.8l4.6-1.7l1.5-2.8l1.1-0.2l0.6-0.8l0.7-3.4
				      l1.1-0.3l4.7-3.5l0.1-2l3.9-1.2l2.4-3.7l1.1-0.4l0,0l0.8,0.5l1.4-0.3l0.3,1.4l1.3,1.3l-0.5,1.7L258,528.7z"/>
  <path id="divi-5790" class="st0" d="M335.7,266.4l0,2.3l-1.2,1.5l-0.1,1.4l-1.7,1.2l-0.7,1.8l-0.1,2.7l-0.7,1.2l0.2,2.2l-2.3,2.8
				      l-0.7,0.5l-1.1-1.1l-1.5-0.1l-1.1,0.8l-3.3,0.4l-2,1.9l-1.6-1.2l-2.2,0.3l-0.4-0.6l1.4-0.8l0.2-5.1l0.5-0.4l-1.1-0.6l-0.1-1.2
				      l-0.8-0.4l0.1-1.5l0.9-0.5l-0.3-1.5l1.2-3.4l-0.2-1.7l-1.2-1.2l1-1.7l-1.3-1.4l1-0.6l1.4,0.1l0-1l-2-0.9l0.8-3.5l-2.9-0.9l-0.7-2
				      l-0.2-0.5l-0.2,0.5l-1-0.5l-1.5,0.3l0.2,3.2l-1.4,1l-0.3,3.2l-1.1-0.4l-1.5,1.3l-0.6-0.4l-1.3,0.6l-0.7-0.9l-0.7,0l-4.4,2.8
				      l-1.5-1l-0.5,0.6l-0.7-0.5l-0.7,1.1l-0.5-0.5l-1.1,0.7l-0.7-0.8l-0.9,0.2l-1.4,1.5l-2.7,0.3l-1.8-0.7l-0.4-1l-0.7,0.3l-0.2-0.5
				      l-1.5-0.1l-2.8-1.8l-4.3,8.6l-6.4-10.7l-11.6,0.2l-8.5-0.7l-17.2-1.7l-0.4-0.9l-1.4-0.6l-1,0.3l-0.8-1.2l-0.9-0.2l0.5-2.9l2.1-0.8
				      l1.7,0.3l1.9-1.6l0.3-3l1.1-1.8l0.6-3.5l1.7-3l7.9-4.3l1.1-1.2l10.1-4.8l7.1,1l0.7-0.4l0.1-3l1.5-0.3l3.5-3.5l2.6,0.1l0.6-1.4
				      l-1.1-1.7l1.6-0.4l-0.6-1.4l0.1-2.4l1.8-1.6l1-1.9l-0.7-0.9l0.6-1.3l-0.6-1.8l0.5-1.4l2.3-0.6l3.4,1l1.8-1.7l0.7-1.5l1.6-0.7
				      l1.5,0.4l1.9-1.1l0.6,0.5l0.7,0.7l-0.4,0.8l0.8,0.8l-0.3,1.8l0.6,1l-1.3,3l1.2,2.8l-0.4,5.1l0.8,1.8l1-0.3l2,0.5l1-2.7l0.5,0.6
				      l2.9-0.2l1.9,0.8l0.7,0.9l-0.7,1.3l1.3,0l0.6,0.9l-0.2,0.7l1.3,0.5l0.1,5.8l0.7,0.3l-0.1,1.8l1.7,2.6l1.1,0.3l1.1,2.6l10.3,0
				      l0.1,1.3l2.5,2.1l-0.9,1.9l1,0.4l0.3,1.5l-0.7,0.5l0.7,0.9l-0.8,0.1l-0.1,0.9l1.6,1.8l-0.5,0.9l0.4,0.9l1.7,0.4l0.4,0.7l1.7-0.1
				      l0.3,1l1.3-0.4l1.7,3.1l-0.4,3.5l-1.5,2.4l0.9,0.9l0.9-0.8l0.4,0.4l0.9-0.5l2.4,2.2l0.4,3.5l1.2-0.5l0,0.8l0.9,0.2L335.7,266.4z"
	/>
  <path id="divi-5792" class="st0" d="M235.9,509.1l2.6,1.3l-1.2,4.7l-1.1,0.9l-1.6,2.9l-1.2,0.2l-1,1.1l-1.5,0.2l-0.4,1l-0.7-0.8
				      l-0.4-2.7l-0.7,1l-1.2-0.3l-3.2,0.7l-2.1-3.6l-0.5-0.5l-1.2,0.4l-0.9-2l-1.5-0.9l0.2-4.7l-0.7-1.8l0.3-1.5l1.3-1.8l2-0.2l0.1-1.7
				      l0.9-0.4l0.4-1.1l3.7,1.7l0.8,1.6l1.8,0.7l2.1,2.6l2.9,1.1L235.9,509.1z"/>
  <path id="divi-5809" class="st0" d="M240.6,478.3l0.2,0.6l1.1,0.2l0.1,2.6l1.1,1l0.1,1.2l-0.4,0.5l-1.6-0.6l-1.1,0.4l-1.8,2.6
				      l-1,2.9l-1.7,0.7l-1.6-0.2l-1.5-1.2l-2.4,1.1l-1.8-0.6l-1.4-1.4l-1.6,0.4l-1.4-3.7l-2.4-2.3l-0.3-1.5l0.9-2.2l0.8-5.3l4.1-0.1
				      l1.5-0.8l2.8,0.2l1.6-2.6l4.6-2.5l0.1,0.1l-0.4,1.8l1,0.4l0.1,3.3l1.9,1.7L240.6,478.3z"/>
  <path id="divi-5819" class="st0" d="M250.3,311.5l0.8,3.4l2,1.1l-0.2,1.7l2.3,3.1l-3.5,4.3l-1.3,3.1l-0.2,3l-2.3,4.6l-0.7,0.6
				      l-1.7-0.1l-2.9,1l-0.6-0.9l0.6-1.8l-0.6-0.5l0.3-2.3l-0.8-2.2l-0.1-3l-1.9-4.9l-0.7-0.4l0.5-3.3l-1.1-1.6l-0.6-1.2l1.7-0.2
				      l1.7-2.2l1.2,0.2l1.3-1.3l1.2,0.3l4.1-1.3l1.1,0.7L250.3,311.5z"/>
  <path id="divi-5837" class="st0" d="M130.1,91.6l0.6,1.1l3,1.7l1.3,3.4l-1.7,1.2l0.8,8.4l-1.9,9.1l1.3,8l1,2.3l-0.3,2.2l-1.8,1.3
				      l-0.4,1.9l0.4,1.8l1.6,1.2l-0.1,7.4l-1.8,0.9l0.4,1.6l0.1,3.6l-1.4,0.1l-0.2-1.3l-14.1,15.1l-4.4,3.9l-2.2,0.8l-1.2,1.6l-2.7-0.8
				      l-1,0.5l-0.7,1.6l-1,0.3l-0.7-0.8l-0.5,0.4l-0.3-0.8l-1.9,1.9l-1.2-0.3l-0.5,1.7l-1-0.5l-0.6,1.1l-3,0.3l-1.2,1l-1.1,0.1l-3.6-2.5
				      l-1.6,1.2l-4.4,1.3l-3.5-0.2l0.5,1.3l-0.5,0.8l-1.1-0.1l-1,4.1l-1.6,0.7l-2.5-1.5l-2.2,2.2l-1.6,0.9l-0.4-0.5l-0.7,1.7l0.7,0.9
				      l-0.3,0.6l-2.6,1.3l0.5,0.9l-0.7,0.5l0.6,1l-0.6,0.4l0.2,3.2l1,2.1l-0.2,1.6l1.1,1.5l0.1,0.4l-1.6,0.8l0.7,1.7l-0.7,2.3L66,205
				      l-0.5,0.6l1.9,2.1l-0.6,0.4l0.8,0.3l-1.1,0.4l-0.5,2l-0.9,0.2l0.9,0.5l-0.7,0.7l0.9,0.3l-0.6,0.1l0.5,0.5l-0.2,0.5l-1,0.1l1.6,0.9
				      l-0.3,0.8l-0.9,0.3l1.1,0.2l-0.1,0.9l0.3-1.6l1.9,0.8l1.6,3.6l-0.7,0.1l-0.1,1.1l1.1,0.2l0.2,1.3l0.7,0.6l0.9-1l1.4,1.4l1.2-0.4
				      l0.1,0.7l-0.7,0.5l0.2,1.4l0.6-0.9l0.1,0.8l0.8-0.7l0.6,1.2l1.3-0.8l-0.1,0.5l0.4-0.2l1.4,1.3l1.4,0.1l0.5-0.5l1.5,1.2l0.2,1
				      l-0.8,1.8l1.4,2l0.8,0.3l-0.5,0.5l1.1,1.1l0.8,2.5l4.4,2.2l-0.3,0.5l1,0l-0.3,1l0.9-0.2l-0.5,1l0.5,0.7l-0.5,0.4l1.5,0.9l-0.2,1.6
				      l0.5-0.4l0.3,0.9l0.6,0l-1.1,0.5l0.5,0.5l-0.6,0.3l0.8,0.3l-0.2,0.9l0.7,0.4l-17.2,0.1l-2.8-9.2l-1.9-3.4l-4.3-5.5l-1.8-1.1
				      l-3.2,0l-3.7-1.3l-5.2,0.9l-4.1-0.6l-1.3-0.6l-3.5-3.6L42,224l-4.1-2.2l-1.9-2l0.4-2.5l-0.5-1.2l-4.5-5.1l-4.1-2.8l-1.6-4.5
				      l-1.2-1.4l-8.2-1.2l-1.8-0.9l-0.2-3.1l2.4,0.5l1-0.7l-1.5-1.5l-0.7-6.7l0.7-0.5l3.8,1.4l1.7-1.3l1.4-2.3l0.9-0.3l2.3-0.5l4.9-5.2
				      l2.7-7.7l0.1-1.3l-1.4-1.7l0.2-0.5l2.9-0.4l0.5-1.1l-0.9-3.1l1.9-7.6l1.3-1.3l4-0.8l2.8-2.8l1-1.9l-0.5-4l-1.4-1.3l-0.8-3.9
				      l0.8-8.5l-2.8-3.8l-1.9-5.9l-0.5-4.9l3.9-0.3l2.1,0.9l-1.3,2.5l-0.1,1.8l-0.5-1.4l-1.1,0.2l0.1-1.2l-0.8,0.3l0.3,1.6l-0.5,0.4
				      l1.1,1.4l-0.3,0.5l-0.3-0.4l0.3,2.3l-0.4,0.1l0.8,0.8l0.6,2.6l2,0.9l-0.5-0.6l0.6,0l-0.1,0.8l0.3-0.5l0,0.5l0.7,0l0.3-3.5l0.7,1.9
				      l1.8-0.3l0.6,0.5l-0.3,0.3l1.5,0.5l-1.1,0.4l0.3,0.8l-1.1-0.1l0.8,1.1L49,133l-1.1-1l-1.1,0.6l1.5,0.9l-0.4,1l0.1-0.5l-0.5-0.2
				      l-0.1,0.6l-0.2-0.9l-0.2,1.2l-0.3-1.4l-1-0.2l-0.1,1.2l-1.1-1.2l1,2.1l-1.1,1.6l-0.4,3.1l3.1,2.5l-1.5,0.3l1.4,0.9l-1.4,0.2
				      l0.5,0.6l-0.5,0.5l1.4-0.7l-0.2,0.9l0.4-0.4l0.6,1.1l0.8-0.1l3.9-2l0.6-1.4l1-0.1l0.5-0.8l-0.8-2.2l-0.8-0.2l0.2-0.2l-0.2-0.1
				      l-0.1,0.1l-0.1,0.3l0.2,0l-0.1,0.2l-0.7-0.1l0.4-0.4l0.7-0.2l2.9,0.5l7.1-1.1l0.2,0.9l1.7-0.7l2.7,1.6l-1.7-0.8l-2.3,1.2l-1.2,0.3
				      l-0.2-0.6l-1.3,1.1l-0.7-0.2l0,1l-0.8,0.5l0.8,0.8l-0.8,0.6l1,0.1l-0.9,1.7l1.1,0.9l1.2,0l-0.3-0.5l1.1-0.2l-0.4,0.6l0.7-0.4
				      l-0.4-0.9l1.1,1.2l-1.9,1.5l-1.4-0.1l1.3,0.5l-2.5,0.3l-0.4,0.6l-0.9-0.5l-0.3,0.7l-1.1,0.1l0.1,0.6l0.7,0.2l0.5-0.6l0.2,1.3
				      l1.9-0.3l3.5,2l-0.6,0l-0.3,1.1l-0.4-1.2l-0.1,0.8l-0.8-0.3l-0.2-0.4l0.5-0.2l-1.3-0.9l-2.7,0.2l-0.2,0.2l-0.3,0l-0.2,0.3l-0.3,0
				      l-0.2,0.2l0.3,0.1l0,0.5l-0.2,0.2l0.1,0.2l0.2,0l-0.3-0.2l0.2-0.1l0.1-0.3l-0.1-0.5l0.1-0.4l0,0.3l0.3,0.1l-0.2,0.1l0.2,0.8
				      l0.6-1.2l0.5,1.5l-0.8,0.2l2,0l-1.1,1l0.5,0.5l0.6-0.6l0.2,0.7l1.6,0.2l-1.1,0.5l1.5,0.3l0,1.5l-2.6-1l-1.1,1.1l0.3-1.2l-0.7-0.2
				      l-1.5,1.3l0.3-2.3l-0.7-1.1l-1.3-0.8l-2.4-0.2l-1.8,0.8l-0.8,1.5l0.2,0.9l-0.5-0.5l-0.8,0.6l0.3,0.8l1.4-0.2l-0.1,1.6l-1-0.5
				      l-0.5,0.5l0.2,0.9l-1.8,0.4l0.1,0.4l0.7-0.4l-0.1,0.7l0.1-0.7l0.8,0l0.3,1l0.7,0l-1.5,1.3l-0.8,7.2l0.4,2.4l1,2l1.7,1l7.4,1.6
				      l0.7,0.6l0.8-0.6l10.8-0.2l5.7-1.7l1.2-1.1l0.4-1.3l-1-1.1l2.2-1.3l-1-2.9l2.9-3l-0.6-2.7l-1.1-1.4l-0.9,0.2l0.5-2l-0.9-0.4
				      l2.4-1.1l0.5-1l-1.2-1l1.6,0.3l0.9-0.6l0.8-3l-1.4-4.1l-2-1.6l0,0.4l-0.9,0.3l0.1,0.1l-0.2,0.1l0.1,0.6l-0.1,0.1l0.6,1.9l0.4,0.1
				      l-0.1,0.2l0.3,0.2l-0.1,0.3L78,150l0.3-1.7l-0.2-0.4l0.3-0.6l-0.2-0.6l0.1-1l0.5-1.1l-0.1-2.1l-0.3-0.7l-0.7,0.1l-0.2,1.2l0.6,1.1
				      l-2.4-3l2.1-2.7l1.2-5l-2.8-8.9l-0.1-2.7l-1.2-3.1l-1.5-0.8l-0.3-1l0.4-0.6l0.7-0.8l0.6,0.6l1.5,0l-0.2,0.4l0.7-0.5l-0.1,0.7
				      l0.6-0.5l0.1,1l0.8-0.5l0,0.6l0.9,0l1.8-3.2l0.6,0.5l1.3-1.1l1.4,0.5l0.5-0.7l0.3,0.7l1.3,0l0.5,1.4l0.8-0.3l0.8-2.4l-0.7-2.7
				      l2.7,0.1l2.3-1.1l0.7-1.7l2.5,0.1l0.6-1.2l1.5-0.5l0.8-3.3l0.7,0l-0.5-1.8l1-0.2l-0.4-1.2l0.5-0.3l-0.2,0.7l0.6,0.4l1-1.2l1,0.2
				      l-0.9-0.8l1.7-0.1l-0.7-1.1l1.1-0.6l-0.1-1.8l0.6,0.8l2.6-1.1l1.9,0.2l0.5-0.5l0.5,1.1l1.5-0.1l0,0.6l2.7,0l0.2,0.5l0.8-0.4
				      l0.9,0.9l1.8-0.4l-0.1,0.8l0.9,0.4l-1.2,0.4l0.9-0.1l0.2,1.2l0.9-1l0.8,0.4l0.7,0.7l-0.5,0.9l1,0.7l0.4-0.7l1.2-0.1l-0.4-0.7
				      l2.7-0.5l1.7,0.4l1,1.7l1,0l0.9-1.2l-0.2-1.7l-2.8-1.7l0.5-1.1l-0.4-0.9l0.7-1l-0.3-1.4l0.6-0.8l-0.3-1.3l1-0.7l1,0.5l2-4.7
				      l1.3-2.1l0.5-0.4l0.6,0.1l0.4,0.9l-1.3,1.5l-0.3,3.2l-1.8,0.5l-0.8,1.1L130.1,91.6z"/>
  <path id="divi-5842" class="st0" d="M202.2,325.1l0.5,2l2.2,1.5l-1.5,1.8l-1.9,5.1l-1,0l-1,1.2l-2.1-0.7l-0.8,0.9l-2.4,0.9
				      l-0.5,0.8l-1.3,0.1l-3,2.5l-1.6-0.5l-2.1,1.4l-2-0.2l-0.9,1.9l0.7,2.6l0.7,0.7l0,1.2l-1.3,1.4l-2.3-0.3l-0.9,0.4l-1.3-0.2
				      l-0.9,0.6l-1.4,2.1l-1.3,0.7l-1,1.9l-0.7-2.6l-1.4-1.9l-4.1-0.2l-1.8-0.7l-1.7-3.2l-0.9,1.3l-1.6,0.7l-0.9-1.5l-1.5-1l-0.1-0.9
				      l1.1-2.1l1.3-0.8l0.8-2.8l0.6-0.4l-1.6-1.4l-1.2-2.1l-0.2-1.6l1-2.3l5.1,0.8l4.7-0.3l1.1-0.4l2.2-2.3l4.5,1.4l1.7,1.4l3.2,0.6
				      l2.5,2.1l3-0.5l1.5,0.6l1.4-0.4l4.5-3.7l1.8-4.4l1.3-1L202.2,325.1z"/>
  <path id="divi-5847" class="st0" d="M173.1,392.5l0.9,1.2l3.2,1.2l0.5,1.4l1.7,0.6l1.4,1.8l2.5,0.3l0.8,1.8l2.6-0.1l1.1,4.8
				      l2.1,0.9l-0.8,1.5l-3.2,2.9l-0.7,2.9l1.8,1.5l1.3,0l0.9-0.8l0.5,1.6l2.5,2.1l0.9,5.2l-0.3,2.1l-0.7,0.5l0.2,1.7l1.6,0.2l2.9,2
				      l0.9-0.5l0.8,1.8l2.8,2l-0.3,4.4l-1.2,1.6l0.2,1.1l-1,1.8l0,1.2l-3,1.2l-1.4,1.7l-3,0.6l-0.4,1.5l0.8,1.3l-0.4,2.7l1.5,0.8
				      l-0.3,4.1l1.6,2l-0.1,6.7l1,2.4l1.4,0.3l0.4,0.9l0.9,0.3l-0.3,2.6l0.5,2.4l1.7,2l-0.3,1.4l-4.9,3.6l-3.8,0.1l-5-1l0.4,1.2
				      l-2.2,7.2l-1.6-2.5l-1-0.4l-1.8,0l-1.6,3.3l-2,0.3l-1.9-1.2l-1.6,1l-2.9-2.4l0.5-2.4l-1.3-2.5l-1.3-4.9l0.2-5.7l-0.6-1.1l0.5-2
				      l1.5-1.9l-2.2-0.5l-0.5-0.7l0.2-2.8l-1.7-0.7l-0.3-1l0.6-0.8l-0.2-1.3l-2.1-0.5l-2.2-3.2l-15,2.6l-11.5,2l-8.8,0.3l-1.1-4.4
				      l-3.4-1.7l-0.6,0.4l-1.3-0.7l0.3,0.8l-1.2-0.1l-0.5,0.8l0.2,1.1l-1.4,0.8l-2.7,0.1l-2.8-0.8l-3-8.2l-1.9-13.7l1.4-17.5l-1.6-4.5
				      l-2.3-4.4l3.3-8.5l2.8-4.7l0.7-1.6l1-0.6l2.8,0.3l1.1,2l-0.2,1.5l0.7,1.5l-1.5,1.8l2,2.9l1.3,0.8l1.2-0.2l1.6,1.3l-0.6,2.7l3,1.4
				      l2.2-1.4l0.7-4.5l0.8-0.7l-0.3-1.2l2.5-2.7l0-1l1,0l1.4-1.2l-0.1-0.6l1.1-0.3l-0.2-0.8l1.5-0.2l0.1-1.3l2.1,0.1l2-1.1l0.5,0.5
				      l2.2,1.4l-0.4,1.2l0.6,0.6l-0.5,0.9l1.2,0.7l0.1,1.2l1-0.4l-0.1,0.8l1.3,0.5l-0.5,1.4l1,0.8l-0.6,0.6l0.3,1.8l2.5,1.9l1.6,0.4
				      l2.2-0.5l1.2-1.2l0-1.3l1.2-1.4l2.6-1.5l1.4,0.9l2.5-0.4l3.5-5.3l3.4-0.1l1.9-2.2l1.4,0.2L173.1,392.5z"/>
  <path id="divi-5854" class="st0" d="M315.6,285.1l-1.3,2.6l-1,0.3l-0.8-0.4l-0.3-1.7l-1.3,0.1l-0.9-0.5l-0.6,0.3l-0.1,0.7l0.5,0
				      l-1.1,1.4l-1.7-0.1l0,3.1l-0.8,1.1l-3.4,0.4l-0.8,0.8l-7.1,12.5l-1.5,4.5l-5,2l-1.9,3.5l-1.8,0.9l-2.5-1.8l-0.1-4.7l-1.4-3.2
				      l0.2-2.6l0.8-1.6l2.3-1.8l1.2-4.5l1.1-1l-0.2-4.4l0.6-1.4l2.6-2.4l1.7-2l-0.1-1.3l-1.1,0.4l-0.5-1.3l-1.8-0.8l-0.4-1.3l-1.6-0.7
				      l-0.7-2l-1.7-1l0.3-1l-0.6-0.8l-1,0.6l-0.8-0.3l-1.3,1.1l-3.4,0l0.3-2.9l0.8-1.8l-1.8-1.2l4.3-8.6l2.8,1.8l1.5,0.1l0.2,0.5
				      l0.7-0.3l0.4,1l1.8,0.7l2.7-0.3l1.4-1.5l0.9-0.2l0.7,0.8l1.1-0.7l0.5,0.5l0.7-1.1l0.7,0.5l0.5-0.6l1.5,1l4.4-2.8l0.7,0l0.7,0.9
				      l1.3-0.6l0.6,0.4l1.5-1.3l1.1,0.4l0.3-3.2l1.4-1l-0.2-3.2l1.5-0.3l1,0.5l0.2-0.5l0.2,0.5l0.7,2l2.9,0.9l-0.8,3.5l2,0.9l0,1
				      l-1.4-0.1l-1,0.6l1.3,1.4l-1,1.7l1.2,1.2l0.2,1.7l-1.2,3.4l0.3,1.5l-0.9,0.5l-0.1,1.5l0.8,0.4l0.1,1.2l1.1,0.6l-0.5,0.4l-0.2,5.1
				      l-1.4,0.8L315.6,285.1z"/>
  <path id="divi-5856" class="st0" d="M264.7,541.9l1.7,1.2l2.4,0.7l0.2,0.6l-0.2,0.8l-2.2,1.7l-0.4,1.4l1.1,2.7l-0.3,1.1l0.7,2.2
				      l-0.4-0.4l-2.1,0.6l-3.7,3.5l-1.4,0l-5.7,2.8l-3.3-2.1l1.8-6.4l2.2-3.7l-0.7-3.9l0.4-4.2l-0.4-1.6l0.5-1.4l-0.4-2.6l0.6-1.9l1.3-1
				      l1.3-2.6l0.6-0.4l0.3,0.4l2.5,2l-0.1,1.6l-1.1,1.7l1.1,0.5l-0.2,0.7l1.8,3.9l-1.7,2.5l0.2,0.4l1.1,1L264.7,541.9z"/>
  <path id="divi-5858" class="st0" d="M431.3,361l-2.8-0.2l-0.9-1l0.5-0.3l-0.4-0.4l-2.1,1l-2.3-0.7l-0.1-0.5l-1.9-0.2l-0.6-0.2
				      l-0.2,0.6l0.5,0.4l-1.1,0.8l0.8,0.8l-1.6,0.6l-0.2-0.9l-1.8,0.2l0.5-0.4l-0.6-1l-1.3-0.5l-1,1.5l-1.3-0.7l-3.2,2.1l-2-2.2
				      l-0.7,0.1l0-0.9l-5.1,0.9l-0.6-0.3l-0.1,1.4l-1.9,1.5l-0.2,0.8l-2.9,0.2l-1.9,2l-0.4-1.5l-2,1.1l0.1,1l-2.8,3.1l-2.4,0.9l-1-0.6
				      l-2.6,0.7l-2.3-1.3l-0.7,1l-0.7-1.3l-1.8-0.5l-0.5,0.5l-1-0.6l-0.2-1.8l-1.3,0.6l0-3.2l1.9-0.2l-0.4-1.4l1.2-0.4l0.4-0.8l0.2-1.7
				      l-1.6-0.8l0.6-1.6l2.1-3.5l2.4-1.9l0.9-3.2l1.8-3l-0.1-0.9l-2.3-2.9l0.5-2.3l-0.4-3.3l3-1.4l0.8,0.2l1.3-5.1l1.5-3l0.2,0.4
				      l-0.7,2.1l0.3,2.4l-0.9,1l1.2,1.7l-0.4,0.6l1.9,2.5l0.7,4.1l1.2,1.6l-0.2,0.9l-0.8,0.2l0,2.9l14.8-3.6l0.5-0.9l2.3-0.9l1.6,0.7
				      l0.9-1.1l0.5-2l0.9-0.3l1.9,0.5l2.9-0.6l1.7,1.2l1.2-0.4l1.3-1.8l1,0l-0.3,0.9l1.2-0.2l0.1,0.7l1-0.4l0.6,0.7l1.9-0.6l0.1,1
				      l1.2-0.2l0.9,2.1L429,344l1.1,1.1l0.6-0.1l-0.4,1.6l1.5,0.3l0.6,1.2l-0.5,4.1l-1.5,1.9l0.4,0.9l-0.7-0.2l-0.2,0.7l-0.7,0.2l0,1.2
				      l1.5,2.6l0.7,0L431.3,361z"/>
  <path id="divi-5861" class="st0" d="M237.3,489.6l3.3-0.1l1.7-0.8l3.1,3.3l1.3,0.6l1.2,7.2l-4.6,1.2l-3.3-1.4l-1.8,2.1l-2.2,0.9
				      l-0.8,1.8l0.3,0.7l1.7,0.9l-1.4,3l-1.8-1.7l-2.9-1.1l-2.1-2.6l-1.8-0.7l-0.8-1.6l-3.7-1.7l1.2-2.9l2.4-4l0.3-2.9l-1.3-1.5l1.6-0.4
				      l1.4,1.4l1.8,0.6l2.4-1.1l1.5,1.2l1.6,0.2L237.3,489.6z"/>
  <path id="divi-5873" class="st0" d="M52.3,352.8l0.2,0.9l-1,0l-0.9,1.8l1,1.8l-1,1.2l-0.5,2l-1.1,0.3l1.4,1.1l2-0.2l-0.3,1.1
				      l0.8,2.3l1.5,0l2.8,4l0,1.6l1.8,0.4l-1.1,1.5l0.7,1.9l-0.7,0.5l-0.7,2.6l1,1.7l2.5,2l1.7,0.4l0.8-0.5l0.5,0.5l2.3-0.2l4.3,0.8
				      l1.2,0.8l7.5,0.7l2.9-1l2.6-1.9l1.5,0.4l1.7,1.8l4.2-0.4l3.8,0.8l0.7-0.1l0.2-1.5l1.7,0.3l-0.1,1.1l4.5,0.1l3.5,1.2l0.3,3l1.5,4.1
				      l-0.2,1.8l0.5,1.3l1,0.4l-2.8,4.7l-3.3,8.5l2.3,4.4l1.6,4.5l-1.4,17.5l1.9,13.7l3,8.2l2.8,0.8l2.7-0.1l1.4-0.8l-0.2-1.1l0.5-0.8
				      l1.2,0.1l-0.3-0.8l1.3,0.7l0.6-0.4l3.4,1.7l1.1,4.4l-3,1.4l-4,0.7l-4.8-0.6l-1.4-1.5l-8.8-1.5l-4,1l-0.9,0.9l-3.1,0.1l-0.8,1.1
				      l-1.8-0.8l-2.2,0.6l-0.6-0.7l-0.2,0.6l-0.8-0.4l-1,0.4l0.6,0.2l-1,1.3l-0.4-0.7l-0.8,0.5l-3.5-1.3l-0.7-1.8l1-1.5l-1.2-1.1
				      l-0.1-1.1l0.6-2.2l-1.5-1l0.6-2.1l-1.4,0l-2.4-1.2l-2.1-1.9l0.1-1.5l1.5-2.1l-0.8-1.2l-4.5-0.6l-0.6-1.3l0.3-2.2l-1.1-1.7l0.1-0.8
				      l1.8-0.3l0.2-0.5l-0.6-1l-1.5-0.5l0-0.9l0.5-1.5l2.1-0.8l0.5-0.9l-0.4-1l-2.1-0.6l-0.1-0.8l0.7-0.6l2.4,0.3l0.5-1.5l-0.5-1.2
				      l-4.2-2.5l-0.1-1.5l1.1-0.7l2.9,0.6l1-0.6l0.4-1.3l-1.3-1.3l-3.2,1.2l-1.1-0.7l0-0.8l0.5-1.5l1.8-1.8l0.1-2l0.7,0.2l0.3,1.3
				      l0.9,0.1l0.6-1.1l-0.2-1.2l-1.7-1.9l-2.1-0.9l-1.7-2.1l-3,3.4l-0.6-3.9l0.7-2.3l-3.4,0.8l-1-2l-0.4-3.7l-2.6-2.7l-1.2-0.1
				      l-1.7,1.9l-1.5-1.1l-1.3-3.1l1-2.4l1.2-1.4l3.5,0.1l1.1-1.5l-0.5-1.4l-1.7-0.8l-3.7,0.7l-2.2-0.5l-0.6-2.2l2.7-3.1l-0.4-1.3
				      l-1.7-0.4l-1.1,1.2l-1,2.6l-0.7,0.1l-1.9-1.2L46,377l-2.2,1.8l-1.2-0.2l-0.7-1.3l0.6-0.9l2-0.8l0.9-1.7l1.6-1.1l-1.3-2.2l-2.5-0.1
				      l-1.7-3.4l0.9-3.2l-0.4-2.3l1.2-2.2l-2.1-0.8l-0.2-2l2.8-1.2l3.5,0.8l1.7-4.2l1.5-1.5l-0.2,0.8l2.4,0.9L52.3,352.8z"/>
  <path id="divi-5885" class="st0" d="M431.3,361l-0.2,5.5l-0.6,1.8l0.6,1.1l-0.5,0.8l0.5,1l-0.6,0.6l0.5,1.8l-0.3,0.8l-2.5-1
				      l-1.2,0.3l-0.7,1.3l-1.3,0.2l-0.5,1.1l-1,0.6l-0.7-0.7l-0.9,0.2l-0.6-1.9l-0.8,0.5l-0.9-0.4l-0.2,1.3l-0.6,0.2l0.4,0.7l-1.2-0.2
				      l-1.6,2.1l-2.1,0.6l-0.2-0.7l-1.5-0.8l-0.7-1.9l-0.7-0.1l-0.9,2.1l-0.8-0.1l-0.4,0.8l-1-0.4l-0.5,1.1l-2-0.2l-0.8,0.5l0.1,1.9
				      l-4.5,0.1l0.2-1.2l-0.8,0.1l-0.4-0.7l-0.8,0.4l-0.2,1l-1.7,0.1l-1.8,2.7l-2.8,0.3l-0.9-1l-1.8-0.5l-5,1.6l-6.4,0.1l-1.2,0.5
				      l-0.6-1.1l0.9-0.7l-0.3-1.8l-3.5-0.5l-2.3-1.2l0.3-2.7l-0.4-0.6l0.6-0.8l-0.8-1.6l0.4-0.7l1.5-0.3l1.5-1.4l0.9,0.4l0-1.1l1.8-0.7
				      l1-1.6l0.5-0.5l1.8,0.5l0.7,1.3l0.7-1l2.3,1.3l2.6-0.7l1,0.6l2.4-0.9l2.8-3.1l-0.1-1l2-1.1l0.4,1.5l1.9-2l2.9-0.2l0.2-0.8l1.9-1.5
				      l0.1-1.4l0.6,0.3l5.1-0.9l0,0.9l0.7-0.1l2,2.2l3.2-2.1l1.3,0.7l1-1.5l1.3,0.5l0.6,1l-0.5,0.4l1.8-0.2l0.2,0.9l1.6-0.6l-0.8-0.8
				      l1.1-0.8l-0.5-0.4l0.2-0.6l0.6,0.2l1.9,0.2l0.1,0.5l2.3,0.7l2.1-1l0.4,0.4l-0.5,0.3l0.9,1L431.3,361z"/>
  <path id="divi-5887" class="st0" d="M313.3,288l-2.5,2.4l-2.3,7.7l0.9,9.1l-0.8,1.4l0.3,3.3l-1.5,1.7l0.3,0.7l2.6,1.5l1.5,2.1
				      l-0.4,6.1l-3,3l-3.3-0.2l-1,2.1l-0.7,3.6l0.8,1.8l4.6,0.1l-1.7,0.5l0.2,1.2l-0.6,0.8l-2-0.1l-0.4,2.6l-2.7,2.3l-2.7,0.2l-0.5-0.9
				      l-1.8-0.4l-0.8-0.8l0.1,1.5l-1.8,2.3l-2.4-0.2l-0.4,1.4l-1.1,0.6l-0.6,2.9l-1.1,0.3l0.2,1.8l-0.5,0.2l-0.2,1.4l-5.3,4.8l-2.7-1.4
				      l-3.3-0.2l-3.8-1.9l-0.4-1.1l-1.5-0.7l-0.7-1.6l-0.7-0.1l-0.5-2.9l-0.8-0.9l0.1-1.2l0.6-3l-0.4-1.4l-0.6-0.3l0.2-0.7l-0.9-0.4
				      l-0.5-1l-0.6-3.1l-1.8-1.2l-0.3-1.5l0.5-1.2l-0.9-2.8l-1.1-0.4l-0.2-1.1l-2.7-2.9l-2.2,0.3l-0.8-0.8l1-1.7l1,0.2l2.4-2.1l3.6-4.7
				      l1,0.9l0.2,3.2l1.1,2.4l4.8,1.2l-0.5,1.7l0.8,0.2l0.7,1.1l-0.5,1.7l3.4-1.8l1.4,0.3l1.1-0.7l1.6,0l2.2-5.2l-0.8-2.3l4.7-0.4
				      l-0.9-0.5l1.8-0.9l1.9-3.5l5-2l1.5-4.5l7.1-12.5l0.8-0.8l3.4-0.4l0.8-1.1l0-3.1l1.7,0.1l1.1-1.4l-0.5,0l0.1-0.7l0.6-0.3l0.9,0.5
				      l1.3-0.1l0.3,1.7L313.3,288z"/>
  <path id="divi-5890" class="st0" d="M375.2,366.8l1.3-0.6l0.2,1.8l1,0.6l-1,1.6l-1.8,0.7l0,1.1l-0.9-0.4l-1.5,1.4l-1.5,0.3
				      l-0.4,0.7l0.8,1.6l-0.6,0.8l0.4,0.6l-0.3,2.7l2.3,1.2l3.5,0.5l0.3,1.8l-0.9,0.7l0.6,1.1l1.2-0.5l6.4-0.1l5-1.6l1.8,0.5l0.9,1
				      l2.8-0.3l1.8-2.7l1.7-0.1l0.2-1l0.8-0.4l0.4,0.7l0.8-0.1l-0.2,1.2l4.5-0.1l-0.1-1.9l0.8-0.5l2,0.2l0.5-1.1l1,0.4l0.4-0.8l0.8,0.1
				      l0.9-2.1l0.7,0.1l0.7,1.9l1.5,0.8l0.2,0.7l2.1-0.6l1.6-2.1l1.2,0.2l-0.4-0.7l0.6-0.2l0.2-1.3l0.9,0.4l0.8-0.5l0.6,1.9l0.9-0.2
				      l0.7,0.7l1-0.6l0.5-1.1l1.3-0.2l0.7-1.3l1.2-0.3l2.5,1l0.3-0.8l1.5-1.1l2.9-0.6l3.4,1.2l1.5-0.1l1.1,1.2l2.3-0.2l0.8,0.6l-4.4,5.4
				      l-2.1,2l-1.3,0l-1.4,1.9l-0.9,0.3l0.2,0.5l-0.6,0l-2-0.9l-0.2,1l-1.7-1.7l-2.4-0.6l-0.5-0.6l-2,0.8l-1.4-0.2l-0.1,2.3l-0.6,0.1
				      l-0.7,2.2l-2.6,0.9l-0.6-0.7l-1.8-0.1l-0.3,0.8l-0.8-0.2l0.4,0.3l-0.6,1.4l-1.6,1.2l-0.9,0l-1.4-1.7l-0.4,0.3l-0.8-0.5l-2.6,1.5
				      l-0.7-0.4l-1.3,1.5l-0.6-1l-9.7,1.5l-6.6-0.2l-1.5,1.8l-4.4,8.5l2.9,0.6l1.8,1.7l0.6,1.7l-1.5,0.2l-0.8,1l-1-0.2l-0.6-0.7
				      l-3.9-0.6l-2.1-1.1l-1.9,0.3l-0.4-1.2l-3.1-0.6l-0.4-0.7l-1-0.1l-1,0.7l-0.8-0.9l-2.4-0.9l-1.6,0.7l-0.7-0.9l-1.2-1.5l-1.7,1.5
				      l-1.1-0.9l-2.1,1l-2.4,0.2l0.2-1.1l-3.2-3.2l0.3-1.1l-1.1-0.7l0-0.6l-0.6,0.4l-1.3-0.9l-1.2,0.3l-1.9-0.8l-0.8,0.4l-0.1,2.1
				      l-4,0.2l-0.7,1.4l-2.1,1.9l-2.5-0.1l-1.7,0.8l-4.1-1.6l-2.9,0.1l-0.6-0.4l0.8-2.4l0.9-0.8l2.5-1.6l3.3,0l0.3-1.3l-0.7-1.5l1.6-2.2
				      l-0.4-3.9l1.8-2.1l3.8-1l-0.1-1.6l-1-0.5l1.1-1.8l-0.8-0.9l0.1-1l3.2-3.9l-1.4-1l-1.9-2.9l0.6-1.7l0.6,0l-0.2-0.8l1.1-1.2l-0.6-1
				      l1.4-1.5l0-0.7l0.9,0.4l1.2-0.7l0.5,1l1.3-0.2l1.2,1.2l1.7,0.1l0.4,0.6l0.9-0.5l0.6,1l2,0.4l0.8,1.2l2.2,0.7l0.4-1l-0.3-0.8
				      l-1.5-0.5l-0.4-2.1l-2.3-4l0.3-1.5l1-0.4l0.4-2.7l1.4,0l0.8-0.7l2.4,3.2l2.5,0.5l2.4,3l2.5,1.1l0.8,1l-0.1,0.9l1.4,0.5l0.1,0.7
				      l2,0.7l1.1,1.9L375.2,366.8z"/>
  <path id="divi-5893" class="st0" d="M466.4,385.7l-2.8-2.1l-0.2-0.9l-1.5,0.5l0.8-1.3l-1.3,0.2l0.5-0.5l0.1-1.8l-1.2-0.6l0.8-1.5
				      l-0.9-0.9l0.9,0l0.2-0.6l-3.3-4.6l-1-2.4l-1.2-0.8l-1.3,0.4l-1.5-0.5l-1.6-2.4l0.9-4.5l-0.7-0.5l-1,1.3l-1.6-1.6l-0.8,0.5
				      l-1.6-0.2l-1.6-1.1l1.2-2.9l1.8-1.3l1.5,1.1l3,4l1.3-0.2l2.7-2.7l1.6-5.1l2-1.6l0-0.7l-1.1-0.6l1.7-0.8l0.6-1.3l0.2-1.3l-1-1.4
				      l0.1-0.9l2.4-1.5l-0.3-1.3l0.4-0.9l1.2-0.7l0.3,0.7l3-0.3l0.1-0.8l0.6,0.1l0-0.7l0.8-0.5l0.2,0.7l0.7-0.7l1.1,0.1l1,0.6l-0.1,0.9
				      l0.7-0.1l1.7-2.4l-0.6-0.1l0.5-0.7l-0.9-0.7l0.8-0.2l-0.3-0.7l0.6-0.1l0.1-1.2l1.7-0.1l0.2-0.9l3.6-1.3l1.8,0.3l0-0.4l1.1,0
				      l0.4-1.5l-0.6-1.1l1.4-0.5l0.4-1.1l1.1-0.2l-0.3-1.2l0.4-0.5l0.7,0.5l0.8-0.8l2.6,0.9l-0.4-1.2l0.9-1.2l-0.3-1.1l10-11.7l12.4-9.1
				      l25.7-23.5l0.5,1.7l-1.2,2.5l0.2,5.1l-1.7,3.4l1.9,4.8l-0.6,4.3l0.8,3.8l-0.6,1.6l3.5,3.2l-0.5,1.7l1,2.6l4.1,5l0.6,2.1l-0.6,2.3
				      l-2.2,4.1l-4,4.7l-4.7,3.1l-7,3.4l-4,4.1l-6.7,5.4l-1.4,2.4l-3.1,2.7l-0.9,3.8l-1.9,2.8l-2.7,4.2l-1.1,2.1l-3.5,0.4l-1.7,0.9
				      l-1.9,3.5l-1.6,1.7l-3.5,0.9l-3.3-1.1l-1.7,0.9l-1.4,2.1l-1.8,1l-1.5,4.3l-1.7,2.1l-5.9-0.4l-5.1,6.3l-2.9-1.1L466.4,385.7z"/>
  <path id="divi-5895" class="st0" d="M426.7,261.8l-50.1,16.1l1.4-1l0.4-1.6l-0.4-1.7l1.6-1.5l0.4-1.1l-0.5-3.6l-1.3-0.2l-0.4-0.9
				      l2.2-3.3l0.6-2.1l-0.3-2.3l-0.8-0.2l-1.2-3.3l0.4-1.7l-0.9-2.1l-0.7,0.4l0.1,1.5l-1.4,1.7l-1.1,2.7l-2.5,0.1l-0.2-1.2l-0.7-0.3
				      l-3.2,4l-2.9,1.4l-1.4-1l-0.6-1.4l0.6-0.7l-0.3-1.6l-2.8-1.3l0.4-1l-1-2.9l-2.2,1.4l-2.9-4.5l-1.1-0.2l-1.4-1.4l-0.1-1.9l2.2-1.8
				      l-0.7-1.1l0.3-2l-2.1-3.1l-0.2-2.9l0.7,0.1l-0.3-0.8l1,0.2l0.2-0.5l0.4,0.7l0.7-0.6l0.6,0l-0.4-1l0.8-1.1l3-0.2l-0.1-0.8l3.3,0.4
				      l0.2-1.7l1.1,0.3l1-1l0.4-2.4l1.2,0.4l1.2-0.5l-0.9-1l0.9-0.4l0.1-1l0.7,0.5l0.4-0.4l0.4,0.9l1.3-0.9l0,0.9l0.9-0.7l0.6,0.8
				      l0.4-0.9l0.6-0.4l0.4,0.4l1.1-2.7l1.1,0.6l0.2-1.4l0.6,0.3l0.1-1.1l1.9-1.4l-1.1-0.3l0.3-1.2l0.9-0.1l0.3-0.8l0.9-0.3l-0.7-2.1
				      l0.4,0.5l1.1-0.9l0,1l0.7,0.1l2.2-2.4l0.3,0.9l1.9,0l0.6,0.7l0.4-0.3l1,0.8l-0.4,1.3l1.8,0.9l3.2-2.4l0.8,0.1l0.5,0.8l0.7-1
				      l1.4-0.1l1.8-1.7l-0.1-3l1.8-2.6l1,0.5l2.4-0.1l0.8,1.4l-2.7,2.5l0.4,3.8l-0.9,1.4l-2,8.2l-0.8,0.8l-1.7,0.3l-1.5,1.8l-0.3,1.4
				      l-1.8,0.6l1.2,0.3l0.3,1.5l1.9,1.5l0.7,2.5l3.4,2.8l0.5,2l-0.5,2.4l0.2,3l1.2-0.2l0.3,0.8l1.6,0.2l0.4,2.4l-1,0.1l1.2,0.6
				      l-0.4,1.1l1.2,1.1l1.5-0.5l-0.1,0.6l2.4,1.1l-0.1,1.1l1.6,0.4l0.2-0.7l0.8,0.4l0.9-0.7l1.6,1.7l0.3-0.5l2.1,0.8l0.4-1.3l0.7,0.1
				      l1.5,3.4l2.5-0.1l1.3,0.6l0.4,1.8l0.7,0.3l0.2,1.5l0.9,1.1l1.5-0.4l0.8,0.6l1-0.8L426.7,261.8z"/>
</svg>
