<?xml version="1.0" encoding="utf-8"?>
<!-- Generator: Adobe Illustrator 20.1.0, SVG Export Plug-In . SVG Version: 6.00 Build 0)  -->
<svg version="1.1"
	 id="choco" inkscape:output_extension="org.inkscape.output.svg.inkscape" inkscape:version="0.46" sodipodi:docname="departamentos_colombia_plain.svg" sodipodi:version="0.32" xmlns:cc="http://creativecommons.org/ns#" xmlns:dc="http://purl.org/dc/elements/1.1/" xmlns:inkscape="http://www.inkscape.org/namespaces/inkscape" xmlns:rdf="http://www.w3.org/1999/02/22-rdf-syntax-ns#" xmlns:sodipodi="http://sodipodi.sourceforge.net/DTD/sodipodi-0.dtd" xmlns:svg="http://www.w3.org/2000/svg"
	 xmlns="http://www.w3.org/2000/svg" xmlns:xlink="http://www.w3.org/1999/xlink" x="0px" y="0px" viewBox="0 0 401.9 734.9"
	 style="enable-background:new 0 0 401.9 734.9;" xml:space="preserve">
<style type="text/css">
	.st0{fill:none;stroke:#151615;stroke-miterlimit:10;}
</style>
<path id="divi-27006" class="st0" d="M150.6,90.5l7.8,10.6l7.5,10.4c0,0.1,0.1,0.1,0.2,0.2l13.1,6.8l7.1,12.2l0,0l-1.1,3.7l-5.1-5.8
	c-0.1-0.1-0.3-0.2-0.5-0.2s-0.4,0.1-0.4,0.3l-2.4,5.4l-3.3,2.3l-7.8,1.6l-4.6-0.8H161h-5.4l-1.2-9.2c0-0.1-0.1-0.2-0.2-0.3
	l-11.4-12.3l-1.9-6.4L150.6,90.5z"/>
<path id="divi-27800" class="st0" d="M179.8,130l5.2,6c0.1,0.1,0.3,0.2,0.5,0.2s0.4-0.2,0.4-0.4l1.2-4.2l9,7.5l8,14.8l-0.3,4
	l-3.5,5.6l0,0l-5.1,4.3c-0.1,0.1-0.2,0.2-0.2,0.3l-1.7,8.8L191,185l-5.4,2.7c-0.2-0.2-0.6-0.2-0.8,0l-0.4-5.1c0-0.2-0.1-0.4-0.3-0.5
	l-6.1-3.3c-0.1,0-0.1,0-0.2,0l-4.9-1.2l0.4-3c0-0.1,0-0.3-0.1-0.4c0,0-1.2-2.1-2.2-4.2c-0.5-1.1-0.9-2.1-1.2-2.8
	c-0.1-0.3-0.1-0.6-0.1-0.7c0.1,0,0.3,0,0.4-0.1c0.2-0.2,0.3-0.3,0.3-0.5c0.1-0.4,0.2-0.8,0.2-1.2c0.1-1,0-2.2-0.2-3.4
	c-0.2-2.5-0.7-4.9-0.7-4.9c0-0.1-0.1-0.2-0.1-0.2l-14.2-17.6v-0.1h5.2h0.1l4.6,0.8c0.1,0,0.1,0,0.2,0l8-1.6c0.1,0,0.2,0,0.2-0.1
	l3.6-2.5c0.1-0.1,0.1-0.1,0.2-0.2L179.8,130z"/>
<path id="divi-27615" class="st0" d="M257.4,266.6L257.4,266.6l-5.6-7.3l-0.1-0.1l-5.8-4.3l-4.8-0.3c-0.1,0-0.3-0.1-0.4-0.2
	l-6.3-6.4l-6-6.4l-1.8-1.9c-0.2-0.2-0.2-0.6,0-0.8l0.2-0.2l-7.6-8.9l0,0l-9.4-9.8l-0.1-0.1l-3.8-2.2l-0.9-1.4l-7.2-4
	c-0.1,0-0.1-0.1-0.2-0.1l-9.3-9.6l-0.1-0.1l-7.7-6.6c-0.1-0.1-0.2-0.2-0.2-0.4l-0.2-5.2c0-0.2,0.1-0.4,0.3-0.5l3.2-1.5l-0.4-5.3
	l-5.8-3.2l-4.6-1.1l-0.5,6.2c0,0.2-0.1,0.4-0.3,0.5l-17.1,7.1l-10.4,14.1l-6.9,12.4l-0.1,0.1L128,229c-0.1,0.1-0.3,0.2-0.4,0.2
	l-10.7-0.2c-0.2,0-0.4-0.1-0.5-0.3l-7.2-12.4l0,0c-0.1-0.1-0.9-1-2-1.8c-0.6-0.4-1.2-0.8-1.8-0.9c-0.6-0.2-1-0.1-1.4,0.2
	c-0.3,0.2-0.8,1-1.1,2c-0.3,1-0.5,2.3-0.7,3.5c-0.3,2.5-0.4,4.7-0.4,4.8l0,0l0.3,9.8c0.2,0,0.3,0.1,0.4,0.3l2.5,4.4
	c0,0,0,0.1,0.1,0.2l2.7,11.8l4.7,9.9v0.1l1.9,6.7l5.3,3.2c0.2,0.1,0.3,0.4,0.2,0.6l-1.1,5.9l1.6,6.8v0.1l0.3,7.7l2.4,6.8
	c0.1,0.2,0,0.4-0.1,0.6l-2.8,3l6.6,11.5l7.2-5.4c0.2-0.2,0.5-0.2,0.7,0s0.3,0.4,0.2,0.7l-2.3,6.2l2.5,2.2l6.6-1.2c0.1,0,0.2,0,0.2,0
	l5.9,1.6l-1.8-3.2c0,0,0,0,0-0.1l-3-8c0-0.1,0-0.3,0-0.4l3-8c0.1-0.1,0.2-0.3,0.3-0.3l8.8-3.5l1.8-5.2c0.1-0.2,0.2-0.3,0.3-0.4
	l3.7-1.3l2.9-4.8c0.1-0.1,0.2-0.2,0.3-0.2l6.6-2.8c0.2-0.1,0.5,0,0.7,0.2l2.5,3.7l2.8-4.7c0.1-0.1,0.2-0.2,0.3-0.2l9.3-4.1l-4.5-3.8
	c-0.2-0.1-0.3-0.4-0.2-0.6c0-0.2,0.2-0.4,0.4-0.4l6.8-1.9l4.6-3.8l0,0l2.6-2.4l-2.8-1.3c-0.2-0.1-0.4-0.3-0.4-0.6
	c0-0.2,0.2-0.4,0.4-0.5l7.7-2.2c0.1,0,0.2,0,0.2,0l4.3,0.6l0.9,0.2l3.7,0.5c0.2,0,0.3,0.1,0.4,0.3l2.1,4c0.1,0.2,0.1,0.4,0,0.5
	l-2.1,4.3c0,0.1-0.1,0.2-0.1,0.2l-3.2,2.5l0.7,3.5l5,1l6-1.5l3-4.4c0.1-0.1,0.3-0.2,0.4-0.2h3.4c0.3,0,0.5,0.2,0.5,0.5v4.6l2,0.3
	l-0.2-4.1c0-0.1,0.1-0.3,0.1-0.4l4.2-4.6c0.2-0.2,0.6-0.2,0.8,0l5.2,5.3h0.1l3.2,2.8l5.5,1.1c0.1-0.2,0.2-0.3,0.4-0.4s0.4,0,0.5,0.2
	l4.1,3.7l6.5,1l0.9-2.6L257.4,266.6z"/>
<path id="divi-27372" class="st0" d="M103.3,238.8l0.4,0.7l2.7,11.8c0,0,0,0.1,0.1,0.1l4.6,9.8l1.9,6.9c0,0.1,0.1,0.2,0.2,0.3
	l5.2,3.1l-1,5.7c0,0.1,0,0.2,0,0.2l1.7,6.9l0.2,7.6c0,0.1,0,0.1,0,0.2l2.4,6.6l-2.8,3c-0.2,0.2-0.2,0.4-0.1,0.7l7.2,12.4
	c0.1,0.1,0.2,0.2,0.4,0.3c0.2,0,0.3,0,0.5-0.1l6.2-4.6l-1.8,4.8c-0.1,0.2,0,0.5,0.2,0.7l2.1,1.8c-0.2,0.1-0.4,0.3-0.4,0.5
	s0.1,0.4,0.4,0.5l5.7,2.1v4.1l-4.2,5l-0.5-0.1c-0.2,0-0.4,0-0.6,0.2l-3.5,4.1c-0.1,0.1-0.1,0.2-0.1,0.3l-0.1,3l-2.3-1.2l-3.5-10.4
	c0-0.1-0.1-0.1-0.1-0.2l-11.6-13.1c-0.1-0.1-0.3-0.2-0.4-0.2s-0.3,0.1-0.4,0.2l-4.3,4.8l-0.8-11.1l6.2-4.2c0.2-0.2,0.3-0.5,0.2-0.8
	l-6.1-10.9c0-0.1-0.1-0.1-0.2-0.2l-17.2-13.4v-0.1h-0.1L82,267l0.6-6.4l7.2-15.2l7-5.9l6-0.2C103,239.3,103.3,239.1,103.3,238.8z"/>
<path id="divi-27150" class="st0" d="M201.5,257.7l7.9,1.1l1.9,3.6l-2.1,4.1l-3.4,2.6c-0.2,0.1-0.3,0.3-0.2,0.6l0.8,4.4
	c0,0.2,0.2,0.4,0.4,0.5l5.8,1.1c0.1,0,0.2,0,0.2,0l6.6-1.7c0.1,0,0.3-0.1,0.3-0.2l3.1-4.4h2.7v4.7c0,0.3,0.2,0.5,0.5,0.6l3.3,0.5
	c0.2,0,0.3,0,0.5-0.1c0.1-0.1,0.2-0.3,0.2-0.5l-0.3-4.7l3.9-4.1l5.1,5.1l0,0l3.6,3c0.1,0.1,0.2,0.1,0.3,0.1l6.9,1.4
	c0.1,0,0.1,0,0.2,0h0.1l3.6,3.2c0.1,0.1,0.2,0.1,0.3,0.1l6.8,1l-1.2,3.6c-0.3,0-0.5,0.2-0.5,0.5l-0.8,10.1l-0.3,1
	c-0.3,0.2-0.4,0.5-0.2,0.8l-0.4,1.3l-5.1-3.4c-0.1,0-0.1-0.1-0.2-0.1l-7.2-1.7c0,0,0,0-0.1,0l-8.8-1.1h-0.1l-14.1,0.8
	c-0.2,0-0.3,0.1-0.4,0.2l-2.5,3.6c-0.1,0.2-0.1,0.4,0,0.6l3.2,6l1.3,7.9l-3.8,4.3h-5.2H214l-4.2-0.4c0.2-0.2,0.2-0.4,0.1-0.6
	s-0.3-0.3-0.5-0.4H208l0,0l-1.9-1.8c-0.2-0.1-0.4-0.2-0.6-0.1l-4.4,1.8l-6.7-3.8c-0.2-0.1-0.5-0.1-0.7,0.1l-9.6,8c0,0-0.1,0-0.1,0.1
	l-3.1,3.9l-3.1-3.9c-0.1-0.2-0.4-0.3-0.6-0.2l-8,2.2l0,0l-6.9,2.2h-7.4l-5.2-3.4l-2.4-4.2l-3-7.8l2.9-7.5l8.8-3.5
	c0.2-0.1,0.3-0.2,0.3-0.3l1.8-5.2l3.6-1.3c0.1,0,0.2-0.1,0.3-0.2l2.9-4.8l6.1-2.5l2.8,4c0.1,0.2,0.3,0.3,0.5,0.2s0.4-0.1,0.5-0.3
	l3.2-5.4l10-4.3c0.2-0.1,0.3-0.3,0.3-0.4c0-0.2-0.1-0.4-0.2-0.5l-4.4-3.7l5.8-1.7c0.1,0,0.2,0,0.2-0.1l4.7-3.9l0,0l3.3-3
	c0.2-0.1,0.2-0.3,0.2-0.5s-0.2-0.4-0.3-0.4l-2.2-1L201.5,257.7z"/>
<path id="divi-27099" class="st0" d="M194.1,310.1l6.6,3.7c0.2,0.1,0.3,0.1,0.5,0l4.3-1.8l1.2,1.1l-5.8,2.2
	c-0.2,0.1-0.4,0.3-0.4,0.5l-0.3,4.6v0.1l0.3,4.2c0,0.1,0.1,0.3,0.2,0.3l3.3,3.9l-1.7,2.6c-0.2,0.2-0.1,0.6,0.1,0.8l3.2,2.6
	c0,0,0,0,0.1,0l3.2,1.9l2.6,2.9l-2.1,4.9c-0.1,0.2-0.1,0.3,0,0.5c0.1,0.1,0.2,0.3,0.4,0.3l5,1.6l3.1,4.4l0,0l1.9,3.2
	c0.1,0.1,0.1,0.2,0.2,0.2l5.2,2.3l-1.9,3c-0.1,0.1-0.1,0.3-0.1,0.4l1.3,6.5l0,0l-0.6,6.8c-0.3,0.1-0.4,0.3-0.4,0.6l-5.3-0.2
	c-0.2,0-0.5,0.1-0.6,0.3l-1.6,3.6l0,0l-2.6,5.8l-5.9,4.9l-7.4-2.2l-8.1-6.2c-0.2-0.2-0.6-0.1-0.8,0.1l-7.2,8.2
	c-0.1,0.1-0.2,0.3-0.1,0.5c0,0.2,0.1,0.3,0.3,0.4l3.4,1.8l1.2,5.9l-8.2,6c-0.1,0.1-0.2,0.2-0.2,0.3l-1.6,6l-0.7,0.3l0,0
	c-0.1,0-0.3,0.1-0.4,0.2c0,0,0,0-0.1,0.1l-3.3,1.5l-5.1-0.9c-0.2,0-0.4,0-0.5,0.2l-3.4,3.1l-7.1-0.5l-0.3-3.4l1.9-5.2l6.7-4.8
	c0.2-0.1,0.3-0.4,0.2-0.6l-2.3-8.5l-0.3-5.1c0-0.3-0.3-0.5-0.6-0.5h-7.6l-1.8-2.6l4.2-4.6c0.1-0.1,0.2-0.3,0.2-0.5l-0.7-5.2v-0.1
	l-2.3-7.7l0,0l-0.3-12l0,0v-0.1l0.7-5.1c0-0.2,0-0.3-0.2-0.5l-6.4-6.7l-0.3-3.1c0-0.1,0-0.2-0.1-0.2l-4.2-7l4.7-2.6
	c0.1-0.1,0.2-0.1,0.2-0.2l3.1-5.8l1.3,0.8c0.1,0.1,0.2,0.1,0.3,0.1h7.7c0.1,0,0.1,0,0.2,0l6.9-2.2l7.6-2.1l3.3,4.1
	c0.1,0.1,0.3,0.2,0.4,0.2c0.2,0,0.3-0.1,0.4-0.2l3.5-4.3h0.1v-0.1L194.1,310.1z"/>
<path id="divi-27075" class="st0" d="M142,316.9l6.9,1.9l3.2,2.1l-3.1,5.8l-5.1,2.8c-0.1,0.1-0.2,0.2-0.3,0.4c0,0.2,0,0.3,0.1,0.4
	l4.5,7.4l0.3,3.2c0,0.1,0.1,0.3,0.2,0.3l6.3,6.7l-0.6,5c0,0,0,0,0,0.1l0.3,12.1c0,0.1,0,0.1,0,0.2l2.3,7.8l0.6,4.8l-4.4,4.7
	c-0.2,0.2-0.2,0.5-0.1,0.8l2.3,3.2c0.1,0.2,0.3,0.2,0.5,0.2h7.3l0.3,4.7v0.1l2.2,8.1l-6.6,4.7c-0.1,0.1-0.2,0.1-0.2,0.2l-1.9,5.6
	c0,0.1,0,0.2,0,0.2l0.3,3.2l-4.4,2.9l-2.1-0.6c-0.1,0-0.1,0-0.2,0l-8.5-12l0,0L136,394l2.1-10.6l5.7,7.6c0.1,0.2,0.3,0.2,0.6,0.2
	c0.2,0,0.4-0.2,0.4-0.4l2.8-9.5v-0.1l0.6-13l0,0l2.4-19.4c0-0.2,0-0.3-0.2-0.4l-6-7.2l-0.5-9.3c0-0.3-0.2-0.5-0.4-0.5l-7.1-1.6
	l4-4.7c0.1-0.1,0.1-0.2,0.1-0.4V320c0-0.2-0.2-0.4-0.4-0.5l-4-1.5L142,316.9z"/>
<path id="divi-27001" class="st0" d="M218.8,375.7l5.1,0.3l0.5,4.4c0,0.2,0.2,0.4,0.4,0.5l2.9,0.9l0.6,3.6c0,0.1,0.1,0.2,0.2,0.3
	l3.4,3.4l1,5.7c0,0.1,0,0.2,0.1,0.2l2.4,3.6l-3.7,4.2l0,0l-5.5,2.8l-7.3-1.9c-0.2-0.1-0.4,0-0.6,0.2l-2.3,2.5l-6-2.8
	c-0.1-0.1-0.3-0.1-0.5,0l-2.9,1.1c-0.1,0.1-0.3,0.2-0.3,0.3l-3.4,8.2c0,0.1,0,0.1,0,0.2l-0.3,3.6c0,0.3,0.1,0.5,0.4,0.6l6.2,1.9
	l1.5,2.4c0.1,0.1,0.1,0.1,0.2,0.2l1.8,1l-2.5,1.9c-0.1,0.1-0.2,0.2-0.2,0.3l-1,4.7c0,0.2,0,0.4,0.2,0.5l1.6,1.5l-1.4,2.2
	c-0.2,0.3-0.1,0.6,0.2,0.8l3.7,2.6h0.1l7,6l0,0l2.3,1.8c0.2,0.1,0.4,0.2,0.6,0.1l6-2.7h0.1l4.7-1.3l4.8-1.3c0.2-0.1,0.4-0.2,0.4-0.5
	l0.6-4l2.9,1.3c0.2,0.1,0.4,0.1,0.6-0.1l6.4-4.5l5.2-0.6c0.3,0,0.5-0.3,0.5-0.5l0.3-3.3l4.4-3.1l2.4-1c0.3-0.1,0.4-0.4,0.3-0.7
	l-1-3.5l5.2-0.9c0.1,0,0.2-0.1,0.3-0.2l1.2-1.2l3.7-0.6c0.2,0,0.4-0.2,0.5-0.5l0.3-2.8l5.4-0.8c0.1,0,0.2-0.1,0.3-0.2l3.4-3.5
	l0.1-0.1l4-3.1c0,0,0.1,0,0.1-0.1l3.1-3.4l0,0l2.4-2.4l2.8,0.2v0.1l-0.3,8.8c0,0.2,0.1,0.3,0.2,0.4l6.5,7.8c0.1,0.1,0.2,0.1,0.2,0.2
	l1,0.3l-1.8,4.7l-1.9,4.8c0,0.1-0.1,0.1-0.1,0.2l-0.1,3.2l-4.1-0.4h-0.1l-7.5,0.3c-0.2,0-0.3,0.1-0.4,0.2l-2.8,3.8c0,0,0,0,0,0.1
	L281,439l0,0l-3.9,3.7c-0.1,0-0.1,0.1-0.1,0.2l-2.6,5.3l-0.1,0.1l-2.7,3.5l-0.1,0.1l-0.8,1.9c-0.2,0-0.4,0.2-0.4,0.4
	c-0.1,0.2,0,0.4,0.1,0.5l-0.1,0.4l-7.7-0.6c-0.1,0-0.2,0-0.3,0.1l-3.2,2l-4-1.2c-0.2-0.1-0.4,0-0.6,0.2l-2,2.1l-4.4,1.9H248
	l-3.6,0.8c-0.1,0-0.1,0-0.2,0.1l-4.5,2.9l-2.1-1.8l0.1-0.5c0,0,0,0,0-0.1l0,0c0,0,0,0,0-0.1v-0.1v-0.1l0.6-3.8c0-0.2,0-0.3-0.1-0.5
	c-0.1-0.1-0.3-0.2-0.5-0.2l-8.8,0.5h0.1l-6.6-0.5c-0.1,0-0.2,0-0.3,0l-2.6,1.2l-0.1,0.1l-2.8,2.3l-2.6-1.4h-0.1l-3.9-1.2
	c-0.1,0-0.3,0-0.4,0L206,459l-2.6,1.3l-1.6-1.7l-0.8-6c0-0.2-0.2-0.4-0.4-0.5l-4-1.2l-2.2-5.8V445l-1.3-8.4l0,0l-1.5-6.7
	c0-0.1,0-0.1-0.1-0.2l-2.8-5.2c0-0.1-0.1-0.2-0.2-0.2l-4.5-2.4h-0.1l-2-1.4l0.2-7.1c0-0.2-0.1-0.4-0.2-0.5l-2.6-1.8l0.2-0.1
	c0.2-0.1,0.3-0.2,0.3-0.4l1.6-6l8.3-6.1c0.2-0.1,0.3-0.4,0.2-0.6l-1.3-6.5c0-0.2-0.1-0.3-0.3-0.4l-3-1.6l6.4-7.2l7.7,5.9
	c0.1,0,0.1,0.1,0.2,0.1l7.8,2.3c0.2,0.1,0.4,0,0.5-0.1l6.2-5.2c0.1-0.1,0.1-0.1,0.2-0.2l2.6-5.9L218.8,375.7z"/>
<path id="divi-27425" class="st0" d="M288.3,393L288.3,393h7l0.6,4.9l-0.7,1.4l-3.5-0.3c-0.2,0-0.3,0-0.5,0.2l-2.6,2.6l0,0l-3,3.3
	l0,0v0.1l-4,3c0,0,0,0-0.1,0.1l-3.3,3.5l-5.7,0.8c-0.3,0-0.5,0.2-0.5,0.5l-0.3,2.8l-3.5,0.6c-0.1,0-0.2,0.1-0.3,0.2l-1.2,1.2l-5.7,1
	c-0.2,0-0.3,0.1-0.4,0.3c-0.1,0.1-0.1,0.3-0.1,0.5l1,3.6l-2,0.8c0,0-0.1,0-0.1,0.1l-4.7,3.2c-0.1,0.1-0.2,0.3-0.2,0.4l-0.3,3.1
	l-4.9,0.6c-0.1,0-0.2,0-0.2,0.1l-6.3,4.4l-3.3-1.5c-0.2-0.1-0.4-0.1-0.5,0s-0.3,0.2-0.3,0.4l-0.6,4.3l-4.4,1.2l-4.8,1.3h-0.1
	l-5.7,2.6l-2-1.6l-7-6l0,0l-3.3-2.3l1.3-2.2c0.1-0.2,0.1-0.5-0.1-0.7l-1.7-1.6l0.7-4l3.1-2.3c0.2-0.1,0.2-0.3,0.2-0.5
	s-0.1-0.4-0.3-0.5l-2.5-1.4l-1.5-2.5c-0.1-0.1-0.2-0.2-0.3-0.2l-5.9-1.8l0.2-2.9l0,0l3.3-7.9l2.5-0.9l6.1,2.8
	c0.2,0.1,0.5,0.1,0.7-0.1l2.4-2.5l7.2,1.8c0.1,0,0.3,0,0.4,0l5.7-2.9c0.1,0,0.1-0.1,0.2-0.1l3.6-4.2l0.2,0.3
	c0.1,0.2,0.4,0.3,0.6,0.2l4.8-1.3l13.1-0.7h0.1l8.8-2.6l0,0l2.9-0.6c0.1,0.2,0.3,0.3,0.6,0.3L288.3,393z"/>
<path id="divi-27025" class="st0" d="M178.3,411.5l2.9,2l-0.2,7.1c0,0.2,0.1,0.4,0.2,0.5l2.3,1.6c0,0,0,0,0.1,0l4.4,2.4l2.6,4.9
	l1.5,6.7l0,0l1.3,8.5v0.1l2.3,6.2c0.1,0.2,0.2,0.3,0.4,0.3l3.9,1.2l0.8,5.9c0,0.1,0.1,0.2,0.2,0.3l0.3,0.3l-0.9,4.4c0,0,0,0,0,0.1
	l-0.5,5.1l-1.6,4.4c0,0.1,0,0.1,0,0.2l-0.2,6.4c0,0.1,0,0.3,0.1,0.4l1.6,2.2l0.9,4c0,0.2,0.2,0.4,0.4,0.4c0.2,0.1,0.4,0,0.6-0.2
	l1.5-1.6c0,0,0-0.1,0.1-0.1l2.4-4.1c0,0,0-0.1,0.1-0.2l1-4.1l1.9-2.5l1.2,1.9l1.1,1.7l-0.5,4.7l-2,2.3c-0.2,0.2-0.2,0.5,0,0.7
	l6.2,8.6l-3.1,0.4c-0.3,0-0.5,0.3-0.5,0.6v2.5l-1.5,2.5c0,0.1-0.1,0.1-0.1,0.2l-0.5,2.8l0,0l-0.5,2.9l-2.1,0.1l-1.7-0.8l-1-1.1
	l1-3.4c0-0.1,0-0.1,0-0.2l-0.2-3.5c0-0.2-0.2-0.4-0.4-0.5l-3.7-1.6c-0.1-0.1-0.3-0.1-0.4,0l-3.3,1l-4.5-1.6l-3.2-2.3
	c-0.2-0.1-0.4-0.2-0.6-0.1l-3.8,1.6l-2.2-1.4c-0.1-0.1-0.2-0.1-0.3-0.1l-2.4,0.2h-0.1l-3.4-0.3c-0.1,0-0.1,0-0.2,0l-4,1.2l-4.2-1.9
	l-0.5-3.2c0-0.2-0.2-0.4-0.3-0.4l-4.1-1.8c-0.1,0-0.1,0-0.2,0l-5.1-0.2l-0.2-3.4h0.1l2.3-0.7c0.3-0.1,0.4-0.3,0.4-0.6l-0.4-2.9
	l2.7,0.2h0.1l3.6-0.3c0.2,0,0.3-0.1,0.4-0.2l1.8-2.3c0.1-0.1,0.1-0.2,0.1-0.3l0.3-5.9l1.1-3.1l2.8-2.8c0.1-0.1,0.1-0.1,0.2-0.2
	l1.5-3.9c0.1-0.2,0-0.4-0.1-0.6l-2.4-2.8c-0.1-0.1-0.1-0.1-0.2-0.2l-4.2-1.9l1.4-2.6l4.9-0.3c0.3,0,0.5-0.2,0.5-0.5l1-5.2l2.4-8.1
	c0-0.1,0-0.3-0.1-0.4l-2.3-4.1c-0.1-0.2-0.3-0.3-0.5-0.3l-7-0.3l-6.3-1.2l-2.2-2.5l-0.7-13.5l7.2,0.6c0.2,0,0.3,0,0.4-0.2l3.4-3.1
	l4.9,0.9c0.1,0,0.3,0,0.4-0.1L178.3,411.5z"/>
<path id="divi-27495" class="st0" d="M157.4,415l0.7,13.7c0,0.1,0.1,0.3,0.2,0.3l2.4,2.8c0.1,0.1,0.2,0.2,0.3,0.2l6.5,1.3h0.1
	l6.7,0.3l2,3.6l-2.4,7.9c0,0,0,0,0,0.1L173,450l-4.8,0.3c-0.2,0-0.4,0.1-0.5,0.3l-1.8,3.4c-0.1,0.1-0.1,0.3,0,0.5s0.2,0.3,0.3,0.3
	l4.6,2.1l2.1,2.4l-1.3,3.5l-2.9,2.9c-0.1,0.1-0.1,0.1-0.1,0.2l-1.2,3.3c0,0.1,0,0.1,0,0.2l-0.3,5.9l-1.5,1.9l-3.3,0.3h-0.1l-3.3-0.3
	c-0.2,0-0.4,0-0.5,0.2s-0.2,0.3-0.2,0.5l0.4,3.1l-1.5,0.4l-1.5-1.4v-0.1l-0.1-0.1l-2-3.6c0-0.1-0.1-0.1-0.1-0.2l-4.1-3.9
	c-0.1-0.1-0.3-0.2-0.4-0.2l-4.7,0.2h-0.1l-3.6,0.8l0,0l-3.8,0.7c-0.3,0.1-0.5,0.3-0.5,0.6v2l-3.8,0.6c-0.2,0-0.4,0.2-0.4,0.4
	l-0.5,1.7l-1.9-0.4l0,0l-2-0.5l2.4-10l11.2-2.3l7.1,3.2c0.3,0.1,0.6,0,0.7-0.2l14.8-22c0.1-0.2,0.1-0.5,0-0.7l-7.7-10.9l0,0l-4.3-17
	c0-0.1-0.1-0.1-0.1-0.2l-0.2-0.2l1.1,0.3c0.2,0,0.3,0,0.5-0.1L157.4,415z"/>
<path id="divi-27245" class="st0" d="M303.3,418.4l1.2,0.4c0.1,0.3,0.3,0.4,0.6,0.4l6.4-0.2c0.1,0,0.2,0,0.2-0.1v2.9l-1.1,2
	c0,0.1-0.1,0.2-0.1,0.3l0.5,8v0.1l-4.2,6.6c-0.1,0.1-0.1,0.3-0.1,0.5l1.6,4.4c0,0.1,0.1,0.2,0.2,0.2l4.1,3.9l0.6,1.3
	c-0.1,0.1-0.2,0.2-0.3,0.4c0,0.2,0,0.3,0.1,0.5l1.7,2.5l0.6,3.6l-1,2.6l0,0l-1,2c-0.1,0.1-0.1,0.2-0.1,0.3l0.1,0.3l-2.8,0.8l0,0
	l-5.3,0.2l0,0l-5.8-1.6h-0.1l-4.4-0.5l-3.6-3.9c-0.1-0.1-0.1-0.1-0.2-0.1l-3.9-1.8c-0.2-0.1-0.3-0.1-0.5,0l-3.6,1.8l-2.9,0.7
	l-2.9-1.3l-2.1-2.5c-0.1-0.1-0.3-0.2-0.4-0.2c-0.2,0-0.3,0.1-0.4,0.2l-1.1,1.2l-1.1-0.3l0.6-1.6l2.8-3.6c0,0,0-0.1,0.1-0.1l2.5-5.3
	l3.9-3.7c0,0,0.1-0.1,0.1-0.2l2.2-4.3v-0.1l0,0l2.6-3.4l7.2-0.3l0,0l4.7,0.5c0.2,0,0.3,0,0.4-0.1s0.2-0.2,0.2-0.4l0.2-3.6l1.9-4.7
	L303.3,418.4z"/>
<path id="divi-27413" class="st0" d="M274.6,454.5l1.7,2.1c0.1,0.1,0.1,0.1,0.2,0.2l3.2,1.5c0.1,0.1,0.3,0.1,0.4,0l3.3-0.8h0.1
	l3.3-1.7l3.6,1.7l3.7,4c0.1,0.1,0.2,0.1,0.3,0.2l4.5,0.5l2.1,0.6l-1.4,2.3l0,0l-2.7,3.7l-5,0.3c-0.1,0-0.2,0-0.3,0.1l-3.4,2.4l0,0
	l-4.1,3.1c-0.1,0.1-0.2,0.3-0.2,0.5l0.3,11.5l-2.6,2l-4.5,1l-2.6-2.2c-0.1-0.1-0.3-0.2-0.5-0.2l-6,0.8l-3-1.5l0,0c0,0,0,0-0.1-0.1
	l-0.6-2.8c0-0.1-0.1-0.3-0.3-0.4c-0.1-0.1-0.3-0.1-0.4-0.1l-4.8,1.3l-4.8,0.2c-0.1,0-0.1,0-0.2,0l-2.6,1c-0.1,0-0.2,0.1-0.2,0.2
	l-1.2,1.6l-1-2.1l0.6-1.9l1-2.9c0.1-0.2,0-0.3,0-0.5l-1.4-2.5l0.4-2.6l3.9-0.3c0.1,0,0.1,0,0.2,0l1.8-0.6l2.6-0.3
	c0.2,0,0.3-0.1,0.4-0.2l1.6-2.4c0.1-0.1,0.1-0.2,0.1-0.3l0.2-6.3l2-2.1c0.1-0.1,0.2-0.3,0.2-0.5l-0.5-3.3c0-0.2-0.1-0.3-0.2-0.4
	l-1.3-0.8l2.5-1.5l7.9,0.6c0.2,0,0.4,0,0.5-0.2s0.2-0.3,0.2-0.5l0.2-0.4l1.6,0.4c0.2,0,0.4,0,0.6-0.2L274.6,454.5z"/>
<path id="divi-27050" class="st0" d="M255.1,456.6l3.9,1.2c0.1,0,0.1,0,0.2,0l1.6,1.1l0.4,2.8l-1.9,2.1c-0.1,0.1-0.2,0.2-0.2,0.4
	l-0.2,6.3l-1.4,2.1l-2.4,0.3H255l-1.8,0.6l0,0l-4.4,0.3c-0.3,0-0.5,0.2-0.5,0.5l-0.5,3.3c0,0.1,0,0.2,0.1,0.3l1.3,2.4l-0.9,2.7l0,0
	l-0.7,2.1c0,0.1,0,0.3,0,0.4l1.5,3.1c0.1,0.2,0.2,0.3,0.4,0.3l-1.1,2.3l-3.3,0.2l-2.6-2.9l-0.1-0.1l-2-1.2c-0.1-0.1-0.2-0.1-0.3-0.1
	l-3.7-0.1c-0.1-0.2-0.2-0.3-0.4-0.3l0.4-5.9c0-0.1,0-0.3-0.1-0.4l-1.8-2.1l0.2-2.6l1-3.6V472l0.3-4.1v-0.1l-0.6-4l1.2-1.8l2.6,2.2
	c0.2,0.2,0.4,0.2,0.7,0.1l4.8-3l3.7-0.8h0.1l4.6-2c0.1,0,0.1-0.1,0.2-0.1L255.1,456.6z"/>
<path id="divi-27600" class="st0" d="M222.4,457.3l6.6,0.5h0.1l8.1-0.4l-0.5,3l-0.5,0.5c0,0,0,0-0.1,0.1l-1.6,2.5
	c-0.1,0.1-0.1,0.3-0.1,0.4l0.7,4.2v0.1l-0.3,3.9l-1,3.5v0.1l-0.2,2.9c0,0.2,0.1,0.3,0.2,0.4l1.8,2.1l-0.4,6.2l-1.5,0.8l-6.1,0.5l0,0
	l-6.9-1.1l-0.9-4.2c0-0.2-0.2-0.3-0.3-0.4l-5.6-2.9l-3-4.6l-1.6-2.6c-0.1-0.2-0.3-0.3-0.5-0.3s-0.4,0.1-0.5,0.2l-2.5,3.3
	c0,0.1-0.1,0.1-0.1,0.2l-0.9,4.1l-2.4,3.9l-0.1,0.1l-0.7,0.7l-0.8-3c0-0.1,0-0.2-0.1-0.2l-1.5-2.1l0.2-6.1l1.6-4.3v-0.1l0.5-5.2
	v-0.1l0.8-3.5l0.7,0.8c0.2,0.2,0.5,0.2,0.7,0.1l2.9-1.5l0,0l3.2-1.7l3.7,1.1l0,0l2.8,1.6c0.2,0.1,0.5,0.1,0.7-0.1l3.1-2.6
	L222.4,457.3z"/>
<path id="divi-27073" class="st0" d="M313.5,462.7l0.1,1c0,0.2,0.1,0.3,0.2,0.4s0.3,0.1,0.5,0.1l1.7,2.6l-4.5,4.7
	c-0.1,0.1-0.1,0.1-0.1,0.2l-1.1,2.5c0,0.1-0.1,0.2,0,0.3l1.2,5l-0.5,2.2c0,0.1,0,0.2,0,0.2l-3.4,2l-4.8,0.5c-0.1,0-0.2,0-0.3,0.1
	l-3.3,2.3c-0.1,0.1-0.2,0.3-0.2,0.4l-0.2,5.9l-1.3,2.6l-8.2,0.4c-0.1,0-0.2,0-0.3,0.1l-2.7,2.1l-1.7-0.1l-1.3-1.4
	c-0.1-0.1-0.3-0.2-0.4-0.2l-8,0.2l-4.2-2.4l0,0c0-0.2-0.1-0.3-0.3-0.4c-0.1-0.1-0.3-0.1-0.4-0.1l0,0l-0.1-0.1l-2.5-3.5v-0.1
	l-1.1-2.1l1.6,0.8c0.1,0.1,0.2,0.1,0.3,0.1l6-0.8l2.6,2.3c0.1,0.1,0.3,0.2,0.5,0.1l4.9-1.2c0.1,0,0.2,0,0.2-0.1l2.9-2.3
	c0.1-0.1,0.2-0.3,0.2-0.5l-0.3-11.5l3.8-2.9l3.3-2.3l5.1-0.3c0.2,0,0.3-0.1,0.4-0.2l2.9-3.9l0,0l1.6-2.6l2.7,0.8c0.1,0,0.1,0,0.2,0
	l5.5-0.2c0.1,0,0.1,0,0.2,0L313.5,462.7z"/>
<path id="divi-27077" class="st0" d="M148.9,473l3.8,3.7l0.1,0.1l2,3.6l0.1,0.1l1,1l0.3,4.9c0,0.3,0.3,0.5,0.6,0.5l5.5,0.2l3.8,1.6
	l0.5,3.2c0,0.2,0.1,0.4,0.3,0.4l4.6,2.1c0.1,0.1,0.3,0.1,0.4,0l4.1-1.2l3.4,0.3h0.1l2.2-0.2l2.4,1.5c0.2,0.1,0.4,0.1,0.5,0l3.8-1.7
	l2.9,2.1c0,0,0.1,0,0.1,0.1l4.8,1.8c0.1,0,0.3,0,0.4,0l3.3-1l3.2,1.4l0.1,3.1l-1,3.6c0,0,0,0,0,0.1l-3.7,1h-0.1l-3.6,2
	c-0.2,0.1-0.3,0.2-0.3,0.4l-0.7,4.8h-3c-0.3,0-0.6,0.3-0.6,0.6l-0.2,2.2l-2.4,0.4c-0.2,0-0.3,0.2-0.4,0.3l-0.7,1.8l-3.2-0.9
	l-1.3-1.8c-0.1-0.2-0.3-0.3-0.6-0.2l-3.9,0.7c-0.1,0-0.3,0.1-0.4,0.2l-2.8,4.1c0,0,0,0.1-0.1,0.1l-1.1,2.7c0,0,0,0,0,0.1l-1.2,4.2
	c0,0.1,0,0.1,0,0.2v1.9l-4.8,0.3l-1.8-0.3c-0.3,0-0.5,0.1-0.6,0.4l-0.7,1.8c-0.1,0.2,0,0.3,0,0.5l1.5,3.2l-0.2,2.2l-0.8,3l-3.5,1.5
	c-0.1,0.1-0.2,0.2-0.3,0.3l-1.4,3c-0.1,0.2-0.1,0.4,0,0.5s0.3,0.3,0.5,0.3l3.6,0.2l1.7,1c0.2,0.1,0.5,0.1,0.7-0.1l2.8-3
	c0.1-0.1,0.1-0.2,0.2-0.3l0.1-1.4l5.2-0.3c0.1,0,0.3-0.1,0.4-0.2l2.5-2.8l2.5,0.1l0.8,2c0.1,0.2,0.2,0.3,0.4,0.3l3.2,1l0.7,1.7
	l-2.7,2.2l-0.1,0.1l-4.2,2.6c-0.1,0.1-0.2,0.2-0.3,0.4c0,0.2,0,0.3,0.1,0.5l2.1,2.8c0.1,0.1,0.2,0.2,0.3,0.2l4.4,1.4
	c0.2,0.1,0.3,0,0.5,0c0.1-0.1,0.2-0.2,0.3-0.4l0.7-2.8l0,0l0.4-1.8l4.2,1.2l0,0l5.6,1.4h0.1l3.3,1.5l-0.7,2.8l-3.4,3.1
	c-0.1,0.1-0.2,0.3-0.2,0.4c0,0.2,0.1,0.3,0.2,0.4l1.2,1.2c0.1,0.1,0.2,0.1,0.3,0.2l4.7,0.8l1.8,3.3v0.1l0.8,3.5l-5.2,0.3
	c-0.2,0-0.4,0.1-0.5,0.2l-1.8,2.7c0,0.1-0.1,0.1-0.1,0.2l-0.6,2.2l-3-0.5c-0.2,0-0.5,0.1-0.6,0.3l-1.7,2.9l-2.9,2
	c-0.1,0.1-0.2,0.2-0.2,0.4l-0.6,4.2l-3.2-0.1c-0.2,0-0.5,0.1-0.6,0.3l-1.2,3.1l-3.1,2.8c-0.1,0.1-0.2,0.2-0.2,0.4l-0.2,2.5
	c0,0.1,0,0.1,0,0.2l0.9,2.9l-0.2,4.5c0,0.1,0,0.2,0.1,0.3l1.6,2.8c0.1,0.2,0.2,0.3,0.4,0.3l4.9,0.9c0,0,0,0,0.1,0l1.6,0.1l-0.6,1.9
	l-5-0.5c-0.2,0-0.3,0-0.4,0.2c-0.1,0.1-0.2,0.3-0.2,0.4v3.9l-2.8,0.2h-0.1l-6.2-0.3l-2.4-1.3l-1.9-2.6l0,0l-2.7-3l0,0l-3.2-3.5l0,0
	l-1.7-3.6c-0.1-0.2-0.2-0.3-0.4-0.3l-2.8-0.7l0,0l-4.8-1.4l-2.3-28.5c0,0,0,0,0-0.1l-4.8-30.3v-0.1l-3-44.7c0-0.1-0.1-0.2-0.1-0.3
	l-7.1-9.4c-0.1-0.1-0.2-0.2-0.4-0.2s-0.3,0-0.4,0.2l-3.5,3.3l-6.6-3.1l2.5-2c0.1-0.1,0.1-0.1,0.2-0.2l2,0.5l0,0l2.5,0.5
	c0.3,0.1,0.6-0.1,0.7-0.4l0.6-1.8l3.9-0.6c0.3,0,0.5-0.3,0.5-0.6v-2l3.3-0.6l0,0l3.5-0.8L148.9,473z"/>
<path id="divi-27135" class="st0" d="M211.8,479.4l1,1.5c0.1,0.1,0.1,0.1,0.2,0.2l5.5,2.8l0.9,4.3c0.1,0.2,0.2,0.4,0.5,0.4l7.4,1.2
	h0.1l6.4-0.5c0.1,0,0.2,0,0.2-0.1l0.2-0.1l0.6,0.8l0.5,3.1c0,0.1,0.1,0.2,0.1,0.3l2.6,3l0.1,0.1l1.3,3l-5.8,0.1
	c-0.1,0-0.3,0.1-0.4,0.2l-2,1.8c-0.1,0.1-0.2,0.3-0.2,0.5s0.1,0.3,0.2,0.4l2.7,2c0,0,0.1,0,0.1,0.1l4.4,1.8l0.7,2l-0.7,1.8l-5,0.5
	c-0.3,0-0.5,0.2-0.5,0.5l-0.3,1.9c0,0.3,0.1,0.5,0.3,0.6l1.6,0.7l-2,1.9H231l-1.2-5.6c-0.1-0.3-0.3-0.5-0.6-0.4l-2.7,0.3
	c-0.2,0-0.3,0.1-0.4,0.2l-1.8,2.6l-9,0.2l0.3-4l5-7.7c0.1-0.2,0.1-0.5,0-0.7l-4.7-6.5l0,0l0,0l0,0c0,0,0-0.1-0.1-0.1
	c0,0,0-0.1-0.1-0.1l0,0l0,0l0,0l-6.3-8.9l1.8-2.1c0.1-0.1,0.1-0.2,0.1-0.3L211.8,479.4z"/>
<path id="divi-27160" class="st0" d="M263.4,484.4l0.5,2.5c0,0.2,0.1,0.3,0.3,0.4l0,0l2,3.6c0,0,0,0,0,0.1l2.7,3.7
	c0,0.1,0.1,0.1,0.2,0.2l-1.9,2.3l-3.6,0.2c-0.1,0-0.3,0.1-0.3,0.2l-2.3,1.9c-0.1,0.1-0.2,0.3-0.2,0.5s0.1,0.3,0.2,0.4l-2.1,2.2
	l-3.4,1.2c-0.1,0-0.1,0.1-0.2,0.1l-3.6,3.1l-2.8-2.1c0-0.1,0-0.3,0-0.4l-1.9-3.9l-0.8-4.8c0-0.1-0.1-0.3-0.2-0.3l-3.3-3.2
	c-0.1,0-0.1-0.1-0.2-0.1l-6.2-2.4l-0.2-0.2l0,0l0,0c0-0.1-0.1-0.2-0.2-0.3l-0.4-0.5l0.4-0.2l4.5,0.2l1.8,1l0,0l2.7,3.1
	c0.1,0.1,0.3,0.2,0.5,0.2l3.9-0.3c0.2,0,0.4-0.2,0.5-0.3l2-4.1c0.1-0.2,0.1-0.5-0.1-0.7l0.6-0.8l2.4-0.9l4.6-0.2h0.1L263.4,484.4z"
	/>
<path id="divi-27810" class="st0" d="M236.1,490.9l5.6,2.2l3.2,3l0.8,4.8c0,0.1,0,0.1,0.1,0.2l1.3,2.7c-0.2,0-0.4,0.2-0.5,0.4
	c-0.1,0.2,0,0.5,0.2,0.6l4.1,3.1l-1.1,1.8l-3.3,1c-0.2,0.1-0.4,0.2-0.4,0.5l-0.7,5l-1.9,1.2c-0.1,0-0.1,0.1-0.2,0.2l-2.2,3l-1.4-0.4
	l-0.6-1.8c0-0.1-0.1-0.2-0.2-0.3l-1.8-1.3l0.7-1.7c0.1-0.3,0-0.6-0.3-0.8l-3.7-1.6l0.2-1.1l4.9-0.5c0.2,0,0.4-0.2,0.5-0.3l0.9-2.3
	c0-0.1,0-0.3,0-0.4l-0.9-2.5c-0.1-0.2-0.2-0.3-0.3-0.3l-4.5-1.9l0,0l-2.1-1.5l1.3-1.2l6.5-0.2c0.2,0,0.4-0.1,0.5-0.3s0.1-0.4,0-0.5
	l-1.8-3.9c0-0.1-0.1-0.1-0.1-0.2l-2.6-2.9L236.1,490.9z"/>
<path id="divi-27430" class="st0" d="M215.2,495.4l4.4,6.1l-4.9,7.4c-0.1,0.1-0.1,0.2-0.1,0.3l-0.3,4.5v0.1c0,0,0,0,0,0.1v0.1
	c0,0,0,0,0,0.1l0,0c0,0.1,0,0.3,0.1,0.4c0,0,0,0.1,0.1,0.1l1.4,4.2c0,0.1,0.1,0.2,0.2,0.3l2.5,1.8c0.2,0.2,0.5,0.1,0.7-0.1l1.6-1.4
	l3.5,0.6l-0.2,2.9l-2,3.2c0,0,0,0,0,0.1l-1.8,3.7c0,0.1-0.1,0.1-0.1,0.2v2.5l-1.8,3.2l-3.7,3.9c-0.2,0.2-0.2,0.5,0,0.7l1.3,1.9
	l-2.4,0.8c-0.1,0-0.2,0-0.2,0.1l-1.8,1.6c-0.1,0.1-0.2,0.3-0.2,0.5l0.3,2.2l-2.3,1.1l-2-1.3c-0.1,0-0.2-0.1-0.3-0.1h-2.7
	c-0.2,0-0.4,0.1-0.5,0.3l-1.1,2.5c0,0.1,0,0.1,0,0.2l-2.6,1.9h-0.1l-3.3-1.5h-0.1l-5.7-1.4l-4.8-1.4c-0.2-0.1-0.3,0-0.5,0
	s-0.2,0.2-0.3,0.4l-0.5,2.5l-0.5,2.2l-3.7-1.2l-1.6-2.2l3.7-2.3c0,0,0,0,0.1-0.1l3-2.5c0.2-0.2,0.3-0.4,0.2-0.7l-0.9-2.3
	c-0.1-0.2-0.2-0.3-0.4-0.3l-3.2-1l-0.8-2c-0.1-0.2-0.3-0.4-0.5-0.4l-3.2-0.2c-0.2,0-0.3,0.1-0.4,0.2l-2.5,2.8l-5.4,0.3
	c-0.3,0-0.5,0.2-0.5,0.5l-0.2,1.8l-2.4,2.5l-1.3-0.8c-0.1,0-0.2-0.1-0.3-0.1l-2.8-0.2l0.9-2l3.5-1.5c0.2-0.1,0.3-0.2,0.3-0.4
	l0.9-3.4v-0.1l0.2-2.3c0-0.1,0-0.2-0.1-0.3l-1.5-3.1l0.4-1.1l1.5,0.2c0.1,0,0.1,0,0.2,0l5.3-0.3c0.3,0,0.5-0.3,0.5-0.6v-2.4v-0.1
	l1.2-4v-0.1l1-2.5l0,0v-0.1l2.6-3.8l3.3-0.6l1.2,1.7c0.1,0.1,0.2,0.2,0.3,0.2l3.9,1.1c0.3,0.1,0.6-0.1,0.7-0.3l0.8-2l2.5-0.5
	c0.3,0,0.5-0.3,0.5-0.5l0.1-2.1h3c0.3,0,0.6-0.2,0.6-0.5l0.7-5l3.3-1.8l3.8-1l0.8,0.9c0.1,0.1,0.1,0.1,0.2,0.1l1.9,0.9
	c0.1,0,0.2,0,0.3,0l2.7-0.2c0.3,0,0.5-0.2,0.5-0.5l0.5-3.4l0.5-2.7l1.6-2.6c0-0.1,0.1-0.2,0.1-0.3v-2.2L215.2,495.4z"/>
<path id="divi-27787" class="st0" d="M270,495.4l4.3,2.5c0.1,0,0.2,0.1,0.3,0.1l7.9-0.2l1.2,1.4c0.1,0.1,0.2,0.2,0.4,0.2l2.1,0.2
	c0.1,0,0.3,0,0.4-0.1l2.7-2.2l7.4-0.3l-0.5,1.1c-0.1,0.2-0.1,0.4,0,0.6l1.4,1.8l0.1,0.1l1.3,2.9l0,0l2.3,3.9l2.4,3.8v0.1l1,3.4
	c0,0.1,0.1,0.1,0.1,0.2l-7.9,0.2l-2.3-1.2c0,0,0,0-0.1,0l-5.7-2.3h-0.1l-7.6-1.6c-0.1,0-0.1,0-0.2,0l-4.6,0.7l-0.9-3.1
	c-0.1-0.2-0.2-0.3-0.4-0.4s-0.4,0-0.5,0.2l-3.2,3.3l0,0l-5.8,4.7l-6.7,2.8l-0.5-0.8l0,0l0,0c0-0.2-0.1-0.4-0.3-0.5l0,0l-1.3-2.2
	l-0.5-2.2c0-0.2-0.1-0.3-0.3-0.4c-0.1-0.1-0.3-0.1-0.5,0l-3.2,1.2c-0.1,0-0.2,0.1-0.2,0.2l-2.9,3.6l-2.6-0.9l0.6-4.3l3.2-1
	c0.1,0,0.2-0.1,0.3-0.2l1.6-2.5c0-0.1,0.1-0.1,0.1-0.2l3.5-3l3.4-1.2c0.1,0,0.2-0.1,0.2-0.1l3-3.2c0.2-0.2,0.2-0.6,0-0.8l1.2-1
	l3.7-0.2c0.2,0,0.3-0.1,0.4-0.2L270,495.4z"/>
<path id="divi-27580" class="st0" d="M274.7,508.8l0.4,1.3c-0.2,0.1-0.2,0.4-0.2,0.6l0.9,4.4c0,0.2,0.1,0.3,0.3,0.4l5.9,3.7h0.1
	l2.3,2l-5.1,1.2c-0.1,0-0.1,0-0.2,0.1l-2.5,1.7l-0.1,0.1l-3.6,1.2l-2.2-2.4l0,0l-2.3-2.3c-0.1-0.1-0.2-0.2-0.4-0.2l-7.4-0.2
	c-0.1,0-0.1,0-0.2,0l-3.2,1.1c-0.3,0.1-0.4,0.3-0.4,0.6l0.3,3.1l-2.6,0.8c0,0,0,0-0.1,0l-2.7,1.1l-4.5-2.8c-0.2-0.1-0.4-0.1-0.5-0.1
	l-3.1,1.3l-1.6-0.8l2.5-1.6h0.1l4.8-2.4h0.1l3.3-1l3.6-0.3c0.1,0,0.2,0,0.3-0.1l1-0.9l0.6,0.9c0.2,0.2,0.5,0.3,0.7,0.2l7.2-3
	c0.1,0,0.1-0.1,0.2-0.1l5.8-4.8l0,0L274.7,508.8z"/>
<path id="divi-27205" class="st0" d="M281.1,511.1l7.4,1.5h0.1l5.5,2.2h0.1l2.4,1.2c0.1,0,0.2,0.1,0.2,0.1l9-0.2l3,3.4v0.2l-1.7,1
	l0,0l-5.3,2.6l-10.6,2.7l0,0l-11.8,1.8l0,0l-8.5,1.6c-0.3,0-0.5,0.3-0.5,0.5l-0.2,5.1l-1.6,4.7l0,0c-0.2,0-0.4,0-0.5,0.2
	s-0.2,0.3-0.2,0.5l0,0l-2.1,0.8l0,0l-3.7,1.7l0,0l-3.5,0.5l-1.6-2.3c-0.1-0.2-0.3-0.2-0.5-0.2l-8-0.2c-0.1,0-0.2,0-0.3,0.1l-2,1.2
	l-7.8-0.2c-0.1,0-0.1,0-0.2,0l-3.7,1.2c-0.1,0-0.3,0.1-0.3,0.3c0,0-1.1-2.1-1-2.2l4.6-6.2c0.1-0.1,0.1-0.2,0.1-0.2l0.7-4.2l0,0
	l1.2-2.7c0-0.1,0-0.2,0-0.3l-0.1-1.2c0.1,0,0.2,0,0.2-0.1l0.7-0.4l2.5,1.2c0.1,0.1,0.3,0.1,0.5,0l3.1-1.3l4.5,2.8
	c0.2,0.1,0.4,0.1,0.5,0.1l3-1.2l3-0.9c0.3-0.1,0.4-0.3,0.4-0.6l-0.3-3.1l2.7-0.9l7.1,0.2l2.2,2.2l2.5,2.6c0.2,0.2,0.4,0.2,0.6,0.2
	l4.1-1.4c0,0,0.1,0,0.1-0.1l2.5-1.7l6.1-1.4c0.2-0.1,0.4-0.2,0.4-0.4c0.1-0.2,0-0.4-0.2-0.6l-3.2-2.8c0,0,0,0-0.1-0.1l-5.8-3.6
	l-0.6-2.8L281.1,511.1z"/>
<path id="divi-27361" class="st0" d="M228.9,511.3l1.1,5.5c0.1,0.3,0.3,0.5,0.6,0.5h2.3c0.2,0,0.3-0.1,0.4-0.2l2.3-2.3
	c0,0,0.1-0.1,0.1-0.2l0.9,0.4l-0.7,1.6c-0.1,0.2,0,0.5,0.2,0.7l2,1.5l0.7,2c0.1,0.2,0.2,0.3,0.4,0.4l2.1,0.5c0.2,0.1,0.5,0,0.6-0.2
	l2.4-3.3l1.9-1.1l3,1.1c0.2,0.1,0.5,0,0.7-0.2l3.1-3.8l2.4-0.9l0.4,1.7c0,0.1,0,0.1,0.1,0.2l1.3,2.1l-1,0.9l-3.5,0.3h-0.1l-3.4,1.1
	c0,0,0,0-0.1,0l-5,2.5c0,0,0,0-0.1,0l-4.2,2.8H236c-0.1,0-0.1,0-0.2,0l-4.6,1.9c-0.1,0-0.1,0.1-0.2,0.1l-4.1,3.5
	c-0.1,0.1-0.2,0.2-0.2,0.4l-0.2,4.8c0,0.1,0,0.2,0.1,0.3l2.1,4.4l-2,1.8l-5.6-0.5c-0.2,0-0.4,0.1-0.5,0.2l-3.9,5.2l-4.9,6
	c-0.1,0.1-0.1,0.2-0.1,0.2l-0.9,5.2c0,0,0,0,0,0.1l-0.2,5.8c0,0.1,0,0.1,0,0.2l1.6,7.1l0,0l0.8,3.1l-8.6,3.3
	c-0.2,0.1-0.3,0.2-0.4,0.4l-1.1,6c0,0.2,0,0.3,0.1,0.4l2.8,3.9c0.1,0.1,0.2,0.2,0.3,0.2l3.5,1.1c0.2,0.1,0.4,0,0.6-0.2l1.9-2.2
	l7,1.3l4.4,2.8l0.1,0.1l4.9,4.5c0.1,0.1,0.2,0.1,0.2,0.1l3.8,0.9l3.8,2.2c0.1,0.1,0.2,0.1,0.3,0.1l2.2,3.9l-3.8,3.6
	c-0.2,0.2-0.2,0.5-0.1,0.7l3.4,5.3c0,0,0,0.1,0.1,0.1l4.3,4.9l-0.7,0.4l-3.2-2.1c-0.2-0.1-0.4-0.1-0.6,0L235,618l-2.2-2
	c0,0-0.1-0.1-0.2-0.1l-4.6-2l0,0l-3.7-1.2c-0.3-0.1-0.5,0-0.7,0.2l-1.6,2.3l-1.4-0.1l-0.6-2.3c-0.1-0.2-0.3-0.4-0.6-0.4H218l0,0
	l-3.5-0.2l0,0l-10.5-1.1h-0.1l-2.6-0.5h-0.1h-4.1l-4.2-0.9c-0.1,0-0.2,0-0.3,0l-2.1,0.9l-0.7-1l0.9-1.6c0.1-0.1,0.1-0.3,0-0.5
	s-0.2-0.3-0.3-0.3l-1.9-0.8l0.6-2.1c0.1-0.2,0-0.3-0.1-0.5c-0.1-0.1-0.3-0.2-0.4-0.3l-2.3-0.2l0,0l-4.6-0.8l-1.4-2.5l0.2-4.4
	c0-0.1,0-0.1,0-0.2l-0.9-3l0,0l0.2-2l3-2.7c0.1-0.1,0.1-0.1,0.2-0.2l1.1-2.8l3.3,0.2c0.3,0,0.6-0.2,0.6-0.5l0.7-4.5l2.8-2
	c0.1-0.1,0.1-0.1,0.2-0.2l1.6-2.7l3.2,0.5c0.3,0,0.6-0.2,0.6-0.4l0.7-2.6l1.6-2.3l5.6-0.3c0.2,0,0.3-0.1,0.4-0.2
	c0.1-0.1,0.1-0.3,0.1-0.5l-0.9-4.2v-0.1l-2-3.7c-0.1-0.2-0.2-0.3-0.4-0.3l-4.8-0.8l-0.7-0.7l3.1-2.8c0.1-0.1,0.2-0.2,0.2-0.3
	l0.8-3.6l3-2.1c0.1-0.1,0.2-0.2,0.2-0.4s0-0.3-0.1-0.4l0.7-1.5h2.1l2.2,1.3c0.2,0.1,0.4,0.1,0.6,0l3-1.4c0.2-0.1,0.3-0.3,0.3-0.6
	l-0.3-2.3l1.5-1.3l3.1-1c0.2-0.1,0.3-0.2,0.4-0.4s0-0.4-0.1-0.5l-1.5-2.1l3.4-3.5l0.1-0.1l1.9-3.3c0.1-0.1,0.1-0.2,0.1-0.3v-2.5
	l1.7-3.5v-0.1l2.1-3.3c0.1-0.1,0.1-0.2,0.1-0.3l0.2-3.6c0-0.3-0.2-0.6-0.5-0.6l-4.2-0.7c-0.2,0-0.3,0-0.5,0.1l-1.4,1.3l-1.9-1.4
	l-1.2-3.5l9.1-0.2c0.2,0,0.4-0.1,0.5-0.2l1.8-2.6L228.9,511.3z"/>
<path id="divi-27450" class="st0" d="M238.7,525.9h-2.5l-4.5,1.9l-3.8,3.3l-0.2,4.4l1.3,4.8l-1.8,2.9c-0.1,0-0.2,0.1-0.3,0.1
	l-5.5-0.5l-3.7,4.9l-4.9,5.9l-0.8,4.9v0.1l-0.2,5.8l1.6,6.9l0.9,3.5c0.1,0.3-0.1,0.6-0.3,0.7l-8.7,3.4l-1,5.5l2.6,3.5l3,0.9l1.9-2.2
	c0.1-0.2,0.4-0.2,0.6-0.2l7.4,1.4c0.1,0,0.1,0.1,0.2,0.1l4.6,2.8l0.1,0.1l4.8,4.5l3.8,0.9c0.1,0,0.1,0,0.2,0.1l2.8,1.7l-0.7-3.6
	l-3.7-4.2l-7-3.5l-3.9-1.8c-0.2-0.1-0.3-0.2-0.3-0.4l-0.8-4.3l0,0l-2.5-5.3l0,0l-0.9-2.2v-0.1l0,0l0,0c0,0,0,0,0-0.1l0,0l0,0l0,0
	c0,0,0,0,0-0.1l0.2-3.1c0-0.3,0.3-0.6,0.6-0.6h2.9l1.4-0.7l0.3-2.9c0-0.1,0.1-0.3,0.2-0.4l2.8-2.2l-0.5-1.4c-0.1-0.1-0.1-0.3,0-0.4
	l1.4-3.3c0-0.1,0.1-0.2,0.2-0.2l2.3-2.1c0.1-0.1,0.3-0.2,0.4-0.2l2.7,0.2l1.1-1.2l1.6-1.9l0.1-0.1l1.9-1.5l1-4.7l-1.6-1
	c-0.1,0-0.1-0.1-0.2-0.2l-4.1-0.7h-0.1l1.7-3.8l4.3-5.8l0.7-4.1c0,0,0-0.1,0.1-0.1l1.2-2.7L238.7,525.9z"/>
<path id="divi-27745" class="st0" d="M287.7,566l-5,2.1c-0.1,0-0.2,0.1-0.2,0.2l-3.2,4.4l0,0l-3.5,4.2c0,0,0,0-0.1,0.1l-2.7,4.4l0,0
	l-0.6,0.9l0,0l0,0c0,0-0.1,0.1-0.1,0.2l-2,3.1c0,0,0,0-0.1,0.1l-1.9,4.2l-1.4,2.8c-0.1,0.2-0.1,0.4,0,0.6l-1.3,4.4v0.1l-0.5,3.7
	l-4.4,5.9c0,0,0,0.1-0.1,0.1l-1.6,3.6l-5.2,0.2c-0.3,0-0.5,0.2-0.5,0.4l-0.9,3.7c0,0.1,0,0.2,0,0.3l1.9,4.6v0.1l0.8,2.9
	c-0.1,0.1-0.2,0.3-0.2,0.5l-7.8-0.5l-1.7-1.8v-0.1l-1.3-2.7h0.1c0.2-0.1,0.3-0.2,0.3-0.4s0-0.3-0.1-0.5l-4.7-5.4l-0.1-0.1l-3.1-4.8
	l3.8-3.6c0.2-0.2,0.2-0.5,0.1-0.7l-2.8-5c0-0.1-0.1-0.2-0.2-0.2l-0.8-4.2c0-0.1-0.1-0.2-0.2-0.3l-3.9-4.4c-0.1-0.1-0.1-0.1-0.2-0.1
	l-7.1-3.6l-3.6-1.7l-0.8-4.1v-0.1l-2.5-5.3l0,0l-0.5-1.5l2.7,0.2h0.1l4.1-0.7l2.8,3.3c0.1,0.1,0.2,0.2,0.3,0.2l5.3,1.6h0.1l3.8,0.2
	l3.2,3.9l0.1,0.1l2.7,1.9c0.1,0.1,0.2,0.1,0.4,0.1l4.1-0.2l3.2-0.2c0.2,0,0.5-0.2,0.5-0.4l1.1-3.9c0-0.1,0-0.1,0-0.2v-2.4l2.3-2.6
	l3.1-2.8l4.6-0.9l0.8,0.8c0.1,0.1,0.3,0.2,0.4,0.2l12.6-0.2c0.1,0,0.2,0,0.3-0.1l4.2-3.1l5.6-1.5H287.7z"/>
<path id="divi-27250" class="st0" d="M153.2,595.4l4.4,1.3l0,0l2.6,0.6l1.7,3.5c0,0.1,0,0.1,0.1,0.2l3.2,3.5l2.6,3l0,0l1.9,2.6
	c0.1,0.1,0.1,0.1,0.2,0.2l2.7,1.4c0.1,0,0.1,0.1,0.2,0.1l6.4,0.3h0.1l3.7-0.3c0.3,0,0.5-0.2,0.6-0.5c0-0.3-0.1-0.6-0.4-0.6v-3.2
	l4.8,0.5c0.2,0,0.4-0.1,0.5-0.2l1.2,0.5l-0.8,1.4c-0.1,0.2-0.1,0.4,0.1,0.6l1.2,1.6c0.2,0.2,0.4,0.3,0.7,0.2l2.3-1l4.1,0.8h0.1h4.2
	l2.6,0.5l0,0l10.6,1.1l0,0l3.6,0.2h1l0.6,2.2c0.1,0.2,0.3,0.4,0.5,0.4l2.1,0.2c0.2,0,0.4-0.1,0.5-0.2l1.5-2.3l3.3,1.1l0,0l4.5,1.9
	l0,0l2.3,2.2c0.2,0.2,0.4,0.2,0.7,0.1l3.2-1.6l3.2,2.1c0.2,0.1,0.4,0.1,0.6,0l0.5-0.3l1.3,2.7l0.1,0.1l1.9,2.1
	c0.1,0.1,0.3,0.2,0.4,0.2l8.6,0.5l1.1,2.5l-0.2,7.2c0,0.2,0.1,0.3,0.2,0.4l3.2,2.7c0.1,0.1,0.2,0.1,0.3,0.1l3.3,0.3l4.2,3.8l0.2,3.1
	l-4,2.6l-5.2,1.1c-0.1,0-0.2,0.1-0.2,0.1l-5.8,4.8c-0.2,0.1-0.2,0.3-0.2,0.5l0.2,2.2l-0.8,0.8l-4.4,2l-7.7,0.5c-0.1,0-0.2,0-0.3,0.1
	l-3.9,2.3c0,0-0.1,0-0.1,0.1l-3,2.8l-8.9-1.3l-3.4-3.8l-0.1-0.1l-6.9-3.9l-0.1-0.1l0,0c0-0.2-0.1-0.4-0.3-0.4
	c-0.2-0.1-0.4-0.1-0.5,0l-4.8-3l0,0l-6.7-3.7c-0.2-0.1-0.3-0.1-0.5,0l-4.8,2.1l-5.1-0.2l-6.5-4.1h-0.1l-3.3-3
	c-0.1-0.1-0.2-0.1-0.3-0.2l-5.5-0.5c-0.1,0-0.1,0-0.2,0l-5.1,1.2l-3.8-1.1l-0.8-4.1c0-0.1-0.1-0.2-0.1-0.2l-2.5-2.8
	c-0.1-0.2-0.3-0.2-0.5-0.2s-0.4,0.2-0.4,0.4l-1.6,4.1l-1.2,3.1l-1.9-0.4h-0.1l-4.8-2.6c-0.2-0.1-0.3-0.1-0.5,0l-3.4,1.6
	c-0.1,0.1-0.2,0.1-0.2,0.2l-2.3,3.9l-5.3,1.5c-0.2,0-0.3,0.2-0.4,0.4l-1.5,5.2l-3.1-22.8l16.2-11.1c0.1-0.1,0.2-0.2,0.2-0.4
	l2.3-22.8v-0.1L153.2,595.4z"/>
<path id="divi-27491" class="st0" d="M309.9,523.9C309.8,523.9,309.8,523.9,309.9,523.9l-0.6-3.1l-1.4,0.8l0,0l-5.5,2.7h-0.1
	l-10.6,2.7c0,0,0,0-0.1,0l-11.8,1.8l-8.1,1.5l-0.2,4.7c0,0.1,0,0.1,0,0.2l-1.8,5l-3.3,1.9l0,0l-3.8,1.8c0,0-0.1,0-0.2,0.1l-3.9,0.5
	c-0.2,0-0.4-0.1-0.6-0.2l-1.6-2.4l-7.5-0.2l-2,1.2c-0.1,0.1-0.2,0.1-0.3,0.1l-7.8-0.2l-2.6,0.9c0,0.1,0.1,0.1,0.1,0.2l0,0l1.7,1
	c0.2,0.1,0.3,0.4,0.2,0.6l-1.1,5.3c0,0.1-0.1,0.3-0.2,0.3l-2,1.5l-0.1,0.1l0,0l-1.5,1.9L232,556c-0.1,0.1-0.3,0.2-0.5,0.2l-2.8-0.2
	l-2,1.9l-1.2,3l0.6,1.5c0.1,0.2,0,0.5-0.2,0.7l-3,2.3l-0.3,2.9c0,0.2-0.1,0.4-0.3,0.5l-1.8,0.9c-0.1,0-0.2,0.1-0.3,0.1h-2.4
	l-0.1,2.1l2.8,0.2l0,0l4.4-0.7c0.2,0,0.4,0,0.5,0.2l2.9,3.4l5.2,1.5l3.9,0.2c0.2,0,0.3,0.1,0.4,0.2l3.3,4l0,0l0.1,0.1l2.4,1.8
	l3.9-0.2l2.8-0.1l1-3.5v-2.5c0-0.1,0-0.3,0.1-0.4l2.5-2.8c0,0,0,0,0-0.1l3.2-2.8c0.1-0.1,0.2-0.1,0.3-0.1l4-0.8l-0.8-0.9
	c-0.1-0.1-0.1-0.2-0.1-0.3l-0.9-6.7c0-0.1,0-0.3,0.1-0.4l2.8-4.4c0,0,0,0,0.1-0.1l3.5-3.9l0.1-0.1l4.1-2.5l2.5-4.8l-1.1-3.5
	c0.1,0.1,0.2,0.2,0.2,0.3l1,3.2l38.5-15.9L309.9,523.9z"/>
<path id="divi-27660" class="st0" d="M314.5,540.7L314.5,540.7c-0.3,0-0.5-0.2-0.6-0.5l0,0l0,0l-0.9-0.8c-0.1-0.1-0.1-0.2-0.2-0.3
	l-1-6.7c0,0,0-0.1-0.1-0.2l-0.7-1L272.6,547l0.1-0.6c0,0.1,0,0.2,0,0.3l-1.6,3.6c0,0.1-0.1,0.2-0.2,0.3l-4.1,2.6l0,0l-3.4,3.8
	l-0.1,0.1l-2.7,4.2l0.8,6.4l1.2,1.2l0,0c0.2,0,0.3,0.1,0.4,0.2c0.1,0.1,0.2,0.3,0.2,0.4l0,0l0.4,0.4l12.1-0.2l4.1-3.1
	c0.1,0,0.1-0.1,0.2-0.1l5.8-1.6h0.1l3.3-0.3l0,0l6.7-2.2l4.3-4.6c0-0.2,0.1-0.4,0.3-0.5l0,0l2.3-5.8c0,0,0,0,0.1-0.1l3.5-6l0.1-0.1
	l1.6-1.4c0.1-0.1,0.2-0.1,0.2-0.2l7.5-1.5L314.5,540.7z"/>
</svg>
