<?xml version="1.0" encoding="utf-8"?>
<!-- Generator: Adobe Illustrator 20.1.0, SVG Export Plug-In . SVG Version: 6.00 Build 0)  -->
<svg version="1.1"
	 id="amazonas" inkscape:output_extension="org.inkscape.output.svg.inkscape" inkscape:version="0.46" sodipodi:docname="departamentos_colombia_plain.svg" sodipodi:version="0.32" xmlns:cc="http://creativecommons.org/ns#" xmlns:dc="http://purl.org/dc/elements/1.1/" xmlns:inkscape="http://www.inkscape.org/namespaces/inkscape" xmlns:rdf="http://www.w3.org/1999/02/22-rdf-syntax-ns#" xmlns:sodipodi="http://sodipodi.sourceforge.net/DTD/sodipodi-0.dtd" xmlns:svg="http://www.w3.org/2000/svg"
	 xmlns="http://www.w3.org/2000/svg" xmlns:xlink="http://www.w3.org/1999/xlink" x="0px" y="0px" viewBox="0 0 741.1 592.1"
	 style="enable-background:new 0 0 741.1 592.1;" xml:space="preserve">
<style type="text/css">
	.st0{fill:none;stroke:#445016;stroke-miterlimit:10;}
</style>
<path id="divi-91430" class="st0" d="M430.8,35.4l0.2,0.5c0,0,0,0.1,0.1,0.1l3.9,4.4c0.1,0.1,0.2,0.1,0.2,0.2l6.4,2.4
	c0.2,0.1,0.5,0,0.6-0.1l5.1-5.5l4.8,3.5l1.4,6.2c0.1,0.2,0.3,0.4,0.5,0.4l5.4,0.5h0l5.9,1.8v4.5c0,0.2,0.1,0.3,0.2,0.4
	c0.1,0.1,0.3,0.2,0.5,0.1l3.9-0.5c0.2,0,0.4-0.2,0.5-0.4l0.8-3.3l4.7,2.2l4.7,5.2l1.3,5.3l-6.5,3.2c-0.2,0.1-0.3,0.3-0.3,0.5
	c0,0.2,0.1,0.4,0.2,0.5l11.1,7.7l0.5,7.6c0,0.1,0,0.2,0.1,0.2l5,8.4l-7.3-0.4h0l-8.1-2.4l-4.8-3.9c-0.1-0.1-0.2-0.1-0.3-0.1
	l-9.2-0.5L452,81.4l-8.3-6.8c-0.1,0-0.1-0.1-0.2-0.1l-7.6-2.4l-3.4-10.1c0-0.1-0.1-0.2-0.2-0.3l-9.3-6.4h0l-10.1-11l13.8-2.8
	c0.2,0,0.3-0.1,0.4-0.2L430.8,35.4z"/>
<path id="divi-91460" class="st0" d="M411.6,44.7l10.6,11.6c0,0,0.1,0,0.1,0.1l9.2,6.3l3.4,10.2c0.1,0.2,0.2,0.3,0.4,0.4l7.8,2.4
	l8.2,6.8c0.1,0,0.1,0.1,0.2,0.1l10.3,3c0,0,0.1,0,0.1,0l9.2,0.5l4.8,3.8c0.1,0,0.1,0.1,0.2,0.1l8.3,2.5c0,0,0.1,0,0.1,0l8.2,0.5
	l0.7,1.2c0.1,0.2,0.4,0.3,0.7,0.2l10.3-3.4c0.2-0.1,0.3-0.2,0.4-0.4c0.1-0.2,0-0.4-0.1-0.5l-2.5-3.2l7.6-2.1l4.7,8
	c0.2,0.3,0.5,0.4,0.8,0.2l6.5-3.2l7.1,9c0.1,0.1,0.3,0.2,0.5,0.2c0.2,0,0.4-0.1,0.5-0.3l2.8-4.7l4.3-0.4l0.7,1.1l1.5,136.8l-6.4-6
	c-0.1-0.1-0.1-0.1-0.2-0.1l-5.9-2c-0.2-0.1-0.4,0-0.5,0.1l-6.1,4.2l-6.1-3.3c0,0-0.1,0-0.1,0l-1.2-0.4c0.2,0,0.3-0.1,0.4-0.2
	l0.8-0.8l0.1-0.1v0l0,0c0.2-0.2,0.2-0.5,0-0.7c-0.2-0.2-0.5-0.3-0.7-0.1l-0.1,0l-0.1,0.1l-1.9,1.5l-9.5-3l-2.3-7.1
	c0-0.1-0.1-0.2-0.2-0.2l-10.3-8.4c-0.1-0.1-0.3-0.1-0.5-0.1l-7.6,1.9l-8.1-4.3l-10.2-13.2c-0.1-0.1-0.2-0.1-0.2-0.2l-3.9-1.5h0
	l-7.7-6.8c-0.1-0.1-0.2-0.1-0.3-0.1l-9.8-2c-0.1,0-0.1,0-0.2,0l-10.8,1c-0.1,0-0.3,0.1-0.4,0.2l-5.3,5.8l-9.1,4.8l-10.5,0.5
	l-7.3-6.8l6.1-8c0.1-0.1,0.1-0.3,0.1-0.4l-1-8.9c0-0.2-0.1-0.4-0.3-0.4l-6.4-3c-0.2-0.1-0.4-0.1-0.5,0l-7.8,4.4l-10.4,1.9l-6.1-7
	l-1.4-8.7c0-0.1-0.1-0.3-0.2-0.4l-10.3-7.3l0,0l-5.9-4.9c-0.2-0.1-0.4-0.2-0.6-0.1l-8,3.6V80.1l7.7,0.9l12.7,3.4c0.1,0,0.3,0,0.4,0
	l5.9-2.9c0.2-0.1,0.3-0.2,0.3-0.4l4.3-16l4.8-2.8c0,0,0,0,0,0l10.8-7.9c0,0,0,0,0,0l9.7-7.3L411.6,44.7z"/>
<path id="divi-91407" class="st0" d="M539.8,96.1l1.4,134.1c0,0,0,0,0,0.1c0,0.1,0,0.1,0,0.2v1.4v0.5c0,0,0,0.1,0,0.1v0l-0.3,66.2
	l122.5,0.5l11-56.9l4-18.8c0,0,0-0.1,0-0.1l4.8-10.2l-5.5-14.8c0-0.1,0-0.2,0-0.3l2.6-14.7l-1.7-2.1h-5.3l2.7,6.6
	c0.1,0.2,0,0.3,0,0.5c-0.1,0.2-0.2,0.2-0.4,0.3l-3.2,0.8l3.1,5.8c0.1,0.2,0.1,0.5-0.1,0.7l-3.9,3.4c-0.2,0.2-0.4,0.2-0.7,0.1
	l-6.4-3.5c0,0-0.1,0-0.1-0.1l-2.6-2.2l-1-0.6l-4.8-2.4l-4,3.1l-0.4,7.6c0,0.2-0.1,0.4-0.3,0.5c-0.2,0.1-0.5,0-0.6-0.1l-3.9-3.4
	c-0.1-0.1-0.2-0.3-0.2-0.4l-0.5-9.3c0,0,0,0,0,0v-7l-8.3-4.9l2.9,4.2c0.2,0.3,0.1,0.6-0.1,0.8l-2.4,2c-0.2,0.2-0.5,0.2-0.7,0
	l-8.2-5.8l-5.4-0.5l-3.8,4.7c-0.1,0.1-0.1,0.1-0.2,0.2l-5.9,2.5c-0.1,0.1-0.3,0.1-0.4,0l-5.9-2c-0.2-0.1-0.3-0.2-0.3-0.4
	c-0.1-0.2,0-0.4,0.1-0.5l4.7-6.6l-1.8-3.6c-0.1-0.1-0.1-0.3,0-0.5c0.1-0.1,0.2-0.3,0.3-0.3l5.4-2.1l-2.8-2.2l-8.1,2.8
	c-0.2,0.1-0.5,0-0.7-0.2l-1.9-2.3l-2.5,4.2c-0.1,0.2-0.3,0.3-0.5,0.3c-0.2,0-0.4-0.1-0.5-0.2l-1.5-2.2l-1.8-2.4l-5.2,1.7l-2.1,4.2
	l7.4,3.7c0.1,0.1,0.2,0.2,0.3,0.4c0,0.2,0,0.3-0.1,0.5l-5.4,7.4c-0.1,0.1-0.2,0.2-0.3,0.2l-4.9,1.5c-0.3,0.1-0.6,0-0.7-0.3l-1.3-2.7
	l-1.3-2.2l-0.2-0.1l-6.2-3.1c-0.2-0.1-0.3-0.3-0.3-0.4s0-0.4,0.2-0.5l3.9-3.5l-1.9-2.1l-3.9,2.5l-1.4,1l-4.2-2.6l-2.3-1.2
	c-0.2-0.1-0.3-0.4-0.3-0.6l1-4.9c0-0.1,0.1-0.3,0.2-0.3l5.9-3.9c0,0,0,0,0.1,0l2.3-1.2l-1.1-4.8l-5.9-5l-1.9-7.5l0.4-0.2
	c0-0.2,0.1-0.5,0.4-0.6l3.5-1.2l1.3-0.6l-1.6-5.9l2.2-10.9l-1.1-1.9l-2.1-3.2l-1.1,2.9c-0.1,0.1-0.2,0.3-0.3,0.3
	c-0.1,0.1-0.3,0.1-0.5,0l-0.6-0.3l0,0.1l-0.4-0.2l-4.4-2c-0.2-0.1-0.3-0.2-0.3-0.4c0-0.2,0-0.3,0.1-0.5l0,0l0.1-0.1l7.8-8.8
	c0.1-0.1,0.2-0.1,0.2-0.2l6.2-1.9l3-2.6c0-0.1-1.7-1.1-1.8-1c-0.2,0.2-0.4,0.2-0.7,0.2l-5.7-2.4l-4.2,1.4l-0.1,0l-6.3,2.9l4,2.4
	c0.2,0.1,0.3,0.4,0.3,0.6c0,0.2-0.2,0.4-0.4,0.5l-6.9,1.5c-0.2,0-0.4,0-0.6-0.2l-3.2-3.7l-7.5,1.9c-0.3,0.1-0.6-0.1-0.7-0.4
	l-2.4-7.8l0-0.1L539.8,96.1z"/>
<path id="divi-91669" class="st0" d="M339.5,79.6l3.4,0.4v65.4c0,0.2,0.1,0.4,0.3,0.5c0.2,0.1,0.4,0.1,0.6,0l8.5-3.8l5.7,4.7
	c0,0,0,0,0,0l10.1,7.2l1.4,8.6c0,0.1,0.1,0.2,0.1,0.3l6.4,7.4c0.1,0.2,0.3,0.2,0.5,0.2l10.8-2c0.1,0,0.1,0,0.2-0.1l7.6-4.3l5.8,2.7
	l0.9,8.3l-6.2,8.2c-0.2,0.2-0.2,0.6,0.1,0.8l7.9,7.4c0.1,0.1,0.3,0.2,0.4,0.2l10.8-0.5c0.1,0,0.2,0,0.2-0.1l9.3-4.9
	c0.1,0,0.1-0.1,0.2-0.1l5.2-5.8l10.4-1h0.1l9.6,1.9l7.8,6.8c0.1,0.1,0.1,0.1,0.2,0.1l3.8,1.4l10.2,13.2c0.1,0.1,0.1,0.1,0.2,0.2
	l8.4,4.4c0.1,0.1,0.3,0.1,0.4,0l7.6-1.9l10,8.1l2.4,7.2c0.1,0.2,0.2,0.3,0.4,0.4l9,2.9l-1.3,1c0,0,0,0.1-0.1,0.1l-2.6,3l-1.5-1.5
	c0,0,0,0,0,0l-5.4-4.9c-0.1-0.1-0.3-0.2-0.5-0.1l-3.9,1h-0.1l-4.4,0.5l-5.2-1c-0.1,0-0.2,0-0.3,0l-3.2,1.4l-2.2-1.3
	c-0.1-0.1-0.2-0.1-0.4-0.1l-6.3,1h-0.1l-4.2-1l-3.8-1.9c-0.1-0.1-0.3-0.1-0.4,0l-6.9,1.9c0,0,0,0-0.1,0l-3.7,1.4l-7.2-2.8
	c-0.3-0.1-0.5,0-0.7,0.2l-2,3.4c-0.1,0.2-0.1,0.5,0,0.7l2.2,2.6l-5.5,6.8l-2.1-4.6c-0.1-0.2-0.3-0.4-0.6-0.3l-5.9,0.5
	c-0.2,0-0.4,0.2-0.5,0.4l-1.5,7.4c0,0.1,0,0.2,0,0.3l1.5,4l-2.6-1.3c-0.2-0.1-0.3-0.1-0.5,0c-0.2,0.1-0.3,0.2-0.3,0.4l-0.9,3.3l0,0
	l-4.9,7.4c0,0,0,0,0,0l-2.5,4.4l-2.5,4.9c0,0,0,0.1-0.1,0.1l-1.4,7.2l-7.6,5.2l0,0l-8.2,2.4c-0.1,0-0.2,0.1-0.2,0.2l-4.4,5.3l-4-6.2
	c0,0,0,0,0-0.1l-4.4-5.9l0,0l-1.9-4.3c0-0.1-0.1-0.1-0.2-0.2l-4.9-4.4c0,0-0.1,0-0.2-0.1l-8-3.8v-3.1c0-0.1-0.1-0.3-0.2-0.4
	l-4.9-5.4l-3.4-5.8c-0.1-0.1-0.1-0.2-0.2-0.2l-7.4-3.9c-0.1-0.1-0.2-0.1-0.3-0.1l-7.8,0.9l-0.4-4.3c0-0.2-0.2-0.4-0.4-0.5l-3.6-1.3
	v-0.1c0-0.3-0.2-0.5-0.4-0.6c-0.2-0.1-0.5,0-0.6,0.2l-3.7-1.5l1.3-3.9c0.1-0.2,0-0.4-0.1-0.5l-2.9-3.9l-1.8-3.7l1-5.8
	c0-0.3-0.1-0.5-0.4-0.6l-4.6-1.4l-1.3-4.4l2.4-6.7c0.1-0.2,0-0.4-0.1-0.6c-0.1-0.2-0.3-0.2-0.5-0.2l-7.4,1.5c0,0-0.1,0-0.1,0.1
	l-4.4,2c-0.1,0-0.2,0.1-0.2,0.2l-2.1,2.9l-6.9-6.9c-0.1-0.1-0.2-0.2-0.4-0.2l-9.8-0.5c0,0-0.1,0-0.1,0l-9,1l-3.2-5.1
	c-0.1-0.1-0.2-0.2-0.3-0.2l-8.8-3.4c-0.1-0.1-0.3-0.1-0.4,0l-8.7,2.9l-12.6-2.4h-0.1l-12-3.4l-2.4-5.2c-0.1-0.1-0.2-0.3-0.3-0.3
	c-0.1-0.1-0.3-0.1-0.5,0l-21.8-60.1l4.4,3.5c0.1,0.1,0.2,0.1,0.4,0.1l8.4-0.5c0.1,0,0.2,0,0.2-0.1l9.2-4.4l5.6-1.4l5.7,7.1
	c0,0,0.1,0.1,0.1,0.1l11.3,7.9c0,0,0.1,0,0.1,0.1l7.4,2.9c0.2,0.1,0.5,0,0.7-0.2l4.4-6.4l0,0l10.3-12.7l2,3.2v0l2.5,4.4
	c0.1,0.1,0.2,0.2,0.3,0.3l6.4,1.5c0,0,0,0,0,0l7.9,1.5c0.2,0,0.4,0,0.5-0.2l2.8-2.8l0.2-0.2c0,0,0-0.1,0.1-0.1l0.4-0.3
	c0.2-0.2,0.2-0.5,0.1-0.7l2.5-5.4l5.4-11.8l0-0.1l6.8-10.7l6.8-4.8c0,0,0,0,0-0.1l4.4-3.9c0.1-0.1,0.1-0.2,0.2-0.2L339.5,79.6z"/>
<path id="divi-91405" class="st0" d="M116.2,97.8l5.6,2.8c0.1,0,0.1,0,0.2,0l7.2,0.5l-0.9,5.8c0,0.2,0.1,0.4,0.3,0.6
	c0.2,0.1,0.4,0.1,0.6,0l3.9-3l3.1,6.2c0,0,0.1,0.1,0.1,0.1l3.9,4.9c0.1,0.1,0.3,0.2,0.5,0.2c0.2,0,0.4-0.1,0.4-0.3l2.2-4.3l6.3,4.1
	c0.1,0.1,0.2,0.1,0.2,0.1l10.3,1c0,0,0.1,0,0.1,0l4.4-0.5c0.1,0,0.2-0.1,0.3-0.1l4.5-3.6l5,6c0,0,0.1,0,0.1,0.1l4.4,3.5c0,0,0,0,0,0
	l8.9,5.9c0.1,0.1,0.2,0.1,0.3,0.1h11.3c0.2,0,0.4-0.1,0.5-0.3l2.9-5.3l0,0l0-0.1l5.1-6l6.1,1.5c0,0.1,0.1,0.2,0.2,0.2l3.2,2.5
	l22.7,62.7c0.1,0.2,0.2,0.3,0.4,0.4s0.4,0,0.5-0.1l2.1,4.7c0.1,0.2,0.2,0.3,0.4,0.3l12.3,3.4c0,0,0,0,0,0l12.8,2.4
	c0.1,0,0.2,0,0.3,0l8.7-2.9l8.5,3.3l3.3,5.2c0.1,0.2,0.3,0.3,0.6,0.3l9.2-1h0.1l9.5,0.5l7.2,7.2c0.1,0.1,0.3,0.2,0.5,0.2
	c0.2,0,0.3-0.1,0.4-0.3l2.4-3.3l4.2-1.8l6.4-1.3l-2.1,5.9c-0.1,0.1-0.1,0.2,0,0.4l1.5,4.9c0.1,0.2,0.2,0.4,0.4,0.4l4.4,1.3l-0.9,5.4
	c0,0.1,0,0.2,0.1,0.3l2,3.9c0,0,0,0.1,0,0.1l2.8,3.7l-1.4,4.2c-0.1,0.3,0,0.6,0.3,0.7l4.6,1.8v79.2c-0.2,0-0.4,0.2-0.5,0.5
	c0,0.2,0.1,0.5,0.3,0.6l0.2,0.1v0.9c0,0.1,0,0.1,0,0.2l-6,3.2h-0.1l-3.3,0.8l1-2.4v0l2.9-3.8c0.2-0.2,0.2-0.6-0.1-0.8l-4.4-4.4
	c-0.1-0.1-0.3-0.2-0.4-0.2c-0.2,0-0.3,0.1-0.4,0.2l-2.7,3.2l-15-5.2v-4.4c0.2,0,0.3-0.1,0.4-0.2s0.1-0.3,0.1-0.5l-2-9.3
	c0,0,0-0.1,0-0.1c0.1-0.2,0.1-0.4-0.1-0.6l-4.4-6.4c-0.1-0.1-0.2-0.2-0.4-0.2l-7.4-1l-4.6-1.8l0,0l-5.4-4.9c0,0-0.1-0.1-0.1-0.1
	l-7.9-4.6l2.7-4.9c0.1-0.1,0.1-0.3,0-0.4c0-0.1-0.2-0.3-0.3-0.3L279,263l-1.9-4.2c-0.1-0.2-0.4-0.4-0.6-0.3c-0.3,0-0.5,0.2-0.5,0.5
	l-0.9,6.1l-6-3l0,0l-5.7-5.2v-7.1c0-0.2-0.2-0.4-0.4-0.5l-5.1-1.8l-1.4-7.6c0,0,0-0.1,0-0.1c0,0,0,0,0,0L116.2,97.8z"/>
<path id="divi-91530" class="st0" d="M103.1,100.3l2.9,1.3c0.2,0,5-0.7,5.5-0.8c1.1-0.1,2.9-2.7,3.8-2.5L254,238.7l-100.7-0.9v-0.1
	c0-0.1,0-0.2-0.1-0.2l-17.9-25.9c-0.1-0.1-0.2-0.2-0.3-0.2l-11.9-4.9l-5.8-5.4c-0.1-0.1-0.3-0.2-0.5-0.2c-0.2,0-0.3,0.1-0.4,0.3
	l-4.4,6.1l-11.4-6.8h0l-10.2-11.3c-0.1-0.1-0.2-0.2-0.3-0.2l-7.6-1.6l-0.8-8.8c0-0.3-0.2-0.5-0.5-0.5c-0.3-0.1-0.5,0.1-0.6,0.3
	l-3.6,6.3l-24.2-11.4l-1.3-17.4c0-0.1,0-0.2-0.1-0.3l-8.8-11.3v0L35.9,121L103.1,100.3z"/>
<path id="divi-91536" class="st0" d="M464.4,221.3l3.8,1.9c0,0,0.1,0,0.1,0l4.4,1c0.1,0,0.1,0,0.2,0l6.2-1l2.3,1.4
	c0.2,0.1,0.3,0.1,0.5,0l3.3-1.4l5.2,1c0.1,0,0.1,0,0.2,0l4.4-0.5c0,0,0.1,0,0.1,0l3.6-0.9l5.2,4.7l1.9,2c0.1,0.1,0.3,0.2,0.4,0.2
	c0.2,0,0.3-0.1,0.4-0.2l3-3.4l1.8-1.4l2,0.6l6.3,3.4c0.2,0.1,0.4,0.1,0.6-0.1l6.2-4.2l5.5,1.8l7.1,6.6l-0.2,66.1h-0.6
	c-0.3,0-0.6,0.2-0.6,0.6c0,0.3,0.2,0.6,0.6,0.6h0.7l-0.2,49.5l-8.6-3.5c-0.2-0.1-0.4,0-0.5,0.1s-0.2,0.3-0.2,0.5l0.2,10.3l-6.4-4.3
	l-0.5-9.6c0-0.2-0.2-0.4-0.4-0.5l-10.2-4l0,0l-13.6-6.8l-3.7-6.2c-0.1-0.2-0.3-0.3-0.5-0.3L483,326l-1.8-3.2
	c-0.1-0.2-0.4-0.3-0.6-0.2l-7.6,1.5c-0.2,0-0.3,0.1-0.4,0.3c-0.1,0.1-0.1,0.3-0.1,0.5l2.7,9.4l-6.5-4.6c-0.1-0.1-0.3-0.1-0.5-0.1
	l-9.8,3.2c-0.3,0.1-0.4,0.4-0.3,0.7l2.5,8l-3.2,5l-6.8-4.3c0,0-0.1,0-0.1-0.1l-11.2-4c-0.2-0.1-0.4,0-0.5,0.1l-8.1,5.4l-12.7-12.7
	c-0.1-0.1-0.1-0.1-0.2-0.1L393,319.8c-0.1-0.1-0.3-0.1-0.5,0l-9.8,4.7l1.7-10.4c0-0.2,0-0.4-0.2-0.5c-0.1-0.1-0.3-0.2-0.5-0.1
	l-10.7,3c-0.1,0-0.2,0.1-0.3,0.2l-0.3,0.4l-3-2.4c-0.2-0.1-0.4-0.2-0.6-0.1l-4.3,1.9h-4.8c0,0,0,0-0.1,0l-8.2,0.9l-8.4-4.4v-79.3
	l2.8,1.1l0.5,4.6c0,0.2,0.1,0.3,0.2,0.4c0.1,0.1,0.3,0.1,0.4,0.1l8.2-1l7.1,3.8l3.3,5.8c0,0,0.1,0.1,0.1,0.1l4.8,5.2v3.2
	c0,0.2,0.1,0.4,0.3,0.5l8.2,3.8l0.1,0l4.8,4.3l1.9,4.3c0,0,0,0.1,0.1,0.1l4.4,5.8l0,0l4.4,6.9c0.1,0.1,0.3,0.2,0.4,0.3
	c0.2,0,0.4-0.1,0.5-0.2l4.8-5.8l8.2-2.4c0.1,0,0.1-0.1,0.2-0.1l7.9-5.4c0.1-0.1,0.2-0.2,0.2-0.3l1.4-7.2v0l2.5-4.9l2.4-4.4l0,0
	l4.9-7.3c0,0,0-0.1,0.1-0.2l0.8-2.8l3.3,1.7c0.2,0.1,0.5,0.1,0.7-0.1c0.2-0.2,0.2-0.4,0.2-0.6l-1.9-5.2l1.3-6.8l5.1-0.4l2.3,5
	c0.1,0.2,0.3,0.3,0.4,0.3s0.4-0.1,0.5-0.2l6.4-7.9c0.2-0.2,0.1-0.5,0-0.7l-2.2-2.7l1.5-2.7l6.9,2.8c0.1,0.1,0.3,0.1,0.4,0l3.9-1.5
	L464.4,221.3z"/>
<path id="divi-91263" class="st0" d="M153.4,239l59.1,0.6l0.2,0.2c0.1,0.2,0.3,0.2,0.6,0.2c0.2,0,0.4-0.2,0.4-0.4l41.7,0.4
	c0,0,0,0,0,0l1.5,7.8c0,0.2,0.2,0.4,0.4,0.4l5,1.8v7c0,0.2,0.1,0.3,0.2,0.4l5.9,5.4c0,0,0.1,0.1,0.1,0.1l6.9,3.4
	c0.2,0.1,0.4,0.1,0.5,0c0.2-0.1,0.3-0.3,0.3-0.4l0.7-4.9l1.2,2.6c0.1,0.1,0.2,0.2,0.3,0.3l4.9,2.2l-2.7,4.9
	c-0.2,0.3-0.1,0.6,0.2,0.8l8.3,4.8l0.1,0.1l5.3,4.8c0.1,0.1,0.1,0.1,0.2,0.1l4.9,2c0.1,0,0.1,0,0.2,0l7.1,0.9l4.2,6.1
	c-0.1,0.1-0.1,0.2,0,0.4l1.6,7.4c-0.1,0.1-0.1,0.2-0.1,0.3v6.9c0,0.2,0.2,0.4,0.4,0.5l15.8,5.4c0.2,0.1,0.5,0,0.6-0.2l2.5-3l3.7,3.6
	l-2.7,3.5c0,0,0,0.1-0.1,0.1l-1.5,3.4c-0.1,0.2-0.1,0.4,0.1,0.6c0.1,0.2,0.4,0.3,0.6,0.2l4.4-1c0.1,0,0.1,0,0.2-0.1l7.4-3.9
	c0.1-0.1,0.2-0.1,0.2-0.2l7.1,3.7c0.1,0.1,0.2,0.1,0.3,0.1l8.3-1h0.1h4.8c0.1,0,0.2,0,0.2,0l4.1-1.8l2.7,2.1l-17.8,22.2l-14.2-1.2
	c-0.1,0-0.3,0-0.4,0.1l-9.1,6.1l0,0l-15.8,4.3c-0.1,0-0.1,0-0.2,0.1l-14.9,9l-3.2-9.9c-0.1-0.3-0.4-0.5-0.7-0.4l-12.2,2.6l-17.7-6.1
	c-0.2-0.1-0.5,0-0.7,0.2l-5.8,8.8l-11.3-4.1c-0.1,0-0.3,0-0.4,0l-11.7,5.2l-12-2.3l-5.8-6.9c-0.1-0.1-0.2-0.2-0.3-0.2l-14.6-3.8
	l-6.2-12.4l10.2-14.2c0.1-0.1,0.1-0.3,0.1-0.5l-6-20c0,0,0,0,0,0l-3.8-11.4c0-0.1-0.1-0.1-0.1-0.2l-8.9-12.2
	c-0.1-0.2-0.4-0.3-0.6-0.2l-9.2,2.8h-0.1l-16.1,0.1l-15-10.4l8-11.1c0.1-0.1,0.1-0.3,0.1-0.4L153.4,239z"/>
<path id="divi-91798" class="st0" d="M540.1,300l122.3,0.5L639,421.8l-33.8-0.5c0,0,0,0-0.1,0l-5.9,0.5c-0.1,0-0.1,0-0.2,0l-5.4,2
	c-0.1,0.1-0.3,0.2-0.3,0.3c-0.1,0.1-0.1,0.3,0,0.5l2.1,4.5l-5.9-0.4c-0.2,0-0.4,0.1-0.5,0.2l-4.3,6.3l-8.1,4.8h-7.7
	c-0.1,0-0.1,0-0.2,0l-6.2,2.5l32.8-51.4c0-0.1,0.1-0.1,0.1-0.2l1.2-6.3c0-0.3-0.1-0.5-0.3-0.6l-9.6-4.1l-0.1,0l-10.4-5.7l-3.8-10.1
	c-0.1-0.2-0.3-0.4-0.6-0.3l-10.9,1.2l4.8-3.3c0.2-0.1,0.3-0.4,0.2-0.6c-0.1-0.2-0.3-0.4-0.5-0.4l-17.5-1.6l-7.1-8.7
	c-0.1-0.1-0.1-0.1-0.2-0.2l-0.4-0.2L540.1,300z"/>
<path id="divi-91001" class="st0" d="M606.3,422.4L606.3,422.4l33.6,0.4L612,567l-17.2-17.8c0,0,0,0,0,0l-10.5-10.4c0,0,0,0,0,0
	L572,527.5c-0.1-0.1-0.1-0.1-0.2-0.1l-1.2-0.4l-2.6-7c-0.1-0.1-0.2-0.2-0.3-0.3l-7.4-3.7l1.3-3.5c0.1-0.2,0-0.4-0.1-0.6l-4.7-4.7
	l0.9-5.6c0,0,0,0,0-0.1l2.8-54.5l1.2-1.9l0.6-1l7.7-3.1h7.8c0.1,0,0.2,0,0.3-0.1l8.3-4.9c0.1,0,0.1-0.1,0.2-0.2l4.2-6.1l6.6,0.4
	c0.2,0,0.4-0.1,0.5-0.2c0.1-0.2,0.1-0.4,0.1-0.5l-2.2-4.9l4.8-1.7L606.3,422.4z"/>
<path id="divi-91540" class="st0" d="M558.1,449l-2.7,52.5v0.1l-1,5.8c0,0.2,0,0.4,0.2,0.5l4.7,4.7l-1.3,3.6c-0.1,0.3,0,0.6,0.3,0.7
	l7.7,3.8l2.2,5.9l-3.1-1c0,0-0.1,0-0.1,0l-13.9-1.6c0,0-0.1,0-0.1,0l-20.8,2.5l-17.1-8.4L558.1,449z"/>
</svg>
